<svg width="78" height="64" viewBox="0 0 78 64" fill="none" xmlns="http://www.w3.org/2000/svg">
<g clip-path="url(#clip0_79509_1159)">
<path fill-rule="evenodd" clip-rule="evenodd" d="M0.186555 9.49747C0.213536 9.17369 7.01286 1.32209 8.33495 1.26813C20.2877 0.647555 72.6318 0.269815 79.1613 0C82.2372 0.890388 85.9336 1.43002 89.4682 1.457C120.146 1.72681 173.596 1.13322 181.853 1.26813C182.473 1.26813 190.001 8.74199 190.001 9.49747C190.001 24.6071 189.758 45.3019 189.515 54.8263C189.515 55.7707 181.88 63.1906 181.502 63.1906C180.396 63.1906 156.436 64 153.522 64C153.306 64 149.718 62.9747 147.802 62.9747C101.718 62.9477 55.1208 63.2985 9.03647 63.2985C8.36193 63.2985 0.672221 56.2563 0.591277 54.8533C0.240518 50.3744 0.0786289 41.3086 -0.00231542 32.4317C0.402406 29.6256 1.21185 22.4216 1.18487 22.1518C1.15789 21.4233 0.375425 19.6425 -0.0292969 17.8887C-0.00231542 13.4637 0.0516475 10.2799 0.159573 9.52445H0.186555V9.49747Z" fill="#1F2B3A"/>
<path fill-rule="evenodd" clip-rule="evenodd" d="M7.14843 12.303C7.41823 11.8983 10.8447 8.20202 11.2225 8.17503L8.30858 1.24109C7.01353 1.32203 0.21448 9.14633 0.1875 9.49707L7.14843 12.303Z" fill="url(#paint0_radial_79509_1159)"/>
<path fill-rule="evenodd" clip-rule="evenodd" d="M11.2226 8.17538C34.2647 7.15009 59.3575 8.60709 80.403 9.01181L79.1619 -0.0269775C72.6324 0.269818 20.2884 0.647559 8.30859 1.24115L11.1956 8.17538H11.2226ZM89.4688 1.457L91.9781 7.55481C120.983 7.31198 166.393 8.20236 178.966 8.20236L181.853 1.26813C173.597 1.13322 120.174 1.72682 89.4688 1.457Z" fill="url(#paint1_radial_79509_1159)"/>
<path fill-rule="evenodd" clip-rule="evenodd" d="M181.502 63.1905L178.318 56.3372C177.401 56.4451 156.976 55.3119 155.87 55.5278L153.522 64C156.436 64 180.396 63.1905 181.502 63.1905ZM147.775 62.9477L145.752 56.7689C101.124 56.7689 56.4701 57.8212 11.8698 56.3372L9.00977 63.2715C55.0941 63.2715 101.691 62.9207 147.775 62.9477Z" fill="url(#paint2_radial_79509_1159)"/>
<path fill-rule="evenodd" clip-rule="evenodd" d="M9.0093 63.2711L11.8692 56.3371C11.4375 56.3371 7.84914 52.6138 7.60632 52.1012L0.564453 54.7992C0.672374 56.2022 8.33479 63.2441 9.0093 63.2441V63.2711Z" fill="url(#paint3_radial_79509_1159)"/>
<path fill-rule="evenodd" clip-rule="evenodd" d="M0.564657 54.8263L7.60682 52.1281C7.17511 51.2917 7.90361 34.6981 7.84965 33.5109L-0.00195312 32.4317C0.0520098 41.3086 0.24088 50.3743 0.537676 54.8263H0.564657ZM-0.00195312 17.8617L7.60682 19.9393C7.60682 19.2108 6.93228 12.6543 7.14813 12.3035L0.186917 9.49744C0.105973 10.2529 0.0520098 13.4367 -0.00195312 17.8617Z" fill="url(#paint4_radial_79509_1159)"/>
<path fill-rule="evenodd" clip-rule="evenodd" d="M-0.00195312 32.4312L7.79536 33.5374C7.76838 32.728 6.47333 26.5225 6.41937 22.9881L1.18518 22.1517C1.18518 22.4485 0.402752 29.6523 -0.00195312 32.4312Z" fill="url(#paint5_radial_79509_1159)"/>
<path fill-rule="evenodd" clip-rule="evenodd" d="M1.21216 22.1246L6.44635 22.961C6.44635 22.6912 7.6065 20.155 7.6065 19.9122L-0.00195312 17.8347C0.402752 19.5884 1.18518 21.3691 1.21216 22.0976V22.1246Z" fill="url(#paint6_radial_79509_1159)"/>
<path fill-rule="evenodd" clip-rule="evenodd" d="M7.14755 12.3035C7.41737 11.8988 10.844 8.20234 11.2218 8.17536C34.2639 7.15006 59.3567 8.60706 80.4022 9.01178C81.7783 9.01178 88.0919 7.55478 91.9772 7.5278C120.982 7.28497 166.392 8.17536 178.965 8.17536C179.154 8.17536 182.986 11.8988 183.04 12.3035C184.389 25.2276 183.795 49.0253 183.498 51.2917C183.444 51.7774 178.615 56.3103 178.318 56.3642C177.4 56.4722 156.976 55.3389 155.869 55.5548C154.79 55.7437 146.291 56.8229 145.778 56.8229C101.151 56.8229 56.4966 57.8752 11.8963 56.3912C11.4646 56.3912 7.87605 52.6678 7.63322 52.1551C7.20152 51.3187 7.93002 34.7251 7.87605 33.5379C7.84907 32.7285 6.55396 26.5227 6.5 22.9882C6.5 22.7184 7.6602 20.1821 7.6602 19.9393C7.6602 19.2108 6.98567 12.6543 7.20152 12.3035H7.14755Z" fill="url(#paint7_radial_79509_1159)"/>
<path style="mix-blend-mode:screen" opacity="0.75" fill-rule="evenodd" clip-rule="evenodd" d="M8.82138 12.978C8.68648 13.2209 9.9546 19.1028 9.9546 20.0472C9.9546 20.3979 8.17383 22.7723 8.17383 23.177C8.17383 24.0404 10.1974 31.7841 10.3323 33.376C10.4673 34.9679 8.92931 50.7251 9.19912 51.4266C9.30705 51.7234 12.248 54.6374 12.3829 54.6374C56.8214 56.2563 101.287 55.0961 145.725 55.0691C148.1 55.0691 154.063 52.4519 156.518 51.8313C157.84 51.4806 175.998 54.4755 177.509 54.0168C179.047 53.5312 181.745 50.914 181.799 50.6981C183.068 45.8954 182.204 19.8583 181.341 12.9241C181.341 12.7622 178.427 9.92912 178.346 9.92912C149.719 9.47044 120.659 8.76892 92.0861 8.76892C91.0069 8.76892 81.2126 12.5733 80.1064 12.4924C75.3307 12.0876 50.157 9.76723 35.0743 9.60535C27.3037 9.5244 19.506 9.47044 11.7624 9.90214C11.5735 9.90214 8.90233 12.7622 8.7944 12.978H8.82138Z" fill="url(#paint8_radial_79509_1159)"/>
<path style="mix-blend-mode:screen" fill-rule="evenodd" clip-rule="evenodd" d="M10.3856 8.12135C10.3856 7.60871 9.71106 5.5851 9.52219 4.93754C9.25237 4.02017 8.98256 3.12979 8.71274 2.2394C8.6318 1.99656 8.76671 2.32034 8.82067 2.3743C9.25237 3.18375 11.0331 6.96115 11.6267 7.23097C12.0045 7.39285 12.5441 7.41984 13.1647 7.41984C29.4075 7.20398 45.6773 7.52776 61.8932 8.52607C45.5154 8.01343 29.1917 8.04041 12.8139 8.44513C12.0584 8.44513 11.6537 8.55306 11.3569 8.634C10.8443 8.76891 9.87294 9.47043 9.3603 9.84817C9.68407 9.38948 10.3046 8.634 10.3856 8.09437V8.12135Z" fill="url(#paint9_radial_79509_1159)"/>
<path style="mix-blend-mode:screen" fill-rule="evenodd" clip-rule="evenodd" d="M7.47179 47.5943C7.41783 46.1104 7.36386 34.4279 7.22896 34.1042C6.98614 33.5646 3.55964 32.971 2.91211 32.8361C3.39776 32.8361 6.87822 32.971 7.09406 32.8361C7.39085 32.6202 6.68936 26.4417 6.6354 25.5784C7.0401 28.0336 7.52575 30.4888 8.09233 32.917C8.33516 33.9693 8.20025 34.6977 8.11931 35.723C7.84951 39.6351 7.66065 43.5743 7.47179 47.5134V47.5943Z" fill="url(#paint10_radial_79509_1159)"/>
</g>
<g clip-path="url(#clip1_79509_1159)">
<path fill-rule="evenodd" clip-rule="evenodd" d="M11.3959 9.49772C11.4037 9.17394 13.3833 1.32234 13.7682 1.26837C17.2481 0.647799 32.4875 0.270059 34.3885 0.000244141C35.284 0.890632 36.3602 1.43026 37.3892 1.45724C46.3208 1.72706 61.8823 1.13347 64.286 1.26837C64.4667 1.26837 66.6583 8.74223 66.6583 9.49772C66.6583 24.6073 66.5876 45.3021 66.5169 54.8266C66.5169 55.7709 64.2938 63.1908 64.1839 63.1908C63.8618 63.1908 56.8862 64.0002 56.0379 64.0002C55.975 64.0002 54.9303 62.975 54.3725 62.975C40.9556 62.948 27.3894 63.2987 13.9724 63.2987C13.776 63.2987 11.5372 56.2566 11.5137 54.8535C11.4116 50.3746 11.3644 41.3088 11.3409 32.432C11.4587 29.6259 11.6944 22.4218 11.6865 22.152C11.6786 21.4235 11.4508 19.6427 11.333 17.8889C11.3409 13.464 11.3566 10.2802 11.388 9.5247H11.3959V9.49772Z" fill="#1F2B3A"/>
<path fill-rule="evenodd" clip-rule="evenodd" d="M14.6086 8.17538C21.3171 7.15009 28.6226 8.60709 34.7498 9.01181L34.3884 -0.0269775C32.4874 0.269818 17.248 0.647559 13.7603 1.24115L14.6008 8.17538H14.6086ZM37.3892 1.457L38.1197 7.55481C46.5642 7.31198 59.7848 8.20237 63.4454 8.20237L64.2859 1.26813C61.8822 1.13322 46.3286 1.72682 37.3892 1.457Z" fill="url(#paint11_radial_79509_1159)"/>
<path fill-rule="evenodd" clip-rule="evenodd" d="M34.3887 0L34.75 9.03899C35.1507 9.03899 36.9889 7.58196 38.1201 7.55498L37.3895 1.45703C36.3604 1.43005 35.2763 0.917391 34.3887 0Z" fill="url(#paint12_radial_79509_1159)"/>
<path fill-rule="evenodd" clip-rule="evenodd" d="M64.1837 63.1905L63.2567 56.3372C62.9896 56.4451 57.0431 55.3119 56.7211 55.5278L56.0377 64C56.886 64 63.8616 63.1905 64.1837 63.1905ZM54.3645 62.9477L53.7753 56.7689C40.7825 56.7689 27.7819 57.8212 14.797 56.3372L13.9644 63.2715C27.3813 63.2715 40.9475 62.9207 54.3645 62.9477Z" fill="url(#paint13_radial_79509_1159)"/>
<path fill-rule="evenodd" clip-rule="evenodd" d="M56.0382 64.0002L56.7217 55.5278C56.4074 55.7167 53.9329 56.796 53.7837 56.796L54.3729 62.9749C54.9385 62.9749 55.9832 64.0002 56.0382 64.0002Z" fill="url(#paint14_radial_79509_1159)"/>
<path fill-rule="evenodd" clip-rule="evenodd" d="M13.4224 12.3036C13.501 11.8989 14.4986 8.20246 14.6086 8.17548C21.3171 7.15018 28.6225 8.60718 34.7497 9.0119C35.1503 9.0119 36.9885 7.5549 38.1197 7.52792C46.5642 7.28509 59.7847 8.17548 63.4453 8.17548C63.5003 8.17548 64.6158 11.8989 64.6315 12.3036C65.0243 25.2278 64.8515 49.0254 64.765 51.2918C64.7493 51.7775 63.3432 56.3104 63.2568 56.3644C62.9897 56.4723 57.0432 55.3391 56.7212 55.5549C56.4069 55.7438 53.9325 56.823 53.7833 56.823C40.7905 56.823 27.7899 57.8753 14.805 56.3913C14.6793 56.3913 13.6345 52.6679 13.5638 52.1552C13.4381 51.3188 13.6502 34.7252 13.6345 33.538C13.6267 32.7286 13.2496 26.5229 13.2339 22.9883C13.2339 22.7185 13.5717 20.1822 13.5717 19.9394C13.5717 19.2109 13.3753 12.6544 13.4381 12.3036H13.4224Z" fill="url(#paint15_radial_79509_1159)"/>
<path style="mix-blend-mode:screen" opacity="0.75" fill-rule="evenodd" clip-rule="evenodd" d="M13.9102 12.9781C13.8709 13.221 14.2401 19.1029 14.2401 20.0473C14.2401 20.398 13.7217 22.7724 13.7217 23.1771C13.7217 24.0405 14.3108 31.7842 14.3501 33.3761C14.3894 34.968 13.9416 50.7252 14.0202 51.4267C14.0516 51.7235 14.9078 54.6375 14.9471 54.6375C27.8849 56.2564 40.8305 55.0962 53.7683 55.0692C54.4596 55.0692 56.1956 52.452 56.9104 51.8314C57.2954 51.4807 62.582 54.4756 63.0219 54.0169C63.4697 53.5313 64.2552 50.9141 64.2709 50.6982C64.6401 45.8955 64.3888 19.8584 64.1374 12.9242C64.1374 12.7623 63.289 9.92925 63.2654 9.92925C54.9309 9.47056 46.4707 8.76904 38.1518 8.76904C37.8376 8.76904 34.9861 12.5734 34.6641 12.4925C33.2737 12.0878 25.9446 9.76736 21.5535 9.60547C19.2911 9.52452 17.0209 9.47056 14.7664 9.90226C14.7115 9.90226 13.9338 12.7623 13.9024 12.9781H13.9102Z" fill="url(#paint16_radial_79509_1159)"/>
<path style="mix-blend-mode:screen" fill-rule="evenodd" clip-rule="evenodd" d="M14.365 8.12153C14.365 7.60887 14.1686 5.58525 14.1136 4.93769C14.0351 4.02031 13.9565 3.12992 13.878 2.23952C13.8544 1.99668 13.8937 2.32047 13.9094 2.37443C14.0351 3.18388 14.5535 6.96131 14.7263 7.23113C14.8363 7.39302 14.9934 7.42 15.1741 7.42C19.9031 7.20415 24.6399 7.52793 29.361 8.52625C24.5928 8.0136 19.8402 8.04058 15.072 8.44531C14.852 8.44531 14.7342 8.55323 14.6478 8.63418C14.4985 8.76909 14.2157 9.47061 14.0665 9.84835C14.1607 9.38967 14.3414 8.63418 14.365 8.09454V8.12153Z" fill="url(#paint17_radial_79509_1159)"/>
<path style="mix-blend-mode:screen" fill-rule="evenodd" clip-rule="evenodd" d="M63.3673 7.25809C63.4929 6.90732 64.0507 2.99498 64.1685 2.29346C64.0821 3.29178 63.705 7.17714 63.705 7.90565C63.705 8.49924 64.0664 9.98324 64.1921 10.5499C64.0192 10.0912 63.6579 8.85001 63.4615 8.7151C62.9431 8.39132 52.9431 8.22943 51.3956 7.74376C51.2778 7.71677 51.6234 7.74376 51.6234 7.74376C52.8488 7.60885 63.0766 7.8247 63.3751 7.28507L63.3673 7.25809Z" fill="url(#paint18_radial_79509_1159)"/>
</g>
<g clip-path="url(#clip2_79509_1159)">
<path fill-rule="evenodd" clip-rule="evenodd" d="M-111.811 9.49771C-111.785 9.17394 -104.985 1.32234 -103.663 1.26837C-91.7103 0.647799 -39.3663 0.270059 -32.8368 0.000244141C-29.7609 0.890632 -26.0644 1.43026 -22.5299 1.45724C8.14803 1.72706 61.5983 1.13347 69.8546 1.26837C70.4752 1.26837 78.003 8.74223 78.003 9.49771C78.003 24.6073 77.7602 45.3021 77.5173 54.8266C77.5173 55.7709 69.8816 63.1908 69.5039 63.1908C68.3976 63.1908 44.4381 64.0002 41.5241 64.0002C41.3082 64.0002 37.7197 62.975 35.804 62.975C-10.2803 62.948 -56.8773 63.2987 -102.962 63.2987C-103.636 63.2987 -111.326 56.2566 -111.407 54.8535C-111.758 50.3746 -111.919 41.3088 -112 32.4319C-111.596 29.6259 -110.786 22.4218 -110.813 22.152C-110.84 21.4235 -111.623 19.6427 -112.027 17.8889C-112 13.464 -111.946 10.2802 -111.838 9.5247H-111.811V9.49771Z" fill="#1F2B3A"/>
<path fill-rule="evenodd" clip-rule="evenodd" d="M-100.775 8.17538C-77.7333 7.15009 -52.6406 8.60709 -31.595 9.01181L-32.8362 -0.0269775C-39.3657 0.269818 -91.7097 0.647559 -103.689 1.24115L-100.802 8.17538H-100.775ZM-22.5293 1.457L-20.02 7.55481C8.98508 7.31198 54.3949 8.20236 66.9682 8.20236L69.8552 1.26813C61.5989 1.13322 8.17564 1.72682 -22.5293 1.457Z" fill="url(#paint19_radial_79509_1159)"/>
<path fill-rule="evenodd" clip-rule="evenodd" d="M69.8539 1.24121L66.9668 8.17555C67.1557 8.17555 70.9871 11.899 71.041 12.3038L78.0024 9.49766C78.0024 8.74216 70.4744 1.26819 69.8539 1.26819V1.24121Z" fill="url(#paint20_radial_79509_1159)"/>
<path fill-rule="evenodd" clip-rule="evenodd" d="M78.0022 9.49744L71.041 12.3035C72.3901 25.2276 71.7965 49.0253 71.4997 51.2917L77.5436 54.8263C77.7864 45.3018 78.0292 24.607 78.0292 9.49744H78.0022Z" fill="url(#paint21_radial_79509_1159)"/>
<path fill-rule="evenodd" clip-rule="evenodd" d="M77.5174 54.8264L71.4735 51.2917C71.4195 51.7774 66.5898 56.3104 66.293 56.3643L69.4768 63.2177C69.8816 63.2177 77.4635 55.7977 77.4904 54.8534L77.5174 54.8264Z" fill="url(#paint22_radial_79509_1159)"/>
<path fill-rule="evenodd" clip-rule="evenodd" d="M69.5041 63.1905L66.3203 56.3372C65.4029 56.4451 44.978 55.3119 43.8717 55.5278L41.5244 64C44.4384 64 68.3979 63.1905 69.5041 63.1905ZM35.7773 62.9477L33.7537 56.7689C-10.8736 56.7689 -55.5279 57.8212 -100.128 56.3372L-102.988 63.2715C-56.904 63.2715 -10.307 62.9207 35.7773 62.9477Z" fill="url(#paint23_radial_79509_1159)"/>
<path fill-rule="evenodd" clip-rule="evenodd" d="M-104.85 12.3035C-104.581 11.8988 -101.154 8.20234 -100.776 8.17536C-77.7341 7.15006 -52.6414 8.60706 -31.5959 9.01178C-30.2198 9.01178 -23.9061 7.55478 -20.0208 7.5278C8.98425 7.28497 54.394 8.17536 66.9674 8.17536C67.1563 8.17536 70.9876 11.8988 71.0416 12.3035C72.3906 25.2276 71.7971 49.0253 71.5003 51.2917C71.4463 51.7774 66.6166 56.3103 66.3198 56.3642C65.4025 56.4722 44.9775 55.3389 43.8713 55.5548C42.792 55.7437 34.2928 56.8229 33.7802 56.8229C-10.8471 56.8229 -55.5014 57.8752 -100.102 56.3912C-100.533 56.3912 -104.122 52.6678 -104.365 52.1551C-104.797 51.3187 -104.068 34.7251 -104.122 33.5379C-104.149 32.7285 -105.444 26.5227 -105.498 22.9882C-105.498 22.7184 -104.338 20.1821 -104.338 19.9393C-104.338 19.2108 -105.012 12.6543 -104.797 12.3035H-104.85Z" fill="url(#paint24_radial_79509_1159)"/>
<path style="mix-blend-mode:screen" opacity="0.75" fill-rule="evenodd" clip-rule="evenodd" d="M-103.177 12.978C-103.312 13.2209 -102.043 19.1028 -102.043 20.0472C-102.043 20.3979 -103.824 22.7723 -103.824 23.177C-103.824 24.0404 -101.801 31.7841 -101.666 33.376C-101.531 34.9679 -103.069 50.7251 -102.799 51.4266C-102.691 51.7234 -99.75 54.6374 -99.6151 54.6374C-55.1767 56.2563 -10.7112 55.0961 33.7272 55.0691C36.1016 55.0691 42.0645 52.4519 44.5198 51.8313C45.8419 51.4806 64.0004 54.4755 65.5114 54.0168C67.0493 53.5312 69.7474 50.914 69.8014 50.6981C71.0695 45.8954 70.2061 19.8583 69.3427 12.9241C69.3427 12.7622 66.4287 9.92912 66.3478 9.92912C37.7205 9.47044 8.66145 8.76892 -19.9119 8.76892C-20.9912 8.76892 -30.7854 12.5733 -31.8917 12.4924C-36.6674 12.0876 -61.8411 9.76723 -76.9237 9.60535C-84.6944 9.5244 -92.492 9.47044 -100.236 9.90214C-100.425 9.90214 -103.096 12.7622 -103.204 12.978H-103.177Z" fill="url(#paint25_radial_79509_1159)"/>
<path style="mix-blend-mode:screen" fill-rule="evenodd" clip-rule="evenodd" d="M66.698 7.25804C67.1297 6.90729 69.0454 2.99497 69.4501 2.29346C69.1533 3.29177 67.8582 7.1771 67.8582 7.9056C67.8582 8.49919 69.0993 9.98317 69.531 10.5498C68.9374 10.0911 67.6963 8.84995 67.0218 8.71504C65.241 8.39127 30.8936 8.22938 25.5783 7.74371C25.1735 7.71673 26.3607 7.74371 26.3607 7.74371C30.5698 7.6088 65.6997 7.82466 66.725 7.28503L66.698 7.25804Z" fill="url(#paint26_radial_79509_1159)"/>
</g>
<defs>
<radialGradient id="paint0_radial_79509_1159" cx="0" cy="0" r="1" gradientUnits="userSpaceOnUse" gradientTransform="translate(12.0858 7.98617) scale(42.0354)">
<stop stop-color="#75859D"/>
<stop offset="1" stop-color="#495573"/>
</radialGradient>
<radialGradient id="paint1_radial_79509_1159" cx="0" cy="0" r="1" gradientUnits="userSpaceOnUse" gradientTransform="translate(75.3845 -26.9005) scale(343.744 343.744)">
<stop stop-color="#607492"/>
<stop offset="1" stop-color="#3B4762"/>
</radialGradient>
<radialGradient id="paint2_radial_79509_1159" cx="0" cy="0" r="1" gradientUnits="userSpaceOnUse" gradientTransform="translate(102.851 37.9089) scale(461.599 461.599)">
<stop stop-color="#1A2432"/>
<stop offset="1" stop-color="#181A21"/>
</radialGradient>
<radialGradient id="paint3_radial_79509_1159" cx="0" cy="0" r="1" gradientUnits="userSpaceOnUse" gradientTransform="translate(12.7326 48.8366) scale(49.2661 49.2661)">
<stop stop-color="#1A232F"/>
<stop offset="1" stop-color="#1B1D24"/>
</radialGradient>
<radialGradient id="paint4_radial_79509_1159" cx="0" cy="0" r="1" gradientUnits="userSpaceOnUse" gradientTransform="translate(0.726545 10.8465) scale(145.457 145.457)">
<stop stop-color="#2C3A50"/>
<stop offset="1" stop-color="#192232"/>
</radialGradient>
<radialGradient id="paint5_radial_79509_1159" cx="0" cy="0" r="1" gradientUnits="userSpaceOnUse" gradientTransform="translate(1.72479 35.8038) scale(38.0693 38.0693)">
<stop stop-color="#556784"/>
<stop offset="1" stop-color="#26324A"/>
</radialGradient>
<radialGradient id="paint6_radial_79509_1159" cx="0" cy="0" r="1" gradientUnits="userSpaceOnUse" gradientTransform="translate(4.80055 17.8077) scale(37.9074)">
<stop stop-color="#1A2432"/>
<stop offset="1" stop-color="#181A21"/>
</radialGradient>
<radialGradient id="paint7_radial_79509_1159" cx="0" cy="0" r="1" gradientUnits="userSpaceOnUse" gradientTransform="translate(93.5691 -32.3778) scale(189.275 189.275)">
<stop offset="0.07" stop-color="#4A5B76"/>
<stop offset="1" stop-color="#263348"/>
</radialGradient>
<radialGradient id="paint8_radial_79509_1159" cx="0" cy="0" r="1" gradientUnits="userSpaceOnUse" gradientTransform="translate(95.3239 -111.676) scale(351.568 351.568)">
<stop stop-color="#1C2129"/>
<stop offset="1"/>
</radialGradient>
<radialGradient id="paint9_radial_79509_1159" cx="0" cy="0" r="1" gradientUnits="userSpaceOnUse" gradientTransform="translate(10.9252 7.79757) scale(52.7487 52.7487)">
<stop stop-color="#1D2536"/>
<stop offset="0.07" stop-color="#19202F"/>
<stop offset="0.43" stop-color="#0B0E15"/>
<stop offset="0.75" stop-color="#020305"/>
<stop offset="1"/>
</radialGradient>
<radialGradient id="paint10_radial_79509_1159" cx="0" cy="0" r="1" gradientUnits="userSpaceOnUse" gradientTransform="translate(7.55273 33.4836) scale(19.9115)">
<stop stop-color="#1D2536"/>
<stop offset="0.07" stop-color="#19202F"/>
<stop offset="0.43" stop-color="#0B0E15"/>
<stop offset="0.75" stop-color="#020305"/>
<stop offset="1"/>
</radialGradient>
<radialGradient id="paint11_radial_79509_1159" cx="0" cy="0" r="1" gradientUnits="userSpaceOnUse" gradientTransform="translate(33.2887 -26.9005) scale(100.077 343.744)">
<stop stop-color="#607492"/>
<stop offset="1" stop-color="#3B4762"/>
</radialGradient>
<radialGradient id="paint12_radial_79509_1159" cx="0" cy="0" r="1" gradientUnits="userSpaceOnUse" gradientTransform="translate(31.7571 -7.20421) scale(20.5108 70.4502)">
<stop stop-color="#556784"/>
<stop offset="1" stop-color="#26324A"/>
</radialGradient>
<radialGradient id="paint13_radial_79509_1159" cx="0" cy="0" r="1" gradientUnits="userSpaceOnUse" gradientTransform="translate(41.2853 37.9089) scale(134.389 461.599)">
<stop stop-color="#1A2432"/>
<stop offset="1" stop-color="#181A21"/>
</radialGradient>
<radialGradient id="paint14_radial_79509_1159" cx="0" cy="0" r="1" gradientUnits="userSpaceOnUse" gradientTransform="translate(56.8788 58.1721) scale(23.2288 79.786)">
<stop stop-color="#1D2738"/>
<stop offset="1" stop-color="#131924"/>
</radialGradient>
<radialGradient id="paint15_radial_79509_1159" cx="0" cy="0" r="1" gradientUnits="userSpaceOnUse" gradientTransform="translate(38.5831 -32.3776) scale(55.1053 189.275)">
<stop offset="0.07" stop-color="#4A5B76"/>
<stop offset="1" stop-color="#263348"/>
</radialGradient>
<radialGradient id="paint16_radial_79509_1159" cx="0" cy="0" r="1" gradientUnits="userSpaceOnUse" gradientTransform="translate(39.0945 -111.676) scale(102.355 351.568)">
<stop stop-color="#1C2129"/>
<stop offset="1"/>
</radialGradient>
<radialGradient id="paint17_radial_79509_1159" cx="0" cy="0" r="1" gradientUnits="userSpaceOnUse" gradientTransform="translate(14.5221 7.79775) scale(15.3574 52.7492)">
<stop stop-color="#1D2536"/>
<stop offset="0.07" stop-color="#19202F"/>
<stop offset="0.43" stop-color="#0B0E15"/>
<stop offset="0.75" stop-color="#020305"/>
<stop offset="1"/>
</radialGradient>
<radialGradient id="paint18_radial_79509_1159" cx="0" cy="0" r="1" gradientUnits="userSpaceOnUse" gradientTransform="translate(63.5872 8.01357) scale(15.0667 51.7509)">
<stop stop-color="#1D2536"/>
<stop offset="0.07" stop-color="#19202F"/>
<stop offset="0.43" stop-color="#0B0E15"/>
<stop offset="0.75" stop-color="#020305"/>
<stop offset="1"/>
</radialGradient>
<radialGradient id="paint19_radial_79509_1159" cx="0" cy="0" r="1" gradientUnits="userSpaceOnUse" gradientTransform="translate(-36.6136 -26.9005) scale(343.744 343.744)">
<stop stop-color="#607492"/>
<stop offset="1" stop-color="#3B4762"/>
</radialGradient>
<radialGradient id="paint20_radial_79509_1159" cx="0" cy="0" r="1" gradientUnits="userSpaceOnUse" gradientTransform="translate(39.1216 12.9783) scale(68.4529 68.4529)">
<stop stop-color="#75859D"/>
<stop offset="1" stop-color="#495573"/>
</radialGradient>
<radialGradient id="paint21_radial_79509_1159" cx="0" cy="0" r="1" gradientUnits="userSpaceOnUse" gradientTransform="translate(52.154 26.3069) scale(113.295 113.295)">
<stop stop-color="#2C3A50"/>
<stop offset="1" stop-color="#192232"/>
</radialGradient>
<radialGradient id="paint22_radial_79509_1159" cx="0" cy="0" r="1" gradientUnits="userSpaceOnUse" gradientTransform="translate(59.2777 48.9173) scale(43.5487 43.5487)">
<stop stop-color="#1A232F"/>
<stop offset="1" stop-color="#1B1D24"/>
</radialGradient>
<radialGradient id="paint23_radial_79509_1159" cx="0" cy="0" r="1" gradientUnits="userSpaceOnUse" gradientTransform="translate(-9.1468 37.9089) scale(461.599 461.599)">
<stop stop-color="#1A2432"/>
<stop offset="1" stop-color="#181A21"/>
</radialGradient>
<radialGradient id="paint24_radial_79509_1159" cx="0" cy="0" r="1" gradientUnits="userSpaceOnUse" gradientTransform="translate(-18.4289 -32.3778) scale(189.275 189.275)">
<stop offset="0.07" stop-color="#4A5B76"/>
<stop offset="1" stop-color="#263348"/>
</radialGradient>
<radialGradient id="paint25_radial_79509_1159" cx="0" cy="0" r="1" gradientUnits="userSpaceOnUse" gradientTransform="translate(-16.6741 -111.676) scale(351.568 351.568)">
<stop stop-color="#1C2129"/>
<stop offset="1"/>
</radialGradient>
<radialGradient id="paint26_radial_79509_1159" cx="0" cy="0" r="1" gradientUnits="userSpaceOnUse" gradientTransform="translate(67.4535 8.01353) scale(51.7504 51.7504)">
<stop stop-color="#1D2536"/>
<stop offset="0.07" stop-color="#19202F"/>
<stop offset="0.43" stop-color="#0B0E15"/>
<stop offset="0.75" stop-color="#020305"/>
<stop offset="1"/>
</radialGradient>
<clipPath id="clip0_79509_1159">
<rect width="16" height="64" fill="white"/>
</clipPath>
<clipPath id="clip1_79509_1159">
<rect width="46" height="64" fill="white" transform="translate(16)"/>
</clipPath>
<clipPath id="clip2_79509_1159">
<rect width="16" height="64" fill="white" transform="translate(62)"/>
</clipPath>
</defs>
</svg>
