<svg width="66" height="48" viewBox="0 0 66 48" fill="none" xmlns="http://www.w3.org/2000/svg">
<g clip-path="url(#clip0_79509_1767)">
<path fill-rule="evenodd" clip-rule="evenodd" d="M0.139916 7.1231C0.160152 6.88027 5.25965 0.991568 6.25121 0.951096C15.2158 0.485666 54.4738 0.202361 59.3709 0C61.6779 0.667791 64.4502 1.07251 67.1011 1.09275C90.1096 1.29511 130.197 0.849916 136.39 0.951096C136.855 0.951096 142.501 6.55649 142.501 7.1231C142.501 18.4553 142.319 33.9764 142.137 41.1197C142.137 41.828 136.41 47.3929 136.126 47.3929C135.297 47.3929 117.327 48 115.142 48C114.98 48 112.288 47.231 110.852 47.231C76.2883 47.2108 41.3406 47.4739 6.77735 47.4739C6.27145 47.4739 0.504166 42.1922 0.443457 41.14C0.180388 37.7808 0.0589717 30.9815 -0.00173657 24.3238C0.301805 22.2192 0.908887 16.8162 0.888651 16.6138C0.868415 16.0675 0.281569 14.7319 -0.0219727 13.4165C-0.00173657 10.0978 0.0387356 7.70995 0.11968 7.14334H0.139916V7.1231Z" fill="#1F2B3A"/>
<path fill-rule="evenodd" clip-rule="evenodd" d="M5.36132 9.22736C5.56367 8.92383 8.13355 6.1516 8.41684 6.13137L6.23144 0.930908C5.26014 0.991614 0.16086 6.85984 0.140625 7.1229L5.36132 9.22736Z" fill="url(#paint0_radial_79509_1767)"/>
<path fill-rule="evenodd" clip-rule="evenodd" d="M8.41694 6.13163C25.6986 5.36266 44.5181 6.45541 60.3023 6.75895L59.3714 -0.0201416C54.4743 0.202455 15.2163 0.485761 6.23145 0.930955L8.39671 6.13163H8.41694ZM67.1016 1.09284L68.9836 5.6662C90.7374 5.48407 124.795 6.15187 134.225 6.15187L136.39 0.951191C130.198 0.85001 90.1303 1.2952 67.1016 1.09284Z" fill="url(#paint1_radial_79509_1767)"/>
<path fill-rule="evenodd" clip-rule="evenodd" d="M136.127 47.393L133.739 42.253C133.051 42.3339 117.732 41.484 116.902 41.6459L115.142 48.0001C117.327 48.0001 135.297 47.393 136.127 47.393ZM110.832 47.2108L109.314 42.5768C75.8433 42.5768 42.3526 43.366 8.90235 42.253L6.75732 47.4537C41.3206 47.4537 76.2683 47.1906 110.832 47.2108Z" fill="url(#paint2_radial_79509_1767)"/>
<path fill-rule="evenodd" clip-rule="evenodd" d="M6.75697 47.4533L8.90191 42.2529C8.57815 42.2529 5.88686 39.4604 5.70474 39.0759L0.42334 41.0995C0.504281 42.1517 6.25109 47.4331 6.75697 47.4331V47.4533Z" fill="url(#paint3_radial_79509_1767)"/>
<path fill-rule="evenodd" clip-rule="evenodd" d="M0.423493 41.1198L5.70511 39.0962C5.38133 38.4689 5.92771 26.0237 5.88724 25.1333L-0.00146484 24.3238C0.0390073 30.9815 0.18066 37.7808 0.403257 41.1198H0.423493ZM-0.00146484 13.3964L5.70511 14.9545C5.70511 14.4082 5.19921 9.49079 5.3611 9.22772L0.140188 7.12317C0.0794795 7.68978 0.0390073 10.0776 -0.00146484 13.3964Z" fill="url(#paint4_radial_79509_1767)"/>
<path fill-rule="evenodd" clip-rule="evenodd" d="M-0.00146484 24.3235L5.84652 25.1532C5.82629 24.5461 4.855 19.892 4.81452 17.2412L0.888886 16.6139C0.888886 16.8365 0.302064 22.2393 -0.00146484 24.3235Z" fill="url(#paint5_radial_79509_1767)"/>
<path fill-rule="evenodd" clip-rule="evenodd" d="M0.909122 16.5935L4.83476 17.2208C4.83476 17.0184 5.70488 15.1163 5.70488 14.9342L-0.00146484 13.3761C0.302064 14.6914 0.888886 16.0269 0.909122 16.5733V16.5935Z" fill="url(#paint6_radial_79509_1767)"/>
<path fill-rule="evenodd" clip-rule="evenodd" d="M5.36067 9.22776C5.56303 8.92422 8.13301 6.15188 8.41631 6.13164C25.6979 5.36267 44.5175 6.45542 60.3016 6.75896C61.3337 6.75896 66.0689 5.66621 68.9829 5.64597C90.7367 5.46385 124.794 6.13164 134.224 6.13164C134.366 6.13164 137.239 8.92422 137.28 9.22776C138.292 18.9208 137.846 36.7691 137.624 38.4689C137.583 38.8332 133.961 42.2328 133.738 42.2733C133.05 42.3542 117.732 41.5043 116.902 41.6662C116.093 41.8079 109.718 42.6173 109.334 42.6173C75.8632 42.6173 42.3725 43.4065 8.92222 42.2935C8.59844 42.2935 5.90704 39.5009 5.72492 39.1165C5.40114 38.4891 5.94751 26.044 5.90704 25.1536C5.8868 24.5465 4.91547 19.8922 4.875 17.2413C4.875 17.0389 5.74515 15.1367 5.74515 14.9546C5.74515 14.4082 5.23925 9.49083 5.40114 9.22776H5.36067Z" fill="url(#paint7_radial_79509_1767)"/>
<path style="mix-blend-mode:screen" opacity="0.75" fill-rule="evenodd" clip-rule="evenodd" d="M6.61604 9.73361C6.51486 9.91574 7.46595 14.3272 7.46595 15.0355C7.46595 15.2985 6.13037 17.0793 6.13037 17.3829C6.13037 18.0304 7.64808 23.8382 7.74926 25.0321C7.85044 26.226 6.69698 38.0439 6.89934 38.57C6.98029 38.7926 9.18602 40.9781 9.2872 40.9781C42.616 42.1923 75.9651 41.3222 109.294 41.3019C111.075 41.3019 115.547 39.339 117.388 38.8736C118.38 38.6105 131.999 40.8567 133.132 40.5127C134.285 40.1485 136.309 38.1856 136.35 38.0237C137.301 34.4216 136.653 14.8938 136.006 9.69314C136.006 9.57172 133.82 7.44693 133.759 7.44693C112.289 7.10292 90.4946 6.57678 69.0646 6.57678C68.2551 6.57678 60.9095 9.43007 60.0798 9.36936C56.498 9.06582 37.6177 7.32552 26.3057 7.2041C20.4778 7.14339 14.6295 7.10292 8.82177 7.4267C8.68012 7.4267 6.67675 9.57172 6.5958 9.73361H6.61604Z" fill="url(#paint8_radial_79509_1767)"/>
<path style="mix-blend-mode:screen" fill-rule="evenodd" clip-rule="evenodd" d="M7.78919 6.09108C7.78919 5.70659 7.28329 4.18888 7.14164 3.70322C6.93928 3.01519 6.73692 2.3474 6.53456 1.67961C6.47385 1.49748 6.57503 1.74032 6.6155 1.78079C6.93928 2.38787 8.27486 5.22092 8.72005 5.42329C9.00336 5.5447 9.40808 5.56494 9.87351 5.56494C22.0556 5.40305 34.258 5.64588 46.4199 6.39462C34.1366 6.01013 21.8937 6.03037 9.61044 6.33391C9.04383 6.33391 8.74029 6.41485 8.51769 6.47556C8.13321 6.57674 7.40471 7.10288 7.02022 7.38619C7.26306 7.04217 7.72849 6.47556 7.78919 6.07084V6.09108Z" fill="url(#paint9_radial_79509_1767)"/>
<path style="mix-blend-mode:screen" fill-rule="evenodd" clip-rule="evenodd" d="M5.60384 35.6958C5.56337 34.5829 5.5229 25.821 5.42172 25.5782C5.23961 25.1735 2.66973 24.7283 2.18408 24.6271C2.54832 24.6271 5.15866 24.7283 5.32055 24.6271C5.54313 24.4652 5.01702 19.8314 4.97655 19.1838C5.28008 21.0252 5.64431 22.8667 6.06925 24.6878C6.25137 25.477 6.15019 26.0234 6.08949 26.7923C5.88713 29.7264 5.74549 32.6808 5.60384 35.6351V35.6958Z" fill="url(#paint10_radial_79509_1767)"/>
</g>
<g clip-path="url(#clip1_79509_1767)">
<path fill-rule="evenodd" clip-rule="evenodd" d="M7.79615 7.12323C7.80332 6.88039 9.61074 0.99169 9.96218 0.951218C13.1395 0.485788 27.0537 0.202483 28.7894 0.00012207C29.6071 0.667913 30.5897 1.07263 31.5292 1.09287C39.6841 1.29523 53.8924 0.850038 56.0871 0.951218C56.2521 0.951218 58.2532 6.55661 58.2532 7.12323C58.2532 18.4554 58.1886 33.9765 58.1241 41.1199C58.1241 41.8281 56.0943 47.393 55.9939 47.393C55.6998 47.393 49.3308 48.0001 48.5562 48.0001C48.4989 48.0001 47.5449 47.2312 47.0357 47.2312C34.7855 47.2109 22.3989 47.474 10.1487 47.474C9.96935 47.474 7.92525 42.1924 7.90373 41.1401C7.81049 37.7809 7.76746 30.9816 7.74594 24.3239C7.85353 22.2193 8.06869 16.8163 8.06152 16.614C8.05435 16.0676 7.84635 14.732 7.73877 13.4166C7.74594 10.0979 7.76029 7.71007 7.78898 7.14346H7.79615V7.12323Z" fill="#1F2B3A"/>
<path fill-rule="evenodd" clip-rule="evenodd" d="M10.7297 6.13151C16.8548 5.36254 23.525 6.45528 29.1194 6.75883L28.7895 -0.0202637C27.0538 0.202333 13.1396 0.485639 9.95508 0.930833L10.7225 6.13151H10.7297ZM31.5293 1.09272L32.1963 5.66608C39.9065 5.48395 51.9775 6.15174 55.3198 6.15174L56.0872 0.951069C53.8925 0.849888 39.6914 1.29508 31.5293 1.09272Z" fill="url(#paint11_radial_79509_1767)"/>
<path fill-rule="evenodd" clip-rule="evenodd" d="M28.7896 0L29.1195 6.77925C29.4853 6.77925 31.1636 5.68647 32.1965 5.66624L31.5294 1.09277C30.5898 1.07254 29.6 0.688043 28.7896 0Z" fill="url(#paint12_radial_79509_1767)"/>
<path fill-rule="evenodd" clip-rule="evenodd" d="M55.994 47.3929L55.1477 42.2529C54.9038 42.3338 49.4744 41.4839 49.1803 41.6458L48.5564 47.9999C49.331 47.9999 55.7 47.3929 55.994 47.3929ZM47.0287 47.2107L46.4907 42.5767C34.6278 42.5767 22.7577 43.3659 10.9019 42.2529L10.1416 47.4536C22.3919 47.4536 34.7784 47.1905 47.0287 47.2107Z" fill="url(#paint13_radial_79509_1767)"/>
<path fill-rule="evenodd" clip-rule="evenodd" d="M48.5565 48.0002L49.1805 41.6459C48.8936 41.7875 46.6343 42.597 46.498 42.597L47.036 47.2312C47.5524 47.2312 48.5063 48.0002 48.5565 48.0002Z" fill="url(#paint14_radial_79509_1767)"/>
<path fill-rule="evenodd" clip-rule="evenodd" d="M9.64674 9.22776C9.71847 8.92422 10.6293 6.15188 10.7298 6.13164C16.8549 5.36267 23.5251 6.45542 29.1195 6.75896C29.4853 6.75896 31.1636 5.66621 32.1964 5.64597C39.9066 5.46385 51.9776 6.13164 55.3199 6.13164C55.3701 6.13164 56.3885 8.92422 56.4029 9.22776C56.7615 18.9208 56.6037 36.7691 56.5248 38.4689C56.5105 38.8332 55.2266 42.2328 55.1477 42.2733C54.9039 42.3542 49.4744 41.5043 49.1804 41.6662C48.8935 41.8079 46.6342 42.6173 46.4979 42.6173C34.635 42.6173 22.7649 43.4065 10.9091 42.2935C10.7943 42.2935 9.8404 39.5009 9.77585 39.1165C9.66109 38.4891 9.85474 26.044 9.8404 25.1536C9.83322 24.5465 9.48895 19.8922 9.47461 17.2413C9.47461 17.0389 9.78302 15.1367 9.78302 14.9546C9.78302 14.4082 9.60371 9.49083 9.66109 9.22776H9.64674Z" fill="url(#paint15_radial_79509_1767)"/>
<path style="mix-blend-mode:screen" opacity="0.75" fill-rule="evenodd" clip-rule="evenodd" d="M10.0921 9.73361C10.0562 9.91574 10.3933 14.3272 10.3933 15.0355C10.3933 15.2985 9.91992 17.0793 9.91992 17.3829C9.91992 18.0304 10.4578 23.8382 10.4937 25.0321C10.5296 26.226 10.1207 38.0439 10.1925 38.57C10.2212 38.7926 11.0029 40.9781 11.0388 40.9781C22.8516 42.1923 34.6715 41.3222 46.4842 41.3019C47.1154 41.3019 48.7005 39.339 49.3531 38.8736C49.7046 38.6105 54.5315 40.8567 54.9332 40.5127C55.342 40.1485 56.0592 38.1856 56.0736 38.0237C56.4107 34.4216 56.1812 14.8938 55.9516 9.69314C55.9516 9.57172 55.177 7.44693 55.1555 7.44693C47.5457 7.10292 39.8212 6.57678 32.2257 6.57678C31.9388 6.57678 29.3353 9.43007 29.0412 9.36936C27.7717 9.06582 21.08 7.32552 17.0707 7.2041C15.0051 7.14339 12.9323 7.10292 10.8738 7.4267C10.8236 7.4267 10.1136 9.57172 10.0849 9.73361H10.0921Z" fill="url(#paint16_radial_79509_1767)"/>
<path style="mix-blend-mode:screen" fill-rule="evenodd" clip-rule="evenodd" d="M10.5071 6.09111C10.5071 5.70663 10.3278 4.18891 10.2775 3.70324C10.2058 3.0152 10.1341 2.34741 10.0624 1.67961C10.0409 1.49748 10.0767 1.74032 10.0911 1.78079C10.2058 2.38788 10.6792 5.22096 10.837 5.42332C10.9374 5.54474 11.0808 5.56497 11.2458 5.56497C15.5636 5.40308 19.8885 5.64592 24.1991 6.39466C19.8455 6.01017 15.5062 6.03041 11.1526 6.33395C10.9517 6.33395 10.8442 6.41489 10.7653 6.4756C10.629 6.57678 10.3708 7.10293 10.2345 7.38624C10.3206 7.04222 10.4855 6.4756 10.5071 6.07088V6.09111Z" fill="url(#paint17_radial_79509_1767)"/>
<path style="mix-blend-mode:screen" fill-rule="evenodd" clip-rule="evenodd" d="M55.2484 5.44356C55.3632 5.18049 55.8724 2.24624 55.98 1.72009C55.9011 2.46883 55.5568 5.38286 55.5568 5.92923C55.5568 6.37443 55.8868 7.48743 56.0015 7.91239C55.8437 7.56837 55.5138 6.6375 55.3345 6.53632C54.8611 6.29349 45.7307 6.17207 44.3178 5.80782C44.2102 5.78758 44.5258 5.80782 44.5258 5.80782C45.6447 5.70664 54.983 5.86853 55.2556 5.4638L55.2484 5.44356Z" fill="url(#paint18_radial_79509_1767)"/>
</g>
<g clip-path="url(#clip2_79509_1767)">
<path fill-rule="evenodd" clip-rule="evenodd" d="M-76.3586 7.12323C-76.3384 6.88039 -71.2389 0.99169 -70.2473 0.951218C-61.2827 0.485788 -22.0247 0.202483 -17.1276 0.00012207C-14.8207 0.667913 -12.0483 1.07263 -9.39742 1.09287C13.611 1.29523 53.6987 0.850038 59.891 0.951218C60.3564 0.951218 66.0023 6.55661 66.0023 7.12323C66.0023 18.4554 65.8201 33.9765 65.638 41.1199C65.638 41.8281 59.9112 47.393 59.6279 47.393C58.7982 47.393 40.8286 48.0001 38.6431 48.0001C38.4812 48.0001 35.7898 47.2312 34.353 47.2312C-0.210228 47.2109 -35.1579 47.474 -69.7212 47.474C-70.2271 47.474 -75.9944 42.1924 -76.0551 41.1401C-76.3181 37.7809 -76.4396 30.9816 -76.5003 24.3239C-76.1967 22.2193 -75.5896 16.8163 -75.6099 16.614C-75.6301 16.0676 -76.217 14.732 -76.5205 13.4166C-76.5003 10.0979 -76.4598 7.71007 -76.3789 7.14346H-76.3586V7.12323Z" fill="#1F2B3A"/>
<path fill-rule="evenodd" clip-rule="evenodd" d="M-68.0816 6.13151C-50.8 5.36254 -31.9804 6.45528 -16.1963 6.75883L-17.1271 -0.0202637C-22.0243 0.202333 -61.2823 0.485639 -70.2671 0.930833L-68.1018 6.13151H-68.0816ZM-9.39694 1.09272L-7.51498 5.66608C14.2388 5.48395 48.2961 6.15174 57.7262 6.15174L59.8914 0.951069C53.6992 0.849888 13.6317 1.29508 -9.39694 1.09272Z" fill="url(#paint19_radial_79509_1767)"/>
<path fill-rule="evenodd" clip-rule="evenodd" d="M59.8904 0.930908L57.7251 6.13166C57.8668 6.13166 60.7403 8.92428 60.7808 9.22783L66.0018 7.12324C66.0018 6.55662 60.3558 0.951145 59.8904 0.951145V0.930908Z" fill="url(#paint20_radial_79509_1767)"/>
<path fill-rule="evenodd" clip-rule="evenodd" d="M66.0017 7.12305L60.7808 9.2276C61.7926 18.9207 61.3474 36.7689 61.1248 38.4687L65.6577 41.1197C65.8398 33.9763 66.0219 18.4553 66.0219 7.12305H66.0017Z" fill="url(#paint21_radial_79509_1767)"/>
<path fill-rule="evenodd" clip-rule="evenodd" d="M65.6381 41.1197L61.1051 38.4688C61.0646 38.833 57.4423 42.2327 57.2197 42.2732L59.6076 47.4132C59.9112 47.4132 65.5976 41.8482 65.6178 41.14L65.6381 41.1197Z" fill="url(#paint22_radial_79509_1767)"/>
<path fill-rule="evenodd" clip-rule="evenodd" d="M59.6281 47.3929L57.2402 42.2529C56.5522 42.3338 41.2335 41.4839 40.4038 41.6458L38.6433 47.9999C40.8288 47.9999 58.7984 47.3929 59.6281 47.3929ZM34.333 47.2107L32.8153 42.5767C-0.655212 42.5767 -34.1459 43.3659 -67.5962 42.2529L-69.7412 47.4536C-35.178 47.4536 -0.230255 47.1905 34.333 47.2107Z" fill="url(#paint23_radial_79509_1767)"/>
<path fill-rule="evenodd" clip-rule="evenodd" d="M-71.1379 9.22764C-70.9355 8.9241 -68.3655 6.15175 -68.0822 6.13152C-50.8006 5.36255 -31.981 6.45529 -16.1969 6.75884C-15.1649 6.75884 -10.4296 5.66609 -7.51561 5.64585C14.2382 5.46373 48.2955 6.13152 57.7255 6.13152C57.8672 6.13152 60.7407 8.9241 60.7812 9.22764C61.793 18.9207 61.3478 36.769 61.1252 38.4688C61.0847 38.833 57.4624 42.2327 57.2399 42.2732C56.5518 42.3541 41.2331 41.5042 40.4034 41.6661C39.594 41.8077 33.2196 42.6172 32.8351 42.6172C-0.635345 42.6172 -34.1261 43.4064 -67.5763 42.2934C-67.9001 42.2934 -70.5915 39.5008 -70.7736 39.1163C-71.0974 38.489 -70.551 26.0438 -70.5915 25.1534C-70.6117 24.5464 -71.5831 19.8921 -71.6235 17.2411C-71.6235 17.0388 -70.7534 15.1366 -70.7534 14.9545C-70.7534 14.4081 -71.2593 9.49071 -71.0974 9.22764H-71.1379Z" fill="url(#paint24_radial_79509_1767)"/>
<path style="mix-blend-mode:screen" opacity="0.75" fill-rule="evenodd" clip-rule="evenodd" d="M-69.8825 9.73349C-69.9837 9.91562 -69.0326 14.3271 -69.0326 15.0353C-69.0326 15.2984 -70.3682 17.0792 -70.3682 17.3827C-70.3682 18.0303 -68.8505 23.838 -68.7493 25.032C-68.6481 26.2259 -69.8016 38.0438 -69.5992 38.5699C-69.5182 38.7925 -67.3125 40.978 -67.2113 40.978C-33.8825 42.1922 -0.53344 41.322 32.7954 41.3018C34.5762 41.3018 39.0483 39.3389 40.8898 38.8735C41.8814 38.6104 55.5003 40.8566 56.6335 40.5126C57.787 40.1483 59.8106 38.1854 59.851 38.0235C60.8021 34.4215 60.1546 14.8937 59.507 9.69302C59.507 9.5716 57.3215 7.44681 57.2608 7.44681C35.7903 7.1028 13.9961 6.57666 -7.43394 6.57666C-8.24339 6.57666 -15.5891 9.42995 -16.4188 9.36924C-20.0005 9.0657 -38.8808 7.3254 -50.1928 7.20398C-56.0208 7.14327 -61.869 7.1028 -67.6768 7.42658C-67.8184 7.42658 -69.8218 9.5716 -69.9027 9.73349H-69.8825Z" fill="url(#paint25_radial_79509_1767)"/>
<path style="mix-blend-mode:screen" fill-rule="evenodd" clip-rule="evenodd" d="M57.5235 5.44353C57.8473 5.18046 59.284 2.24623 59.5876 1.72009C59.365 2.46883 58.3937 5.38283 58.3937 5.9292C58.3937 6.37439 59.3245 7.48738 59.6483 7.91234C59.2031 7.56832 58.2722 6.63746 57.7663 6.53628C56.4307 6.29345 30.6702 6.17203 26.6837 5.80778C26.3802 5.78755 27.2705 5.80778 27.2705 5.80778C30.4274 5.7066 56.7748 5.86849 57.5437 5.46377L57.5235 5.44353Z" fill="url(#paint26_radial_79509_1767)"/>
</g>
<defs>
<radialGradient id="paint0_radial_79509_1767" cx="0" cy="0" r="1" gradientUnits="userSpaceOnUse" gradientTransform="translate(9.06437 5.98972) scale(31.5265 31.5265)">
<stop stop-color="#75859D"/>
<stop offset="1" stop-color="#495573"/>
</radialGradient>
<radialGradient id="paint1_radial_79509_1767" cx="0" cy="0" r="1" gradientUnits="userSpaceOnUse" gradientTransform="translate(56.5384 -20.1753) scale(257.808 257.808)">
<stop stop-color="#607492"/>
<stop offset="1" stop-color="#3B4762"/>
</radialGradient>
<radialGradient id="paint2_radial_79509_1767" cx="0" cy="0" r="1" gradientUnits="userSpaceOnUse" gradientTransform="translate(77.1384 28.4318) scale(346.199 346.199)">
<stop stop-color="#1A2432"/>
<stop offset="1" stop-color="#181A21"/>
</radialGradient>
<radialGradient id="paint3_radial_79509_1767" cx="0" cy="0" r="1" gradientUnits="userSpaceOnUse" gradientTransform="translate(9.54944 36.6275) scale(36.9496 36.9496)">
<stop stop-color="#1A232F"/>
<stop offset="1" stop-color="#1B1D24"/>
</radialGradient>
<radialGradient id="paint4_radial_79509_1767" cx="0" cy="0" r="1" gradientUnits="userSpaceOnUse" gradientTransform="translate(0.544909 8.13497) scale(109.093 109.093)">
<stop stop-color="#2C3A50"/>
<stop offset="1" stop-color="#192232"/>
</radialGradient>
<radialGradient id="paint5_radial_79509_1767" cx="0" cy="0" r="1" gradientUnits="userSpaceOnUse" gradientTransform="translate(1.29359 26.8529) scale(28.5519 28.5519)">
<stop stop-color="#556784"/>
<stop offset="1" stop-color="#26324A"/>
</radialGradient>
<radialGradient id="paint6_radial_79509_1767" cx="0" cy="0" r="1" gradientUnits="userSpaceOnUse" gradientTransform="translate(3.60041 13.3559) scale(28.4305)">
<stop stop-color="#1A2432"/>
<stop offset="1" stop-color="#181A21"/>
</radialGradient>
<radialGradient id="paint7_radial_79509_1767" cx="0" cy="0" r="1" gradientUnits="userSpaceOnUse" gradientTransform="translate(70.1769 -24.2832) scale(141.956 141.956)">
<stop offset="0.07" stop-color="#4A5B76"/>
<stop offset="1" stop-color="#263348"/>
</radialGradient>
<radialGradient id="paint8_radial_79509_1767" cx="0" cy="0" r="1" gradientUnits="userSpaceOnUse" gradientTransform="translate(71.4929 -83.7571) scale(263.676 263.676)">
<stop stop-color="#1C2129"/>
<stop offset="1"/>
</radialGradient>
<radialGradient id="paint9_radial_79509_1767" cx="0" cy="0" r="1" gradientUnits="userSpaceOnUse" gradientTransform="translate(8.19392 5.84824) scale(39.5616 39.5616)">
<stop stop-color="#1D2536"/>
<stop offset="0.07" stop-color="#19202F"/>
<stop offset="0.43" stop-color="#0B0E15"/>
<stop offset="0.75" stop-color="#020305"/>
<stop offset="1"/>
</radialGradient>
<radialGradient id="paint10_radial_79509_1767" cx="0" cy="0" r="1" gradientUnits="userSpaceOnUse" gradientTransform="translate(5.66455 25.1128) scale(14.9336)">
<stop stop-color="#1D2536"/>
<stop offset="0.07" stop-color="#19202F"/>
<stop offset="0.43" stop-color="#0B0E15"/>
<stop offset="0.75" stop-color="#020305"/>
<stop offset="1"/>
</radialGradient>
<radialGradient id="paint11_radial_79509_1767" cx="0" cy="0" r="1" gradientUnits="userSpaceOnUse" gradientTransform="translate(27.7854 -20.1754) scale(91.3749 257.808)">
<stop stop-color="#607492"/>
<stop offset="1" stop-color="#3B4762"/>
</radialGradient>
<radialGradient id="paint12_radial_79509_1767" cx="0" cy="0" r="1" gradientUnits="userSpaceOnUse" gradientTransform="translate(26.3868 -5.40316) scale(18.7273 52.8376)">
<stop stop-color="#556784"/>
<stop offset="1" stop-color="#26324A"/>
</radialGradient>
<radialGradient id="paint13_radial_79509_1767" cx="0" cy="0" r="1" gradientUnits="userSpaceOnUse" gradientTransform="translate(35.0868 28.4316) scale(122.703 346.199)">
<stop stop-color="#1A2432"/>
<stop offset="1" stop-color="#181A21"/>
</radialGradient>
<radialGradient id="paint14_radial_79509_1767" cx="0" cy="0" r="1" gradientUnits="userSpaceOnUse" gradientTransform="translate(49.324 43.6291) scale(21.2089 59.8395)">
<stop stop-color="#1D2738"/>
<stop offset="1" stop-color="#131924"/>
</radialGradient>
<radialGradient id="paint15_radial_79509_1767" cx="0" cy="0" r="1" gradientUnits="userSpaceOnUse" gradientTransform="translate(32.6196 -24.2832) scale(50.3136 141.956)">
<stop offset="0.07" stop-color="#4A5B76"/>
<stop offset="1" stop-color="#263348"/>
</radialGradient>
<radialGradient id="paint16_radial_79509_1767" cx="0" cy="0" r="1" gradientUnits="userSpaceOnUse" gradientTransform="translate(33.0864 -83.7571) scale(93.4549 263.676)">
<stop stop-color="#1C2129"/>
<stop offset="1"/>
</radialGradient>
<radialGradient id="paint17_radial_79509_1767" cx="0" cy="0" r="1" gradientUnits="userSpaceOnUse" gradientTransform="translate(10.6505 5.84828) scale(14.0219 39.5619)">
<stop stop-color="#1D2536"/>
<stop offset="0.07" stop-color="#19202F"/>
<stop offset="0.43" stop-color="#0B0E15"/>
<stop offset="0.75" stop-color="#020305"/>
<stop offset="1"/>
</radialGradient>
<radialGradient id="paint18_radial_79509_1767" cx="0" cy="0" r="1" gradientUnits="userSpaceOnUse" gradientTransform="translate(55.4492 6.01018) scale(13.7566 38.8131)">
<stop stop-color="#1D2536"/>
<stop offset="0.07" stop-color="#19202F"/>
<stop offset="0.43" stop-color="#0B0E15"/>
<stop offset="0.75" stop-color="#020305"/>
<stop offset="1"/>
</radialGradient>
<radialGradient id="paint19_radial_79509_1767" cx="0" cy="0" r="1" gradientUnits="userSpaceOnUse" gradientTransform="translate(-19.9602 -20.1754) scale(257.808 257.808)">
<stop stop-color="#607492"/>
<stop offset="1" stop-color="#3B4762"/>
</radialGradient>
<radialGradient id="paint20_radial_79509_1767" cx="0" cy="0" r="1" gradientUnits="userSpaceOnUse" gradientTransform="translate(36.8412 9.73374) scale(51.3397 51.3397)">
<stop stop-color="#75859D"/>
<stop offset="1" stop-color="#495573"/>
</radialGradient>
<radialGradient id="paint21_radial_79509_1767" cx="0" cy="0" r="1" gradientUnits="userSpaceOnUse" gradientTransform="translate(46.6155 19.7301) scale(84.9715 84.9713)">
<stop stop-color="#2C3A50"/>
<stop offset="1" stop-color="#192232"/>
</radialGradient>
<radialGradient id="paint22_radial_79509_1767" cx="0" cy="0" r="1" gradientUnits="userSpaceOnUse" gradientTransform="translate(51.9583 36.688) scale(32.6615 32.6615)">
<stop stop-color="#1A232F"/>
<stop offset="1" stop-color="#1B1D24"/>
</radialGradient>
<radialGradient id="paint23_radial_79509_1767" cx="0" cy="0" r="1" gradientUnits="userSpaceOnUse" gradientTransform="translate(0.6399 28.4316) scale(346.199 346.199)">
<stop stop-color="#1A2432"/>
<stop offset="1" stop-color="#181A21"/>
</radialGradient>
<radialGradient id="paint24_radial_79509_1767" cx="0" cy="0" r="1" gradientUnits="userSpaceOnUse" gradientTransform="translate(-6.32168 -24.2833) scale(141.956 141.956)">
<stop offset="0.07" stop-color="#4A5B76"/>
<stop offset="1" stop-color="#263348"/>
</radialGradient>
<radialGradient id="paint25_radial_79509_1767" cx="0" cy="0" r="1" gradientUnits="userSpaceOnUse" gradientTransform="translate(-5.00562 -83.7573) scale(263.676 263.676)">
<stop stop-color="#1C2129"/>
<stop offset="1"/>
</radialGradient>
<radialGradient id="paint26_radial_79509_1767" cx="0" cy="0" r="1" gradientUnits="userSpaceOnUse" gradientTransform="translate(58.0901 6.01014) scale(38.8128 38.8128)">
<stop stop-color="#1D2536"/>
<stop offset="0.07" stop-color="#19202F"/>
<stop offset="0.43" stop-color="#0B0E15"/>
<stop offset="0.75" stop-color="#020305"/>
<stop offset="1"/>
</radialGradient>
<clipPath id="clip0_79509_1767">
<rect width="12" height="48" fill="white"/>
</clipPath>
<clipPath id="clip1_79509_1767">
<rect width="42" height="48" fill="white" transform="translate(12)"/>
</clipPath>
<clipPath id="clip2_79509_1767">
<rect width="12" height="48" fill="white" transform="translate(54)"/>
</clipPath>
</defs>
</svg>
