<svg width="78" height="64" viewBox="0 0 78 64" fill="none" xmlns="http://www.w3.org/2000/svg">
<g filter="url(#filter0_iiiii_209_36163)">
<g clip-path="url(#clip0_209_36163)">
<path fill-rule="evenodd" clip-rule="evenodd" d="M0.186433 9.49747C0.213414 9.17369 7.01274 1.32209 8.33483 1.26813C20.2876 0.647555 72.6316 0.269815 79.1611 0C82.237 0.890388 85.9335 1.43002 89.4681 1.457C120.146 1.72681 173.596 1.13322 181.853 1.26813C182.473 1.26813 190.001 8.74199 190.001 9.49747C190.001 24.6071 189.758 45.3019 189.515 54.8263C189.515 55.7707 181.88 63.1906 181.502 63.1906C180.396 63.1906 156.436 64 153.522 64C153.306 64 149.718 62.9747 147.802 62.9747C101.718 62.9477 55.1207 63.2985 9.03635 63.2985C8.36181 63.2985 0.672099 56.2563 0.591155 54.8533C0.240396 50.3744 0.0785069 41.3086 -0.00243749 32.4317C0.402284 29.6256 1.21173 22.4216 1.18475 22.1518C1.15776 21.4233 0.375303 19.6425 -0.0294189 17.8887C-0.00243749 13.4637 0.0515254 10.2799 0.159451 9.52445H0.186433V9.49747Z" fill="#1F2B3A"/>
<path fill-rule="evenodd" clip-rule="evenodd" d="M7.14841 12.3031C7.41822 11.8984 10.8447 8.20208 11.2224 8.1751L8.30857 1.24115C7.01351 1.32209 0.214465 9.14639 0.187485 9.49713L7.14841 12.3031Z" fill="url(#paint0_radial_209_36163)"/>
<path fill-rule="evenodd" clip-rule="evenodd" d="M11.2226 8.17538C34.2647 7.15009 59.3575 8.60709 80.403 9.01181L79.1619 -0.0269775C72.6324 0.269818 20.2884 0.647559 8.30859 1.24115L11.1956 8.17538H11.2226ZM89.4688 1.457L91.9781 7.55481C120.983 7.31198 166.393 8.20237 178.966 8.20237L181.853 1.26813C173.597 1.13322 120.174 1.72682 89.4688 1.457Z" fill="url(#paint1_radial_209_36163)"/>
<path fill-rule="evenodd" clip-rule="evenodd" d="M181.502 63.1905L178.318 56.3372C177.401 56.4451 156.976 55.3119 155.87 55.5278L153.522 64C156.436 64 180.396 63.1905 181.502 63.1905ZM147.775 62.9477L145.752 56.7689C101.124 56.7689 56.4701 57.8212 11.8698 56.3372L9.00977 63.2715C55.0941 63.2715 101.691 62.9207 147.775 62.9477Z" fill="url(#paint2_radial_209_36163)"/>
<path fill-rule="evenodd" clip-rule="evenodd" d="M9.00915 63.271L11.8691 56.3371C11.4374 56.3371 7.84899 52.6138 7.60617 52.1012L0.564301 54.7992C0.672222 56.2022 8.33464 63.244 9.00915 63.244V63.271Z" fill="url(#paint3_radial_209_36163)"/>
<path fill-rule="evenodd" clip-rule="evenodd" d="M0.564657 54.8263L7.60682 52.1281C7.17511 51.2917 7.90361 34.6981 7.84965 33.5109L-0.00195312 32.4317C0.0520098 41.3086 0.24088 50.3743 0.537676 54.8263H0.564657ZM-0.00195312 17.8617L7.60682 19.9393C7.60682 19.2108 6.93228 12.6543 7.14813 12.3035L0.186917 9.49744C0.105973 10.2529 0.0520098 13.4367 -0.00195312 17.8617Z" fill="url(#paint4_radial_209_36163)"/>
<path fill-rule="evenodd" clip-rule="evenodd" d="M-0.00195312 32.4312L7.79536 33.5374C7.76838 32.728 6.47333 26.5225 6.41937 22.9881L1.18518 22.1517C1.18518 22.4485 0.402752 29.6523 -0.00195312 32.4312Z" fill="url(#paint5_radial_209_36163)"/>
<path fill-rule="evenodd" clip-rule="evenodd" d="M1.21216 22.1246L6.44635 22.961C6.44635 22.6912 7.6065 20.155 7.6065 19.9122L-0.00195312 17.8347C0.402752 19.5884 1.18518 21.3691 1.21216 22.0976V22.1246Z" fill="url(#paint6_radial_209_36163)"/>
<path fill-rule="evenodd" clip-rule="evenodd" d="M7.14743 12.3035C7.41725 11.8988 10.8439 8.20234 11.2216 8.17536C34.2638 7.15006 59.3565 8.60706 80.4021 9.01178C81.7781 9.01178 88.0918 7.55478 91.9771 7.5278C120.982 7.28497 166.392 8.17536 178.965 8.17536C179.154 8.17536 182.986 11.8988 183.039 12.3035C184.389 25.2276 183.795 49.0253 183.498 51.2917C183.444 51.7774 178.615 56.3103 178.318 56.3642C177.4 56.4722 156.975 55.3389 155.869 55.5548C154.79 55.7437 146.291 56.8229 145.778 56.8229C101.151 56.8229 56.4965 57.8752 11.8962 56.3912C11.4645 56.3912 7.87593 52.6678 7.6331 52.1551C7.2014 51.3187 7.92989 34.7251 7.87593 33.5379C7.84895 32.7285 6.55384 26.5227 6.49988 22.9882C6.49988 22.7184 7.66008 20.1821 7.66008 19.9393C7.66008 19.2108 6.98554 12.6543 7.2014 12.3035H7.14743Z" fill="url(#paint7_radial_209_36163)"/>
<path style="mix-blend-mode:screen" opacity="0.75" fill-rule="evenodd" clip-rule="evenodd" d="M8.82138 12.978C8.68648 13.2209 9.9546 19.1028 9.9546 20.0472C9.9546 20.3979 8.17383 22.7723 8.17383 23.177C8.17383 24.0404 10.1974 31.7841 10.3323 33.376C10.4673 34.9679 8.92931 50.7251 9.19912 51.4266C9.30705 51.7234 12.248 54.6374 12.3829 54.6374C56.8214 56.2563 101.287 55.0961 145.725 55.0691C148.1 55.0691 154.063 52.4519 156.518 51.8313C157.84 51.4806 175.998 54.4755 177.509 54.0168C179.047 53.5312 181.745 50.914 181.799 50.6981C183.068 45.8954 182.204 19.8583 181.341 12.9241C181.341 12.7622 178.427 9.92912 178.346 9.92912C149.719 9.47044 120.659 8.76892 92.0861 8.76892C91.0069 8.76892 81.2126 12.5733 80.1064 12.4924C75.3307 12.0876 50.157 9.76723 35.0743 9.60535C27.3037 9.5244 19.506 9.47044 11.7624 9.90214C11.5735 9.90214 8.90233 12.7622 8.7944 12.978H8.82138Z" fill="url(#paint8_radial_209_36163)"/>
<g style="mix-blend-mode:screen">
<path fill-rule="evenodd" clip-rule="evenodd" d="M10.3855 8.12141C10.3855 7.60877 9.711 5.58516 9.52213 4.9376C9.25232 4.02023 8.9825 3.12985 8.71269 2.23946C8.63174 1.99663 8.76665 2.3204 8.82061 2.37437C9.25232 3.18381 11.0331 6.96121 11.6267 7.23103C12.0044 7.39292 12.5441 7.4199 13.1646 7.4199C29.4075 7.20404 45.6773 7.52782 61.8931 8.52614C45.5154 8.01349 29.1916 8.04047 12.8139 8.44519C12.0584 8.44519 11.6537 8.55312 11.3569 8.63406C10.8442 8.76897 9.87289 9.47049 9.36024 9.84823C9.68402 9.38954 10.3046 8.63406 10.3855 8.09443V8.12141Z" fill="url(#paint9_linear_209_36163)"/>
</g>
<g style="mix-blend-mode:screen">
<path fill-rule="evenodd" clip-rule="evenodd" d="M7.47179 47.5943C7.41783 46.1104 7.36386 34.4279 7.22896 34.1042C6.98614 33.5646 3.55964 32.971 2.91211 32.8361C3.39776 32.8361 6.87822 32.971 7.09406 32.8361C7.39085 32.6202 6.68936 26.4417 6.6354 25.5784C7.0401 28.0336 7.52575 30.4888 8.09233 32.917C8.33516 33.9693 8.20026 34.6977 8.11931 35.723C7.84951 39.6351 7.66065 43.5743 7.47179 47.5134V47.5943Z" fill="url(#paint10_linear_209_36163)"/>
</g>
</g>
<g clip-path="url(#clip1_209_36163)">
<path fill-rule="evenodd" clip-rule="evenodd" d="M11.3958 9.49772C11.4036 9.17394 13.3832 1.32234 13.7681 1.26837C17.248 0.647799 32.4874 0.270059 34.3884 0.000244141C35.2839 0.890632 36.3601 1.43026 37.3892 1.45724C46.3207 1.72706 61.8822 1.13347 64.2859 1.26837C64.4666 1.26837 66.6582 8.74223 66.6582 9.49772C66.6582 24.6073 66.5875 45.3021 66.5168 54.8266C66.5168 55.7709 64.2938 63.1908 64.1838 63.1908C63.8617 63.1908 56.8862 64.0002 56.0378 64.0002C55.9749 64.0002 54.9302 62.975 54.3724 62.975C40.9555 62.948 27.3893 63.2987 13.9723 63.2987C13.7759 63.2987 11.5372 56.2566 11.5136 54.8535C11.4115 50.3746 11.3643 41.3088 11.3408 32.432C11.4586 29.6259 11.6943 22.4218 11.6864 22.152C11.6786 21.4235 11.4508 19.6427 11.3329 17.8889C11.3408 13.464 11.3565 10.2802 11.3879 9.5247H11.3958V9.49772Z" fill="#1F2B3A"/>
<path fill-rule="evenodd" clip-rule="evenodd" d="M14.6085 8.17538C21.3169 7.15009 28.6224 8.60709 34.7496 9.01181L34.3883 -0.0269775C32.4873 0.269818 17.2479 0.647559 13.7601 1.24115L14.6006 8.17538H14.6085ZM37.389 1.457L38.1195 7.55481C46.5641 7.31198 59.7846 8.20237 63.4452 8.20237L64.2857 1.26813C61.882 1.13322 46.3284 1.72682 37.389 1.457Z" fill="url(#paint11_radial_209_36163)"/>
<path fill-rule="evenodd" clip-rule="evenodd" d="M34.3885 0L34.7498 9.03899C35.1505 9.03899 36.9887 7.58196 38.1199 7.55498L37.3893 1.45703C36.3602 1.43005 35.2761 0.917391 34.3885 0Z" fill="url(#paint12_radial_209_36163)"/>
<path fill-rule="evenodd" clip-rule="evenodd" d="M64.1838 63.1905L63.2568 56.3372C62.9897 56.4451 57.0432 55.3119 56.7212 55.5278L56.0378 64C56.8861 64 63.8617 63.1905 64.1838 63.1905ZM54.3646 62.9477L53.7754 56.7689C40.7826 56.7689 27.782 57.8212 14.7971 56.3372L13.9645 63.2715C27.3814 63.2715 40.9476 62.9207 54.3646 62.9477Z" fill="url(#paint13_radial_209_36163)"/>
<path fill-rule="evenodd" clip-rule="evenodd" d="M56.0383 64.0002L56.7217 55.5278C56.4075 55.7167 53.933 56.796 53.7838 56.796L54.3729 62.9749C54.9385 62.9749 55.9833 64.0002 56.0383 64.0002Z" fill="url(#paint14_radial_209_36163)"/>
<path fill-rule="evenodd" clip-rule="evenodd" d="M13.4226 12.3036C13.5011 11.8989 14.4988 8.20246 14.6087 8.17548C21.3172 7.15018 28.6227 8.60718 34.7499 9.0119C35.1505 9.0119 36.9887 7.5549 38.1198 7.52792C46.5643 7.28509 59.7849 8.17548 63.4455 8.17548C63.5005 8.17548 64.6159 11.8989 64.6317 12.3036C65.0244 25.2278 64.8516 49.0254 64.7652 51.2918C64.7495 51.7775 63.3434 56.3104 63.257 56.3644C62.9899 56.4723 57.0434 55.3391 56.7213 55.5549C56.4071 55.7438 53.9327 56.823 53.7834 56.823C40.7906 56.823 27.79 57.8753 14.8051 56.3913C14.6794 56.3913 13.6347 52.6679 13.564 52.1552C13.4383 51.3188 13.6504 34.7252 13.6347 33.538C13.6268 32.7286 13.2498 26.5229 13.234 22.9883C13.234 22.7185 13.5718 20.1822 13.5718 19.9394C13.5718 19.2109 13.3754 12.6544 13.4383 12.3036H13.4226Z" fill="url(#paint15_radial_209_36163)"/>
<path style="mix-blend-mode:screen" opacity="0.75" fill-rule="evenodd" clip-rule="evenodd" d="M13.9102 12.9781C13.8709 13.221 14.2401 19.1029 14.2401 20.0473C14.2401 20.398 13.7217 22.7724 13.7217 23.1771C13.7217 24.0405 14.3108 31.7842 14.3501 33.3761C14.3894 34.968 13.9416 50.7252 14.0202 51.4267C14.0516 51.7235 14.9078 54.6375 14.9471 54.6375C27.8849 56.2564 40.8305 55.0962 53.7683 55.0692C54.4596 55.0692 56.1956 52.452 56.9104 51.8314C57.2954 51.4807 62.582 54.4756 63.0219 54.0169C63.4697 53.5313 64.2552 50.9141 64.2709 50.6982C64.6401 45.8955 64.3887 19.8584 64.1374 12.9242C64.1374 12.7623 63.289 9.92925 63.2654 9.92925C54.9309 9.47056 46.4707 8.76904 38.1518 8.76904C37.8376 8.76904 34.9861 12.5734 34.6641 12.4925C33.2737 12.0878 25.9446 9.76736 21.5535 9.60547C19.2911 9.52452 17.0209 9.47056 14.7664 9.90226C14.7114 9.90226 13.9338 12.7623 13.9023 12.9781H13.9102Z" fill="url(#paint16_radial_209_36163)"/>
<g style="mix-blend-mode:screen">
<path fill-rule="evenodd" clip-rule="evenodd" d="M14.3648 8.12153C14.3648 7.60887 14.1685 5.58525 14.1135 4.93769C14.0349 4.02031 13.9564 3.12992 13.8778 2.23952C13.8542 1.99668 13.8935 2.32047 13.9092 2.37443C14.0349 3.18388 14.5534 6.96131 14.7262 7.23113C14.8362 7.39302 14.9933 7.42 15.174 7.42C19.9029 7.20415 24.6397 7.52793 29.3609 8.52625C24.5926 8.0136 19.8401 8.04058 15.0718 8.44531C14.8519 8.44531 14.7341 8.55323 14.6476 8.63418C14.4984 8.76909 14.2156 9.47061 14.0663 9.84835C14.1606 9.38967 14.3413 8.63418 14.3648 8.09454V8.12153Z" fill="url(#paint17_linear_209_36163)"/>
</g>
<g style="mix-blend-mode:screen">
<path fill-rule="evenodd" clip-rule="evenodd" d="M63.3672 7.25809C63.4928 6.90732 64.0506 2.99498 64.1684 2.29346C64.082 3.29178 63.7049 7.17714 63.7049 7.90565C63.7049 8.49924 64.0663 9.98324 64.192 10.5499C64.0192 10.0912 63.6578 8.85001 63.4614 8.7151C62.943 8.39132 52.943 8.22943 51.3955 7.74376C51.2777 7.71677 51.6233 7.74376 51.6233 7.74376C52.8487 7.60885 63.0765 7.8247 63.375 7.28507L63.3672 7.25809Z" fill="url(#paint18_linear_209_36163)"/>
</g>
</g>
<g clip-path="url(#clip2_209_36163)">
<path fill-rule="evenodd" clip-rule="evenodd" d="M-111.811 9.49772C-111.785 9.17394 -104.985 1.32234 -103.663 1.26837C-91.7103 0.647799 -39.3663 0.270059 -32.8368 0.000244141C-29.7609 0.890632 -26.0644 1.43026 -22.5299 1.45724C8.14804 1.72706 61.5983 1.13347 69.8546 1.26837C70.4752 1.26837 78.003 8.74223 78.003 9.49772C78.003 24.6073 77.7602 45.3021 77.5174 54.8266C77.5174 55.7709 69.8816 63.1908 69.5039 63.1908C68.3976 63.1908 44.4381 64.0002 41.5241 64.0002C41.3082 64.0002 37.7197 62.975 35.804 62.975C-10.2803 62.948 -56.8773 63.2987 -102.962 63.2987C-103.636 63.2987 -111.326 56.2566 -111.407 54.8535C-111.758 50.3746 -111.919 41.3088 -112 32.432C-111.596 29.6259 -110.786 22.4218 -110.813 22.152C-110.84 21.4235 -111.623 19.6427 -112.027 17.8889C-112 13.464 -111.946 10.2802 -111.838 9.5247H-111.811V9.49772Z" fill="#1F2B3A"/>
<path fill-rule="evenodd" clip-rule="evenodd" d="M-100.775 8.17538C-77.7333 7.15009 -52.6406 8.60709 -31.595 9.01181L-32.8362 -0.0269775C-39.3657 0.269818 -91.7097 0.647559 -103.689 1.24115L-100.802 8.17538H-100.775ZM-22.5293 1.457L-20.02 7.55481C8.98508 7.31198 54.3949 8.20237 66.9682 8.20237L69.8552 1.26813C61.5989 1.13322 8.17564 1.72682 -22.5293 1.457Z" fill="url(#paint19_radial_209_36163)"/>
<path fill-rule="evenodd" clip-rule="evenodd" d="M69.8539 1.24121L66.9668 8.17555C67.1557 8.17555 70.9871 11.899 71.041 12.3038L78.0024 9.49766C78.0024 8.74216 70.4744 1.26819 69.8539 1.26819V1.24121Z" fill="url(#paint20_radial_209_36163)"/>
<path fill-rule="evenodd" clip-rule="evenodd" d="M78.0022 9.49744L71.041 12.3035C72.3901 25.2276 71.7965 49.0253 71.4997 51.2917L77.5436 54.8263C77.7864 45.3018 78.0292 24.607 78.0292 9.49744H78.0022Z" fill="url(#paint21_radial_209_36163)"/>
<path fill-rule="evenodd" clip-rule="evenodd" d="M77.5175 54.8264L71.4736 51.2917C71.4196 51.7774 66.5899 56.3104 66.2931 56.3643L69.4769 63.2177C69.8817 63.2177 77.4636 55.7977 77.4906 54.8534L77.5175 54.8264Z" fill="url(#paint22_radial_209_36163)"/>
<path fill-rule="evenodd" clip-rule="evenodd" d="M69.5041 63.1905L66.3203 56.3372C65.4029 56.4451 44.978 55.3119 43.8717 55.5278L41.5244 64C44.4383 64 68.3979 63.1905 69.5041 63.1905ZM35.7773 62.9477L33.7537 56.7689C-10.8736 56.7689 -55.5279 57.8212 -100.128 56.3372L-102.988 63.2715C-56.904 63.2715 -10.307 62.9207 35.7773 62.9477Z" fill="url(#paint23_radial_209_36163)"/>
<path fill-rule="evenodd" clip-rule="evenodd" d="M-104.85 12.3035C-104.58 11.8988 -101.154 8.20237 -100.776 8.17539C-77.7339 7.15009 -52.6412 8.60709 -31.5956 9.01181C-30.2196 9.01181 -23.9059 7.55481 -20.0206 7.52783C8.98447 7.285 54.3943 8.17539 66.9676 8.17539C67.1565 8.17539 70.9878 11.8988 71.0418 12.3035C72.3909 25.2277 71.7973 49.0253 71.5005 51.2917C71.4465 51.7774 66.6168 56.3103 66.32 56.3643C65.4027 56.4722 44.9777 55.339 43.8715 55.5548C42.7922 55.7437 34.2931 56.8229 33.7804 56.8229C-10.8469 56.8229 -55.5012 57.8752 -100.102 56.3912C-100.533 56.3912 -104.122 52.6678 -104.365 52.1552C-104.796 51.3187 -104.068 34.7251 -104.122 33.538C-104.149 32.7285 -105.444 26.5228 -105.498 22.9882C-105.498 22.7184 -104.338 20.1821 -104.338 19.9393C-104.338 19.2108 -105.012 12.6543 -104.796 12.3035H-104.85Z" fill="url(#paint24_radial_209_36163)"/>
<path style="mix-blend-mode:screen" opacity="0.9" fill-rule="evenodd" clip-rule="evenodd" d="M-103.177 12.978C-103.312 13.2209 -102.043 19.1028 -102.043 20.0472C-102.043 20.3979 -103.824 22.7723 -103.824 23.177C-103.824 24.0404 -101.801 31.7841 -101.666 33.376C-101.531 34.9679 -103.069 50.7251 -102.799 51.4266C-102.691 51.7234 -99.75 54.6374 -99.6151 54.6374C-55.1767 56.2563 -10.7112 55.0961 33.7272 55.0691C36.1016 55.0691 42.0645 52.4519 44.5198 51.8313C45.8419 51.4806 64.0004 54.4755 65.5114 54.0168C67.0493 53.5312 69.7474 50.914 69.8014 50.6981C71.0695 45.8954 70.2061 19.8583 69.3427 12.9241C69.3427 12.7622 66.4287 9.92912 66.3478 9.92912C37.7205 9.47044 8.66144 8.76892 -19.9119 8.76892C-20.9912 8.76892 -30.7854 12.5733 -31.8917 12.4924C-36.6674 12.0876 -61.8411 9.76723 -76.9237 9.60535C-84.6944 9.5244 -92.492 9.47044 -100.236 9.90214C-100.425 9.90214 -103.096 12.7622 -103.204 12.978H-103.177Z" fill="url(#paint25_radial_209_36163)"/>
<g style="mix-blend-mode:screen">
<path fill-rule="evenodd" clip-rule="evenodd" d="M66.6978 7.25801C67.1295 6.90726 69.0451 2.99494 69.4499 2.29343C69.1531 3.29174 67.858 7.17707 67.858 7.90557C67.858 8.49916 69.0991 9.98314 69.5308 10.5498C68.9372 10.0911 67.6961 8.84992 67.0215 8.71501C65.2408 8.39124 30.8934 8.22935 25.578 7.74368C25.1733 7.7167 26.3605 7.74368 26.3605 7.74368C30.5696 7.60877 65.6994 7.82462 66.7247 7.285L66.6978 7.25801Z" fill="url(#paint26_linear_209_36163)"/>
</g>
</g>
</g>
<defs>
<filter id="filter0_iiiii_209_36163" x="0" y="-2" width="78" height="77" filterUnits="userSpaceOnUse" color-interpolation-filters="sRGB">
<feFlood flood-opacity="0" result="BackgroundImageFix"/>
<feBlend mode="normal" in="SourceGraphic" in2="BackgroundImageFix" result="shape"/>
<feColorMatrix in="SourceAlpha" type="matrix" values="0 0 0 0 0 0 0 0 0 0 0 0 0 0 0 0 0 0 127 0" result="hardAlpha"/>
<feOffset dy="4"/>
<feGaussianBlur stdDeviation="4.2"/>
<feComposite in2="hardAlpha" operator="arithmetic" k2="-1" k3="1"/>
<feColorMatrix type="matrix" values="0 0 0 0 0.211765 0 0 0 0 1 0 0 0 0 1 0 0 0 0.5 0"/>
<feBlend mode="normal" in2="shape" result="effect1_innerShadow_209_36163"/>
<feColorMatrix in="SourceAlpha" type="matrix" values="0 0 0 0 0 0 0 0 0 0 0 0 0 0 0 0 0 0 127 0" result="hardAlpha"/>
<feOffset dy="4"/>
<feGaussianBlur stdDeviation="2"/>
<feComposite in2="hardAlpha" operator="arithmetic" k2="-1" k3="1"/>
<feColorMatrix type="matrix" values="0 0 0 0 0.211765 0 0 0 0 1 0 0 0 0 1 0 0 0 1 0"/>
<feBlend mode="normal" in2="effect1_innerShadow_209_36163" result="effect2_innerShadow_209_36163"/>
<feColorMatrix in="SourceAlpha" type="matrix" values="0 0 0 0 0 0 0 0 0 0 0 0 0 0 0 0 0 0 127 0" result="hardAlpha"/>
<feOffset dy="11"/>
<feGaussianBlur stdDeviation="7"/>
<feComposite in2="hardAlpha" operator="arithmetic" k2="-1" k3="1"/>
<feColorMatrix type="matrix" values="0 0 0 0 0.211765 0 0 0 0 1 0 0 0 0 1 0 0 0 0.3 0"/>
<feBlend mode="normal" in2="effect2_innerShadow_209_36163" result="effect3_innerShadow_209_36163"/>
<feColorMatrix in="SourceAlpha" type="matrix" values="0 0 0 0 0 0 0 0 0 0 0 0 0 0 0 0 0 0 127 0" result="hardAlpha"/>
<feOffset dy="-2"/>
<feGaussianBlur stdDeviation="2.5"/>
<feComposite in2="hardAlpha" operator="arithmetic" k2="-1" k3="1"/>
<feColorMatrix type="matrix" values="0 0 0 0 0.211765 0 0 0 0 1 0 0 0 0 1 0 0 0 0.4 0"/>
<feBlend mode="normal" in2="effect3_innerShadow_209_36163" result="effect4_innerShadow_209_36163"/>
<feColorMatrix in="SourceAlpha" type="matrix" values="0 0 0 0 0 0 0 0 0 0 0 0 0 0 0 0 0 0 127 0" result="hardAlpha"/>
<feOffset dy="4"/>
<feGaussianBlur stdDeviation="40.95"/>
<feComposite in2="hardAlpha" operator="arithmetic" k2="-1" k3="1"/>
<feColorMatrix type="matrix" values="0 0 0 0 0.211765 0 0 0 0 1 0 0 0 0 1 0 0 0 0.2 0"/>
<feBlend mode="normal" in2="effect4_innerShadow_209_36163" result="effect5_innerShadow_209_36163"/>
</filter>
<radialGradient id="paint0_radial_209_36163" cx="0" cy="0" r="1" gradientUnits="userSpaceOnUse" gradientTransform="translate(12.0858 7.98623) scale(42.0354)">
<stop stop-color="#75859D"/>
<stop offset="1" stop-color="#495573"/>
</radialGradient>
<radialGradient id="paint1_radial_209_36163" cx="0" cy="0" r="1" gradientUnits="userSpaceOnUse" gradientTransform="translate(75.3845 -26.9005) scale(343.744 343.744)">
<stop stop-color="#607492"/>
<stop offset="1" stop-color="#3B4762"/>
</radialGradient>
<radialGradient id="paint2_radial_209_36163" cx="0" cy="0" r="1" gradientUnits="userSpaceOnUse" gradientTransform="translate(102.851 37.9089) scale(461.599 461.599)">
<stop stop-color="#1A2432"/>
<stop offset="1" stop-color="#181A21"/>
</radialGradient>
<radialGradient id="paint3_radial_209_36163" cx="0" cy="0" r="1" gradientUnits="userSpaceOnUse" gradientTransform="translate(12.7324 48.8365) scale(49.2661 49.2661)">
<stop stop-color="#1A232F"/>
<stop offset="1" stop-color="#1B1D24"/>
</radialGradient>
<radialGradient id="paint4_radial_209_36163" cx="0" cy="0" r="1" gradientUnits="userSpaceOnUse" gradientTransform="translate(0.726545 10.8465) scale(145.457 145.457)">
<stop stop-color="#2C3A50"/>
<stop offset="1" stop-color="#192232"/>
</radialGradient>
<radialGradient id="paint5_radial_209_36163" cx="0" cy="0" r="1" gradientUnits="userSpaceOnUse" gradientTransform="translate(1.72479 35.8038) scale(38.0693 38.0693)">
<stop stop-color="#556784"/>
<stop offset="1" stop-color="#26324A"/>
</radialGradient>
<radialGradient id="paint6_radial_209_36163" cx="0" cy="0" r="1" gradientUnits="userSpaceOnUse" gradientTransform="translate(4.80055 17.8077) scale(37.9074)">
<stop stop-color="#1A2432"/>
<stop offset="1" stop-color="#181A21"/>
</radialGradient>
<radialGradient id="paint7_radial_209_36163" cx="0" cy="0" r="1" gradientUnits="userSpaceOnUse" gradientTransform="translate(93.569 -32.3778) scale(189.275 189.275)">
<stop offset="0.07" stop-color="#4A5B76"/>
<stop offset="1" stop-color="#263348"/>
</radialGradient>
<radialGradient id="paint8_radial_209_36163" cx="0" cy="0" r="1" gradientUnits="userSpaceOnUse" gradientTransform="translate(95.3239 -111.676) scale(351.568 351.568)">
<stop stop-color="#1C2129"/>
<stop offset="1"/>
</radialGradient>
<linearGradient id="paint9_linear_209_36163" x1="8.65859" y1="5.99795" x2="43.2738" y2="37.2212" gradientUnits="userSpaceOnUse">
<stop stop-color="#90D2F6"/>
<stop offset="0.3123" stop-color="#009FAA"/>
<stop offset="0.7592" stop-color="#00CDBD"/>
<stop offset="1" stop-color="#C2E8FD"/>
</linearGradient>
<linearGradient id="paint10_linear_209_36163" x1="2.90923" y1="36.5827" x2="9.17819" y2="36.7804" gradientUnits="userSpaceOnUse">
<stop stop-color="#90D2F6"/>
<stop offset="0.3123" stop-color="#009FAA"/>
<stop offset="0.7592" stop-color="#00CDBD"/>
<stop offset="1" stop-color="#C2E8FD"/>
</linearGradient>
<radialGradient id="paint11_radial_209_36163" cx="0" cy="0" r="1" gradientUnits="userSpaceOnUse" gradientTransform="translate(33.2885 -26.9005) scale(100.077 343.744)">
<stop stop-color="#607492"/>
<stop offset="1" stop-color="#3B4762"/>
</radialGradient>
<radialGradient id="paint12_radial_209_36163" cx="0" cy="0" r="1" gradientUnits="userSpaceOnUse" gradientTransform="translate(31.7569 -7.20421) scale(20.5108 70.4502)">
<stop stop-color="#556784"/>
<stop offset="1" stop-color="#26324A"/>
</radialGradient>
<radialGradient id="paint13_radial_209_36163" cx="0" cy="0" r="1" gradientUnits="userSpaceOnUse" gradientTransform="translate(41.2854 37.9089) scale(134.389 461.599)">
<stop stop-color="#1A2432"/>
<stop offset="1" stop-color="#181A21"/>
</radialGradient>
<radialGradient id="paint14_radial_209_36163" cx="0" cy="0" r="1" gradientUnits="userSpaceOnUse" gradientTransform="translate(56.8788 58.1721) scale(23.2288 79.786)">
<stop stop-color="#1D2738"/>
<stop offset="1" stop-color="#131924"/>
</radialGradient>
<radialGradient id="paint15_radial_209_36163" cx="0" cy="0" r="1" gradientUnits="userSpaceOnUse" gradientTransform="translate(38.5833 -32.3776) scale(55.1053 189.275)">
<stop offset="0.07" stop-color="#4A5B76"/>
<stop offset="1" stop-color="#263348"/>
</radialGradient>
<radialGradient id="paint16_radial_209_36163" cx="0" cy="0" r="1" gradientUnits="userSpaceOnUse" gradientTransform="translate(39.0945 -111.676) scale(102.355 351.568)">
<stop stop-color="#1C2129"/>
<stop offset="1"/>
</radialGradient>
<linearGradient id="paint17_linear_209_36163" x1="13.8621" y1="5.99805" x2="30.9604" y2="10.4883" gradientUnits="userSpaceOnUse">
<stop stop-color="#90D2F6"/>
<stop offset="0.3123" stop-color="#009FAA"/>
<stop offset="0.7592" stop-color="#00CDBD"/>
<stop offset="1" stop-color="#C2E8FD"/>
</linearGradient>
<linearGradient id="paint18_linear_209_36163" x1="51.364" y1="6.4203" x2="65.8951" y2="9.36513" gradientUnits="userSpaceOnUse">
<stop stop-color="#90D2F6"/>
<stop offset="0.3123" stop-color="#009FAA"/>
<stop offset="0.7592" stop-color="#00CDBD"/>
<stop offset="1" stop-color="#C2E8FD"/>
</linearGradient>
<radialGradient id="paint19_radial_209_36163" cx="0" cy="0" r="1" gradientUnits="userSpaceOnUse" gradientTransform="translate(-36.6136 -26.9005) scale(343.744 343.744)">
<stop stop-color="#607492"/>
<stop offset="1" stop-color="#3B4762"/>
</radialGradient>
<radialGradient id="paint20_radial_209_36163" cx="0" cy="0" r="1" gradientUnits="userSpaceOnUse" gradientTransform="translate(39.1216 12.9783) scale(68.4529 68.4529)">
<stop stop-color="#75859D"/>
<stop offset="1" stop-color="#495573"/>
</radialGradient>
<radialGradient id="paint21_radial_209_36163" cx="0" cy="0" r="1" gradientUnits="userSpaceOnUse" gradientTransform="translate(52.154 26.3069) scale(113.295 113.295)">
<stop stop-color="#2C3A50"/>
<stop offset="1" stop-color="#192232"/>
</radialGradient>
<radialGradient id="paint22_radial_209_36163" cx="0" cy="0" r="1" gradientUnits="userSpaceOnUse" gradientTransform="translate(59.2778 48.9173) scale(43.5487 43.5487)">
<stop stop-color="#1A232F"/>
<stop offset="1" stop-color="#1B1D24"/>
</radialGradient>
<radialGradient id="paint23_radial_209_36163" cx="0" cy="0" r="1" gradientUnits="userSpaceOnUse" gradientTransform="translate(-9.1468 37.9089) scale(461.599 461.599)">
<stop stop-color="#1A2432"/>
<stop offset="1" stop-color="#181A21"/>
</radialGradient>
<radialGradient id="paint24_radial_209_36163" cx="0" cy="0" r="1" gradientUnits="userSpaceOnUse" gradientTransform="translate(-18.4287 -32.3777) scale(189.275 189.275)">
<stop offset="0.07" stop-color="#4A5B76"/>
<stop offset="1" stop-color="#263348"/>
</radialGradient>
<radialGradient id="paint25_radial_209_36163" cx="0" cy="0" r="1" gradientUnits="userSpaceOnUse" gradientTransform="translate(-16.6741 -111.676) scale(351.568 351.568)">
<stop stop-color="#1C2129"/>
<stop offset="1"/>
</radialGradient>
<linearGradient id="paint26_linear_209_36163" x1="25.47" y1="6.42023" x2="60.4712" y2="30.784" gradientUnits="userSpaceOnUse">
<stop stop-color="#90D2F6"/>
<stop offset="0.3123" stop-color="#009FAA"/>
<stop offset="0.7592" stop-color="#00CDBD"/>
<stop offset="1" stop-color="#C2E8FD"/>
</linearGradient>
<clipPath id="clip0_209_36163">
<rect width="16" height="64" fill="white"/>
</clipPath>
<clipPath id="clip1_209_36163">
<rect width="46" height="64" fill="white" transform="translate(16)"/>
</clipPath>
<clipPath id="clip2_209_36163">
<rect width="16" height="64" fill="white" transform="translate(62)"/>
</clipPath>
</defs>
</svg>
