<svg width="104" height="48" viewBox="0 0 104 48" fill="none" xmlns="http://www.w3.org/2000/svg">
<g clip-path="url(#clip0_79509_1373)">
<path fill-rule="evenodd" clip-rule="evenodd" d="M0.139916 7.1231C0.160152 6.88027 5.25965 0.991568 6.25121 0.951096C15.2158 0.485666 54.4738 0.202361 59.3709 0C61.6779 0.667791 64.4502 1.07251 67.1011 1.09275C90.1096 1.29511 130.197 0.849916 136.39 0.951096C136.855 0.951096 142.501 6.55649 142.501 7.1231C142.501 18.4553 142.319 33.9764 142.137 41.1197C142.137 41.828 136.41 47.3929 136.126 47.3929C135.297 47.3929 117.327 48 115.142 48C114.98 48 112.288 47.231 110.852 47.231C76.2883 47.2108 41.3406 47.4739 6.77735 47.4739C6.27145 47.4739 0.504166 42.1922 0.443457 41.14C0.180388 37.7808 0.0589717 30.9815 -0.00173657 24.3238C0.301805 22.2192 0.908887 16.8162 0.888651 16.6138C0.868415 16.0675 0.281569 14.7319 -0.0219727 13.4165C-0.00173657 10.0978 0.0387356 7.70995 0.11968 7.14334H0.139916V7.1231Z" fill="#1F2B3A"/>
<path fill-rule="evenodd" clip-rule="evenodd" d="M5.36132 9.22736C5.56367 8.92383 8.13355 6.1516 8.41684 6.13137L6.23144 0.930908C5.26014 0.991614 0.16086 6.85984 0.140625 7.1229L5.36132 9.22736Z" fill="url(#paint0_radial_79509_1373)"/>
<path fill-rule="evenodd" clip-rule="evenodd" d="M8.41694 6.13163C25.6986 5.36266 44.5181 6.45541 60.3023 6.75895L59.3714 -0.0201416C54.4743 0.202455 15.2163 0.485761 6.23145 0.930955L8.39671 6.13163H8.41694ZM67.1016 1.09284L68.9836 5.6662C90.7374 5.48407 124.795 6.15187 134.225 6.15187L136.39 0.951191C130.198 0.85001 90.1303 1.2952 67.1016 1.09284Z" fill="url(#paint1_radial_79509_1373)"/>
<path fill-rule="evenodd" clip-rule="evenodd" d="M136.127 47.393L133.739 42.253C133.051 42.3339 117.732 41.484 116.902 41.6459L115.142 48.0001C117.327 48.0001 135.297 47.393 136.127 47.393ZM110.832 47.2108L109.314 42.5768C75.8433 42.5768 42.3526 43.366 8.90235 42.253L6.75732 47.4537C41.3206 47.4537 76.2683 47.1906 110.832 47.2108Z" fill="url(#paint2_radial_79509_1373)"/>
<path fill-rule="evenodd" clip-rule="evenodd" d="M6.75697 47.4533L8.90191 42.2529C8.57815 42.2529 5.88686 39.4604 5.70474 39.0759L0.42334 41.0995C0.504281 42.1517 6.25109 47.4331 6.75697 47.4331V47.4533Z" fill="url(#paint3_radial_79509_1373)"/>
<path fill-rule="evenodd" clip-rule="evenodd" d="M0.423493 41.1198L5.70511 39.0962C5.38133 38.4689 5.92771 26.0237 5.88724 25.1333L-0.00146484 24.3238C0.0390073 30.9815 0.18066 37.7808 0.403257 41.1198H0.423493ZM-0.00146484 13.3964L5.70511 14.9545C5.70511 14.4082 5.19921 9.49079 5.3611 9.22772L0.140188 7.12317C0.0794795 7.68978 0.0390073 10.0776 -0.00146484 13.3964Z" fill="url(#paint4_radial_79509_1373)"/>
<path fill-rule="evenodd" clip-rule="evenodd" d="M-0.00146484 24.3235L5.84652 25.1532C5.82629 24.5461 4.855 19.892 4.81452 17.2412L0.888886 16.6139C0.888886 16.8365 0.302064 22.2393 -0.00146484 24.3235Z" fill="url(#paint5_radial_79509_1373)"/>
<path fill-rule="evenodd" clip-rule="evenodd" d="M0.909122 16.5935L4.83476 17.2208C4.83476 17.0184 5.70488 15.1163 5.70488 14.9342L-0.00146484 13.3761C0.302064 14.6914 0.888886 16.0269 0.909122 16.5733V16.5935Z" fill="url(#paint6_radial_79509_1373)"/>
<path fill-rule="evenodd" clip-rule="evenodd" d="M5.36067 9.22776C5.56303 8.92422 8.13301 6.15188 8.41631 6.13164C25.6979 5.36267 44.5175 6.45542 60.3016 6.75896C61.3337 6.75896 66.0689 5.66621 68.9829 5.64597C90.7367 5.46385 124.794 6.13164 134.224 6.13164C134.366 6.13164 137.239 8.92422 137.28 9.22776C138.292 18.9208 137.846 36.7691 137.624 38.4689C137.583 38.8332 133.961 42.2328 133.738 42.2733C133.05 42.3542 117.732 41.5043 116.902 41.6662C116.093 41.8079 109.718 42.6173 109.334 42.6173C75.8632 42.6173 42.3725 43.4065 8.92222 42.2935C8.59844 42.2935 5.90704 39.5009 5.72492 39.1165C5.40114 38.4891 5.94751 26.044 5.90704 25.1536C5.8868 24.5465 4.91547 19.8922 4.875 17.2413C4.875 17.0389 5.74515 15.1367 5.74515 14.9546C5.74515 14.4082 5.23925 9.49083 5.40114 9.22776H5.36067Z" fill="url(#paint7_radial_79509_1373)"/>
<path style="mix-blend-mode:screen" opacity="0.75" fill-rule="evenodd" clip-rule="evenodd" d="M6.61604 9.73361C6.51486 9.91574 7.46595 14.3272 7.46595 15.0355C7.46595 15.2985 6.13037 17.0793 6.13037 17.3829C6.13037 18.0304 7.64808 23.8382 7.74926 25.0321C7.85044 26.226 6.69698 38.0439 6.89934 38.57C6.98029 38.7926 9.18602 40.9781 9.2872 40.9781C42.616 42.1923 75.9651 41.3222 109.294 41.3019C111.075 41.3019 115.547 39.339 117.388 38.8736C118.38 38.6105 131.999 40.8567 133.132 40.5127C134.285 40.1485 136.309 38.1856 136.35 38.0237C137.301 34.4216 136.653 14.8938 136.006 9.69314C136.006 9.57172 133.82 7.44693 133.759 7.44693C112.289 7.10292 90.4946 6.57678 69.0646 6.57678C68.2551 6.57678 60.9095 9.43007 60.0798 9.36936C56.498 9.06582 37.6177 7.32552 26.3057 7.2041C20.4778 7.14339 14.6295 7.10292 8.82177 7.4267C8.68012 7.4267 6.67675 9.57172 6.5958 9.73361H6.61604Z" fill="url(#paint8_radial_79509_1373)"/>
<path style="mix-blend-mode:screen" fill-rule="evenodd" clip-rule="evenodd" d="M7.78919 6.09108C7.78919 5.70659 7.28329 4.18888 7.14164 3.70322C6.93928 3.01519 6.73692 2.3474 6.53456 1.67961C6.47385 1.49748 6.57503 1.74032 6.6155 1.78079C6.93928 2.38787 8.27486 5.22092 8.72005 5.42329C9.00336 5.5447 9.40808 5.56494 9.87351 5.56494C22.0556 5.40305 34.258 5.64588 46.4199 6.39462C34.1366 6.01013 21.8937 6.03037 9.61044 6.33391C9.04383 6.33391 8.74029 6.41485 8.51769 6.47556C8.13321 6.57674 7.40471 7.10288 7.02022 7.38619C7.26306 7.04217 7.72849 6.47556 7.78919 6.07084V6.09108Z" fill="url(#paint9_radial_79509_1373)"/>
<path style="mix-blend-mode:screen" fill-rule="evenodd" clip-rule="evenodd" d="M5.60384 35.6958C5.56337 34.5829 5.5229 25.821 5.42172 25.5782C5.23961 25.1735 2.66973 24.7283 2.18408 24.6271C2.54832 24.6271 5.15866 24.7283 5.32055 24.6271C5.54313 24.4652 5.01702 19.8314 4.97655 19.1838C5.28008 21.0252 5.64431 22.8667 6.06925 24.6878C6.25137 25.477 6.15019 26.0234 6.08949 26.7923C5.88713 29.7264 5.74549 32.6808 5.60384 35.6351V35.6958Z" fill="url(#paint10_radial_79509_1373)"/>
</g>
<g clip-path="url(#clip1_79509_1373)">
<path fill-rule="evenodd" clip-rule="evenodd" d="M3.99259 7.12323C4.00625 6.88039 7.44895 0.99169 8.11836 0.951218C14.1704 0.485788 40.6737 0.202483 43.9798 0.00012207C45.5372 0.667913 47.4088 1.07263 49.1985 1.09287C64.7316 1.29523 91.795 0.850038 95.9754 0.951218C96.2897 0.951218 100.101 6.55661 100.101 7.12323C100.101 18.4554 99.9783 33.9765 99.8553 41.1199C99.8553 41.8281 95.9891 47.393 95.7978 47.393C95.2377 47.393 83.1063 48.0001 81.6309 48.0001C81.5216 48.0001 79.7046 47.2312 78.7346 47.2312C55.4008 47.2109 31.8074 47.474 8.47356 47.474C8.13203 47.474 4.2385 42.1924 4.19752 41.1401C4.01992 37.7809 3.93795 30.9816 3.89696 24.3239C4.10188 22.2193 4.51173 16.8163 4.49807 16.614C4.48441 16.0676 4.08822 14.732 3.8833 13.4166C3.89696 10.0979 3.92429 7.71007 3.97893 7.14346H3.99259V7.12323Z" fill="#1F2B3A"/>
<path fill-rule="evenodd" clip-rule="evenodd" d="M9.57993 6.13151C21.2468 5.36254 33.952 6.45528 44.608 6.75883L43.9796 -0.0202637C40.6735 0.202333 14.1702 0.485639 8.10449 0.930833L9.56627 6.13151H9.57993ZM49.1983 1.09272L50.4688 5.66608C65.1549 5.48395 88.1472 6.15174 94.5134 6.15174L95.9752 0.951069C91.7948 0.849888 64.745 1.29508 49.1983 1.09272Z" fill="url(#paint11_radial_79509_1373)"/>
<path fill-rule="evenodd" clip-rule="evenodd" d="M43.98 0L44.6084 6.77925C45.3052 6.77925 48.502 5.68647 50.4693 5.66624L49.1988 1.09277C47.4091 1.07254 45.5238 0.688043 43.98 0Z" fill="url(#paint12_radial_79509_1373)"/>
<path fill-rule="evenodd" clip-rule="evenodd" d="M95.7979 47.3929L94.1858 42.2529C93.7213 42.3338 83.3796 41.4839 82.8195 41.6458L81.6309 47.9999C83.1064 47.9999 95.2378 47.3929 95.7979 47.3929ZM78.721 47.2107L77.6964 42.5767C55.1003 42.5767 32.4905 43.3659 9.90808 42.2529L8.45996 47.4536C31.7938 47.4536 55.3872 47.1905 78.721 47.2107Z" fill="url(#paint13_radial_79509_1373)"/>
<path fill-rule="evenodd" clip-rule="evenodd" d="M81.6319 48.0002L82.8205 41.6459C82.274 41.7875 77.9705 42.597 77.7109 42.597L78.7356 47.2312C79.7192 47.2312 81.5362 48.0002 81.6319 48.0002Z" fill="url(#paint14_radial_79509_1373)"/>
<path fill-rule="evenodd" clip-rule="evenodd" d="M7.51733 9.22776C7.65394 8.92422 9.38895 6.15188 9.58021 6.13164C21.2471 5.36267 33.9523 6.45542 44.6083 6.75896C45.305 6.75896 48.5018 5.66621 50.4691 5.64597C65.1552 5.46385 88.1475 6.13164 94.5137 6.13164C94.6094 6.13164 96.5493 8.92422 96.5766 9.22776C97.2597 18.9208 96.9591 36.7691 96.8089 38.4689C96.7815 38.8332 94.3361 42.2328 94.1858 42.2733C93.7214 42.3542 83.3796 41.5043 82.8195 41.6662C82.273 41.8079 77.9697 42.6173 77.7101 42.6173C55.114 42.6173 32.5042 43.4065 9.92175 42.2935C9.70317 42.2935 7.88619 39.5009 7.76324 39.1165C7.54465 38.4891 7.91351 26.044 7.88619 25.1536C7.87253 24.5465 7.21678 19.8922 7.18945 17.2413C7.18945 17.0389 7.7769 15.1367 7.7769 14.9546C7.7769 14.4082 7.43536 9.49083 7.54465 9.22776H7.51733Z" fill="url(#paint15_radial_79509_1373)"/>
<path style="mix-blend-mode:screen" opacity="0.75" fill-rule="evenodd" clip-rule="evenodd" d="M8.36547 9.73361C8.29717 9.91574 8.93926 14.3272 8.93926 15.0355C8.93926 15.2985 8.0376 17.0793 8.0376 17.3829C8.0376 18.0304 9.06221 23.8382 9.13052 25.0321C9.19882 26.226 8.42012 38.0439 8.55673 38.57C8.61138 38.7926 10.1005 40.9781 10.1688 40.9781C32.6693 42.1923 55.1834 41.3222 77.6839 41.3019C78.8861 41.3019 81.9053 39.339 83.1485 38.8736C83.8179 38.6105 93.0121 40.8567 93.7771 40.5127C94.5559 40.1485 95.922 38.1856 95.9493 38.0237C96.5914 34.4216 96.1542 14.8938 95.7171 9.69314C95.7171 9.57172 94.2416 7.44693 94.2006 7.44693C79.7058 7.10292 64.9924 6.57678 50.5248 6.57678C49.9784 6.57678 45.0193 9.43007 44.4591 9.36936C42.0411 9.06582 29.2949 7.32552 21.6581 7.2041C17.7236 7.14339 13.7754 7.10292 9.85458 7.4267C9.75895 7.4267 8.40646 9.57172 8.35181 9.73361H8.36547Z" fill="url(#paint16_radial_79509_1373)"/>
<path style="mix-blend-mode:screen" fill-rule="evenodd" clip-rule="evenodd" d="M9.15619 6.09111C9.15619 5.70663 8.81465 4.18891 8.71902 3.70324C8.5824 3.0152 8.44578 2.34741 8.30917 1.67961C8.26818 1.49748 8.33649 1.74032 8.36381 1.78079C8.5824 2.38788 9.48407 5.22096 9.78462 5.42332C9.97588 5.54474 10.2491 5.56497 10.5633 5.56497C18.7876 5.40308 27.0256 5.64592 35.2362 6.39466C26.9436 6.01017 18.6783 6.03041 10.3857 6.33395C10.0032 6.33395 9.79828 6.41489 9.64801 6.4756C9.38843 6.57678 8.89662 7.10293 8.63705 7.38624C8.80099 7.04222 9.1152 6.4756 9.15619 6.07088V6.09111Z" fill="url(#paint17_radial_79509_1373)"/>
<path style="mix-blend-mode:screen" fill-rule="evenodd" clip-rule="evenodd" d="M94.3775 5.44356C94.5961 5.18049 95.5661 2.24624 95.771 1.72009C95.6207 2.46883 94.965 5.38286 94.965 5.92923C94.965 6.37443 95.5934 7.48743 95.812 7.91239C95.5114 7.56837 94.883 6.6375 94.5415 6.53632C93.6398 6.29349 76.2486 6.17207 73.5572 5.80782C73.3523 5.78758 73.9534 5.80782 73.9534 5.80782C76.0846 5.70664 93.872 5.86853 94.3912 5.4638L94.3775 5.44356Z" fill="url(#paint18_radial_79509_1373)"/>
</g>
<g clip-path="url(#clip2_79509_1373)">
<path fill-rule="evenodd" clip-rule="evenodd" d="M-38.3586 7.12323C-38.3384 6.88039 -33.2389 0.99169 -32.2473 0.951218C-23.2827 0.485788 15.9753 0.202483 20.8724 0.00012207C23.1793 0.667913 25.9517 1.07263 28.6026 1.09287C51.611 1.29523 91.6987 0.850038 97.891 0.951218C98.3564 0.951218 104.002 6.55661 104.002 7.12323C104.002 18.4554 103.82 33.9765 103.638 41.1199C103.638 41.8281 97.9112 47.393 97.6279 47.393C96.7982 47.393 78.8286 48.0001 76.6431 48.0001C76.4812 48.0001 73.7898 47.2312 72.353 47.2312C37.7898 47.2109 2.84205 47.474 -31.7212 47.474C-32.2271 47.474 -37.9944 42.1924 -38.0551 41.1401C-38.3181 37.7809 -38.4396 30.9816 -38.5003 24.3239C-38.1967 22.2193 -37.5896 16.8163 -37.6099 16.614C-37.6301 16.0676 -38.217 14.732 -38.5205 13.4166C-38.5003 10.0979 -38.4598 7.71007 -38.3789 7.14346H-38.3586V7.12323Z" fill="#1F2B3A"/>
<path fill-rule="evenodd" clip-rule="evenodd" d="M-30.0816 6.13151C-12.8 5.36254 6.01958 6.45528 21.8037 6.75883L20.8729 -0.0202637C15.9757 0.202333 -23.2823 0.485639 -32.2671 0.930833L-30.1018 6.13151H-30.0816ZM28.6031 1.09272L30.485 5.66608C52.2388 5.48395 86.2961 6.15174 95.7262 6.15174L97.8914 0.951069C91.6992 0.849888 51.6317 1.29508 28.6031 1.09272Z" fill="url(#paint19_radial_79509_1373)"/>
<path fill-rule="evenodd" clip-rule="evenodd" d="M97.8904 0.930908L95.7251 6.13166C95.8668 6.13166 98.7403 8.92428 98.7808 9.22783L104.002 7.12324C104.002 6.55662 98.3558 0.951145 97.8904 0.951145V0.930908Z" fill="url(#paint20_radial_79509_1373)"/>
<path fill-rule="evenodd" clip-rule="evenodd" d="M104.002 7.12305L98.7808 9.2276C99.7926 18.9207 99.3474 36.7689 99.1248 38.4687L103.658 41.1197C103.84 33.9763 104.022 18.4553 104.022 7.12305H104.002Z" fill="url(#paint21_radial_79509_1373)"/>
<path fill-rule="evenodd" clip-rule="evenodd" d="M103.638 41.1197L99.1051 38.4688C99.0646 38.833 95.4423 42.2327 95.2197 42.2732L97.6076 47.4132C97.9112 47.4132 103.598 41.8482 103.618 41.14L103.638 41.1197Z" fill="url(#paint22_radial_79509_1373)"/>
<path fill-rule="evenodd" clip-rule="evenodd" d="M97.6281 47.3929L95.2402 42.2529C94.5522 42.3338 79.2335 41.4839 78.4038 41.6458L76.6433 47.9999C78.8288 47.9999 96.7984 47.3929 97.6281 47.3929ZM72.333 47.2107L70.8153 42.5767C37.3448 42.5767 3.85407 43.3659 -29.5962 42.2529L-31.7412 47.4536C2.82203 47.4536 37.7697 47.1905 72.333 47.2107Z" fill="url(#paint23_radial_79509_1373)"/>
<path fill-rule="evenodd" clip-rule="evenodd" d="M-33.1379 9.22764C-32.9355 8.9241 -30.3655 6.15175 -30.0822 6.13152C-12.8006 5.36255 6.01896 6.45529 21.8031 6.75884C22.8351 6.75884 27.5704 5.66609 30.4844 5.64585C52.2382 5.46373 86.2955 6.13152 95.7255 6.13152C95.8672 6.13152 98.7407 8.9241 98.7812 9.22764C99.793 18.9207 99.3478 36.769 99.1252 38.4688C99.0847 38.833 95.4624 42.2327 95.2399 42.2732C94.5518 42.3541 79.2331 41.5042 78.4034 41.6661C77.594 41.8077 71.2196 42.6172 70.8351 42.6172C37.3647 42.6172 3.87394 43.4064 -29.5763 42.2934C-29.9001 42.2934 -32.5915 39.5008 -32.7736 39.1163C-33.0974 38.489 -32.551 26.0438 -32.5915 25.1534C-32.6117 24.5464 -33.5831 19.8921 -33.6235 17.2411C-33.6235 17.0388 -32.7534 15.1366 -32.7534 14.9545C-32.7534 14.4081 -33.2593 9.49071 -33.0974 9.22764H-33.1379Z" fill="url(#paint24_radial_79509_1373)"/>
<path style="mix-blend-mode:screen" opacity="0.75" fill-rule="evenodd" clip-rule="evenodd" d="M-31.8825 9.73349C-31.9837 9.91562 -31.0326 14.3271 -31.0326 15.0353C-31.0326 15.2984 -32.3682 17.0792 -32.3682 17.3827C-32.3682 18.0303 -30.8505 23.838 -30.7493 25.032C-30.6481 26.2259 -31.8016 38.0438 -31.5992 38.5699C-31.5182 38.7925 -29.3125 40.978 -29.2113 40.978C4.1175 42.1922 37.4666 41.322 70.7954 41.3018C72.5762 41.3018 77.0483 39.3389 78.8898 38.8735C79.8814 38.6104 93.5003 40.8566 94.6335 40.5126C95.787 40.1483 97.8106 38.1854 97.851 38.0235C98.8021 34.4215 98.1546 14.8937 97.507 9.69302C97.507 9.5716 95.3215 7.44681 95.2608 7.44681C73.7903 7.1028 51.9961 6.57666 30.5661 6.57666C29.7566 6.57666 22.4109 9.42995 21.5812 9.36924C17.9995 9.0657 -0.880816 7.3254 -12.1928 7.20398C-18.0208 7.14327 -23.869 7.1028 -29.6768 7.42658C-29.8184 7.42658 -31.8218 9.5716 -31.9027 9.73349H-31.8825Z" fill="url(#paint25_radial_79509_1373)"/>
<path style="mix-blend-mode:screen" fill-rule="evenodd" clip-rule="evenodd" d="M95.5235 5.44353C95.8473 5.18046 97.284 2.24623 97.5876 1.72009C97.365 2.46883 96.3937 5.38283 96.3937 5.9292C96.3937 6.37439 97.3245 7.48738 97.6483 7.91234C97.2031 7.56832 96.2722 6.63746 95.7663 6.53628C94.4307 6.29345 68.6702 6.17203 64.6837 5.80778C64.3802 5.78755 65.2705 5.80778 65.2705 5.80778C68.4274 5.7066 94.7748 5.86849 95.5437 5.46377L95.5235 5.44353Z" fill="url(#paint26_radial_79509_1373)"/>
</g>
<defs>
<radialGradient id="paint0_radial_79509_1373" cx="0" cy="0" r="1" gradientUnits="userSpaceOnUse" gradientTransform="translate(9.06437 5.98972) scale(31.5265 31.5265)">
<stop stop-color="#75859D"/>
<stop offset="1" stop-color="#495573"/>
</radialGradient>
<radialGradient id="paint1_radial_79509_1373" cx="0" cy="0" r="1" gradientUnits="userSpaceOnUse" gradientTransform="translate(56.5384 -20.1753) scale(257.808 257.808)">
<stop stop-color="#607492"/>
<stop offset="1" stop-color="#3B4762"/>
</radialGradient>
<radialGradient id="paint2_radial_79509_1373" cx="0" cy="0" r="1" gradientUnits="userSpaceOnUse" gradientTransform="translate(77.1384 28.4318) scale(346.199 346.199)">
<stop stop-color="#1A2432"/>
<stop offset="1" stop-color="#181A21"/>
</radialGradient>
<radialGradient id="paint3_radial_79509_1373" cx="0" cy="0" r="1" gradientUnits="userSpaceOnUse" gradientTransform="translate(9.54944 36.6275) scale(36.9496 36.9496)">
<stop stop-color="#1A232F"/>
<stop offset="1" stop-color="#1B1D24"/>
</radialGradient>
<radialGradient id="paint4_radial_79509_1373" cx="0" cy="0" r="1" gradientUnits="userSpaceOnUse" gradientTransform="translate(0.544909 8.13497) scale(109.093 109.093)">
<stop stop-color="#2C3A50"/>
<stop offset="1" stop-color="#192232"/>
</radialGradient>
<radialGradient id="paint5_radial_79509_1373" cx="0" cy="0" r="1" gradientUnits="userSpaceOnUse" gradientTransform="translate(1.29359 26.8529) scale(28.5519 28.5519)">
<stop stop-color="#556784"/>
<stop offset="1" stop-color="#26324A"/>
</radialGradient>
<radialGradient id="paint6_radial_79509_1373" cx="0" cy="0" r="1" gradientUnits="userSpaceOnUse" gradientTransform="translate(3.60041 13.3559) scale(28.4305)">
<stop stop-color="#1A2432"/>
<stop offset="1" stop-color="#181A21"/>
</radialGradient>
<radialGradient id="paint7_radial_79509_1373" cx="0" cy="0" r="1" gradientUnits="userSpaceOnUse" gradientTransform="translate(70.1769 -24.2832) scale(141.956 141.956)">
<stop offset="0.07" stop-color="#4A5B76"/>
<stop offset="1" stop-color="#263348"/>
</radialGradient>
<radialGradient id="paint8_radial_79509_1373" cx="0" cy="0" r="1" gradientUnits="userSpaceOnUse" gradientTransform="translate(71.4929 -83.7571) scale(263.676 263.676)">
<stop stop-color="#1C2129"/>
<stop offset="1"/>
</radialGradient>
<radialGradient id="paint9_radial_79509_1373" cx="0" cy="0" r="1" gradientUnits="userSpaceOnUse" gradientTransform="translate(8.19392 5.84824) scale(39.5616 39.5616)">
<stop stop-color="#1D2536"/>
<stop offset="0.07" stop-color="#19202F"/>
<stop offset="0.43" stop-color="#0B0E15"/>
<stop offset="0.75" stop-color="#020305"/>
<stop offset="1"/>
</radialGradient>
<radialGradient id="paint10_radial_79509_1373" cx="0" cy="0" r="1" gradientUnits="userSpaceOnUse" gradientTransform="translate(5.66455 25.1128) scale(14.9336)">
<stop stop-color="#1D2536"/>
<stop offset="0.07" stop-color="#19202F"/>
<stop offset="0.43" stop-color="#0B0E15"/>
<stop offset="0.75" stop-color="#020305"/>
<stop offset="1"/>
</radialGradient>
<radialGradient id="paint11_radial_79509_1373" cx="0" cy="0" r="1" gradientUnits="userSpaceOnUse" gradientTransform="translate(42.067 -20.1754) scale(174.047 257.808)">
<stop stop-color="#607492"/>
<stop offset="1" stop-color="#3B4762"/>
</radialGradient>
<radialGradient id="paint12_radial_79509_1373" cx="0" cy="0" r="1" gradientUnits="userSpaceOnUse" gradientTransform="translate(39.4033 -5.40316) scale(35.671 52.8376)">
<stop stop-color="#556784"/>
<stop offset="1" stop-color="#26324A"/>
</radialGradient>
<radialGradient id="paint13_radial_79509_1373" cx="0" cy="0" r="1" gradientUnits="userSpaceOnUse" gradientTransform="translate(55.9746 28.4316) scale(233.721 346.199)">
<stop stop-color="#1A2432"/>
<stop offset="1" stop-color="#181A21"/>
</radialGradient>
<radialGradient id="paint14_radial_79509_1373" cx="0" cy="0" r="1" gradientUnits="userSpaceOnUse" gradientTransform="translate(83.0937 43.6291) scale(40.398 59.8395)">
<stop stop-color="#1D2738"/>
<stop offset="1" stop-color="#131924"/>
</radialGradient>
<radialGradient id="paint15_radial_79509_1373" cx="0" cy="0" r="1" gradientUnits="userSpaceOnUse" gradientTransform="translate(51.2751 -24.2832) scale(95.8354 141.956)">
<stop offset="0.07" stop-color="#4A5B76"/>
<stop offset="1" stop-color="#263348"/>
</radialGradient>
<radialGradient id="paint16_radial_79509_1373" cx="0" cy="0" r="1" gradientUnits="userSpaceOnUse" gradientTransform="translate(52.1642 -83.7571) scale(178.009 263.676)">
<stop stop-color="#1C2129"/>
<stop offset="1"/>
</radialGradient>
<radialGradient id="paint17_radial_79509_1373" cx="0" cy="0" r="1" gradientUnits="userSpaceOnUse" gradientTransform="translate(9.42942 5.84828) scale(26.7084 39.5619)">
<stop stop-color="#1D2536"/>
<stop offset="0.07" stop-color="#19202F"/>
<stop offset="0.43" stop-color="#0B0E15"/>
<stop offset="0.75" stop-color="#020305"/>
<stop offset="1"/>
</radialGradient>
<radialGradient id="paint18_radial_79509_1373" cx="0" cy="0" r="1" gradientUnits="userSpaceOnUse" gradientTransform="translate(94.7601 6.01018) scale(26.203 38.8131)">
<stop stop-color="#1D2536"/>
<stop offset="0.07" stop-color="#19202F"/>
<stop offset="0.43" stop-color="#0B0E15"/>
<stop offset="0.75" stop-color="#020305"/>
<stop offset="1"/>
</radialGradient>
<radialGradient id="paint19_radial_79509_1373" cx="0" cy="0" r="1" gradientUnits="userSpaceOnUse" gradientTransform="translate(18.0398 -20.1754) scale(257.808 257.808)">
<stop stop-color="#607492"/>
<stop offset="1" stop-color="#3B4762"/>
</radialGradient>
<radialGradient id="paint20_radial_79509_1373" cx="0" cy="0" r="1" gradientUnits="userSpaceOnUse" gradientTransform="translate(74.8412 9.73374) scale(51.3397 51.3397)">
<stop stop-color="#75859D"/>
<stop offset="1" stop-color="#495573"/>
</radialGradient>
<radialGradient id="paint21_radial_79509_1373" cx="0" cy="0" r="1" gradientUnits="userSpaceOnUse" gradientTransform="translate(84.6155 19.7301) scale(84.9715 84.9713)">
<stop stop-color="#2C3A50"/>
<stop offset="1" stop-color="#192232"/>
</radialGradient>
<radialGradient id="paint22_radial_79509_1373" cx="0" cy="0" r="1" gradientUnits="userSpaceOnUse" gradientTransform="translate(89.9583 36.688) scale(32.6615 32.6615)">
<stop stop-color="#1A232F"/>
<stop offset="1" stop-color="#1B1D24"/>
</radialGradient>
<radialGradient id="paint23_radial_79509_1373" cx="0" cy="0" r="1" gradientUnits="userSpaceOnUse" gradientTransform="translate(38.6399 28.4316) scale(346.199 346.199)">
<stop stop-color="#1A2432"/>
<stop offset="1" stop-color="#181A21"/>
</radialGradient>
<radialGradient id="paint24_radial_79509_1373" cx="0" cy="0" r="1" gradientUnits="userSpaceOnUse" gradientTransform="translate(31.6783 -24.2833) scale(141.956 141.956)">
<stop offset="0.07" stop-color="#4A5B76"/>
<stop offset="1" stop-color="#263348"/>
</radialGradient>
<radialGradient id="paint25_radial_79509_1373" cx="0" cy="0" r="1" gradientUnits="userSpaceOnUse" gradientTransform="translate(32.9944 -83.7573) scale(263.676 263.676)">
<stop stop-color="#1C2129"/>
<stop offset="1"/>
</radialGradient>
<radialGradient id="paint26_radial_79509_1373" cx="0" cy="0" r="1" gradientUnits="userSpaceOnUse" gradientTransform="translate(96.0901 6.01014) scale(38.8128 38.8128)">
<stop stop-color="#1D2536"/>
<stop offset="0.07" stop-color="#19202F"/>
<stop offset="0.43" stop-color="#0B0E15"/>
<stop offset="0.75" stop-color="#020305"/>
<stop offset="1"/>
</radialGradient>
<clipPath id="clip0_79509_1373">
<rect width="12" height="48" fill="white"/>
</clipPath>
<clipPath id="clip1_79509_1373">
<rect width="80" height="48" fill="white" transform="translate(12)"/>
</clipPath>
<clipPath id="clip2_79509_1373">
<rect width="12" height="48" fill="white" transform="translate(92)"/>
</clipPath>
</defs>
</svg>
