<svg width="121" height="64" viewBox="0 0 121 64" fill="none" xmlns="http://www.w3.org/2000/svg">
<g filter="url(#filter0_iiiii_209_36160)">
<g clip-path="url(#clip0_209_36160)">
<path fill-rule="evenodd" clip-rule="evenodd" d="M0.186433 9.49747C0.213414 9.17369 7.01274 1.32209 8.33483 1.26813C20.2876 0.647555 72.6316 0.269815 79.1611 0C82.237 0.890388 85.9335 1.43002 89.4681 1.457C120.146 1.72681 173.596 1.13322 181.853 1.26813C182.473 1.26813 190.001 8.74199 190.001 9.49747C190.001 24.6071 189.758 45.3019 189.515 54.8263C189.515 55.7707 181.88 63.1906 181.502 63.1906C180.396 63.1906 156.436 64 153.522 64C153.306 64 149.718 62.9747 147.802 62.9747C101.718 62.9477 55.1207 63.2985 9.03635 63.2985C8.36181 63.2985 0.672099 56.2563 0.591155 54.8533C0.240396 50.3744 0.0785069 41.3086 -0.00243749 32.4317C0.402284 29.6256 1.21173 22.4216 1.18475 22.1518C1.15776 21.4233 0.375303 19.6425 -0.0294189 17.8887C-0.00243749 13.4637 0.0515254 10.2799 0.159451 9.52445H0.186433V9.49747Z" fill="#1F2B3A"/>
<path fill-rule="evenodd" clip-rule="evenodd" d="M7.14843 12.3031C7.41823 11.8984 10.8447 8.20208 11.2225 8.1751L8.30858 1.24115C7.01353 1.32209 0.21448 9.14639 0.1875 9.49713L7.14843 12.3031Z" fill="url(#paint0_radial_209_36160)"/>
<path fill-rule="evenodd" clip-rule="evenodd" d="M11.2226 8.17538C34.2647 7.15009 59.3575 8.60709 80.403 9.01181L79.1619 -0.0269775C72.6324 0.269818 20.2884 0.647559 8.30859 1.24115L11.1956 8.17538H11.2226ZM89.4688 1.457L91.9781 7.55481C120.983 7.31198 166.393 8.20237 178.966 8.20237L181.853 1.26813C173.597 1.13322 120.174 1.72682 89.4688 1.457Z" fill="url(#paint1_radial_209_36160)"/>
<path fill-rule="evenodd" clip-rule="evenodd" d="M181.502 63.1905L178.318 56.3372C177.401 56.4451 156.976 55.3119 155.87 55.5278L153.522 64C156.436 64 180.396 63.1905 181.502 63.1905ZM147.775 62.9477L145.752 56.7689C101.124 56.7689 56.4701 57.8212 11.8698 56.3372L9.00977 63.2715C55.0941 63.2715 101.691 62.9207 147.775 62.9477Z" fill="url(#paint2_radial_209_36160)"/>
<path fill-rule="evenodd" clip-rule="evenodd" d="M9.00912 63.271L11.869 56.3371C11.4373 56.3371 7.84896 52.6138 7.60614 52.1012L0.56427 54.7992C0.672191 56.2022 8.33461 63.244 9.00912 63.244V63.271Z" fill="url(#paint3_radial_209_36160)"/>
<path fill-rule="evenodd" clip-rule="evenodd" d="M0.564657 54.8263L7.60682 52.1281C7.17511 51.2917 7.90361 34.6981 7.84965 33.5109L-0.00195312 32.4317C0.0520098 41.3086 0.24088 50.3743 0.537676 54.8263H0.564657ZM-0.00195312 17.8617L7.60682 19.9393C7.60682 19.2108 6.93228 12.6543 7.14813 12.3035L0.186917 9.49744C0.105973 10.2529 0.0520098 13.4367 -0.00195312 17.8617Z" fill="url(#paint4_radial_209_36160)"/>
<path fill-rule="evenodd" clip-rule="evenodd" d="M-0.00195312 32.4312L7.79536 33.5374C7.76838 32.728 6.47333 26.5225 6.41937 22.9881L1.18518 22.1517C1.18518 22.4485 0.402752 29.6523 -0.00195312 32.4312Z" fill="url(#paint5_radial_209_36160)"/>
<path fill-rule="evenodd" clip-rule="evenodd" d="M1.21216 22.1246L6.44635 22.961C6.44635 22.6912 7.6065 20.155 7.6065 19.9122L-0.00195312 17.8347C0.402752 19.5884 1.18518 21.3691 1.21216 22.0976V22.1246Z" fill="url(#paint6_radial_209_36160)"/>
<path fill-rule="evenodd" clip-rule="evenodd" d="M7.14743 12.3035C7.41725 11.8988 10.8439 8.20234 11.2216 8.17536C34.2638 7.15006 59.3565 8.60706 80.4021 9.01178C81.7781 9.01178 88.0918 7.55478 91.9771 7.5278C120.982 7.28497 166.392 8.17536 178.965 8.17536C179.154 8.17536 182.986 11.8988 183.039 12.3035C184.389 25.2276 183.795 49.0253 183.498 51.2917C183.444 51.7774 178.615 56.3103 178.318 56.3642C177.4 56.4722 156.975 55.3389 155.869 55.5548C154.79 55.7437 146.291 56.8229 145.778 56.8229C101.151 56.8229 56.4965 57.8752 11.8962 56.3912C11.4645 56.3912 7.87593 52.6678 7.6331 52.1551C7.2014 51.3187 7.92989 34.7251 7.87593 33.5379C7.84895 32.7285 6.55384 26.5227 6.49988 22.9882C6.49988 22.7184 7.66008 20.1821 7.66008 19.9393C7.66008 19.2108 6.98554 12.6543 7.2014 12.3035H7.14743Z" fill="url(#paint7_radial_209_36160)"/>
<path style="mix-blend-mode:screen" opacity="0.75" fill-rule="evenodd" clip-rule="evenodd" d="M8.82138 12.978C8.68648 13.2209 9.9546 19.1028 9.9546 20.0472C9.9546 20.3979 8.17383 22.7723 8.17383 23.177C8.17383 24.0404 10.1974 31.7841 10.3323 33.376C10.4673 34.9679 8.92931 50.7251 9.19912 51.4266C9.30705 51.7234 12.248 54.6374 12.3829 54.6374C56.8214 56.2563 101.287 55.0961 145.725 55.0691C148.1 55.0691 154.063 52.4519 156.518 51.8313C157.84 51.4806 175.998 54.4755 177.509 54.0168C179.047 53.5312 181.745 50.914 181.799 50.6981C183.068 45.8954 182.204 19.8583 181.341 12.9241C181.341 12.7622 178.427 9.92912 178.346 9.92912C149.719 9.47044 120.659 8.76892 92.0861 8.76892C91.0069 8.76892 81.2126 12.5733 80.1064 12.4924C75.3307 12.0876 50.157 9.76723 35.0743 9.60535C27.3037 9.5244 19.506 9.47044 11.7624 9.90214C11.5735 9.90214 8.90233 12.7622 8.7944 12.978H8.82138Z" fill="url(#paint8_radial_209_36160)"/>
<g style="mix-blend-mode:screen">
<path fill-rule="evenodd" clip-rule="evenodd" d="M10.3855 8.12141C10.3855 7.60877 9.711 5.58516 9.52212 4.9376C9.25231 4.02023 8.9825 3.12985 8.71268 2.23946C8.63174 1.99663 8.76664 2.3204 8.82061 2.37437C9.25231 3.18381 11.0331 6.96121 11.6267 7.23103C12.0044 7.39292 12.544 7.4199 13.1646 7.4199C29.4075 7.20404 45.6773 7.52782 61.8931 8.52614C45.5154 8.01349 29.1916 8.04047 12.8139 8.44519C12.0584 8.44519 11.6537 8.55312 11.3569 8.63406C10.8442 8.76897 9.87288 9.47049 9.36024 9.84823C9.68401 9.38954 10.3046 8.63406 10.3855 8.09443V8.12141Z" fill="url(#paint9_linear_209_36160)"/>
</g>
<g style="mix-blend-mode:screen">
<path fill-rule="evenodd" clip-rule="evenodd" d="M7.47179 47.5943C7.41783 46.1104 7.36386 34.4279 7.22896 34.1042C6.98614 33.5646 3.55964 32.971 2.91211 32.8361C3.39776 32.8361 6.87822 32.971 7.09406 32.8361C7.39085 32.6202 6.68936 26.4417 6.6354 25.5784C7.0401 28.0336 7.52575 30.4888 8.09233 32.917C8.33516 33.9693 8.20026 34.6977 8.11931 35.723C7.84951 39.6351 7.66065 43.5743 7.47179 47.5134V47.5943Z" fill="url(#paint10_linear_209_36160)"/>
</g>
</g>
<g clip-path="url(#clip1_209_36160)">
<path fill-rule="evenodd" clip-rule="evenodd" d="M7.0918 9.49772C7.107 9.17394 10.937 1.32234 11.6817 1.26837C18.4146 0.647799 47.8995 0.270059 51.5776 0.000244141C53.3102 0.890632 55.3924 1.43026 57.3833 1.45724C74.6639 1.72706 104.772 1.13347 109.423 1.26837C109.772 1.26837 114.013 8.74223 114.013 9.49772C114.013 24.6073 113.876 45.3021 113.739 54.8266C113.739 55.7709 109.438 63.1908 109.225 63.1908C108.602 63.1908 95.1058 64.0002 93.4644 64.0002C93.3428 64.0002 91.3214 62.975 90.2423 62.975C64.2834 62.948 38.0358 63.2987 12.0769 63.2987C11.6969 63.2987 7.36537 56.2566 7.31978 54.8535C7.1222 50.3746 7.03101 41.3088 6.98541 32.432C7.21339 29.6259 7.66934 22.4218 7.65414 22.152C7.63894 21.4235 7.19819 19.6427 6.97021 17.8889C6.98541 13.464 7.01581 10.2802 7.0766 9.5247H7.0918V9.49772Z" fill="#1F2B3A"/>
<path fill-rule="evenodd" clip-rule="evenodd" d="M13.3076 8.17538C26.2871 7.15009 40.4216 8.60709 52.2764 9.01181L51.5772 -0.0269775C47.8992 0.269818 18.4143 0.647559 11.6662 1.24115L13.2924 8.17538H13.3076ZM57.383 1.457L58.7965 7.55481C75.1348 7.31198 100.714 8.20237 107.796 8.20237L109.422 1.26813C104.772 1.13322 74.6788 1.72682 57.383 1.457Z" fill="url(#paint11_radial_209_36160)"/>
<path fill-rule="evenodd" clip-rule="evenodd" d="M51.5777 0L52.2768 9.03899C53.052 9.03899 56.6085 7.58196 58.7971 7.55498L57.3836 1.45703C55.3926 1.43005 53.2952 0.917391 51.5777 0Z" fill="url(#paint12_radial_209_36160)"/>
<path fill-rule="evenodd" clip-rule="evenodd" d="M109.225 63.1905L107.432 56.3372C106.915 56.4451 95.4097 55.3119 94.7866 55.5278L93.4643 64C95.1058 64 108.602 63.1905 109.225 63.1905ZM90.2271 62.9477L89.0872 56.7689C63.949 56.7689 38.7957 57.8212 13.6727 56.3372L12.0616 63.2715C38.0205 63.2715 64.2682 62.9207 90.2271 62.9477Z" fill="url(#paint13_radial_209_36160)"/>
<path fill-rule="evenodd" clip-rule="evenodd" d="M93.4654 64.0002L94.7877 55.5278C94.1797 55.7167 89.3921 56.796 89.1033 56.796L90.2432 62.9749C91.3376 62.9749 93.359 64.0002 93.4654 64.0002Z" fill="url(#paint14_radial_209_36160)"/>
<path fill-rule="evenodd" clip-rule="evenodd" d="M11.0133 12.3036C11.1652 11.8989 13.0954 8.20246 13.3082 8.17548C26.2877 7.15018 40.4222 8.60718 52.2769 9.0119C53.0521 9.0119 56.6085 7.5549 58.7971 7.52792C75.1354 7.28509 100.714 8.17548 107.797 8.17548C107.903 8.17548 110.061 11.8989 110.092 12.3036C110.852 25.2278 110.517 49.0254 110.35 51.2918C110.32 51.7775 107.599 56.3104 107.432 56.3644C106.915 56.4723 95.41 55.3391 94.7869 55.5549C94.179 55.7438 89.3915 56.823 89.1027 56.823C63.9645 56.823 38.8112 57.8753 13.6882 56.3913C13.445 56.3913 11.4236 52.6679 11.2868 52.1552C11.0437 51.3188 11.454 34.7252 11.4236 33.538C11.4084 32.7286 10.6789 26.5229 10.6485 22.9883C10.6485 22.7185 11.302 20.1822 11.302 19.9394C11.302 19.2109 10.9221 12.6544 11.0437 12.3036H11.0133Z" fill="url(#paint15_radial_209_36160)"/>
<path style="mix-blend-mode:screen" opacity="0.75" fill-rule="evenodd" clip-rule="evenodd" d="M11.9567 12.9781C11.8807 13.221 12.595 19.1029 12.595 20.0473C12.595 20.398 11.5919 22.7724 11.5919 23.1771C11.5919 24.0405 12.7318 31.7842 12.8078 33.3761C12.8838 34.968 12.0175 50.7252 12.1695 51.4267C12.2303 51.7235 13.8869 54.6375 13.9629 54.6375C38.9947 56.2564 64.0416 55.0962 89.0734 55.0692C90.4109 55.0692 93.7697 52.452 95.1528 51.8314C95.8975 51.4807 106.126 54.4756 106.977 54.0169C107.843 53.5313 109.363 50.9141 109.394 50.6982C110.108 45.8955 109.622 19.8584 109.135 12.9242C109.135 12.7623 107.494 9.92925 107.448 9.92925C91.3228 9.47056 74.9541 8.76904 58.859 8.76904C58.2511 8.76904 52.734 12.5734 52.1109 12.4925C49.4208 12.0878 35.2407 9.76736 26.7447 9.60547C22.3676 9.52452 17.9753 9.47056 13.6133 9.90226C13.5069 9.90226 12.0023 12.7623 11.9415 12.9781H11.9567Z" fill="url(#paint16_radial_209_36160)"/>
<g style="mix-blend-mode:screen">
<path fill-rule="evenodd" clip-rule="evenodd" d="M12.8364 8.12153C12.8364 7.60887 12.4564 5.58525 12.35 4.93769C12.198 4.02031 12.046 3.12992 11.894 2.23952C11.8484 1.99668 11.9244 2.32047 11.9548 2.37443C12.198 3.18388 13.2011 6.96131 13.5355 7.23113C13.7483 7.39302 14.0522 7.42 14.4018 7.42C23.5513 7.20415 32.716 7.52793 41.8504 8.52625C32.6248 8.0136 23.4297 8.04058 14.2042 8.44531C13.7787 8.44531 13.5507 8.55323 13.3835 8.63418C13.0947 8.76909 12.5476 9.47061 12.2588 9.84835C12.4412 9.38967 12.7908 8.63418 12.8364 8.09454V8.12153Z" fill="url(#paint17_linear_209_36160)"/>
</g>
<g style="mix-blend-mode:screen">
<path fill-rule="evenodd" clip-rule="evenodd" d="M107.645 7.25809C107.888 6.90732 108.967 2.99498 109.195 2.29346C109.028 3.29178 108.299 7.17714 108.299 7.90565C108.299 8.49924 108.998 9.98324 109.241 10.5499C108.907 10.0912 108.207 8.85001 107.828 8.7151C106.824 8.39132 87.4767 8.22943 84.4826 7.74376C84.2546 7.71677 84.9233 7.74376 84.9233 7.74376C87.2943 7.60885 107.083 7.8247 107.66 7.28507L107.645 7.25809Z" fill="url(#paint18_linear_209_36160)"/>
</g>
</g>
<g clip-path="url(#clip2_209_36160)">
<path fill-rule="evenodd" clip-rule="evenodd" d="M-68.8115 9.49772C-68.7845 9.17394 -61.9852 1.32234 -60.6631 1.26837C-48.7103 0.647799 3.63371 0.270059 10.1632 0.000244141C13.2391 0.890632 16.9356 1.43026 20.4701 1.45724C51.148 1.72706 104.598 1.13347 112.855 1.26837C113.475 1.26837 121.003 8.74223 121.003 9.49772C121.003 24.6073 120.76 45.3021 120.517 54.8266C120.517 55.7709 112.882 63.1908 112.504 63.1908C111.398 63.1908 87.4381 64.0002 84.5241 64.0002C84.3082 64.0002 80.7197 62.975 78.804 62.975C32.7197 62.948 -13.8773 63.2987 -59.9616 63.2987C-60.6361 63.2987 -68.3258 56.2566 -68.4068 54.8535C-68.7575 50.3746 -68.9194 41.3088 -69.0004 32.432C-68.5956 29.6259 -67.7862 22.4218 -67.8132 22.152C-67.8402 21.4235 -68.6226 19.6427 -69.0273 17.8889C-69.0004 13.464 -68.9464 10.2802 -68.8385 9.5247H-68.8115V9.49772Z" fill="#1F2B3A"/>
<path fill-rule="evenodd" clip-rule="evenodd" d="M-57.7755 8.17538C-34.7333 7.15009 -9.64055 8.60709 11.405 9.01181L10.1638 -0.0269775C3.63432 0.269818 -48.7097 0.647559 -60.6895 1.24115L-57.8024 8.17538H-57.7755ZM20.4707 1.457L22.98 7.55481C51.9851 7.31198 97.3949 8.20237 109.968 8.20237L112.855 1.26813C104.599 1.13322 51.1756 1.72682 20.4707 1.457Z" fill="url(#paint19_radial_209_36160)"/>
<path fill-rule="evenodd" clip-rule="evenodd" d="M112.854 1.24121L109.967 8.17555C110.156 8.17555 113.987 11.899 114.041 12.3038L121.002 9.49766C121.002 8.74216 113.474 1.26819 112.854 1.26819V1.24121Z" fill="url(#paint20_radial_209_36160)"/>
<path fill-rule="evenodd" clip-rule="evenodd" d="M121.002 9.49744L114.041 12.3035C115.39 25.2276 114.797 49.0253 114.5 51.2917L120.544 54.8263C120.786 45.3018 121.029 24.607 121.029 9.49744H121.002Z" fill="url(#paint21_radial_209_36160)"/>
<path fill-rule="evenodd" clip-rule="evenodd" d="M120.518 54.8264L114.474 51.2917C114.42 51.7774 109.59 56.3104 109.293 56.3643L112.477 63.2177C112.882 63.2177 120.464 55.7977 120.491 54.8534L120.518 54.8264Z" fill="url(#paint22_radial_209_36160)"/>
<path fill-rule="evenodd" clip-rule="evenodd" d="M112.504 63.1905L109.32 56.3372C108.403 56.4451 87.978 55.3119 86.8717 55.5278L84.5244 64C87.4383 64 111.398 63.1905 112.504 63.1905ZM78.7773 62.9477L76.7537 56.7689C32.1264 56.7689 -12.5279 57.8212 -57.1282 56.3372L-59.9883 63.2715C-13.904 63.2715 32.693 62.9207 78.7773 62.9477Z" fill="url(#paint23_radial_209_36160)"/>
<path fill-rule="evenodd" clip-rule="evenodd" d="M-61.8502 12.3035C-61.5804 11.8988 -58.1538 8.20237 -57.776 8.17539C-34.7339 7.15009 -9.64114 8.60709 11.4044 9.01181C12.7804 9.01181 19.0941 7.55481 22.9794 7.52783C51.9845 7.285 97.3943 8.17539 109.968 8.17539C110.157 8.17539 113.988 11.8988 114.042 12.3035C115.391 25.2277 114.797 49.0253 114.501 51.2917C114.447 51.7774 109.617 56.3103 109.32 56.3643C108.403 56.4722 87.9778 55.339 86.8715 55.5548C85.7923 55.7437 77.2931 56.8229 76.7804 56.8229C32.1531 56.8229 -12.5012 57.8752 -57.1015 56.3912C-57.5332 56.3912 -61.1217 52.6678 -61.3646 52.1552C-61.7963 51.3187 -61.0678 34.7251 -61.1217 33.538C-61.1487 32.7285 -62.4438 26.5228 -62.4978 22.9882C-62.4978 22.7184 -61.3376 20.1821 -61.3376 19.9393C-61.3376 19.2108 -62.0121 12.6543 -61.7963 12.3035H-61.8502Z" fill="url(#paint24_radial_209_36160)"/>
<path style="mix-blend-mode:screen" opacity="0.9" fill-rule="evenodd" clip-rule="evenodd" d="M-60.1767 12.978C-60.3116 13.2209 -59.0434 19.1028 -59.0434 20.0472C-59.0434 20.3979 -60.8242 22.7723 -60.8242 23.177C-60.8242 24.0404 -58.8006 31.7841 -58.6657 33.376C-58.5308 34.9679 -60.0687 50.7251 -59.7989 51.4266C-59.691 51.7234 -56.75 54.6374 -56.6151 54.6374C-12.1767 56.2563 32.2888 55.0961 76.7272 55.0691C79.1016 55.0691 85.0645 52.4519 87.5198 51.8313C88.8419 51.4806 107 54.4755 108.511 54.0168C110.049 53.5312 112.747 50.914 112.801 50.6981C114.07 45.8954 113.206 19.8583 112.343 12.9241C112.343 12.7622 109.429 9.92912 109.348 9.92912C80.7205 9.47044 51.6614 8.76892 23.0881 8.76892C22.0088 8.76892 12.2146 12.5733 11.1083 12.4924C6.33261 12.0876 -18.8411 9.76723 -33.9237 9.60535C-41.6944 9.5244 -49.492 9.47044 -57.2357 9.90214C-57.4246 9.90214 -60.0957 12.7622 -60.2036 12.978H-60.1767Z" fill="url(#paint25_radial_209_36160)"/>
<g style="mix-blend-mode:screen">
<path fill-rule="evenodd" clip-rule="evenodd" d="M109.698 7.25801C110.129 6.90726 112.045 2.99494 112.45 2.29343C112.153 3.29174 110.858 7.17707 110.858 7.90557C110.858 8.49916 112.099 9.98314 112.531 10.5498C111.937 10.0911 110.696 8.84992 110.022 8.71501C108.241 8.39124 73.8934 8.22935 68.578 7.74368C68.1733 7.7167 69.3605 7.74368 69.3605 7.74368C73.5696 7.60877 108.699 7.82462 109.725 7.285L109.698 7.25801Z" fill="url(#paint26_linear_209_36160)"/>
</g>
</g>
</g>
<defs>
<filter id="filter0_iiiii_209_36160" x="0" y="-2" width="121" height="77" filterUnits="userSpaceOnUse" color-interpolation-filters="sRGB">
<feFlood flood-opacity="0" result="BackgroundImageFix"/>
<feBlend mode="normal" in="SourceGraphic" in2="BackgroundImageFix" result="shape"/>
<feColorMatrix in="SourceAlpha" type="matrix" values="0 0 0 0 0 0 0 0 0 0 0 0 0 0 0 0 0 0 127 0" result="hardAlpha"/>
<feOffset dy="4"/>
<feGaussianBlur stdDeviation="4.2"/>
<feComposite in2="hardAlpha" operator="arithmetic" k2="-1" k3="1"/>
<feColorMatrix type="matrix" values="0 0 0 0 0.211765 0 0 0 0 1 0 0 0 0 1 0 0 0 0.5 0"/>
<feBlend mode="normal" in2="shape" result="effect1_innerShadow_209_36160"/>
<feColorMatrix in="SourceAlpha" type="matrix" values="0 0 0 0 0 0 0 0 0 0 0 0 0 0 0 0 0 0 127 0" result="hardAlpha"/>
<feOffset dy="4"/>
<feGaussianBlur stdDeviation="2"/>
<feComposite in2="hardAlpha" operator="arithmetic" k2="-1" k3="1"/>
<feColorMatrix type="matrix" values="0 0 0 0 0.211765 0 0 0 0 1 0 0 0 0 1 0 0 0 1 0"/>
<feBlend mode="normal" in2="effect1_innerShadow_209_36160" result="effect2_innerShadow_209_36160"/>
<feColorMatrix in="SourceAlpha" type="matrix" values="0 0 0 0 0 0 0 0 0 0 0 0 0 0 0 0 0 0 127 0" result="hardAlpha"/>
<feOffset dy="11"/>
<feGaussianBlur stdDeviation="7"/>
<feComposite in2="hardAlpha" operator="arithmetic" k2="-1" k3="1"/>
<feColorMatrix type="matrix" values="0 0 0 0 0.211765 0 0 0 0 1 0 0 0 0 1 0 0 0 0.3 0"/>
<feBlend mode="normal" in2="effect2_innerShadow_209_36160" result="effect3_innerShadow_209_36160"/>
<feColorMatrix in="SourceAlpha" type="matrix" values="0 0 0 0 0 0 0 0 0 0 0 0 0 0 0 0 0 0 127 0" result="hardAlpha"/>
<feOffset dy="-2"/>
<feGaussianBlur stdDeviation="2.5"/>
<feComposite in2="hardAlpha" operator="arithmetic" k2="-1" k3="1"/>
<feColorMatrix type="matrix" values="0 0 0 0 0.211765 0 0 0 0 1 0 0 0 0 1 0 0 0 0.4 0"/>
<feBlend mode="normal" in2="effect3_innerShadow_209_36160" result="effect4_innerShadow_209_36160"/>
<feColorMatrix in="SourceAlpha" type="matrix" values="0 0 0 0 0 0 0 0 0 0 0 0 0 0 0 0 0 0 127 0" result="hardAlpha"/>
<feOffset dy="4"/>
<feGaussianBlur stdDeviation="40.95"/>
<feComposite in2="hardAlpha" operator="arithmetic" k2="-1" k3="1"/>
<feColorMatrix type="matrix" values="0 0 0 0 0.211765 0 0 0 0 1 0 0 0 0 1 0 0 0 0.2 0"/>
<feBlend mode="normal" in2="effect4_innerShadow_209_36160" result="effect5_innerShadow_209_36160"/>
</filter>
<radialGradient id="paint0_radial_209_36160" cx="0" cy="0" r="1" gradientUnits="userSpaceOnUse" gradientTransform="translate(12.0858 7.98623) scale(42.0354)">
<stop stop-color="#75859D"/>
<stop offset="1" stop-color="#495573"/>
</radialGradient>
<radialGradient id="paint1_radial_209_36160" cx="0" cy="0" r="1" gradientUnits="userSpaceOnUse" gradientTransform="translate(75.3845 -26.9005) scale(343.744 343.744)">
<stop stop-color="#607492"/>
<stop offset="1" stop-color="#3B4762"/>
</radialGradient>
<radialGradient id="paint2_radial_209_36160" cx="0" cy="0" r="1" gradientUnits="userSpaceOnUse" gradientTransform="translate(102.851 37.9089) scale(461.599 461.599)">
<stop stop-color="#1A2432"/>
<stop offset="1" stop-color="#181A21"/>
</radialGradient>
<radialGradient id="paint3_radial_209_36160" cx="0" cy="0" r="1" gradientUnits="userSpaceOnUse" gradientTransform="translate(12.7324 48.8365) scale(49.2661 49.2661)">
<stop stop-color="#1A232F"/>
<stop offset="1" stop-color="#1B1D24"/>
</radialGradient>
<radialGradient id="paint4_radial_209_36160" cx="0" cy="0" r="1" gradientUnits="userSpaceOnUse" gradientTransform="translate(0.726545 10.8465) scale(145.457 145.457)">
<stop stop-color="#2C3A50"/>
<stop offset="1" stop-color="#192232"/>
</radialGradient>
<radialGradient id="paint5_radial_209_36160" cx="0" cy="0" r="1" gradientUnits="userSpaceOnUse" gradientTransform="translate(1.72479 35.8038) scale(38.0693 38.0693)">
<stop stop-color="#556784"/>
<stop offset="1" stop-color="#26324A"/>
</radialGradient>
<radialGradient id="paint6_radial_209_36160" cx="0" cy="0" r="1" gradientUnits="userSpaceOnUse" gradientTransform="translate(4.80055 17.8077) scale(37.9074)">
<stop stop-color="#1A2432"/>
<stop offset="1" stop-color="#181A21"/>
</radialGradient>
<radialGradient id="paint7_radial_209_36160" cx="0" cy="0" r="1" gradientUnits="userSpaceOnUse" gradientTransform="translate(93.569 -32.3778) scale(189.275 189.275)">
<stop offset="0.07" stop-color="#4A5B76"/>
<stop offset="1" stop-color="#263348"/>
</radialGradient>
<radialGradient id="paint8_radial_209_36160" cx="0" cy="0" r="1" gradientUnits="userSpaceOnUse" gradientTransform="translate(95.3239 -111.676) scale(351.568 351.568)">
<stop stop-color="#1C2129"/>
<stop offset="1"/>
</radialGradient>
<linearGradient id="paint9_linear_209_36160" x1="8.65859" y1="5.99795" x2="43.2738" y2="37.2212" gradientUnits="userSpaceOnUse">
<stop stop-color="#90D2F6"/>
<stop offset="0.3123" stop-color="#009FAA"/>
<stop offset="0.7592" stop-color="#00CDBD"/>
<stop offset="1" stop-color="#C2E8FD"/>
</linearGradient>
<linearGradient id="paint10_linear_209_36160" x1="2.90923" y1="36.5827" x2="9.17819" y2="36.7804" gradientUnits="userSpaceOnUse">
<stop stop-color="#90D2F6"/>
<stop offset="0.3123" stop-color="#009FAA"/>
<stop offset="0.7592" stop-color="#00CDBD"/>
<stop offset="1" stop-color="#C2E8FD"/>
</linearGradient>
<radialGradient id="paint11_radial_209_36160" cx="0" cy="0" r="1" gradientUnits="userSpaceOnUse" gradientTransform="translate(49.4495 -26.9005) scale(193.628 343.744)">
<stop stop-color="#607492"/>
<stop offset="1" stop-color="#3B4762"/>
</radialGradient>
<radialGradient id="paint12_radial_209_36160" cx="0" cy="0" r="1" gradientUnits="userSpaceOnUse" gradientTransform="translate(46.4861 -7.20421) scale(39.684 70.4502)">
<stop stop-color="#556784"/>
<stop offset="1" stop-color="#26324A"/>
</radialGradient>
<radialGradient id="paint13_radial_209_36160" cx="0" cy="0" r="1" gradientUnits="userSpaceOnUse" gradientTransform="translate(64.9217 37.9089) scale(260.014 461.599)">
<stop stop-color="#1A2432"/>
<stop offset="1" stop-color="#181A21"/>
</radialGradient>
<radialGradient id="paint14_radial_209_36160" cx="0" cy="0" r="1" gradientUnits="userSpaceOnUse" gradientTransform="translate(95.0916 58.1721) scale(44.9428 79.786)">
<stop stop-color="#1D2738"/>
<stop offset="1" stop-color="#131924"/>
</radialGradient>
<radialGradient id="paint15_radial_209_36160" cx="0" cy="0" r="1" gradientUnits="userSpaceOnUse" gradientTransform="translate(59.6938 -32.3776) scale(106.617 189.275)">
<stop offset="0.07" stop-color="#4A5B76"/>
<stop offset="1" stop-color="#263348"/>
</radialGradient>
<radialGradient id="paint16_radial_209_36160" cx="0" cy="0" r="1" gradientUnits="userSpaceOnUse" gradientTransform="translate(60.6828 -111.676) scale(198.035 351.568)">
<stop stop-color="#1C2129"/>
<stop offset="1"/>
</radialGradient>
<linearGradient id="paint17_linear_209_36160" x1="11.8636" y1="5.99805" x2="39.9706" y2="20.2791" gradientUnits="userSpaceOnUse">
<stop stop-color="#90D2F6"/>
<stop offset="0.3123" stop-color="#009FAA"/>
<stop offset="0.7592" stop-color="#00CDBD"/>
<stop offset="1" stop-color="#C2E8FD"/>
</linearGradient>
<linearGradient id="paint18_linear_209_36160" x1="84.4217" y1="6.4203" x2="109.791" y2="16.3674" gradientUnits="userSpaceOnUse">
<stop stop-color="#90D2F6"/>
<stop offset="0.3123" stop-color="#009FAA"/>
<stop offset="0.7592" stop-color="#00CDBD"/>
<stop offset="1" stop-color="#C2E8FD"/>
</linearGradient>
<radialGradient id="paint19_radial_209_36160" cx="0" cy="0" r="1" gradientUnits="userSpaceOnUse" gradientTransform="translate(6.38643 -26.9005) scale(343.744 343.744)">
<stop stop-color="#607492"/>
<stop offset="1" stop-color="#3B4762"/>
</radialGradient>
<radialGradient id="paint20_radial_209_36160" cx="0" cy="0" r="1" gradientUnits="userSpaceOnUse" gradientTransform="translate(82.1216 12.9783) scale(68.4529 68.4529)">
<stop stop-color="#75859D"/>
<stop offset="1" stop-color="#495573"/>
</radialGradient>
<radialGradient id="paint21_radial_209_36160" cx="0" cy="0" r="1" gradientUnits="userSpaceOnUse" gradientTransform="translate(95.154 26.3069) scale(113.295 113.295)">
<stop stop-color="#2C3A50"/>
<stop offset="1" stop-color="#192232"/>
</radialGradient>
<radialGradient id="paint22_radial_209_36160" cx="0" cy="0" r="1" gradientUnits="userSpaceOnUse" gradientTransform="translate(102.278 48.9173) scale(43.5487 43.5487)">
<stop stop-color="#1A232F"/>
<stop offset="1" stop-color="#1B1D24"/>
</radialGradient>
<radialGradient id="paint23_radial_209_36160" cx="0" cy="0" r="1" gradientUnits="userSpaceOnUse" gradientTransform="translate(33.8532 37.9089) scale(461.599 461.599)">
<stop stop-color="#1A2432"/>
<stop offset="1" stop-color="#181A21"/>
</radialGradient>
<radialGradient id="paint24_radial_209_36160" cx="0" cy="0" r="1" gradientUnits="userSpaceOnUse" gradientTransform="translate(24.5713 -32.3777) scale(189.275 189.275)">
<stop offset="0.07" stop-color="#4A5B76"/>
<stop offset="1" stop-color="#263348"/>
</radialGradient>
<radialGradient id="paint25_radial_209_36160" cx="0" cy="0" r="1" gradientUnits="userSpaceOnUse" gradientTransform="translate(26.3259 -111.676) scale(351.568 351.568)">
<stop stop-color="#1C2129"/>
<stop offset="1"/>
</radialGradient>
<linearGradient id="paint26_linear_209_36160" x1="68.47" y1="6.42023" x2="103.471" y2="30.784" gradientUnits="userSpaceOnUse">
<stop stop-color="#90D2F6"/>
<stop offset="0.3123" stop-color="#009FAA"/>
<stop offset="0.7592" stop-color="#00CDBD"/>
<stop offset="1" stop-color="#C2E8FD"/>
</linearGradient>
<clipPath id="clip0_209_36160">
<rect width="16" height="64" fill="white"/>
</clipPath>
<clipPath id="clip1_209_36160">
<rect width="89" height="64" fill="white" transform="translate(16)"/>
</clipPath>
<clipPath id="clip2_209_36160">
<rect width="16" height="64" fill="white" transform="translate(105)"/>
</clipPath>
</defs>
</svg>
