<svg width="165" height="64" viewBox="0 0 165 64" fill="none" xmlns="http://www.w3.org/2000/svg">
<g clip-path="url(#clip0_79509_173)">
<path fill-rule="evenodd" clip-rule="evenodd" d="M0.186555 9.49747C0.213536 9.17369 7.01286 1.32209 8.33495 1.26813C20.2877 0.647555 72.6318 0.269815 79.1613 0C82.2372 0.890388 85.9336 1.43002 89.4682 1.457C120.146 1.72681 173.596 1.13322 181.853 1.26813C182.473 1.26813 190.001 8.74199 190.001 9.49747C190.001 24.6071 189.758 45.3019 189.515 54.8263C189.515 55.7707 181.88 63.1906 181.502 63.1906C180.396 63.1906 156.436 64 153.522 64C153.306 64 149.718 62.9747 147.802 62.9747C101.718 62.9477 55.1208 63.2985 9.03647 63.2985C8.36193 63.2985 0.672221 56.2563 0.591277 54.8533C0.240518 50.3744 0.0786289 41.3086 -0.00231542 32.4317C0.402406 29.6256 1.21185 22.4216 1.18487 22.1518C1.15789 21.4233 0.375425 19.6425 -0.0292969 17.8887C-0.00231542 13.4637 0.0516475 10.2799 0.159573 9.52445H0.186555V9.49747Z" fill="#1F2B3A"/>
<path fill-rule="evenodd" clip-rule="evenodd" d="M7.14843 12.303C7.41823 11.8983 10.8447 8.20202 11.2225 8.17503L8.30858 1.24109C7.01353 1.32203 0.21448 9.14633 0.1875 9.49707L7.14843 12.303Z" fill="url(#paint0_radial_79509_173)"/>
<path fill-rule="evenodd" clip-rule="evenodd" d="M11.2226 8.17538C34.2647 7.15009 59.3575 8.60709 80.403 9.01181L79.1619 -0.0269775C72.6324 0.269818 20.2884 0.647559 8.30859 1.24115L11.1956 8.17538H11.2226ZM89.4688 1.457L91.9781 7.55481C120.983 7.31198 166.393 8.20236 178.966 8.20236L181.853 1.26813C173.597 1.13322 120.174 1.72682 89.4688 1.457Z" fill="url(#paint1_radial_79509_173)"/>
<path fill-rule="evenodd" clip-rule="evenodd" d="M181.502 63.1905L178.318 56.3372C177.401 56.4451 156.976 55.3119 155.87 55.5278L153.522 64C156.436 64 180.396 63.1905 181.502 63.1905ZM147.775 62.9477L145.752 56.7689C101.124 56.7689 56.4701 57.8212 11.8698 56.3372L9.00977 63.2715C55.0941 63.2715 101.691 62.9207 147.775 62.9477Z" fill="url(#paint2_radial_79509_173)"/>
<path fill-rule="evenodd" clip-rule="evenodd" d="M9.0093 63.2711L11.8692 56.3371C11.4375 56.3371 7.84914 52.6138 7.60632 52.1012L0.564453 54.7992C0.672374 56.2022 8.33479 63.2441 9.0093 63.2441V63.2711Z" fill="url(#paint3_radial_79509_173)"/>
<path fill-rule="evenodd" clip-rule="evenodd" d="M0.564657 54.8263L7.60682 52.1281C7.17511 51.2917 7.90361 34.6981 7.84965 33.5109L-0.00195312 32.4317C0.0520098 41.3086 0.24088 50.3743 0.537676 54.8263H0.564657ZM-0.00195312 17.8617L7.60682 19.9393C7.60682 19.2108 6.93228 12.6543 7.14813 12.3035L0.186917 9.49744C0.105973 10.2529 0.0520098 13.4367 -0.00195312 17.8617Z" fill="url(#paint4_radial_79509_173)"/>
<path fill-rule="evenodd" clip-rule="evenodd" d="M-0.00195312 32.4312L7.79536 33.5374C7.76838 32.728 6.47333 26.5225 6.41937 22.9881L1.18518 22.1517C1.18518 22.4485 0.402752 29.6523 -0.00195312 32.4312Z" fill="url(#paint5_radial_79509_173)"/>
<path fill-rule="evenodd" clip-rule="evenodd" d="M1.21216 22.1246L6.44635 22.961C6.44635 22.6912 7.6065 20.155 7.6065 19.9122L-0.00195312 17.8347C0.402752 19.5884 1.18518 21.3691 1.21216 22.0976V22.1246Z" fill="url(#paint6_radial_79509_173)"/>
<path fill-rule="evenodd" clip-rule="evenodd" d="M7.14755 12.3035C7.41737 11.8988 10.844 8.20234 11.2218 8.17536C34.2639 7.15006 59.3567 8.60706 80.4022 9.01178C81.7783 9.01178 88.0919 7.55478 91.9772 7.5278C120.982 7.28497 166.392 8.17536 178.965 8.17536C179.154 8.17536 182.986 11.8988 183.04 12.3035C184.389 25.2276 183.795 49.0253 183.498 51.2917C183.444 51.7774 178.615 56.3103 178.318 56.3642C177.4 56.4722 156.976 55.3389 155.869 55.5548C154.79 55.7437 146.291 56.8229 145.778 56.8229C101.151 56.8229 56.4966 57.8752 11.8963 56.3912C11.4646 56.3912 7.87605 52.6678 7.63322 52.1551C7.20152 51.3187 7.93002 34.7251 7.87605 33.5379C7.84907 32.7285 6.55396 26.5227 6.5 22.9882C6.5 22.7184 7.6602 20.1821 7.6602 19.9393C7.6602 19.2108 6.98567 12.6543 7.20152 12.3035H7.14755Z" fill="url(#paint7_radial_79509_173)"/>
<path style="mix-blend-mode:screen" opacity="0.75" fill-rule="evenodd" clip-rule="evenodd" d="M8.82138 12.978C8.68648 13.2209 9.9546 19.1028 9.9546 20.0472C9.9546 20.3979 8.17383 22.7723 8.17383 23.177C8.17383 24.0404 10.1974 31.7841 10.3323 33.376C10.4673 34.9679 8.92931 50.7251 9.19912 51.4266C9.30705 51.7234 12.248 54.6374 12.3829 54.6374C56.8214 56.2563 101.287 55.0961 145.725 55.0691C148.1 55.0691 154.063 52.4519 156.518 51.8313C157.84 51.4806 175.998 54.4755 177.509 54.0168C179.047 53.5312 181.745 50.914 181.799 50.6981C183.068 45.8954 182.204 19.8583 181.341 12.9241C181.341 12.7622 178.427 9.92912 178.346 9.92912C149.719 9.47044 120.659 8.76892 92.0861 8.76892C91.0069 8.76892 81.2126 12.5733 80.1064 12.4924C75.3307 12.0876 50.157 9.76723 35.0743 9.60535C27.3037 9.5244 19.506 9.47044 11.7624 9.90214C11.5735 9.90214 8.90233 12.7622 8.7944 12.978H8.82138Z" fill="url(#paint8_radial_79509_173)"/>
<path style="mix-blend-mode:screen" fill-rule="evenodd" clip-rule="evenodd" d="M10.3856 8.12135C10.3856 7.60871 9.71106 5.5851 9.52219 4.93754C9.25237 4.02017 8.98256 3.12979 8.71274 2.2394C8.6318 1.99656 8.76671 2.32034 8.82067 2.3743C9.25237 3.18375 11.0331 6.96115 11.6267 7.23097C12.0045 7.39285 12.5441 7.41984 13.1647 7.41984C29.4075 7.20398 45.6773 7.52776 61.8932 8.52607C45.5154 8.01343 29.1917 8.04041 12.8139 8.44513C12.0584 8.44513 11.6537 8.55306 11.3569 8.634C10.8443 8.76891 9.87294 9.47043 9.3603 9.84817C9.68407 9.38948 10.3046 8.634 10.3856 8.09437V8.12135Z" fill="url(#paint9_radial_79509_173)"/>
<path style="mix-blend-mode:screen" fill-rule="evenodd" clip-rule="evenodd" d="M7.47179 47.5943C7.41783 46.1104 7.36386 34.4279 7.22896 34.1042C6.98614 33.5646 3.55964 32.971 2.91211 32.8361C3.39776 32.8361 6.87822 32.971 7.09406 32.8361C7.39085 32.6202 6.68936 26.4417 6.6354 25.5784C7.0401 28.0336 7.52575 30.4888 8.09233 32.917C8.33516 33.9693 8.20025 34.6977 8.11931 35.723C7.84951 39.6351 7.66065 43.5743 7.47179 47.5134V47.5943Z" fill="url(#paint10_radial_79509_173)"/>
</g>
<g clip-path="url(#clip1_79509_173)">
<path fill-rule="evenodd" clip-rule="evenodd" d="M2.68756 9.49772C2.71027 9.17394 8.43375 1.32234 9.54665 1.26837C19.6082 0.647799 63.6699 0.270059 69.1663 0.000244141C71.7555 0.890632 74.867 1.43026 77.8423 1.45724C103.666 1.72706 148.659 1.13347 155.609 1.26837C156.131 1.26837 162.468 8.74223 162.468 9.49772C162.468 24.6073 162.264 45.3021 162.059 54.8266C162.059 55.7709 155.632 63.1908 155.314 63.1908C154.383 63.1908 134.214 64.0002 131.761 64.0002C131.579 64.0002 128.559 62.975 126.946 62.975C88.1537 62.948 48.9297 63.2987 10.1372 63.2987C9.56936 63.2987 3.09638 56.2566 3.02824 54.8535C2.73298 50.3746 2.59671 41.3088 2.52857 32.432C2.86926 29.6259 3.55062 22.4218 3.52791 22.152C3.5052 21.4235 2.84654 19.6427 2.50586 17.8889C2.52857 13.464 2.574 10.2802 2.66485 9.5247H2.68756V9.49772Z" fill="#1F2B3A"/>
<path fill-rule="evenodd" clip-rule="evenodd" d="M11.9764 8.17538C31.3726 7.15009 52.495 8.60709 70.2105 9.01181L69.1658 -0.0269775C63.6694 0.269818 19.6077 0.647559 9.52344 1.24115L11.9536 8.17538H11.9764ZM77.8418 1.457L79.9541 7.55481C104.37 7.31198 142.594 8.20237 153.178 8.20237L155.609 1.26813C148.659 1.13322 103.688 1.72682 77.8418 1.457Z" fill="url(#paint11_radial_79509_173)"/>
<path fill-rule="evenodd" clip-rule="evenodd" d="M69.1665 0L70.2113 9.03899C71.3696 9.03899 76.6844 7.58196 79.9551 7.55498L77.8428 1.45703C74.8674 1.43005 71.733 0.917391 69.1665 0Z" fill="url(#paint12_radial_79509_173)"/>
<path fill-rule="evenodd" clip-rule="evenodd" d="M155.314 63.1905L152.634 56.3372C151.861 56.4451 134.668 55.3119 133.737 55.5278L131.761 64C134.214 64 154.382 63.1905 155.314 63.1905ZM126.923 62.9477L125.22 56.7689C87.6538 56.7689 50.0651 57.8212 12.5218 56.3372L10.1143 63.2715C48.9068 63.2715 88.1308 62.9207 126.923 62.9477Z" fill="url(#paint13_radial_79509_173)"/>
<path fill-rule="evenodd" clip-rule="evenodd" d="M131.763 64.0002L133.739 55.5278C132.83 55.7167 125.676 56.796 125.244 56.796L126.948 62.9749C128.583 62.9749 131.604 64.0002 131.763 64.0002Z" fill="url(#paint14_radial_79509_173)"/>
<path fill-rule="evenodd" clip-rule="evenodd" d="M8.54754 12.3036C8.77466 11.8989 11.6591 8.20246 11.9771 8.17548C31.3733 7.15018 52.4957 8.60718 70.2112 9.0119C71.3696 9.0119 76.6842 7.5549 79.9548 7.52792C104.37 7.28509 142.595 8.17548 153.179 8.17548C153.338 8.17548 156.563 11.8989 156.609 12.3036C157.744 25.2278 157.245 49.0254 156.995 51.2918C156.949 51.7775 152.884 56.3104 152.634 56.3644C151.862 56.4723 134.669 55.3391 133.737 55.5549C132.829 55.7438 125.675 56.823 125.243 56.823C87.677 56.823 50.0882 57.8753 12.5449 56.3913C12.1815 56.3913 9.16076 52.6679 8.95635 52.1552C8.59296 51.3188 9.20619 34.7252 9.16077 33.538C9.13805 32.7286 8.04787 26.5229 8.00244 22.9883C8.00244 22.7185 8.97907 20.1822 8.97907 19.9394C8.97907 19.2109 8.41126 12.6544 8.59296 12.3036H8.54754Z" fill="url(#paint15_radial_79509_173)"/>
<path style="mix-blend-mode:screen" opacity="0.75" fill-rule="evenodd" clip-rule="evenodd" d="M9.95769 12.9781C9.84413 13.221 10.9116 19.1029 10.9116 20.0473C10.9116 20.398 9.4126 22.7724 9.4126 23.1771C9.4126 24.0405 11.116 31.7842 11.2296 33.3761C11.3431 34.968 10.0485 50.7252 10.2757 51.4267C10.3665 51.7235 12.8421 54.6375 12.9557 54.6375C50.3628 56.2564 87.7925 55.0962 125.2 55.0692C127.198 55.0692 132.218 52.452 134.284 51.8314C135.397 51.4807 150.683 54.4756 151.955 54.0169C153.249 53.5313 155.52 50.9141 155.566 50.6982C156.633 45.8955 155.907 19.8584 155.18 12.9242C155.18 12.7623 152.727 9.92925 152.659 9.92925C128.561 9.47056 104.1 8.76904 80.0477 8.76904C79.1392 8.76904 70.8946 12.5734 69.9634 12.4925C65.9434 12.0878 44.7528 9.76736 32.0567 9.60547C25.5156 9.52452 18.9517 9.47056 12.4333 9.90226C12.2743 9.90226 10.0258 12.7623 9.93498 12.9781H9.95769Z" fill="url(#paint16_radial_79509_173)"/>
<path style="mix-blend-mode:screen" fill-rule="evenodd" clip-rule="evenodd" d="M11.2722 8.12153C11.2722 7.60887 10.7044 5.58525 10.5454 4.93769C10.3183 4.02031 10.0911 3.12992 9.86402 2.23952C9.79588 1.99668 9.90945 2.32047 9.95487 2.37443C10.3183 3.18388 11.8173 6.96131 12.317 7.23113C12.6349 7.39302 13.0892 7.42 13.6116 7.42C27.2845 7.20415 40.98 7.52793 54.6302 8.52625C40.8438 8.0136 27.1028 8.04058 13.3163 8.44531C12.6804 8.44531 12.3397 8.55323 12.0898 8.63418C11.6583 8.76909 10.8407 9.47061 10.4091 9.84835C10.6817 9.38967 11.2041 8.63418 11.2722 8.09454V8.12153Z" fill="url(#paint17_radial_79509_173)"/>
<path style="mix-blend-mode:screen" fill-rule="evenodd" clip-rule="evenodd" d="M152.953 7.25809C153.316 6.90732 154.929 2.99498 155.269 2.29346C155.019 3.29178 153.929 7.17714 153.929 7.90565C153.929 8.49924 154.974 9.98324 155.337 10.5499C154.838 10.0912 153.793 8.85001 153.225 8.7151C151.726 8.39132 122.813 8.22943 118.339 7.74376C117.998 7.71677 118.998 7.74376 118.998 7.74376C122.541 7.60885 152.112 7.8247 152.975 7.28507L152.953 7.25809Z" fill="url(#paint18_radial_79509_173)"/>
</g>
<g clip-path="url(#clip2_79509_173)">
<path fill-rule="evenodd" clip-rule="evenodd" d="M-24.8115 9.49771C-24.7845 9.17394 -17.9852 1.32234 -16.6631 1.26837C-4.71031 0.647799 47.6337 0.270059 54.1632 0.000244141C57.2391 0.890632 60.9356 1.43026 64.4701 1.45724C95.148 1.72706 148.598 1.13347 156.855 1.26837C157.475 1.26837 165.003 8.74223 165.003 9.49771C165.003 24.6073 164.76 45.3021 164.517 54.8266C164.517 55.7709 156.882 63.1908 156.504 63.1908C155.398 63.1908 131.438 64.0002 128.524 64.0002C128.308 64.0002 124.72 62.975 122.804 62.975C76.7197 62.948 30.1227 63.2987 -15.9616 63.2987C-16.6361 63.2987 -24.3258 56.2566 -24.4068 54.8535C-24.7575 50.3746 -24.9194 41.3088 -25.0004 32.4319C-24.5956 29.6259 -23.7862 22.4218 -23.8132 22.152C-23.8402 21.4235 -24.6226 19.6427 -25.0273 17.8889C-25.0004 13.464 -24.9464 10.2802 -24.8385 9.5247H-24.8115V9.49771Z" fill="#1F2B3A"/>
<path fill-rule="evenodd" clip-rule="evenodd" d="M-13.7755 8.17538C9.2667 7.15009 34.3594 8.60709 55.405 9.01181L54.1638 -0.0269775C47.6343 0.269818 -4.70969 0.647559 -16.6895 1.24115L-13.8024 8.17538H-13.7755ZM64.4707 1.457L66.98 7.55481C95.9851 7.31198 141.395 8.20236 153.968 8.20236L156.855 1.26813C148.599 1.13322 95.1756 1.72682 64.4707 1.457Z" fill="url(#paint19_radial_79509_173)"/>
<path fill-rule="evenodd" clip-rule="evenodd" d="M156.854 1.24121L153.967 8.17555C154.156 8.17555 157.987 11.899 158.041 12.3038L165.002 9.49766C165.002 8.74216 157.474 1.26819 156.854 1.26819V1.24121Z" fill="url(#paint20_radial_79509_173)"/>
<path fill-rule="evenodd" clip-rule="evenodd" d="M165.002 9.49744L158.041 12.3035C159.39 25.2276 158.797 49.0253 158.5 51.2917L164.544 54.8263C164.786 45.3018 165.029 24.607 165.029 9.49744H165.002Z" fill="url(#paint21_radial_79509_173)"/>
<path fill-rule="evenodd" clip-rule="evenodd" d="M164.517 54.8264L158.473 51.2917C158.42 51.7774 153.59 56.3104 153.293 56.3643L156.477 63.2177C156.882 63.2177 164.463 55.7977 164.49 54.8534L164.517 54.8264Z" fill="url(#paint22_radial_79509_173)"/>
<path fill-rule="evenodd" clip-rule="evenodd" d="M156.504 63.1905L153.32 56.3372C152.403 56.4451 131.978 55.3119 130.872 55.5278L128.524 64C131.438 64 155.398 63.1905 156.504 63.1905ZM122.777 62.9477L120.754 56.7689C76.1264 56.7689 31.4721 57.8212 -13.1282 56.3372L-15.9883 63.2715C30.096 63.2715 76.693 62.9207 122.777 62.9477Z" fill="url(#paint23_radial_79509_173)"/>
<path fill-rule="evenodd" clip-rule="evenodd" d="M-17.8505 12.3035C-17.5807 11.8988 -14.154 8.20234 -13.7763 8.17536C9.26587 7.15006 34.3586 8.60706 55.4041 9.01178C56.7802 9.01178 63.0939 7.55478 66.9792 7.5278C95.9843 7.28497 141.394 8.17536 153.967 8.17536C154.156 8.17536 157.988 11.8988 158.042 12.3035C159.391 25.2276 158.797 49.0253 158.5 51.2917C158.446 51.7774 153.617 56.3103 153.32 56.3642C152.402 56.4722 131.978 55.3389 130.871 55.5548C129.792 55.7437 121.293 56.8229 120.78 56.8229C76.1529 56.8229 31.4986 57.8752 -13.1018 56.3912C-13.5335 56.3912 -17.122 52.6678 -17.3648 52.1551C-17.7965 51.3187 -17.068 34.7251 -17.122 33.5379C-17.149 32.7285 -18.4441 26.5227 -18.498 22.9882C-18.498 22.7184 -17.3378 20.1821 -17.3378 19.9393C-17.3378 19.2108 -18.0124 12.6543 -17.7965 12.3035H-17.8505Z" fill="url(#paint24_radial_79509_173)"/>
<path style="mix-blend-mode:screen" opacity="0.75" fill-rule="evenodd" clip-rule="evenodd" d="M-16.1767 12.978C-16.3116 13.2209 -15.0434 19.1028 -15.0434 20.0472C-15.0434 20.3979 -16.8242 22.7723 -16.8242 23.177C-16.8242 24.0404 -14.8006 31.7841 -14.6657 33.376C-14.5308 34.9679 -16.0687 50.7251 -15.7989 51.4266C-15.691 51.7234 -12.75 54.6374 -12.6151 54.6374C31.8233 56.2563 76.2888 55.0961 120.727 55.0691C123.102 55.0691 129.064 52.4519 131.52 51.8313C132.842 51.4806 151 54.4755 152.511 54.0168C154.049 53.5312 156.747 50.914 156.801 50.6981C158.07 45.8954 157.206 19.8583 156.343 12.9241C156.343 12.7622 153.429 9.92912 153.348 9.92912C124.72 9.47044 95.6614 8.76892 67.0881 8.76892C66.0088 8.76892 56.2146 12.5733 55.1083 12.4924C50.3326 12.0876 25.1589 9.76723 10.0763 9.60535C2.30563 9.5244 -5.49201 9.47044 -13.2357 9.90214C-13.4246 9.90214 -16.0957 12.7622 -16.2036 12.978H-16.1767Z" fill="url(#paint25_radial_79509_173)"/>
<path style="mix-blend-mode:screen" fill-rule="evenodd" clip-rule="evenodd" d="M153.698 7.25804C154.13 6.90729 156.045 2.99497 156.45 2.29346C156.153 3.29177 154.858 7.1771 154.858 7.9056C154.858 8.49919 156.099 9.98317 156.531 10.5498C155.937 10.0911 154.696 8.84995 154.022 8.71504C152.241 8.39127 117.894 8.22938 112.578 7.74371C112.174 7.71673 113.361 7.74371 113.361 7.74371C117.57 7.6088 152.7 7.82466 153.725 7.28503L153.698 7.25804Z" fill="url(#paint26_radial_79509_173)"/>
</g>
<defs>
<radialGradient id="paint0_radial_79509_173" cx="0" cy="0" r="1" gradientUnits="userSpaceOnUse" gradientTransform="translate(12.0858 7.98617) scale(42.0354)">
<stop stop-color="#75859D"/>
<stop offset="1" stop-color="#495573"/>
</radialGradient>
<radialGradient id="paint1_radial_79509_173" cx="0" cy="0" r="1" gradientUnits="userSpaceOnUse" gradientTransform="translate(75.3845 -26.9005) scale(343.744 343.744)">
<stop stop-color="#607492"/>
<stop offset="1" stop-color="#3B4762"/>
</radialGradient>
<radialGradient id="paint2_radial_79509_173" cx="0" cy="0" r="1" gradientUnits="userSpaceOnUse" gradientTransform="translate(102.851 37.9089) scale(461.599 461.599)">
<stop stop-color="#1A2432"/>
<stop offset="1" stop-color="#181A21"/>
</radialGradient>
<radialGradient id="paint3_radial_79509_173" cx="0" cy="0" r="1" gradientUnits="userSpaceOnUse" gradientTransform="translate(12.7326 48.8366) scale(49.2661 49.2661)">
<stop stop-color="#1A232F"/>
<stop offset="1" stop-color="#1B1D24"/>
</radialGradient>
<radialGradient id="paint4_radial_79509_173" cx="0" cy="0" r="1" gradientUnits="userSpaceOnUse" gradientTransform="translate(0.726545 10.8465) scale(145.457 145.457)">
<stop stop-color="#2C3A50"/>
<stop offset="1" stop-color="#192232"/>
</radialGradient>
<radialGradient id="paint5_radial_79509_173" cx="0" cy="0" r="1" gradientUnits="userSpaceOnUse" gradientTransform="translate(1.72479 35.8038) scale(38.0693 38.0693)">
<stop stop-color="#556784"/>
<stop offset="1" stop-color="#26324A"/>
</radialGradient>
<radialGradient id="paint6_radial_79509_173" cx="0" cy="0" r="1" gradientUnits="userSpaceOnUse" gradientTransform="translate(4.80055 17.8077) scale(37.9074)">
<stop stop-color="#1A2432"/>
<stop offset="1" stop-color="#181A21"/>
</radialGradient>
<radialGradient id="paint7_radial_79509_173" cx="0" cy="0" r="1" gradientUnits="userSpaceOnUse" gradientTransform="translate(93.5691 -32.3778) scale(189.275 189.275)">
<stop offset="0.07" stop-color="#4A5B76"/>
<stop offset="1" stop-color="#263348"/>
</radialGradient>
<radialGradient id="paint8_radial_79509_173" cx="0" cy="0" r="1" gradientUnits="userSpaceOnUse" gradientTransform="translate(95.3239 -111.676) scale(351.568 351.568)">
<stop stop-color="#1C2129"/>
<stop offset="1"/>
</radialGradient>
<radialGradient id="paint9_radial_79509_173" cx="0" cy="0" r="1" gradientUnits="userSpaceOnUse" gradientTransform="translate(10.9252 7.79757) scale(52.7487 52.7487)">
<stop stop-color="#1D2536"/>
<stop offset="0.07" stop-color="#19202F"/>
<stop offset="0.43" stop-color="#0B0E15"/>
<stop offset="0.75" stop-color="#020305"/>
<stop offset="1"/>
</radialGradient>
<radialGradient id="paint10_radial_79509_173" cx="0" cy="0" r="1" gradientUnits="userSpaceOnUse" gradientTransform="translate(7.55273 33.4836) scale(19.9115)">
<stop stop-color="#1D2536"/>
<stop offset="0.07" stop-color="#19202F"/>
<stop offset="0.43" stop-color="#0B0E15"/>
<stop offset="0.75" stop-color="#020305"/>
<stop offset="1"/>
</radialGradient>
<radialGradient id="paint11_radial_79509_173" cx="0" cy="0" r="1" gradientUnits="userSpaceOnUse" gradientTransform="translate(65.986 -26.9005) scale(289.354 343.744)">
<stop stop-color="#607492"/>
<stop offset="1" stop-color="#3B4762"/>
</radialGradient>
<radialGradient id="paint12_radial_79509_173" cx="0" cy="0" r="1" gradientUnits="userSpaceOnUse" gradientTransform="translate(61.5577 -7.20421) scale(59.303 70.4502)">
<stop stop-color="#556784"/>
<stop offset="1" stop-color="#26324A"/>
</radialGradient>
<radialGradient id="paint13_radial_79509_173" cx="0" cy="0" r="1" gradientUnits="userSpaceOnUse" gradientTransform="translate(89.1074 37.9089) scale(388.561 461.599)">
<stop stop-color="#1A2432"/>
<stop offset="1" stop-color="#181A21"/>
</radialGradient>
<radialGradient id="paint14_radial_79509_173" cx="0" cy="0" r="1" gradientUnits="userSpaceOnUse" gradientTransform="translate(134.193 58.1721) scale(67.1617 79.786)">
<stop stop-color="#1D2738"/>
<stop offset="1" stop-color="#131924"/>
</radialGradient>
<radialGradient id="paint15_radial_79509_173" cx="0" cy="0" r="1" gradientUnits="userSpaceOnUse" gradientTransform="translate(81.2948 -32.3776) scale(159.326 189.275)">
<stop offset="0.07" stop-color="#4A5B76"/>
<stop offset="1" stop-color="#263348"/>
</radialGradient>
<radialGradient id="paint16_radial_79509_173" cx="0" cy="0" r="1" gradientUnits="userSpaceOnUse" gradientTransform="translate(82.7731 -111.676) scale(295.94 351.568)">
<stop stop-color="#1C2129"/>
<stop offset="1"/>
</radialGradient>
<radialGradient id="paint17_radial_79509_173" cx="0" cy="0" r="1" gradientUnits="userSpaceOnUse" gradientTransform="translate(11.7264 7.79775) scale(44.4028 52.7492)">
<stop stop-color="#1D2536"/>
<stop offset="0.07" stop-color="#19202F"/>
<stop offset="0.43" stop-color="#0B0E15"/>
<stop offset="0.75" stop-color="#020305"/>
<stop offset="1"/>
</radialGradient>
<radialGradient id="paint18_radial_79509_173" cx="0" cy="0" r="1" gradientUnits="userSpaceOnUse" gradientTransform="translate(153.589 8.01357) scale(43.5624 51.7509)">
<stop stop-color="#1D2536"/>
<stop offset="0.07" stop-color="#19202F"/>
<stop offset="0.43" stop-color="#0B0E15"/>
<stop offset="0.75" stop-color="#020305"/>
<stop offset="1"/>
</radialGradient>
<radialGradient id="paint19_radial_79509_173" cx="0" cy="0" r="1" gradientUnits="userSpaceOnUse" gradientTransform="translate(50.3864 -26.9005) scale(343.744 343.744)">
<stop stop-color="#607492"/>
<stop offset="1" stop-color="#3B4762"/>
</radialGradient>
<radialGradient id="paint20_radial_79509_173" cx="0" cy="0" r="1" gradientUnits="userSpaceOnUse" gradientTransform="translate(126.122 12.9783) scale(68.4529 68.4529)">
<stop stop-color="#75859D"/>
<stop offset="1" stop-color="#495573"/>
</radialGradient>
<radialGradient id="paint21_radial_79509_173" cx="0" cy="0" r="1" gradientUnits="userSpaceOnUse" gradientTransform="translate(139.154 26.3069) scale(113.295 113.295)">
<stop stop-color="#2C3A50"/>
<stop offset="1" stop-color="#192232"/>
</radialGradient>
<radialGradient id="paint22_radial_79509_173" cx="0" cy="0" r="1" gradientUnits="userSpaceOnUse" gradientTransform="translate(146.278 48.9173) scale(43.5487 43.5487)">
<stop stop-color="#1A232F"/>
<stop offset="1" stop-color="#1B1D24"/>
</radialGradient>
<radialGradient id="paint23_radial_79509_173" cx="0" cy="0" r="1" gradientUnits="userSpaceOnUse" gradientTransform="translate(77.8532 37.9089) scale(461.599 461.599)">
<stop stop-color="#1A2432"/>
<stop offset="1" stop-color="#181A21"/>
</radialGradient>
<radialGradient id="paint24_radial_79509_173" cx="0" cy="0" r="1" gradientUnits="userSpaceOnUse" gradientTransform="translate(68.5711 -32.3778) scale(189.275 189.275)">
<stop offset="0.07" stop-color="#4A5B76"/>
<stop offset="1" stop-color="#263348"/>
</radialGradient>
<radialGradient id="paint25_radial_79509_173" cx="0" cy="0" r="1" gradientUnits="userSpaceOnUse" gradientTransform="translate(70.3259 -111.676) scale(351.568 351.568)">
<stop stop-color="#1C2129"/>
<stop offset="1"/>
</radialGradient>
<radialGradient id="paint26_radial_79509_173" cx="0" cy="0" r="1" gradientUnits="userSpaceOnUse" gradientTransform="translate(154.453 8.01353) scale(51.7504 51.7504)">
<stop stop-color="#1D2536"/>
<stop offset="0.07" stop-color="#19202F"/>
<stop offset="0.43" stop-color="#0B0E15"/>
<stop offset="0.75" stop-color="#020305"/>
<stop offset="1"/>
</radialGradient>
<clipPath id="clip0_79509_173">
<rect width="16" height="64" fill="white"/>
</clipPath>
<clipPath id="clip1_79509_173">
<rect width="133" height="64" fill="white" transform="translate(16)"/>
</clipPath>
<clipPath id="clip2_79509_173">
<rect width="16" height="64" fill="white" transform="translate(149)"/>
</clipPath>
</defs>
</svg>
