<svg width="143" height="48" viewBox="0 0 143 48" fill="none" xmlns="http://www.w3.org/2000/svg">
<g clip-path="url(#clip0_79509_1697)">
<path fill-rule="evenodd" clip-rule="evenodd" d="M0.139916 7.1231C0.160152 6.88027 5.25965 0.991568 6.25121 0.951096C15.2158 0.485666 54.4738 0.202361 59.3709 0C61.6779 0.667791 64.4502 1.07251 67.1011 1.09275C90.1096 1.29511 130.197 0.849916 136.39 0.951096C136.855 0.951096 142.501 6.55649 142.501 7.1231C142.501 18.4553 142.319 33.9764 142.137 41.1197C142.137 41.828 136.41 47.3929 136.126 47.3929C135.297 47.3929 117.327 48 115.142 48C114.98 48 112.288 47.231 110.852 47.231C76.2883 47.2108 41.3406 47.4739 6.77735 47.4739C6.27145 47.4739 0.504166 42.1922 0.443457 41.14C0.180388 37.7808 0.0589717 30.9815 -0.00173657 24.3238C0.301805 22.2192 0.908887 16.8162 0.888651 16.6138C0.868415 16.0675 0.281569 14.7319 -0.0219727 13.4165C-0.00173657 10.0978 0.0387356 7.70995 0.11968 7.14334H0.139916V7.1231Z" fill="#1F2B3A"/>
<path fill-rule="evenodd" clip-rule="evenodd" d="M5.36132 9.22736C5.56367 8.92383 8.13355 6.1516 8.41684 6.13137L6.23144 0.930908C5.26014 0.991614 0.16086 6.85984 0.140625 7.1229L5.36132 9.22736Z" fill="url(#paint0_radial_79509_1697)"/>
<path fill-rule="evenodd" clip-rule="evenodd" d="M8.41694 6.13163C25.6986 5.36266 44.5181 6.45541 60.3023 6.75895L59.3714 -0.0201416C54.4743 0.202455 15.2163 0.485761 6.23145 0.930955L8.39671 6.13163H8.41694ZM67.1016 1.09284L68.9836 5.6662C90.7374 5.48407 124.795 6.15187 134.225 6.15187L136.39 0.951191C130.198 0.85001 90.1303 1.2952 67.1016 1.09284Z" fill="url(#paint1_radial_79509_1697)"/>
<path fill-rule="evenodd" clip-rule="evenodd" d="M136.127 47.393L133.739 42.253C133.051 42.3339 117.732 41.484 116.902 41.6459L115.142 48.0001C117.327 48.0001 135.297 47.393 136.127 47.393ZM110.832 47.2108L109.314 42.5768C75.8433 42.5768 42.3526 43.366 8.90235 42.253L6.75732 47.4537C41.3206 47.4537 76.2683 47.1906 110.832 47.2108Z" fill="url(#paint2_radial_79509_1697)"/>
<path fill-rule="evenodd" clip-rule="evenodd" d="M6.75697 47.4533L8.90191 42.2529C8.57815 42.2529 5.88686 39.4604 5.70474 39.0759L0.42334 41.0995C0.504281 42.1517 6.25109 47.4331 6.75697 47.4331V47.4533Z" fill="url(#paint3_radial_79509_1697)"/>
<path fill-rule="evenodd" clip-rule="evenodd" d="M0.423493 41.1198L5.70511 39.0962C5.38133 38.4689 5.92771 26.0237 5.88724 25.1333L-0.00146484 24.3238C0.0390073 30.9815 0.18066 37.7808 0.403257 41.1198H0.423493ZM-0.00146484 13.3964L5.70511 14.9545C5.70511 14.4082 5.19921 9.49079 5.3611 9.22772L0.140188 7.12317C0.0794795 7.68978 0.0390073 10.0776 -0.00146484 13.3964Z" fill="url(#paint4_radial_79509_1697)"/>
<path fill-rule="evenodd" clip-rule="evenodd" d="M-0.00146484 24.3235L5.84652 25.1532C5.82629 24.5461 4.855 19.892 4.81452 17.2412L0.888886 16.6139C0.888886 16.8365 0.302064 22.2393 -0.00146484 24.3235Z" fill="url(#paint5_radial_79509_1697)"/>
<path fill-rule="evenodd" clip-rule="evenodd" d="M0.909122 16.5935L4.83476 17.2208C4.83476 17.0184 5.70488 15.1163 5.70488 14.9342L-0.00146484 13.3761C0.302064 14.6914 0.888886 16.0269 0.909122 16.5733V16.5935Z" fill="url(#paint6_radial_79509_1697)"/>
<path fill-rule="evenodd" clip-rule="evenodd" d="M5.36067 9.22776C5.56303 8.92422 8.13301 6.15188 8.41631 6.13164C25.6979 5.36267 44.5175 6.45542 60.3016 6.75896C61.3337 6.75896 66.0689 5.66621 68.9829 5.64597C90.7367 5.46385 124.794 6.13164 134.224 6.13164C134.366 6.13164 137.239 8.92422 137.28 9.22776C138.292 18.9208 137.846 36.7691 137.624 38.4689C137.583 38.8332 133.961 42.2328 133.738 42.2733C133.05 42.3542 117.732 41.5043 116.902 41.6662C116.093 41.8079 109.718 42.6173 109.334 42.6173C75.8632 42.6173 42.3725 43.4065 8.92222 42.2935C8.59844 42.2935 5.90704 39.5009 5.72492 39.1165C5.40114 38.4891 5.94751 26.044 5.90704 25.1536C5.8868 24.5465 4.91547 19.8922 4.875 17.2413C4.875 17.0389 5.74515 15.1367 5.74515 14.9546C5.74515 14.4082 5.23925 9.49083 5.40114 9.22776H5.36067Z" fill="url(#paint7_radial_79509_1697)"/>
<path style="mix-blend-mode:screen" opacity="0.75" fill-rule="evenodd" clip-rule="evenodd" d="M6.61604 9.73361C6.51486 9.91574 7.46595 14.3272 7.46595 15.0355C7.46595 15.2985 6.13037 17.0793 6.13037 17.3829C6.13037 18.0304 7.64808 23.8382 7.74926 25.0321C7.85044 26.226 6.69698 38.0439 6.89934 38.57C6.98029 38.7926 9.18602 40.9781 9.2872 40.9781C42.616 42.1923 75.9651 41.3222 109.294 41.3019C111.075 41.3019 115.547 39.339 117.388 38.8736C118.38 38.6105 131.999 40.8567 133.132 40.5127C134.285 40.1485 136.309 38.1856 136.35 38.0237C137.301 34.4216 136.653 14.8938 136.006 9.69314C136.006 9.57172 133.82 7.44693 133.759 7.44693C112.289 7.10292 90.4946 6.57678 69.0646 6.57678C68.2551 6.57678 60.9095 9.43007 60.0798 9.36936C56.498 9.06582 37.6177 7.32552 26.3057 7.2041C20.4778 7.14339 14.6295 7.10292 8.82177 7.4267C8.68012 7.4267 6.67675 9.57172 6.5958 9.73361H6.61604Z" fill="url(#paint8_radial_79509_1697)"/>
<path style="mix-blend-mode:screen" fill-rule="evenodd" clip-rule="evenodd" d="M7.78919 6.09108C7.78919 5.70659 7.28329 4.18888 7.14164 3.70322C6.93928 3.01519 6.73692 2.3474 6.53456 1.67961C6.47385 1.49748 6.57503 1.74032 6.6155 1.78079C6.93928 2.38787 8.27486 5.22092 8.72005 5.42329C9.00336 5.5447 9.40808 5.56494 9.87351 5.56494C22.0556 5.40305 34.258 5.64588 46.4199 6.39462C34.1366 6.01013 21.8937 6.03037 9.61044 6.33391C9.04383 6.33391 8.74029 6.41485 8.51769 6.47556C8.13321 6.57674 7.40471 7.10288 7.02022 7.38619C7.26306 7.04217 7.72849 6.47556 7.78919 6.07084V6.09108Z" fill="url(#paint9_radial_79509_1697)"/>
<path style="mix-blend-mode:screen" fill-rule="evenodd" clip-rule="evenodd" d="M5.60384 35.6958C5.56337 34.5829 5.5229 25.821 5.42172 25.5782C5.23961 25.1735 2.66973 24.7283 2.18408 24.6271C2.54832 24.6271 5.15866 24.7283 5.32055 24.6271C5.54313 24.4652 5.01702 19.8314 4.97655 19.1838C5.28008 21.0252 5.64431 22.8667 6.06925 24.6878C6.25137 25.477 6.15019 26.0234 6.08949 26.7923C5.88713 29.7264 5.74549 32.6808 5.60384 35.6351V35.6958Z" fill="url(#paint10_radial_79509_1697)"/>
</g>
<g clip-path="url(#clip1_79509_1697)">
<path fill-rule="evenodd" clip-rule="evenodd" d="M0.0888413 7.12323C0.109163 6.88039 5.23017 0.99169 6.22593 0.951218C15.2283 0.485788 54.652 0.202483 59.5698 0.00012207C61.8864 0.667913 64.6705 1.07263 67.3326 1.09287C90.4381 1.29523 130.695 0.850038 136.913 0.951218C137.381 0.951218 143.05 6.55661 143.05 7.12323C143.05 18.4554 142.868 33.9765 142.685 41.1199C142.685 41.8281 136.934 47.393 136.649 47.393C135.816 47.393 117.77 48.0001 115.576 48.0001C115.413 48.0001 112.71 47.2312 111.268 47.2312C76.5585 47.2109 41.4634 47.474 6.75428 47.474C6.24625 47.474 0.454628 42.1924 0.393663 41.1401C0.129484 37.7809 0.00755542 30.9816 -0.053409 24.3239C0.251413 22.2193 0.861057 16.8163 0.840736 16.614C0.820414 16.0676 0.231092 14.732 -0.0737305 13.4166C-0.053409 10.0979 -0.0127661 7.71007 0.0685198 7.14346H0.0888413V7.12323Z" fill="#1F2B3A"/>
<path fill-rule="evenodd" clip-rule="evenodd" d="M8.3998 6.13151C25.7543 5.36254 44.6533 6.45528 60.504 6.75883L59.5693 -0.0202637C54.6515 0.202333 15.2278 0.485639 6.20508 0.930833L8.37948 6.13151H8.3998ZM67.3321 1.09272L69.222 5.66608C91.0675 5.48395 125.269 6.15174 134.738 6.15174L136.913 0.951069C130.694 0.849888 90.4579 1.29508 67.3321 1.09272Z" fill="url(#paint11_radial_79509_1697)"/>
<path fill-rule="evenodd" clip-rule="evenodd" d="M59.5698 0L60.5046 6.77925C61.5411 6.77925 66.2964 5.68647 69.2227 5.66624L67.3328 1.09277C64.6706 1.07254 61.8662 0.688043 59.5698 0Z" fill="url(#paint12_radial_79509_1697)"/>
<path fill-rule="evenodd" clip-rule="evenodd" d="M136.649 47.3929L134.251 42.2529C133.56 42.3338 118.177 41.4839 117.344 41.6458L115.576 47.9999C117.77 47.9999 135.816 47.3929 136.649 47.3929ZM111.247 47.2107L109.723 42.5767C76.1114 42.5767 42.4794 43.3659 8.88796 42.2529L6.73389 47.4536C41.443 47.4536 76.5381 47.1905 111.247 47.2107Z" fill="url(#paint13_radial_79509_1697)"/>
<path fill-rule="evenodd" clip-rule="evenodd" d="M115.577 48.0002L117.345 41.6459C116.532 41.7875 110.131 42.597 109.745 42.597L111.269 47.2312C112.732 47.2312 115.435 48.0002 115.577 48.0002Z" fill="url(#paint14_radial_79509_1697)"/>
<path fill-rule="evenodd" clip-rule="evenodd" d="M5.33195 9.22776C5.53517 8.92422 8.11599 6.15188 8.4005 6.13164C25.755 5.36267 44.654 6.45542 60.5047 6.75896C61.5411 6.75896 66.2964 5.66621 69.2227 5.64597C91.0682 5.46385 125.269 6.13164 134.739 6.13164C134.881 6.13164 137.767 8.92422 137.808 9.22776C138.824 18.9208 138.377 36.7691 138.153 38.4689C138.112 38.8332 134.475 42.2328 134.251 42.2733C133.56 42.3542 118.177 41.5043 117.344 41.6662C116.531 41.8079 110.13 42.6173 109.744 42.6173C76.132 42.6173 42.4999 43.4065 8.90853 42.2935C8.58339 42.2935 5.88063 39.5009 5.69774 39.1165C5.3726 38.4891 5.92128 26.044 5.88063 25.1536C5.86031 24.5465 4.88488 19.8922 4.84424 17.2413C4.84424 17.0389 5.71806 15.1367 5.71806 14.9546C5.71806 14.4082 5.21002 9.49083 5.3726 9.22776H5.33195Z" fill="url(#paint15_radial_79509_1697)"/>
<path style="mix-blend-mode:screen" opacity="0.75" fill-rule="evenodd" clip-rule="evenodd" d="M6.59367 9.73361C6.49207 9.91574 7.44717 14.3272 7.44717 15.0355C7.44717 15.2985 6.10596 17.0793 6.10596 17.3829C6.10596 18.0304 7.63007 23.8382 7.73168 25.0321C7.83328 26.226 6.67496 38.0439 6.87817 38.57C6.95946 38.7926 9.1745 40.9781 9.27611 40.9781C42.7456 42.1923 76.2354 41.3222 109.705 41.3019C111.493 41.3019 115.984 39.339 117.833 38.8736C118.829 38.6105 132.506 40.8567 133.644 40.5127C134.802 40.1485 136.834 38.1856 136.875 38.0237C137.83 34.4216 137.179 14.8938 136.529 9.69314C136.529 9.57172 134.334 7.44693 134.274 7.44693C112.712 7.10292 90.8262 6.57678 69.3057 6.57678C68.4929 6.57678 61.1162 9.43007 60.283 9.36936C56.6861 9.06582 37.7262 7.32552 26.3665 7.2041C20.5139 7.14339 14.641 7.10292 8.80871 7.4267C8.66646 7.4267 6.65464 9.57172 6.57335 9.73361H6.59367Z" fill="url(#paint16_radial_79509_1697)"/>
<path style="mix-blend-mode:screen" fill-rule="evenodd" clip-rule="evenodd" d="M7.76968 6.09111C7.76968 5.70663 7.26164 4.18891 7.11938 3.70324C6.91617 3.0152 6.71295 2.34741 6.50973 1.67961C6.44877 1.49748 6.55038 1.74032 6.59102 1.78079C6.91617 2.38788 8.2574 5.22096 8.70447 5.42332C8.98897 5.54474 9.39541 5.56497 9.86281 5.56497C22.0964 5.40308 34.3504 5.64592 46.5637 6.39466C34.2285 6.01017 21.9339 6.03041 9.59862 6.33395C9.02962 6.33395 8.72479 6.41489 8.50126 6.4756C8.11514 6.57678 7.38357 7.10293 6.99745 7.38624C7.24131 7.04222 7.70871 6.4756 7.76968 6.07088V6.09111Z" fill="url(#paint17_radial_79509_1697)"/>
<path style="mix-blend-mode:screen" fill-rule="evenodd" clip-rule="evenodd" d="M134.536 5.44356C134.862 5.18049 136.304 2.24624 136.609 1.72009C136.386 2.46883 135.41 5.38286 135.41 5.92923C135.41 6.37443 136.345 7.48743 136.67 7.91239C136.223 7.56837 135.288 6.6375 134.78 6.53632C133.439 6.29349 107.57 6.17207 103.566 5.80782C103.261 5.78758 104.156 5.80782 104.156 5.80782C107.326 5.70664 133.785 5.86853 134.557 5.4638L134.536 5.44356Z" fill="url(#paint18_radial_79509_1697)"/>
</g>
<g clip-path="url(#clip2_79509_1697)">
<path fill-rule="evenodd" clip-rule="evenodd" d="M0.641381 7.12323C0.661617 6.88039 5.76111 0.99169 6.75268 0.951218C15.7173 0.485788 54.9753 0.202483 59.8724 0.00012207C62.1793 0.667913 64.9517 1.07263 67.6026 1.09287C90.611 1.29523 130.699 0.850038 136.891 0.951218C137.356 0.951218 143.002 6.55661 143.002 7.12323C143.002 18.4554 142.82 33.9765 142.638 41.1199C142.638 41.8281 136.911 47.393 136.628 47.393C135.798 47.393 117.829 48.0001 115.643 48.0001C115.481 48.0001 112.79 47.2312 111.353 47.2312C76.7898 47.2109 41.8421 47.474 7.27882 47.474C6.77291 47.474 1.00563 42.1924 0.944922 41.1401C0.681853 37.7809 0.560437 30.9816 0.499728 24.3239C0.80327 22.2193 1.41035 16.8163 1.39012 16.614C1.36988 16.0676 0.783033 14.732 0.479492 13.4166C0.499728 10.0979 0.5402 7.71007 0.621145 7.14346H0.641381V7.12323Z" fill="#1F2B3A"/>
<path fill-rule="evenodd" clip-rule="evenodd" d="M8.91841 6.13151C26.2 5.36254 45.0196 6.45528 60.8037 6.75883L59.8729 -0.0202637C54.9757 0.202333 15.7177 0.485639 6.73291 0.930833L8.89817 6.13151H8.91841ZM67.6031 1.09272L69.485 5.66608C91.2388 5.48395 125.296 6.15174 134.726 6.15174L136.891 0.951069C130.699 0.849888 90.6317 1.29508 67.6031 1.09272Z" fill="url(#paint19_radial_79509_1697)"/>
<path fill-rule="evenodd" clip-rule="evenodd" d="M136.89 0.930908L134.725 6.13166C134.867 6.13166 137.74 8.92428 137.781 9.22783L143.002 7.12324C143.002 6.55662 137.356 0.951145 136.89 0.951145V0.930908Z" fill="url(#paint20_radial_79509_1697)"/>
<path fill-rule="evenodd" clip-rule="evenodd" d="M143.002 7.12305L137.781 9.2276C138.793 18.9207 138.347 36.7689 138.125 38.4687L142.658 41.1197C142.84 33.9763 143.022 18.4553 143.022 7.12305H143.002Z" fill="url(#paint21_radial_79509_1697)"/>
<path fill-rule="evenodd" clip-rule="evenodd" d="M142.638 41.1197L138.105 38.4688C138.065 38.833 134.442 42.2327 134.22 42.2732L136.608 47.4132C136.911 47.4132 142.598 41.8482 142.618 41.14L142.638 41.1197Z" fill="url(#paint22_radial_79509_1697)"/>
<path fill-rule="evenodd" clip-rule="evenodd" d="M136.628 47.3929L134.24 42.2529C133.552 42.3338 118.233 41.4839 117.404 41.6458L115.643 47.9999C117.829 47.9999 135.798 47.3929 136.628 47.3929ZM111.333 47.2107L109.815 42.5767C76.3448 42.5767 42.8541 43.3659 9.40381 42.2529L7.25879 47.4536C41.822 47.4536 76.7697 47.1905 111.333 47.2107Z" fill="url(#paint23_radial_79509_1697)"/>
<path fill-rule="evenodd" clip-rule="evenodd" d="M5.86213 9.22764C6.06449 8.9241 8.63447 6.15175 8.91778 6.13152C26.1994 5.36255 45.019 6.45529 60.8031 6.75884C61.8351 6.75884 66.5704 5.66609 69.4844 5.64585C91.2382 5.46373 125.296 6.13152 134.726 6.13152C134.867 6.13152 137.741 8.9241 137.781 9.22764C138.793 18.9207 138.348 36.769 138.125 38.4688C138.085 38.833 134.462 42.2327 134.24 42.2732C133.552 42.3541 118.233 41.5042 117.403 41.6661C116.594 41.8077 110.22 42.6172 109.835 42.6172C76.3647 42.6172 42.8739 43.4064 9.42368 42.2934C9.0999 42.2934 6.4085 39.5008 6.22638 39.1163C5.9026 38.489 6.44898 26.0438 6.40851 25.1534C6.38827 24.5464 5.41694 19.8921 5.37646 17.2411C5.37646 17.0388 6.24662 15.1366 6.24662 14.9545C6.24662 14.4081 5.74071 9.49071 5.9026 9.22764H5.86213Z" fill="url(#paint24_radial_79509_1697)"/>
<path style="mix-blend-mode:screen" opacity="0.75" fill-rule="evenodd" clip-rule="evenodd" d="M7.1175 9.73349C7.01632 9.91562 7.96742 14.3271 7.96742 15.0353C7.96742 15.2984 6.63184 17.0792 6.63184 17.3827C6.63184 18.0303 8.14954 23.838 8.25072 25.032C8.3519 26.2259 7.19845 38.0438 7.40081 38.5699C7.48175 38.7925 9.68748 40.978 9.78867 40.978C43.1175 42.1922 76.4666 41.322 109.795 41.3018C111.576 41.3018 116.048 39.3389 117.89 38.8735C118.881 38.6104 132.5 40.8566 133.634 40.5126C134.787 40.1483 136.811 38.1854 136.851 38.0235C137.802 34.4215 137.155 14.8937 136.507 9.69302C136.507 9.5716 134.322 7.44681 134.261 7.44681C112.79 7.1028 90.9961 6.57666 69.5661 6.57666C68.7566 6.57666 61.4109 9.42995 60.5812 9.36924C56.9995 9.0657 38.1192 7.3254 26.8072 7.20398C20.9792 7.14327 15.131 7.1028 9.32324 7.42658C9.18158 7.42658 7.17821 9.5716 7.09727 9.73349H7.1175Z" fill="url(#paint25_radial_79509_1697)"/>
<path style="mix-blend-mode:screen" fill-rule="evenodd" clip-rule="evenodd" d="M134.523 5.44353C134.847 5.18046 136.284 2.24623 136.588 1.72009C136.365 2.46883 135.394 5.38283 135.394 5.9292C135.394 6.37439 136.324 7.48738 136.648 7.91234C136.203 7.56832 135.272 6.63746 134.766 6.53628C133.431 6.29345 107.67 6.17203 103.684 5.80778C103.38 5.78755 104.271 5.80778 104.271 5.80778C107.427 5.7066 133.775 5.86849 134.544 5.46377L134.523 5.44353Z" fill="url(#paint26_radial_79509_1697)"/>
</g>
<defs>
<radialGradient id="paint0_radial_79509_1697" cx="0" cy="0" r="1" gradientUnits="userSpaceOnUse" gradientTransform="translate(9.06437 5.98972) scale(31.5265 31.5265)">
<stop stop-color="#75859D"/>
<stop offset="1" stop-color="#495573"/>
</radialGradient>
<radialGradient id="paint1_radial_79509_1697" cx="0" cy="0" r="1" gradientUnits="userSpaceOnUse" gradientTransform="translate(56.5384 -20.1753) scale(257.808 257.808)">
<stop stop-color="#607492"/>
<stop offset="1" stop-color="#3B4762"/>
</radialGradient>
<radialGradient id="paint2_radial_79509_1697" cx="0" cy="0" r="1" gradientUnits="userSpaceOnUse" gradientTransform="translate(77.1384 28.4318) scale(346.199 346.199)">
<stop stop-color="#1A2432"/>
<stop offset="1" stop-color="#181A21"/>
</radialGradient>
<radialGradient id="paint3_radial_79509_1697" cx="0" cy="0" r="1" gradientUnits="userSpaceOnUse" gradientTransform="translate(9.54944 36.6275) scale(36.9496 36.9496)">
<stop stop-color="#1A232F"/>
<stop offset="1" stop-color="#1B1D24"/>
</radialGradient>
<radialGradient id="paint4_radial_79509_1697" cx="0" cy="0" r="1" gradientUnits="userSpaceOnUse" gradientTransform="translate(0.544909 8.13497) scale(109.093 109.093)">
<stop stop-color="#2C3A50"/>
<stop offset="1" stop-color="#192232"/>
</radialGradient>
<radialGradient id="paint5_radial_79509_1697" cx="0" cy="0" r="1" gradientUnits="userSpaceOnUse" gradientTransform="translate(1.29359 26.8529) scale(28.5519 28.5519)">
<stop stop-color="#556784"/>
<stop offset="1" stop-color="#26324A"/>
</radialGradient>
<radialGradient id="paint6_radial_79509_1697" cx="0" cy="0" r="1" gradientUnits="userSpaceOnUse" gradientTransform="translate(3.60041 13.3559) scale(28.4305)">
<stop stop-color="#1A2432"/>
<stop offset="1" stop-color="#181A21"/>
</radialGradient>
<radialGradient id="paint7_radial_79509_1697" cx="0" cy="0" r="1" gradientUnits="userSpaceOnUse" gradientTransform="translate(70.1769 -24.2832) scale(141.956 141.956)">
<stop offset="0.07" stop-color="#4A5B76"/>
<stop offset="1" stop-color="#263348"/>
</radialGradient>
<radialGradient id="paint8_radial_79509_1697" cx="0" cy="0" r="1" gradientUnits="userSpaceOnUse" gradientTransform="translate(71.4929 -83.7571) scale(263.676 263.676)">
<stop stop-color="#1C2129"/>
<stop offset="1"/>
</radialGradient>
<radialGradient id="paint9_radial_79509_1697" cx="0" cy="0" r="1" gradientUnits="userSpaceOnUse" gradientTransform="translate(8.19392 5.84824) scale(39.5616 39.5616)">
<stop stop-color="#1D2536"/>
<stop offset="0.07" stop-color="#19202F"/>
<stop offset="0.43" stop-color="#0B0E15"/>
<stop offset="0.75" stop-color="#020305"/>
<stop offset="1"/>
</radialGradient>
<radialGradient id="paint10_radial_79509_1697" cx="0" cy="0" r="1" gradientUnits="userSpaceOnUse" gradientTransform="translate(5.66455 25.1128) scale(14.9336)">
<stop stop-color="#1D2536"/>
<stop offset="0.07" stop-color="#19202F"/>
<stop offset="0.43" stop-color="#0B0E15"/>
<stop offset="0.75" stop-color="#020305"/>
<stop offset="1"/>
</radialGradient>
<radialGradient id="paint11_radial_79509_1697" cx="0" cy="0" r="1" gradientUnits="userSpaceOnUse" gradientTransform="translate(56.7243 -20.1754) scale(258.896 257.808)">
<stop stop-color="#607492"/>
<stop offset="1" stop-color="#3B4762"/>
</radialGradient>
<radialGradient id="paint12_radial_79509_1697" cx="0" cy="0" r="1" gradientUnits="userSpaceOnUse" gradientTransform="translate(52.762 -5.40316) scale(53.0606 52.8376)">
<stop stop-color="#556784"/>
<stop offset="1" stop-color="#26324A"/>
</radialGradient>
<radialGradient id="paint13_radial_79509_1697" cx="0" cy="0" r="1" gradientUnits="userSpaceOnUse" gradientTransform="translate(77.412 28.4316) scale(347.66 346.199)">
<stop stop-color="#1A2432"/>
<stop offset="1" stop-color="#181A21"/>
</radialGradient>
<radialGradient id="paint14_radial_79509_1697" cx="0" cy="0" r="1" gradientUnits="userSpaceOnUse" gradientTransform="translate(117.751 43.6291) scale(60.092 59.8395)">
<stop stop-color="#1D2738"/>
<stop offset="1" stop-color="#131924"/>
</radialGradient>
<radialGradient id="paint15_radial_79509_1697" cx="0" cy="0" r="1" gradientUnits="userSpaceOnUse" gradientTransform="translate(70.4216 -24.2832) scale(142.555 141.956)">
<stop offset="0.07" stop-color="#4A5B76"/>
<stop offset="1" stop-color="#263348"/>
</radialGradient>
<radialGradient id="paint16_radial_79509_1697" cx="0" cy="0" r="1" gradientUnits="userSpaceOnUse" gradientTransform="translate(71.7443 -83.7571) scale(264.789 263.676)">
<stop stop-color="#1C2129"/>
<stop offset="1"/>
</radialGradient>
<radialGradient id="paint17_radial_79509_1697" cx="0" cy="0" r="1" gradientUnits="userSpaceOnUse" gradientTransform="translate(8.17611 5.84828) scale(39.7288 39.5619)">
<stop stop-color="#1D2536"/>
<stop offset="0.07" stop-color="#19202F"/>
<stop offset="0.43" stop-color="#0B0E15"/>
<stop offset="0.75" stop-color="#020305"/>
<stop offset="1"/>
</radialGradient>
<radialGradient id="paint18_radial_79509_1697" cx="0" cy="0" r="1" gradientUnits="userSpaceOnUse" gradientTransform="translate(135.105 6.01018) scale(38.9769 38.8131)">
<stop stop-color="#1D2536"/>
<stop offset="0.07" stop-color="#19202F"/>
<stop offset="0.43" stop-color="#0B0E15"/>
<stop offset="0.75" stop-color="#020305"/>
<stop offset="1"/>
</radialGradient>
<radialGradient id="paint19_radial_79509_1697" cx="0" cy="0" r="1" gradientUnits="userSpaceOnUse" gradientTransform="translate(57.0398 -20.1754) scale(257.808 257.808)">
<stop stop-color="#607492"/>
<stop offset="1" stop-color="#3B4762"/>
</radialGradient>
<radialGradient id="paint20_radial_79509_1697" cx="0" cy="0" r="1" gradientUnits="userSpaceOnUse" gradientTransform="translate(113.841 9.73374) scale(51.3397 51.3397)">
<stop stop-color="#75859D"/>
<stop offset="1" stop-color="#495573"/>
</radialGradient>
<radialGradient id="paint21_radial_79509_1697" cx="0" cy="0" r="1" gradientUnits="userSpaceOnUse" gradientTransform="translate(123.615 19.7301) scale(84.9715 84.9713)">
<stop stop-color="#2C3A50"/>
<stop offset="1" stop-color="#192232"/>
</radialGradient>
<radialGradient id="paint22_radial_79509_1697" cx="0" cy="0" r="1" gradientUnits="userSpaceOnUse" gradientTransform="translate(128.958 36.688) scale(32.6615 32.6615)">
<stop stop-color="#1A232F"/>
<stop offset="1" stop-color="#1B1D24"/>
</radialGradient>
<radialGradient id="paint23_radial_79509_1697" cx="0" cy="0" r="1" gradientUnits="userSpaceOnUse" gradientTransform="translate(77.6399 28.4316) scale(346.199 346.199)">
<stop stop-color="#1A2432"/>
<stop offset="1" stop-color="#181A21"/>
</radialGradient>
<radialGradient id="paint24_radial_79509_1697" cx="0" cy="0" r="1" gradientUnits="userSpaceOnUse" gradientTransform="translate(70.6783 -24.2833) scale(141.956 141.956)">
<stop offset="0.07" stop-color="#4A5B76"/>
<stop offset="1" stop-color="#263348"/>
</radialGradient>
<radialGradient id="paint25_radial_79509_1697" cx="0" cy="0" r="1" gradientUnits="userSpaceOnUse" gradientTransform="translate(71.9944 -83.7573) scale(263.676 263.676)">
<stop stop-color="#1C2129"/>
<stop offset="1"/>
</radialGradient>
<radialGradient id="paint26_radial_79509_1697" cx="0" cy="0" r="1" gradientUnits="userSpaceOnUse" gradientTransform="translate(135.09 6.01014) scale(38.8128 38.8128)">
<stop stop-color="#1D2536"/>
<stop offset="0.07" stop-color="#19202F"/>
<stop offset="0.43" stop-color="#0B0E15"/>
<stop offset="0.75" stop-color="#020305"/>
<stop offset="1"/>
</radialGradient>
<clipPath id="clip0_79509_1697">
<rect width="12" height="48" fill="white"/>
</clipPath>
<clipPath id="clip1_79509_1697">
<rect width="119" height="48" fill="white" transform="translate(12)"/>
</clipPath>
<clipPath id="clip2_79509_1697">
<rect width="12" height="48" fill="white" transform="translate(131)"/>
</clipPath>
</defs>
</svg>
