<svg width="129" height="48" viewBox="0 0 129 48" fill="none" xmlns="http://www.w3.org/2000/svg">
<g filter="url(#filter0_iiiii_1_6301)">
<g clip-path="url(#clip0_1_6301)">
<path fill-rule="evenodd" clip-rule="evenodd" d="M0.139825 7.1231C0.160061 6.88027 5.25955 0.991568 6.25112 0.951096C15.2157 0.485666 54.4737 0.202361 59.3709 0C61.6778 0.667791 64.4501 1.07251 67.101 1.09275C90.1095 1.29511 130.197 0.849916 136.389 0.951096C136.855 0.951096 142.501 6.55649 142.501 7.1231C142.501 18.4553 142.319 33.9764 142.136 41.1197C142.136 41.828 136.41 47.3929 136.126 47.3929C135.297 47.3929 117.327 48 115.142 48C114.98 48 112.288 47.231 110.851 47.231C76.2882 47.2108 41.3405 47.4739 6.77726 47.4739C6.27136 47.4739 0.504074 42.1922 0.443366 41.14C0.180297 37.7808 0.0588801 30.9815 -0.00182812 24.3238C0.301713 22.2192 0.908796 16.8162 0.88856 16.6138C0.868324 16.0675 0.281477 14.7319 -0.0220642 13.4165C-0.00182812 10.0978 0.0386441 7.70995 0.119588 7.14334H0.139825V7.1231Z" fill="#1F2B3A"/>
<path fill-rule="evenodd" clip-rule="evenodd" d="M5.36132 9.2273C5.56367 8.92377 8.13355 6.15154 8.41684 6.13131L6.23144 0.930847C5.26014 0.991553 0.16086 6.85978 0.140625 7.12283L5.36132 9.2273Z" fill="url(#paint0_radial_1_6301)"/>
<path fill-rule="evenodd" clip-rule="evenodd" d="M8.41694 6.13154C25.6986 5.36257 44.5181 6.45532 60.3023 6.75886L59.3714 -0.0202332C54.4743 0.202364 15.2163 0.485669 6.23145 0.930863L8.39671 6.13154H8.41694ZM67.1016 1.09275L68.9836 5.66611C90.7374 5.48398 124.795 6.15177 134.225 6.15177L136.39 0.951099C130.198 0.849919 90.1303 1.29511 67.1016 1.09275Z" fill="url(#paint1_radial_1_6301)"/>
<path fill-rule="evenodd" clip-rule="evenodd" d="M136.127 47.3929L133.739 42.2529C133.051 42.3339 117.732 41.4839 116.902 41.6458L115.142 48C117.327 48 135.297 47.3929 136.127 47.3929ZM110.832 47.2108L109.314 42.5767C75.8433 42.5767 42.3526 43.3659 8.90235 42.2529L6.75732 47.4536C41.3206 47.4536 76.2683 47.1905 110.832 47.2108Z" fill="url(#paint2_radial_1_6301)"/>
<path fill-rule="evenodd" clip-rule="evenodd" d="M6.75685 47.4533L8.90179 42.2528C8.57802 42.2528 5.88674 39.4603 5.70462 39.0759L0.423218 41.0994C0.504159 42.1516 6.25097 47.433 6.75685 47.433V47.4533Z" fill="url(#paint3_radial_1_6301)"/>
<path fill-rule="evenodd" clip-rule="evenodd" d="M0.423493 41.1197L5.70511 39.0961C5.38133 38.4688 5.92771 26.0236 5.88724 25.1332L-0.00146484 24.3238C0.0390073 30.9814 0.18066 37.7808 0.403257 41.1197H0.423493ZM-0.00146484 13.3963L5.70511 14.9544C5.70511 14.4081 5.19921 9.4907 5.3611 9.22763L0.140188 7.12308C0.0794795 7.68969 0.0390073 10.0775 -0.00146484 13.3963Z" fill="url(#paint4_radial_1_6301)"/>
<path fill-rule="evenodd" clip-rule="evenodd" d="M-0.00146484 24.3234L5.84652 25.1531C5.82629 24.546 4.855 19.8919 4.81452 17.2411L0.888886 16.6138C0.888886 16.8364 0.302064 22.2392 -0.00146484 24.3234Z" fill="url(#paint5_radial_1_6301)"/>
<path fill-rule="evenodd" clip-rule="evenodd" d="M0.909121 16.5934L4.83476 17.2207C4.83476 17.0184 5.70488 15.1163 5.70488 14.9342L-0.00146484 13.376C0.302064 14.6913 0.888886 16.0269 0.909121 16.5732V16.5934Z" fill="url(#paint6_radial_1_6301)"/>
<path fill-rule="evenodd" clip-rule="evenodd" d="M5.36057 9.22764C5.56294 8.9241 8.13292 6.15175 8.41622 6.13152C25.6978 5.36255 44.5174 6.45529 60.3015 6.75884C61.3336 6.75884 66.0688 5.66609 68.9828 5.64585C90.7366 5.46373 124.794 6.13152 134.224 6.13152C134.366 6.13152 137.239 8.9241 137.28 9.22764C138.291 18.9207 137.846 36.769 137.624 38.4688C137.583 38.833 133.961 42.2327 133.738 42.2732C133.05 42.3541 117.732 41.5042 116.902 41.6661C116.092 41.8077 109.718 42.6172 109.334 42.6172C75.8631 42.6172 42.3724 43.4064 8.92213 42.2934C8.59835 42.2934 5.90695 39.5008 5.72482 39.1163C5.40105 38.489 5.94742 26.0438 5.90695 25.1534C5.88671 24.5464 4.91538 19.8921 4.87491 17.2411C4.87491 17.0388 5.74506 15.1366 5.74506 14.9545C5.74506 14.4081 5.23916 9.49071 5.40105 9.22764H5.36057Z" fill="url(#paint7_radial_1_6301)"/>
<path style="mix-blend-mode:screen" opacity="0.75" fill-rule="evenodd" clip-rule="evenodd" d="M6.61604 9.73352C6.51486 9.91565 7.46595 14.3271 7.46595 15.0354C7.46595 15.2984 6.13037 17.0792 6.13037 17.3828C6.13037 18.0303 7.64808 23.8381 7.74926 25.032C7.85044 26.2259 6.69698 38.0438 6.89934 38.57C6.98029 38.7925 9.18602 40.978 9.2872 40.978C42.616 42.1922 75.9651 41.3221 109.294 41.3018C111.075 41.3018 115.547 39.3389 117.388 38.8735C118.38 38.6104 131.999 40.8566 133.132 40.5126C134.285 40.1484 136.309 38.1855 136.35 38.0236C137.301 34.4216 136.653 14.8937 136.006 9.69305C136.006 9.57163 133.82 7.44684 133.759 7.44684C112.289 7.10283 90.4946 6.57669 69.0646 6.57669C68.2552 6.57669 60.9095 9.42998 60.0798 9.36927C56.498 9.06573 37.6177 7.32543 26.3057 7.20401C20.4778 7.1433 14.6295 7.10283 8.82177 7.42661C8.68012 7.42661 6.67675 9.57163 6.5958 9.73352H6.61604Z" fill="url(#paint8_radial_1_6301)"/>
<g style="mix-blend-mode:screen">
<path fill-rule="evenodd" clip-rule="evenodd" d="M7.78916 6.09105C7.78916 5.70656 7.28326 4.18885 7.14161 3.70319C6.93925 3.01516 6.73689 2.34737 6.53453 1.67958C6.47382 1.49745 6.575 1.74029 6.61547 1.78076C6.93925 2.38784 8.27483 5.22089 8.72002 5.42325C9.00333 5.54467 9.40805 5.56491 9.87348 5.56491C22.0556 5.40302 34.258 5.64585 46.4199 6.39459C34.1366 6.0101 21.8937 6.03034 9.61041 6.33388C9.0438 6.33388 8.74026 6.41482 8.51766 6.47553C8.13318 6.57671 7.40468 7.10285 7.02019 7.38616C7.26303 7.04214 7.72846 6.47553 7.78916 6.07081V6.09105Z" fill="url(#paint9_linear_1_6301)"/>
</g>
<g style="mix-blend-mode:screen">
<path fill-rule="evenodd" clip-rule="evenodd" d="M5.60384 35.6957C5.56337 34.5828 5.5229 25.8209 5.42172 25.5781C5.23961 25.1734 2.66973 24.7282 2.18408 24.6271C2.54832 24.6271 5.15866 24.7282 5.32055 24.6271C5.54313 24.4652 5.01702 19.8313 4.97655 19.1838C5.28008 21.0252 5.64431 22.8666 6.06925 24.6878C6.25137 25.4769 6.15019 26.0233 6.08949 26.7922C5.88713 29.7263 5.74549 32.6807 5.60384 35.635V35.6957Z" fill="url(#paint10_linear_1_6301)"/>
</g>
</g>
<g clip-path="url(#clip1_1_6301)">
<path fill-rule="evenodd" clip-rule="evenodd" d="M1.49034 7.12329C1.50827 6.88045 6.02681 0.991751 6.90541 0.951279C14.8487 0.485849 49.6343 0.202544 53.9735 0.000183105C56.0176 0.667974 58.4741 1.0727 60.8231 1.09293C81.2103 1.29529 116.731 0.850099 122.218 0.951279C122.63 0.951279 127.633 6.55668 127.633 7.12329C127.633 18.4555 127.472 33.9766 127.31 41.1199C127.31 41.8282 122.236 47.3931 121.985 47.3931C121.25 47.3931 105.327 48.0002 103.391 48.0002C103.247 48.0002 100.862 47.2312 99.5893 47.2312C68.9636 47.211 37.9973 47.474 7.37161 47.474C6.92334 47.474 1.81309 42.1924 1.7593 41.1402C1.5262 37.781 1.41862 30.9816 1.36482 24.324C1.63378 22.2194 2.17171 16.8164 2.15378 16.614C2.13584 16.0676 1.61585 14.7321 1.34689 13.4167C1.36482 10.098 1.40069 7.71013 1.47241 7.14352H1.49034V7.12329Z" fill="#1F2B3A"/>
<path fill-rule="evenodd" clip-rule="evenodd" d="M8.82366 6.13154C24.1365 5.36257 40.812 6.45532 54.798 6.75886L53.9732 -0.0202332C49.634 0.202364 14.8484 0.485669 6.88715 0.930863L8.80573 6.13154H8.82366ZM60.8227 1.09275L62.4903 5.66611C81.7658 5.48398 111.943 6.15177 120.299 6.15177L122.217 0.951099C116.731 0.849919 81.2279 1.29511 60.8227 1.09275Z" fill="url(#paint11_radial_1_6301)"/>
<path fill-rule="evenodd" clip-rule="evenodd" d="M53.9737 0L54.7985 6.77925C55.713 6.77925 59.9089 5.68647 62.491 5.66624L60.8234 1.09277C58.4744 1.07254 55.9999 0.688043 53.9737 0Z" fill="url(#paint12_radial_1_6301)"/>
<path fill-rule="evenodd" clip-rule="evenodd" d="M121.985 47.3929L119.869 42.2529C119.259 42.3339 105.686 41.4839 104.95 41.6458L103.391 48C105.327 48 121.25 47.3929 121.985 47.3929ZM99.5713 47.2108L98.2265 42.5767C68.5691 42.5767 38.8938 43.3659 9.25429 42.2529L7.35364 47.4536C37.9793 47.4536 68.9456 47.1905 99.5713 47.2108Z" fill="url(#paint13_radial_1_6301)"/>
<path fill-rule="evenodd" clip-rule="evenodd" d="M103.392 48.0002L104.952 41.6459C104.235 41.7875 98.5862 42.597 98.2455 42.597L99.5904 47.2312C100.881 47.2312 103.266 48.0002 103.392 48.0002Z" fill="url(#paint14_radial_1_6301)"/>
<path fill-rule="evenodd" clip-rule="evenodd" d="M6.11674 9.22773C6.29605 8.92419 8.57325 6.15184 8.82428 6.13161C24.1371 5.36264 40.8127 6.45539 54.7986 6.75893C55.7131 6.75893 59.9089 5.66618 62.4909 5.64594C81.7664 5.46382 111.944 6.13161 120.3 6.13161C120.425 6.13161 122.971 8.92419 123.007 9.22773C123.904 18.9208 123.509 36.769 123.312 38.4689C123.276 38.8331 120.066 42.2328 119.869 42.2733C119.26 42.3542 105.686 41.5043 104.951 41.6662C104.234 41.8078 98.5854 42.6173 98.2447 42.6173C68.5873 42.6173 38.912 43.4065 9.27254 42.2935C8.98565 42.2935 6.60087 39.5009 6.43949 39.1164C6.1526 38.4891 6.63673 26.0439 6.60087 25.1535C6.58294 24.5464 5.72226 19.8922 5.6864 17.2412C5.6864 17.0389 6.45742 15.1367 6.45742 14.9545C6.45742 14.4082 6.00915 9.4908 6.1526 9.22773H6.11674Z" fill="url(#paint15_radial_1_6301)"/>
<path style="mix-blend-mode:screen" opacity="0.75" fill-rule="evenodd" clip-rule="evenodd" d="M7.22981 9.73361C7.14015 9.91574 7.9829 14.3272 7.9829 15.0355C7.9829 15.2985 6.79947 17.0793 6.79947 17.3829C6.79947 18.0304 8.14427 23.8382 8.23393 25.0321C8.32358 26.226 7.30153 38.0439 7.48084 38.57C7.55256 38.7926 9.50701 40.9781 9.59666 40.9781C39.1285 42.1923 68.6784 41.3222 98.2102 41.3019C99.7882 41.3019 103.751 39.339 105.383 38.8736C106.261 38.6105 118.329 40.8567 119.333 40.5127C120.355 40.1485 122.148 38.1856 122.184 38.0237C123.026 34.4216 122.453 14.8938 121.879 9.69314C121.879 9.57172 119.942 7.44693 119.888 7.44693C100.864 7.10292 81.5526 6.57678 62.564 6.57678C61.8468 6.57678 55.3379 9.43007 54.6028 9.36936C51.429 9.06582 34.6997 7.32552 24.6764 7.2041C19.5123 7.14339 14.3304 7.10292 9.18425 7.4267C9.05874 7.4267 7.2836 9.57172 7.21188 9.73361H7.22981Z" fill="url(#paint16_radial_1_6301)"/>
<g style="mix-blend-mode:screen">
<path fill-rule="evenodd" clip-rule="evenodd" d="M8.26759 6.09114C8.26759 5.70666 7.81932 4.18894 7.6938 3.70327C7.51449 3.01523 7.33518 2.34744 7.15587 1.67964C7.10208 1.49751 7.19174 1.74035 7.2276 1.78082C7.51449 2.38791 8.69793 5.22099 9.09241 5.42335C9.34344 5.54477 9.70206 5.565 10.1145 5.565C20.9088 5.40311 31.7212 5.64595 42.4976 6.39469C31.6136 6.0102 20.7654 6.03044 9.88137 6.33398C9.3793 6.33398 9.11034 6.41493 8.9131 6.47563C8.57241 6.57682 7.9269 7.10296 7.58621 7.38627C7.80139 7.04225 8.21379 6.47563 8.26759 6.07091V6.09114Z" fill="url(#paint17_linear_1_6301)"/>
</g>
<g style="mix-blend-mode:screen">
<path fill-rule="evenodd" clip-rule="evenodd" d="M120.121 5.44356C120.408 5.18049 121.681 2.24624 121.95 1.72009C121.752 2.46883 120.892 5.38286 120.892 5.92923C120.892 6.37443 121.717 7.48743 122.003 7.91239C121.609 7.56837 120.784 6.6375 120.336 6.53632C119.152 6.29349 96.3264 6.17207 92.7941 5.80782C92.5251 5.78758 93.3141 5.80782 93.3141 5.80782C96.1113 5.70664 119.457 5.86853 120.139 5.4638L120.121 5.44356Z" fill="url(#paint18_linear_1_6301)"/>
</g>
</g>
<g clip-path="url(#clip2_1_6301)">
<path fill-rule="evenodd" clip-rule="evenodd" d="M-13.3586 7.12329C-13.3384 6.88045 -8.23889 0.991751 -7.24732 0.951279C1.71727 0.485849 40.9753 0.202544 45.8724 0.000183105C48.1793 0.667974 50.9517 1.0727 53.6026 1.09293C76.611 1.29529 116.699 0.850099 122.891 0.951279C123.356 0.951279 129.002 6.55668 129.002 7.12329C129.002 18.4555 128.82 33.9766 128.638 41.1199C128.638 41.8282 122.911 47.3931 122.628 47.3931C121.798 47.3931 103.829 48.0002 101.643 48.0002C101.481 48.0002 98.7898 47.2312 97.353 47.2312C62.7898 47.211 27.8421 47.474 -6.72118 47.474C-7.22709 47.474 -12.9944 42.1924 -13.0551 41.1402C-13.3181 37.781 -13.4396 30.9816 -13.5003 24.324C-13.1967 22.2194 -12.5896 16.8164 -12.6099 16.614C-12.6301 16.0676 -13.217 14.7321 -13.5205 13.4167C-13.5003 10.098 -13.4598 7.71013 -13.3789 7.14352H-13.3586V7.12329Z" fill="#1F2B3A"/>
<path fill-rule="evenodd" clip-rule="evenodd" d="M-5.08159 6.13154C12.2 5.36257 31.0196 6.45532 46.8037 6.75886L45.8729 -0.0202332C40.9757 0.202364 1.71773 0.485669 -7.26709 0.930863L-5.10183 6.13154H-5.08159ZM53.6031 1.09275L55.485 5.66611C77.2388 5.48398 111.296 6.15177 120.726 6.15177L122.891 0.951099C116.699 0.849919 76.6317 1.29511 53.6031 1.09275Z" fill="url(#paint19_radial_1_6301)"/>
<path fill-rule="evenodd" clip-rule="evenodd" d="M122.89 0.930908L120.725 6.13166C120.867 6.13166 123.74 8.92428 123.781 9.22783L129.002 7.12324C129.002 6.55662 123.356 0.951145 122.89 0.951145V0.930908Z" fill="url(#paint20_radial_1_6301)"/>
<path fill-rule="evenodd" clip-rule="evenodd" d="M129.002 7.12308L123.781 9.22763C124.793 18.9207 124.347 36.7689 124.125 38.4688L128.658 41.1197C128.84 33.9764 129.022 18.4553 129.022 7.12308H129.002Z" fill="url(#paint21_radial_1_6301)"/>
<path fill-rule="evenodd" clip-rule="evenodd" d="M128.638 41.1198L124.105 38.4688C124.065 38.8331 120.442 42.2328 120.22 42.2732L122.608 47.4133C122.911 47.4133 128.598 41.8483 128.618 41.14L128.638 41.1198Z" fill="url(#paint22_radial_1_6301)"/>
<path fill-rule="evenodd" clip-rule="evenodd" d="M122.628 47.3929L120.24 42.2529C119.552 42.3339 104.233 41.4839 103.404 41.6458L101.643 48C103.829 48 121.798 47.3929 122.628 47.3929ZM97.333 47.2108L95.8153 42.5767C62.3448 42.5767 28.8541 43.3659 -4.59619 42.2529L-6.74121 47.4536C27.822 47.4536 62.7697 47.1905 97.333 47.2108Z" fill="url(#paint23_radial_1_6301)"/>
<path fill-rule="evenodd" clip-rule="evenodd" d="M-8.13769 9.22767C-7.93533 8.92413 -5.36534 6.15178 -5.08204 6.13155C12.1996 5.36258 31.0191 6.45532 46.8033 6.75887C47.8353 6.75887 52.5706 5.66612 55.4846 5.64588C77.2384 5.46376 111.296 6.13155 120.726 6.13155C120.867 6.13155 123.741 8.92413 123.781 9.22767C124.793 18.9208 124.348 36.769 124.125 38.4688C124.085 38.8331 120.463 42.2327 120.24 42.2732C119.552 42.3541 104.233 41.5042 103.404 41.6661C102.594 41.8078 96.2198 42.6172 95.8353 42.6172C62.3648 42.6172 28.8741 43.4064 -4.57614 42.2934C-4.89991 42.2934 -7.59131 39.5009 -7.77344 39.1164C-8.09721 38.4891 -7.55084 26.0439 -7.59131 25.1535C-7.61155 24.5464 -8.58288 19.8921 -8.62335 17.2412C-8.62335 17.0388 -7.7532 15.1366 -7.7532 14.9545C-7.7532 14.4081 -8.2591 9.49074 -8.09721 9.22767H-8.13769Z" fill="url(#paint24_radial_1_6301)"/>
<path style="mix-blend-mode:screen" opacity="0.9" fill-rule="evenodd" clip-rule="evenodd" d="M-6.8825 9.73352C-6.98368 9.91565 -6.03258 14.3271 -6.03258 15.0354C-6.03258 15.2984 -7.36816 17.0792 -7.36816 17.3828C-7.36816 18.0303 -5.85046 23.8381 -5.74928 25.032C-5.6481 26.2259 -6.80155 38.0438 -6.59919 38.57C-6.51825 38.7925 -4.31251 40.978 -4.21133 40.978C29.1175 42.1922 62.4666 41.3221 95.7954 41.3018C97.5762 41.3018 102.048 39.3389 103.89 38.8735C104.881 38.6104 118.5 40.8566 119.634 40.5126C120.787 40.1484 122.811 38.1855 122.851 38.0236C123.802 34.4216 123.155 14.8937 122.507 9.69305C122.507 9.57163 120.322 7.44684 120.261 7.44684C98.7903 7.10283 76.9961 6.57669 55.5661 6.57669C54.7566 6.57669 47.4109 9.42998 46.5812 9.36927C42.9994 9.06573 24.1192 7.32543 12.8072 7.20401C6.97922 7.1433 1.13099 7.10283 -4.67676 7.42661C-4.81842 7.42661 -6.82179 9.57163 -6.90273 9.73352H-6.8825Z" fill="url(#paint25_radial_1_6301)"/>
<g style="mix-blend-mode:screen">
<path fill-rule="evenodd" clip-rule="evenodd" d="M120.523 5.4435C120.847 5.18043 122.284 2.2462 122.587 1.72006C122.365 2.4688 121.393 5.38279 121.393 5.92917C121.393 6.37436 122.324 7.48735 122.648 7.91231C122.203 7.56829 121.272 6.63743 120.766 6.53625C119.431 6.29342 93.67 6.172 89.6835 5.80775C89.38 5.78752 90.2704 5.80775 90.2704 5.80775C93.4272 5.70657 119.775 5.86846 120.544 5.46374L120.523 5.4435Z" fill="url(#paint26_linear_1_6301)"/>
</g>
</g>
</g>
<defs>
<filter id="filter0_iiiii_1_6301" x="0" y="-2" width="129" height="61" filterUnits="userSpaceOnUse" color-interpolation-filters="sRGB">
<feFlood flood-opacity="0" result="BackgroundImageFix"/>
<feBlend mode="normal" in="SourceGraphic" in2="BackgroundImageFix" result="shape"/>
<feColorMatrix in="SourceAlpha" type="matrix" values="0 0 0 0 0 0 0 0 0 0 0 0 0 0 0 0 0 0 127 0" result="hardAlpha"/>
<feOffset dy="4"/>
<feGaussianBlur stdDeviation="4.2"/>
<feComposite in2="hardAlpha" operator="arithmetic" k2="-1" k3="1"/>
<feColorMatrix type="matrix" values="0 0 0 0 0.211765 0 0 0 0 1 0 0 0 0 1 0 0 0 0.5 0"/>
<feBlend mode="normal" in2="shape" result="effect1_innerShadow_1_6301"/>
<feColorMatrix in="SourceAlpha" type="matrix" values="0 0 0 0 0 0 0 0 0 0 0 0 0 0 0 0 0 0 127 0" result="hardAlpha"/>
<feOffset dy="4"/>
<feGaussianBlur stdDeviation="2"/>
<feComposite in2="hardAlpha" operator="arithmetic" k2="-1" k3="1"/>
<feColorMatrix type="matrix" values="0 0 0 0 0.211765 0 0 0 0 1 0 0 0 0 1 0 0 0 1 0"/>
<feBlend mode="normal" in2="effect1_innerShadow_1_6301" result="effect2_innerShadow_1_6301"/>
<feColorMatrix in="SourceAlpha" type="matrix" values="0 0 0 0 0 0 0 0 0 0 0 0 0 0 0 0 0 0 127 0" result="hardAlpha"/>
<feOffset dy="11"/>
<feGaussianBlur stdDeviation="7"/>
<feComposite in2="hardAlpha" operator="arithmetic" k2="-1" k3="1"/>
<feColorMatrix type="matrix" values="0 0 0 0 0.211765 0 0 0 0 1 0 0 0 0 1 0 0 0 0.3 0"/>
<feBlend mode="normal" in2="effect2_innerShadow_1_6301" result="effect3_innerShadow_1_6301"/>
<feColorMatrix in="SourceAlpha" type="matrix" values="0 0 0 0 0 0 0 0 0 0 0 0 0 0 0 0 0 0 127 0" result="hardAlpha"/>
<feOffset dy="-2"/>
<feGaussianBlur stdDeviation="2.5"/>
<feComposite in2="hardAlpha" operator="arithmetic" k2="-1" k3="1"/>
<feColorMatrix type="matrix" values="0 0 0 0 0.211765 0 0 0 0 1 0 0 0 0 1 0 0 0 0.4 0"/>
<feBlend mode="normal" in2="effect3_innerShadow_1_6301" result="effect4_innerShadow_1_6301"/>
<feColorMatrix in="SourceAlpha" type="matrix" values="0 0 0 0 0 0 0 0 0 0 0 0 0 0 0 0 0 0 127 0" result="hardAlpha"/>
<feOffset dy="4"/>
<feGaussianBlur stdDeviation="40.95"/>
<feComposite in2="hardAlpha" operator="arithmetic" k2="-1" k3="1"/>
<feColorMatrix type="matrix" values="0 0 0 0 0.211765 0 0 0 0 1 0 0 0 0 1 0 0 0 0.2 0"/>
<feBlend mode="normal" in2="effect4_innerShadow_1_6301" result="effect5_innerShadow_1_6301"/>
</filter>
<radialGradient id="paint0_radial_1_6301" cx="0" cy="0" r="1" gradientUnits="userSpaceOnUse" gradientTransform="translate(9.06437 5.98966) scale(31.5265 31.5265)">
<stop stop-color="#75859D"/>
<stop offset="1" stop-color="#495573"/>
</radialGradient>
<radialGradient id="paint1_radial_1_6301" cx="0" cy="0" r="1" gradientUnits="userSpaceOnUse" gradientTransform="translate(56.5384 -20.1754) scale(257.808 257.808)">
<stop stop-color="#607492"/>
<stop offset="1" stop-color="#3B4762"/>
</radialGradient>
<radialGradient id="paint2_radial_1_6301" cx="0" cy="0" r="1" gradientUnits="userSpaceOnUse" gradientTransform="translate(77.1384 28.4317) scale(346.199 346.199)">
<stop stop-color="#1A2432"/>
<stop offset="1" stop-color="#181A21"/>
</radialGradient>
<radialGradient id="paint3_radial_1_6301" cx="0" cy="0" r="1" gradientUnits="userSpaceOnUse" gradientTransform="translate(9.54932 36.6274) scale(36.9496 36.9496)">
<stop stop-color="#1A232F"/>
<stop offset="1" stop-color="#1B1D24"/>
</radialGradient>
<radialGradient id="paint4_radial_1_6301" cx="0" cy="0" r="1" gradientUnits="userSpaceOnUse" gradientTransform="translate(0.544909 8.13488) scale(109.093 109.093)">
<stop stop-color="#2C3A50"/>
<stop offset="1" stop-color="#192232"/>
</radialGradient>
<radialGradient id="paint5_radial_1_6301" cx="0" cy="0" r="1" gradientUnits="userSpaceOnUse" gradientTransform="translate(1.29359 26.8528) scale(28.5519 28.5519)">
<stop stop-color="#556784"/>
<stop offset="1" stop-color="#26324A"/>
</radialGradient>
<radialGradient id="paint6_radial_1_6301" cx="0" cy="0" r="1" gradientUnits="userSpaceOnUse" gradientTransform="translate(3.60041 13.3558) scale(28.4305)">
<stop stop-color="#1A2432"/>
<stop offset="1" stop-color="#181A21"/>
</radialGradient>
<radialGradient id="paint7_radial_1_6301" cx="0" cy="0" r="1" gradientUnits="userSpaceOnUse" gradientTransform="translate(70.1768 -24.2833) scale(141.956 141.956)">
<stop offset="0.07" stop-color="#4A5B76"/>
<stop offset="1" stop-color="#263348"/>
</radialGradient>
<radialGradient id="paint8_radial_1_6301" cx="0" cy="0" r="1" gradientUnits="userSpaceOnUse" gradientTransform="translate(71.4929 -83.7572) scale(263.676 263.676)">
<stop stop-color="#1C2129"/>
<stop offset="1"/>
</radialGradient>
<linearGradient id="paint9_linear_1_6301" x1="6.49395" y1="4.49845" x2="32.4553" y2="27.9159" gradientUnits="userSpaceOnUse">
<stop stop-color="#90D2F6"/>
<stop offset="0.3123" stop-color="#009FAA"/>
<stop offset="0.7592" stop-color="#00CDBD"/>
<stop offset="1" stop-color="#C2E8FD"/>
</linearGradient>
<linearGradient id="paint10_linear_1_6301" x1="2.18192" y1="27.437" x2="6.88364" y2="27.5853" gradientUnits="userSpaceOnUse">
<stop stop-color="#90D2F6"/>
<stop offset="0.3123" stop-color="#009FAA"/>
<stop offset="0.7592" stop-color="#00CDBD"/>
<stop offset="1" stop-color="#C2E8FD"/>
</linearGradient>
<radialGradient id="paint11_radial_1_6301" cx="0" cy="0" r="1" gradientUnits="userSpaceOnUse" gradientTransform="translate(51.4629 -20.1754) scale(228.437 257.808)">
<stop stop-color="#607492"/>
<stop offset="1" stop-color="#3B4762"/>
</radialGradient>
<radialGradient id="paint12_radial_1_6301" cx="0" cy="0" r="1" gradientUnits="userSpaceOnUse" gradientTransform="translate(47.9668 -5.40316) scale(46.8182 52.8376)">
<stop stop-color="#556784"/>
<stop offset="1" stop-color="#26324A"/>
</radialGradient>
<radialGradient id="paint13_radial_1_6301" cx="0" cy="0" r="1" gradientUnits="userSpaceOnUse" gradientTransform="translate(69.7167 28.4317) scale(306.759 346.199)">
<stop stop-color="#1A2432"/>
<stop offset="1" stop-color="#181A21"/>
</radialGradient>
<radialGradient id="paint14_radial_1_6301" cx="0" cy="0" r="1" gradientUnits="userSpaceOnUse" gradientTransform="translate(105.31 43.6291) scale(53.0224 59.8395)">
<stop stop-color="#1D2738"/>
<stop offset="1" stop-color="#131924"/>
</radialGradient>
<radialGradient id="paint15_radial_1_6301" cx="0" cy="0" r="1" gradientUnits="userSpaceOnUse" gradientTransform="translate(63.5488 -24.2832) scale(125.784 141.956)">
<stop offset="0.07" stop-color="#4A5B76"/>
<stop offset="1" stop-color="#263348"/>
</radialGradient>
<radialGradient id="paint16_radial_1_6301" cx="0" cy="0" r="1" gradientUnits="userSpaceOnUse" gradientTransform="translate(64.7157 -83.7571) scale(233.637 263.676)">
<stop stop-color="#1C2129"/>
<stop offset="1"/>
</radialGradient>
<linearGradient id="paint17_linear_1_6301" x1="7.11992" y1="4.49854" x2="32.5779" y2="24.8458" gradientUnits="userSpaceOnUse">
<stop stop-color="#90D2F6"/>
<stop offset="0.3123" stop-color="#009FAA"/>
<stop offset="0.7592" stop-color="#00CDBD"/>
<stop offset="1" stop-color="#C2E8FD"/>
</linearGradient>
<linearGradient id="paint18_linear_1_6301" x1="92.7223" y1="4.81522" x2="117.737" y2="20.2439" gradientUnits="userSpaceOnUse">
<stop stop-color="#90D2F6"/>
<stop offset="0.3123" stop-color="#009FAA"/>
<stop offset="0.7592" stop-color="#00CDBD"/>
<stop offset="1" stop-color="#C2E8FD"/>
</linearGradient>
<radialGradient id="paint19_radial_1_6301" cx="0" cy="0" r="1" gradientUnits="userSpaceOnUse" gradientTransform="translate(43.0398 -20.1754) scale(257.808 257.808)">
<stop stop-color="#607492"/>
<stop offset="1" stop-color="#3B4762"/>
</radialGradient>
<radialGradient id="paint20_radial_1_6301" cx="0" cy="0" r="1" gradientUnits="userSpaceOnUse" gradientTransform="translate(99.8412 9.73374) scale(51.3397 51.3397)">
<stop stop-color="#75859D"/>
<stop offset="1" stop-color="#495573"/>
</radialGradient>
<radialGradient id="paint21_radial_1_6301" cx="0" cy="0" r="1" gradientUnits="userSpaceOnUse" gradientTransform="translate(109.615 19.7302) scale(84.9715 84.9713)">
<stop stop-color="#2C3A50"/>
<stop offset="1" stop-color="#192232"/>
</radialGradient>
<radialGradient id="paint22_radial_1_6301" cx="0" cy="0" r="1" gradientUnits="userSpaceOnUse" gradientTransform="translate(114.958 36.688) scale(32.6615 32.6615)">
<stop stop-color="#1A232F"/>
<stop offset="1" stop-color="#1B1D24"/>
</radialGradient>
<radialGradient id="paint23_radial_1_6301" cx="0" cy="0" r="1" gradientUnits="userSpaceOnUse" gradientTransform="translate(63.6399 28.4317) scale(346.199 346.199)">
<stop stop-color="#1A2432"/>
<stop offset="1" stop-color="#181A21"/>
</radialGradient>
<radialGradient id="paint24_radial_1_6301" cx="0" cy="0" r="1" gradientUnits="userSpaceOnUse" gradientTransform="translate(56.6785 -24.2833) scale(141.956 141.956)">
<stop offset="0.07" stop-color="#4A5B76"/>
<stop offset="1" stop-color="#263348"/>
</radialGradient>
<radialGradient id="paint25_radial_1_6301" cx="0" cy="0" r="1" gradientUnits="userSpaceOnUse" gradientTransform="translate(57.9944 -83.7572) scale(263.676 263.676)">
<stop stop-color="#1C2129"/>
<stop offset="1"/>
</radialGradient>
<linearGradient id="paint26_linear_1_6301" x1="89.6025" y1="4.81517" x2="115.853" y2="23.088" gradientUnits="userSpaceOnUse">
<stop stop-color="#90D2F6"/>
<stop offset="0.3123" stop-color="#009FAA"/>
<stop offset="0.7592" stop-color="#00CDBD"/>
<stop offset="1" stop-color="#C2E8FD"/>
</linearGradient>
<clipPath id="clip0_1_6301">
<rect width="12" height="48" fill="white"/>
</clipPath>
<clipPath id="clip1_1_6301">
<rect width="105" height="48" fill="white" transform="translate(12)"/>
</clipPath>
<clipPath id="clip2_1_6301">
<rect width="12" height="48" fill="white" transform="translate(117)"/>
</clipPath>
</defs>
</svg>
