<svg width="150" height="64" viewBox="0 0 150 64" fill="none" xmlns="http://www.w3.org/2000/svg">
<g filter="url(#filter0_iiiii_209_36161)">
<g clip-path="url(#clip0_209_36161)">
<path fill-rule="evenodd" clip-rule="evenodd" d="M0.186433 9.49747C0.213414 9.17369 7.01274 1.32209 8.33483 1.26813C20.2876 0.647555 72.6316 0.269815 79.1611 0C82.237 0.890388 85.9335 1.43002 89.4681 1.457C120.146 1.72681 173.596 1.13322 181.853 1.26813C182.473 1.26813 190.001 8.74199 190.001 9.49747C190.001 24.6071 189.758 45.3019 189.515 54.8263C189.515 55.7707 181.88 63.1906 181.502 63.1906C180.396 63.1906 156.436 64 153.522 64C153.306 64 149.718 62.9747 147.802 62.9747C101.718 62.9477 55.1207 63.2985 9.03635 63.2985C8.36181 63.2985 0.672099 56.2563 0.591155 54.8533C0.240396 50.3744 0.0785069 41.3086 -0.00243749 32.4317C0.402284 29.6256 1.21173 22.4216 1.18475 22.1518C1.15776 21.4233 0.375303 19.6425 -0.0294189 17.8887C-0.00243749 13.4637 0.0515254 10.2799 0.159451 9.52445H0.186433V9.49747Z" fill="#1F2B3A"/>
<path fill-rule="evenodd" clip-rule="evenodd" d="M7.14843 12.3031C7.41823 11.8984 10.8447 8.20208 11.2225 8.1751L8.30858 1.24115C7.01353 1.32209 0.21448 9.14639 0.1875 9.49713L7.14843 12.3031Z" fill="url(#paint0_radial_209_36161)"/>
<path fill-rule="evenodd" clip-rule="evenodd" d="M11.2226 8.17538C34.2647 7.15009 59.3575 8.60709 80.403 9.01181L79.1619 -0.0269775C72.6324 0.269818 20.2884 0.647559 8.30859 1.24115L11.1956 8.17538H11.2226ZM89.4688 1.457L91.9781 7.55481C120.983 7.31198 166.393 8.20237 178.966 8.20237L181.853 1.26813C173.597 1.13322 120.174 1.72682 89.4688 1.457Z" fill="url(#paint1_radial_209_36161)"/>
<path fill-rule="evenodd" clip-rule="evenodd" d="M181.502 63.1905L178.318 56.3372C177.401 56.4451 156.976 55.3119 155.87 55.5278L153.522 64C156.436 64 180.396 63.1905 181.502 63.1905ZM147.775 62.9477L145.752 56.7689C101.124 56.7689 56.4701 57.8212 11.8698 56.3372L9.00977 63.2715C55.0941 63.2715 101.691 62.9207 147.775 62.9477Z" fill="url(#paint2_radial_209_36161)"/>
<path fill-rule="evenodd" clip-rule="evenodd" d="M9.00915 63.271L11.8691 56.3371C11.4374 56.3371 7.84899 52.6138 7.60617 52.1012L0.564301 54.7992C0.672222 56.2022 8.33464 63.244 9.00915 63.244V63.271Z" fill="url(#paint3_radial_209_36161)"/>
<path fill-rule="evenodd" clip-rule="evenodd" d="M0.564657 54.8263L7.60682 52.1281C7.17511 51.2917 7.90361 34.6981 7.84965 33.5109L-0.00195312 32.4317C0.0520098 41.3086 0.24088 50.3743 0.537676 54.8263H0.564657ZM-0.00195312 17.8617L7.60682 19.9393C7.60682 19.2108 6.93228 12.6543 7.14813 12.3035L0.186917 9.49744C0.105973 10.2529 0.0520098 13.4367 -0.00195312 17.8617Z" fill="url(#paint4_radial_209_36161)"/>
<path fill-rule="evenodd" clip-rule="evenodd" d="M-0.00195312 32.4312L7.79536 33.5374C7.76838 32.728 6.47333 26.5225 6.41937 22.9881L1.18518 22.1517C1.18518 22.4485 0.402752 29.6523 -0.00195312 32.4312Z" fill="url(#paint5_radial_209_36161)"/>
<path fill-rule="evenodd" clip-rule="evenodd" d="M1.21216 22.1246L6.44635 22.961C6.44635 22.6912 7.6065 20.155 7.6065 19.9122L-0.00195312 17.8347C0.402752 19.5884 1.18518 21.3691 1.21216 22.0976V22.1246Z" fill="url(#paint6_radial_209_36161)"/>
<path fill-rule="evenodd" clip-rule="evenodd" d="M7.14743 12.3035C7.41725 11.8988 10.8439 8.20234 11.2216 8.17536C34.2638 7.15006 59.3565 8.60706 80.4021 9.01178C81.7781 9.01178 88.0918 7.55478 91.9771 7.5278C120.982 7.28497 166.392 8.17536 178.965 8.17536C179.154 8.17536 182.986 11.8988 183.039 12.3035C184.389 25.2276 183.795 49.0253 183.498 51.2917C183.444 51.7774 178.615 56.3103 178.318 56.3642C177.4 56.4722 156.975 55.3389 155.869 55.5548C154.79 55.7437 146.291 56.8229 145.778 56.8229C101.151 56.8229 56.4965 57.8752 11.8962 56.3912C11.4645 56.3912 7.87593 52.6678 7.6331 52.1551C7.2014 51.3187 7.92989 34.7251 7.87593 33.5379C7.84895 32.7285 6.55384 26.5227 6.49988 22.9882C6.49988 22.7184 7.66008 20.1821 7.66008 19.9393C7.66008 19.2108 6.98554 12.6543 7.2014 12.3035H7.14743Z" fill="url(#paint7_radial_209_36161)"/>
<path style="mix-blend-mode:screen" opacity="0.75" fill-rule="evenodd" clip-rule="evenodd" d="M8.82138 12.978C8.68648 13.2209 9.9546 19.1028 9.9546 20.0472C9.9546 20.3979 8.17383 22.7723 8.17383 23.177C8.17383 24.0404 10.1974 31.7841 10.3323 33.376C10.4673 34.9679 8.92931 50.7251 9.19912 51.4266C9.30705 51.7234 12.248 54.6374 12.3829 54.6374C56.8214 56.2563 101.287 55.0961 145.725 55.0691C148.1 55.0691 154.063 52.4519 156.518 51.8313C157.84 51.4806 175.998 54.4755 177.509 54.0168C179.047 53.5312 181.745 50.914 181.799 50.6981C183.068 45.8954 182.204 19.8583 181.341 12.9241C181.341 12.7622 178.427 9.92912 178.346 9.92912C149.719 9.47044 120.659 8.76892 92.0861 8.76892C91.0069 8.76892 81.2126 12.5733 80.1064 12.4924C75.3307 12.0876 50.157 9.76723 35.0743 9.60535C27.3037 9.5244 19.506 9.47044 11.7624 9.90214C11.5735 9.90214 8.90233 12.7622 8.7944 12.978H8.82138Z" fill="url(#paint8_radial_209_36161)"/>
<g style="mix-blend-mode:screen">
<path fill-rule="evenodd" clip-rule="evenodd" d="M10.3855 8.12141C10.3855 7.60877 9.711 5.58516 9.52212 4.9376C9.25231 4.02023 8.9825 3.12985 8.71268 2.23946C8.63174 1.99663 8.76664 2.3204 8.82061 2.37437C9.25231 3.18381 11.0331 6.96121 11.6267 7.23103C12.0044 7.39292 12.544 7.4199 13.1646 7.4199C29.4075 7.20404 45.6773 7.52782 61.8931 8.52614C45.5154 8.01349 29.1916 8.04047 12.8139 8.44519C12.0584 8.44519 11.6537 8.55312 11.3569 8.63406C10.8442 8.76897 9.87288 9.47049 9.36024 9.84823C9.68401 9.38954 10.3046 8.63406 10.3855 8.09443V8.12141Z" fill="url(#paint9_linear_209_36161)"/>
</g>
<g style="mix-blend-mode:screen">
<path fill-rule="evenodd" clip-rule="evenodd" d="M7.47179 47.5943C7.41783 46.1104 7.36386 34.4279 7.22896 34.1042C6.98614 33.5646 3.55964 32.971 2.91211 32.8361C3.39776 32.8361 6.87822 32.971 7.09406 32.8361C7.39085 32.6202 6.68936 26.4417 6.6354 25.5784C7.0401 28.0336 7.52575 30.4888 8.09233 32.917C8.33516 33.9693 8.20026 34.6977 8.11931 35.723C7.84951 39.6351 7.66065 43.5743 7.47179 47.5134V47.5943Z" fill="url(#paint10_linear_209_36161)"/>
</g>
</g>
<g clip-path="url(#clip1_209_36161)">
<path fill-rule="evenodd" clip-rule="evenodd" d="M4.18916 9.49772C4.20931 9.17394 9.28729 1.32234 10.2747 1.26837C19.2014 0.647799 58.2938 0.270059 63.1703 0.000244141C65.4675 0.890632 68.2281 1.43026 70.8678 1.45724C93.7792 1.72706 133.698 1.13347 139.864 1.26837C140.327 1.26837 145.949 8.74223 145.949 9.49772C145.949 24.6073 145.768 45.3021 145.587 54.8266C145.587 55.7709 139.884 63.1908 139.602 63.1908C138.776 63.1908 120.882 64.0002 118.706 64.0002C118.544 64.0002 115.864 62.975 114.434 62.975C80.0163 62.948 45.216 63.2987 10.7986 63.2987C10.2948 63.2987 4.55187 56.2566 4.49142 54.8535C4.22946 50.3746 4.10856 41.3088 4.0481 32.432C4.35037 29.6259 4.95489 22.4218 4.93474 22.152C4.91459 21.4235 4.33021 19.6427 4.02795 17.8889C4.0481 13.464 4.08841 10.2802 4.16901 9.5247H4.18916V9.49772Z" fill="#1F2B3A"/>
<path fill-rule="evenodd" clip-rule="evenodd" d="M12.4304 8.17538C29.6391 7.15009 48.3792 8.60709 64.0968 9.01181L63.1699 -0.0269775C58.2934 0.269818 19.201 0.647559 10.2541 1.24115L12.4102 8.17538H12.4304ZM70.8674 1.457L72.7414 7.55481C94.4035 7.31198 128.317 8.20237 137.707 8.20237L139.863 1.26813C133.697 1.13322 93.7989 1.72682 70.8674 1.457Z" fill="url(#paint11_radial_209_36161)"/>
<path fill-rule="evenodd" clip-rule="evenodd" d="M63.1705 0L64.0974 9.03899C65.1251 9.03899 69.8405 7.58196 72.7423 7.55498L70.8682 1.45703C68.2284 1.43005 65.4476 0.917391 63.1705 0Z" fill="url(#paint12_radial_209_36161)"/>
<path fill-rule="evenodd" clip-rule="evenodd" d="M139.602 63.1905L137.224 56.3372C136.539 56.4451 121.285 55.3119 120.459 55.5278L118.706 64C120.882 64 138.776 63.1905 139.602 63.1905ZM114.413 62.9477L112.902 56.7689C79.5729 56.7689 46.2235 57.8212 12.9144 56.3372L10.7784 63.2715C45.1958 63.2715 79.9961 62.9207 114.413 62.9477Z" fill="url(#paint13_radial_209_36161)"/>
<path fill-rule="evenodd" clip-rule="evenodd" d="M118.707 64.0002L120.46 55.5278C119.654 55.7167 113.306 56.796 112.924 56.796L114.435 62.9749C115.886 62.9749 118.566 64.0002 118.707 64.0002Z" fill="url(#paint14_radial_209_36161)"/>
<path fill-rule="evenodd" clip-rule="evenodd" d="M9.38837 12.3036C9.58988 11.8989 12.149 8.20246 12.4311 8.17548C29.6398 7.15018 48.38 8.60718 64.0975 9.0119C65.1252 9.0119 69.8405 7.5549 72.7422 7.52792C94.4042 7.28509 128.318 8.17548 137.708 8.17548C137.849 8.17548 140.71 11.8989 140.751 12.3036C141.758 25.2278 141.315 49.0254 141.093 51.2918C141.053 51.7775 137.446 56.3104 137.224 56.3644C136.539 56.4723 121.285 55.3391 120.459 55.5549C119.653 55.7438 113.306 56.823 112.923 56.823C79.5934 56.823 46.244 57.8753 12.9349 56.3913C12.6125 56.3913 9.93244 52.6679 9.75108 52.1552C9.42867 51.3188 9.97274 34.7252 9.93244 33.538C9.91229 32.7286 8.94506 26.5229 8.90475 22.9883C8.90475 22.7185 9.77123 20.1822 9.77123 19.9394C9.77123 19.2109 9.26747 12.6544 9.42867 12.3036H9.38837Z" fill="url(#paint15_radial_209_36161)"/>
<path style="mix-blend-mode:screen" opacity="0.75" fill-rule="evenodd" clip-rule="evenodd" d="M10.6392 12.9781C10.5385 13.221 11.4856 19.1029 11.4856 20.0473C11.4856 20.398 10.1556 22.7724 10.1556 23.1771C10.1556 24.0405 11.6669 31.7842 11.7677 33.3761C11.8684 34.968 10.7198 50.7252 10.9213 51.4267C11.0019 51.7235 13.1984 54.6375 13.2991 54.6375C46.4873 56.2564 79.6957 55.0962 112.884 55.0692C114.657 55.0692 119.11 52.452 120.944 51.8314C121.932 51.4807 135.493 54.4756 136.621 54.0169C137.77 53.5313 139.785 50.9141 139.825 50.6982C140.772 45.8955 140.128 19.8584 139.483 12.9242C139.483 12.7623 137.307 9.92925 137.246 9.92925C115.866 9.47056 94.1639 8.76904 72.8243 8.76904C72.0183 8.76904 64.7036 12.5734 63.8774 12.4925C60.3107 12.0878 41.5101 9.76736 30.2459 9.60547C24.4425 9.52452 18.6189 9.47056 12.8357 9.90226C12.6946 9.90226 10.6997 12.7623 10.6191 12.9781H10.6392Z" fill="url(#paint16_radial_209_36161)"/>
<g style="mix-blend-mode:screen">
<path fill-rule="evenodd" clip-rule="evenodd" d="M11.8055 8.12153C11.8055 7.60887 11.3017 5.58525 11.1607 4.93769C10.9592 4.02031 10.7577 3.12992 10.5561 2.23952C10.4957 1.99668 10.5964 2.32047 10.6367 2.37443C10.9592 3.18388 12.2891 6.96131 12.7324 7.23113C13.0146 7.39302 13.4176 7.42 13.881 7.42C26.0119 7.20415 38.1628 7.52793 50.2735 8.52625C38.0419 8.0136 25.8507 8.04058 13.6191 8.44531C13.0549 8.44531 12.7526 8.55323 12.5309 8.63418C12.1481 8.76909 11.4226 9.47061 11.0398 9.84835C11.2816 9.38967 11.745 8.63418 11.8055 8.09454V8.12153Z" fill="url(#paint17_linear_209_36161)"/>
</g>
<g style="mix-blend-mode:screen">
<path fill-rule="evenodd" clip-rule="evenodd" d="M137.507 7.25809C137.829 6.90732 139.26 2.99498 139.562 2.29346C139.341 3.29178 138.374 7.17714 138.374 7.90565C138.374 8.49924 139.3 9.98324 139.623 10.5499C139.18 10.0912 138.253 8.85001 137.749 8.7151C136.419 8.39132 110.767 8.22943 106.797 7.74376C106.495 7.71677 107.382 7.74376 107.382 7.74376C110.525 7.60885 136.761 7.8247 137.527 7.28507L137.507 7.25809Z" fill="url(#paint18_linear_209_36161)"/>
</g>
</g>
<g clip-path="url(#clip2_209_36161)">
<path fill-rule="evenodd" clip-rule="evenodd" d="M-39.8115 9.49772C-39.7845 9.17394 -32.9852 1.32234 -31.6631 1.26837C-19.7103 0.647799 32.6337 0.270059 39.1632 0.000244141C42.2391 0.890632 45.9356 1.43026 49.4701 1.45724C80.148 1.72706 133.598 1.13347 141.855 1.26837C142.475 1.26837 150.003 8.74223 150.003 9.49772C150.003 24.6073 149.76 45.3021 149.517 54.8266C149.517 55.7709 141.882 63.1908 141.504 63.1908C140.398 63.1908 116.438 64.0002 113.524 64.0002C113.308 64.0002 109.72 62.975 107.804 62.975C61.7197 62.948 15.1227 63.2987 -30.9616 63.2987C-31.6361 63.2987 -39.3258 56.2566 -39.4068 54.8535C-39.7575 50.3746 -39.9194 41.3088 -40.0004 32.432C-39.5956 29.6259 -38.7862 22.4218 -38.8132 22.152C-38.8402 21.4235 -39.6226 19.6427 -40.0273 17.8889C-40.0004 13.464 -39.9464 10.2802 -39.8385 9.5247H-39.8115V9.49772Z" fill="#1F2B3A"/>
<path fill-rule="evenodd" clip-rule="evenodd" d="M-28.7755 8.17538C-5.7333 7.15009 19.3594 8.60709 40.405 9.01181L39.1638 -0.0269775C32.6343 0.269818 -19.7097 0.647559 -31.6895 1.24115L-28.8024 8.17538H-28.7755ZM49.4707 1.457L51.98 7.55481C80.9851 7.31198 126.395 8.20237 138.968 8.20237L141.855 1.26813C133.599 1.13322 80.1756 1.72682 49.4707 1.457Z" fill="url(#paint19_radial_209_36161)"/>
<path fill-rule="evenodd" clip-rule="evenodd" d="M141.854 1.24121L138.967 8.17555C139.156 8.17555 142.987 11.899 143.041 12.3038L150.002 9.49766C150.002 8.74216 142.474 1.26819 141.854 1.26819V1.24121Z" fill="url(#paint20_radial_209_36161)"/>
<path fill-rule="evenodd" clip-rule="evenodd" d="M150.002 9.49744L143.041 12.3035C144.39 25.2276 143.797 49.0253 143.5 51.2917L149.544 54.8263C149.786 45.3018 150.029 24.607 150.029 9.49744H150.002Z" fill="url(#paint21_radial_209_36161)"/>
<path fill-rule="evenodd" clip-rule="evenodd" d="M149.518 54.8264L143.474 51.2917C143.42 51.7774 138.59 56.3104 138.293 56.3643L141.477 63.2177C141.882 63.2177 149.464 55.7977 149.491 54.8534L149.518 54.8264Z" fill="url(#paint22_radial_209_36161)"/>
<path fill-rule="evenodd" clip-rule="evenodd" d="M141.504 63.1905L138.32 56.3372C137.403 56.4451 116.978 55.3119 115.872 55.5278L113.524 64C116.438 64 140.398 63.1905 141.504 63.1905ZM107.777 62.9477L105.754 56.7689C61.1264 56.7689 16.4721 57.8212 -28.1282 56.3372L-30.9883 63.2715C15.096 63.2715 61.693 62.9207 107.777 62.9477Z" fill="url(#paint23_radial_209_36161)"/>
<path fill-rule="evenodd" clip-rule="evenodd" d="M-32.8502 12.3035C-32.5804 11.8988 -29.1538 8.20237 -28.776 8.17539C-5.73389 7.15009 19.3589 8.60709 40.4044 9.01181C41.7804 9.01181 48.0941 7.55481 51.9794 7.52783C80.9845 7.285 126.394 8.17539 138.968 8.17539C139.157 8.17539 142.988 11.8988 143.042 12.3035C144.391 25.2277 143.797 49.0253 143.501 51.2917C143.447 51.7774 138.617 56.3103 138.32 56.3643C137.403 56.4722 116.978 55.339 115.872 55.5548C114.792 55.7437 106.293 56.8229 105.78 56.8229C61.1531 56.8229 16.4988 57.8752 -28.1015 56.3912C-28.5332 56.3912 -32.1217 52.6678 -32.3646 52.1552C-32.7963 51.3187 -32.0678 34.7251 -32.1217 33.538C-32.1487 32.7285 -33.4438 26.5228 -33.4978 22.9882C-33.4978 22.7184 -32.3376 20.1821 -32.3376 19.9393C-32.3376 19.2108 -33.0121 12.6543 -32.7963 12.3035H-32.8502Z" fill="url(#paint24_radial_209_36161)"/>
<path style="mix-blend-mode:screen" opacity="0.9" fill-rule="evenodd" clip-rule="evenodd" d="M-31.1767 12.978C-31.3116 13.2209 -30.0434 19.1028 -30.0434 20.0472C-30.0434 20.3979 -31.8242 22.7723 -31.8242 23.177C-31.8242 24.0404 -29.8006 31.7841 -29.6657 33.376C-29.5308 34.9679 -31.0687 50.7251 -30.7989 51.4266C-30.691 51.7234 -27.75 54.6374 -27.6151 54.6374C16.8233 56.2563 61.2888 55.0961 105.727 55.0691C108.102 55.0691 114.064 52.4519 116.52 51.8313C117.842 51.4806 136 54.4755 137.511 54.0168C139.049 53.5312 141.747 50.914 141.801 50.6981C143.07 45.8954 142.206 19.8583 141.343 12.9241C141.343 12.7622 138.429 9.92912 138.348 9.92912C109.72 9.47044 80.6614 8.76892 52.0881 8.76892C51.0088 8.76892 41.2146 12.5733 40.1083 12.4924C35.3326 12.0876 10.1589 9.76723 -4.92371 9.60535C-12.6944 9.5244 -20.492 9.47044 -28.2357 9.90214C-28.4246 9.90214 -31.0957 12.7622 -31.2036 12.978H-31.1767Z" fill="url(#paint25_radial_209_36161)"/>
<g style="mix-blend-mode:screen">
<path fill-rule="evenodd" clip-rule="evenodd" d="M138.698 7.25801C139.129 6.90726 141.045 2.99494 141.45 2.29343C141.153 3.29174 139.858 7.17707 139.858 7.90557C139.858 8.49916 141.099 9.98314 141.531 10.5498C140.937 10.0911 139.696 8.84992 139.022 8.71501C137.241 8.39124 102.893 8.22935 97.578 7.74368C97.1733 7.7167 98.3605 7.74368 98.3605 7.74368C102.57 7.60877 137.699 7.82462 138.725 7.285L138.698 7.25801Z" fill="url(#paint26_linear_209_36161)"/>
</g>
</g>
</g>
<defs>
<filter id="filter0_iiiii_209_36161" x="0" y="-2" width="150" height="77" filterUnits="userSpaceOnUse" color-interpolation-filters="sRGB">
<feFlood flood-opacity="0" result="BackgroundImageFix"/>
<feBlend mode="normal" in="SourceGraphic" in2="BackgroundImageFix" result="shape"/>
<feColorMatrix in="SourceAlpha" type="matrix" values="0 0 0 0 0 0 0 0 0 0 0 0 0 0 0 0 0 0 127 0" result="hardAlpha"/>
<feOffset dy="4"/>
<feGaussianBlur stdDeviation="4.2"/>
<feComposite in2="hardAlpha" operator="arithmetic" k2="-1" k3="1"/>
<feColorMatrix type="matrix" values="0 0 0 0 0.211765 0 0 0 0 1 0 0 0 0 1 0 0 0 0.5 0"/>
<feBlend mode="normal" in2="shape" result="effect1_innerShadow_209_36161"/>
<feColorMatrix in="SourceAlpha" type="matrix" values="0 0 0 0 0 0 0 0 0 0 0 0 0 0 0 0 0 0 127 0" result="hardAlpha"/>
<feOffset dy="4"/>
<feGaussianBlur stdDeviation="2"/>
<feComposite in2="hardAlpha" operator="arithmetic" k2="-1" k3="1"/>
<feColorMatrix type="matrix" values="0 0 0 0 0.211765 0 0 0 0 1 0 0 0 0 1 0 0 0 1 0"/>
<feBlend mode="normal" in2="effect1_innerShadow_209_36161" result="effect2_innerShadow_209_36161"/>
<feColorMatrix in="SourceAlpha" type="matrix" values="0 0 0 0 0 0 0 0 0 0 0 0 0 0 0 0 0 0 127 0" result="hardAlpha"/>
<feOffset dy="11"/>
<feGaussianBlur stdDeviation="7"/>
<feComposite in2="hardAlpha" operator="arithmetic" k2="-1" k3="1"/>
<feColorMatrix type="matrix" values="0 0 0 0 0.211765 0 0 0 0 1 0 0 0 0 1 0 0 0 0.3 0"/>
<feBlend mode="normal" in2="effect2_innerShadow_209_36161" result="effect3_innerShadow_209_36161"/>
<feColorMatrix in="SourceAlpha" type="matrix" values="0 0 0 0 0 0 0 0 0 0 0 0 0 0 0 0 0 0 127 0" result="hardAlpha"/>
<feOffset dy="-2"/>
<feGaussianBlur stdDeviation="2.5"/>
<feComposite in2="hardAlpha" operator="arithmetic" k2="-1" k3="1"/>
<feColorMatrix type="matrix" values="0 0 0 0 0.211765 0 0 0 0 1 0 0 0 0 1 0 0 0 0.4 0"/>
<feBlend mode="normal" in2="effect3_innerShadow_209_36161" result="effect4_innerShadow_209_36161"/>
<feColorMatrix in="SourceAlpha" type="matrix" values="0 0 0 0 0 0 0 0 0 0 0 0 0 0 0 0 0 0 127 0" result="hardAlpha"/>
<feOffset dy="4"/>
<feGaussianBlur stdDeviation="40.95"/>
<feComposite in2="hardAlpha" operator="arithmetic" k2="-1" k3="1"/>
<feColorMatrix type="matrix" values="0 0 0 0 0.211765 0 0 0 0 1 0 0 0 0 1 0 0 0 0.2 0"/>
<feBlend mode="normal" in2="effect4_innerShadow_209_36161" result="effect5_innerShadow_209_36161"/>
</filter>
<radialGradient id="paint0_radial_209_36161" cx="0" cy="0" r="1" gradientUnits="userSpaceOnUse" gradientTransform="translate(12.0858 7.98623) scale(42.0354)">
<stop stop-color="#75859D"/>
<stop offset="1" stop-color="#495573"/>
</radialGradient>
<radialGradient id="paint1_radial_209_36161" cx="0" cy="0" r="1" gradientUnits="userSpaceOnUse" gradientTransform="translate(75.3845 -26.9005) scale(343.744 343.744)">
<stop stop-color="#607492"/>
<stop offset="1" stop-color="#3B4762"/>
</radialGradient>
<radialGradient id="paint2_radial_209_36161" cx="0" cy="0" r="1" gradientUnits="userSpaceOnUse" gradientTransform="translate(102.851 37.9089) scale(461.599 461.599)">
<stop stop-color="#1A2432"/>
<stop offset="1" stop-color="#181A21"/>
</radialGradient>
<radialGradient id="paint3_radial_209_36161" cx="0" cy="0" r="1" gradientUnits="userSpaceOnUse" gradientTransform="translate(12.7324 48.8365) scale(49.2661 49.2661)">
<stop stop-color="#1A232F"/>
<stop offset="1" stop-color="#1B1D24"/>
</radialGradient>
<radialGradient id="paint4_radial_209_36161" cx="0" cy="0" r="1" gradientUnits="userSpaceOnUse" gradientTransform="translate(0.726545 10.8465) scale(145.457 145.457)">
<stop stop-color="#2C3A50"/>
<stop offset="1" stop-color="#192232"/>
</radialGradient>
<radialGradient id="paint5_radial_209_36161" cx="0" cy="0" r="1" gradientUnits="userSpaceOnUse" gradientTransform="translate(1.72479 35.8038) scale(38.0693 38.0693)">
<stop stop-color="#556784"/>
<stop offset="1" stop-color="#26324A"/>
</radialGradient>
<radialGradient id="paint6_radial_209_36161" cx="0" cy="0" r="1" gradientUnits="userSpaceOnUse" gradientTransform="translate(4.80055 17.8077) scale(37.9074)">
<stop stop-color="#1A2432"/>
<stop offset="1" stop-color="#181A21"/>
</radialGradient>
<radialGradient id="paint7_radial_209_36161" cx="0" cy="0" r="1" gradientUnits="userSpaceOnUse" gradientTransform="translate(93.569 -32.3778) scale(189.275 189.275)">
<stop offset="0.07" stop-color="#4A5B76"/>
<stop offset="1" stop-color="#263348"/>
</radialGradient>
<radialGradient id="paint8_radial_209_36161" cx="0" cy="0" r="1" gradientUnits="userSpaceOnUse" gradientTransform="translate(95.3239 -111.676) scale(351.568 351.568)">
<stop stop-color="#1C2129"/>
<stop offset="1"/>
</radialGradient>
<linearGradient id="paint9_linear_209_36161" x1="8.65859" y1="5.99795" x2="43.2738" y2="37.2212" gradientUnits="userSpaceOnUse">
<stop stop-color="#90D2F6"/>
<stop offset="0.3123" stop-color="#009FAA"/>
<stop offset="0.7592" stop-color="#00CDBD"/>
<stop offset="1" stop-color="#C2E8FD"/>
</linearGradient>
<linearGradient id="paint10_linear_209_36161" x1="2.90923" y1="36.5827" x2="9.17819" y2="36.7804" gradientUnits="userSpaceOnUse">
<stop stop-color="#90D2F6"/>
<stop offset="0.3123" stop-color="#009FAA"/>
<stop offset="0.7592" stop-color="#00CDBD"/>
<stop offset="1" stop-color="#C2E8FD"/>
</linearGradient>
<radialGradient id="paint11_radial_209_36161" cx="0" cy="0" r="1" gradientUnits="userSpaceOnUse" gradientTransform="translate(60.3488 -26.9005) scale(256.72 343.744)">
<stop stop-color="#607492"/>
<stop offset="1" stop-color="#3B4762"/>
</radialGradient>
<radialGradient id="paint12_radial_209_36161" cx="0" cy="0" r="1" gradientUnits="userSpaceOnUse" gradientTransform="translate(56.4198 -7.20421) scale(52.6147 70.4502)">
<stop stop-color="#556784"/>
<stop offset="1" stop-color="#26324A"/>
</radialGradient>
<radialGradient id="paint13_radial_209_36161" cx="0" cy="0" r="1" gradientUnits="userSpaceOnUse" gradientTransform="translate(80.8626 37.9089) scale(344.738 461.599)">
<stop stop-color="#1A2432"/>
<stop offset="1" stop-color="#181A21"/>
</radialGradient>
<radialGradient id="paint14_radial_209_36161" cx="0" cy="0" r="1" gradientUnits="userSpaceOnUse" gradientTransform="translate(120.863 58.1721) scale(59.587 79.786)">
<stop stop-color="#1D2738"/>
<stop offset="1" stop-color="#131924"/>
</radialGradient>
<radialGradient id="paint15_radial_209_36161" cx="0" cy="0" r="1" gradientUnits="userSpaceOnUse" gradientTransform="translate(73.9311 -32.3776) scale(141.357 189.275)">
<stop offset="0.07" stop-color="#4A5B76"/>
<stop offset="1" stop-color="#263348"/>
</radialGradient>
<radialGradient id="paint16_radial_209_36161" cx="0" cy="0" r="1" gradientUnits="userSpaceOnUse" gradientTransform="translate(75.2424 -111.676) scale(262.564 351.568)">
<stop stop-color="#1C2129"/>
<stop offset="1"/>
</radialGradient>
<linearGradient id="paint17_linear_209_36161" x1="10.5157" y1="5.99805" x2="42.7661" y2="27.7237" gradientUnits="userSpaceOnUse">
<stop stop-color="#90D2F6"/>
<stop offset="0.3123" stop-color="#009FAA"/>
<stop offset="0.7592" stop-color="#00CDBD"/>
<stop offset="1" stop-color="#C2E8FD"/>
</linearGradient>
<linearGradient id="paint18_linear_209_36161" x1="106.716" y1="6.4203" x2="137.266" y2="22.302" gradientUnits="userSpaceOnUse">
<stop stop-color="#90D2F6"/>
<stop offset="0.3123" stop-color="#009FAA"/>
<stop offset="0.7592" stop-color="#00CDBD"/>
<stop offset="1" stop-color="#C2E8FD"/>
</linearGradient>
<radialGradient id="paint19_radial_209_36161" cx="0" cy="0" r="1" gradientUnits="userSpaceOnUse" gradientTransform="translate(35.3864 -26.9005) scale(343.744 343.744)">
<stop stop-color="#607492"/>
<stop offset="1" stop-color="#3B4762"/>
</radialGradient>
<radialGradient id="paint20_radial_209_36161" cx="0" cy="0" r="1" gradientUnits="userSpaceOnUse" gradientTransform="translate(111.122 12.9783) scale(68.4529 68.4529)">
<stop stop-color="#75859D"/>
<stop offset="1" stop-color="#495573"/>
</radialGradient>
<radialGradient id="paint21_radial_209_36161" cx="0" cy="0" r="1" gradientUnits="userSpaceOnUse" gradientTransform="translate(124.154 26.3069) scale(113.295 113.295)">
<stop stop-color="#2C3A50"/>
<stop offset="1" stop-color="#192232"/>
</radialGradient>
<radialGradient id="paint22_radial_209_36161" cx="0" cy="0" r="1" gradientUnits="userSpaceOnUse" gradientTransform="translate(131.278 48.9173) scale(43.5487 43.5487)">
<stop stop-color="#1A232F"/>
<stop offset="1" stop-color="#1B1D24"/>
</radialGradient>
<radialGradient id="paint23_radial_209_36161" cx="0" cy="0" r="1" gradientUnits="userSpaceOnUse" gradientTransform="translate(62.8532 37.9089) scale(461.599 461.599)">
<stop stop-color="#1A2432"/>
<stop offset="1" stop-color="#181A21"/>
</radialGradient>
<radialGradient id="paint24_radial_209_36161" cx="0" cy="0" r="1" gradientUnits="userSpaceOnUse" gradientTransform="translate(53.5713 -32.3777) scale(189.275 189.275)">
<stop offset="0.07" stop-color="#4A5B76"/>
<stop offset="1" stop-color="#263348"/>
</radialGradient>
<radialGradient id="paint25_radial_209_36161" cx="0" cy="0" r="1" gradientUnits="userSpaceOnUse" gradientTransform="translate(55.3259 -111.676) scale(351.568 351.568)">
<stop stop-color="#1C2129"/>
<stop offset="1"/>
</radialGradient>
<linearGradient id="paint26_linear_209_36161" x1="97.47" y1="6.42023" x2="132.471" y2="30.784" gradientUnits="userSpaceOnUse">
<stop stop-color="#90D2F6"/>
<stop offset="0.3123" stop-color="#009FAA"/>
<stop offset="0.7592" stop-color="#00CDBD"/>
<stop offset="1" stop-color="#C2E8FD"/>
</linearGradient>
<clipPath id="clip0_209_36161">
<rect width="16" height="64" fill="white"/>
</clipPath>
<clipPath id="clip1_209_36161">
<rect width="118" height="64" fill="white" transform="translate(16)"/>
</clipPath>
<clipPath id="clip2_209_36161">
<rect width="16" height="64" fill="white" transform="translate(134)"/>
</clipPath>
</defs>
</svg>
