<svg width="129" height="48" viewBox="0 0 129 48" fill="none" xmlns="http://www.w3.org/2000/svg">
<g clip-path="url(#clip0_79509_1627)">
<path fill-rule="evenodd" clip-rule="evenodd" d="M0.139916 7.1231C0.160152 6.88027 5.25965 0.991568 6.25121 0.951096C15.2158 0.485666 54.4738 0.202361 59.3709 0C61.6779 0.667791 64.4502 1.07251 67.1011 1.09275C90.1096 1.29511 130.197 0.849916 136.39 0.951096C136.855 0.951096 142.501 6.55649 142.501 7.1231C142.501 18.4553 142.319 33.9764 142.137 41.1197C142.137 41.828 136.41 47.3929 136.126 47.3929C135.297 47.3929 117.327 48 115.142 48C114.98 48 112.288 47.231 110.852 47.231C76.2883 47.2108 41.3406 47.4739 6.77735 47.4739C6.27145 47.4739 0.504166 42.1922 0.443457 41.14C0.180388 37.7808 0.0589717 30.9815 -0.00173657 24.3238C0.301805 22.2192 0.908887 16.8162 0.888651 16.6138C0.868415 16.0675 0.281569 14.7319 -0.0219727 13.4165C-0.00173657 10.0978 0.0387356 7.70995 0.11968 7.14334H0.139916V7.1231Z" fill="#1F2B3A"/>
<path fill-rule="evenodd" clip-rule="evenodd" d="M5.36132 9.22736C5.56367 8.92383 8.13355 6.1516 8.41684 6.13137L6.23144 0.930908C5.26014 0.991614 0.16086 6.85984 0.140625 7.1229L5.36132 9.22736Z" fill="url(#paint0_radial_79509_1627)"/>
<path fill-rule="evenodd" clip-rule="evenodd" d="M8.41694 6.13163C25.6986 5.36266 44.5181 6.45541 60.3023 6.75895L59.3714 -0.0201416C54.4743 0.202455 15.2163 0.485761 6.23145 0.930955L8.39671 6.13163H8.41694ZM67.1016 1.09284L68.9836 5.6662C90.7374 5.48407 124.795 6.15187 134.225 6.15187L136.39 0.951191C130.198 0.85001 90.1303 1.2952 67.1016 1.09284Z" fill="url(#paint1_radial_79509_1627)"/>
<path fill-rule="evenodd" clip-rule="evenodd" d="M136.127 47.393L133.739 42.253C133.051 42.3339 117.732 41.484 116.902 41.6459L115.142 48.0001C117.327 48.0001 135.297 47.393 136.127 47.393ZM110.832 47.2108L109.314 42.5768C75.8433 42.5768 42.3526 43.366 8.90235 42.253L6.75732 47.4537C41.3206 47.4537 76.2683 47.1906 110.832 47.2108Z" fill="url(#paint2_radial_79509_1627)"/>
<path fill-rule="evenodd" clip-rule="evenodd" d="M6.75697 47.4533L8.90191 42.2529C8.57815 42.2529 5.88686 39.4604 5.70474 39.0759L0.42334 41.0995C0.504281 42.1517 6.25109 47.4331 6.75697 47.4331V47.4533Z" fill="url(#paint3_radial_79509_1627)"/>
<path fill-rule="evenodd" clip-rule="evenodd" d="M0.423493 41.1198L5.70511 39.0962C5.38133 38.4689 5.92771 26.0237 5.88724 25.1333L-0.00146484 24.3238C0.0390073 30.9815 0.18066 37.7808 0.403257 41.1198H0.423493ZM-0.00146484 13.3964L5.70511 14.9545C5.70511 14.4082 5.19921 9.49079 5.3611 9.22772L0.140188 7.12317C0.0794795 7.68978 0.0390073 10.0776 -0.00146484 13.3964Z" fill="url(#paint4_radial_79509_1627)"/>
<path fill-rule="evenodd" clip-rule="evenodd" d="M-0.00146484 24.3235L5.84652 25.1532C5.82629 24.5461 4.855 19.892 4.81452 17.2412L0.888886 16.6139C0.888886 16.8365 0.302064 22.2393 -0.00146484 24.3235Z" fill="url(#paint5_radial_79509_1627)"/>
<path fill-rule="evenodd" clip-rule="evenodd" d="M0.909122 16.5935L4.83476 17.2208C4.83476 17.0184 5.70488 15.1163 5.70488 14.9342L-0.00146484 13.3761C0.302064 14.6914 0.888886 16.0269 0.909122 16.5733V16.5935Z" fill="url(#paint6_radial_79509_1627)"/>
<path fill-rule="evenodd" clip-rule="evenodd" d="M5.36067 9.22776C5.56303 8.92422 8.13301 6.15188 8.41631 6.13164C25.6979 5.36267 44.5175 6.45542 60.3016 6.75896C61.3337 6.75896 66.0689 5.66621 68.9829 5.64597C90.7367 5.46385 124.794 6.13164 134.224 6.13164C134.366 6.13164 137.239 8.92422 137.28 9.22776C138.292 18.9208 137.846 36.7691 137.624 38.4689C137.583 38.8332 133.961 42.2328 133.738 42.2733C133.05 42.3542 117.732 41.5043 116.902 41.6662C116.093 41.8079 109.718 42.6173 109.334 42.6173C75.8632 42.6173 42.3725 43.4065 8.92222 42.2935C8.59844 42.2935 5.90704 39.5009 5.72492 39.1165C5.40114 38.4891 5.94751 26.044 5.90704 25.1536C5.8868 24.5465 4.91547 19.8922 4.875 17.2413C4.875 17.0389 5.74515 15.1367 5.74515 14.9546C5.74515 14.4082 5.23925 9.49083 5.40114 9.22776H5.36067Z" fill="url(#paint7_radial_79509_1627)"/>
<path style="mix-blend-mode:screen" opacity="0.75" fill-rule="evenodd" clip-rule="evenodd" d="M6.61604 9.73361C6.51486 9.91574 7.46595 14.3272 7.46595 15.0355C7.46595 15.2985 6.13037 17.0793 6.13037 17.3829C6.13037 18.0304 7.64808 23.8382 7.74926 25.0321C7.85044 26.226 6.69698 38.0439 6.89934 38.57C6.98029 38.7926 9.18602 40.9781 9.2872 40.9781C42.616 42.1923 75.9651 41.3222 109.294 41.3019C111.075 41.3019 115.547 39.339 117.388 38.8736C118.38 38.6105 131.999 40.8567 133.132 40.5127C134.285 40.1485 136.309 38.1856 136.35 38.0237C137.301 34.4216 136.653 14.8938 136.006 9.69314C136.006 9.57172 133.82 7.44693 133.759 7.44693C112.289 7.10292 90.4946 6.57678 69.0646 6.57678C68.2551 6.57678 60.9095 9.43007 60.0798 9.36936C56.498 9.06582 37.6177 7.32552 26.3057 7.2041C20.4778 7.14339 14.6295 7.10292 8.82177 7.4267C8.68012 7.4267 6.67675 9.57172 6.5958 9.73361H6.61604Z" fill="url(#paint8_radial_79509_1627)"/>
<path style="mix-blend-mode:screen" fill-rule="evenodd" clip-rule="evenodd" d="M7.78919 6.09108C7.78919 5.70659 7.28329 4.18888 7.14164 3.70322C6.93928 3.01519 6.73692 2.3474 6.53456 1.67961C6.47385 1.49748 6.57503 1.74032 6.6155 1.78079C6.93928 2.38787 8.27486 5.22092 8.72005 5.42329C9.00336 5.5447 9.40808 5.56494 9.87351 5.56494C22.0556 5.40305 34.258 5.64588 46.4199 6.39462C34.1366 6.01013 21.8937 6.03037 9.61044 6.33391C9.04383 6.33391 8.74029 6.41485 8.51769 6.47556C8.13321 6.57674 7.40471 7.10288 7.02022 7.38619C7.26306 7.04217 7.72849 6.47556 7.78919 6.07084V6.09108Z" fill="url(#paint9_radial_79509_1627)"/>
<path style="mix-blend-mode:screen" fill-rule="evenodd" clip-rule="evenodd" d="M5.60384 35.6958C5.56337 34.5829 5.5229 25.821 5.42172 25.5782C5.23961 25.1735 2.66973 24.7283 2.18408 24.6271C2.54832 24.6271 5.15866 24.7283 5.32055 24.6271C5.54313 24.4652 5.01702 19.8314 4.97655 19.1838C5.28008 21.0252 5.64431 22.8667 6.06925 24.6878C6.25137 25.477 6.15019 26.0234 6.08949 26.7923C5.88713 29.7264 5.74549 32.6808 5.60384 35.6351V35.6958Z" fill="url(#paint10_radial_79509_1627)"/>
</g>
<g clip-path="url(#clip1_79509_1627)">
<path fill-rule="evenodd" clip-rule="evenodd" d="M1.49013 7.12323C1.50806 6.88039 6.0266 0.99169 6.9052 0.951218C14.8485 0.485788 49.6341 0.202483 53.9733 0.00012207C56.0174 0.667913 58.4739 1.07263 60.8228 1.09287C81.2101 1.29523 116.731 0.850038 122.218 0.951218C122.63 0.951218 127.633 6.55661 127.633 7.12323C127.633 18.4554 127.471 33.9765 127.31 41.1199C127.31 41.8281 122.236 47.393 121.985 47.393C121.249 47.393 105.327 48.0001 103.39 48.0001C103.247 48.0001 100.862 47.2312 99.589 47.2312C68.9634 47.2109 37.9971 47.474 7.3714 47.474C6.92313 47.474 1.81288 42.1924 1.75909 41.1401C1.52599 37.7809 1.4184 30.9816 1.36461 24.3239C1.63357 22.2193 2.17149 16.8163 2.15356 16.614C2.13563 16.0676 1.61564 14.732 1.34668 13.4166C1.36461 10.0979 1.40047 7.71007 1.47219 7.14346H1.49013V7.12323Z" fill="#1F2B3A"/>
<path fill-rule="evenodd" clip-rule="evenodd" d="M8.82324 6.13151C24.1361 5.36254 40.8116 6.45528 54.7976 6.75883L53.9728 -0.0202637C49.6335 0.202333 14.848 0.485639 6.88672 0.930833L8.8053 6.13151H8.82324ZM60.8223 1.09272L62.4898 5.66608C81.7654 5.48395 111.943 6.15174 120.298 6.15174L122.217 0.951069C116.73 0.849888 81.2274 1.29508 60.8223 1.09272Z" fill="url(#paint11_radial_79509_1627)"/>
<path fill-rule="evenodd" clip-rule="evenodd" d="M53.9736 0L54.7985 6.77925C55.713 6.77925 59.9088 5.68647 62.4909 5.66624L60.8233 1.09277C58.4743 1.07254 55.9998 0.688043 53.9736 0Z" fill="url(#paint12_radial_79509_1627)"/>
<path fill-rule="evenodd" clip-rule="evenodd" d="M121.985 47.3929L119.869 42.2529C119.259 42.3338 105.686 41.4839 104.95 41.6458L103.39 47.9999C105.327 47.9999 121.249 47.3929 121.985 47.3929ZM99.5712 47.2107L98.2264 42.5767C68.569 42.5767 38.8936 43.3659 9.25417 42.2529L7.35352 47.4536C37.9792 47.4536 68.9455 47.1905 99.5712 47.2107Z" fill="url(#paint13_radial_79509_1627)"/>
<path fill-rule="evenodd" clip-rule="evenodd" d="M103.391 48.0002L104.951 41.6459C104.234 41.7875 98.5858 42.597 98.2451 42.597L99.59 47.2312C100.881 47.2312 103.266 48.0002 103.391 48.0002Z" fill="url(#paint14_radial_79509_1627)"/>
<path fill-rule="evenodd" clip-rule="evenodd" d="M6.11637 9.22776C6.29568 8.92422 8.57288 6.15188 8.82391 6.13164C24.1367 5.36267 40.8123 6.45542 54.7983 6.75896C55.7127 6.75896 59.9085 5.66621 62.4905 5.64597C81.766 5.46385 111.943 6.13164 120.299 6.13164C120.425 6.13164 122.971 8.92422 123.007 9.22776C123.903 18.9208 123.509 36.7691 123.311 38.4689C123.276 38.8332 120.066 42.2328 119.869 42.2733C119.259 42.3542 105.686 41.5043 104.95 41.6662C104.233 41.8079 98.585 42.6173 98.2444 42.6173C68.587 42.6173 38.9116 43.4065 9.27218 42.2935C8.98529 42.2935 6.6005 39.5009 6.43912 39.1165C6.15223 38.4891 6.63636 26.044 6.6005 25.1536C6.58257 24.5465 5.7219 19.8922 5.68604 17.2413C5.68604 17.0389 6.45706 15.1367 6.45706 14.9546C6.45706 14.4082 6.00879 9.49083 6.15223 9.22776H6.11637Z" fill="url(#paint15_radial_79509_1627)"/>
<path style="mix-blend-mode:screen" opacity="0.75" fill-rule="evenodd" clip-rule="evenodd" d="M7.22965 9.73361C7.14 9.91574 7.98274 14.3272 7.98274 15.0355C7.98274 15.2985 6.79932 17.0793 6.79932 17.3829C6.79932 18.0304 8.14412 23.8382 8.23377 25.0321C8.32343 26.226 7.30138 38.0439 7.48068 38.57C7.55241 38.7926 9.50685 40.9781 9.59651 40.9781C39.1284 42.1923 68.6782 41.3222 98.2101 41.3019C99.788 41.3019 103.751 39.339 105.382 38.8736C106.261 38.6105 118.328 40.8567 119.332 40.5127C120.355 40.1485 122.148 38.1856 122.183 38.0237C123.026 34.4216 122.452 14.8938 121.879 9.69314C121.879 9.57172 119.942 7.44693 119.888 7.44693C100.864 7.10292 81.5525 6.57678 62.5638 6.57678C61.8466 6.57678 55.3378 9.43007 54.6026 9.36936C51.4289 9.06582 34.6995 7.32552 24.6762 7.2041C19.5122 7.14339 14.3302 7.10292 9.1841 7.4267C9.05859 7.4267 7.28345 9.57172 7.21172 9.73361H7.22965Z" fill="url(#paint16_radial_79509_1627)"/>
<path style="mix-blend-mode:screen" fill-rule="evenodd" clip-rule="evenodd" d="M8.26716 6.09111C8.26716 5.70663 7.81889 4.18891 7.69337 3.70324C7.51406 3.0152 7.33476 2.34741 7.15545 1.67961C7.10165 1.49748 7.19131 1.74032 7.22717 1.78079C7.51406 2.38788 8.6975 5.22096 9.09198 5.42332C9.34301 5.54474 9.70163 5.56497 10.114 5.56497C20.9084 5.40308 31.7207 5.64592 42.4972 6.39466C31.6131 6.01017 20.765 6.03041 9.88094 6.33395C9.37887 6.33395 9.10991 6.41489 8.91267 6.4756C8.57198 6.57678 7.92647 7.10293 7.58579 7.38624C7.80096 7.04222 8.21337 6.4756 8.26716 6.07088V6.09111Z" fill="url(#paint17_radial_79509_1627)"/>
<path style="mix-blend-mode:screen" fill-rule="evenodd" clip-rule="evenodd" d="M120.12 5.44356C120.407 5.18049 121.68 2.24624 121.949 1.72009C121.752 2.46883 120.891 5.38286 120.891 5.92923C120.891 6.37443 121.716 7.48743 122.003 7.91239C121.609 7.56837 120.784 6.6375 120.335 6.53632C119.152 6.29349 96.3261 6.17207 92.7937 5.80782C92.5247 5.78758 93.3137 5.80782 93.3137 5.80782C96.1109 5.70664 119.457 5.86853 120.138 5.4638L120.12 5.44356Z" fill="url(#paint18_radial_79509_1627)"/>
</g>
<g clip-path="url(#clip2_79509_1627)">
<path fill-rule="evenodd" clip-rule="evenodd" d="M-13.3586 7.12323C-13.3384 6.88039 -8.23889 0.99169 -7.24732 0.951218C1.71727 0.485788 40.9753 0.202483 45.8724 0.00012207C48.1793 0.667913 50.9517 1.07263 53.6026 1.09287C76.611 1.29523 116.699 0.850038 122.891 0.951218C123.356 0.951218 129.002 6.55661 129.002 7.12323C129.002 18.4554 128.82 33.9765 128.638 41.1199C128.638 41.8281 122.911 47.393 122.628 47.393C121.798 47.393 103.829 48.0001 101.643 48.0001C101.481 48.0001 98.7898 47.2312 97.353 47.2312C62.7898 47.2109 27.8421 47.474 -6.72118 47.474C-7.22709 47.474 -12.9944 42.1924 -13.0551 41.1401C-13.3181 37.7809 -13.4396 30.9816 -13.5003 24.3239C-13.1967 22.2193 -12.5896 16.8163 -12.6099 16.614C-12.6301 16.0676 -13.217 14.732 -13.5205 13.4166C-13.5003 10.0979 -13.4598 7.71007 -13.3789 7.14346H-13.3586V7.12323Z" fill="#1F2B3A"/>
<path fill-rule="evenodd" clip-rule="evenodd" d="M-5.08159 6.13151C12.2 5.36254 31.0196 6.45528 46.8037 6.75883L45.8729 -0.0202637C40.9757 0.202333 1.71773 0.485639 -7.26709 0.930833L-5.10183 6.13151H-5.08159ZM53.6031 1.09272L55.485 5.66608C77.2388 5.48395 111.296 6.15174 120.726 6.15174L122.891 0.951069C116.699 0.849888 76.6317 1.29508 53.6031 1.09272Z" fill="url(#paint19_radial_79509_1627)"/>
<path fill-rule="evenodd" clip-rule="evenodd" d="M122.89 0.930908L120.725 6.13166C120.867 6.13166 123.74 8.92428 123.781 9.22783L129.002 7.12324C129.002 6.55662 123.356 0.951145 122.89 0.951145V0.930908Z" fill="url(#paint20_radial_79509_1627)"/>
<path fill-rule="evenodd" clip-rule="evenodd" d="M129.002 7.12305L123.781 9.2276C124.793 18.9207 124.347 36.7689 124.125 38.4687L128.658 41.1197C128.84 33.9763 129.022 18.4553 129.022 7.12305H129.002Z" fill="url(#paint21_radial_79509_1627)"/>
<path fill-rule="evenodd" clip-rule="evenodd" d="M128.638 41.1197L124.105 38.4688C124.065 38.833 120.442 42.2327 120.22 42.2732L122.608 47.4132C122.911 47.4132 128.598 41.8482 128.618 41.14L128.638 41.1197Z" fill="url(#paint22_radial_79509_1627)"/>
<path fill-rule="evenodd" clip-rule="evenodd" d="M122.628 47.3929L120.24 42.2529C119.552 42.3338 104.233 41.4839 103.404 41.6458L101.643 47.9999C103.829 47.9999 121.798 47.3929 122.628 47.3929ZM97.333 47.2107L95.8153 42.5767C62.3448 42.5767 28.8541 43.3659 -4.59619 42.2529L-6.74121 47.4536C27.822 47.4536 62.7697 47.1905 97.333 47.2107Z" fill="url(#paint23_radial_79509_1627)"/>
<path fill-rule="evenodd" clip-rule="evenodd" d="M-8.13787 9.22764C-7.93551 8.9241 -5.36553 6.15175 -5.08222 6.13152C12.1994 5.36255 31.019 6.45529 46.8031 6.75884C47.8351 6.75884 52.5704 5.66609 55.4844 5.64585C77.2382 5.46373 111.296 6.13152 120.726 6.13152C120.867 6.13152 123.741 8.9241 123.781 9.22764C124.793 18.9207 124.348 36.769 124.125 38.4688C124.085 38.833 120.462 42.2327 120.24 42.2732C119.552 42.3541 104.233 41.5042 103.403 41.6661C102.594 41.8077 96.2196 42.6172 95.8351 42.6172C62.3647 42.6172 28.8739 43.4064 -4.57632 42.2934C-4.9001 42.2934 -7.5915 39.5008 -7.77362 39.1163C-8.0974 38.489 -7.55102 26.0438 -7.59149 25.1534C-7.61173 24.5464 -8.58306 19.8921 -8.62354 17.2411C-8.62354 17.0388 -7.75338 15.1366 -7.75338 14.9545C-7.75338 14.4081 -8.25929 9.49071 -8.0974 9.22764H-8.13787Z" fill="url(#paint24_radial_79509_1627)"/>
<path style="mix-blend-mode:screen" opacity="0.75" fill-rule="evenodd" clip-rule="evenodd" d="M-6.8825 9.73349C-6.98368 9.91562 -6.03258 14.3271 -6.03258 15.0353C-6.03258 15.2984 -7.36816 17.0792 -7.36816 17.3827C-7.36816 18.0303 -5.85046 23.838 -5.74928 25.032C-5.6481 26.2259 -6.80155 38.0438 -6.59919 38.5699C-6.51825 38.7925 -4.31252 40.978 -4.21133 40.978C29.1175 42.1922 62.4666 41.322 95.7954 41.3018C97.5762 41.3018 102.048 39.3389 103.89 38.8735C104.881 38.6104 118.5 40.8566 119.634 40.5126C120.787 40.1483 122.811 38.1854 122.851 38.0235C123.802 34.4215 123.155 14.8937 122.507 9.69302C122.507 9.5716 120.322 7.44681 120.261 7.44681C98.7903 7.1028 76.9961 6.57666 55.5661 6.57666C54.7566 6.57666 47.4109 9.42995 46.5812 9.36924C42.9995 9.0657 24.1192 7.3254 12.8072 7.20398C6.97922 7.14327 1.13099 7.1028 -4.67676 7.42658C-4.81842 7.42658 -6.82179 9.5716 -6.90273 9.73349H-6.8825Z" fill="url(#paint25_radial_79509_1627)"/>
<path style="mix-blend-mode:screen" fill-rule="evenodd" clip-rule="evenodd" d="M120.523 5.44353C120.847 5.18046 122.284 2.24623 122.588 1.72009C122.365 2.46883 121.394 5.38283 121.394 5.9292C121.394 6.37439 122.324 7.48738 122.648 7.91234C122.203 7.56832 121.272 6.63746 120.766 6.53628C119.431 6.29345 93.6702 6.17203 89.6837 5.80778C89.3802 5.78755 90.2705 5.80778 90.2705 5.80778C93.4274 5.7066 119.775 5.86849 120.544 5.46377L120.523 5.44353Z" fill="url(#paint26_radial_79509_1627)"/>
</g>
<defs>
<radialGradient id="paint0_radial_79509_1627" cx="0" cy="0" r="1" gradientUnits="userSpaceOnUse" gradientTransform="translate(9.06437 5.98972) scale(31.5265 31.5265)">
<stop stop-color="#75859D"/>
<stop offset="1" stop-color="#495573"/>
</radialGradient>
<radialGradient id="paint1_radial_79509_1627" cx="0" cy="0" r="1" gradientUnits="userSpaceOnUse" gradientTransform="translate(56.5384 -20.1753) scale(257.808 257.808)">
<stop stop-color="#607492"/>
<stop offset="1" stop-color="#3B4762"/>
</radialGradient>
<radialGradient id="paint2_radial_79509_1627" cx="0" cy="0" r="1" gradientUnits="userSpaceOnUse" gradientTransform="translate(77.1384 28.4318) scale(346.199 346.199)">
<stop stop-color="#1A2432"/>
<stop offset="1" stop-color="#181A21"/>
</radialGradient>
<radialGradient id="paint3_radial_79509_1627" cx="0" cy="0" r="1" gradientUnits="userSpaceOnUse" gradientTransform="translate(9.54944 36.6275) scale(36.9496 36.9496)">
<stop stop-color="#1A232F"/>
<stop offset="1" stop-color="#1B1D24"/>
</radialGradient>
<radialGradient id="paint4_radial_79509_1627" cx="0" cy="0" r="1" gradientUnits="userSpaceOnUse" gradientTransform="translate(0.544909 8.13497) scale(109.093 109.093)">
<stop stop-color="#2C3A50"/>
<stop offset="1" stop-color="#192232"/>
</radialGradient>
<radialGradient id="paint5_radial_79509_1627" cx="0" cy="0" r="1" gradientUnits="userSpaceOnUse" gradientTransform="translate(1.29359 26.8529) scale(28.5519 28.5519)">
<stop stop-color="#556784"/>
<stop offset="1" stop-color="#26324A"/>
</radialGradient>
<radialGradient id="paint6_radial_79509_1627" cx="0" cy="0" r="1" gradientUnits="userSpaceOnUse" gradientTransform="translate(3.60041 13.3559) scale(28.4305)">
<stop stop-color="#1A2432"/>
<stop offset="1" stop-color="#181A21"/>
</radialGradient>
<radialGradient id="paint7_radial_79509_1627" cx="0" cy="0" r="1" gradientUnits="userSpaceOnUse" gradientTransform="translate(70.1769 -24.2832) scale(141.956 141.956)">
<stop offset="0.07" stop-color="#4A5B76"/>
<stop offset="1" stop-color="#263348"/>
</radialGradient>
<radialGradient id="paint8_radial_79509_1627" cx="0" cy="0" r="1" gradientUnits="userSpaceOnUse" gradientTransform="translate(71.4929 -83.7571) scale(263.676 263.676)">
<stop stop-color="#1C2129"/>
<stop offset="1"/>
</radialGradient>
<radialGradient id="paint9_radial_79509_1627" cx="0" cy="0" r="1" gradientUnits="userSpaceOnUse" gradientTransform="translate(8.19392 5.84824) scale(39.5616 39.5616)">
<stop stop-color="#1D2536"/>
<stop offset="0.07" stop-color="#19202F"/>
<stop offset="0.43" stop-color="#0B0E15"/>
<stop offset="0.75" stop-color="#020305"/>
<stop offset="1"/>
</radialGradient>
<radialGradient id="paint10_radial_79509_1627" cx="0" cy="0" r="1" gradientUnits="userSpaceOnUse" gradientTransform="translate(5.66455 25.1128) scale(14.9336)">
<stop stop-color="#1D2536"/>
<stop offset="0.07" stop-color="#19202F"/>
<stop offset="0.43" stop-color="#0B0E15"/>
<stop offset="0.75" stop-color="#020305"/>
<stop offset="1"/>
</radialGradient>
<radialGradient id="paint11_radial_79509_1627" cx="0" cy="0" r="1" gradientUnits="userSpaceOnUse" gradientTransform="translate(51.4625 -20.1754) scale(228.437 257.808)">
<stop stop-color="#607492"/>
<stop offset="1" stop-color="#3B4762"/>
</radialGradient>
<radialGradient id="paint12_radial_79509_1627" cx="0" cy="0" r="1" gradientUnits="userSpaceOnUse" gradientTransform="translate(47.9667 -5.40316) scale(46.8182 52.8376)">
<stop stop-color="#556784"/>
<stop offset="1" stop-color="#26324A"/>
</radialGradient>
<radialGradient id="paint13_radial_79509_1627" cx="0" cy="0" r="1" gradientUnits="userSpaceOnUse" gradientTransform="translate(69.7165 28.4316) scale(306.759 346.199)">
<stop stop-color="#1A2432"/>
<stop offset="1" stop-color="#181A21"/>
</radialGradient>
<radialGradient id="paint14_radial_79509_1627" cx="0" cy="0" r="1" gradientUnits="userSpaceOnUse" gradientTransform="translate(105.31 43.6291) scale(53.0224 59.8395)">
<stop stop-color="#1D2738"/>
<stop offset="1" stop-color="#131924"/>
</radialGradient>
<radialGradient id="paint15_radial_79509_1627" cx="0" cy="0" r="1" gradientUnits="userSpaceOnUse" gradientTransform="translate(63.5484 -24.2832) scale(125.784 141.956)">
<stop offset="0.07" stop-color="#4A5B76"/>
<stop offset="1" stop-color="#263348"/>
</radialGradient>
<radialGradient id="paint16_radial_79509_1627" cx="0" cy="0" r="1" gradientUnits="userSpaceOnUse" gradientTransform="translate(64.7155 -83.7571) scale(233.637 263.676)">
<stop stop-color="#1C2129"/>
<stop offset="1"/>
</radialGradient>
<radialGradient id="paint17_radial_79509_1627" cx="0" cy="0" r="1" gradientUnits="userSpaceOnUse" gradientTransform="translate(8.62578 5.84828) scale(35.0548 39.5619)">
<stop stop-color="#1D2536"/>
<stop offset="0.07" stop-color="#19202F"/>
<stop offset="0.43" stop-color="#0B0E15"/>
<stop offset="0.75" stop-color="#020305"/>
<stop offset="1"/>
</radialGradient>
<radialGradient id="paint18_radial_79509_1627" cx="0" cy="0" r="1" gradientUnits="userSpaceOnUse" gradientTransform="translate(120.622 6.01018) scale(34.3914 38.8131)">
<stop stop-color="#1D2536"/>
<stop offset="0.07" stop-color="#19202F"/>
<stop offset="0.43" stop-color="#0B0E15"/>
<stop offset="0.75" stop-color="#020305"/>
<stop offset="1"/>
</radialGradient>
<radialGradient id="paint19_radial_79509_1627" cx="0" cy="0" r="1" gradientUnits="userSpaceOnUse" gradientTransform="translate(43.0398 -20.1754) scale(257.808 257.808)">
<stop stop-color="#607492"/>
<stop offset="1" stop-color="#3B4762"/>
</radialGradient>
<radialGradient id="paint20_radial_79509_1627" cx="0" cy="0" r="1" gradientUnits="userSpaceOnUse" gradientTransform="translate(99.8412 9.73374) scale(51.3397 51.3397)">
<stop stop-color="#75859D"/>
<stop offset="1" stop-color="#495573"/>
</radialGradient>
<radialGradient id="paint21_radial_79509_1627" cx="0" cy="0" r="1" gradientUnits="userSpaceOnUse" gradientTransform="translate(109.615 19.7301) scale(84.9715 84.9713)">
<stop stop-color="#2C3A50"/>
<stop offset="1" stop-color="#192232"/>
</radialGradient>
<radialGradient id="paint22_radial_79509_1627" cx="0" cy="0" r="1" gradientUnits="userSpaceOnUse" gradientTransform="translate(114.958 36.688) scale(32.6615 32.6615)">
<stop stop-color="#1A232F"/>
<stop offset="1" stop-color="#1B1D24"/>
</radialGradient>
<radialGradient id="paint23_radial_79509_1627" cx="0" cy="0" r="1" gradientUnits="userSpaceOnUse" gradientTransform="translate(63.6399 28.4316) scale(346.199 346.199)">
<stop stop-color="#1A2432"/>
<stop offset="1" stop-color="#181A21"/>
</radialGradient>
<radialGradient id="paint24_radial_79509_1627" cx="0" cy="0" r="1" gradientUnits="userSpaceOnUse" gradientTransform="translate(56.6783 -24.2833) scale(141.956 141.956)">
<stop offset="0.07" stop-color="#4A5B76"/>
<stop offset="1" stop-color="#263348"/>
</radialGradient>
<radialGradient id="paint25_radial_79509_1627" cx="0" cy="0" r="1" gradientUnits="userSpaceOnUse" gradientTransform="translate(57.9944 -83.7573) scale(263.676 263.676)">
<stop stop-color="#1C2129"/>
<stop offset="1"/>
</radialGradient>
<radialGradient id="paint26_radial_79509_1627" cx="0" cy="0" r="1" gradientUnits="userSpaceOnUse" gradientTransform="translate(121.09 6.01014) scale(38.8128 38.8128)">
<stop stop-color="#1D2536"/>
<stop offset="0.07" stop-color="#19202F"/>
<stop offset="0.43" stop-color="#0B0E15"/>
<stop offset="0.75" stop-color="#020305"/>
<stop offset="1"/>
</radialGradient>
<clipPath id="clip0_79509_1627">
<rect width="12" height="48" fill="white"/>
</clipPath>
<clipPath id="clip1_79509_1627">
<rect width="105" height="48" fill="white" transform="translate(12)"/>
</clipPath>
<clipPath id="clip2_79509_1627">
<rect width="12" height="48" fill="white" transform="translate(117)"/>
</clipPath>
</defs>
</svg>
