<svg width="198" height="64" viewBox="0 0 198 64" fill="none" xmlns="http://www.w3.org/2000/svg">
<g filter="url(#filter0_iiiiii_1_1572)">
<g clip-path="url(#clip0_1_1572)">
<path fill-rule="evenodd" clip-rule="evenodd" d="M0.186433 9.49749C0.213414 9.17371 7.01274 1.32211 8.33483 1.26814C20.2876 0.64757 72.6316 0.26983 79.1611 1.52588e-05C82.237 0.890403 85.9335 1.43003 89.4681 1.45701C120.146 1.72683 173.596 1.13324 181.853 1.26814C182.473 1.26814 190.001 8.74201 190.001 9.49749C190.001 24.6071 189.758 45.3019 189.515 54.8263C189.515 55.7707 181.88 63.1906 181.502 63.1906C180.396 63.1906 156.436 64 153.522 64C153.306 64 149.718 62.9747 147.802 62.9747C101.718 62.9477 55.1207 63.2985 9.03635 63.2985C8.36181 63.2985 0.672099 56.2563 0.591155 54.8533C0.240396 50.3744 0.0785069 41.3086 -0.00243749 32.4317C0.402284 29.6257 1.21173 22.4216 1.18475 22.1518C1.15776 21.4233 0.375303 19.6425 -0.0294189 17.8887C-0.00243749 13.4638 0.0515254 10.2799 0.159451 9.52447H0.186433V9.49749Z" fill="#1F2B3A"/>
<path fill-rule="evenodd" clip-rule="evenodd" d="M7.14843 12.3031C7.41823 11.8984 10.8447 8.20209 11.2225 8.17511L8.30858 1.24117C7.01353 1.32211 0.21448 9.1464 0.1875 9.49715L7.14843 12.3031Z" fill="url(#paint0_radial_1_1572)"/>
<path fill-rule="evenodd" clip-rule="evenodd" d="M11.2226 8.17538C34.2647 7.15009 59.3575 8.60709 80.403 9.01181L79.1619 -0.0269775C72.6324 0.269818 20.2884 0.647559 8.30859 1.24115L11.1956 8.17538H11.2226ZM89.4688 1.457L91.9781 7.55481C120.983 7.31198 166.393 8.20237 178.966 8.20237L181.853 1.26813C173.597 1.13322 120.174 1.72682 89.4688 1.457Z" fill="url(#paint1_radial_1_1572)"/>
<path fill-rule="evenodd" clip-rule="evenodd" d="M181.502 63.1905L178.318 56.3372C177.401 56.4451 156.976 55.3119 155.87 55.5278L153.522 64C156.436 64 180.396 63.1905 181.502 63.1905ZM147.775 62.9477L145.752 56.7689C101.124 56.7689 56.4701 57.8212 11.8698 56.3372L9.00977 63.2715C55.0941 63.2715 101.691 62.9207 147.775 62.9477Z" fill="url(#paint2_radial_1_1572)"/>
<path fill-rule="evenodd" clip-rule="evenodd" d="M9.00912 63.2711L11.869 56.3371C11.4373 56.3371 7.84896 52.6138 7.60614 52.1012L0.56427 54.7992C0.672191 56.2022 8.33461 63.2441 9.00912 63.2441V63.2711Z" fill="url(#paint3_radial_1_1572)"/>
<path fill-rule="evenodd" clip-rule="evenodd" d="M0.564657 54.8263L7.60682 52.1281C7.17511 51.2917 7.90361 34.6981 7.84965 33.5109L-0.00195312 32.4317C0.0520098 41.3086 0.24088 50.3743 0.537676 54.8263H0.564657ZM-0.00195312 17.8617L7.60682 19.9393C7.60682 19.2108 6.93228 12.6543 7.14813 12.3035L0.186917 9.49744C0.105973 10.2529 0.0520098 13.4367 -0.00195312 17.8617Z" fill="url(#paint4_radial_1_1572)"/>
<path fill-rule="evenodd" clip-rule="evenodd" d="M-0.00195312 32.4312L7.79536 33.5374C7.76838 32.728 6.47333 26.5225 6.41937 22.9881L1.18518 22.1517C1.18518 22.4485 0.402752 29.6523 -0.00195312 32.4312Z" fill="url(#paint5_radial_1_1572)"/>
<path fill-rule="evenodd" clip-rule="evenodd" d="M1.21216 22.1246L6.44635 22.961C6.44635 22.6912 7.6065 20.155 7.6065 19.9122L-0.00195312 17.8347C0.402752 19.5884 1.18518 21.3691 1.21216 22.0976V22.1246Z" fill="url(#paint6_radial_1_1572)"/>
<path fill-rule="evenodd" clip-rule="evenodd" d="M7.14743 12.3035C7.41725 11.8988 10.8439 8.20235 11.2216 8.17537C34.2638 7.15008 59.3565 8.60707 80.4021 9.0118C81.7781 9.0118 88.0918 7.5548 91.9771 7.52782C120.982 7.28498 166.392 8.17537 178.965 8.17537C179.154 8.17537 182.986 11.8988 183.039 12.3035C184.389 25.2276 183.795 49.0253 183.498 51.2917C183.444 51.7774 178.615 56.3103 178.318 56.3642C177.4 56.4722 156.975 55.3389 155.869 55.5548C154.79 55.7437 146.291 56.8229 145.778 56.8229C101.151 56.8229 56.4965 57.8752 11.8962 56.3912C11.4645 56.3912 7.87593 52.6678 7.6331 52.1551C7.2014 51.3187 7.92989 34.7251 7.87593 33.5379C7.84895 32.7285 6.55384 26.5228 6.49988 22.9882C6.49988 22.7184 7.66008 20.1821 7.66008 19.9393C7.66008 19.2108 6.98554 12.6543 7.2014 12.3035H7.14743Z" fill="url(#paint7_radial_1_1572)"/>
<path style="mix-blend-mode:screen" opacity="0.75" fill-rule="evenodd" clip-rule="evenodd" d="M8.82138 12.978C8.68648 13.2209 9.9546 19.1028 9.9546 20.0472C9.9546 20.3979 8.17383 22.7723 8.17383 23.177C8.17383 24.0404 10.1974 31.7841 10.3323 33.376C10.4673 34.9679 8.92931 50.7251 9.19912 51.4266C9.30705 51.7234 12.248 54.6374 12.3829 54.6374C56.8214 56.2563 101.287 55.0961 145.725 55.0691C148.1 55.0691 154.063 52.4519 156.518 51.8313C157.84 51.4806 175.998 54.4755 177.509 54.0168C179.047 53.5312 181.745 50.914 181.799 50.6981C183.068 45.8954 182.204 19.8583 181.341 12.9241C181.341 12.7622 178.427 9.92912 178.346 9.92912C149.719 9.47044 120.659 8.76892 92.0861 8.76892C91.0069 8.76892 81.2126 12.5733 80.1064 12.4924C75.3307 12.0876 50.157 9.76723 35.0743 9.60535C27.3037 9.5244 19.506 9.47044 11.7624 9.90214C11.5735 9.90214 8.90233 12.7622 8.7944 12.978H8.82138Z" fill="url(#paint8_radial_1_1572)"/>
<g style="mix-blend-mode:screen">
<path fill-rule="evenodd" clip-rule="evenodd" d="M10.3855 8.12143C10.3855 7.60878 9.711 5.58517 9.52212 4.93762C9.25231 4.02025 8.9825 3.12986 8.71268 2.23947C8.63174 1.99664 8.76664 2.32042 8.82061 2.37438C9.25231 3.18382 11.0331 6.96123 11.6267 7.23104C12.0044 7.39293 12.544 7.41991 13.1646 7.41991C29.4075 7.20406 45.6773 7.52784 61.8931 8.52615C45.5154 8.0135 29.1916 8.04049 12.8139 8.44521C12.0584 8.44521 11.6537 8.55313 11.3569 8.63408C10.8442 8.76898 9.87288 9.4705 9.36024 9.84824C9.68401 9.38956 10.3046 8.63408 10.3855 8.09445V8.12143Z" fill="url(#paint9_linear_1_1572)"/>
</g>
<g style="mix-blend-mode:screen">
<path fill-rule="evenodd" clip-rule="evenodd" d="M7.47179 47.5943C7.41783 46.1104 7.36386 34.4279 7.22896 34.1042C6.98614 33.5646 3.55964 32.971 2.91211 32.8361C3.39776 32.8361 6.87822 32.971 7.09406 32.8361C7.39085 32.6202 6.68936 26.4417 6.6354 25.5784C7.0401 28.0336 7.52575 30.4888 8.09233 32.917C8.33516 33.9693 8.20026 34.6977 8.11931 35.723C7.84951 39.6351 7.66065 43.5743 7.47179 47.5134V47.5943Z" fill="url(#paint10_linear_1_1572)"/>
</g>
</g>
<g clip-path="url(#clip1_1_1572)">
<path fill-rule="evenodd" clip-rule="evenodd" d="M-0.614772 9.49772C-0.586424 9.17394 6.55717 1.32234 7.9462 1.26837C20.5042 0.647799 75.4985 0.270059 82.3587 0.000244141C85.5903 0.890632 89.4739 1.43026 93.1874 1.45724C125.419 1.72706 181.575 1.13347 190.25 1.26837C190.902 1.26837 198.811 8.74223 198.811 9.49772C198.811 24.6073 198.555 45.3021 198.3 54.8266C198.3 55.7709 190.278 63.1908 189.881 63.1908C188.719 63.1908 163.546 64.0002 160.485 64.0002C160.258 64.0002 156.488 62.975 154.475 62.975C106.057 62.948 57.1009 63.2987 8.68324 63.2987C7.97455 63.2987 -0.104515 56.2566 -0.189558 54.8535C-0.558077 50.3746 -0.728162 41.3088 -0.813205 32.432C-0.387991 29.6259 0.462437 22.4218 0.434089 22.152C0.405742 21.4235 -0.416339 19.6427 -0.841553 17.8889C-0.813205 13.464 -0.75651 10.2802 -0.64312 9.5247H-0.614772V9.49772Z" fill="#1F2B3A"/>
<path fill-rule="evenodd" clip-rule="evenodd" d="M10.9798 8.17538C35.1887 7.15009 61.5519 8.60709 83.6631 9.01181L82.3591 -0.0269775C75.4989 0.269818 20.5046 0.647559 7.91827 1.24115L10.9515 8.17538H10.9798ZM93.1878 1.457L95.8242 7.55481C126.298 7.31198 174.007 8.20237 187.217 8.20237L190.25 1.26813C181.576 1.13322 125.447 1.72682 93.1878 1.457Z" fill="url(#paint11_radial_1_1572)"/>
<path fill-rule="evenodd" clip-rule="evenodd" d="M82.3601 0L83.6641 9.03899C85.1099 9.03899 91.7434 7.58196 95.8255 7.55498L93.1891 1.45703C89.4755 1.43005 85.5635 0.917391 82.3601 0Z" fill="url(#paint12_radial_1_1572)"/>
<path fill-rule="evenodd" clip-rule="evenodd" d="M189.882 63.1905L186.537 56.3372C185.573 56.4451 164.114 55.3119 162.952 55.5278L160.485 64C163.547 64 188.72 63.1905 189.882 63.1905ZM154.447 62.9477L152.321 56.7689C105.434 56.7689 58.5191 57.8212 11.6605 56.3372L8.6557 63.2715C57.0734 63.2715 106.03 62.9207 154.447 62.9477Z" fill="url(#paint13_radial_1_1572)"/>
<path fill-rule="evenodd" clip-rule="evenodd" d="M160.486 64.0002L162.952 55.5278C161.818 55.7167 152.888 56.796 152.35 56.796L154.476 62.9749C156.517 62.9749 160.287 64.0002 160.486 64.0002Z" fill="url(#paint14_radial_1_1572)"/>
<path fill-rule="evenodd" clip-rule="evenodd" d="M6.69896 12.3036C6.98243 11.8989 10.5826 8.20243 10.9794 8.17545C35.1883 7.15015 61.5516 8.60715 83.6627 9.01187C85.1084 9.01187 91.7418 7.55487 95.8238 7.52789C126.297 7.28506 174.006 8.17545 187.216 8.17545C187.415 8.17545 191.44 11.8989 191.497 12.3036C192.914 25.2277 192.291 49.0254 191.979 51.2918C191.922 51.7775 186.848 56.3104 186.536 56.3643C185.572 56.4722 164.113 55.339 162.951 55.5549C161.817 55.7438 152.888 56.823 152.349 56.823C105.462 56.823 58.5467 57.8753 11.6881 56.3913C11.2346 56.3913 7.46434 52.6679 7.20921 52.1552C6.75565 51.3188 7.52104 34.7252 7.46434 33.538C7.436 32.7286 6.07531 26.5228 6.01862 22.9883C6.01862 22.7185 7.23756 20.1822 7.23756 19.9394C7.23756 19.2109 6.52887 12.6544 6.75565 12.3036H6.69896Z" fill="url(#paint15_radial_1_1572)"/>
<path style="mix-blend-mode:screen" opacity="0.75" fill-rule="evenodd" clip-rule="evenodd" d="M8.45824 12.9781C8.3165 13.221 9.64884 19.1029 9.64884 20.0473C9.64884 20.398 7.77789 22.7724 7.77789 23.1771C7.77789 24.0405 9.90396 31.7842 10.0457 33.3761C10.1874 34.968 8.57163 50.7252 8.8551 51.4267C8.96849 51.7235 12.0584 54.6375 12.2001 54.6375C58.8886 56.2564 105.605 55.0962 152.294 55.0692C154.789 55.0692 161.053 52.452 163.633 51.8314C165.022 51.4807 184.1 54.4756 185.687 54.0169C187.303 53.5313 190.138 50.9141 190.195 50.6982C191.527 45.8955 190.62 19.8584 189.713 12.9242C189.713 12.7623 186.651 9.92925 186.566 9.92925C156.489 9.47056 125.959 8.76904 95.9389 8.76904C94.805 8.76904 84.5149 12.5734 83.3526 12.4925C78.3351 12.0878 51.8868 9.76736 36.0405 9.60547C27.8763 9.52452 19.6839 9.47056 11.5481 9.90226C11.3497 9.90226 8.54328 12.7623 8.42989 12.9781H8.45824Z" fill="url(#paint16_radial_1_1572)"/>
<g style="mix-blend-mode:screen">
<path fill-rule="evenodd" clip-rule="evenodd" d="M10.0998 8.12153C10.0998 7.60887 9.39106 5.58525 9.19263 4.93769C8.90915 4.02031 8.62567 3.12992 8.34219 2.23952C8.25715 1.99668 8.39889 2.32047 8.45559 2.37443C8.90915 3.18388 10.7801 6.96131 11.4038 7.23113C11.8006 7.39302 12.3676 7.42 13.0196 7.42C30.085 7.20415 47.1787 7.52793 64.2158 8.52625C47.0086 8.0136 29.8582 8.04058 12.6511 8.44531C11.8573 8.44531 11.4321 8.55323 11.1203 8.63418C10.5817 8.76909 9.56115 9.47061 9.02254 9.84835C9.36272 9.38967 10.0147 8.63418 10.0998 8.09454V8.12153Z" fill="url(#paint17_linear_1_1572)"/>
</g>
<g style="mix-blend-mode:screen">
<path fill-rule="evenodd" clip-rule="evenodd" d="M186.934 7.25809C187.387 6.90732 189.4 2.99498 189.825 2.29346C189.513 3.29178 188.153 7.17714 188.153 7.90565C188.153 8.49924 189.457 9.98324 189.91 10.5499C189.287 10.0912 187.983 8.85001 187.274 8.7151C185.403 8.39132 149.316 8.22943 143.732 7.74376C143.306 7.71677 144.554 7.74376 144.554 7.74376C148.976 7.60885 185.885 7.8247 186.962 7.28507L186.934 7.25809Z" fill="url(#paint18_linear_1_1572)"/>
</g>
</g>
<g clip-path="url(#clip2_1_1572)">
<path fill-rule="evenodd" clip-rule="evenodd" d="M8.18851 9.49772C8.21549 9.17394 15.0148 1.32234 16.3369 1.26837C28.2897 0.647799 80.6337 0.270059 87.1632 0.000244141C90.2391 0.890632 93.9356 1.43026 97.4701 1.45724C128.148 1.72706 181.598 1.13347 189.855 1.26837C190.475 1.26837 198.003 8.74223 198.003 9.49772C198.003 24.6073 197.76 45.3021 197.517 54.8266C197.517 55.7709 189.882 63.1908 189.504 63.1908C188.398 63.1908 164.438 64.0002 161.524 64.0002C161.308 64.0002 157.72 62.975 155.804 62.975C109.72 62.948 63.1227 63.2987 17.0384 63.2987C16.3639 63.2987 8.67417 56.2566 8.59323 54.8535C8.24247 50.3746 8.08058 41.3088 7.99964 32.432C8.40436 29.6259 9.2138 22.4218 9.18682 22.152C9.15984 21.4235 8.37738 19.6427 7.97266 17.8889C7.99964 13.464 8.0536 10.2802 8.16153 9.5247H8.18851V9.49772Z" fill="#1F2B3A"/>
<path fill-rule="evenodd" clip-rule="evenodd" d="M19.2245 8.17538C42.2667 7.15009 67.3594 8.60709 88.405 9.01181L87.1638 -0.0269775C80.6343 0.269818 28.2903 0.647559 16.3105 1.24115L19.1976 8.17538H19.2245ZM97.4707 1.457L99.98 7.55481C128.985 7.31198 174.395 8.20237 186.968 8.20237L189.855 1.26813C181.599 1.13322 128.176 1.72682 97.4707 1.457Z" fill="url(#paint19_radial_1_1572)"/>
<path fill-rule="evenodd" clip-rule="evenodd" d="M189.854 1.24121L186.967 8.17555C187.156 8.17555 190.987 11.899 191.041 12.3038L198.002 9.49766C198.002 8.74216 190.474 1.26819 189.854 1.26819V1.24121Z" fill="url(#paint20_radial_1_1572)"/>
<path fill-rule="evenodd" clip-rule="evenodd" d="M198.002 9.49744L191.041 12.3035C192.39 25.2276 191.797 49.0253 191.5 51.2917L197.544 54.8263C197.786 45.3018 198.029 24.607 198.029 9.49744H198.002Z" fill="url(#paint21_radial_1_1572)"/>
<path fill-rule="evenodd" clip-rule="evenodd" d="M197.518 54.8264L191.474 51.2917C191.42 51.7774 186.59 56.3104 186.293 56.3643L189.477 63.2177C189.882 63.2177 197.464 55.7977 197.491 54.8534L197.518 54.8264Z" fill="url(#paint22_radial_1_1572)"/>
<path fill-rule="evenodd" clip-rule="evenodd" d="M189.504 63.1905L186.32 56.3372C185.403 56.4451 164.978 55.3119 163.872 55.5278L161.524 64C164.438 64 188.398 63.1905 189.504 63.1905ZM155.777 62.9477L153.754 56.7689C109.126 56.7689 64.4721 57.8212 19.8718 56.3372L17.0117 63.2715C63.096 63.2715 109.693 62.9207 155.777 62.9477Z" fill="url(#paint23_radial_1_1572)"/>
<path fill-rule="evenodd" clip-rule="evenodd" d="M15.1498 12.3035C15.4196 11.8988 18.8462 8.20237 19.224 8.17539C42.2661 7.15009 67.3589 8.60709 88.4044 9.01181C89.7804 9.01181 96.0941 7.55481 99.9794 7.52783C128.984 7.285 174.394 8.17539 186.968 8.17539C187.157 8.17539 190.988 11.8988 191.042 12.3035C192.391 25.2277 191.797 49.0253 191.501 51.2917C191.447 51.7774 186.617 56.3103 186.32 56.3643C185.403 56.4722 164.978 55.339 163.872 55.5548C162.792 55.7437 154.293 56.8229 153.78 56.8229C109.153 56.8229 64.4988 57.8752 19.8985 56.3912C19.4668 56.3912 15.8783 52.6678 15.6354 52.1552C15.2037 51.3187 15.9322 34.7251 15.8783 33.538C15.8513 32.7285 14.5562 26.5228 14.5022 22.9882C14.5022 22.7184 15.6624 20.1821 15.6624 19.9393C15.6624 19.2108 14.9879 12.6543 15.2037 12.3035H15.1498Z" fill="url(#paint24_radial_1_1572)"/>
<path style="mix-blend-mode:screen" opacity="0.9" fill-rule="evenodd" clip-rule="evenodd" d="M16.8233 12.978C16.6884 13.2209 17.9566 19.1028 17.9566 20.0472C17.9566 20.3979 16.1758 22.7723 16.1758 23.177C16.1758 24.0404 18.1994 31.7841 18.3343 33.376C18.4692 34.9679 16.9313 50.7251 17.2011 51.4266C17.309 51.7234 20.25 54.6374 20.3849 54.6374C64.8233 56.2563 109.289 55.0961 153.727 55.0691C156.102 55.0691 162.064 52.4519 164.52 51.8313C165.842 51.4806 184 54.4755 185.511 54.0168C187.049 53.5312 189.747 50.914 189.801 50.6981C191.07 45.8954 190.206 19.8583 189.343 12.9241C189.343 12.7622 186.429 9.92912 186.348 9.92912C157.72 9.47044 128.661 8.76892 100.088 8.76892C99.0088 8.76892 89.2146 12.5733 88.1083 12.4924C83.3326 12.0876 58.1589 9.76723 43.0763 9.60535C35.3056 9.5244 27.508 9.47044 19.7643 9.90214C19.5754 9.90214 16.9043 12.7622 16.7964 12.978H16.8233Z" fill="url(#paint25_radial_1_1572)"/>
<g style="mix-blend-mode:screen">
<path fill-rule="evenodd" clip-rule="evenodd" d="M186.698 7.25801C187.129 6.90726 189.045 2.99494 189.45 2.29343C189.153 3.29174 187.858 7.17707 187.858 7.90557C187.858 8.49916 189.099 9.98314 189.531 10.5498C188.937 10.0911 187.696 8.84992 187.022 8.71501C185.241 8.39124 150.893 8.22935 145.578 7.74368C145.173 7.7167 146.36 7.74368 146.36 7.74368C150.57 7.60877 185.699 7.82462 186.725 7.285L186.698 7.25801Z" fill="url(#paint26_linear_1_1572)"/>
</g>
</g>
</g>
<defs>
<filter id="filter0_iiiiii_1_1572" x="0" y="-2" width="198" height="77" filterUnits="userSpaceOnUse" color-interpolation-filters="sRGB">
<feFlood flood-opacity="0" result="BackgroundImageFix"/>
<feBlend mode="normal" in="SourceGraphic" in2="BackgroundImageFix" result="shape"/>
<feColorMatrix in="SourceAlpha" type="matrix" values="0 0 0 0 0 0 0 0 0 0 0 0 0 0 0 0 0 0 127 0" result="hardAlpha"/>
<feOffset dy="4"/>
<feGaussianBlur stdDeviation="4.2"/>
<feComposite in2="hardAlpha" operator="arithmetic" k2="-1" k3="1"/>
<feColorMatrix type="matrix" values="0 0 0 0 0.211765 0 0 0 0 1 0 0 0 0 1 0 0 0 0.5 0"/>
<feBlend mode="normal" in2="shape" result="effect1_innerShadow_1_1572"/>
<feColorMatrix in="SourceAlpha" type="matrix" values="0 0 0 0 0 0 0 0 0 0 0 0 0 0 0 0 0 0 127 0" result="hardAlpha"/>
<feOffset dy="4"/>
<feGaussianBlur stdDeviation="2"/>
<feComposite in2="hardAlpha" operator="arithmetic" k2="-1" k3="1"/>
<feColorMatrix type="matrix" values="0 0 0 0 0.211765 0 0 0 0 1 0 0 0 0 1 0 0 0 1 0"/>
<feBlend mode="normal" in2="effect1_innerShadow_1_1572" result="effect2_innerShadow_1_1572"/>
<feColorMatrix in="SourceAlpha" type="matrix" values="0 0 0 0 0 0 0 0 0 0 0 0 0 0 0 0 0 0 127 0" result="hardAlpha"/>
<feOffset dy="11"/>
<feGaussianBlur stdDeviation="7"/>
<feComposite in2="hardAlpha" operator="arithmetic" k2="-1" k3="1"/>
<feColorMatrix type="matrix" values="0 0 0 0 0.211765 0 0 0 0 1 0 0 0 0 1 0 0 0 0.3 0"/>
<feBlend mode="normal" in2="effect2_innerShadow_1_1572" result="effect3_innerShadow_1_1572"/>
<feColorMatrix in="SourceAlpha" type="matrix" values="0 0 0 0 0 0 0 0 0 0 0 0 0 0 0 0 0 0 127 0" result="hardAlpha"/>
<feOffset dy="-2"/>
<feGaussianBlur stdDeviation="2.5"/>
<feComposite in2="hardAlpha" operator="arithmetic" k2="-1" k3="1"/>
<feColorMatrix type="matrix" values="0 0 0 0 0.211765 0 0 0 0 1 0 0 0 0 1 0 0 0 0.4 0"/>
<feBlend mode="normal" in2="effect3_innerShadow_1_1572" result="effect4_innerShadow_1_1572"/>
<feColorMatrix in="SourceAlpha" type="matrix" values="0 0 0 0 0 0 0 0 0 0 0 0 0 0 0 0 0 0 127 0" result="hardAlpha"/>
<feOffset dy="4"/>
<feGaussianBlur stdDeviation="10"/>
<feComposite in2="hardAlpha" operator="arithmetic" k2="-1" k3="1"/>
<feColorMatrix type="matrix" values="0 0 0 0 0.211765 0 0 0 0 1 0 0 0 0 1 0 0 0 0.2 0"/>
<feBlend mode="normal" in2="effect4_innerShadow_1_1572" result="effect5_innerShadow_1_1572"/>
<feColorMatrix in="SourceAlpha" type="matrix" values="0 0 0 0 0 0 0 0 0 0 0 0 0 0 0 0 0 0 127 0" result="hardAlpha"/>
<feOffset dy="2"/>
<feGaussianBlur stdDeviation="10"/>
<feComposite in2="hardAlpha" operator="arithmetic" k2="-1" k3="1"/>
<feColorMatrix type="matrix" values="0 0 0 0 0.211765 0 0 0 0 1 0 0 0 0 1 0 0 0 0.4 0"/>
<feBlend mode="normal" in2="effect5_innerShadow_1_1572" result="effect6_innerShadow_1_1572"/>
</filter>
<radialGradient id="paint0_radial_1_1572" cx="0" cy="0" r="1" gradientUnits="userSpaceOnUse" gradientTransform="translate(12.0858 7.98625) scale(42.0354)">
<stop stop-color="#75859D"/>
<stop offset="1" stop-color="#495573"/>
</radialGradient>
<radialGradient id="paint1_radial_1_1572" cx="0" cy="0" r="1" gradientUnits="userSpaceOnUse" gradientTransform="translate(75.3845 -26.9005) scale(343.744 343.744)">
<stop stop-color="#607492"/>
<stop offset="1" stop-color="#3B4762"/>
</radialGradient>
<radialGradient id="paint2_radial_1_1572" cx="0" cy="0" r="1" gradientUnits="userSpaceOnUse" gradientTransform="translate(102.851 37.9089) scale(461.599 461.599)">
<stop stop-color="#1A2432"/>
<stop offset="1" stop-color="#181A21"/>
</radialGradient>
<radialGradient id="paint3_radial_1_1572" cx="0" cy="0" r="1" gradientUnits="userSpaceOnUse" gradientTransform="translate(12.7324 48.8366) scale(49.2661 49.2661)">
<stop stop-color="#1A232F"/>
<stop offset="1" stop-color="#1B1D24"/>
</radialGradient>
<radialGradient id="paint4_radial_1_1572" cx="0" cy="0" r="1" gradientUnits="userSpaceOnUse" gradientTransform="translate(0.726545 10.8465) scale(145.457 145.457)">
<stop stop-color="#2C3A50"/>
<stop offset="1" stop-color="#192232"/>
</radialGradient>
<radialGradient id="paint5_radial_1_1572" cx="0" cy="0" r="1" gradientUnits="userSpaceOnUse" gradientTransform="translate(1.72479 35.8038) scale(38.0693 38.0693)">
<stop stop-color="#556784"/>
<stop offset="1" stop-color="#26324A"/>
</radialGradient>
<radialGradient id="paint6_radial_1_1572" cx="0" cy="0" r="1" gradientUnits="userSpaceOnUse" gradientTransform="translate(4.80055 17.8077) scale(37.9074)">
<stop stop-color="#1A2432"/>
<stop offset="1" stop-color="#181A21"/>
</radialGradient>
<radialGradient id="paint7_radial_1_1572" cx="0" cy="0" r="1" gradientUnits="userSpaceOnUse" gradientTransform="translate(93.569 -32.3777) scale(189.275 189.275)">
<stop offset="0.07" stop-color="#4A5B76"/>
<stop offset="1" stop-color="#263348"/>
</radialGradient>
<radialGradient id="paint8_radial_1_1572" cx="0" cy="0" r="1" gradientUnits="userSpaceOnUse" gradientTransform="translate(95.3239 -111.676) scale(351.568 351.568)">
<stop stop-color="#1C2129"/>
<stop offset="1"/>
</radialGradient>
<linearGradient id="paint9_linear_1_1572" x1="8.65859" y1="5.99797" x2="43.2738" y2="37.2213" gradientUnits="userSpaceOnUse">
<stop stop-color="#90D2F6"/>
<stop offset="0.3123" stop-color="#009FAA"/>
<stop offset="0.7592" stop-color="#00CDBD"/>
<stop offset="1" stop-color="#C2E8FD"/>
</linearGradient>
<linearGradient id="paint10_linear_1_1572" x1="2.90923" y1="36.5827" x2="9.17819" y2="36.7804" gradientUnits="userSpaceOnUse">
<stop stop-color="#90D2F6"/>
<stop offset="0.3123" stop-color="#009FAA"/>
<stop offset="0.7592" stop-color="#00CDBD"/>
<stop offset="1" stop-color="#C2E8FD"/>
</linearGradient>
<radialGradient id="paint11_radial_1_1572" cx="0" cy="0" r="1" gradientUnits="userSpaceOnUse" gradientTransform="translate(78.3904 -26.9005) scale(361.148 343.744)">
<stop stop-color="#607492"/>
<stop offset="1" stop-color="#3B4762"/>
</radialGradient>
<radialGradient id="paint12_radial_1_1572" cx="0" cy="0" r="1" gradientUnits="userSpaceOnUse" gradientTransform="translate(72.8634 -7.20421) scale(74.0173 70.4502)">
<stop stop-color="#556784"/>
<stop offset="1" stop-color="#26324A"/>
</radialGradient>
<radialGradient id="paint13_radial_1_1572" cx="0" cy="0" r="1" gradientUnits="userSpaceOnUse" gradientTransform="translate(107.249 37.9089) scale(484.971 461.599)">
<stop stop-color="#1A2432"/>
<stop offset="1" stop-color="#181A21"/>
</radialGradient>
<radialGradient id="paint14_radial_1_1572" cx="0" cy="0" r="1" gradientUnits="userSpaceOnUse" gradientTransform="translate(163.519 58.1721) scale(83.8258 79.786)">
<stop stop-color="#1D2738"/>
<stop offset="1" stop-color="#131924"/>
</radialGradient>
<radialGradient id="paint15_radial_1_1572" cx="0" cy="0" r="1" gradientUnits="userSpaceOnUse" gradientTransform="translate(97.4963 -32.3777) scale(198.858 189.275)">
<stop offset="0.07" stop-color="#4A5B76"/>
<stop offset="1" stop-color="#263348"/>
</radialGradient>
<radialGradient id="paint16_radial_1_1572" cx="0" cy="0" r="1" gradientUnits="userSpaceOnUse" gradientTransform="translate(99.3406 -111.676) scale(369.369 351.568)">
<stop stop-color="#1C2129"/>
<stop offset="1"/>
</radialGradient>
<linearGradient id="paint17_linear_1_1572" x1="8.28536" y1="5.99805" x2="43.0349" y2="38.9296" gradientUnits="userSpaceOnUse">
<stop stop-color="#90D2F6"/>
<stop offset="0.3123" stop-color="#009FAA"/>
<stop offset="0.7592" stop-color="#00CDBD"/>
<stop offset="1" stop-color="#C2E8FD"/>
</linearGradient>
<linearGradient id="paint18_linear_1_1572" x1="143.618" y1="6.4203" x2="179.186" y2="32.4325" gradientUnits="userSpaceOnUse">
<stop stop-color="#90D2F6"/>
<stop offset="0.3123" stop-color="#009FAA"/>
<stop offset="0.7592" stop-color="#00CDBD"/>
<stop offset="1" stop-color="#C2E8FD"/>
</linearGradient>
<radialGradient id="paint19_radial_1_1572" cx="0" cy="0" r="1" gradientUnits="userSpaceOnUse" gradientTransform="translate(83.3864 -26.9005) scale(343.744 343.744)">
<stop stop-color="#607492"/>
<stop offset="1" stop-color="#3B4762"/>
</radialGradient>
<radialGradient id="paint20_radial_1_1572" cx="0" cy="0" r="1" gradientUnits="userSpaceOnUse" gradientTransform="translate(159.122 12.9783) scale(68.4529 68.4529)">
<stop stop-color="#75859D"/>
<stop offset="1" stop-color="#495573"/>
</radialGradient>
<radialGradient id="paint21_radial_1_1572" cx="0" cy="0" r="1" gradientUnits="userSpaceOnUse" gradientTransform="translate(172.154 26.3069) scale(113.295 113.295)">
<stop stop-color="#2C3A50"/>
<stop offset="1" stop-color="#192232"/>
</radialGradient>
<radialGradient id="paint22_radial_1_1572" cx="0" cy="0" r="1" gradientUnits="userSpaceOnUse" gradientTransform="translate(179.278 48.9173) scale(43.5487 43.5487)">
<stop stop-color="#1A232F"/>
<stop offset="1" stop-color="#1B1D24"/>
</radialGradient>
<radialGradient id="paint23_radial_1_1572" cx="0" cy="0" r="1" gradientUnits="userSpaceOnUse" gradientTransform="translate(110.853 37.9089) scale(461.599 461.599)">
<stop stop-color="#1A2432"/>
<stop offset="1" stop-color="#181A21"/>
</radialGradient>
<radialGradient id="paint24_radial_1_1572" cx="0" cy="0" r="1" gradientUnits="userSpaceOnUse" gradientTransform="translate(101.571 -32.3777) scale(189.275 189.275)">
<stop offset="0.07" stop-color="#4A5B76"/>
<stop offset="1" stop-color="#263348"/>
</radialGradient>
<radialGradient id="paint25_radial_1_1572" cx="0" cy="0" r="1" gradientUnits="userSpaceOnUse" gradientTransform="translate(103.326 -111.676) scale(351.568 351.568)">
<stop stop-color="#1C2129"/>
<stop offset="1"/>
</radialGradient>
<linearGradient id="paint26_linear_1_1572" x1="145.47" y1="6.42023" x2="180.471" y2="30.784" gradientUnits="userSpaceOnUse">
<stop stop-color="#90D2F6"/>
<stop offset="0.3123" stop-color="#009FAA"/>
<stop offset="0.7592" stop-color="#00CDBD"/>
<stop offset="1" stop-color="#C2E8FD"/>
</linearGradient>
<clipPath id="clip0_1_1572">
<rect width="16" height="64" fill="white"/>
</clipPath>
<clipPath id="clip1_1_1572">
<rect width="166" height="64" fill="white" transform="translate(16)"/>
</clipPath>
<clipPath id="clip2_1_1572">
<rect width="16" height="64" fill="white" transform="translate(182)"/>
</clipPath>
</defs>
</svg>
