<svg width="27" height="527" viewBox="0 0 27 527" fill="none" xmlns="http://www.w3.org/2000/svg">
<g clip-path="url(#clip0_193_35017)">
<path fill-rule="evenodd" clip-rule="evenodd" d="M-179.36 11.734C-148.875 9.70715 -118.197 8.92026 -87.6703 8.92026C-57.1433 8.92026 -26.4654 9.70715 4.02394 11.734L11.3516 3.35484C-17.478 1.26125 -51.3812 0.0546875 -87.6656 0.0546875C-123.95 0.0546875 -157.858 1.26125 -186.688 3.35484L-179.36 11.734Z" fill="url(#paint0_radial_193_35017)"/>
<path fill-rule="evenodd" clip-rule="evenodd" d="M4.02734 11.7337C6.4133 18.4533 11.5907 23.8422 18.1497 26.4604L26.9863 19.3165C18.3478 19.2306 11.3597 12.0962 11.3597 3.35938L4.03205 11.7385L4.02734 11.7337Z" fill="url(#paint1_radial_193_35017)"/>
<path fill-rule="evenodd" clip-rule="evenodd" d="M18.0685 35.042C18.0402 38.0703 18.0119 41.1034 17.9836 44.1317C17.9082 52.0578 17.5828 60.5752 18.0685 68.4346C18.2571 71.4963 17.7714 73.9761 17.696 77.0331C17.4602 86.3565 17.4979 95.8945 17.4084 105.242C17.3612 110.292 17.314 115.342 17.2622 120.393C17.2009 126.984 16.984 133.923 17.1066 140.475C17.149 142.807 17.6111 145.168 17.3989 147.371C16.7435 154.086 16.9038 159.713 17.2339 166.404C17.3706 169.208 16.8614 171.66 16.7765 174.497C16.5643 181.627 16.6162 189 16.5455 196.153C16.5124 199.52 16.4794 202.887 16.4511 206.254C16.3898 212.988 16.3238 219.722 16.2578 226.455L24.9529 233.819C25.0189 226.928 25.0849 220.036 25.1462 213.145C25.1651 211.099 25.1839 209.049 25.2028 207.007C25.2641 200.545 25.3254 194.083 25.3867 187.621C25.4103 185.103 25.5564 181.956 25.3914 179.505C25.2924 177.974 24.637 175.36 24.967 174.068C25.3254 172.666 25.4669 171.96 25.5282 170.491C25.6555 167.458 25.6083 164.191 25.6366 161.134C25.6979 154.782 25.7592 148.43 25.8158 142.073C25.8959 133.46 25.9761 124.847 26.061 116.234C26.0798 114.079 26.0987 111.923 26.1223 109.772C26.1459 107.407 26.4005 101.946 25.8158 99.9386C25.4857 98.7893 25.0048 98.5556 25.283 97.3586C25.7451 95.3937 26.1364 94.4972 26.2496 92.3654C26.3958 89.504 26.3816 86.4614 26.3345 83.5857C26.2826 80.5144 25.6366 77.7007 25.7545 74.7487C25.9478 69.9177 26.4995 65.2679 26.5797 60.3511C26.806 46.7022 26.8437 32.9866 26.9758 19.3281L18.1392 26.4721L18.1298 27.4831C18.1062 30.0059 18.0826 32.5335 18.0591 35.0563L18.0685 35.042Z" fill="url(#paint2_radial_193_35017)"/>
<path fill-rule="evenodd" clip-rule="evenodd" d="M-175.433 17.4012C-146.217 15.5508 -116.935 14.8307 -87.662 14.8307C-58.3892 14.8307 -29.1071 15.5556 0.109112 17.4012L4.03227 11.7356C-26.4523 9.70876 -57.1303 8.92188 -87.662 8.92188C-118.194 8.92188 -148.867 9.70876 -179.352 11.7356L-175.433 17.4012Z" fill="url(#paint3_radial_193_35017)"/>
<path fill-rule="evenodd" clip-rule="evenodd" d="M0.105469 17.3969C2.83564 22.7525 7.07472 27.202 12.271 30.154L18.151 26.4532C11.5967 23.8398 6.4193 18.4461 4.02863 11.7266L0.105469 17.3921V17.3969Z" fill="url(#paint4_radial_193_35017)"/>
<path fill-rule="evenodd" clip-rule="evenodd" d="M12.2732 30.1586L10.4531 222.636L16.2624 226.451C16.3284 219.717 16.3897 212.983 16.4557 206.249C16.4888 202.887 16.5217 199.515 16.55 196.149C16.6161 188.995 16.5689 181.622 16.7811 174.493C16.866 171.655 17.3752 169.204 17.2385 166.4C16.9037 159.709 16.7481 154.081 17.4035 147.366C17.6157 145.168 17.1583 142.802 17.1112 140.47C16.9886 133.918 17.2008 126.979 17.2668 120.388C17.3186 115.338 17.3658 110.287 17.413 105.237C17.5025 95.8898 17.4648 86.3566 17.7006 77.0284C17.7807 73.9762 18.2617 71.4916 18.0731 68.4299C17.5874 60.5706 17.9128 52.0579 17.9882 44.1271C18.0165 41.094 18.0448 38.0656 18.0731 35.0373C18.0967 32.5098 18.1202 29.987 18.1438 27.4642L18.1533 26.4531L12.2732 30.1539V30.1586Z" fill="url(#paint5_radial_193_35017)"/>
<path style="mix-blend-mode:screen" fill-rule="evenodd" clip-rule="evenodd" d="M7.04688 17.6094C10.1448 21.2434 12.7571 23.2845 16.9066 24.9775C17.2744 25.1253 17.6517 25.1826 18.0147 25.1444C19.1228 25.0347 24.6398 21.0335 25.9459 20.1608C24.7246 21.3149 19.7405 25.669 19.2266 26.804C19.0757 27.1378 18.9908 27.5003 18.9767 27.8961L17.845 62.7098L17.2744 28.5542C17.2603 27.6195 16.7746 26.8326 15.9683 26.3843C11.9272 24.1524 9.28195 21.2386 7.05159 17.6189L7.04688 17.6094Z" fill="url(#paint6_radial_193_35017)"/>
</g>
<g clip-path="url(#clip1_193_35017)">
<path fill-rule="evenodd" clip-rule="evenodd" d="M18.0685 23.7611C18.0402 31.6992 18.0119 39.6499 17.9836 47.588C17.9082 68.3647 17.5828 90.6914 18.0685 111.293C18.2571 119.319 17.7714 125.819 17.696 133.832C17.4602 158.272 17.4979 183.274 17.4084 207.776C17.3612 221.014 17.314 234.253 17.2622 247.491C17.2009 264.768 16.984 282.957 17.1066 300.133C17.149 306.246 17.6111 312.434 17.3989 318.21C16.7435 335.811 16.9038 350.562 17.2339 368.101C17.3706 375.452 16.8614 381.877 16.7765 389.315C16.5643 408.004 16.6162 427.331 16.5455 446.082C16.5124 454.908 16.4794 463.734 16.4511 472.559C16.3898 490.211 16.3238 507.862 16.2578 525.514L24.9529 544.815C25.0189 526.751 25.0849 508.687 25.1462 490.623C25.1651 485.26 25.1839 479.885 25.2028 474.535C25.2641 457.596 25.3254 440.657 25.3867 423.718C25.4103 417.117 25.5564 408.867 25.3914 402.441C25.2924 398.428 24.637 391.578 24.967 388.19C25.3254 384.515 25.4669 382.665 25.5282 378.814C25.6555 370.864 25.6083 362.301 25.6366 354.287C25.6979 337.636 25.7592 320.985 25.8158 304.321C25.8959 281.744 25.9761 259.167 26.061 236.591C26.0798 230.94 26.0987 225.29 26.1223 219.652C26.1459 213.451 26.4005 199.138 25.8158 193.875C25.4857 190.862 25.0048 190.249 25.283 187.112C25.7451 181.961 26.1364 179.611 26.2496 174.023C26.3958 166.522 26.3816 158.547 26.3345 151.009C26.2826 142.958 25.6366 135.583 25.7545 127.844C25.9478 115.181 26.4995 102.992 26.5797 90.1039C26.806 54.326 26.8437 18.3732 26.9758 -17.4297L18.1392 1.29681L18.1298 3.94702C18.1062 10.56 18.0826 17.1856 18.0591 23.7986L18.0685 23.7611Z" fill="url(#paint7_radial_193_35017)"/>
<path fill-rule="evenodd" clip-rule="evenodd" d="M12.2732 10.9555L10.4531 515.496L16.2624 525.497C16.3284 507.845 16.3897 490.194 16.4557 472.542C16.4888 463.729 16.5217 454.891 16.55 446.065C16.6161 427.314 16.5689 407.987 16.7811 389.298C16.866 381.86 17.3752 375.435 17.2385 368.084C16.9037 350.545 16.7481 335.794 17.4035 318.192C17.6157 312.43 17.1583 306.229 17.1112 300.116C16.9886 282.94 17.2008 264.751 17.2668 247.474C17.3186 234.236 17.3658 220.997 17.413 207.759C17.5025 183.257 17.4648 158.267 17.7006 133.815C17.7807 125.815 18.2617 119.302 18.0731 111.276C17.5874 90.6743 17.9128 68.3601 17.9882 47.5709C18.0165 39.6203 18.0448 31.6821 18.0731 23.744C18.0967 17.1185 18.1202 10.5054 18.1438 3.8924L18.1533 1.24219L12.2732 10.943V10.9555Z" fill="url(#paint8_radial_193_35017)"/>
<path style="mix-blend-mode:screen" fill-rule="evenodd" clip-rule="evenodd" d="M7.04688 -21.9453C10.1448 -12.4196 12.7571 -7.06913 16.9066 -2.63127C17.2744 -2.24374 17.6517 -2.09373 18.0147 -2.19374C19.1228 -2.48126 24.6398 -12.9696 25.9459 -15.2573C24.7246 -12.232 19.7405 -0.818627 19.2266 2.15661C19.0757 3.03168 18.9908 3.98175 18.9767 5.01933L17.845 96.2766L17.2744 6.74447C17.2603 4.29428 16.7746 2.23161 15.9683 1.05652C11.9272 -4.79394 9.28195 -12.4321 7.05159 -21.9203L7.04688 -21.9453Z" fill="url(#paint9_radial_193_35017)"/>
</g>
<g clip-path="url(#clip2_193_35017)">
<path fill-rule="evenodd" clip-rule="evenodd" d="M18.0685 309.042C18.0402 312.07 18.0119 315.103 17.9836 318.132C17.9082 326.058 17.5828 334.575 18.0685 342.435C18.2571 345.496 17.7714 347.976 17.696 351.033C17.4602 360.356 17.4979 369.894 17.4084 379.242C17.3612 384.292 17.314 389.342 17.2622 394.393C17.2009 400.984 16.984 407.923 17.1066 414.475C17.149 416.807 17.6111 419.168 17.3989 421.371C16.7435 428.086 16.9038 433.713 17.2339 440.404C17.3706 443.208 16.8614 445.66 16.7765 448.497C16.5643 455.627 16.6162 463 16.5455 470.153C16.5124 473.52 16.4794 476.887 16.4511 480.254C16.3898 486.988 16.3238 493.722 16.2578 500.455L24.9529 507.819C25.0189 500.928 25.0849 494.036 25.1462 487.145C25.1651 485.099 25.1839 483.049 25.2028 481.007C25.2641 474.545 25.3254 468.083 25.3867 461.621C25.4103 459.103 25.5564 455.956 25.3914 453.505C25.2924 451.974 24.637 449.36 24.967 448.068C25.3254 446.666 25.4669 445.96 25.5282 444.491C25.6555 441.458 25.6083 438.191 25.6366 435.134C25.6979 428.782 25.7592 422.43 25.8158 416.073C25.8959 407.46 25.9761 398.847 26.061 390.234C26.0798 388.079 26.0987 385.923 26.1223 383.772C26.1459 381.407 26.4005 375.946 25.8158 373.939C25.4857 372.789 25.0048 372.556 25.283 371.359C25.7451 369.394 26.1364 368.497 26.2496 366.365C26.3958 363.504 26.3816 360.461 26.3345 357.586C26.2826 354.514 25.6366 351.701 25.7545 348.749C25.9478 343.918 26.4995 339.268 26.5797 334.351C26.806 320.702 26.8437 306.987 26.9758 293.328L18.1392 300.472L18.1298 301.483C18.1062 304.006 18.0826 306.533 18.0591 309.056L18.0685 309.042Z" fill="url(#paint10_radial_193_35017)"/>
<path fill-rule="evenodd" clip-rule="evenodd" d="M16.2565 500.45C13.0407 501.652 10.103 503.559 7.52845 506.135C4.82657 508.839 2.85556 511.962 1.64844 515.396L9.02322 523.771C9.02322 519.35 10.5934 515.544 13.6961 512.43C16.8035 509.316 20.5805 507.771 24.9516 507.809L16.2565 500.445V500.45Z" fill="url(#paint11_radial_193_35017)"/>
<path fill-rule="evenodd" clip-rule="evenodd" d="M1.64926 515.388C-6.99394 515.96 -15.6277 516.427 -24.2756 516.809C-27.8121 516.966 -30.8346 517.281 -34.3287 517.619C-37.6058 517.939 -40.4445 517.472 -43.7593 517.529C-54.416 517.724 -64.8793 518.125 -75.5689 518.058C-79.4261 518.034 -83.3021 517.371 -87.0649 517.615C-90.4269 517.834 -93.1901 518.101 -96.637 518.092C-123.288 518.039 -150.382 517.143 -176.977 515.383L-184.352 523.757L-183.998 523.781C-171.224 524.706 -158.431 525.383 -145.634 525.884C-134.463 526.323 -122.967 526.733 -111.802 526.79C-107.162 526.814 -101.692 526.018 -97.2359 526.557C-93.7418 526.981 -91.172 526.986 -87.6638 526.986C-73.7205 526.986 -59.782 526.805 -45.8388 526.423C-43.4198 526.361 -40.1333 526.385 -37.8086 526.084C-35.9319 525.841 -35.7763 525.336 -33.711 525.56C-31.5891 525.789 -30.3065 525.903 -28.161 525.827C-15.8116 525.388 -3.30182 524.659 9.02876 523.762L1.65398 515.388H1.64926Z" fill="url(#paint12_radial_193_35017)"/>
<path fill-rule="evenodd" clip-rule="evenodd" d="M12.2732 304.159L10.4531 496.636L16.2624 500.451C16.3284 493.717 16.3897 486.983 16.4557 480.249C16.4888 476.887 16.5217 473.515 16.55 470.149C16.6161 462.995 16.5689 455.622 16.7811 448.493C16.866 445.655 17.3752 443.204 17.2385 440.4C16.9037 433.709 16.7481 428.081 17.4035 421.366C17.6157 419.168 17.1583 416.802 17.1112 414.47C16.9886 407.918 17.2008 400.979 17.2668 394.388C17.3186 389.338 17.3658 384.287 17.413 379.237C17.5025 369.89 17.4648 360.357 17.7006 351.028C17.7807 347.976 18.2617 345.492 18.0731 342.43C17.5874 334.571 17.9128 326.058 17.9882 318.127C18.0165 315.094 18.0448 312.066 18.0731 309.037C18.0967 306.51 18.1202 303.987 18.1438 301.464L18.1533 300.453L12.2732 304.154V304.159Z" fill="url(#paint13_radial_193_35017)"/>
<path fill-rule="evenodd" clip-rule="evenodd" d="M3.41795 501.928C1.12159 504.232 -0.802255 506.845 -2.27344 509.721L1.6497 515.386C2.85683 511.957 4.82784 508.834 7.52972 506.125C10.0996 503.55 13.0419 501.642 16.2578 500.44L10.4485 496.625C7.87394 498.032 5.51627 499.82 3.41795 501.923V501.928Z" fill="url(#paint14_radial_193_35017)"/>
<path fill-rule="evenodd" clip-rule="evenodd" d="M-2.27364 509.727C-30.6976 511.52 -59.1877 512.216 -87.6635 512.216C-116.139 512.216 -144.629 511.52 -173.053 509.727L-176.977 515.392C-150.382 517.152 -123.288 518.053 -96.6368 518.101C-93.1852 518.106 -90.422 517.843 -87.0647 517.624C-83.3018 517.376 -79.4306 518.039 -75.5687 518.068C-64.8791 518.134 -54.4205 517.738 -43.7591 517.538C-40.4442 517.476 -37.6056 517.948 -34.3284 517.629C-30.8344 517.285 -27.8119 516.975 -24.2754 516.818C-15.6227 516.432 -6.98898 515.964 1.6495 515.397L-2.27364 509.731V509.727Z" fill="url(#paint15_radial_193_35017)"/>
<path style="mix-blend-mode:screen" fill-rule="evenodd" clip-rule="evenodd" d="M9.44442 504.391C6.36531 507.171 3.99821 510.338 2.81467 514.158C2.7015 514.525 2.67321 514.892 2.72979 515.25C2.89483 516.275 5.65802 519.761 6.40304 520.801C5.36567 519.818 2.53647 516.814 1.38122 516.385C0.989843 516.237 0.570173 516.175 0.122217 516.199C-10.1902 516.671 -19.6444 516.752 -30.1172 517.229C-22.7424 516.275 -0.245577 515.45 1.0087 514.625C1.39064 514.372 1.70657 514.014 1.92348 513.566C3.60685 510.109 5.94565 506.971 9.44914 504.4L9.44442 504.391Z" fill="url(#paint16_radial_193_35017)"/>
</g>
<defs>
<radialGradient id="paint0_radial_193_35017" cx="0" cy="0" r="1" gradientUnits="userSpaceOnUse" gradientTransform="translate(-87.6656 -56.2959) scale(116.761 118.09)">
<stop offset="0.72" stop-color="#262E44"/>
<stop offset="0.76" stop-color="#313A51"/>
<stop offset="0.85" stop-color="#46536B"/>
<stop offset="0.94" stop-color="#53627B"/>
<stop offset="1" stop-color="#586881"/>
</radialGradient>
<radialGradient id="paint1_radial_193_35017" cx="0" cy="0" r="1" gradientUnits="userSpaceOnUse" gradientTransform="translate(21.2524 26.5415) scale(46.3234 46.8507)">
<stop stop-color="#435371"/>
<stop offset="1" stop-color="#28304F"/>
</radialGradient>
<radialGradient id="paint2_radial_193_35017" cx="0" cy="0" r="1" gradientUnits="userSpaceOnUse" gradientTransform="translate(-108.788 112.906) scale(244.07 246.848)">
<stop stop-color="#344156"/>
<stop offset="1" stop-color="#19202F"/>
</radialGradient>
<radialGradient id="paint3_radial_193_35017" cx="0" cy="0" r="1" gradientUnits="userSpaceOnUse" gradientTransform="translate(-86.337 14.5016) scale(149.891 151.597)">
<stop stop-color="#38465E"/>
<stop offset="1" stop-color="#1F263F"/>
</radialGradient>
<radialGradient id="paint4_radial_193_35017" cx="0" cy="0" r="1" gradientUnits="userSpaceOnUse" gradientTransform="translate(36.9039 37.7224) scale(53.9763 54.5908)">
<stop stop-color="#4D5F7E"/>
<stop offset="1" stop-color="#2C3751"/>
</radialGradient>
<radialGradient id="paint5_radial_193_35017" cx="0" cy="0" r="1" gradientUnits="userSpaceOnUse" gradientTransform="translate(-37.7799 103.825) scale(219.182 221.678)">
<stop stop-color="#677A9E"/>
<stop offset="1" stop-color="#39456F"/>
</radialGradient>
<radialGradient id="paint6_radial_193_35017" cx="0" cy="0" r="1" gradientUnits="userSpaceOnUse" gradientTransform="translate(17.265 26.4988) scale(43.928 44.428)">
<stop stop-color="#20377D"/>
<stop offset="0.21" stop-color="#152554"/>
<stop offset="0.44" stop-color="#0C152F"/>
<stop offset="0.66" stop-color="#050915"/>
<stop offset="0.85" stop-color="#010205"/>
<stop offset="1"/>
</radialGradient>
<radialGradient id="paint7_radial_193_35017" cx="0" cy="0" r="1" gradientUnits="userSpaceOnUse" gradientTransform="translate(-108.788 227.865) scale(244.07 647.064)">
<stop stop-color="#344156"/>
<stop offset="1" stop-color="#19202F"/>
</radialGradient>
<radialGradient id="paint8_radial_193_35017" cx="0" cy="0" r="1" gradientUnits="userSpaceOnUse" gradientTransform="translate(-37.7799 204.058) scale(219.182 581.084)">
<stop stop-color="#677A9E"/>
<stop offset="1" stop-color="#39456F"/>
</radialGradient>
<radialGradient id="paint9_radial_193_35017" cx="0" cy="0" r="1" gradientUnits="userSpaceOnUse" gradientTransform="translate(17.265 1.35654) scale(43.928 116.459)">
<stop stop-color="#20377D"/>
<stop offset="0.21" stop-color="#152554"/>
<stop offset="0.44" stop-color="#0C152F"/>
<stop offset="0.66" stop-color="#050915"/>
<stop offset="0.85" stop-color="#010205"/>
<stop offset="1"/>
</radialGradient>
<radialGradient id="paint10_radial_193_35017" cx="0" cy="0" r="1" gradientUnits="userSpaceOnUse" gradientTransform="translate(-108.788 386.906) scale(244.07 246.848)">
<stop stop-color="#344156"/>
<stop offset="1" stop-color="#19202F"/>
</radialGradient>
<radialGradient id="paint11_radial_193_35017" cx="0" cy="0" r="1" gradientUnits="userSpaceOnUse" gradientTransform="translate(0.181969 528.497) scale(37.4774 37.904)">
<stop stop-color="#303B54"/>
<stop offset="1" stop-color="#181D2A"/>
</radialGradient>
<radialGradient id="paint12_radial_193_35017" cx="0" cy="0" r="1" gradientUnits="userSpaceOnUse" gradientTransform="translate(-93.8361 467.34) scale(157.652 159.447)">
<stop stop-color="#313D50"/>
<stop offset="1" stop-color="#192033"/>
</radialGradient>
<radialGradient id="paint13_radial_193_35017" cx="0" cy="0" r="1" gradientUnits="userSpaceOnUse" gradientTransform="translate(-37.7799 377.825) scale(219.182 221.678)">
<stop stop-color="#677A9E"/>
<stop offset="1" stop-color="#39456F"/>
</radialGradient>
<radialGradient id="paint14_radial_193_35017" cx="0" cy="0" r="1" gradientUnits="userSpaceOnUse" gradientTransform="translate(1.06973 492.691) scale(34.2568 34.6468)">
<stop stop-color="#506283"/>
<stop offset="1" stop-color="#39456F"/>
</radialGradient>
<radialGradient id="paint15_radial_193_35017" cx="0" cy="0" r="1" gradientUnits="userSpaceOnUse" gradientTransform="translate(-34.0361 479.577) scale(206.362 208.711)">
<stop stop-color="#607099"/>
<stop offset="1" stop-color="#495586"/>
</radialGradient>
<radialGradient id="paint16_radial_193_35017" cx="0" cy="0" r="1" gradientUnits="userSpaceOnUse" gradientTransform="translate(0.947397 514.353) scale(42.9661 43.4552)">
<stop stop-color="#20377D"/>
<stop offset="0.21" stop-color="#152554"/>
<stop offset="0.44" stop-color="#0C152F"/>
<stop offset="0.66" stop-color="#050915"/>
<stop offset="0.85" stop-color="#010205"/>
<stop offset="1"/>
</radialGradient>
<clipPath id="clip0_193_35017">
<rect width="27" height="42" fill="white"/>
</clipPath>
<clipPath id="clip1_193_35017">
<rect width="27" height="443" fill="white" transform="translate(0 42)"/>
</clipPath>
<clipPath id="clip2_193_35017">
<rect width="27" height="42" fill="white" transform="translate(0 485)"/>
</clipPath>
</defs>
</svg>
