<svg width="27" height="527" viewBox="0 0 27 527" fill="none" xmlns="http://www.w3.org/2000/svg">
<g clip-path="url(#clip0_193_34811)">
<path fill-rule="evenodd" clip-rule="evenodd" d="M8.52322 26.4574C15.0775 23.844 20.255 18.4502 22.6456 11.7307L15.318 3.35156C15.318 12.0884 8.32989 19.2276 -0.308594 19.3086L8.52793 26.4526L8.52322 26.4574Z" fill="url(#paint0_radial_193_34811)"/>
<path fill-rule="evenodd" clip-rule="evenodd" d="M22.6401 11.734C53.1247 9.70715 83.8026 8.92026 114.33 8.92026C144.857 8.92026 175.535 9.70715 206.024 11.734L213.352 3.35484C184.522 1.26125 150.619 0.0546875 114.334 0.0546875C78.0499 0.0546875 44.142 1.26125 15.3125 3.35484L22.6401 11.734Z" fill="url(#paint1_radial_193_34811)"/>
<path fill-rule="evenodd" clip-rule="evenodd" d="M10.4149 226.445C10.3724 221.733 10.3253 217.016 10.2828 212.305C10.2498 208.938 10.2168 205.571 10.1838 202.204C10.1555 199.004 10.1225 195.809 10.0942 192.609C10.0094 183.624 10.0329 174.629 9.83489 165.645C9.78302 163.184 9.17946 160.494 9.23604 158.286C9.3162 154.972 9.64156 151.648 9.66514 148.262C9.74058 136.501 9.45295 124.588 9.33978 112.814C9.30677 109.447 9.27848 106.08 9.24547 102.713C9.1606 93.9999 8.93426 85.0389 9.02857 76.3498C9.09458 71.9623 9.5001 67.6511 9.54725 63.2064C9.57554 60.4261 8.99084 58.59 8.83995 55.9671C8.48159 49.7626 8.67492 42.8332 8.61833 36.5524C8.58533 33.1855 8.55703 29.8186 8.52403 26.4517L-0.3125 19.3125C-0.204047 30.8773 -0.0955949 42.4422 0.017573 54.007C0.0552956 58.0273 -0.0861642 63.0872 0.357077 66.9835C0.569266 68.872 1.46518 72.6633 0.988931 74.3373C0.234478 76.9936 0.253339 78.0762 0.272201 80.8326C0.479675 111.192 0.823894 141.552 1.13039 171.911C1.15868 174.882 1.02194 179.58 1.44632 182.369C1.59249 183.323 2.16776 184.83 2.09232 185.598C1.9037 187.534 1.48404 188.994 1.3803 191.125C1.21527 194.745 1.38973 198.98 1.42274 202.662C1.52176 213.044 1.62078 223.426 1.71981 233.813L10.4149 226.449V226.445Z" fill="url(#paint2_radial_193_34811)"/>
<path fill-rule="evenodd" clip-rule="evenodd" d="M14.4035 30.157C19.595 27.2003 23.8341 22.7555 26.5643 17.4L22.6458 11.7344C20.2552 18.4539 15.0777 23.8429 8.52344 26.4611L14.4035 30.1618V30.157Z" fill="url(#paint3_radial_193_34811)"/>
<path fill-rule="evenodd" clip-rule="evenodd" d="M26.5669 17.4012C55.783 15.5508 85.0652 14.8307 114.338 14.8307C143.611 14.8307 172.893 15.5556 202.109 17.4012L206.032 11.7356C175.548 9.70876 144.87 8.92188 114.338 8.92188C83.8062 8.92188 53.133 9.70876 22.6484 11.7356L26.5669 17.4012Z" fill="url(#paint4_radial_193_34811)"/>
<path fill-rule="evenodd" clip-rule="evenodd" d="M16.2197 222.631L14.3995 30.1539L8.51953 26.4531C8.55254 29.82 8.58555 33.187 8.61384 36.5539C8.67042 42.8394 8.47709 49.764 8.83546 55.9685C8.98635 58.5962 9.57105 60.4275 9.54276 63.2078C9.4956 67.6525 9.09009 71.9637 9.02407 76.3512C8.92976 85.0403 9.1561 93.9965 9.24098 102.714C9.27398 106.081 9.30699 109.443 9.33528 112.815C9.44845 124.594 9.73609 136.503 9.66064 148.263C9.63706 151.654 9.31171 154.973 9.23155 158.287C9.17496 160.491 9.77852 163.185 9.83039 165.646C10.0284 174.631 10.0096 183.625 10.0897 192.61C10.118 195.81 10.151 199.005 10.1793 202.205C10.2123 205.572 10.2453 208.939 10.2783 212.306C10.3255 217.018 10.3679 221.734 10.4104 226.446L16.2197 222.631Z" fill="url(#paint5_radial_193_34811)"/>
</g>
<g clip-path="url(#clip1_193_34811)">
<path fill-rule="evenodd" clip-rule="evenodd" d="M10.4149 525.495C10.3724 513.144 10.3253 500.78 10.2828 488.429C10.2498 479.604 10.2168 470.778 10.1838 461.952C10.1555 453.564 10.1225 445.188 10.0942 436.8C10.0094 413.248 10.0329 389.672 9.83489 366.12C9.78302 359.669 9.17946 352.619 9.23604 346.831C9.3162 338.142 9.64156 329.429 9.66514 320.554C9.74058 289.726 9.45295 258.499 9.33978 227.634C9.30677 218.808 9.27848 209.982 9.24547 201.157C9.1606 178.317 8.93426 154.828 9.02857 132.051C9.09458 120.55 9.5001 109.249 9.54725 97.5982C9.57554 90.3102 8.99084 85.4973 8.83995 78.6217C8.48159 62.3579 8.67492 44.194 8.61833 27.7302C8.58533 18.9045 8.55703 10.0788 8.52403 1.25306L-0.3125 -17.4609C-0.204047 12.854 -0.0955949 43.1689 0.017573 73.4838C0.0552956 84.0222 -0.0861642 97.2857 0.357077 107.499C0.569266 112.449 1.46518 122.388 0.988931 126.776C0.234478 133.739 0.253339 136.576 0.272201 143.802C0.479675 223.383 0.823894 302.965 1.13039 382.546C1.15868 390.334 1.02194 402.648 1.44632 409.961C1.59249 412.461 2.16776 416.411 2.09232 418.424C1.9037 423.499 1.48404 427.325 1.3803 432.913C1.21527 442.401 1.38973 453.502 1.42274 463.152C1.52176 490.367 1.62078 517.582 1.71981 544.809L10.4149 525.507V525.495Z" fill="url(#paint6_radial_193_34811)"/>
<path fill-rule="evenodd" clip-rule="evenodd" d="M16.2197 515.491L14.3995 10.9508L8.51953 1.25C8.55254 10.0757 8.58555 18.9014 8.61384 27.7271C8.67042 44.2034 8.47709 62.3549 8.83546 78.6187C8.98635 85.5067 9.57105 90.3071 9.54276 97.5952C9.4956 109.246 9.09009 120.547 9.02407 132.048C8.92976 154.825 9.1561 178.302 9.24098 201.153C9.27398 209.979 9.30699 218.792 9.33528 227.631C9.44845 258.508 9.73609 289.723 9.66064 320.55C9.63706 329.439 9.31171 338.139 9.23155 346.828C9.17496 352.603 9.77852 359.666 9.83039 366.117C10.0284 389.668 10.0096 413.245 10.0897 436.797C10.118 445.185 10.151 453.561 10.1793 461.949C10.2123 470.775 10.2453 479.601 10.2783 488.426C10.3255 500.777 10.3679 513.141 10.4104 525.492L16.2197 515.491Z" fill="url(#paint7_radial_193_34811)"/>
<path fill-rule="evenodd" clip-rule="evenodd" d="M9.19782 190.767C8.74515 190.429 7.25511 195.267 6.81658 199.13C5.78392 208.318 8.26419 229.457 9.35814 229.482C10.9755 229.52 14.1961 207.293 13.4888 202.68C12.6353 197.13 10.7869 191.954 9.19782 190.767Z" fill="url(#paint8_radial_193_34811)"/>
<path style="mix-blend-mode:multiply" fill-rule="evenodd" clip-rule="evenodd" d="M6.59072 206.41C8.04776 196.297 12.4802 198.497 13.0507 212.048C13.5081 207.935 13.7297 204.26 13.4892 202.672C12.6358 197.122 10.7874 191.947 9.1983 190.759C8.74563 190.421 7.25558 195.259 6.81706 199.122C6.59072 201.097 6.53414 203.635 6.59072 206.398V206.41Z" fill="url(#paint9_radial_193_34811)"/>
</g>
<g clip-path="url(#clip2_193_34811)">
<path fill-rule="evenodd" clip-rule="evenodd" d="M203.649 515.388C195.006 515.96 186.372 516.427 177.724 516.809C174.188 516.966 171.165 517.281 167.671 517.619C164.394 517.939 161.556 517.472 158.241 517.529C147.584 517.724 137.121 518.125 126.431 518.058C122.574 518.034 118.698 517.371 114.935 517.615C111.573 517.834 108.81 518.101 105.363 518.092C78.7119 518.039 51.6177 517.143 25.0232 515.383L17.6484 523.757L18.0021 523.781C30.7759 524.706 43.5686 525.383 56.366 525.884C67.5366 526.323 79.0326 526.733 90.1985 526.79C94.8384 526.814 100.308 526.018 104.764 526.557C108.258 526.981 110.828 526.986 114.336 526.986C128.279 526.986 142.218 526.805 156.161 526.423C158.58 526.361 161.867 526.385 164.191 526.084C166.068 525.841 166.224 525.336 168.289 525.56C170.411 525.789 171.693 525.903 173.839 525.827C186.188 525.388 198.698 524.659 211.029 523.762L203.654 515.388H203.649Z" fill="url(#paint10_radial_193_34811)"/>
<path fill-rule="evenodd" clip-rule="evenodd" d="M25.0211 515.391C23.8187 511.962 21.843 508.839 19.1411 506.13C16.5712 503.555 13.6289 501.647 10.4177 500.445L1.72266 507.809C6.09377 507.766 9.87074 509.316 12.9781 512.43C16.0808 515.544 17.651 519.345 17.651 523.771L25.0258 515.396L25.0211 515.391Z" fill="url(#paint11_radial_193_34811)"/>
<path fill-rule="evenodd" clip-rule="evenodd" d="M10.4149 500.445C10.3724 495.733 10.3253 491.016 10.2828 486.305C10.2498 482.938 10.2168 479.571 10.1838 476.204C10.1555 473.004 10.1225 469.809 10.0942 466.609C10.0094 457.624 10.0329 448.629 9.83489 439.645C9.78302 437.184 9.17946 434.494 9.23604 432.286C9.3162 428.972 9.64156 425.648 9.66514 422.262C9.74058 410.501 9.45295 398.588 9.33978 386.814C9.30677 383.447 9.27848 380.08 9.24547 376.713C9.1606 368 8.93426 359.039 9.02857 350.35C9.09458 345.962 9.5001 341.651 9.54725 337.206C9.57554 334.426 8.99084 332.59 8.83995 329.967C8.48159 323.763 8.67492 316.833 8.61833 310.552C8.58533 307.186 8.55703 303.819 8.52403 300.452L-0.3125 293.312C-0.204047 304.877 -0.0955949 316.442 0.017573 328.007C0.0552956 332.027 -0.0861642 337.087 0.357077 340.983C0.569266 342.872 1.46518 346.663 0.988931 348.337C0.234478 350.994 0.253339 352.076 0.272201 354.833C0.479675 385.192 0.823894 415.552 1.13039 445.911C1.15868 448.882 1.02194 453.58 1.44632 456.369C1.59249 457.323 2.16776 458.83 2.09232 459.598C1.9037 461.534 1.48404 462.994 1.3803 465.125C1.21527 468.745 1.38973 472.98 1.42274 476.662C1.52176 487.044 1.62078 497.426 1.71981 507.813L10.4149 500.449V500.445Z" fill="url(#paint12_radial_193_34811)"/>
<path fill-rule="evenodd" clip-rule="evenodd" d="M199.726 509.727C171.302 511.52 142.812 512.216 114.336 512.216C85.8606 512.216 57.3706 511.52 28.9466 509.727L25.0234 515.392C51.6179 517.152 78.7122 518.053 105.363 518.101C108.815 518.106 111.578 517.843 114.935 517.624C118.698 517.376 122.569 518.039 126.431 518.068C137.121 518.134 147.58 517.738 158.241 517.538C161.556 517.476 164.394 517.948 167.672 517.629C171.166 517.285 174.188 516.975 177.725 516.818C186.377 516.432 195.011 515.964 203.65 515.397L199.726 509.731V509.727Z" fill="url(#paint13_radial_193_34811)"/>
<path fill-rule="evenodd" clip-rule="evenodd" d="M28.9492 509.724C27.478 506.848 25.5542 504.235 23.2578 501.931C21.1595 499.828 18.8018 498.044 16.2273 496.633L10.418 500.448C13.6338 501.65 16.5762 503.557 19.1413 506.133C21.8432 508.837 23.8189 511.96 25.0213 515.394L28.9445 509.728L28.9492 509.724Z" fill="url(#paint14_radial_193_34811)"/>
<path fill-rule="evenodd" clip-rule="evenodd" d="M16.2197 496.631L14.3995 304.154L8.51953 300.453C8.55254 303.82 8.58555 307.187 8.61384 310.554C8.67042 316.839 8.47709 323.764 8.83546 329.968C8.98635 332.596 9.57105 334.427 9.54276 337.208C9.4956 341.653 9.09009 345.964 9.02407 350.351C8.92976 359.04 9.1561 367.997 9.24098 376.714C9.27398 380.081 9.30699 383.443 9.33528 386.815C9.44845 398.594 9.73609 410.503 9.66064 422.263C9.63706 425.654 9.31171 428.973 9.23155 432.287C9.17496 434.491 9.77852 437.185 9.83039 439.646C10.0284 448.631 10.0096 457.625 10.0897 466.61C10.118 469.81 10.151 473.005 10.1793 476.205C10.2123 479.572 10.2453 482.939 10.2783 486.306C10.3255 491.018 10.3679 495.734 10.4104 500.446L16.2197 496.631Z" fill="url(#paint15_radial_193_34811)"/>
</g>
<defs>
<radialGradient id="paint0_radial_193_34811" cx="0" cy="0" r="1" gradientUnits="userSpaceOnUse" gradientTransform="translate(5.85434 28.3316) scale(51.3358 51.9201)">
<stop stop-color="#7082A5"/>
<stop offset="1" stop-color="#505D8B"/>
</radialGradient>
<radialGradient id="paint1_radial_193_34811" cx="0" cy="0" r="1" gradientUnits="userSpaceOnUse" gradientTransform="translate(114.334 -56.2959) scale(116.761 118.09)">
<stop offset="0.72" stop-color="#262E44"/>
<stop offset="0.76" stop-color="#313A51"/>
<stop offset="0.85" stop-color="#46536B"/>
<stop offset="0.94" stop-color="#53627B"/>
<stop offset="1" stop-color="#586881"/>
</radialGradient>
<radialGradient id="paint2_radial_193_34811" cx="0" cy="0" r="1" gradientUnits="userSpaceOnUse" gradientTransform="translate(-56.4485 82.7069) scale(200.067 202.344)">
<stop stop-color="#677A9E"/>
<stop offset="1" stop-color="#39456F"/>
</radialGradient>
<radialGradient id="paint3_radial_193_34811" cx="0" cy="0" r="1" gradientUnits="userSpaceOnUse" gradientTransform="translate(-8.11696 30.343) scale(49.1432 49.7026)">
<stop stop-color="#475979"/>
<stop offset="1" stop-color="#252F51"/>
</radialGradient>
<radialGradient id="paint4_radial_193_34811" cx="0" cy="0" r="1" gradientUnits="userSpaceOnUse" gradientTransform="translate(115.663 14.5016) scale(149.891 151.597)">
<stop stop-color="#38465E"/>
<stop offset="1" stop-color="#1F263F"/>
</radialGradient>
<radialGradient id="paint5_radial_193_34811" cx="0" cy="0" r="1" gradientUnits="userSpaceOnUse" gradientTransform="translate(-81.3688 108.89) scale(259.867 262.825)">
<stop stop-color="#344156"/>
<stop offset="1" stop-color="#19202F"/>
</radialGradient>
<radialGradient id="paint6_radial_193_34811" cx="0" cy="0" r="1" gradientUnits="userSpaceOnUse" gradientTransform="translate(-56.4485 148.715) scale(200.067 530.405)">
<stop stop-color="#677A9E"/>
<stop offset="1" stop-color="#39456F"/>
</radialGradient>
<radialGradient id="paint7_radial_193_34811" cx="0" cy="0" r="1" gradientUnits="userSpaceOnUse" gradientTransform="translate(-81.3688 217.342) scale(259.867 688.942)">
<stop stop-color="#344156"/>
<stop offset="1" stop-color="#19202F"/>
</radialGradient>
<radialGradient id="paint8_radial_193_34811" cx="0" cy="0" r="1" gradientUnits="userSpaceOnUse" gradientTransform="translate(5.88294 241.183) scale(24.3028 64.4301)">
<stop stop-color="#475979"/>
<stop offset="0.34" stop-color="#3F4F70"/>
<stop offset="0.89" stop-color="#2A3758"/>
<stop offset="1" stop-color="#263153"/>
</radialGradient>
<radialGradient id="paint9_radial_193_34811" cx="0" cy="0" r="1" gradientUnits="userSpaceOnUse" gradientTransform="translate(3.52104 230.037) scale(25.1186 66.5928)">
<stop offset="0.33" stop-color="#F7F7EA"/>
<stop offset="0.44" stop-color="#EBECE2"/>
<stop offset="0.63" stop-color="#CDD1CF"/>
<stop offset="0.88" stop-color="#9DA5B1"/>
<stop offset="1" stop-color="#858FA2"/>
</radialGradient>
<radialGradient id="paint10_radial_193_34811" cx="0" cy="0" r="1" gradientUnits="userSpaceOnUse" gradientTransform="translate(108.164 467.34) scale(157.652 159.447)">
<stop stop-color="#313D50"/>
<stop offset="1" stop-color="#192033"/>
</radialGradient>
<radialGradient id="paint11_radial_193_34811" cx="0" cy="0" r="1" gradientUnits="userSpaceOnUse" gradientTransform="translate(26.8695 524.596) scale(40.9102 41.3759)">
<stop stop-color="#3A4763"/>
<stop offset="1" stop-color="#232C47"/>
</radialGradient>
<radialGradient id="paint12_radial_193_34811" cx="0" cy="0" r="1" gradientUnits="userSpaceOnUse" gradientTransform="translate(-56.4485 356.707) scale(200.067 202.344)">
<stop stop-color="#677A9E"/>
<stop offset="1" stop-color="#39456F"/>
</radialGradient>
<radialGradient id="paint13_radial_193_34811" cx="0" cy="0" r="1" gradientUnits="userSpaceOnUse" gradientTransform="translate(167.964 479.577) scale(206.362 208.711)">
<stop stop-color="#607099"/>
<stop offset="1" stop-color="#495586"/>
</radialGradient>
<radialGradient id="paint14_radial_193_34811" cx="0" cy="0" r="1" gradientUnits="userSpaceOnUse" gradientTransform="translate(34.7302 507.964) scale(29.848 30.1878)">
<stop stop-color="#434F73"/>
<stop offset="1" stop-color="#323C59"/>
</radialGradient>
<radialGradient id="paint15_radial_193_34811" cx="0" cy="0" r="1" gradientUnits="userSpaceOnUse" gradientTransform="translate(-81.3688 382.89) scale(259.867 262.825)">
<stop stop-color="#344156"/>
<stop offset="1" stop-color="#19202F"/>
</radialGradient>
<clipPath id="clip0_193_34811">
<rect width="27" height="42" fill="white"/>
</clipPath>
<clipPath id="clip1_193_34811">
<rect width="27" height="443" fill="white" transform="translate(0 42)"/>
</clipPath>
<clipPath id="clip2_193_34811">
<rect width="27" height="42" fill="white" transform="translate(0 485)"/>
</clipPath>
</defs>
</svg>
