<svg width="65" height="66" viewBox="0 0 65 66" fill="none" xmlns="http://www.w3.org/2000/svg">
<path fill-rule="evenodd" clip-rule="evenodd" d="M31.4813 0.469466C35.4975 0.731645 47.8052 4.00888 51.4328 7.28611C52.2101 7.94156 58.04 13.5784 60.2425 17.6422C61.7971 20.6572 63.87 32.4553 63.87 33.3729C63.87 40.1895 57.7809 53.5607 49.4894 59.5908C47.4165 61.0327 34.7202 64.5722 31.4813 64.4411C20.9874 64.0478 9.84572 56.4446 7.12507 53.5607C5.31131 51.7254 1.55422 41.5004 1.29511 39.6652C1.036 37.8299 -0.129996 31.1444 0.129113 28.9159C0.388222 26.0319 3.6271 15.938 5.18176 13.7095C8.67973 8.07265 23.9672 -0.054891 31.4813 0.469466Z" fill="#A08E86"/>
<path fill-rule="evenodd" clip-rule="evenodd" d="M6.21799 29.1819C6.34754 26.9534 8.93862 19.3502 9.97506 17.7771C9.97506 17.7771 10.1046 17.5149 10.2342 17.3839C8.29085 16.5973 5.69977 14.4999 5.31111 13.4512C5.31111 13.4512 5.18155 13.5823 5.18155 13.7134C3.75645 15.9419 0.388015 26.0357 0.128906 28.9197C1.2949 28.3954 4.92244 28.5264 6.21799 29.1819Z" fill="url(#paint0_radial_2068_664904)"/>
<path fill-rule="evenodd" clip-rule="evenodd" d="M10.2343 17.3812C13.4731 13.3175 27.0764 6.89408 30.8334 6.89408C31.3517 5.32101 31.4812 1.51942 30.8334 0.470703C23.1897 0.470703 8.93872 7.9428 5.18164 13.4485C5.5703 14.4973 8.29094 16.5947 10.1047 17.3812H10.2343Z" fill="url(#paint1_radial_2068_664904)"/>
<path fill-rule="evenodd" clip-rule="evenodd" d="M31.2233 7.0308C33.1666 7.29298 42.8832 9.78368 46.6403 12.2744C47.4176 10.0459 48.7131 8.2106 50.3974 6.50644C45.7334 3.49139 35.369 0.869601 31.7415 0.607422C31.612 0.607422 31.3529 0.607422 31.0938 0.607422C31.612 1.78723 31.4824 5.58882 31.0938 7.0308C31.0938 7.0308 31.3528 7.0308 31.4824 7.0308H31.2233Z" fill="url(#paint2_radial_2068_664904)"/>
<path fill-rule="evenodd" clip-rule="evenodd" d="M50.2669 6.36865C48.5827 8.07281 47.2871 9.90806 46.5098 12.1366C46.7689 12.2677 47.028 12.5299 47.2871 12.6609C47.8053 13.1853 52.0806 17.118 53.7648 20.133C56.0968 19.7398 58.1697 18.6911 59.9835 17.118C57.6515 13.1853 52.2102 7.94172 51.5624 7.28628C51.1737 7.0241 50.7851 6.63083 50.2669 6.36865Z" fill="url(#paint3_radial_2068_664904)"/>
<path fill-rule="evenodd" clip-rule="evenodd" d="M59.9842 17.2468C58.0409 18.8199 56.0976 19.9997 53.7656 20.2619C53.7656 20.2619 53.7656 20.393 53.8952 20.524C55.0611 22.7526 57.7818 32.9775 57.7818 33.633C57.7818 33.8952 57.7818 34.0262 57.7818 34.2884C59.9842 33.633 61.9276 33.3708 64.0005 33.3708C64.0005 32.4532 61.9275 20.524 60.3729 17.6401C60.3729 17.509 60.2433 17.2468 60.1138 17.1157L59.9842 17.2468Z" fill="url(#paint4_radial_2068_664904)"/>
<path fill-rule="evenodd" clip-rule="evenodd" d="M63.8713 33.5049C61.928 33.5049 59.8552 33.636 57.6527 34.4225C57.2641 39.7972 51.5637 50.2843 45.4746 54.6103C46.7702 57.101 48.0657 58.5429 49.4908 59.7228C57.7823 53.6926 63.8713 40.4526 63.8713 33.5049Z" fill="url(#paint5_radial_2068_664904)"/>
<path fill-rule="evenodd" clip-rule="evenodd" d="M49.4899 59.5915C48.0648 58.4117 46.7692 57.1008 45.4737 54.479C43.919 55.5277 34.332 58.2806 32 58.1495C32.6478 60.2469 32.5182 62.3444 31.6113 64.4418H32C35.6275 64.4418 47.6761 61.0335 49.6194 59.5915H49.4899Z" fill="url(#paint6_radial_2068_664904)"/>
<path fill-rule="evenodd" clip-rule="evenodd" d="M31.4832 64.4453C32.3901 62.3479 32.5197 60.2505 31.8719 58.153C25.6533 57.6287 12.6978 49.8944 11.9205 48.8457C9.97714 50.2877 8.4225 51.9918 7.12695 53.5649C9.8476 56.4489 20.9893 64.0521 31.4832 64.4453Z" fill="url(#paint7_radial_2068_664904)"/>
<path fill-rule="evenodd" clip-rule="evenodd" d="M7.12554 53.5695C8.42109 51.8654 10.1053 50.2923 11.919 48.8503C11.4008 48.0638 7.25509 38.7564 6.99598 37.3145C5.18222 38.6253 3.23889 39.4119 1.16602 39.6741C1.42512 41.5093 5.31177 51.7343 6.99598 53.5695H7.12554Z" fill="url(#paint8_radial_2068_664904)"/>
<path fill-rule="evenodd" clip-rule="evenodd" d="M1.29629 39.6651C3.36916 39.4029 5.31249 38.6164 7.12626 37.3055C6.86715 35.8635 6.08982 30.8821 6.21938 29.178C4.92383 28.5225 1.29629 28.2604 0.130296 28.9158C0.000740997 31.1443 1.03718 37.8299 1.29629 39.6651Z" fill="url(#paint9_radial_2068_664904)"/>
<path fill-rule="evenodd" clip-rule="evenodd" d="M10.623 17.7762C10.623 17.7762 9.97516 18.1695 9.71605 18.5627C8.1614 21.84 7.38409 24.855 6.34766 28.3944C6.34766 30.8851 6.4772 32.7204 6.86586 35.2111C7.12497 36.7842 7.6432 37.1774 9.32741 36.3909C15.9347 33.638 22.542 31.9339 29.2788 30.3608C32.5177 27.8701 37.3112 23.4131 40.0318 20.398C41.8456 18.3006 43.4003 16.072 45.4732 13.1881C45.4732 13.057 45.6027 12.7948 45.7323 12.6637C45.7323 12.4015 45.7322 12.1394 45.6027 12.0083C40.8092 9.91085 35.7565 8.20669 30.5744 7.28906C23.9671 8.86213 18.0076 11.4839 12.5663 15.5477C12.0481 15.941 11.6594 16.2031 11.1412 16.5964C10.8821 16.8586 10.8821 17.3829 10.623 17.7762Z" fill="url(#paint10_radial_2068_664904)"/>
<path fill-rule="evenodd" clip-rule="evenodd" d="M46.2507 12.9292C44.4369 15.0266 42.8823 17.3862 41.4572 19.7458C41.1981 20.008 41.0685 20.4013 41.5867 20.5324C42.6232 20.7945 43.6596 21.0567 44.6961 21.0567C46.7689 21.0567 48.8418 20.6634 51.0443 20.4013C51.5625 20.4013 52.0807 20.4013 52.5989 20.1391C53.1171 19.8769 52.9875 19.6147 52.7284 19.3526C52.4693 18.9593 52.3398 18.4349 51.9511 18.0417C50.9147 16.7308 49.7487 15.551 48.5827 14.3712C47.9349 13.7157 47.4167 13.1913 46.6394 12.667C46.5098 12.667 46.2507 12.667 46.1212 12.7981L46.2507 12.9292Z" fill="url(#paint11_radial_2068_664904)"/>
<path fill-rule="evenodd" clip-rule="evenodd" d="M56.0964 34.9521C53.894 35.8698 51.6916 36.9185 49.6187 38.0983C48.7118 39.4092 47.6754 40.7201 46.7685 42.031C46.6389 43.7351 46.3798 45.4393 46.2503 47.1434C45.9912 48.8476 45.8616 50.5518 45.6025 52.2559C45.6025 53.1735 45.4729 53.9601 45.6025 54.0912C45.6025 54.0912 46.5094 53.6979 47.2867 52.9114C48.5823 51.7316 50.1369 50.0274 50.396 49.7652C51.9507 47.7989 53.3758 45.5704 54.5418 43.3418C55.4486 41.2444 56.7442 38.7537 57.1329 36.263C57.392 35.2143 57.5215 34.2967 55.9669 34.9521H56.0964Z" fill="url(#paint12_radial_2068_664904)"/>
<path fill-rule="evenodd" clip-rule="evenodd" d="M49.3598 37.8338C51.8214 36.9162 55.3193 34.6877 55.9671 34.4255C57.1331 34.0322 57.3922 33.9012 57.2627 33.1146C56.874 31.5415 56.6149 29.9685 56.0967 28.5265C55.3193 26.0358 54.4125 23.6762 53.5056 21.1855C53.5056 21.0544 53.5056 20.7922 53.376 20.6611C52.5987 20.6611 51.8214 20.6611 51.0441 20.6611C48.9712 20.7922 47.0278 21.1855 44.955 21.3166C44.4368 21.3166 44.0481 21.3166 43.5299 21.3166C42.7525 21.3166 42.1048 21.0544 41.3275 21.0544C40.4206 21.0544 40.1614 21.3166 39.5136 21.8409C36.1452 24.7249 32.9064 27.6089 29.9266 30.6239C22.0238 32.197 14.5096 34.1633 7.90234 37.5717C8.16145 41.2422 10.3639 45.6992 12.3072 48.8453C13.8619 50.2873 15.8052 51.4671 17.7485 52.5158C22.1534 55.0065 28.2424 57.7594 31.87 58.1527C32.7768 58.1527 34.7201 57.8905 36.793 57.3662C39.5137 56.4485 42.1048 55.7931 44.4367 54.7444C44.8254 53.9578 44.4367 52.9091 44.6959 52.1226C45.2141 48.7143 45.7323 45.3059 46.121 41.7665C47.287 40.4556 48.1938 39.1447 49.1007 37.7027L49.3598 37.8338Z" fill="url(#paint13_radial_2068_664904)"/>
<g style="mix-blend-mode:screen" opacity="0.5">
<path fill-rule="evenodd" clip-rule="evenodd" d="M25.7819 14.3683C25.7819 14.3683 25.1341 13.3196 25.3932 13.0574C26.5592 11.7465 28.1139 10.96 29.539 10.0423C30.0572 9.78016 30.705 9.78016 31.2232 10.0423C32.6483 10.8289 34.2029 11.4843 35.1098 12.7952C36.4053 14.7616 30.9641 15.2859 30.0572 15.1548C28.6321 15.1548 27.0774 15.1548 25.7819 14.2372V14.3683Z" fill="#3C3C96"/>
</g>
<path fill-rule="evenodd" clip-rule="evenodd" d="M25.7809 14.1041C25.7809 14.1041 25.2627 13.0554 25.5218 12.6621C26.6878 11.4823 28.1129 10.5647 29.6675 9.77818C30.1857 9.516 30.8335 9.516 31.3517 9.77818C32.7768 10.4336 34.2019 11.2202 35.1088 12.5311C36.4044 14.3663 30.9631 14.7596 30.1857 14.7596C28.7606 14.7596 27.206 14.7596 25.9104 14.1041H25.7809Z" fill="url(#paint14_radial_2068_664904)"/>
<g style="mix-blend-mode:screen" opacity="0.5">
<path fill-rule="evenodd" clip-rule="evenodd" d="M39.645 13.3176C39.645 13.3176 38.479 13.5798 37.9607 13.842C37.7016 13.9731 37.7016 14.3663 37.8312 14.6285C38.2199 15.415 39.1267 16.2016 40.0336 16.5948C40.2927 16.7259 40.811 16.857 41.0701 16.5948C41.4587 16.2016 41.8474 15.5461 41.9769 14.8907C41.9769 14.6285 41.8474 13.9731 41.4587 13.7109C41.07 13.4487 40.2927 13.3176 39.645 13.1865V13.3176Z" fill="#3C3C96"/>
</g>
<path fill-rule="evenodd" clip-rule="evenodd" d="M39.6438 13.3232C39.6438 13.3232 38.4779 13.5854 38.0892 13.8476C37.8301 13.9787 37.8301 14.372 37.8301 14.6341C38.2187 15.4207 39.1256 16.0761 40.0325 16.4694C40.2916 16.6005 40.8098 16.7316 41.0689 16.4694C41.4576 16.0761 41.8463 15.5518 41.9758 15.0274C41.9758 14.7652 41.8463 14.1098 41.4576 13.8476C41.0689 13.5854 40.2916 13.4543 39.6438 13.3232Z" fill="url(#paint15_radial_2068_664904)"/>
<g style="mix-blend-mode:screen" opacity="0.5">
<path fill-rule="evenodd" clip-rule="evenodd" d="M28.6313 50.1523C27.854 50.1523 25.3925 49.4968 24.7447 49.3657C24.2265 49.3657 24.6151 51.7253 25.1334 51.9875C26.5585 52.774 27.2063 53.6917 27.854 53.9538C28.1131 53.9538 29.02 54.216 30.0565 54.4782C30.9633 54.7404 31.8702 55.0026 32.3884 55.0026C33.8135 54.8715 36.1455 53.2984 36.4046 52.5119C36.7933 51.3321 36.016 49.759 34.9795 49.759C34.3317 49.759 31.2224 50.2833 28.6313 50.0212V50.1523Z" fill="#3C3C96"/>
</g>
<path fill-rule="evenodd" clip-rule="evenodd" d="M28.6313 49.7633C27.854 49.7633 25.3925 48.9768 24.7447 48.8457C24.2265 48.8457 24.6151 51.2053 25.1334 51.5986C26.5585 52.5162 27.2063 53.4338 27.854 53.696C28.3722 53.9582 31.4815 54.7447 32.3884 54.6136C33.8135 54.6136 36.2751 53.3027 36.5342 52.3851C36.9228 51.2053 36.1455 49.6322 35.1091 49.6322C34.4613 49.6322 31.352 50.1566 28.7609 49.7633H28.6313Z" fill="url(#paint16_radial_2068_664904)"/>
<path opacity="0.75" fill-rule="evenodd" clip-rule="evenodd" d="M31.0931 1.13005C37.5709 1.91659 45.8624 4.53838 48.9717 7.81561C53.247 9.25759 57.5222 13.7146 58.9473 18.0406C61.7975 21.9733 62.9636 29.0521 63.0931 33.5091C63.8705 34.9511 63.0931 37.9662 62.3158 41.3745C63.3522 38.3594 63.8704 35.7376 63.8704 33.5091C63.8704 32.5915 61.7976 20.6624 60.2429 17.7784C58.17 13.7146 52.2105 8.07779 51.4332 7.42234C47.8057 4.01402 35.498 0.867876 31.4818 0.605697C23.8381 0.0813395 8.55062 8.20888 5.05265 13.8457C3.62755 16.0742 0.259109 26.1681 0 29.0521C0 30.363 0.259121 32.9848 0.51823 35.4755C0.51823 33.378 0.388679 30.1008 0.647788 28.921C1.81378 24.3329 3.23887 18.696 5.70041 14.5012C12.9555 7.55343 22.6721 2.17877 30.9636 1.39223L31.0931 1.13005Z" fill="url(#paint17_linear_2068_664904)"/>
<path fill-rule="evenodd" clip-rule="evenodd" d="M6.0891 14.5C7.25509 15.942 7.5142 16.3353 9.06885 17.5151C9.06885 17.7773 9.06885 18.0395 9.06885 18.3016C8.29152 21.3167 7.12554 24.4628 5.95955 27.4779C5.57088 28.5266 5.57087 28.5266 4.53444 28.5266C3.62755 28.5266 2.9798 28.6577 1.94336 28.6577C3.88668 28.9199 5.70044 28.6577 5.95955 29.8375C6.34821 32.4593 6.60731 34.6878 6.47775 37.3096C6.21864 38.3583 4.79354 38.8827 3.36844 39.2759C4.9231 39.0138 5.18223 39.0138 6.34822 38.4894C7.12555 38.0961 6.99599 38.4894 7.38465 39.2759C8.42109 42.1599 9.84618 44.9128 11.1417 47.6657C11.5304 48.5833 11.7895 48.8455 11.1417 49.632C10.6235 50.2874 9.97574 50.8118 9.45752 51.4672C10.1053 50.9429 10.7531 50.4185 11.4008 50.0253C12.3077 49.5009 12.3077 49.632 13.085 50.0253C14.7692 50.9429 16.3239 51.7294 18.0081 52.6471C16.0648 51.4672 14.1215 50.2874 12.5668 48.9766C10.494 45.8304 8.42108 41.3734 8.16197 37.7029C14.7693 34.2945 22.413 32.3282 30.1863 30.7551C33.166 27.7401 36.4049 24.8561 39.7733 21.9721C40.4211 21.4478 40.6802 21.1856 41.587 21.1856C42.3644 21.1856 43.0122 21.4478 43.7895 21.4478C44.3077 21.4478 44.6964 21.4478 45.2146 21.4478C47.2875 21.1856 49.2308 20.9234 51.3036 20.7923C52.081 20.7923 52.8583 20.7923 53.6356 20.7923C53.6356 20.9234 53.6356 21.1856 53.7652 21.3167C54.6721 23.8074 55.579 26.167 56.3563 28.6577C56.8745 30.2308 57.1336 31.6728 57.5223 33.2458C57.7814 34.0324 57.5223 34.1635 56.2267 34.5567C55.4494 34.8189 51.9514 37.0474 49.6195 37.965C48.8421 39.407 47.8057 40.7179 46.6397 42.0288C46.1215 45.4371 45.6033 48.8455 45.2146 52.3849C45.085 53.1714 45.2146 54.2201 44.9555 55.0067C42.6235 56.0554 40.0324 56.7108 37.3118 57.6284C39.9029 57.1041 42.4939 56.4486 45.085 55.7932C45.6032 55.7932 45.8624 55.7932 46.1215 56.0554C46.6397 56.4486 46.6397 56.7108 47.0284 57.2352C47.2875 57.2352 48.583 58.5461 48.8421 58.8082C48.1943 58.1528 47.6761 57.3663 47.0284 56.7108C46.7692 56.3176 46.3806 55.531 46.5101 55.0067C47.0283 54.089 47.6761 53.6958 48.4535 52.9092C49.2308 51.8605 50.0081 50.9429 50.7854 49.8942C50.5263 50.1564 48.9717 51.8605 47.6761 53.0403C46.8988 53.8269 46.1214 54.2201 45.9919 54.2201C45.7328 54.2201 45.7328 53.3025 45.9919 52.3849C46.251 50.6807 46.3806 48.9765 46.6397 47.2724C46.7693 45.5682 47.0283 43.8641 47.1579 42.1599C48.1943 40.849 49.1012 39.5381 50.0081 38.2272C52.081 37.1785 54.2834 35.9987 56.4858 35.0811C58.0405 34.4256 57.7814 35.3433 57.6518 36.392C57.1336 38.8827 55.8381 41.2423 55.0607 43.4708C55.9676 41.5045 58.2996 37.965 58.4292 37.0474C58.5587 36.2609 58.4292 35.3433 58.4292 34.5567C59.8543 34.1635 61.5385 33.9013 63.2227 33.7702C61.4089 33.7702 60.2429 33.7702 58.4292 34.1635C58.4292 34.0324 58.4292 33.7702 58.4292 33.6391C58.0405 32.1971 57.5223 30.7551 57.0041 29.3131C56.6154 28.0023 56.4858 26.6914 56.2267 25.5116C55.8381 23.9385 54.9312 22.4965 54.8016 20.9234C54.8016 20.5302 55.5789 20.6612 55.7085 20.6612C56.7449 20.1369 57.7814 19.4814 58.8178 18.826C57.9109 19.2193 57.1336 19.6125 56.2267 19.8747C55.5789 20.1369 55.1903 20.1369 54.5425 20.1369C54.4129 20.1369 54.1539 20.1369 54.0243 19.8747C53.1174 18.6949 52.2105 17.2529 51.1741 16.0731C50.2672 15.0244 48.9717 14.1068 47.9352 13.1892C47.417 12.7959 47.2874 12.5337 47.417 11.8783C47.417 11.485 47.417 11.0917 47.6761 10.6985C48.0648 9.91192 48.4535 9.25647 48.9717 8.60103C48.4535 9.25647 47.9352 10.043 47.417 10.4363C47.417 10.4363 47.1579 10.9606 47.0284 11.3539C46.6397 12.1404 46.3806 12.0094 45.6032 11.6161C43.4008 10.6985 41.4575 9.51865 39.2551 8.73212C37.7004 8.33885 31.6114 7.81449 31.7409 5.71706C31.7409 4.0129 31.6113 3.48854 31.4818 1.39111C31.4818 2.8331 31.4818 5.97924 30.9636 6.5036C30.5749 6.89687 30.1863 6.89687 29.5385 7.15904C27.4656 7.81449 25.1336 8.20776 22.9312 8.86321C20.7288 10.043 10.1053 16.7286 9.97573 16.7286C9.06885 16.7286 7.51419 15.8109 6.47775 14.7622L6.0891 14.5ZM41.4575 19.7436C42.8826 17.384 44.4372 15.0244 46.251 12.927C46.251 12.7959 46.6397 12.6648 46.7692 12.7959C47.5466 13.1892 48.0648 13.8446 48.7126 14.5C49.8786 15.6799 51.0445 16.8597 52.081 18.1705C52.3401 18.5638 52.5992 18.9571 52.8583 19.4814C52.9879 19.8747 53.247 20.1369 52.7287 20.268C52.2105 20.5302 51.6923 20.5302 51.1741 20.5302C49.1012 20.7923 47.0283 21.1856 44.8259 21.1856C43.7895 21.1856 42.7531 20.9234 41.7166 20.6612C41.1984 20.5302 41.3279 20.268 41.587 19.8747L41.4575 19.7436ZM9.32797 36.392C15.9353 33.6391 22.5425 31.9349 29.2794 30.3619C32.5182 27.8712 37.3117 23.4141 40.0324 20.3991C41.8462 18.3016 43.4008 16.0731 45.4737 13.1892C45.4737 13.0581 45.6033 12.7959 45.7328 12.6648C45.7328 12.4026 45.7328 12.1404 45.6032 12.0094C40.8097 9.91192 35.7571 8.20776 30.5749 7.29013C23.9676 8.86321 18.0081 11.485 12.5668 15.5488C12.0486 15.942 11.6599 16.2042 11.1417 16.5975C10.8826 16.8597 10.8826 17.384 10.6235 17.7773C10.3644 18.0395 9.97572 18.1705 9.71662 18.5638C8.16196 21.8411 7.38465 24.8561 6.34822 28.3955C6.34822 30.8862 6.47776 32.7215 6.86642 35.2122C7.12553 36.7852 7.64376 37.1785 9.32797 36.392Z" fill="url(#paint18_radial_2068_664904)"/>
<path fill-rule="evenodd" clip-rule="evenodd" d="M7.12478 37.3041C7.38389 38.7461 11.4001 48.0534 12.0478 48.84C12.8252 49.8887 25.7806 57.6229 31.9993 58.1473C34.3312 58.2784 44.0479 55.6566 45.473 54.4768C51.562 50.1509 57.2624 39.6637 57.6511 34.289C57.6511 34.0269 57.6511 33.7647 57.6511 33.6336C57.6511 32.8471 54.9304 22.7532 53.7644 20.5247C53.7644 20.5247 53.7644 20.3936 53.6349 20.2625C51.9506 17.2474 47.6753 13.1837 47.1571 12.7904C46.898 12.6593 46.6389 12.3971 46.3798 12.266C42.7523 9.90643 32.9061 7.41573 30.9628 7.02246C30.9628 7.02246 30.7037 7.02246 30.5742 7.02246C26.8171 7.02246 13.2138 13.3147 9.97497 17.5096C9.97497 17.5096 9.84541 17.7718 9.71586 17.9029C8.54986 19.607 6.08834 27.2102 5.95879 29.3076C5.82923 31.0118 6.60655 35.9932 6.86566 37.4352L7.12478 37.3041Z" fill="url(#paint19_linear_2068_664904)"/>
<path fill-rule="evenodd" clip-rule="evenodd" d="M7.12478 37.3041C7.38389 38.7461 11.4001 48.0534 12.0478 48.84C12.8252 49.8887 25.7806 57.6229 31.9993 58.1473C34.3312 58.2784 44.0479 55.6566 45.473 54.4768C51.562 50.1509 57.2624 39.6637 57.6511 34.289C57.6511 34.0269 57.6511 33.7647 57.6511 33.6336C57.6511 32.8471 54.9304 22.7532 53.7644 20.5247C53.7644 20.5247 53.7644 20.3936 53.6349 20.2625C51.9506 17.2474 47.6753 13.1837 47.1571 12.7904C46.898 12.6593 46.6389 12.3971 46.3798 12.266C42.7523 9.90643 32.9061 7.41573 30.9628 7.02246C30.9628 7.02246 30.7037 7.02246 30.5742 7.02246C26.8171 7.02246 13.2138 13.3147 9.97497 17.5096C9.97497 17.5096 9.84541 17.7718 9.71586 17.9029C8.54986 19.607 6.08834 27.2102 5.95879 29.3076C5.82923 31.0118 6.60655 35.9932 6.86566 37.4352L7.12478 37.3041Z" fill="url(#paint20_linear_2068_664904)"/>
<path opacity="0.5" fill-rule="evenodd" clip-rule="evenodd" d="M10.7522 17.3734C14.8979 13.3096 27.2056 7.67277 30.8331 7.67277C30.8331 7.67277 31.0923 7.67277 31.2218 7.67277C33.0356 7.93495 41.7157 10.1635 45.8615 12.392C46.1206 12.392 46.2501 12.6542 46.5092 12.7853C46.5092 12.7853 46.6388 12.7853 46.7684 12.9163C47.0275 13.0474 47.2866 13.3096 47.5457 13.4407C48.0639 13.834 51.1732 16.849 53.1166 19.6019C53.5052 20.1263 53.7643 20.5195 54.0234 20.9128C54.0234 20.9128 54.0234 21.0439 54.153 21.175C55.0598 22.8791 57.0032 29.6958 57.6509 32.8419C57.1327 30.3512 54.9303 22.3548 53.8938 20.3884C53.8938 20.3884 53.8939 20.2573 53.7643 20.1263C52.0801 17.1112 47.8048 13.0474 47.2866 12.6542C47.0275 12.5231 46.7683 12.2609 46.5092 12.1298C42.8817 9.7702 33.0356 7.2795 31.0923 6.88623C31.0923 6.88623 30.8331 6.88623 30.7036 6.88623C26.9465 6.88623 13.3433 13.1785 10.1044 17.3734C10.1044 17.3734 9.97484 17.6356 9.84529 17.7666C8.80885 19.2086 6.86555 25.2387 6.21777 28.1227C6.9951 25.1076 8.67931 20.2573 9.5862 18.6843C9.5862 18.6843 9.5862 18.6843 9.5862 18.5532C9.5862 18.5532 9.71573 18.291 9.84529 18.1599C9.97484 17.8977 10.234 17.6356 10.4931 17.3734H10.7522Z" fill="#23110C"/>
<g clip-path="url(#clip0_2068_664904)">
<path d="M36.7852 20.6641C36.8411 20.6641 36.8969 20.6641 36.9559 20.6641C37.0929 22.3566 36.4469 23.6212 35.6618 24.5371C34.8914 25.4466 33.8365 26.3287 32.1302 26.1948C32.0164 24.5265 32.6635 23.3557 33.4476 22.442C34.1748 21.5904 35.5079 20.8327 36.7852 20.6641Z" fill="white"/>
<path d="M41.9511 38.2809C41.9511 38.2978 41.9511 38.3126 41.9511 38.3284C41.4716 39.7806 40.7876 41.0252 39.9529 42.1803C39.191 43.2289 38.2572 44.64 36.59 44.64C35.1494 44.64 34.1924 43.7137 32.7159 43.6884C31.1541 43.6631 30.2952 44.463 28.8672 44.6643C28.7038 44.6643 28.5405 44.6643 28.3803 44.6643C27.3317 44.5125 26.4854 43.6821 25.8689 42.9338C24.0509 40.7228 22.6461 37.8668 22.3848 34.2119C22.3848 33.8536 22.3848 33.4963 22.3848 33.138C22.4954 30.5223 23.7664 28.3955 25.4558 27.3648C26.3474 26.8168 27.573 26.35 28.9378 26.5586C29.5227 26.6493 30.1202 26.8495 30.644 27.0476C31.1404 27.2384 31.7611 27.5767 32.3492 27.5588C32.7476 27.5472 33.1438 27.3396 33.5454 27.1931C34.7215 26.7684 35.8744 26.2815 37.3941 26.5102C39.2205 26.7863 40.5168 27.5978 41.3177 28.8498C39.7727 29.833 38.5513 31.3148 38.7599 33.8452C38.9454 36.1437 40.2817 37.4884 41.9511 38.2809Z" fill="white"/>
</g>
<defs>
<radialGradient id="paint0_radial_2068_664904" cx="0" cy="0" r="1" gradientUnits="userSpaceOnUse" gradientTransform="translate(23.8374 29.7063) scale(52.4697 53.0912)">
<stop stop-color="#8D96B3"/>
<stop offset="1" stop-color="#777387"/>
</radialGradient>
<radialGradient id="paint1_radial_2068_664904" cx="0" cy="0" r="1" gradientUnits="userSpaceOnUse" gradientTransform="translate(28.3719 2.30595) scale(51.0445 51.6492)">
<stop stop-color="#8D96B3"/>
<stop offset="1" stop-color="#777387"/>
</radialGradient>
<radialGradient id="paint2_radial_2068_664904" cx="0" cy="0" r="1" gradientUnits="userSpaceOnUse" gradientTransform="translate(33.1666 -1.49001) scale(30.0566 30.4127)">
<stop stop-color="#8D96B3"/>
<stop offset="1" stop-color="#777387"/>
</radialGradient>
<radialGradient id="paint3_radial_2068_664904" cx="0" cy="0" r="1" gradientUnits="userSpaceOnUse" gradientTransform="translate(47.5462 6.76192) scale(34.5911 35.0009)">
<stop stop-color="#8D96B3"/>
<stop offset="1" stop-color="#777387"/>
</radialGradient>
<radialGradient id="paint4_radial_2068_664904" cx="0" cy="0" r="1" gradientUnits="userSpaceOnUse" gradientTransform="translate(36.4053 22.2282) scale(30.4454 30.806)">
<stop stop-color="#818CA3"/>
<stop offset="1" stop-color="#565373"/>
</radialGradient>
<radialGradient id="paint5_radial_2068_664904" cx="0" cy="0" r="1" gradientUnits="userSpaceOnUse" gradientTransform="translate(19.4342 18.0363) scale(63.9999 64.7581)">
<stop stop-color="#5F5D75"/>
<stop offset="1" stop-color="#373854"/>
</radialGradient>
<radialGradient id="paint6_radial_2068_664904" cx="0" cy="0" r="1" gradientUnits="userSpaceOnUse" gradientTransform="translate(32.7773 32.5871) scale(33.0365 33.4278)">
<stop stop-color="#5F5D75"/>
<stop offset="1" stop-color="#373854"/>
</radialGradient>
<radialGradient id="paint7_radial_2068_664904" cx="0" cy="0" r="1" gradientUnits="userSpaceOnUse" gradientTransform="translate(29.0217 29.3134) scale(42.8826 43.3906)">
<stop stop-color="#5F5D75"/>
<stop offset="1" stop-color="#373854"/>
</radialGradient>
<radialGradient id="paint8_radial_2068_664904" cx="0" cy="0" r="1" gradientUnits="userSpaceOnUse" gradientTransform="translate(20.3401 31.5465) scale(49.2307 49.814)">
<stop stop-color="#5F5D75"/>
<stop offset="1" stop-color="#373854"/>
</radialGradient>
<radialGradient id="paint9_radial_2068_664904" cx="0" cy="0" r="1" gradientUnits="userSpaceOnUse" gradientTransform="translate(24.357 26.0318) scale(40.8098 41.2931)">
<stop stop-color="#818CA3"/>
<stop offset="1" stop-color="#565373"/>
</radialGradient>
<radialGradient id="paint10_radial_2068_664904" cx="0" cy="0" r="1" gradientUnits="userSpaceOnUse" gradientTransform="translate(30.8335 32.0649) scale(83.8219 84.8148)">
<stop stop-color="#5F5D75"/>
<stop offset="1" stop-color="#373854"/>
</radialGradient>
<radialGradient id="paint11_radial_2068_664904" cx="0" cy="0" r="1" gradientUnits="userSpaceOnUse" gradientTransform="translate(40.939 25.3827) scale(23.7085 23.9894)">
<stop stop-color="#5F5D75"/>
<stop offset="1" stop-color="#373854"/>
</radialGradient>
<radialGradient id="paint12_radial_2068_664904" cx="0" cy="0" r="1" gradientUnits="userSpaceOnUse" gradientTransform="translate(66.4608 54.8777) scale(33.4251 33.8211)">
<stop stop-color="#5F5D75"/>
<stop offset="1" stop-color="#373854"/>
</radialGradient>
<radialGradient id="paint13_radial_2068_664904" cx="0" cy="0" r="1" gradientUnits="userSpaceOnUse" gradientTransform="translate(28.5015 21.0544) scale(62.7045 63.4473)">
<stop stop-color="#5F5D75"/>
<stop offset="1" stop-color="#373854"/>
</radialGradient>
<radialGradient id="paint14_radial_2068_664904" cx="0" cy="0" r="1" gradientUnits="userSpaceOnUse" gradientTransform="translate(30.5744 18.1679) scale(13.4737 13.6333)">
<stop stop-color="#5F5D75"/>
<stop offset="1" stop-color="#373854"/>
</radialGradient>
<radialGradient id="paint15_radial_2068_664904" cx="0" cy="0" r="1" gradientUnits="userSpaceOnUse" gradientTransform="translate(40.4212 17.5181) scale(6.47772 6.55447)">
<stop stop-color="#5F5D75"/>
<stop offset="1" stop-color="#373854"/>
</radialGradient>
<radialGradient id="paint16_radial_2068_664904" cx="0" cy="0" r="1" gradientUnits="userSpaceOnUse" gradientTransform="translate(30.9633 46.7483) scale(15.5465 15.7307)">
<stop stop-color="#373854"/>
<stop offset="1" stop-color="#5F5D75"/>
</radialGradient>
<linearGradient id="paint17_linear_2068_664904" x1="22.441" y1="0.581543" x2="22.441" y2="41.3745" gradientUnits="userSpaceOnUse">
<stop stop-color="#A0DBF0"/>
<stop offset="1" stop-color="#00FFEA"/>
</linearGradient>
<radialGradient id="paint18_radial_2068_664904" cx="0" cy="0" r="1" gradientUnits="userSpaceOnUse" gradientTransform="translate(24.2267 7.02795) scale(70.9959 71.837)">
<stop stop-color="#818CA3"/>
<stop offset="1" stop-color="#565373"/>
</radialGradient>
<linearGradient id="paint19_linear_2068_664904" x1="31.7977" y1="7.02246" x2="31.7977" y2="58.152" gradientUnits="userSpaceOnUse">
<stop stop-color="#020D1A"/>
<stop offset="1" stop-color="#08151D"/>
</linearGradient>
<linearGradient id="paint20_linear_2068_664904" x1="31.7977" y1="7.02246" x2="31.7977" y2="58.152" gradientUnits="userSpaceOnUse">
<stop offset="0.5" stop-color="white" stop-opacity="0"/>
<stop offset="0.776042" stop-color="white" stop-opacity="0.1"/>
</linearGradient>
<clipPath id="clip0_2068_664904">
<rect width="24" height="24" fill="white" transform="translate(20.167 20.6641)"/>
</clipPath>
</defs>
</svg>
