<svg width="160" height="120" viewBox="0 0 160 120" fill="none" xmlns="http://www.w3.org/2000/svg">
<g clip-path="url(#clip0_1440_47893)">
<path d="M79.8 116.737L129.202 80.8458L110.333 22.7753H49.271L30.4023 80.8458L79.8 116.737Z" fill="#104556"/>
<g style="mix-blend-mode:multiply" opacity="0.3">
<path d="M53.9219 29.1362L79.8312 108.874L105.736 29.1362H53.9219Z" fill="#0C363D"/>
</g>
<path d="M112.097 20.3461H47.5065L27.5469 81.7774L79.8019 119.741L132.057 81.7774L112.097 20.3461ZM37.8812 78.4166L53.8926 29.1364H105.707L121.718 78.4166L79.7977 108.874L37.877 78.4166H37.8812Z" fill="url(#paint0_radial_1440_47893)"/>
<path d="M112.097 20.3459H47.5061L42.8906 34.5531C45.7606 34.6873 48.7354 35.0482 51.7858 35.6272L53.8963 29.1362H105.711L121.722 78.4164L115.642 82.8346C117.01 85.4906 118.223 88.2388 119.263 91.071L132.056 81.773L112.097 20.3417V20.3459Z" fill="url(#paint1_radial_1440_47893)"/>
<path style="mix-blend-mode:screen" d="M112.097 20.3459H47.5061L42.8906 34.5531C45.7606 34.6873 48.7354 35.0482 51.7858 35.6272L53.8963 29.1362H105.711L121.722 78.4164L115.642 82.8346C117.01 85.4906 118.223 88.2388 119.263 91.071L132.056 81.773L112.097 20.3417V20.3459Z" fill="url(#paint2_linear_1440_47893)"/>
<path style="mix-blend-mode:screen" d="M108.556 98.8502C108.25 95.4264 107.742 92.1704 107.05 89.0781L79.8019 108.874L37.8812 78.4165L49.3778 43.0287C46.1135 43.1085 42.8953 43.4735 39.7819 44.1113L27.5469 81.7731L79.8019 119.737L108.556 98.846V98.8502Z" fill="url(#paint3_linear_1440_47893)"/>
<path d="M37.8789 78.4163L42.0244 77.4848L56.4539 33.0761H103.149L117.579 77.4848L121.72 78.4163L105.709 29.1362H53.8944L37.8789 78.4163Z" fill="#9E2C19"/>
<g style="mix-blend-mode:multiply" opacity="0.2">
<path d="M42.0273 77.4849L50.1001 56.77C54.8792 44.5014 66.6989 39.1811 79.8612 39.1811C93.0823 39.1811 104.94 44.5727 109.681 56.9169L117.582 77.4891L103.152 33.0761H56.4568L42.0273 77.4891V77.4849Z" fill="#892334"/>
</g>
<path d="M37.8789 78.4163L42.0244 77.4848L79.7996 104.934L117.579 77.4848L121.72 78.4163L79.7996 108.874L37.8789 78.4163Z" fill="url(#paint4_linear_1440_47893)"/>
<g style="mix-blend-mode:multiply" opacity="0.6">
<path d="M42.0273 77.4849L56.8429 39.4664C57.5561 37.6328 59.3268 36.4244 61.2946 36.4244H98.5285C100.505 36.4244 102.28 37.6412 102.989 39.4874L117.582 77.4849L103.152 33.0719H56.4568L42.0273 77.4849Z" fill="#892334"/>
</g>
<path d="M53.8945 29.1362L56.454 33.0761H103.15L105.709 29.1362H53.8945Z" fill="#681D15"/>
<g style="mix-blend-mode:multiply" opacity="0.35">
<path d="M34.7053 59.7449L29.6996 78.4835C29.3094 80.0989 30.0773 82.2388 31.4073 83.2374L79.798 119.737L27.543 81.773L34.7011 59.7449H34.7053Z" fill="#9E2C19"/>
</g>
<g style="mix-blend-mode:multiply" opacity="0.6">
<path d="M42.0273 77.4849L78.0696 101.762C79.0263 102.404 80.5871 102.404 81.5438 101.762L117.586 77.4849L79.8067 104.93L42.0273 77.4849Z" fill="#892334"/>
</g>
<g style="mix-blend-mode:multiply" opacity="0.35">
<path d="M79.8008 119.737L126.333 83.7955C129.589 81.3829 130.289 80.8585 128.825 76.2388L119.116 41.9462L132.056 81.7731L79.8008 119.737Z" fill="#9E2C19"/>
</g>
<path d="M56.7148 92.0946L79.8046 108.874L110.988 86.2162L79.8046 110.296L56.7148 92.0946Z" fill="#FFF5CC"/>
<path d="M78.0508 20.3461H112.096L119.115 41.9463L110.795 21.5419L78.0508 20.3461Z" fill="#FFF5CC"/>
<g style="mix-blend-mode:screen">
<path d="M91.5984 20.3461C91.3172 23.1448 92.5382 26.279 94.8921 29.1364H105.705L108.378 37.3687C111.768 38.1994 115.007 38.2246 117.663 37.4987L112.091 20.3461H91.5942H91.5984Z" fill="#FFF2BB"/>
</g>
<g style="mix-blend-mode:screen">
<path d="M53.9067 90.0556C53.0885 92.1577 54.5697 95.2962 57.5445 97.4571C60.5194 99.6179 63.96 100.054 65.7054 98.6277L53.9067 90.0556Z" fill="#FFF2BB"/>
</g>
<g style="mix-blend-mode:screen">
<path d="M65.7821 104.368C65.2828 105.131 63.9066 105.119 62.7024 104.334C61.4982 103.549 60.9275 102.295 61.4268 101.531C61.9261 100.768 63.3024 100.78 64.5066 101.565C65.7108 102.349 66.2814 103.604 65.7821 104.368Z" fill="#FFF2BB"/>
</g>
<path d="M42.4174 20.7739L40.4411 37.1251C35.7628 37.0999 31.8522 37.079 24.8242 37.0874C-0.0613362 37.1167 -0.191406 20.6984 -0.191406 20.6984L42.4174 20.7781V20.7739Z" fill="#681D15"/>
<path d="M42.4174 20.7739L38.2131 33.5461C33.5348 33.5209 32.7669 33.5041 25.7389 33.5083C0.853357 33.5419 -0.191406 20.6984 -0.191406 20.6984L42.4174 20.7781V20.7739Z" fill="url(#paint5_radial_1440_47893)"/>
<path d="M36.11 40.1881L34.1631 56.5434C29.4847 56.5183 35.1743 56.5393 28.1462 56.5434C3.26071 56.5728 3.10547 40.1083 3.10547 40.1083L36.1142 40.1881H36.11Z" fill="#681D15"/>
<path d="M36.11 40.1881L31.9519 52.9896C27.2735 52.9644 36.11 52.9476 29.0819 52.9518C4.19639 52.9812 3.10547 40.1083 3.10547 40.1083L36.1142 40.1881H36.11Z" fill="url(#paint6_radial_1440_47893)"/>
<path d="M29.8118 59.5981L12.2773 59.5268C12.2773 59.5268 15.0298 71.8374 27.8565 75.9577L29.8118 59.6023V59.5981Z" fill="#681D15"/>
<path d="M29.8118 59.5981L12.2773 59.5268C12.2773 59.5268 12.8186 68.2835 25.6453 72.4038L29.8118 59.6023V59.5981Z" fill="url(#paint7_radial_1440_47893)"/>
<path d="M42.4149 20.7739L44.517 24.8312L40.4386 37.1251L38.2148 33.546L42.4149 20.7739Z" fill="#9E2C19"/>
<path d="M36.1112 40.188L38.2175 44.2077L34.1643 56.5434L31.9531 52.9896L36.1112 40.188Z" fill="#9E2C19"/>
<path d="M29.7987 59.602L31.9008 63.6174L27.8518 75.9532L25.6406 72.3993L29.7987 59.602Z" fill="#9E2C19"/>
<path d="M117.199 20.774L119.175 37.1252C123.854 37.1 127.764 37.079 134.792 37.0874C159.678 37.1168 159.808 20.6943 159.808 20.6943L117.199 20.774Z" fill="#681D15"/>
<path d="M117.199 20.774L121.403 33.5461C126.082 33.521 126.85 33.5042 133.878 33.5084C158.763 33.5377 159.808 20.6943 159.808 20.6943L117.199 20.774Z" fill="url(#paint8_radial_1440_47893)"/>
<path d="M123.508 40.1881L125.455 56.5434C130.133 56.5183 124.444 56.5393 131.472 56.5434C156.357 56.5728 156.513 40.1083 156.513 40.1083L123.504 40.1881H123.508Z" fill="#681D15"/>
<path d="M123.508 40.1881L127.666 52.9896C132.345 52.9644 123.508 52.9476 130.536 52.9518C155.422 52.9812 156.513 40.1083 156.513 40.1083L123.504 40.1881H123.508Z" fill="url(#paint9_radial_1440_47893)"/>
<path d="M129.812 59.598L147.347 59.5267C147.347 59.5267 144.594 71.8373 131.768 75.9576L129.812 59.6022V59.598Z" fill="#681D15"/>
<path d="M129.812 59.598L147.347 59.5267C147.347 59.5267 146.806 68.2834 133.979 72.4037L129.812 59.6022V59.598Z" fill="url(#paint10_radial_1440_47893)"/>
<path style="mix-blend-mode:screen" d="M117.199 20.774L121.403 33.5461C126.082 33.521 126.85 33.5042 133.878 33.5084C158.763 33.5377 159.808 20.6943 159.808 20.6943L117.199 20.774Z" fill="url(#paint11_linear_1440_47893)"/>
<path style="mix-blend-mode:screen" d="M123.508 40.1881L127.666 52.9896C132.345 52.9644 123.508 52.9476 130.536 52.9518C155.422 52.9812 156.513 40.1083 156.513 40.1083L123.504 40.1881H123.508Z" fill="url(#paint12_linear_1440_47893)"/>
<path style="mix-blend-mode:screen" d="M129.812 59.598L147.347 59.5267C147.347 59.5267 146.806 68.2834 133.979 72.4037L129.812 59.6022V59.598Z" fill="url(#paint13_linear_1440_47893)"/>
<path d="M117.199 20.7739L115.102 24.8312L119.176 37.1251L121.404 33.546L117.199 20.7739Z" fill="#9E2C19"/>
<path d="M123.504 40.1879L121.402 44.2075L125.451 56.5433L127.663 52.9894L123.504 40.1879Z" fill="#9E2C19"/>
<path d="M129.817 59.6022L127.715 63.6177L131.768 75.9534L133.975 72.3995L129.817 59.6022Z" fill="#9E2C19"/>
<path style="mix-blend-mode:screen" d="M42.4174 20.7739L-0.191406 20.6942C-0.191406 20.6942 0.853357 33.5377 25.7389 33.5083C32.7669 33.4999 33.5348 33.5209 38.2131 33.546L42.4174 20.7739Z" fill="url(#paint14_linear_1440_47893)"/>
<path style="mix-blend-mode:screen" d="M3.10547 40.1127C3.10547 40.1127 3.28589 42.1981 5.11528 44.6862C7.82999 43.1505 10.8594 41.5813 14.0902 40.1421L3.10547 40.1169V40.1127Z" fill="url(#paint15_linear_1440_47893)"/>
<path style="mix-blend-mode:screen" d="M29.8118 59.5981L12.2773 59.5268C12.2773 59.5268 12.8186 68.2835 25.6453 72.4038L29.8118 59.6023V59.5981Z" fill="url(#paint16_linear_1440_47893)"/>
<path style="mix-blend-mode:screen" d="M31.9552 52.9897L34.4056 45.4413C31.0699 46.5323 27.902 47.9672 24.9943 49.7463C23.7901 50.4848 22.3761 51.391 20.832 52.4106C23.2404 52.7589 25.9761 52.9561 29.0811 52.9519C36.1091 52.9435 27.2726 52.9645 31.951 52.9897H31.9552Z" fill="url(#paint17_linear_1440_47893)"/>
<g style="mix-blend-mode:multiply" opacity="0.35">
<path d="M35.8831 56.1241L46.7965 24.8315C47.9252 21.6552 48.7434 20.8203 52.1126 20.6986L79.801 20.3461H47.5056L35.8789 56.1241H35.8831Z" fill="#9E2C19"/>
</g>
<g style="mix-blend-mode:screen">
<path d="M89.5654 25.2298C87.3081 23.5892 84.5892 23.4843 83.4899 24.9948C82.701 26.0773 82.9654 27.6969 84.0101 29.1319H92.1039C91.978 27.8102 91.0633 26.3165 89.5654 25.2298Z" fill="#FFF2BB"/>
</g>
<g style="mix-blend-mode:multiply" opacity="0.35">
<path fill-rule="evenodd" clip-rule="evenodd" d="M126.845 32.5726C124.009 32.2914 122.029 31.2635 120.736 28.7208L117.199 20.7739L121.403 33.546C126.082 33.5208 126.85 33.4999 133.878 33.5082C137.843 33.5124 141.199 33.1894 144.048 32.6439C137.881 33.3866 131.549 33.0383 126.845 32.5684V32.5726Z" fill="#9E2C19"/>
</g>
<g style="mix-blend-mode:multiply" opacity="0.35">
<path fill-rule="evenodd" clip-rule="evenodd" d="M130.532 52.9517C136.553 52.9601 141.177 52.209 144.735 51.0719C139.62 52.4943 135.328 52.3936 132.055 52.1964C129.806 52.058 127.977 50.4048 127.024 48.3656L123.504 40.1879L127.662 52.9894C132.34 52.9643 123.504 52.9475 130.532 52.9517Z" fill="#9E2C19"/>
</g>
<g style="mix-blend-mode:multiply" opacity="0.35">
<path fill-rule="evenodd" clip-rule="evenodd" d="M133.974 72.3996C136.752 71.5059 138.951 70.3982 140.696 69.2066C138.632 69.9912 134.755 70.5576 134.755 70.5576L129.816 59.5981V59.6107L133.974 72.3996Z" fill="#9E2C19"/>
</g>
<g style="mix-blend-mode:multiply" opacity="0.35">
<path d="M25.7389 33.5083C32.7669 33.4999 33.5348 33.5209 38.2131 33.546L41.5446 23.4257L39.0691 28.9516C37.8817 31.8635 37.1768 32.8202 34.269 32.8495C31.1347 32.8789 25.2312 32.8118 22.2354 32.6943C9.16952 32.1824 1.47434 26.5348 -0.191406 20.7026C-0.191406 20.7026 0.853357 33.546 25.7389 33.5167V33.5083Z" fill="#9E2C19"/>
</g>
<g style="mix-blend-mode:multiply" opacity="0.35">
<path d="M32.5111 49.2133C31.7223 50.8707 30.8706 52.2595 29.037 52.1924C27.1405 52.1252 21.8075 52.0875 18.7656 51.3994C11.6998 49.8049 7.47875 47.1741 4.61719 43.9433C7.0214 47.7322 13.2103 52.9644 29.0873 52.9476C36.1154 52.9392 27.2789 52.9602 31.9573 52.9854L35.3979 42.3951L32.5111 49.2133Z" fill="#9E2C19"/>
</g>
<g style="mix-blend-mode:multiply" opacity="0.35">
<path d="M25.6453 72.3994L29.2789 61.2343C28.5992 62.6567 27.2481 65.9504 25.8719 69.0008C24.9362 71.0778 24.0467 70.8134 22.6033 70.2134C15.4452 67.2344 13.7962 63.6847 12.2773 59.5224C12.2773 59.5224 12.8186 68.2791 25.6453 72.3994Z" fill="#9E2C19"/>
</g>
<path d="M117.199 20.7737L156.166 21.4408C157.731 21.466 158.461 22.6409 157.781 24.0549C157.076 25.5276 155.935 27.2857 154.064 28.8045C159.443 25.15 159.808 20.6982 159.808 20.6982L117.199 20.7779V20.7737Z" fill="#FFF5CC"/>
<path d="M123.508 40.1883L152.254 40.8638C155.61 40.9393 155.069 42.3617 154.192 44.1072C153.651 45.1855 152.913 46.3645 151.939 47.3464C156.19 43.889 156.513 40.1127 156.513 40.1127L123.504 40.1925L123.508 40.1883Z" fill="#FFF5CC"/>
<path d="M144.33 65.9632C147.154 62.6023 147.342 59.5268 147.342 59.5268L129.837 59.5981H129.816L144.288 60.2107C146.428 60.3408 146.038 61.1464 145.79 62.1828C145.5 63.3786 145.026 64.7842 144.326 65.959L144.33 65.9632Z" fill="#FFF5CC"/>
<g style="mix-blend-mode:screen" opacity="0.5">
<path d="M11.1367 20.6982L42.4209 20.7779L41.3678 23.9751C41.3678 22.3388 40.5915 21.508 38.7034 21.487L11.1367 20.6982Z" fill="#FFE67B"/>
</g>
<g style="mix-blend-mode:screen" opacity="0.5">
<path d="M11.1367 40.1879H36.1146L34.9649 43.7292L35.0866 42.5544C35.1495 41.4425 34.7551 40.8635 32.7327 40.7628L11.1409 40.1879H11.1367Z" fill="#FFE67B"/>
</g>
<g style="mix-blend-mode:screen" opacity="0.5">
<path d="M15.6487 59.5395L29.8055 59.5982L28.7272 62.9004L28.66 61.3689C28.6223 60.5129 28.3873 60.2192 27.2209 60.1437L15.6445 59.5437L15.6487 59.5395Z" fill="#FFE67B"/>
</g>
<g style="mix-blend-mode:multiply" opacity="0.6">
<path d="M101.977 78.2945L105.795 71.686V68.5224L98.1629 71.686L94.3489 65.0776L90.5307 71.686L82.8984 68.5224V71.686L86.7167 78.2945L82.8984 81.7435V84.9071H90.5307L94.3489 91.5156L98.1629 84.9071H105.795V81.7435L101.977 78.2945Z" fill="#892334"/>
</g>
<path d="M101.977 75.1309L105.795 68.5225V66.0511L98.1629 68.5225L94.3489 61.914L90.5307 68.5225L82.8984 66.0511V68.5225L86.7167 75.1309L82.8984 79.2722V81.7435H90.5307L94.3489 88.352L98.1629 81.7435H105.795V79.2722L101.977 75.1309Z" fill="#9E2C19"/>
<path d="M101.977 72.6597L105.795 66.0513H98.1629L94.3489 59.4428L90.5307 66.0513H82.8984L86.7167 72.6597L82.8984 79.2724H90.5307L94.3489 85.8808L98.1629 79.2724H105.795L101.977 72.6597Z" fill="url(#paint18_radial_1440_47893)"/>
<path style="mix-blend-mode:screen" d="M92.595 62.4807L90.5307 66.0514H82.8984L86.7125 72.6598L82.8984 79.2683H90.5307L94.3447 85.8767L98.1629 79.2683H102.636C100.097 72.7773 96.6566 67.1926 92.595 62.4765V62.4807Z" fill="url(#paint19_linear_1440_47893)"/>
<path d="M105.796 79.2724H98.1641V81.7438H105.796V79.2724Z" fill="#681D15"/>
<path d="M90.5307 81.7437L94.3489 88.3522V85.8808L90.5307 79.2724H82.8984V81.7437H90.5307Z" fill="#681D15"/>
<path d="M82.8984 66.0512L86.7167 72.6597L85.9992 73.8974L82.8984 68.5226V66.0512Z" fill="#681D15"/>
<g style="mix-blend-mode:multiply" opacity="0.35">
<path d="M82.8984 66.0512L88.1139 72.6597L82.8984 79.2723L86.7167 72.6597L82.8984 66.0512Z" fill="#9E2C19"/>
</g>
<g style="mix-blend-mode:screen" opacity="0.8">
<path d="M94.3477 59.4428L98.0274 66.7016L105.794 66.0513H98.1617L94.3477 59.4428Z" fill="#FFE67B"/>
</g>
<g style="mix-blend-mode:screen" opacity="0.5">
<path d="M82.8984 79.2724L91.2482 78.5507L94.3489 85.8809L90.5307 79.2724H82.8984Z" fill="#FFE67B"/>
</g>
<g style="mix-blend-mode:multiply" opacity="0.35">
<path d="M94.3477 85.8806L97.6708 77.7407L105.794 79.2721H98.1617L94.3477 85.8806Z" fill="#9E2C19"/>
</g>
<g style="mix-blend-mode:multiply" opacity="0.6">
<path d="M72.9027 78.2945L76.7167 71.686V68.5224L69.0845 71.686L65.2705 65.0776L61.4523 71.686L53.8242 68.5224V71.686L57.6382 78.2945L53.8242 81.7435V84.9071H61.4523L65.2705 91.5156L69.0845 84.9071H76.7167V81.7435L72.9027 78.2945Z" fill="#892334"/>
</g>
<path d="M72.9027 75.1309L76.7167 68.5225V66.0511L69.0845 68.5225L65.2705 61.914L61.4523 68.5225L53.8242 66.0511V68.5225L57.6382 75.1309L53.8242 79.2722V81.7435H61.4523L65.2705 88.352L69.0845 81.7435H76.7167V79.2722L72.9027 75.1309Z" fill="#9E2C19"/>
<path d="M72.9027 72.6597L76.7167 66.0513H69.0845L65.2705 59.4428L61.4523 66.0513H53.8242L57.6382 72.6597L53.8242 79.2724H61.4523L65.2705 85.8808L69.0845 79.2724H76.7167L72.9027 72.6597Z" fill="url(#paint20_radial_1440_47893)"/>
<path style="mix-blend-mode:screen" d="M72.9027 72.6597L76.7167 66.0513H69.0845L65.2705 59.4428L61.4523 66.0513H53.8242L57.6382 72.6597L53.8242 79.2724H61.4523L65.2705 85.8808L69.0845 79.2724H76.7167L72.9027 72.6597Z" fill="url(#paint21_linear_1440_47893)"/>
<path d="M76.7182 79.2723H69.0859V81.7437H76.7182V79.2723Z" fill="#681D15"/>
<path d="M61.4523 81.7437L65.2705 88.3522V85.8808L61.4523 79.2724H53.8242V81.7437H61.4523Z" fill="#681D15"/>
<path d="M53.8242 66.0512L57.6382 72.6597L56.9249 73.8974L53.8242 68.5226V66.0512Z" fill="#681D15"/>
<g style="mix-blend-mode:multiply" opacity="0.35">
<path d="M53.8242 66.0512L59.0396 72.6597L53.8242 79.2723L57.6382 72.6597L53.8242 66.0512Z" fill="#9E2C19"/>
</g>
<g style="mix-blend-mode:screen" opacity="0.8">
<path d="M65.2695 59.4428L68.9493 66.7016L76.7158 66.0513H69.0835L65.2695 59.4428Z" fill="#FFE67B"/>
</g>
<g style="mix-blend-mode:screen" opacity="0.5">
<path d="M53.8242 79.2724L62.1697 78.5507L65.2705 85.8809L61.4523 79.2724H53.8242Z" fill="#FFE67B"/>
</g>
<g style="mix-blend-mode:multiply" opacity="0.35">
<path d="M65.2695 85.8806L68.5926 77.7407L76.7158 79.2721H69.0835L65.2695 85.8806Z" fill="#9E2C19"/>
</g>
<g style="mix-blend-mode:multiply" opacity="0.6">
<path d="M87.5202 53.2037L91.3342 46.5952V43.4315L83.702 46.5952L79.888 39.9868L76.0697 46.5952L68.4375 43.4315V46.5952L72.2557 53.2037L68.4375 56.6526V59.8163H76.0697L79.888 66.4248L83.702 59.8163H91.3342V56.6526L87.5202 53.2037Z" fill="#892334"/>
</g>
<path d="M87.5202 50.0401L91.3342 43.4316V40.9603L83.702 43.4316L79.888 36.8232L76.0697 43.4316L68.4375 40.9603V43.4316L72.2557 50.0401L68.4375 54.1772V56.6527H76.0697L79.888 63.2612L83.702 56.6527H91.3342V54.1772L87.5202 50.0401Z" fill="#9E2C19"/>
<path d="M87.5202 47.5684L91.3342 40.96H83.702L79.888 34.3515L76.0697 40.96H68.4375L72.2557 47.5684L68.4375 54.1769H76.0697L79.888 60.7895L83.702 54.1769H91.3342L87.5202 47.5684Z" fill="url(#paint22_radial_1440_47893)"/>
<path style="mix-blend-mode:screen" d="M79.8877 60.7896L83.6933 54.198C80.0891 51.521 76.2331 49.3308 72.2303 47.6147L68.4414 54.1812H76.0736L79.8877 60.7896Z" fill="url(#paint23_linear_1440_47893)"/>
<path style="mix-blend-mode:screen" d="M83.6975 40.96L79.8835 34.3515L76.0695 40.96H70.082C77.2275 44.0103 84.1926 48.0383 90.6039 52.9181L87.5157 47.5726L91.3298 40.9641H83.6975V40.96Z" fill="url(#paint24_linear_1440_47893)"/>
<path d="M91.3315 54.1772H83.6992V56.6485H91.3315V54.1772Z" fill="#681D15"/>
<path d="M76.0697 56.6527L79.888 63.2612V60.7898L76.0697 54.1772H68.4375V56.6527H76.0697Z" fill="#681D15"/>
<path d="M68.4375 40.9599L72.2557 47.5683L71.5424 48.8061L68.4375 43.4313V40.9599Z" fill="#681D15"/>
<g style="mix-blend-mode:multiply" opacity="0.35">
<path d="M68.4375 40.9599L73.6529 47.5683L68.4375 54.1768L72.2557 47.5683L68.4375 40.9599Z" fill="#9E2C19"/>
</g>
<g style="mix-blend-mode:screen" opacity="0.8">
<path d="M79.8867 34.3515L83.5665 41.6103L91.333 40.96H83.7007L79.8867 34.3515Z" fill="#FFE67B"/>
</g>
<g style="mix-blend-mode:screen" opacity="0.5">
<path d="M68.4375 54.1769L76.7872 53.4594L79.888 60.7895L76.0697 54.1769H68.4375Z" fill="#FFE67B"/>
</g>
<g style="mix-blend-mode:multiply" opacity="0.35">
<path d="M79.8867 60.7898L83.2098 52.6498L91.333 54.1771H83.7007L79.8867 60.7898Z" fill="#9E2C19"/>
</g>
<path d="M70.7357 73.5071C69.8 75.1309 67.0266 75.2862 64.5426 73.8512C62.0587 72.4162 60.8083 69.9407 61.744 68.3169C62.6797 66.6931 65.4531 66.5378 67.9371 67.9728C70.421 69.4078 71.6714 71.8833 70.7357 73.5071Z" fill="#FCE265"/>
<path d="M66.5111 77.6528C66.209 78.1731 65.223 78.1647 64.3041 77.6319C63.3852 77.1032 62.8859 76.2514 63.1838 75.7311C63.4817 75.2109 64.4719 75.2192 65.3908 75.7521C66.3097 76.285 66.809 77.1326 66.5111 77.6528Z" fill="#FCE265"/>
<path d="M83.6673 44.0149C83.1596 44.8918 81.4938 44.875 79.9455 43.9813C78.3973 43.0876 77.5497 41.6526 78.0574 40.7757C78.5651 39.8988 80.2309 39.9156 81.7791 40.8093C83.3274 41.703 84.175 43.138 83.6673 44.0149Z" fill="#FCE265"/>
<g style="mix-blend-mode:screen">
<path d="M121.403 33.5462C124.789 33.5294 126.128 33.5126 129.275 33.5084C133.685 30.7433 136.626 26.6356 137.037 21.8524C137.071 21.4789 137.079 21.1055 137.083 20.7363L117.199 20.774L121.403 33.5462Z" fill="#FFF2BB"/>
</g>
<path style="mix-blend-mode:color-dodge" opacity="0.5" d="M106.013 57.4624C123.214 57.4624 137.159 43.5179 137.159 26.3166C137.159 9.11532 123.214 -4.8291 106.013 -4.8291C88.8116 -4.8291 74.8672 9.11532 74.8672 26.3166C74.8672 43.5179 88.8116 57.4624 106.013 57.4624Z" fill="url(#paint25_radial_1440_47893)"/>
<path style="mix-blend-mode:color-dodge" opacity="0.5" d="M57.722 120.249C71.2203 120.249 82.1628 109.306 82.1628 95.808C82.1628 82.3097 71.2203 71.3672 57.722 71.3672C44.2238 71.3672 33.2812 82.3097 33.2812 95.808C33.2812 109.306 44.2238 120.249 57.722 120.249Z" fill="url(#paint26_radial_1440_47893)"/>
</g>
<defs>
<radialGradient id="paint0_radial_1440_47893" cx="0" cy="0" r="1" gradientUnits="userSpaceOnUse" gradientTransform="translate(107.725 23.665) scale(82.8972 82.8972)">
<stop offset="0.01" stop-color="#E8B321"/>
<stop offset="1" stop-color="#E36C0B"/>
</radialGradient>
<radialGradient id="paint1_radial_1440_47893" cx="0" cy="0" r="1" gradientUnits="userSpaceOnUse" gradientTransform="translate(122.805 12.378) scale(114.685 114.685)">
<stop offset="0.01" stop-color="#E8B321"/>
<stop offset="1" stop-color="#E36C0B"/>
</radialGradient>
<linearGradient id="paint2_linear_1440_47893" x1="127.756" y1="4.21711" x2="75.7734" y2="68.338" gradientUnits="userSpaceOnUse">
<stop stop-color="#FFE969"/>
<stop offset="0.11" stop-color="#FEE366"/>
<stop offset="0.24" stop-color="#FBD45F"/>
<stop offset="0.38" stop-color="#F6BC54"/>
<stop offset="0.53" stop-color="#F09945"/>
<stop offset="0.69" stop-color="#E86D31"/>
<stop offset="0.85" stop-color="#DE3719"/>
<stop offset="1" stop-color="#D40000"/>
</linearGradient>
<linearGradient id="paint3_linear_1440_47893" x1="44.9806" y1="108.073" x2="90.4216" y2="51.1099" gradientUnits="userSpaceOnUse">
<stop stop-color="#D40000"/>
<stop offset="1" stop-color="#FFE447"/>
</linearGradient>
<linearGradient id="paint4_linear_1440_47893" x1="79.7996" y1="70.2218" x2="79.7996" y2="87.538" gradientUnits="userSpaceOnUse">
<stop offset="0.63" stop-color="#F7D24A"/>
<stop offset="1" stop-color="#F7E399"/>
</linearGradient>
<radialGradient id="paint5_radial_1440_47893" cx="0" cy="0" r="1" gradientUnits="userSpaceOnUse" gradientTransform="translate(56.6832 7.3724) scale(92.0022 92.0022)">
<stop offset="0.01" stop-color="#E8B321"/>
<stop offset="1" stop-color="#E36C0B"/>
</radialGradient>
<radialGradient id="paint6_radial_1440_47893" cx="0" cy="0" r="1" gradientUnits="userSpaceOnUse" gradientTransform="translate(56.6822 7.37237) scale(92.0022 92.0022)">
<stop offset="0.01" stop-color="#E8B321"/>
<stop offset="1" stop-color="#E36C0B"/>
</radialGradient>
<radialGradient id="paint7_radial_1440_47893" cx="0" cy="0" r="1" gradientUnits="userSpaceOnUse" gradientTransform="translate(56.6861 7.37248) scale(92.0022 92.0022)">
<stop offset="0.01" stop-color="#E8B321"/>
<stop offset="1" stop-color="#E36C0B"/>
</radialGradient>
<radialGradient id="paint8_radial_1440_47893" cx="0" cy="0" r="1" gradientUnits="userSpaceOnUse" gradientTransform="translate(112.504 22.3139) scale(95.0819 95.082)">
<stop offset="0.01" stop-color="#E8B321"/>
<stop offset="1" stop-color="#E36C0B"/>
</radialGradient>
<radialGradient id="paint9_radial_1440_47893" cx="0" cy="0" r="1" gradientUnits="userSpaceOnUse" gradientTransform="translate(112.507 22.3138) scale(95.082 95.082)">
<stop offset="0.01" stop-color="#E8B321"/>
<stop offset="1" stop-color="#E36C0B"/>
</radialGradient>
<radialGradient id="paint10_radial_1440_47893" cx="0" cy="0" r="1" gradientUnits="userSpaceOnUse" gradientTransform="translate(112.505 22.3138) scale(95.082 95.082)">
<stop offset="0.01" stop-color="#E8B321"/>
<stop offset="1" stop-color="#E36C0B"/>
</radialGradient>
<linearGradient id="paint11_linear_1440_47893" x1="143.885" y1="14.346" x2="93.6186" y2="82.6668" gradientUnits="userSpaceOnUse">
<stop stop-color="#FFE969"/>
<stop offset="0.11" stop-color="#FEE366"/>
<stop offset="0.24" stop-color="#FBD45F"/>
<stop offset="0.38" stop-color="#F6BC54"/>
<stop offset="0.53" stop-color="#F09945"/>
<stop offset="0.69" stop-color="#E86D31"/>
<stop offset="0.85" stop-color="#DE3719"/>
<stop offset="1" stop-color="#D40000"/>
</linearGradient>
<linearGradient id="paint12_linear_1440_47893" x1="154.129" y1="21.8816" x2="103.863" y2="90.2025" gradientUnits="userSpaceOnUse">
<stop stop-color="#FFE969"/>
<stop offset="0.11" stop-color="#FEE366"/>
<stop offset="0.24" stop-color="#FBD45F"/>
<stop offset="0.38" stop-color="#F6BC54"/>
<stop offset="0.53" stop-color="#F09945"/>
<stop offset="0.69" stop-color="#E86D31"/>
<stop offset="0.85" stop-color="#DE3719"/>
<stop offset="1" stop-color="#D40000"/>
</linearGradient>
<linearGradient id="paint13_linear_1440_47893" x1="162.599" y1="28.1124" x2="112.328" y2="96.4333" gradientUnits="userSpaceOnUse">
<stop stop-color="#FFE969"/>
<stop offset="0.11" stop-color="#FEE366"/>
<stop offset="0.24" stop-color="#FBD45F"/>
<stop offset="0.38" stop-color="#F6BC54"/>
<stop offset="0.53" stop-color="#F09945"/>
<stop offset="0.69" stop-color="#E86D31"/>
<stop offset="0.85" stop-color="#DE3719"/>
<stop offset="1" stop-color="#D40000"/>
</linearGradient>
<linearGradient id="paint14_linear_1440_47893" x1="68.9686" y1="-40.7749" x2="18.6983" y2="27.546" gradientUnits="userSpaceOnUse">
<stop stop-color="#FFE969"/>
<stop offset="0.11" stop-color="#FEE366"/>
<stop offset="0.24" stop-color="#FBD45F"/>
<stop offset="0.38" stop-color="#F6BC54"/>
<stop offset="0.53" stop-color="#F09945"/>
<stop offset="0.69" stop-color="#E86D31"/>
<stop offset="0.85" stop-color="#DE3719"/>
<stop offset="1" stop-color="#D40000"/>
</linearGradient>
<linearGradient id="paint15_linear_1440_47893" x1="68.4179" y1="-41.1817" x2="18.1476" y2="27.1434" gradientUnits="userSpaceOnUse">
<stop stop-color="#FFE969"/>
<stop offset="0.11" stop-color="#FEE366"/>
<stop offset="0.24" stop-color="#FBD45F"/>
<stop offset="0.38" stop-color="#F6BC54"/>
<stop offset="0.53" stop-color="#F09945"/>
<stop offset="0.69" stop-color="#E86D31"/>
<stop offset="0.85" stop-color="#DE3719"/>
<stop offset="1" stop-color="#D40000"/>
</linearGradient>
<linearGradient id="paint16_linear_1440_47893" x1="6.13883" y1="85.2683" x2="45.1476" y2="26.5433" gradientUnits="userSpaceOnUse">
<stop stop-color="#D40000"/>
<stop offset="1" stop-color="#FFE447"/>
</linearGradient>
<linearGradient id="paint17_linear_1440_47893" x1="5.18154" y1="84.6347" x2="44.1945" y2="25.9097" gradientUnits="userSpaceOnUse">
<stop stop-color="#D40000"/>
<stop offset="1" stop-color="#FFE447"/>
</linearGradient>
<radialGradient id="paint18_radial_1440_47893" cx="0" cy="0" r="1" gradientUnits="userSpaceOnUse" gradientTransform="translate(109.848 14.4298) scale(131.859 131.859)">
<stop offset="0.01" stop-color="#E8B321"/>
<stop offset="1" stop-color="#E36C0B"/>
</radialGradient>
<linearGradient id="paint19_linear_1440_47893" x1="58.1681" y1="117.06" x2="112.018" y2="47.9589" gradientUnits="userSpaceOnUse">
<stop offset="0.28" stop-color="#D40000"/>
<stop offset="1" stop-color="#FFE447"/>
</linearGradient>
<radialGradient id="paint20_radial_1440_47893" cx="0" cy="0" r="1" gradientUnits="userSpaceOnUse" gradientTransform="translate(109.847 14.4298) scale(131.858 131.859)">
<stop offset="0.01" stop-color="#E8B321"/>
<stop offset="1" stop-color="#E36C0B"/>
</radialGradient>
<linearGradient id="paint21_linear_1440_47893" x1="41.0605" y1="103.73" x2="94.9057" y2="34.6286" gradientUnits="userSpaceOnUse">
<stop stop-color="#D40000"/>
<stop offset="1" stop-color="#FFE447"/>
</linearGradient>
<radialGradient id="paint22_radial_1440_47893" cx="0" cy="0" r="1" gradientUnits="userSpaceOnUse" gradientTransform="translate(109.85 14.4296) scale(131.859 131.859)">
<stop offset="0.01" stop-color="#E8B321"/>
<stop offset="1" stop-color="#E36C0B"/>
</radialGradient>
<linearGradient id="paint23_linear_1440_47893" x1="38.823" y1="101.984" x2="92.6682" y2="32.8831" gradientUnits="userSpaceOnUse">
<stop offset="0.44" stop-color="#D40000"/>
<stop offset="1" stop-color="#FFE447"/>
</linearGradient>
<linearGradient id="paint24_linear_1440_47893" x1="108.18" y1="8.14847" x2="46.8622" y2="93.5884" gradientUnits="userSpaceOnUse">
<stop stop-color="#FFE969"/>
<stop offset="0.07" stop-color="#FEE366"/>
<stop offset="0.16" stop-color="#FBD45F"/>
<stop offset="0.25" stop-color="#F6BC54"/>
<stop offset="0.35" stop-color="#F09945"/>
<stop offset="0.45" stop-color="#E86D31"/>
<stop offset="0.56" stop-color="#DE3719"/>
<stop offset="0.66" stop-color="#D40000"/>
</linearGradient>
<radialGradient id="paint25_radial_1440_47893" cx="0" cy="0" r="1" gradientUnits="userSpaceOnUse" gradientTransform="translate(106.013 26.3166) scale(31.1457)">
<stop stop-color="#F4A940"/>
<stop offset="0.09" stop-color="#E69F3C"/>
<stop offset="0.27" stop-color="#C28633"/>
<stop offset="0.51" stop-color="#885E23"/>
<stop offset="0.8" stop-color="#39270F"/>
<stop offset="1"/>
</radialGradient>
<radialGradient id="paint26_radial_1440_47893" cx="0" cy="0" r="1" gradientUnits="userSpaceOnUse" gradientTransform="translate(57.722 95.808) scale(24.4408 24.4408)">
<stop stop-color="#F4A940"/>
<stop offset="0.09" stop-color="#E69F3C"/>
<stop offset="0.27" stop-color="#C28633"/>
<stop offset="0.51" stop-color="#885E23"/>
<stop offset="0.8" stop-color="#39270F"/>
<stop offset="1"/>
</radialGradient>
<clipPath id="clip0_1440_47893">
<rect width="160" height="120" fill="white"/>
</clipPath>
</defs>
</svg>
