<svg width="160" height="120" viewBox="0 0 160 120" fill="none" xmlns="http://www.w3.org/2000/svg">
<g clip-path="url(#clip0_1440_47892)">
<path d="M80.3586 116.566L129.76 80.6749L110.892 22.6044H49.8296L30.9609 80.6749L80.3586 116.566Z" fill="#104556"/>
<path d="M112.656 20.1752H48.0651L28.1055 81.6065L80.3605 119.571L132.615 81.6065L112.656 20.1752ZM38.4398 78.2457L54.4512 28.9655H106.266L122.277 78.2457L80.3563 108.703L38.4356 78.2457H38.4398Z" fill="url(#paint0_radial_1440_47892)"/>
<g style="mix-blend-mode:multiply" opacity="0.3">
<path d="M54.4531 28.9653L80.3624 108.703L106.268 28.9653H54.4531Z" fill="#0C363D"/>
</g>
<path d="M112.655 20.175H48.0646L43.4492 34.3822C46.3192 34.5164 49.294 34.8773 52.3444 35.4563L54.4549 28.9653H106.269L122.281 78.2455L116.201 82.6637C117.569 85.3197 118.781 88.0679 119.822 90.9001L132.615 81.6021L112.655 20.1708V20.175Z" fill="url(#paint1_radial_1440_47892)"/>
<path style="mix-blend-mode:screen" d="M112.655 20.175H48.0646L43.4492 34.3822C46.3192 34.5164 49.294 34.8773 52.3444 35.4563L54.4549 28.9653H106.269L122.281 78.2455L116.201 82.6637C117.569 85.3197 118.781 88.0679 119.822 90.9001L132.615 81.6021L112.655 20.1708V20.175Z" fill="url(#paint2_linear_1440_47892)"/>
<path style="mix-blend-mode:screen" d="M109.115 98.6793C108.808 95.2555 108.301 91.9995 107.608 88.9072L80.3605 108.703L38.4398 78.2456L49.9364 42.8578C46.6721 42.9376 43.4539 43.3026 40.3405 43.9404L28.1055 81.6022L80.3605 119.566L109.115 98.6751V98.6793Z" fill="url(#paint3_linear_1440_47892)"/>
<path d="M38.4375 78.2454L42.583 77.3139L57.0125 32.9052H103.708L118.138 77.3139L122.279 78.2454L106.267 28.9653H54.453L38.4375 78.2454Z" fill="#9E2C19"/>
<g style="mix-blend-mode:multiply" opacity="0.2">
<path d="M42.5859 77.314L50.6587 56.5991C55.4378 44.3305 67.2575 39.0102 80.4198 39.0102C93.6409 39.0102 105.498 44.4018 110.24 56.746L118.14 77.3182L103.711 32.9052H57.0154L42.5859 77.3182V77.314Z" fill="#892334"/>
</g>
<path d="M38.4375 78.2454L42.583 77.3139L80.3581 104.763L118.138 77.3139L122.279 78.2454L80.3581 108.703L38.4375 78.2454Z" fill="url(#paint4_linear_1440_47892)"/>
<g style="mix-blend-mode:multiply" opacity="0.6">
<path d="M42.5859 77.314L57.4014 39.2955C58.1147 37.4619 59.8854 36.2535 61.8532 36.2535H99.0871C101.063 36.2535 102.838 37.4703 103.547 39.3165L118.14 77.314L103.711 32.901H57.0154L42.5859 77.314Z" fill="#892334"/>
</g>
<path d="M54.4531 28.9653L57.0126 32.9052H103.708L106.268 28.9653H54.4531Z" fill="#681D15"/>
<g style="mix-blend-mode:multiply" opacity="0.35">
<path d="M35.2639 59.574L30.2582 78.3126C29.868 79.928 30.6358 82.0679 31.9659 83.0665L80.3566 119.566L28.1016 81.6021L35.2597 59.574H35.2639Z" fill="#9E2C19"/>
</g>
<g style="mix-blend-mode:multiply" opacity="0.6">
<path d="M42.5859 77.314L78.6282 101.591C79.5849 102.233 81.1457 102.233 82.1024 101.591L118.145 77.314L80.3653 104.759L42.5859 77.314Z" fill="#892334"/>
</g>
<g style="mix-blend-mode:multiply" opacity="0.35">
<path d="M80.3594 119.566L126.891 83.6246C130.147 81.212 130.848 80.6876 129.384 76.0679L119.674 41.7753L132.614 81.6022L80.3594 119.566Z" fill="#9E2C19"/>
</g>
<path d="M57.2734 91.9237L80.3631 108.703L111.547 86.0453L80.3673 110.125L57.2734 91.9237Z" fill="#FFF5CC"/>
<path d="M78.6094 20.1752H112.654L119.674 41.7754L111.354 21.371L78.6094 20.1752Z" fill="#FFF5CC"/>
<g style="mix-blend-mode:screen">
<path d="M92.157 20.1752C91.8758 22.9739 93.0968 26.1082 95.4507 28.9655H106.263L108.936 37.1978C112.326 38.0285 115.566 38.0537 118.222 37.3278L112.649 20.1752H92.1528H92.157Z" fill="#FFF2BB"/>
</g>
<g style="mix-blend-mode:screen">
<path d="M54.4653 89.8847C53.6471 91.9868 55.1283 95.1253 58.1031 97.2862C61.078 99.447 64.5185 99.8834 66.264 98.4568L54.4653 89.8847Z" fill="#FFF2BB"/>
</g>
<g style="mix-blend-mode:screen">
<path d="M66.3407 104.197C65.8414 104.96 64.4652 104.948 63.261 104.163C62.0568 103.378 61.4861 102.124 61.9854 101.36C62.4847 100.597 63.861 100.609 65.0652 101.394C66.2694 102.178 66.84 103.433 66.3407 104.197Z" fill="#FFF2BB"/>
</g>
<path d="M42.976 20.603L40.9997 36.9542C36.3214 36.929 32.4108 36.9081 25.3828 36.9165C0.497258 36.9458 0.367188 20.5275 0.367188 20.5275L42.976 20.6072V20.603Z" fill="#681D15"/>
<path d="M42.976 20.603L38.7717 33.3752C34.0934 33.35 33.3255 33.3332 26.2975 33.3374C1.41195 33.371 0.367188 20.5275 0.367188 20.5275L42.976 20.6072V20.603Z" fill="url(#paint5_radial_1440_47892)"/>
<path d="M36.6685 40.0172L34.7217 56.3726C30.0433 56.3474 35.7329 56.3684 28.7048 56.3726C3.81931 56.4019 3.66406 39.9374 3.66406 39.9374L36.6727 40.0172H36.6685Z" fill="#681D15"/>
<path d="M36.6685 40.0172L32.5105 52.8187C27.8321 52.7935 36.6685 52.7767 29.6405 52.7809C4.75498 52.8103 3.66406 39.9374 3.66406 39.9374L36.6727 40.0172H36.6685Z" fill="url(#paint6_radial_1440_47892)"/>
<path d="M30.3704 59.4272L12.8359 59.3559C12.8359 59.3559 15.5884 71.6665 28.4151 75.7868L30.3704 59.4314V59.4272Z" fill="#681D15"/>
<path d="M30.3704 59.4272L12.8359 59.3559C12.8359 59.3559 13.3772 68.1126 26.2039 72.2329L30.3704 59.4314V59.4272Z" fill="url(#paint7_radial_1440_47892)"/>
<path d="M42.9735 20.603L45.0756 24.6603L40.9972 36.9542L38.7734 33.3751L42.9735 20.603Z" fill="#9E2C19"/>
<path d="M36.6698 40.0172L38.7761 44.0368L34.7229 56.3725L32.5117 52.8187L36.6698 40.0172Z" fill="#9E2C19"/>
<path d="M30.3573 59.4311L32.4594 63.4465L28.4104 75.7823L26.1992 72.2284L30.3573 59.4311Z" fill="#9E2C19"/>
<path d="M117.758 20.6031L119.734 36.9543C124.412 36.9291 128.323 36.9081 135.351 36.9165C160.237 36.9459 160.367 20.5234 160.367 20.5234L117.758 20.6031Z" fill="#681D15"/>
<path d="M117.758 20.6031L121.962 33.3752C126.64 33.3501 127.408 33.3333 134.436 33.3375C159.322 33.3668 160.367 20.5234 160.367 20.5234L117.758 20.6031Z" fill="url(#paint8_radial_1440_47892)"/>
<path d="M124.067 40.0172L126.014 56.3726C130.692 56.3474 125.002 56.3684 132.03 56.3726C156.916 56.4019 157.071 39.9374 157.071 39.9374L124.062 40.0172H124.067Z" fill="#681D15"/>
<path d="M124.067 40.0172L128.225 52.8187C132.903 52.7935 124.067 52.7767 131.095 52.7809C155.98 52.8103 157.071 39.9374 157.071 39.9374L124.062 40.0172H124.067Z" fill="url(#paint9_radial_1440_47892)"/>
<path d="M130.371 59.4271L147.906 59.3558C147.906 59.3558 145.153 71.6664 132.326 75.7867L130.371 59.4313V59.4271Z" fill="#681D15"/>
<path d="M130.371 59.4271L147.906 59.3558C147.906 59.3558 147.364 68.1125 134.538 72.2328L130.371 59.4313V59.4271Z" fill="url(#paint10_radial_1440_47892)"/>
<path style="mix-blend-mode:screen" d="M117.758 20.6031L121.962 33.3752C126.64 33.3501 127.408 33.3333 134.436 33.3375C159.322 33.3668 160.367 20.5234 160.367 20.5234L117.758 20.6031Z" fill="url(#paint11_linear_1440_47892)"/>
<path style="mix-blend-mode:screen" d="M124.067 40.0172L128.225 52.8187C132.903 52.7935 124.067 52.7767 131.095 52.7809C155.98 52.8103 157.071 39.9374 157.071 39.9374L124.062 40.0172H124.067Z" fill="url(#paint12_linear_1440_47892)"/>
<path style="mix-blend-mode:screen" d="M130.371 59.4271L147.906 59.3558C147.906 59.3558 147.364 68.1125 134.538 72.2328L130.371 59.4313V59.4271Z" fill="url(#paint13_linear_1440_47892)"/>
<path d="M117.758 20.603L115.66 24.6603L119.734 36.9542L121.962 33.3751L117.758 20.603Z" fill="#9E2C19"/>
<path d="M124.063 40.017L121.961 44.0366L126.01 56.3724L128.221 52.8185L124.063 40.017Z" fill="#9E2C19"/>
<path d="M130.376 59.4313L128.273 63.4468L132.327 75.7825L134.534 72.2287L130.376 59.4313Z" fill="#9E2C19"/>
<path style="mix-blend-mode:screen" d="M42.976 20.603L0.367188 20.5233C0.367188 20.5233 1.41195 33.3668 26.2975 33.3374C33.3255 33.329 34.0934 33.35 38.7717 33.3751L42.976 20.603Z" fill="url(#paint14_linear_1440_47892)"/>
<path style="mix-blend-mode:screen" d="M30.3704 59.4272L12.8359 59.3559C12.8359 59.3559 13.3772 68.1126 26.2039 72.2329L30.3704 59.4314V59.4272Z" fill="url(#paint15_linear_1440_47892)"/>
<path style="mix-blend-mode:screen" d="M32.5096 52.8188L34.96 45.2704C31.6243 46.3614 28.4564 47.7963 25.5487 49.5754C24.3445 50.3139 22.9305 51.2201 21.3906 52.2397C23.799 52.588 26.5347 52.7852 29.6396 52.781C36.6677 52.7726 27.8312 52.7936 32.5096 52.8188Z" fill="url(#paint16_linear_1440_47892)"/>
<g style="mix-blend-mode:multiply" opacity="0.35">
<path d="M36.4417 55.9532L47.3551 24.6606C48.4838 21.4843 49.302 20.6494 52.6712 20.5277L80.3596 20.1752H48.0642L36.4375 55.9532H36.4417Z" fill="#9E2C19"/>
</g>
<g style="mix-blend-mode:screen">
<path d="M90.124 25.0589C87.8667 23.4183 85.1478 23.3134 84.0484 24.8239C83.2596 25.9064 83.524 27.526 84.5687 28.961H92.6625C92.5366 27.6393 91.6219 26.1456 90.124 25.0589Z" fill="#FFF2BB"/>
</g>
<g style="mix-blend-mode:multiply" opacity="0.35">
<path fill-rule="evenodd" clip-rule="evenodd" d="M127.404 32.4017C124.568 32.1205 122.587 31.0926 121.295 28.5499L117.758 20.603L121.962 33.3751C126.64 33.3499 127.408 33.329 134.436 33.3373C138.401 33.3415 141.758 33.0185 144.607 32.473C138.439 33.2157 132.108 32.8674 127.404 32.3975V32.4017Z" fill="#9E2C19"/>
</g>
<g style="mix-blend-mode:multiply" opacity="0.35">
<path fill-rule="evenodd" clip-rule="evenodd" d="M131.091 52.7808C137.112 52.7892 141.735 52.0381 145.293 50.901C140.179 52.3234 135.886 52.2227 132.614 52.0255C130.365 51.8871 128.535 50.2339 127.583 48.1947L124.062 40.017L128.221 52.8185C132.899 52.7934 124.062 52.7766 131.091 52.7808Z" fill="#9E2C19"/>
</g>
<g style="mix-blend-mode:multiply" opacity="0.35">
<path fill-rule="evenodd" clip-rule="evenodd" d="M134.537 72.2287C137.315 71.335 139.513 70.2273 141.259 69.0357C139.194 69.8203 135.317 70.3867 135.317 70.3867L130.379 59.4272V59.4398L134.537 72.2287Z" fill="#9E2C19"/>
</g>
<g style="mix-blend-mode:multiply" opacity="0.35">
<path d="M26.2975 33.3374C33.3255 33.329 34.0934 33.35 38.7717 33.3751L42.1032 23.2548L39.6277 28.7807C38.4402 31.6926 37.7353 32.6493 34.8276 32.6786C31.6933 32.708 25.7898 32.6409 22.794 32.5234C9.72811 32.0115 2.03294 26.3639 0.367188 20.5317C0.367188 20.5317 1.41195 33.3751 26.2975 33.3458V33.3374Z" fill="#9E2C19"/>
</g>
<g style="mix-blend-mode:multiply" opacity="0.35">
<path d="M33.0697 49.0424C32.2809 50.6998 31.4292 52.0886 29.5956 52.0215C27.6991 51.9543 22.3661 51.9166 19.3242 51.2285C12.2584 49.634 8.03734 47.0032 5.17578 43.7724C7.58 47.5613 13.7689 52.7935 29.6459 52.7767C36.674 52.7683 27.8375 52.7893 32.5159 52.8145L35.9565 42.2242L33.0697 49.0424Z" fill="#9E2C19"/>
</g>
<g style="mix-blend-mode:multiply" opacity="0.35">
<path d="M26.2039 72.2285L29.8375 61.0634C29.1578 62.4858 27.8067 65.7795 26.4305 68.8299C25.4948 70.9069 24.6053 70.6425 23.1619 70.0425C16.0038 67.0635 14.3548 63.5138 12.8359 59.3515C12.8359 59.3515 13.3772 68.1082 26.2039 72.2285Z" fill="#9E2C19"/>
</g>
<path d="M117.758 20.6028L156.725 21.2699C158.29 21.2951 159.02 22.47 158.34 23.884C157.635 25.3567 156.494 27.1148 154.622 28.6336C160.002 24.9791 160.367 20.5273 160.367 20.5273L117.758 20.607V20.6028Z" fill="#FFF5CC"/>
<path d="M124.067 40.0174L152.812 40.6929C156.173 40.7684 155.628 42.1908 154.751 43.9363C154.21 45.0146 153.471 46.1936 152.498 47.1755C156.748 43.7181 157.071 39.9418 157.071 39.9418L124.062 40.0216L124.067 40.0174Z" fill="#FFF5CC"/>
<path d="M144.888 65.7923C147.712 62.4314 147.901 59.3559 147.901 59.3559L130.396 59.4272H130.375L144.846 60.0398C146.986 60.1699 146.596 60.9755 146.349 62.0119C146.059 63.2077 145.585 64.6133 144.884 65.7881L144.888 65.7923Z" fill="#FFF5CC"/>
<g style="mix-blend-mode:screen" opacity="0.5">
<path d="M11.6953 20.5273L42.9795 20.607L41.9263 23.8042C41.9263 22.1679 41.1501 21.3371 39.262 21.3161L11.6953 20.5273Z" fill="#FFE67B"/>
</g>
<g style="mix-blend-mode:screen" opacity="0.5">
<path d="M11.6953 40.017H36.6732L35.5235 43.5583L35.6452 42.3835C35.7081 41.2716 35.3137 40.6926 33.2913 40.5919L11.6995 40.017H11.6953Z" fill="#FFE67B"/>
</g>
<g style="mix-blend-mode:screen" opacity="0.5">
<path d="M16.2073 59.3686L30.3641 59.4273L29.2858 62.7295L29.2186 61.198C29.1809 60.342 28.9459 60.0483 27.7795 59.9728L16.2031 59.3728L16.2073 59.3686Z" fill="#FFE67B"/>
</g>
<g style="mix-blend-mode:multiply" opacity="0.6">
<path d="M73.0185 69.0526L76.9668 62.2134V58.9406L69.0702 62.2134L65.1219 55.3784L61.1778 62.2134L53.2812 58.9406V62.2134L57.2295 69.0526L53.2812 72.6191V75.8918H61.1778L65.1219 82.7269L69.0702 75.8918H76.9668V72.6191L73.0185 69.0526Z" fill="#892334"/>
</g>
<path d="M73.0185 65.7797L76.9668 58.9404V56.3852L69.0702 58.9404L65.1219 52.1054L61.1778 58.9404L53.2812 56.3852V58.9404L57.2295 65.7797L53.2812 70.0594V72.6189H61.1778L65.1219 79.4581L69.0702 72.6189H76.9668V70.0594L73.0185 65.7797Z" fill="#9E2C19"/>
<path d="M73.0185 63.2243L76.9668 56.3851H69.0702L65.1219 49.5458L61.1778 56.3851H53.2812L57.2295 63.2243L53.2812 70.0593H61.1778L65.1219 76.8985L69.0702 70.0593H76.9668L73.0185 63.2243Z" fill="url(#paint17_radial_1440_47892)"/>
<path style="mix-blend-mode:screen" d="M73.0185 63.2243L76.9668 56.3851H69.0702L65.1219 49.5458L61.1778 56.3851H53.2812L57.2295 63.2243L53.2812 70.0593H61.1778L65.1219 76.8985L69.0702 70.0593H76.9668L73.0185 63.2243Z" fill="url(#paint18_linear_1440_47892)"/>
<path d="M76.9669 70.0595H69.0703V72.619H76.9669V70.0595Z" fill="#681D15"/>
<path d="M61.1778 72.619L65.1219 79.4582V76.8987L61.1778 70.0595H53.2812V72.619H61.1778Z" fill="#681D15"/>
<path d="M53.2812 56.3852L57.2295 63.2244L56.4911 64.4999L53.2812 58.9405V56.3852Z" fill="#681D15"/>
<g style="mix-blend-mode:multiply" opacity="0.35">
<path d="M53.2812 56.3852L58.6771 63.2244L53.2812 70.0594L57.2295 63.2244L53.2812 56.3852Z" fill="#9E2C19"/>
</g>
<g style="mix-blend-mode:screen" opacity="0.8">
<path d="M65.1211 49.5458L68.9309 57.0564L76.966 56.3851H69.0694L65.1211 49.5458Z" fill="#FFE67B"/>
</g>
<g style="mix-blend-mode:screen" opacity="0.5">
<path d="M53.2812 70.0593L61.9163 69.3124L65.1219 76.8985L61.1778 70.0593H53.2812Z" fill="#FFE67B"/>
</g>
<g style="mix-blend-mode:multiply" opacity="0.35">
<path d="M65.1211 76.8985L68.5617 68.4775L76.966 70.0593H69.0694L65.1211 76.8985Z" fill="#9E2C19"/>
</g>
<path d="M72.8814 62.943C71.9122 64.6214 69.0422 64.785 66.4744 63.2997C63.9065 61.8185 62.61 59.2507 63.5793 57.5724C64.5485 55.894 67.4185 55.7304 69.9863 57.2157C72.5542 58.6968 73.8507 61.2647 72.8814 62.943Z" fill="#FCE265"/>
<path d="M63.6008 63.9713C63.2903 64.5084 62.2665 64.5 61.3182 63.9503C60.37 63.4007 59.8497 62.5196 60.1602 61.9825C60.4707 61.4454 61.4944 61.4538 62.4427 62.0035C63.391 62.5531 63.9113 63.4343 63.6008 63.9713Z" fill="#FCE265"/>
<g style="mix-blend-mode:multiply" opacity="0.6">
<path d="M103.202 69.0526L107.146 62.2134V58.9406L99.2541 62.2134L95.3058 55.3784L91.3575 62.2134L83.4609 58.9406V62.2134L87.4092 69.0526L83.4609 72.6191V75.8918H91.3575L95.3058 82.7269L99.2541 75.8918H107.146V72.6191L103.202 69.0526Z" fill="#892334"/>
</g>
<path d="M103.202 65.7797L107.146 58.9404V56.3852L99.2541 58.9404L95.3058 52.1054L91.3575 58.9404L83.4609 56.3852V58.9404L87.4092 65.7797L83.4609 70.0594V72.6189H91.3575L95.3058 79.4581L99.2541 72.6189H107.146V70.0594L103.202 65.7797Z" fill="#9E2C19"/>
<path d="M103.202 63.2243L107.146 56.3851H99.2541L95.3058 49.5458L91.3575 56.3851H83.4609L87.4092 63.2243L83.4609 70.0593H91.3575L95.3058 76.8985L99.2541 70.0593H107.146L103.202 63.2243Z" fill="url(#paint19_radial_1440_47892)"/>
<path style="mix-blend-mode:screen" d="M88.8526 56.3852H83.4609L87.4092 63.2244L83.4609 70.0636H91.3575L95.3058 76.9029L99.2541 70.0636H100.404C97.1771 64.6972 93.2498 60.1447 88.8526 56.3894V56.3852Z" fill="url(#paint20_linear_1440_47892)"/>
<path style="mix-blend-mode:screen" d="M99.2538 56.3851L95.3056 49.5458L92.7461 53.9766C96.7154 57.1277 100.45 60.6103 103.873 64.3907L103.198 63.2243L107.146 56.3851H99.2496H99.2538Z" fill="url(#paint21_linear_1440_47892)"/>
<path d="M107.15 70.0595H99.2539V72.619H107.15V70.0595Z" fill="#681D15"/>
<path d="M91.3575 72.619L95.3058 79.4582V76.8987L91.3575 70.0595H83.4609V72.619H91.3575Z" fill="#681D15"/>
<path d="M83.4609 56.3852L87.4092 63.2244L86.6708 64.4999L83.4609 58.9405V56.3852Z" fill="#681D15"/>
<g style="mix-blend-mode:multiply" opacity="0.35">
<path d="M83.4609 56.3852L88.8568 63.2244L83.4609 70.0594L87.4092 63.2244L83.4609 56.3852Z" fill="#9E2C19"/>
</g>
<g style="mix-blend-mode:screen" opacity="0.8">
<path d="M95.3047 49.5458L99.1103 57.0564L107.145 56.3851H99.253L95.3047 49.5458Z" fill="#FFE67B"/>
</g>
<g style="mix-blend-mode:screen" opacity="0.5">
<path d="M83.4609 70.0593L92.1002 69.3124L95.3058 76.8985L91.3575 70.0593H83.4609Z" fill="#FFE67B"/>
</g>
<g style="mix-blend-mode:multiply" opacity="0.35">
<path d="M95.3047 76.8985L98.7453 68.4775L107.145 70.0593H99.253L95.3047 76.8985Z" fill="#9E2C19"/>
</g>
<path d="M95.8181 69.43C95.1594 70.5713 93.2125 70.6804 91.4712 69.6734C89.73 68.6664 88.8488 66.9251 89.5076 65.788C90.1663 64.6467 92.1132 64.5377 93.8545 65.5447C95.5958 66.5517 96.4769 68.2929 95.8181 69.43Z" fill="#FCE265"/>
<g style="mix-blend-mode:screen">
<path d="M121.962 33.3753C125.289 33.3585 126.64 33.3417 129.67 33.3375C134.08 30.5725 137.021 26.4647 137.432 21.6815C137.466 21.308 137.474 20.9346 137.478 20.5654L117.758 20.6031L121.962 33.3753Z" fill="#FFF2BB"/>
</g>
<path style="mix-blend-mode:screen" d="M3.66406 39.9418C3.66406 39.9418 3.84448 42.0272 5.67387 44.5153C8.38858 42.9796 11.418 41.4104 14.6488 39.9712L3.66406 39.946V39.9418Z" fill="url(#paint22_linear_1440_47892)"/>
<path style="mix-blend-mode:color-dodge" opacity="0.5" d="M107.146 57.2915C124.347 57.2915 138.291 43.347 138.291 26.1457C138.291 8.94442 124.347 -5 107.146 -5C89.9444 -5 76 8.94442 76 26.1457C76 43.347 89.9444 57.2915 107.146 57.2915Z" fill="url(#paint23_radial_1440_47892)"/>
<path style="mix-blend-mode:color-dodge" opacity="0.5" d="M59.1986 120.078C72.6969 120.078 83.6394 109.135 83.6394 95.6371C83.6394 82.1388 72.6969 71.1963 59.1986 71.1963C45.7003 71.1963 34.7578 82.1388 34.7578 95.6371C34.7578 109.135 45.7003 120.078 59.1986 120.078Z" fill="url(#paint24_radial_1440_47892)"/>
</g>
<defs>
<radialGradient id="paint0_radial_1440_47892" cx="0" cy="0" r="1" gradientUnits="userSpaceOnUse" gradientTransform="translate(108.284 23.4941) scale(82.8972 82.8972)">
<stop offset="0.01" stop-color="#E8B321"/>
<stop offset="1" stop-color="#E36C0B"/>
</radialGradient>
<radialGradient id="paint1_radial_1440_47892" cx="0" cy="0" r="1" gradientUnits="userSpaceOnUse" gradientTransform="translate(123.363 12.2071) scale(114.685 114.685)">
<stop offset="0.01" stop-color="#E8B321"/>
<stop offset="1" stop-color="#E36C0B"/>
</radialGradient>
<linearGradient id="paint2_linear_1440_47892" x1="128.314" y1="4.04621" x2="76.332" y2="68.1671" gradientUnits="userSpaceOnUse">
<stop stop-color="#FFE969"/>
<stop offset="0.11" stop-color="#FEE366"/>
<stop offset="0.24" stop-color="#FBD45F"/>
<stop offset="0.38" stop-color="#F6BC54"/>
<stop offset="0.53" stop-color="#F09945"/>
<stop offset="0.69" stop-color="#E86D31"/>
<stop offset="0.85" stop-color="#DE3719"/>
<stop offset="1" stop-color="#D40000"/>
</linearGradient>
<linearGradient id="paint3_linear_1440_47892" x1="45.5392" y1="107.902" x2="90.9801" y2="50.939" gradientUnits="userSpaceOnUse">
<stop stop-color="#D40000"/>
<stop offset="1" stop-color="#FFE447"/>
</linearGradient>
<linearGradient id="paint4_linear_1440_47892" x1="80.3582" y1="70.0509" x2="80.3582" y2="87.3671" gradientUnits="userSpaceOnUse">
<stop offset="0.63" stop-color="#F7D24A"/>
<stop offset="1" stop-color="#F7E399"/>
</linearGradient>
<radialGradient id="paint5_radial_1440_47892" cx="0" cy="0" r="1" gradientUnits="userSpaceOnUse" gradientTransform="translate(57.2418 7.2015) scale(92.0022 92.0022)">
<stop offset="0.01" stop-color="#E8B321"/>
<stop offset="1" stop-color="#E36C0B"/>
</radialGradient>
<radialGradient id="paint6_radial_1440_47892" cx="0" cy="0" r="1" gradientUnits="userSpaceOnUse" gradientTransform="translate(57.2408 7.20148) scale(92.0022 92.0022)">
<stop offset="0.01" stop-color="#E8B321"/>
<stop offset="1" stop-color="#E36C0B"/>
</radialGradient>
<radialGradient id="paint7_radial_1440_47892" cx="0" cy="0" r="1" gradientUnits="userSpaceOnUse" gradientTransform="translate(57.2447 7.20159) scale(92.0022 92.0022)">
<stop offset="0.01" stop-color="#E8B321"/>
<stop offset="1" stop-color="#E36C0B"/>
</radialGradient>
<radialGradient id="paint8_radial_1440_47892" cx="0" cy="0" r="1" gradientUnits="userSpaceOnUse" gradientTransform="translate(113.063 22.143) scale(95.0819 95.082)">
<stop offset="0.01" stop-color="#E8B321"/>
<stop offset="1" stop-color="#E36C0B"/>
</radialGradient>
<radialGradient id="paint9_radial_1440_47892" cx="0" cy="0" r="1" gradientUnits="userSpaceOnUse" gradientTransform="translate(113.065 22.1429) scale(95.082 95.082)">
<stop offset="0.01" stop-color="#E8B321"/>
<stop offset="1" stop-color="#E36C0B"/>
</radialGradient>
<radialGradient id="paint10_radial_1440_47892" cx="0" cy="0" r="1" gradientUnits="userSpaceOnUse" gradientTransform="translate(113.063 22.1429) scale(95.082 95.082)">
<stop offset="0.01" stop-color="#E8B321"/>
<stop offset="1" stop-color="#E36C0B"/>
</radialGradient>
<linearGradient id="paint11_linear_1440_47892" x1="144.448" y1="14.1751" x2="94.1772" y2="82.4959" gradientUnits="userSpaceOnUse">
<stop stop-color="#FFE969"/>
<stop offset="0.11" stop-color="#FEE366"/>
<stop offset="0.24" stop-color="#FBD45F"/>
<stop offset="0.38" stop-color="#F6BC54"/>
<stop offset="0.53" stop-color="#F09945"/>
<stop offset="0.69" stop-color="#E86D31"/>
<stop offset="0.85" stop-color="#DE3719"/>
<stop offset="1" stop-color="#D40000"/>
</linearGradient>
<linearGradient id="paint12_linear_1440_47892" x1="154.688" y1="21.7107" x2="104.422" y2="90.0316" gradientUnits="userSpaceOnUse">
<stop stop-color="#FFE969"/>
<stop offset="0.11" stop-color="#FEE366"/>
<stop offset="0.24" stop-color="#FBD45F"/>
<stop offset="0.38" stop-color="#F6BC54"/>
<stop offset="0.53" stop-color="#F09945"/>
<stop offset="0.69" stop-color="#E86D31"/>
<stop offset="0.85" stop-color="#DE3719"/>
<stop offset="1" stop-color="#D40000"/>
</linearGradient>
<linearGradient id="paint13_linear_1440_47892" x1="163.157" y1="27.9415" x2="112.887" y2="96.2624" gradientUnits="userSpaceOnUse">
<stop stop-color="#FFE969"/>
<stop offset="0.11" stop-color="#FEE366"/>
<stop offset="0.24" stop-color="#FBD45F"/>
<stop offset="0.38" stop-color="#F6BC54"/>
<stop offset="0.53" stop-color="#F09945"/>
<stop offset="0.69" stop-color="#E86D31"/>
<stop offset="0.85" stop-color="#DE3719"/>
<stop offset="1" stop-color="#D40000"/>
</linearGradient>
<linearGradient id="paint14_linear_1440_47892" x1="69.5272" y1="-40.9458" x2="19.2569" y2="27.3751" gradientUnits="userSpaceOnUse">
<stop stop-color="#FFE969"/>
<stop offset="0.11" stop-color="#FEE366"/>
<stop offset="0.24" stop-color="#FBD45F"/>
<stop offset="0.38" stop-color="#F6BC54"/>
<stop offset="0.53" stop-color="#F09945"/>
<stop offset="0.69" stop-color="#E86D31"/>
<stop offset="0.85" stop-color="#DE3719"/>
<stop offset="1" stop-color="#D40000"/>
</linearGradient>
<linearGradient id="paint15_linear_1440_47892" x1="6.69742" y1="85.0974" x2="45.7062" y2="26.3724" gradientUnits="userSpaceOnUse">
<stop stop-color="#D40000"/>
<stop offset="1" stop-color="#FFE447"/>
</linearGradient>
<linearGradient id="paint16_linear_1440_47892" x1="5.73594" y1="84.4638" x2="44.7489" y2="25.7388" gradientUnits="userSpaceOnUse">
<stop stop-color="#D40000"/>
<stop offset="1" stop-color="#FFE447"/>
</linearGradient>
<radialGradient id="paint17_radial_1440_47892" cx="0" cy="0" r="1" gradientUnits="userSpaceOnUse" gradientTransform="translate(106.598 27.954) scale(97.4736 97.4736)">
<stop offset="0.01" stop-color="#E8B321"/>
<stop offset="1" stop-color="#E36C0B"/>
</radialGradient>
<linearGradient id="paint18_linear_1440_47892" x1="37.014" y1="101.356" x2="93.4564" y2="24.7862" gradientUnits="userSpaceOnUse">
<stop stop-color="#D40000"/>
<stop offset="1" stop-color="#FFE447"/>
</linearGradient>
<radialGradient id="paint19_radial_1440_47892" cx="0" cy="0" r="1" gradientUnits="userSpaceOnUse" gradientTransform="translate(106.597 27.954) scale(97.4736 97.4736)">
<stop offset="0.01" stop-color="#E8B321"/>
<stop offset="1" stop-color="#E36C0B"/>
</radialGradient>
<linearGradient id="paint20_linear_1440_47892" x1="54.3838" y1="114.162" x2="110.826" y2="37.592" gradientUnits="userSpaceOnUse">
<stop stop-color="#D40000"/>
<stop offset="1" stop-color="#FFE447"/>
</linearGradient>
<linearGradient id="paint21_linear_1440_47892" x1="124.5" y1="29.0198" x2="83.6201" y2="74.8803" gradientUnits="userSpaceOnUse">
<stop stop-color="#FFE969"/>
<stop offset="0.11" stop-color="#FEE366"/>
<stop offset="0.24" stop-color="#FBD45F"/>
<stop offset="0.38" stop-color="#F6BC54"/>
<stop offset="0.53" stop-color="#F09945"/>
<stop offset="0.69" stop-color="#E86D31"/>
<stop offset="0.85" stop-color="#DE3719"/>
<stop offset="1" stop-color="#D40000"/>
</linearGradient>
<linearGradient id="paint22_linear_1440_47892" x1="68.9765" y1="-41.3526" x2="18.7061" y2="26.9725" gradientUnits="userSpaceOnUse">
<stop stop-color="#FFE969"/>
<stop offset="0.11" stop-color="#FEE366"/>
<stop offset="0.24" stop-color="#FBD45F"/>
<stop offset="0.38" stop-color="#F6BC54"/>
<stop offset="0.53" stop-color="#F09945"/>
<stop offset="0.69" stop-color="#E86D31"/>
<stop offset="0.85" stop-color="#DE3719"/>
<stop offset="1" stop-color="#D40000"/>
</linearGradient>
<radialGradient id="paint23_radial_1440_47892" cx="0" cy="0" r="1" gradientUnits="userSpaceOnUse" gradientTransform="translate(107.146 26.1457) scale(31.1457)">
<stop stop-color="#F4A940"/>
<stop offset="0.09" stop-color="#E69F3C"/>
<stop offset="0.27" stop-color="#C28633"/>
<stop offset="0.51" stop-color="#885E23"/>
<stop offset="0.8" stop-color="#39270F"/>
<stop offset="1"/>
</radialGradient>
<radialGradient id="paint24_radial_1440_47892" cx="0" cy="0" r="1" gradientUnits="userSpaceOnUse" gradientTransform="translate(59.1986 95.6371) scale(24.4408 24.4408)">
<stop stop-color="#F4A940"/>
<stop offset="0.09" stop-color="#E69F3C"/>
<stop offset="0.27" stop-color="#C28633"/>
<stop offset="0.51" stop-color="#885E23"/>
<stop offset="0.8" stop-color="#39270F"/>
<stop offset="1"/>
</radialGradient>
<clipPath id="clip0_1440_47892">
<rect width="160" height="120" fill="white"/>
</clipPath>
</defs>
</svg>
