<svg width="160" height="120" viewBox="0 0 160 120" fill="none" xmlns="http://www.w3.org/2000/svg">
<g clip-path="url(#clip0_1440_47894)">
<path d="M79.7437 113.237L127.14 78.8034L109.037 23.0905H50.4542L32.3516 78.8034L79.7437 113.237Z" fill="#104556"/>
<path d="M110.731 20.7595H48.7626L29.6133 79.6967L79.7468 116.119L129.88 79.6967L110.731 20.7595ZM39.5281 76.4723L54.8894 29.1929H104.6L119.961 76.4723L79.7428 105.693L39.5241 76.4723H39.5281Z" fill="url(#paint0_radial_1440_47894)"/>
<g style="mix-blend-mode:multiply" opacity="0.3">
<path d="M54.8945 29.1931L79.752 105.694L104.605 29.1931H54.8945Z" fill="#0C363D"/>
</g>
<path d="M110.729 20.7596H48.7601L44.332 34.3899C47.0855 34.5187 49.9395 34.8649 52.8661 35.4204L54.8909 29.193H104.602L119.963 76.4724L114.13 80.7113C115.442 83.2594 116.606 85.8961 117.604 88.6133L129.878 79.6928L110.729 20.7556V20.7596Z" fill="url(#paint1_radial_1440_47894)"/>
<path style="mix-blend-mode:screen" d="M110.729 20.7596H48.7601L44.332 34.3899C47.0855 34.5187 49.9395 34.8649 52.8661 35.4204L54.8909 29.193H104.602L119.963 76.4724L114.13 80.7113C115.442 83.2594 116.606 85.8961 117.604 88.6133L129.878 79.6928L110.729 20.7556V20.7596Z" fill="url(#paint2_linear_1440_47894)"/>
<path style="mix-blend-mode:screen" d="M107.334 96.0764C107.04 92.7916 106.553 89.6678 105.888 86.701L79.7468 105.693L39.5281 76.4722L50.5579 42.5212C47.4261 42.5977 44.3385 42.9479 41.3516 43.5598L29.6133 79.6926L79.7468 116.115L107.334 96.0723V96.0764Z" fill="url(#paint3_linear_1440_47894)"/>
<path d="M39.5273 76.4724L43.5045 75.5788L57.3482 32.9729H102.148L115.992 75.5788L119.965 76.4724L104.603 29.193H54.8927L39.5273 76.4724Z" fill="#9E2C19"/>
<g style="mix-blend-mode:multiply" opacity="0.2">
<path d="M43.5039 75.5787L51.249 55.7048C55.834 43.9343 67.1738 38.8299 79.8018 38.8299C92.4861 38.8299 103.862 44.0027 108.411 55.8457L115.991 75.5827L102.147 32.9728H57.3476L43.5039 75.5827V75.5787Z" fill="#892334"/>
</g>
<path d="M39.5273 76.4724L43.5045 75.5788L79.7461 101.914L115.992 75.5788L119.965 76.4724L79.7461 105.693L39.5273 76.4724Z" fill="url(#paint4_linear_1440_47894)"/>
<g style="mix-blend-mode:multiply" opacity="0.6">
<path d="M43.5039 75.5788L57.7179 39.1038C58.4023 37.3446 60.101 36.1853 61.989 36.1853H97.7112C99.6072 36.1853 101.31 37.3527 101.99 39.1239L115.991 75.5788L102.147 32.9689H57.3476L43.5039 75.5788Z" fill="#892334"/>
</g>
<path d="M54.8945 29.1931L57.3501 32.973H102.15L104.605 29.1931H54.8945Z" fill="#681D15"/>
<g style="mix-blend-mode:multiply" opacity="0.35">
<path d="M36.4809 58.5588L31.6785 76.5366C31.3041 78.0865 32.0408 80.1395 33.3169 81.0975L79.7429 116.115L29.6094 79.6926L36.4769 58.5588H36.4809Z" fill="#9E2C19"/>
</g>
<g style="mix-blend-mode:multiply" opacity="0.6">
<path d="M43.5039 75.5788L78.0829 98.8703C79.0007 99.4862 80.4982 99.4862 81.416 98.8703L115.995 75.5788L79.7495 101.91L43.5039 75.5788Z" fill="#892334"/>
</g>
<g style="mix-blend-mode:multiply" opacity="0.35">
<path d="M79.7461 116.115L124.389 81.6331C127.513 79.3184 128.185 78.8153 126.78 74.3832L117.465 41.4828L129.88 79.6928L79.7461 116.115Z" fill="#9E2C19"/>
</g>
<path d="M57.5938 89.5955L79.746 105.693L109.664 83.9558L79.7501 107.058L57.5938 89.5955Z" fill="#FFF5CC"/>
<path d="M78.0703 20.7595H110.733L117.468 41.4827L109.489 21.9067L78.0703 20.7595Z" fill="#FFF5CC"/>
<g style="mix-blend-mode:screen">
<path d="M91.0655 20.7595C90.7958 23.4445 91.9672 26.4515 94.2255 29.1929H104.599L107.163 37.0909C110.416 37.8879 113.524 37.9121 116.072 37.2157L110.726 20.7595H91.0615H91.0655Z" fill="#FFF2BB"/>
</g>
<g style="mix-blend-mode:screen">
<path d="M54.9016 87.6393C54.1166 89.6561 55.5376 92.6672 58.3917 94.7403C61.2457 96.8134 64.5467 97.2321 66.2213 95.8634L54.9016 87.6393Z" fill="#FFF2BB"/>
</g>
<g style="mix-blend-mode:screen">
<path d="M66.2933 101.37C65.8142 102.103 64.4939 102.09 63.3386 101.338C62.1832 100.585 61.6358 99.3813 62.1148 98.6487C62.5938 97.916 63.9142 97.9281 65.0695 98.6809C66.2248 99.4336 66.7723 100.637 66.2933 101.37Z" fill="#FFF2BB"/>
</g>
<path d="M43.8789 21.1704L41.9829 36.8577C37.4945 36.8336 33.7427 36.8135 27 36.8215C3.12479 36.8497 3 21.0979 3 21.0979L43.8789 21.1744V21.1704Z" fill="#681D15"/>
<path d="M43.8789 21.1704L39.8454 33.424C35.3569 33.3998 34.6203 33.3837 27.8776 33.3878C4.00235 33.42 3 21.0979 3 21.0979L43.8789 21.1744V21.1704Z" fill="url(#paint5_radial_1440_47894)"/>
<path d="M37.8287 39.7962L35.9609 55.4875C31.4725 55.4634 36.931 55.4835 30.1883 55.4875C6.31313 55.5157 6.16016 39.7197 6.16016 39.7197L37.8287 39.7962Z" fill="#681D15"/>
<path d="M37.8286 39.7962L33.8393 52.0779C29.3509 52.0538 37.8286 52.0377 31.0859 52.0417C7.21069 52.0699 6.16406 39.7197 6.16406 39.7197L37.8326 39.7962H37.8286Z" fill="url(#paint6_radial_1440_47894)"/>
<path d="M31.7835 58.4182L14.9609 58.3498C14.9609 58.3498 17.6017 70.1606 29.9076 74.1136L31.7835 58.4222V58.4182Z" fill="#681D15"/>
<path d="M31.7835 58.4182L14.9609 58.3498C14.9609 58.3498 15.4802 66.751 27.7862 70.704L31.7835 58.4222V58.4182Z" fill="url(#paint7_radial_1440_47894)"/>
<path d="M43.8772 21.1701L45.8939 25.0628L41.9812 36.8575L39.8477 33.4237L43.8772 21.1701Z" fill="#9E2C19"/>
<path d="M37.8291 39.7961L39.8499 43.6525L35.9613 55.4875L33.8398 52.0779L37.8291 39.7961Z" fill="#9E2C19"/>
<path d="M31.7744 58.4221L33.7912 62.2745L29.9066 74.1095L27.7852 70.6999L31.7744 58.4221Z" fill="#9E2C19"/>
<path d="M115.625 21.1704L117.521 36.8578C122.009 36.8336 125.761 36.8135 132.504 36.8215C156.379 36.8497 156.504 21.0939 156.504 21.0939L115.625 21.1704Z" fill="#681D15"/>
<path d="M115.625 21.1704L119.659 33.424C124.147 33.3999 124.884 33.3838 131.626 33.3878C155.502 33.416 156.504 21.0939 156.504 21.0939L115.625 21.1704Z" fill="url(#paint8_radial_1440_47894)"/>
<path d="M121.676 39.7959L123.544 55.4873C128.032 55.4631 122.574 55.4833 129.316 55.4873C153.192 55.5155 153.34 39.7194 153.34 39.7194L121.672 39.7959H121.676Z" fill="#681D15"/>
<path d="M121.676 39.7959L125.665 52.0777C130.154 52.0535 121.676 52.0374 128.419 52.0415C152.294 52.0696 153.34 39.7194 153.34 39.7194L121.672 39.7959H121.676Z" fill="url(#paint9_radial_1440_47894)"/>
<path d="M127.727 58.4182L144.549 58.3498C144.549 58.3498 141.908 70.1606 129.602 74.1136L127.727 58.4222V58.4182Z" fill="#681D15"/>
<path d="M127.727 58.4182L144.549 58.3498C144.549 58.3498 144.03 66.751 131.724 70.704L127.727 58.4222V58.4182Z" fill="url(#paint10_radial_1440_47894)"/>
<path style="mix-blend-mode:screen" d="M115.625 21.1704L119.659 33.424C124.147 33.3999 124.884 33.3838 131.626 33.3878C155.502 33.416 156.504 21.0939 156.504 21.0939L115.625 21.1704Z" fill="url(#paint11_linear_1440_47894)"/>
<path style="mix-blend-mode:screen" d="M121.676 39.7959L125.665 52.0777C130.154 52.0535 121.676 52.0374 128.419 52.0415C152.294 52.0696 153.34 39.7194 153.34 39.7194L121.672 39.7959H121.676Z" fill="url(#paint12_linear_1440_47894)"/>
<path style="mix-blend-mode:screen" d="M127.727 58.4182L144.549 58.3498C144.549 58.3498 144.03 66.751 131.724 70.704L127.727 58.4222V58.4182Z" fill="url(#paint13_linear_1440_47894)"/>
<path d="M115.626 21.1701L113.613 25.0628L117.522 36.8575L119.66 33.4237L115.626 21.1701Z" fill="#9E2C19"/>
<path d="M121.673 39.7961L119.656 43.6525L123.541 55.4875L125.662 52.0779L121.673 39.7961Z" fill="#9E2C19"/>
<path d="M127.728 58.4221L125.711 62.2745L129.6 74.1094L131.717 70.6998L127.728 58.4221Z" fill="#9E2C19"/>
<path style="mix-blend-mode:screen" d="M43.8789 21.1704L3 21.0939C3 21.0939 4.00235 33.4159 27.8776 33.3878C34.6203 33.3797 35.3569 33.3998 39.8454 33.424L43.8789 21.1704Z" fill="url(#paint14_linear_1440_47894)"/>
<path style="mix-blend-mode:screen" d="M31.7835 58.4182L14.9609 58.3498C14.9609 58.3498 15.4802 66.751 27.7862 70.704L31.7835 58.4222V58.4182Z" fill="url(#paint15_linear_1440_47894)"/>
<path style="mix-blend-mode:screen" d="M33.8394 52.0779L36.1903 44.8361C32.9901 45.8827 29.9508 47.2594 27.1611 48.9662C26.0058 49.6747 24.6492 50.5442 23.1719 51.5224C25.4825 51.8565 28.1071 52.0457 31.086 52.0417C37.8287 52.0336 29.351 52.0538 33.8394 52.0779Z" fill="url(#paint16_linear_1440_47894)"/>
<g style="mix-blend-mode:multiply" opacity="0.35">
<path d="M37.6134 55.0849L48.0837 25.0627C49.1666 22.0154 49.9515 21.2143 53.184 21.0976L79.7483 20.7595H48.764L37.6094 55.0849H37.6134Z" fill="#9E2C19"/>
</g>
<g style="mix-blend-mode:screen">
<path d="M89.1126 25.4452C86.9469 23.8712 84.3384 23.7706 83.2837 25.2198C82.5269 26.2583 82.7805 27.8122 83.7829 29.1889H91.5481C91.4273 27.9209 90.5498 26.4878 89.1126 25.4452Z" fill="#FFF2BB"/>
</g>
<g style="mix-blend-mode:multiply" opacity="0.6">
<path d="M92.4687 69.7218L98.8773 58.6195V55.222L86.0601 58.6195L79.6515 47.5172L73.243 58.6195L60.4258 55.222V58.6195L66.8344 69.7218L60.4258 77.4226V80.8201H73.243L79.6515 91.9224L86.0601 80.8201H98.8773V77.4226L92.4687 69.7218Z" fill="#892334"/>
</g>
<path d="M92.4687 66.3243L98.8773 55.222V51.0717L86.0601 55.222L79.6515 44.1237L73.243 55.222L60.4258 51.0717V55.222L66.8344 66.3243L60.4258 73.2723V77.4226H73.243L79.6515 88.5249L86.0601 77.4226H98.8773V73.2723L92.4687 66.3243Z" fill="#9E2C19"/>
<path d="M92.4687 62.17L98.8773 51.0717H86.0601L79.6515 39.9694L73.243 51.0717H60.4258L66.8344 62.17L60.4258 73.2723H73.243L79.6515 84.3746L86.0601 73.2723H98.8773L92.4687 62.17Z" fill="url(#paint17_radial_1440_47894)"/>
<path d="M98.8797 73.2722H86.0625V77.4224H98.8797V73.2722Z" fill="#681D15"/>
<path d="M73.243 77.4226L79.6515 88.5249V84.3747L73.243 73.2723H60.4258V77.4226H73.243Z" fill="#681D15"/>
<path style="mix-blend-mode:screen" d="M75.2758 47.5494L73.243 51.0717H60.4258L66.8344 62.1741L60.4258 73.2764H73.243L79.6515 84.3787L86.0601 73.2764H98.8773L92.4687 62.1741L93.1853 60.9342C88.0527 55.053 81.8937 50.6088 75.2758 47.5494Z" fill="url(#paint18_linear_1440_47894)"/>
<path d="M60.4258 51.0717L66.8344 62.17L65.6348 64.2472L60.4258 55.222V51.0717Z" fill="#681D15"/>
<g style="mix-blend-mode:multiply" opacity="0.35">
<path d="M60.4258 51.0717L67.9535 60.6122C68.8109 61.7635 69.0725 62.1741 67.9535 63.7359L60.4258 73.2764L66.8344 62.1741L60.4258 51.0717Z" fill="#9E2C19"/>
</g>
<g style="mix-blend-mode:screen" opacity="0.8">
<path d="M79.6523 39.9694L85.8355 52.1626L98.8781 51.0717H86.0609L79.6523 39.9694Z" fill="#FFE67B"/>
</g>
<g style="mix-blend-mode:screen" opacity="0.5">
<path d="M60.4258 73.2723L74.4466 72.0607L79.6515 84.3747L73.243 73.2723H60.4258Z" fill="#FFE67B"/>
</g>
<g style="mix-blend-mode:multiply" opacity="0.35">
<path d="M79.6523 84.3746L84.656 72.1291C85.1995 70.9617 85.92 70.8329 86.7493 70.9899L98.8781 73.2764H86.0609L79.6523 84.3787V84.3746Z" fill="#9E2C19"/>
</g>
<path style="mix-blend-mode:screen" d="M95.6163 56.7197L98.877 51.072H88.6562C91.0554 52.8351 93.3822 54.7191 95.6123 56.7197H95.6163Z" fill="url(#paint19_linear_1440_47894)"/>
<path style="mix-blend-mode:screen" d="M84.3358 48.0808L79.6541 39.9694L77.3516 43.9547C79.7226 45.2187 82.0533 46.5954 84.3358 48.0768V48.0808Z" fill="url(#paint20_linear_1440_47894)"/>
<path d="M84.3237 61.7272C83.3294 63.4501 80.3828 63.6152 77.7461 62.0935C75.1094 60.5719 73.781 57.9392 74.7753 56.2163C75.7696 54.4934 78.7162 54.3283 81.3529 55.85C83.9896 57.3716 85.318 60.0043 84.3237 61.7272Z" fill="#FCE265"/>
<path d="M74.792 62.7818C74.474 63.3333 73.4234 63.3252 72.4492 62.7617C71.475 62.1981 70.9396 61.2964 71.2617 60.7409C71.5797 60.1894 72.6303 60.1974 73.6045 60.761C74.5787 61.3245 75.1141 62.2263 74.792 62.7818Z" fill="#FCE265"/>
<g style="mix-blend-mode:multiply" opacity="0.35">
<path fill-rule="evenodd" clip-rule="evenodd" d="M124.88 32.4898C122.158 32.2201 120.258 31.2338 119.018 28.7944L115.625 21.1701L119.659 33.4237C124.147 33.3996 124.884 33.3794 131.626 33.3875C135.43 33.3915 138.651 33.0815 141.384 32.5582C135.467 33.2707 129.392 32.9366 124.88 32.4858V32.4898Z" fill="#9E2C19"/>
</g>
<g style="mix-blend-mode:multiply" opacity="0.35">
<path fill-rule="evenodd" clip-rule="evenodd" d="M128.418 52.0417C134.195 52.0498 138.631 51.3292 142.045 50.2383C137.138 51.6029 133.02 51.5063 129.88 51.3171C127.722 51.1843 125.967 49.5982 125.053 47.6418L121.676 39.7961L125.665 52.0779C130.153 52.0538 121.676 52.0377 128.418 52.0417Z" fill="#9E2C19"/>
</g>
<g style="mix-blend-mode:multiply" opacity="0.35">
<path fill-rule="evenodd" clip-rule="evenodd" d="M131.72 70.6999C134.385 69.8425 136.494 68.7798 138.169 67.6365C136.188 68.3893 132.468 68.9327 132.468 68.9327L127.73 58.4182V58.4302L131.72 70.6999Z" fill="#9E2C19"/>
</g>
<g style="mix-blend-mode:multiply" opacity="0.35">
<path d="M27.8776 33.3878C34.6203 33.3797 35.3569 33.3998 39.8454 33.424L43.0416 23.7145L40.6666 29.0161C39.5273 31.8098 38.8511 32.7276 36.0614 32.7558C33.0543 32.7839 27.3905 32.7195 24.5163 32.6068C11.9809 32.1157 4.59812 26.6974 3 21.102C3 21.102 4.00235 33.424 27.8776 33.3958V33.3878Z" fill="#9E2C19"/>
</g>
<g style="mix-blend-mode:multiply" opacity="0.35">
<path d="M34.3748 48.455C33.618 50.045 32.8008 51.3775 31.0417 51.3131C29.2221 51.2487 24.1057 51.2124 21.1872 50.5523C14.4083 49.0226 10.3587 46.4986 7.61328 43.3989C9.91989 47.034 15.8575 52.0538 31.09 52.0377C37.8327 52.0296 29.355 52.0497 33.8434 52.0739L37.1443 41.9135L34.3748 48.455Z" fill="#9E2C19"/>
</g>
<g style="mix-blend-mode:multiply" opacity="0.35">
<path d="M27.7862 70.6996L31.2722 59.9878C30.6201 61.3524 29.3239 64.5125 28.0035 67.439C27.1059 69.4316 26.2525 69.178 24.8677 68.6024C18.0002 65.7443 16.4182 62.3387 14.9609 58.3454C14.9609 58.3454 15.4802 66.7466 27.7862 70.6996Z" fill="#9E2C19"/>
</g>
<path d="M115.625 21.1703L153.01 21.8104C154.511 21.8345 155.212 22.9616 154.56 24.3182C153.883 25.7312 152.788 27.4179 150.993 28.8751C156.154 25.3689 156.504 21.0978 156.504 21.0978L115.625 21.1743V21.1703Z" fill="#FFF5CC"/>
<path d="M121.676 39.7963L149.255 40.4444C152.475 40.5168 151.956 41.8815 151.114 43.5561C150.595 44.5906 149.887 45.7218 148.953 46.6638C153.03 43.3468 153.34 39.7238 153.34 39.7238L121.672 39.8003L121.676 39.7963Z" fill="#FFF5CC"/>
<path d="M141.655 64.5249C144.364 61.3005 144.545 58.3498 144.545 58.3498L127.751 58.4182H127.73L141.614 59.0059C143.667 59.1307 143.293 59.9036 143.056 60.8979C142.778 62.0452 142.323 63.3937 141.651 64.5209L141.655 64.5249Z" fill="#FFF5CC"/>
<g style="mix-blend-mode:screen" opacity="0.5">
<path d="M13.8672 21.0978L43.8813 21.1743L42.8709 24.2418C42.8709 22.6718 42.1262 21.8748 40.3147 21.8546L13.8672 21.0978Z" fill="#FFE67B"/>
</g>
<g style="mix-blend-mode:screen" opacity="0.5">
<path d="M13.8672 39.7961H37.831L36.728 43.1936L36.8447 42.0665C36.9051 40.9997 36.5267 40.4442 34.5864 40.3476L13.8712 39.7961H13.8672Z" fill="#FFE67B"/>
</g>
<g style="mix-blend-mode:screen" opacity="0.5">
<path d="M18.1954 58.3615L31.7774 58.4179L30.7429 61.5859L30.6785 60.1166C30.6423 59.2954 30.4168 59.0136 29.2977 58.9412L18.1914 58.3655L18.1954 58.3615Z" fill="#FFE67B"/>
</g>
<g style="mix-blend-mode:screen">
<path d="M119.658 33.4237C122.553 33.4076 123.889 33.3955 126.276 33.3915C130.511 30.7387 133.329 26.7977 133.728 22.2087C133.76 21.8504 133.768 21.4961 133.772 21.1379L115.629 21.1701L119.662 33.4237H119.658Z" fill="#FFF2BB"/>
</g>
<path style="mix-blend-mode:screen" d="M6.16406 39.7237C6.16406 39.7237 6.33716 41.7244 8.09227 44.1115C10.6968 42.6382 13.6032 41.1326 16.7028 39.7519L6.16406 39.7277V39.7237Z" fill="url(#paint21_linear_1440_47894)"/>
<path style="mix-blend-mode:color-dodge" opacity="0.5" d="M106.1 59.7625C122.603 59.7625 135.981 46.3842 135.981 29.8812C135.981 13.3783 122.603 0 106.1 0C89.597 0 76.2188 13.3783 76.2188 29.8812C76.2188 46.3842 89.597 59.7625 106.1 59.7625Z" fill="url(#paint22_radial_1440_47894)"/>
<path style="mix-blend-mode:color-dodge" opacity="0.5" d="M60.4251 120C73.3753 120 83.8736 109.502 83.8736 96.5515C83.8736 83.6013 73.3753 73.103 60.4251 73.103C47.4748 73.103 36.9766 83.6013 36.9766 96.5515C36.9766 109.502 47.4748 120 60.4251 120Z" fill="url(#paint23_radial_1440_47894)"/>
</g>
<defs>
<radialGradient id="paint0_radial_1440_47894" cx="0" cy="0" r="1" gradientUnits="userSpaceOnUse" gradientTransform="translate(106.536 23.9436) scale(79.5317 79.5317)">
<stop offset="0.01" stop-color="#E8B321"/>
<stop offset="1" stop-color="#E36C0B"/>
</radialGradient>
<radialGradient id="paint1_radial_1440_47894" cx="0" cy="0" r="1" gradientUnits="userSpaceOnUse" gradientTransform="translate(121.002 13.1152) scale(110.029 110.029)">
<stop offset="0.01" stop-color="#E8B321"/>
<stop offset="1" stop-color="#E36C0B"/>
</radialGradient>
<linearGradient id="paint2_linear_1440_47894" x1="125.752" y1="5.28557" x2="75.8798" y2="66.8032" gradientUnits="userSpaceOnUse">
<stop stop-color="#FFE969"/>
<stop offset="0.11" stop-color="#FEE366"/>
<stop offset="0.24" stop-color="#FBD45F"/>
<stop offset="0.38" stop-color="#F6BC54"/>
<stop offset="0.53" stop-color="#F09945"/>
<stop offset="0.69" stop-color="#E86D31"/>
<stop offset="0.85" stop-color="#DE3719"/>
<stop offset="1" stop-color="#D40000"/>
</linearGradient>
<linearGradient id="paint3_linear_1440_47894" x1="46.3392" y1="104.924" x2="89.9353" y2="50.2743" gradientUnits="userSpaceOnUse">
<stop stop-color="#D40000"/>
<stop offset="1" stop-color="#FFE447"/>
</linearGradient>
<linearGradient id="paint4_linear_1440_47894" x1="79.7461" y1="68.6106" x2="79.7461" y2="85.2239" gradientUnits="userSpaceOnUse">
<stop offset="0.63" stop-color="#F7D24A"/>
<stop offset="1" stop-color="#F7E399"/>
</linearGradient>
<radialGradient id="paint5_radial_1440_47894" cx="0" cy="0" r="1" gradientUnits="userSpaceOnUse" gradientTransform="translate(57.5656 8.31296) scale(88.267 88.267)">
<stop offset="0.01" stop-color="#E8B321"/>
<stop offset="1" stop-color="#E36C0B"/>
</radialGradient>
<radialGradient id="paint6_radial_1440_47894" cx="0" cy="0" r="1" gradientUnits="userSpaceOnUse" gradientTransform="translate(57.5656 8.31275) scale(88.267 88.267)">
<stop offset="0.01" stop-color="#E8B321"/>
<stop offset="1" stop-color="#E36C0B"/>
</radialGradient>
<radialGradient id="paint7_radial_1440_47894" cx="0" cy="0" r="1" gradientUnits="userSpaceOnUse" gradientTransform="translate(57.5668 8.31289) scale(88.267 88.267)">
<stop offset="0.01" stop-color="#E8B321"/>
<stop offset="1" stop-color="#E36C0B"/>
</radialGradient>
<radialGradient id="paint8_radial_1440_47894" cx="0" cy="0" r="1" gradientUnits="userSpaceOnUse" gradientTransform="translate(111.12 22.6478) scale(91.2217 91.2217)">
<stop offset="0.01" stop-color="#E8B321"/>
<stop offset="1" stop-color="#E36C0B"/>
</radialGradient>
<radialGradient id="paint9_radial_1440_47894" cx="0" cy="0" r="1" gradientUnits="userSpaceOnUse" gradientTransform="translate(111.121 22.6473) scale(91.2217 91.2218)">
<stop offset="0.01" stop-color="#E8B321"/>
<stop offset="1" stop-color="#E36C0B"/>
</radialGradient>
<radialGradient id="paint10_radial_1440_47894" cx="0" cy="0" r="1" gradientUnits="userSpaceOnUse" gradientTransform="translate(111.121 22.6477) scale(91.2218 91.2217)">
<stop offset="0.01" stop-color="#E8B321"/>
<stop offset="1" stop-color="#E36C0B"/>
</radialGradient>
<linearGradient id="paint11_linear_1440_47894" x1="141.231" y1="15.0034" x2="93.0017" y2="80.5505" gradientUnits="userSpaceOnUse">
<stop stop-color="#FFE969"/>
<stop offset="0.11" stop-color="#FEE366"/>
<stop offset="0.24" stop-color="#FBD45F"/>
<stop offset="0.38" stop-color="#F6BC54"/>
<stop offset="0.53" stop-color="#F09945"/>
<stop offset="0.69" stop-color="#E86D31"/>
<stop offset="0.85" stop-color="#DE3719"/>
<stop offset="1" stop-color="#D40000"/>
</linearGradient>
<linearGradient id="paint12_linear_1440_47894" x1="151.054" y1="22.2327" x2="102.829" y2="87.7798" gradientUnits="userSpaceOnUse">
<stop stop-color="#FFE969"/>
<stop offset="0.11" stop-color="#FEE366"/>
<stop offset="0.24" stop-color="#FBD45F"/>
<stop offset="0.38" stop-color="#F6BC54"/>
<stop offset="0.53" stop-color="#F09945"/>
<stop offset="0.69" stop-color="#E86D31"/>
<stop offset="0.85" stop-color="#DE3719"/>
<stop offset="1" stop-color="#D40000"/>
</linearGradient>
<linearGradient id="paint13_linear_1440_47894" x1="159.182" y1="28.2109" x2="110.952" y2="93.7581" gradientUnits="userSpaceOnUse">
<stop stop-color="#FFE969"/>
<stop offset="0.11" stop-color="#FEE366"/>
<stop offset="0.24" stop-color="#FBD45F"/>
<stop offset="0.38" stop-color="#F6BC54"/>
<stop offset="0.53" stop-color="#F09945"/>
<stop offset="0.69" stop-color="#E86D31"/>
<stop offset="0.85" stop-color="#DE3719"/>
<stop offset="1" stop-color="#D40000"/>
</linearGradient>
<linearGradient id="paint14_linear_1440_47894" x1="69.3522" y1="-37.8796" x2="21.1228" y2="27.6675" gradientUnits="userSpaceOnUse">
<stop stop-color="#FFE969"/>
<stop offset="0.11" stop-color="#FEE366"/>
<stop offset="0.24" stop-color="#FBD45F"/>
<stop offset="0.38" stop-color="#F6BC54"/>
<stop offset="0.53" stop-color="#F09945"/>
<stop offset="0.69" stop-color="#E86D31"/>
<stop offset="0.85" stop-color="#DE3719"/>
<stop offset="1" stop-color="#D40000"/>
</linearGradient>
<linearGradient id="paint15_linear_1440_47894" x1="9.07164" y1="83.0462" x2="46.4967" y2="26.7054" gradientUnits="userSpaceOnUse">
<stop stop-color="#D40000"/>
<stop offset="1" stop-color="#FFE447"/>
</linearGradient>
<linearGradient id="paint16_linear_1440_47894" x1="8.15276" y1="82.4382" x2="45.5818" y2="26.0974" gradientUnits="userSpaceOnUse">
<stop stop-color="#D40000"/>
<stop offset="1" stop-color="#FFE447"/>
</linearGradient>
<radialGradient id="paint17_radial_1440_47894" cx="0" cy="0" r="1" gradientUnits="userSpaceOnUse" gradientTransform="translate(113.458 22.4505) scale(90.791 90.791)">
<stop offset="0.01" stop-color="#E8B321"/>
<stop offset="1" stop-color="#E36C0B"/>
</radialGradient>
<linearGradient id="paint18_linear_1440_47894" x1="59.6247" y1="92.3773" x2="96.3533" y2="36.9825" gradientUnits="userSpaceOnUse">
<stop stop-color="#D40000"/>
<stop offset="1" stop-color="#FFE447"/>
</linearGradient>
<linearGradient id="paint19_linear_1440_47894" x1="119.914" y1="12.3266" x2="76.0162" y2="78.0226" gradientUnits="userSpaceOnUse">
<stop stop-color="#FFE969"/>
<stop offset="0.11" stop-color="#FEE366"/>
<stop offset="0.24" stop-color="#FBD45F"/>
<stop offset="0.38" stop-color="#F6BC54"/>
<stop offset="0.53" stop-color="#F09945"/>
<stop offset="0.69" stop-color="#E86D31"/>
<stop offset="0.85" stop-color="#DE3719"/>
<stop offset="1" stop-color="#D40000"/>
</linearGradient>
<linearGradient id="paint20_linear_1440_47894" x1="108.344" y1="4.59337" x2="64.4458" y2="70.2895" gradientUnits="userSpaceOnUse">
<stop stop-color="#FFE969"/>
<stop offset="0.11" stop-color="#FEE366"/>
<stop offset="0.24" stop-color="#FBD45F"/>
<stop offset="0.38" stop-color="#F6BC54"/>
<stop offset="0.53" stop-color="#F09945"/>
<stop offset="0.69" stop-color="#E86D31"/>
<stop offset="0.85" stop-color="#DE3719"/>
<stop offset="1" stop-color="#D40000"/>
</linearGradient>
<linearGradient id="paint21_linear_1440_47894" x1="68.8249" y1="-38.2703" x2="20.5955" y2="27.2809" gradientUnits="userSpaceOnUse">
<stop stop-color="#FFE969"/>
<stop offset="0.11" stop-color="#FEE366"/>
<stop offset="0.24" stop-color="#FBD45F"/>
<stop offset="0.38" stop-color="#F6BC54"/>
<stop offset="0.53" stop-color="#F09945"/>
<stop offset="0.69" stop-color="#E86D31"/>
<stop offset="0.85" stop-color="#DE3719"/>
<stop offset="1" stop-color="#D40000"/>
</linearGradient>
<radialGradient id="paint22_radial_1440_47894" cx="0" cy="0" r="1" gradientUnits="userSpaceOnUse" gradientTransform="translate(106.1 29.8812) scale(29.8812 29.8812)">
<stop stop-color="#F4A940"/>
<stop offset="0.09" stop-color="#E69F3C"/>
<stop offset="0.27" stop-color="#C28633"/>
<stop offset="0.51" stop-color="#885E23"/>
<stop offset="0.8" stop-color="#39270F"/>
<stop offset="1"/>
</radialGradient>
<radialGradient id="paint23_radial_1440_47894" cx="0" cy="0" r="1" gradientUnits="userSpaceOnUse" gradientTransform="translate(60.4251 96.5515) scale(23.4485 23.4485)">
<stop stop-color="#F4A940"/>
<stop offset="0.09" stop-color="#E69F3C"/>
<stop offset="0.27" stop-color="#C28633"/>
<stop offset="0.51" stop-color="#885E23"/>
<stop offset="0.8" stop-color="#39270F"/>
<stop offset="1"/>
</radialGradient>
<clipPath id="clip0_1440_47894">
<rect width="160" height="120" fill="white"/>
</clipPath>
</defs>
</svg>
