<svg width="160" height="120" viewBox="0 0 160 120" fill="none" xmlns="http://www.w3.org/2000/svg">
<g clip-path="url(#clip0_1686_99613)">
<path d="M79.9925 115.728L129.392 79.8388L110.523 21.7677H49.462L30.5977 79.8388L79.9925 115.728Z" fill="#54101A"/>
<path d="M112.29 19.341H47.6995L27.7422 80.768L79.997 118.733L132.252 80.768L112.295 19.341H112.29ZM38.0747 77.412L54.0887 28.1328H105.905L121.919 77.412L80.0018 107.866L38.0843 77.412H38.0747Z" fill="url(#paint0_radial_1686_99613)"/>
<g style="mix-blend-mode:multiply" opacity="0.3">
<path d="M54.0859 28.133L79.9943 107.866L105.903 28.133H54.0859Z" fill="#8C1919"/>
</g>
<path d="M112.29 19.341H47.6994L43.082 33.5494C45.9516 33.6842 48.9272 34.0453 51.9749 34.6231L54.0838 28.1328H105.9L121.914 77.4121L115.833 81.8272C117.201 84.485 118.414 87.2342 119.454 90.0653L132.247 80.768L112.29 19.341Z" fill="url(#paint1_radial_1686_99613)"/>
<path style="mix-blend-mode:screen" d="M112.29 19.341H47.6994L43.082 33.5494C45.9516 33.6842 48.9272 34.0453 51.9749 34.6231L54.0838 28.1328H105.9L121.914 77.4121L115.833 81.8272C117.201 84.485 118.414 87.2342 119.454 90.0653L132.247 80.768L112.29 19.341Z" fill="url(#paint2_linear_1686_99613)"/>
<path style="mix-blend-mode:screen" d="M108.749 97.8409C108.441 94.4176 107.935 91.1628 107.247 88.0669L80 107.865L38.0825 77.4118L49.5802 42.028C46.3158 42.1098 43.0995 42.4758 39.9844 43.1113L27.75 80.7725L80.0048 118.737L108.759 97.8457L108.749 97.8409Z" fill="url(#paint3_linear_1686_99613)"/>
<path d="M38.0781 77.4123L42.2188 76.483L56.6487 32.0715H103.342L117.772 76.483L121.918 77.4123L105.904 28.133H54.0873L38.0781 77.4123Z" fill="#9B1B2E"/>
<g style="mix-blend-mode:multiply" opacity="0.2">
<path d="M42.2188 76.483L50.2931 55.765C55.0742 43.4969 66.8897 38.1766 80.0533 38.1766C93.2747 38.1766 105.134 43.5691 109.871 55.9142L117.772 76.483L103.342 32.0714H56.6487L42.2188 76.483Z" fill="#2753A0"/>
</g>
<path d="M38.0781 77.4118L42.2188 76.4826L79.9956 103.927L117.772 76.4826L121.918 77.4118L79.9956 107.865L38.0781 77.4118Z" fill="url(#paint4_linear_1686_99613)"/>
<g style="mix-blend-mode:multiply" opacity="0.6">
<path d="M42.2188 76.483L57.0338 38.4655C57.7512 36.631 59.5183 35.4225 61.4875 35.4225H98.7202C100.699 35.4225 102.471 36.6407 103.179 38.4895L117.772 76.483L103.342 32.0714H56.6487L42.2188 76.483Z" fill="#2753A0"/>
</g>
<path d="M54.0859 28.133L56.6474 32.0715H103.341L105.903 28.133H54.0859Z" fill="#661625"/>
<g style="mix-blend-mode:multiply" opacity="0.35">
<path d="M34.897 58.7404L29.8944 77.4795C29.5044 79.0973 30.2699 81.2351 31.6036 82.2317L79.997 118.733L27.7422 80.768L34.9018 58.7404H34.897Z" fill="#9E2C19"/>
</g>
<g style="mix-blend-mode:multiply" opacity="0.6">
<path d="M42.2158 76.4826L78.2544 100.759C79.2077 101.404 80.7725 101.404 81.7259 100.759L117.764 76.4826L79.9877 103.927L42.2109 76.4826H42.2158Z" fill="#2753A0"/>
</g>
<g style="mix-blend-mode:multiply" opacity="0.35">
<path d="M79.9922 118.732L126.522 82.7901C129.777 80.3779 130.48 79.8531 129.016 75.2309L119.305 40.9352L132.247 80.7631L79.9922 118.728V118.732Z" fill="#9E2C19"/>
</g>
<path d="M56.8984 91.0909L79.9901 107.866L111.171 85.2121L79.9901 109.291L56.8984 91.0909Z" fill="#F3FEFF"/>
<path d="M78.2383 19.341H112.288L119.304 40.9401L110.984 20.5399L78.2383 19.341Z" fill="#F3FEFF"/>
<g style="mix-blend-mode:screen">
<path d="M91.7944 19.341C91.5103 22.1432 92.7333 25.2728 95.0877 28.1328H105.902L108.574 36.3612C111.964 37.1894 115.204 37.2183 117.857 36.4912L112.286 19.341H91.7896H91.7944Z" fill="white"/>
</g>
<g style="mix-blend-mode:screen">
<path d="M54.0942 89.0494C53.2757 91.1534 54.7586 94.2927 57.7342 96.4497C60.7097 98.6115 64.1475 99.0497 65.8952 97.6197L54.0942 89.0446V89.0494Z" fill="white"/>
</g>
<g style="mix-blend-mode:screen">
<path d="M65.9741 103.364C65.4781 104.129 64.0963 104.115 62.8926 103.33C61.6889 102.545 61.1208 101.293 61.6167 100.528C62.1126 99.7622 63.4945 99.7766 64.6982 100.561C65.9018 101.346 66.47 102.598 65.9741 103.364Z" fill="white"/>
</g>
<path d="M42.6108 19.7695L40.6319 36.1205C35.952 36.0964 32.0424 36.0772 25.0128 36.0868C0.129999 36.1157 0 19.6925 0 19.6925L42.6108 19.7695Z" fill="#661625"/>
<path d="M42.6108 19.7695L38.4075 32.5383C33.7275 32.5142 32.962 32.495 25.9324 32.5046C1.04481 32.5335 0 19.6925 0 19.6925L42.6108 19.7695Z" fill="url(#paint5_radial_1686_99613)"/>
<path d="M36.3022 39.1827L34.357 55.5385C29.6771 55.5144 35.3681 55.5337 28.3386 55.5385C3.45576 55.5674 3.29688 39.1056 3.29688 39.1056L36.3022 39.1827Z" fill="#661625"/>
<path style="mix-blend-mode:screen" d="M36.3022 39.1827L32.1422 51.9852C27.4623 51.9612 36.2974 51.9419 29.2726 51.9515C4.38983 51.9804 3.29688 39.1105 3.29688 39.1105L36.3022 39.1875V39.1827Z" fill="url(#paint6_linear_1686_99613)"/>
<path d="M29.9955 58.5909L12.4648 58.5187C12.4648 58.5187 15.2189 70.8301 28.0407 74.9468L29.9955 58.5909Z" fill="#661625"/>
<path d="M29.9955 58.5909L12.4648 58.5187C12.4648 58.5187 13.0089 67.2768 25.8307 71.3934L29.9955 58.5909Z" fill="url(#paint7_radial_1686_99613)"/>
<path d="M42.6096 19.7697L44.7088 23.8285L40.6307 36.1207L38.4062 32.5433L42.6096 19.7697Z" fill="#9B1B2E"/>
<path d="M36.3006 39.1828L38.4047 43.2031L34.3554 55.5386L32.1406 51.9853L36.3006 39.1828Z" fill="#9B1B2E"/>
<path d="M29.992 58.5959L32.0961 62.6114L28.0468 74.9517L25.832 71.3984L29.992 58.5959Z" fill="#9B1B2E"/>
<path d="M117.391 19.7696L119.37 36.1206C124.049 36.0966 127.959 36.0773 134.989 36.0869C159.871 36.1158 160.006 19.6974 160.006 19.6974L117.395 19.7745L117.391 19.7696Z" fill="#661625"/>
<path d="M117.391 19.7696L121.594 32.5384C126.274 32.5143 127.039 32.495 134.069 32.5047C158.952 32.5336 160.001 19.6925 160.001 19.6925L117.391 19.7696Z" fill="url(#paint8_radial_1686_99613)"/>
<path d="M123.695 39.1827L125.64 55.5385C130.32 55.5144 124.629 55.5337 131.659 55.5385C156.542 55.5674 156.701 39.1056 156.701 39.1056L123.695 39.1827Z" fill="#661625"/>
<path d="M123.695 39.1827L127.855 51.9852C132.535 51.9612 123.7 51.9419 130.725 51.9515C155.608 51.9804 156.701 39.1105 156.701 39.1105L123.695 39.1875V39.1827Z" fill="url(#paint9_radial_1686_99613)"/>
<path d="M130 58.5909L147.531 58.5187C147.531 58.5187 144.777 70.8301 131.955 74.9468L130 58.5909Z" fill="#661625"/>
<path d="M130 58.5909L147.531 58.5187C147.531 58.5187 146.987 67.2768 134.165 71.3934L130 58.5909Z" fill="url(#paint10_radial_1686_99613)"/>
<path style="mix-blend-mode:screen" d="M117.391 19.7696L121.594 32.5384C126.274 32.5143 127.039 32.495 134.069 32.5047C158.952 32.5336 160.001 19.6925 160.001 19.6925L117.391 19.7696Z" fill="url(#paint11_linear_1686_99613)"/>
<path style="mix-blend-mode:screen" d="M123.695 39.1827L127.855 51.9852C132.535 51.9612 123.7 51.9419 130.725 51.9515C155.608 51.9804 156.701 39.1105 156.701 39.1105L123.695 39.1875V39.1827Z" fill="url(#paint12_linear_1686_99613)"/>
<path style="mix-blend-mode:screen" d="M130 58.5909L147.531 58.5187C147.531 58.5187 146.987 67.2768 134.165 71.3934L130 58.5909Z" fill="url(#paint13_linear_1686_99613)"/>
<path d="M117.388 19.7697L115.289 23.8285L119.362 36.1207L121.592 32.5433L117.388 19.7697Z" fill="#9B1B2E"/>
<path d="M123.698 39.1828L121.594 43.2031L125.643 55.5386L127.853 51.9853L123.698 39.1828Z" fill="#9B1B2E"/>
<path d="M130.01 58.5959L127.906 62.6114L131.955 74.9517L134.165 71.3984L130.01 58.5959Z" fill="#9B1B2E"/>
<path style="mix-blend-mode:screen" d="M42.6108 19.7695L0 19.6925C0 19.6925 1.04481 32.5335 25.9324 32.5046C32.962 32.495 33.7275 32.5142 38.4075 32.5383L42.6108 19.7695Z" fill="url(#paint14_linear_1686_99613)"/>
<path style="mix-blend-mode:screen" d="M29.9955 58.5909L12.4648 58.5187C12.4648 58.5187 13.0089 67.2768 25.8307 71.3934L29.9955 58.5909Z" fill="url(#paint15_linear_1686_99613)"/>
<path style="mix-blend-mode:screen" d="M32.1417 51.9853L34.5924 44.4357C31.2558 45.5287 28.0924 46.9635 25.1795 48.7401C23.9758 49.4768 22.5603 50.3868 21.0195 51.4027C23.4269 51.7494 26.1617 51.9468 29.2673 51.9468C36.2968 51.9371 27.4569 51.9564 32.1369 51.9805L32.1417 51.9853Z" fill="url(#paint16_linear_1686_99613)"/>
<g style="mix-blend-mode:multiply" opacity="0.35">
<path d="M36.0742 55.1196L46.9893 23.8284C48.116 20.6506 48.9345 19.8176 52.3048 19.6925L79.9947 19.341H47.7019L36.079 55.1196H36.0742Z" fill="#9E2C19"/>
</g>
<g style="mix-blend-mode:screen">
<path d="M89.7541 24.2281C87.4959 22.5863 84.7756 22.4852 83.6778 23.9922C82.8882 25.0755 83.153 26.6933 84.1978 28.1281H92.2915C92.1663 26.804 91.2515 25.3162 89.7541 24.2233V24.2281Z" fill="white"/>
</g>
<g style="mix-blend-mode:multiply" opacity="0.6">
<path d="M93.2556 70.373L99.9337 58.8031V55.2642L86.5727 58.8031L79.8946 47.2332L73.2117 58.8031L59.8555 55.2642V58.8031L66.5336 70.373L59.8555 78.404V81.9429H73.2117L79.8946 93.5128L86.5727 81.9429H99.9337V78.404L93.2556 70.373Z" fill="#2753A0"/>
</g>
<path d="M93.2556 66.8341L99.9337 55.2642V50.9357L86.5727 55.2642L79.8946 43.6943L73.2117 55.2642L59.8555 50.9357V55.2642L66.5336 66.8341L59.8555 74.0756V78.404H73.2117L79.8946 89.974L86.5727 78.404H99.9337V74.0756L93.2556 66.8341Z" fill="#9B1B2E"/>
<path d="M93.2556 62.5057L99.9337 50.9357H86.5727L79.8946 39.3658L73.2117 50.9357H59.8555L66.5336 62.5057L59.8555 74.0756H73.2117L79.8946 85.6455L86.5727 74.0756H99.9337L93.2556 62.5057Z" fill="url(#paint17_radial_1686_99613)"/>
<path d="M99.9313 74.0754H86.5703V78.4038H99.9313V74.0754Z" fill="#661625"/>
<path d="M73.2117 78.4041L79.8946 89.974V85.6455L73.2117 74.0756H59.8555V78.4041H73.2117Z" fill="#661625"/>
<path style="mix-blend-mode:screen" d="M75.335 47.2621L73.2165 50.9309H59.8555L66.5336 62.5008L59.8555 74.0708H73.2165L79.8946 85.6407L86.5727 74.0708H99.9337L93.2556 62.5008L94.0019 61.2105C88.6527 55.0813 82.2298 50.4494 75.335 47.2621Z" fill="url(#paint18_linear_1686_99613)"/>
<path d="M59.8555 50.9357L66.5336 62.5057L65.2865 64.6675L59.8555 55.2642V50.9357Z" fill="#661625"/>
<g style="mix-blend-mode:multiply" opacity="0.35">
<path d="M59.8555 50.9357L67.7036 60.8783C68.5991 62.0771 68.8687 62.5056 67.7036 64.133L59.8555 74.0756L66.5336 62.5057L59.8555 50.9357Z" fill="#9E2C19"/>
</g>
<g style="mix-blend-mode:screen" opacity="0.8">
<path d="M79.8945 39.3658L86.3367 52.072L99.9336 50.9357H86.5726L79.8945 39.3658Z" fill="#F3FAFF"/>
</g>
<g style="mix-blend-mode:screen" opacity="0.5">
<path d="M59.8555 74.0756L74.4683 72.8141L79.8946 85.6455L73.2117 74.0756H59.8555Z" fill="#F3FAFF"/>
</g>
<g style="mix-blend-mode:multiply" opacity="0.35">
<path d="M79.8945 85.6455L85.1089 72.8815C85.6771 71.6634 86.4234 71.5285 87.29 71.6922L99.9336 74.0756H86.5726L79.8945 85.6455Z" fill="#9E2C19"/>
</g>
<path style="mix-blend-mode:screen" d="M96.5362 56.8242L99.9355 50.9357H89.2852C91.7888 52.7749 94.2107 54.7394 96.5362 56.8242Z" fill="url(#paint19_linear_1686_99613)"/>
<path style="mix-blend-mode:screen" d="M84.7721 47.8157L79.8899 39.361L77.4922 43.5161C79.9622 44.8354 82.3936 46.2654 84.7721 47.8157Z" fill="url(#paint20_linear_1686_99613)"/>
<g style="mix-blend-mode:screen" opacity="0.5">
<path d="M84.7626 62.0386C83.7226 63.8345 80.6556 64.0079 77.9063 62.419C75.1571 60.8301 73.7704 58.0905 74.8104 56.2898C75.8504 54.4939 78.9174 54.3205 81.6667 55.9094C84.4159 57.4983 85.8026 60.2379 84.7626 62.0386Z" fill="#FCE265"/>
</g>
<g style="mix-blend-mode:screen" opacity="0.5">
<path d="M74.8296 63.1412C74.4974 63.7142 73.4044 63.7093 72.3885 63.1219C71.3726 62.5345 70.8189 61.5908 71.1511 61.0179C71.4833 60.4449 72.5763 60.4497 73.5922 61.0371C74.6081 61.6245 75.1618 62.5682 74.8296 63.1412Z" fill="#FCE265"/>
</g>
<g style="mix-blend-mode:multiply" opacity="0.35">
<path fill-rule="evenodd" clip-rule="evenodd" d="M127.032 31.5703C124.196 31.2862 122.212 30.2607 120.922 27.7185L117.383 19.7741L121.586 32.5429C126.266 32.5188 127.032 32.4995 134.061 32.5092C138.024 32.5092 141.384 32.1914 144.23 31.6473C138.062 32.3888 131.731 32.0421 127.027 31.5751L127.032 31.5703Z" fill="#9E2C19"/>
</g>
<g style="mix-blend-mode:multiply" opacity="0.35">
<path fill-rule="evenodd" clip-rule="evenodd" d="M130.725 51.9468C136.743 51.9516 141.37 51.2053 144.924 50.0642C139.81 51.4845 135.516 51.3834 132.246 51.186C129.998 51.0512 128.168 49.3949 127.215 47.3583L123.695 39.1828L127.855 51.9805C132.535 51.9564 123.7 51.9371 130.725 51.9468Z" fill="#9E2C19"/>
</g>
<g style="mix-blend-mode:multiply" opacity="0.35">
<path fill-rule="evenodd" clip-rule="evenodd" d="M134.164 71.3984C136.942 70.5076 139.142 69.3954 140.885 68.2062C138.82 68.991 134.944 69.5591 134.944 69.5591L130.004 58.6007V58.6151L134.164 71.4032V71.3984Z" fill="#9E2C19"/>
</g>
<g style="mix-blend-mode:multiply" opacity="0.35">
<path d="M25.9324 32.5046C32.962 32.495 33.7275 32.5142 38.4075 32.5383L41.7393 22.4176L39.2645 27.9402C38.0753 30.8483 37.3723 31.8113 34.4642 31.8353C31.3298 31.8642 25.4269 31.7968 22.4273 31.6813C9.36475 31.1757 1.67073 25.528 0 19.6925C0 19.6925 1.04481 32.5335 25.9324 32.5046Z" fill="#9E2C19"/>
</g>
<g style="mix-blend-mode:multiply" opacity="0.35">
<path d="M32.6967 48.2105C31.9071 49.8667 31.0549 51.2582 29.2204 51.1908C27.3234 51.1234 21.9935 51.0849 18.9505 50.4012C11.8824 48.8027 7.66467 46.1738 4.80469 42.9479C7.20726 46.7371 13.3991 51.9708 29.2734 51.9515C36.303 51.9419 27.463 51.9612 32.143 51.9852L35.5856 41.3927L32.7015 48.2105H32.6967Z" fill="#9E2C19"/>
</g>
<g style="mix-blend-mode:multiply" opacity="0.35">
<path d="M25.8307 71.3983L29.461 60.2328C28.7773 61.658 27.4292 64.9465 26.057 67.999C25.1229 70.0742 24.2322 69.8142 22.7877 69.2124C15.6282 66.232 13.9815 62.6835 12.4648 58.5187C12.4648 58.5187 13.0089 67.2768 25.8307 71.3934V71.3983Z" fill="#9E2C19"/>
</g>
<path d="M117.391 19.7696L156.357 20.434C157.921 20.4629 158.648 21.6377 157.974 23.0484C157.267 24.5218 156.126 26.2792 154.257 27.8006C159.636 24.1462 160.001 19.6925 160.001 19.6925L117.391 19.7696Z" fill="#F3FEFF"/>
<path d="M123.695 39.1826L152.44 39.8567C155.8 39.9289 155.251 41.3541 154.38 43.1018C153.841 44.1803 153.104 45.36 152.127 46.3374C156.378 42.8803 156.701 39.1007 156.701 39.1007L123.695 39.1778V39.1826Z" fill="#F3FEFF"/>
<path d="M144.52 64.9561C147.341 61.5954 147.534 58.5187 147.534 58.5187L130.027 58.5909H130.008L144.481 59.2024C146.619 59.3324 146.234 60.1365 145.983 61.1765C145.694 62.3754 145.218 63.7765 144.52 64.9561Z" fill="#F3FEFF"/>
<g style="mix-blend-mode:screen" opacity="0.5">
<path d="M11.329 19.6925L42.6107 19.7695L41.5562 22.9665C41.5562 21.3295 40.7762 20.5013 38.8888 20.4821L11.3242 19.6925H11.329Z" fill="#F3FAFF"/>
</g>
<g style="mix-blend-mode:screen" opacity="0.5">
<path d="M11.329 39.1827H36.3033L35.1526 42.7216L35.2729 41.5468C35.3355 40.4345 34.9407 39.8519 32.9185 39.7557L11.3242 39.1827H11.329Z" fill="#F3FAFF"/>
</g>
<g style="mix-blend-mode:screen" opacity="0.5">
<path d="M15.8398 58.5333L30.0001 58.5911L28.9216 61.8892L28.8542 60.3581C28.8157 59.5011 28.5798 59.2122 27.4146 59.1303L15.8398 58.5285V58.5333Z" fill="#F3FAFF"/>
</g>
<g style="mix-blend-mode:screen">
<path d="M121.594 32.5433C124.608 32.5289 126.004 32.5144 128.489 32.5096C132.899 29.7411 135.841 25.6389 136.255 20.853C136.289 20.4775 136.298 20.1067 136.298 19.736L117.391 19.7697L121.594 32.5385V32.5433Z" fill="white"/>
</g>
<path style="mix-blend-mode:screen" d="M3.29778 39.1055C3.29778 39.1055 3.47593 41.1903 5.30555 43.6795C8.02108 42.1436 11.0496 40.574 14.2803 39.1344L3.29297 39.1103L3.29778 39.1055Z" fill="url(#paint21_linear_1686_99613)"/>
<path style="mix-blend-mode:color-dodge" opacity="0.5" d="M107.462 62.284C124.662 62.284 138.604 48.3413 138.604 31.142C138.604 13.9427 124.662 0 107.462 0C90.2631 0 76.3203 13.9427 76.3203 31.142C76.3203 48.3413 90.2631 62.284 107.462 62.284Z" fill="url(#paint22_radial_1686_99613)"/>
<path style="mix-blend-mode:color-dodge" opacity="0.5" d="M83.6693 99.791C86.7033 86.6386 78.5008 73.517 65.3485 70.483C52.1962 67.4489 39.0745 75.6514 36.0405 88.8038C33.0064 101.956 41.2089 115.078 54.3613 118.112C67.5136 121.146 80.6352 112.943 83.6693 99.791Z" fill="url(#paint23_radial_1686_99613)"/>
</g>
<defs>
<radialGradient id="paint0_radial_1686_99613" cx="0" cy="0" r="1" gradientUnits="userSpaceOnUse" gradientTransform="translate(107.913 22.6584) scale(82.8961 82.8961)">
<stop offset="0.01" stop-color="#E85621"/>
<stop offset="1" stop-color="#E33A0B"/>
</radialGradient>
<radialGradient id="paint1_radial_1686_99613" cx="0" cy="0" r="1" gradientUnits="userSpaceOnUse" gradientTransform="translate(122.993 11.3725) scale(114.678 114.678)">
<stop offset="0.01" stop-color="#E85621"/>
<stop offset="1" stop-color="#E33A0B"/>
</radialGradient>
<linearGradient id="paint2_linear_1686_99613" x1="127.943" y1="3.21627" x2="75.967" y2="67.3347" gradientUnits="userSpaceOnUse">
<stop stop-color="#FF6987"/>
<stop offset="0.13" stop-color="#FD6593"/>
<stop offset="0.29" stop-color="#F95C5F"/>
<stop offset="0.47" stop-color="#F34CA0"/>
<stop offset="0.65" stop-color="#EA3538"/>
<stop offset="0.85" stop-color="#DE196E"/>
<stop offset="1" stop-color="#5B0000"/>
</linearGradient>
<linearGradient id="paint3_linear_1686_99613" x1="104.848" y1="24.5388" x2="47.2581" y2="84.0488" gradientUnits="userSpaceOnUse">
<stop stop-color="#FF6987"/>
<stop offset="0.13" stop-color="#FD6593"/>
<stop offset="0.29" stop-color="#F95C5F"/>
<stop offset="0.47" stop-color="#F34CA0"/>
<stop offset="0.65" stop-color="#EA3538"/>
<stop offset="0.85" stop-color="#DE196E"/>
<stop offset="1" stop-color="#5B0000"/>
</linearGradient>
<linearGradient id="paint4_linear_1686_99613" x1="79.9956" y1="69.2171" x2="79.9956" y2="86.531" gradientUnits="userSpaceOnUse">
<stop offset="0.63" stop-color="#F7814A"/>
<stop offset="1" stop-color="#F7E399"/>
</linearGradient>
<radialGradient id="paint5_radial_1686_99613" cx="0" cy="0" r="1" gradientUnits="userSpaceOnUse" gradientTransform="translate(56.8722 6.36996) scale(92.0008 92.0008)">
<stop offset="0.01" stop-color="#E85621"/>
<stop offset="1" stop-color="#E33A0B"/>
</radialGradient>
<linearGradient id="paint6_linear_1686_99613" x1="34.7089" y1="36.1751" x2="28.0555" y2="52.8648" gradientUnits="userSpaceOnUse">
<stop stop-color="#FF6987"/>
<stop offset="0.13" stop-color="#FD6593"/>
<stop offset="0.29" stop-color="#F95C5F"/>
<stop offset="0.47" stop-color="#F34CA0"/>
<stop offset="0.65" stop-color="#EA3538"/>
<stop offset="0.85" stop-color="#DE196E"/>
<stop offset="1" stop-color="#5B0000"/>
</linearGradient>
<radialGradient id="paint7_radial_1686_99613" cx="0" cy="0" r="1" gradientUnits="userSpaceOnUse" gradientTransform="translate(56.8716 6.36983) scale(92.0008)">
<stop offset="0.01" stop-color="#E85621"/>
<stop offset="1" stop-color="#E33A0B"/>
</radialGradient>
<radialGradient id="paint8_radial_1686_99613" cx="0" cy="0" r="1" gradientUnits="userSpaceOnUse" gradientTransform="translate(112.691 21.3103) scale(95.0775)">
<stop offset="0.01" stop-color="#E85621"/>
<stop offset="1" stop-color="#E33A0B"/>
</radialGradient>
<radialGradient id="paint9_radial_1686_99613" cx="0" cy="0" r="1" gradientUnits="userSpaceOnUse" gradientTransform="translate(112.689 21.3103) scale(95.0775 95.0775)">
<stop offset="0.01" stop-color="#E85621"/>
<stop offset="1" stop-color="#E33A0B"/>
</radialGradient>
<radialGradient id="paint10_radial_1686_99613" cx="0" cy="0" r="1" gradientUnits="userSpaceOnUse" gradientTransform="translate(112.691 21.3101) scale(95.0775 95.0775)">
<stop offset="0.01" stop-color="#E85621"/>
<stop offset="1" stop-color="#E33A0B"/>
</radialGradient>
<linearGradient id="paint11_linear_1686_99613" x1="157.944" y1="16.7638" x2="152.514" y2="34.3893" gradientUnits="userSpaceOnUse">
<stop stop-color="#FF6987"/>
<stop offset="0.13" stop-color="#FD6593"/>
<stop offset="0.29" stop-color="#F95C5F"/>
<stop offset="0.47" stop-color="#F34CA0"/>
<stop offset="0.65" stop-color="#EA3538"/>
<stop offset="0.85" stop-color="#DE196E"/>
<stop offset="1" stop-color="#5B0000"/>
</linearGradient>
<linearGradient id="paint12_linear_1686_99613" x1="155.107" y1="36.1751" x2="148.454" y2="52.8648" gradientUnits="userSpaceOnUse">
<stop stop-color="#FF6987"/>
<stop offset="0.13" stop-color="#FD6593"/>
<stop offset="0.29" stop-color="#F95C5F"/>
<stop offset="0.47" stop-color="#F34CA0"/>
<stop offset="0.65" stop-color="#EA3538"/>
<stop offset="0.85" stop-color="#DE196E"/>
<stop offset="1" stop-color="#5B0000"/>
</linearGradient>
<linearGradient id="paint13_linear_1686_99613" x1="146.684" y1="55.5834" x2="137.398" y2="67.9557" gradientUnits="userSpaceOnUse">
<stop stop-color="#FF6987"/>
<stop offset="0.13" stop-color="#FD6593"/>
<stop offset="0.29" stop-color="#F95C5F"/>
<stop offset="0.47" stop-color="#F34CA0"/>
<stop offset="0.65" stop-color="#EA3538"/>
<stop offset="0.85" stop-color="#DE196E"/>
<stop offset="1" stop-color="#5B0000"/>
</linearGradient>
<linearGradient id="paint14_linear_1686_99613" x1="40.5538" y1="16.7637" x2="35.1235" y2="34.3892" gradientUnits="userSpaceOnUse">
<stop stop-color="#FF6987"/>
<stop offset="0.13" stop-color="#FD6593"/>
<stop offset="0.29" stop-color="#F95C5F"/>
<stop offset="0.47" stop-color="#F34CA0"/>
<stop offset="0.65" stop-color="#EA3538"/>
<stop offset="0.85" stop-color="#DE196E"/>
<stop offset="1" stop-color="#5B0000"/>
</linearGradient>
<linearGradient id="paint15_linear_1686_99613" x1="29.1492" y1="55.5834" x2="19.8631" y2="67.9557" gradientUnits="userSpaceOnUse">
<stop stop-color="#FF6987"/>
<stop offset="0.13" stop-color="#FD6593"/>
<stop offset="0.29" stop-color="#F95C5F"/>
<stop offset="0.47" stop-color="#F34CA0"/>
<stop offset="0.65" stop-color="#EA3538"/>
<stop offset="0.85" stop-color="#DE196E"/>
<stop offset="1" stop-color="#5B0000"/>
</linearGradient>
<linearGradient id="paint16_linear_1686_99613" x1="5.37149" y1="83.628" x2="44.3809" y2="24.9069" gradientUnits="userSpaceOnUse">
<stop stop-color="#D40000"/>
<stop offset="1" stop-color="#FFAF47"/>
</linearGradient>
<radialGradient id="paint17_radial_1686_99613" cx="0" cy="0" r="1" gradientUnits="userSpaceOnUse" gradientTransform="translate(115.129 21.1033) scale(94.6297 94.6297)">
<stop offset="0.01" stop-color="#E85621"/>
<stop offset="1" stop-color="#E33A0B"/>
</radialGradient>
<linearGradient id="paint18_linear_1686_99613" x1="97.9989" y1="38.512" x2="69.1771" y2="67.9629" gradientUnits="userSpaceOnUse">
<stop stop-color="#FF6987"/>
<stop offset="0.13" stop-color="#FD6593"/>
<stop offset="0.29" stop-color="#F95C5F"/>
<stop offset="0.47" stop-color="#F34CA0"/>
<stop offset="0.65" stop-color="#EA3538"/>
<stop offset="0.85" stop-color="#DE196E"/>
<stop offset="1" stop-color="#5B0000"/>
</linearGradient>
<linearGradient id="paint19_linear_1686_99613" x1="121.862" y1="10.5541" x2="76.1071" y2="79.0299" gradientUnits="userSpaceOnUse">
<stop stop-color="#FFA369"/>
<stop offset="0.13" stop-color="#FD9D65"/>
<stop offset="0.29" stop-color="#F98E5C"/>
<stop offset="0.47" stop-color="#F3764C"/>
<stop offset="0.65" stop-color="#EA5335"/>
<stop offset="0.85" stop-color="#DE2819"/>
<stop offset="1" stop-color="#D40000"/>
</linearGradient>
<linearGradient id="paint20_linear_1686_99613" x1="109.795" y1="2.49422" x2="64.0397" y2="70.9701" gradientUnits="userSpaceOnUse">
<stop stop-color="#FFA369"/>
<stop offset="0.13" stop-color="#FD9D65"/>
<stop offset="0.29" stop-color="#F98E5C"/>
<stop offset="0.47" stop-color="#F3764C"/>
<stop offset="0.65" stop-color="#EA5335"/>
<stop offset="0.85" stop-color="#DE2819"/>
<stop offset="1" stop-color="#D40000"/>
</linearGradient>
<linearGradient id="paint21_linear_1686_99613" x1="68.6103" y1="-42.1825" x2="18.3392" y2="26.1393" gradientUnits="userSpaceOnUse">
<stop stop-color="#FFA369"/>
<stop offset="0.13" stop-color="#FD9D65"/>
<stop offset="0.29" stop-color="#F98E5C"/>
<stop offset="0.47" stop-color="#F3764C"/>
<stop offset="0.65" stop-color="#EA5335"/>
<stop offset="0.85" stop-color="#DE2819"/>
<stop offset="1" stop-color="#D40000"/>
</linearGradient>
<radialGradient id="paint22_radial_1686_99613" cx="0" cy="0" r="1" gradientUnits="userSpaceOnUse" gradientTransform="translate(107.462 31.142) scale(31.142)">
<stop stop-color="#F4A940"/>
<stop offset="0.09" stop-color="#E69F3C"/>
<stop offset="0.27" stop-color="#C28633"/>
<stop offset="0.51" stop-color="#885E23"/>
<stop offset="0.8" stop-color="#39270F"/>
<stop offset="1"/>
</radialGradient>
<radialGradient id="paint23_radial_1686_99613" cx="0" cy="0" r="1" gradientUnits="userSpaceOnUse" gradientTransform="translate(59.8471 94.3019) scale(24.4398)">
<stop stop-color="#F44043"/>
<stop offset="0.09" stop-color="#E63C3F"/>
<stop offset="0.27" stop-color="#C23335"/>
<stop offset="0.51" stop-color="#882325"/>
<stop offset="0.8" stop-color="#39270F"/>
<stop offset="1"/>
</radialGradient>
<clipPath id="clip0_1686_99613">
<rect width="160" height="120" fill="white"/>
</clipPath>
</defs>
</svg>
