<svg width="160" height="120" viewBox="0 0 160 120" fill="none" xmlns="http://www.w3.org/2000/svg">
<g clip-path="url(#clip0_1440_47890)">
<path d="M79.9955 115.882L129.391 79.992L110.526 21.9192H49.4653L30.5938 79.992L79.9955 115.882Z" fill="#31414C"/>
<path d="M112.287 19.489H47.6947L27.7344 80.9188L79.9876 118.882L132.241 80.9188L112.281 19.489H112.287ZM38.071 77.5619L54.0846 28.2832H105.904L121.917 77.5619L80.0006 108.021L38.0774 77.5619H38.071Z" fill="url(#paint0_radial_1440_47890)"/>
<g style="mix-blend-mode:multiply" opacity="0.2">
<path d="M54.0859 28.2835L79.9955 108.021L105.905 28.2835H54.0859Z" fill="#0C363D"/>
</g>
<path d="M112.292 19.489H47.7001L43.0859 33.701C45.9569 33.8307 48.9315 34.1936 51.9773 34.7768L54.09 28.2832H105.909L121.923 77.5619L115.844 81.9816C117.211 84.6387 118.423 87.3865 119.46 90.2185L132.253 80.9253L112.292 19.4955V19.489Z" fill="url(#paint1_radial_1440_47890)"/>
<path style="mix-blend-mode:screen" d="M112.292 19.489H47.7001L43.0859 33.701C45.9569 33.8307 48.9315 34.1936 51.9773 34.7768L54.09 28.2832H105.909L121.923 77.5619L115.844 81.9816C117.211 84.6387 118.423 87.3865 119.46 90.2185L132.253 80.9253L112.292 19.4955V19.489Z" fill="url(#paint2_linear_1440_47890)"/>
<path style="mix-blend-mode:screen" d="M108.745 97.9953C108.44 94.5735 107.928 91.3137 107.241 88.2225L79.9902 108.021L38.0671 77.5619L49.5637 42.1777C46.2974 42.2555 43.0831 42.6249 39.9659 43.26L27.7305 80.9188L79.9837 118.882L108.738 97.9888L108.745 97.9953Z" fill="url(#paint3_linear_1440_47890)"/>
<path d="M38.0742 77.5621L42.2153 76.6354L56.6477 32.2237H103.341L117.773 76.6354L121.914 77.5621L105.9 28.2835H54.0878L38.0742 77.5621Z" fill="#455A82"/>
<g style="mix-blend-mode:multiply" opacity="0.2">
<path d="M42.2174 76.6351L50.2923 55.9166C55.075 43.6488 66.8891 38.3282 80.0578 38.3282C93.2782 38.3282 105.138 43.72 109.875 56.0656L117.775 76.6351L103.343 32.2234H56.6433L42.2109 76.6351H42.2174Z" fill="#2753A0"/>
</g>
<path d="M38.0742 77.5618L42.2153 76.635L79.9973 104.08L117.773 76.635L121.914 77.5618L79.9973 108.021L38.0742 77.5618Z" fill="url(#paint4_linear_1440_47890)"/>
<g style="mix-blend-mode:multiply" opacity="0.6">
<path d="M42.2161 76.6351L57.0308 38.6198C57.7436 36.7858 59.5129 35.5739 61.483 35.5739H98.7141C100.691 35.5739 102.466 36.7923 103.173 38.6392L117.767 76.6351L103.335 32.2234H56.6355L42.2031 76.6351H42.2161Z" fill="#2753A0"/>
</g>
<path d="M54.0859 28.2835L56.6458 32.2237H103.339L105.898 28.2835H54.0859Z" fill="#2E3E54"/>
<g style="mix-blend-mode:multiply" opacity="0.35">
<path d="M34.8968 58.8914L29.8938 77.6333C29.5049 79.247 30.2696 81.3921 31.6046 82.3901L79.9954 118.889L27.7422 80.9255L34.9033 58.8979L34.8968 58.8914Z" fill="#455A82"/>
</g>
<g style="mix-blend-mode:multiply" opacity="0.6">
<path d="M42.2148 76.6351L78.2536 100.912C79.2062 101.553 80.7745 101.553 81.7272 100.912L117.766 76.6351L79.9904 104.081L42.2148 76.6351Z" fill="#2753A0"/>
</g>
<g style="mix-blend-mode:multiply" opacity="0.35">
<path d="M79.9961 118.889L126.527 82.9473C129.78 80.5365 130.487 80.0116 129.022 75.3909L119.314 41.0955L132.256 80.9254L80.0026 118.889H79.9961Z" fill="#455A82"/>
</g>
<path d="M56.8984 91.2424L79.9954 108.021L111.174 85.3645L79.9954 109.447L56.8984 91.2424Z" fill="#F3FEFF"/>
<path d="M78.2422 19.489H112.291L119.31 41.0954L110.989 20.688L78.2422 19.489Z" fill="#F3FEFF"/>
<g style="mix-blend-mode:screen">
<path d="M91.7907 19.489C91.5056 22.2887 92.7304 25.4188 95.0893 28.2832H105.905L108.582 36.5136C111.971 37.3431 115.212 37.3691 117.869 36.6432L112.295 19.4955H91.7972L91.7907 19.489Z" fill="white"/>
</g>
<g style="mix-blend-mode:screen">
<path d="M54.0938 89.201C53.2772 91.3073 54.7548 94.4439 57.7294 96.6019C60.704 98.76 64.1452 99.2006 65.8885 97.7749L54.0873 89.201H54.0938Z" fill="white"/>
</g>
<g style="mix-blend-mode:screen">
<path d="M65.9731 103.517C65.4741 104.282 64.0937 104.269 62.8948 103.484C61.6894 102.7 61.1191 101.443 61.6181 100.678C62.1171 99.9136 63.4975 99.9266 64.6964 100.711C65.9018 101.495 66.4721 102.752 65.9731 103.517Z" fill="white"/>
</g>
<path d="M42.6101 19.9232L40.6335 36.2738C35.9545 36.2479 32.0467 36.2285 25.0152 36.235C0.12961 36.2674 0 19.8455 0 19.8455L42.6101 19.9232Z" fill="#2E3E54"/>
<path d="M42.6101 19.9232L38.4041 32.6965C33.7251 32.6706 32.9539 32.6512 25.929 32.6577C1.04338 32.6901 0 19.8455 0 19.8455L42.6101 19.9232Z" fill="url(#paint5_radial_1440_47890)"/>
<path d="M36.304 39.3326L34.3598 55.6832C29.6808 55.6572 35.3708 55.6832 28.3458 55.6832C3.46022 55.7156 3.30469 39.2483 3.30469 39.2483L36.3105 39.3261L36.304 39.3326Z" fill="#2E3E54"/>
<path d="M36.3052 39.3326L32.1447 52.1318C27.4657 52.1059 36.3052 52.0864 29.2738 52.0929C4.38819 52.1253 3.29297 39.2483 3.29297 39.2483L36.2988 39.3261L36.3052 39.3326Z" fill="url(#paint6_radial_1440_47890)"/>
<path d="M29.9988 58.7422L12.4688 58.6709C12.4688 58.6709 15.223 70.984 28.0482 75.0992L30.0053 58.7422H29.9988Z" fill="#2E3E54"/>
<path d="M29.9988 58.7422L12.4688 58.6709C12.4688 58.6709 13.0131 67.4262 25.8383 71.5479L30.0053 58.7422H29.9988Z" fill="url(#paint7_radial_1440_47890)"/>
<path d="M42.6083 19.9231L44.708 23.98L40.6317 36.2737L38.4023 32.6899L42.6083 19.9231Z" fill="#455A82"/>
<path d="M36.3051 39.3328L38.4048 43.3508L34.3544 55.6899L32.1445 52.1385L36.3051 39.3328Z" fill="#455A82"/>
<path d="M29.9926 58.7488L32.0923 62.7668L28.0419 75.0994L25.832 71.548L29.9926 58.7488Z" fill="#455A82"/>
<path d="M117.391 19.9233L119.367 36.2739C124.046 36.2479 127.954 36.2285 134.986 36.235C159.871 36.2674 160.001 19.8455 160.001 19.8455L117.391 19.9233Z" fill="#2E3E54"/>
<path d="M117.391 19.9233L121.597 32.6966C126.276 32.6706 127.047 32.6512 134.072 32.6577C158.957 32.6901 160.001 19.8455 160.001 19.8455L117.391 19.9233Z" fill="url(#paint8_radial_1440_47890)"/>
<path d="M123.695 39.3326L125.639 55.6832C130.319 55.6572 124.629 55.6832 131.66 55.6832C156.546 55.7156 156.701 39.2483 156.701 39.2483L123.695 39.3261V39.3326Z" fill="#2E3E54"/>
<path d="M123.695 39.3326L127.856 52.1318C132.535 52.1059 123.695 52.0864 130.727 52.0929C155.612 52.1253 156.708 39.2483 156.708 39.2483L123.702 39.3261L123.695 39.3326Z" fill="url(#paint9_radial_1440_47890)"/>
<path d="M129.999 58.742L147.529 58.6707C147.529 58.6707 144.774 70.9839 131.949 75.0991L129.992 58.742H129.999Z" fill="#2E3E54"/>
<path d="M129.999 58.742L147.529 58.6707C147.529 58.6707 146.984 67.426 134.159 71.5477L129.992 58.742H129.999Z" fill="url(#paint10_radial_1440_47890)"/>
<path style="mix-blend-mode:screen" d="M117.391 19.9233L121.597 32.6966C126.276 32.6706 127.047 32.6512 134.072 32.6577C158.957 32.6901 160.001 19.8455 160.001 19.8455L117.391 19.9233Z" fill="url(#paint11_linear_1440_47890)"/>
<path style="mix-blend-mode:screen" d="M123.695 39.3326L127.856 52.1318C132.535 52.1059 123.695 52.0864 130.727 52.0929C155.612 52.1253 156.708 39.2483 156.708 39.2483L123.702 39.3261L123.695 39.3326Z" fill="url(#paint12_linear_1440_47890)"/>
<path style="mix-blend-mode:screen" d="M129.999 58.742L147.529 58.6707C147.529 58.6707 146.984 67.426 134.159 71.5477L129.992 58.742H129.999Z" fill="url(#paint13_linear_1440_47890)"/>
<path d="M117.389 19.9231L115.289 23.98L119.365 36.2737L121.595 32.6899L117.389 19.9231Z" fill="#455A82"/>
<path d="M123.697 39.3328L121.598 43.3508L125.648 55.6899L127.858 52.1385L123.697 39.3328Z" fill="#455A82"/>
<path d="M130.006 58.7488L127.906 62.7668L131.957 75.0994L134.167 71.548L130.006 58.7488Z" fill="#455A82"/>
<path style="mix-blend-mode:screen" d="M42.6101 19.9232L0 19.8455C0 19.8455 1.04338 32.6901 25.929 32.6577C32.9604 32.6512 33.7251 32.6706 38.4041 32.6965L42.6101 19.9232Z" fill="url(#paint14_linear_1440_47890)"/>
<path style="mix-blend-mode:screen" d="M29.9988 58.7422L12.4688 58.6709C12.4688 58.6709 13.0131 67.4262 25.8383 71.5479L30.0053 58.7422H29.9988Z" fill="url(#paint15_linear_1440_47890)"/>
<path style="mix-blend-mode:screen" d="M32.1442 52.1386L34.5939 44.5887C31.2563 45.6774 28.0938 47.1161 25.184 48.8983C23.9786 49.6371 22.5658 50.5443 21.0234 51.5618C23.4342 51.9118 26.169 52.1062 29.2733 52.1062C36.3047 52.0997 27.4652 52.1191 32.1442 52.1451V52.1386Z" fill="url(#paint16_linear_1440_47890)"/>
<g style="mix-blend-mode:multiply" opacity="0.35">
<path d="M36.0781 55.2685L46.9915 23.9736C48.1191 20.7981 48.9422 19.9621 52.3056 19.839L79.9973 19.489H47.7044L36.0781 55.2685Z" fill="#455A82"/>
</g>
<g style="mix-blend-mode:screen">
<path d="M89.7583 24.382C87.503 22.7424 84.7812 22.6387 83.6795 24.1487C82.8953 25.2309 83.1545 26.8511 84.1979 28.2833H92.2922C92.1691 26.9613 91.2553 25.4707 89.7518 24.382H89.7583Z" fill="white"/>
</g>
<g style="mix-blend-mode:multiply" opacity="0.6">
<path d="M93.2566 70.5237L99.9381 58.9558V55.4174L86.5751 58.9558L79.9 47.3814L73.2185 58.9558L59.8555 55.4174V58.9558L66.537 70.5237L59.8555 78.5532V82.0981H73.2185L79.9 93.666L86.5751 82.0981H99.9381V78.5532L93.2566 70.5237Z" fill="#2753A0"/>
</g>
<path d="M93.2566 66.9853L99.9381 55.4174V51.0883L86.5751 55.4174L79.9 43.843L73.2185 55.4174L59.8555 51.0883V55.4174L66.537 66.9853L59.8555 74.2306V78.5532H73.2185L79.9 90.1276L86.5751 78.5532H99.9381V74.2306L93.2566 66.9853Z" fill="#455A82"/>
<path d="M93.2566 62.6562L99.9381 51.0883H86.5751L79.9 39.5139L73.2185 51.0883H59.8555L66.537 62.6562L59.8555 74.2306H73.2185L79.9 85.7985L86.5751 74.2306H99.9381L93.2566 62.6562Z" fill="url(#paint17_radial_1440_47890)"/>
<path d="M99.9373 74.2307H86.5742V78.5598H99.9373V74.2307Z" fill="#2E3E54"/>
<path d="M73.2185 78.5532L79.9 90.1276V85.7985L73.2185 74.2306H59.8555V78.5532H73.2185Z" fill="#2E3E54"/>
<path style="mix-blend-mode:screen" d="M75.3377 47.4138L73.2185 51.0818H59.8555L66.537 62.6498L59.8555 74.2177H73.2185L79.9 85.7856L86.5815 74.2177H99.9446L93.2631 62.6498L94.0083 61.3601C88.6553 55.2294 82.2395 50.5958 75.3441 47.4138H75.3377Z" fill="url(#paint18_linear_1440_47890)"/>
<path d="M59.8555 51.0883L66.537 62.6562L65.2862 64.8208L59.8555 55.4174V51.0883Z" fill="#2E3E54"/>
<g style="mix-blend-mode:multiply" opacity="0.35">
<path d="M59.8555 51.0883L67.7035 61.0296C68.5978 62.2285 68.87 62.6562 67.7035 64.2829L59.8555 74.2241L66.537 62.6562L59.8555 51.0883Z" fill="#455A82"/>
</g>
<g style="mix-blend-mode:screen" opacity="0.8">
<path d="M79.8984 39.5139L86.3402 52.2224L99.9365 51.0883H86.5735L79.8984 39.5139Z" fill="#F3FAFF"/>
</g>
<g style="mix-blend-mode:screen" opacity="0.5">
<path d="M59.8555 74.2306L74.4757 72.9669L79.9 85.7985L73.2185 74.2306H59.8555Z" fill="#F3FAFF"/>
</g>
<g style="mix-blend-mode:multiply" opacity="0.35">
<path d="M79.8984 85.7984L85.1153 73.0316C85.6856 71.8132 86.4309 71.6771 87.2993 71.8456L99.943 74.2305H86.58L79.8984 85.7984Z" fill="#455A82"/>
</g>
<path style="mix-blend-mode:screen" d="M96.5331 56.9727L99.9354 51.0818H89.2812C91.7828 52.9223 94.2065 54.8859 96.5331 56.9727Z" fill="url(#paint19_linear_1440_47890)"/>
<path style="mix-blend-mode:screen" d="M84.7816 47.971L79.9017 39.5203L77.5039 43.6744C79.973 44.9899 82.4033 46.4286 84.7816 47.971Z" fill="url(#paint20_linear_1440_47890)"/>
<path opacity="0.5" d="M84.7669 62.1896C83.73 63.9848 80.6582 64.1597 77.9104 62.572C75.1626 60.9842 73.7758 58.2429 74.8127 56.4413C75.8496 54.6462 78.9214 54.4712 81.6691 56.059C84.4169 57.6467 85.8038 60.388 84.7669 62.1896Z" fill="#E6FAFF"/>
<path opacity="0.5" d="M74.834 63.2915C74.5035 63.8683 73.4083 63.8553 72.3908 63.2721C71.3734 62.6823 70.8161 61.7427 71.153 61.1659C71.4836 60.5891 72.5788 60.6021 73.5962 61.1853C74.6137 61.7751 75.171 62.7148 74.834 63.2915Z" fill="#E6FAFF"/>
<g style="mix-blend-mode:multiply" opacity="0.35">
<path fill-rule="evenodd" clip-rule="evenodd" d="M127.04 31.7179C124.202 31.4327 122.225 30.4088 120.929 27.8684L117.391 19.9231L121.597 32.6964C126.276 32.6705 127.047 32.6511 134.072 32.6575C138.038 32.6575 141.395 32.34 144.24 31.7956C138.07 32.5409 131.739 32.1909 127.04 31.7243V31.7179Z" fill="#455A82"/>
</g>
<g style="mix-blend-mode:multiply" opacity="0.35">
<path fill-rule="evenodd" clip-rule="evenodd" d="M130.728 52.0996C136.749 52.1061 141.376 51.3543 144.927 50.2202C139.814 51.6395 135.517 51.5423 132.251 51.3414C130.002 51.2053 128.175 49.5527 127.222 47.5113L123.703 39.3328L127.864 52.132C132.543 52.1061 123.703 52.0867 130.735 52.0931L130.728 52.0996Z" fill="#455A82"/>
</g>
<g style="mix-blend-mode:multiply" opacity="0.35">
<path fill-rule="evenodd" clip-rule="evenodd" d="M134.168 71.5478C136.949 70.6535 139.145 69.5453 140.889 68.3529C138.821 69.1371 134.946 69.7074 134.946 69.7074L130.008 58.7486V58.7616L134.168 71.5478Z" fill="#455A82"/>
</g>
<g style="mix-blend-mode:multiply" opacity="0.35">
<path d="M25.929 32.6577C32.9604 32.6512 33.7251 32.6706 38.4041 32.6965L41.7352 22.5738L39.2596 28.0953C38.0736 31.0051 37.3673 31.9642 34.4639 31.9902C31.3338 32.0161 25.43 31.9513 22.4294 31.8346C9.3645 31.3226 1.672 25.678 0 19.8455C0 19.8455 1.04338 32.6901 25.929 32.6577Z" fill="#455A82"/>
</g>
<g style="mix-blend-mode:multiply" opacity="0.35">
<path d="M32.7012 48.3602C31.9105 50.0192 31.0616 51.4061 29.2276 51.3413C27.3287 51.2765 22.0017 51.2376 18.9558 50.5506C11.8854 48.9564 7.66655 46.3253 4.80859 43.0979C7.2129 46.8891 13.4019 52.119 29.2794 52.0995C36.3109 52.093 27.4713 52.1125 32.1503 52.1384L35.5915 41.5491L32.7077 48.3667L32.7012 48.3602Z" fill="#455A82"/>
</g>
<g style="mix-blend-mode:multiply" opacity="0.35">
<path d="M25.8305 71.5478L29.4596 60.3817C28.7791 61.8074 27.4247 65.0996 26.0508 68.1455C25.1176 70.2193 24.2233 69.9601 22.7846 69.3574C15.6235 66.3763 13.9774 62.8314 12.4609 58.6643C12.4609 58.6643 13.0053 67.4197 25.8305 71.5413V71.5478Z" fill="#455A82"/>
</g>
<path d="M117.391 19.9233L156.359 20.5908C157.927 20.6167 158.653 21.7897 157.972 23.2025C157.266 24.6736 156.125 26.4363 154.259 27.9527C159.638 24.2977 160.001 19.8455 160.001 19.8455L117.391 19.9233Z" fill="#F3FEFF"/>
<path d="M123.695 39.3391L152.443 40.0131C155.8 40.0844 155.256 41.5101 154.381 43.2599C153.843 44.3357 153.104 45.5152 152.126 46.5002C156.377 43.0396 156.701 39.2679 156.701 39.2679L123.695 39.3456V39.3391Z" fill="#F3FEFF"/>
<path d="M144.518 65.1061C147.337 61.7427 147.531 58.6709 147.531 58.6709L130.027 58.7422H130.008L144.479 59.3578C146.618 59.4874 146.229 60.291 145.983 61.3279C145.697 62.5268 145.218 63.9331 144.518 65.1061Z" fill="#F3FEFF"/>
<g style="mix-blend-mode:screen" opacity="0.5">
<path d="M11.3281 19.8455L42.6101 19.9232L41.5602 23.1182C41.5602 21.4786 40.7825 20.6491 38.8967 20.6296L11.3281 19.839V19.8455Z" fill="#F3FAFF"/>
</g>
<g style="mix-blend-mode:screen" opacity="0.5">
<path d="M11.3281 39.3327H36.3044L35.1574 42.8711L35.2805 41.6981C35.3453 40.5899 34.95 40.0067 32.928 39.9095L11.3346 39.3327H11.3281Z" fill="#F3FAFF"/>
</g>
<g style="mix-blend-mode:screen" opacity="0.5">
<path d="M15.8359 58.684L29.9961 58.7423L28.9203 62.041L28.8555 60.5051C28.8166 59.6496 28.5833 59.358 27.4168 59.2802L15.8424 58.6775L15.8359 58.684Z" fill="#F3FAFF"/>
</g>
<g style="mix-blend-mode:screen">
<path d="M121.597 32.6903C124.61 32.6773 126.003 32.6579 128.492 32.6579C132.905 29.8906 135.841 25.7819 136.256 20.9992C136.288 20.6233 136.301 20.2539 136.301 19.8846L117.391 19.917L121.597 32.6903Z" fill="white"/>
</g>
<path style="mix-blend-mode:screen" d="M3.29688 39.2549C3.29688 39.2549 3.47833 41.3416 5.30587 43.8237C8.02125 42.2878 11.0477 40.7195 14.2815 39.2808L3.29688 39.2549Z" fill="url(#paint21_linear_1440_47890)"/>
<path style="mix-blend-mode:color-dodge" opacity="0.5" d="M107.462 62.4426C124.664 62.4426 138.608 48.4981 138.608 31.2967C138.608 14.0954 124.664 0.150879 107.462 0.150879C90.2609 0.150879 76.3164 14.0954 76.3164 31.2967C76.3164 48.4981 90.2609 62.4426 107.462 62.4426Z" fill="url(#paint22_radial_1440_47890)"/>
<path style="mix-blend-mode:color-dodge" opacity="0.5" d="M84.2149 96.4626C85.3208 83.011 75.3127 71.2099 61.8611 70.1039C48.4096 68.998 36.6084 79.0062 35.5024 92.4577C34.3965 105.909 44.4047 117.71 57.8562 118.816C71.3078 119.922 83.109 109.914 84.2149 96.4626Z" fill="url(#paint23_radial_1440_47890)"/>
</g>
<defs>
<radialGradient id="paint0_radial_1440_47890" cx="0" cy="0" r="1" gradientUnits="userSpaceOnUse" gradientTransform="translate(107.913 22.8136) scale(82.8936 82.8936)">
<stop offset="0.01" stop-color="#5C6CBA"/>
<stop offset="1" stop-color="#81B3D4"/>
</radialGradient>
<radialGradient id="paint1_radial_1440_47890" cx="0" cy="0" r="1" gradientUnits="userSpaceOnUse" gradientTransform="translate(122.998 11.5244) scale(114.681 114.681)">
<stop offset="0.01" stop-color="#5C6CBA"/>
<stop offset="1" stop-color="#81B3D4"/>
</radialGradient>
<linearGradient id="paint2_linear_1440_47890" x1="127.95" y1="3.36526" x2="75.9686" y2="67.4845" gradientUnits="userSpaceOnUse">
<stop stop-color="#9CD3DE"/>
<stop offset="0.19" stop-color="#98CDDA"/>
<stop offset="0.41" stop-color="#8CBED0"/>
<stop offset="0.66" stop-color="#79A6C0"/>
<stop offset="0.93" stop-color="#5F84AA"/>
<stop offset="1" stop-color="#5779A3"/>
</linearGradient>
<linearGradient id="paint3_linear_1440_47890" x1="45.1698" y1="107.217" x2="90.6119" y2="50.259" gradientUnits="userSpaceOnUse">
<stop stop-color="#42495E"/>
<stop offset="1" stop-color="#4A5780"/>
</linearGradient>
<linearGradient id="paint4_linear_1440_47890" x1="79.9973" y1="69.3703" x2="79.9973" y2="86.6865" gradientUnits="userSpaceOnUse">
<stop stop-color="#B4E6F7"/>
<stop offset="0.23" stop-color="#CCEEF9"/>
<stop offset="0.51" stop-color="#E3F7FC"/>
<stop offset="0.77" stop-color="#F2FCFE"/>
<stop offset="1" stop-color="#F7FEFF"/>
</linearGradient>
<radialGradient id="paint5_radial_1440_47890" cx="0" cy="0" r="1" gradientUnits="userSpaceOnUse" gradientTransform="translate(56.8739 6.52132) scale(92.0053 92.0054)">
<stop offset="0.01" stop-color="#5C6CBA"/>
<stop offset="1" stop-color="#81B3D4"/>
</radialGradient>
<radialGradient id="paint6_radial_1440_47890" cx="0" cy="0" r="1" gradientUnits="userSpaceOnUse" gradientTransform="translate(56.8747 6.5212) scale(92.0054 92.0053)">
<stop offset="0.01" stop-color="#5C6CBA"/>
<stop offset="1" stop-color="#81B3D4"/>
</radialGradient>
<radialGradient id="paint7_radial_1440_47890" cx="0" cy="0" r="1" gradientUnits="userSpaceOnUse" gradientTransform="translate(56.8739 6.52134) scale(92.0053 92.0053)">
<stop offset="0.01" stop-color="#5C6CBA"/>
<stop offset="1" stop-color="#81B3D4"/>
</radialGradient>
<radialGradient id="paint8_radial_1440_47890" cx="0" cy="0" r="1" gradientUnits="userSpaceOnUse" gradientTransform="translate(112.692 21.4592) scale(95.0836 95.0837)">
<stop offset="0.01" stop-color="#5C6CBA"/>
<stop offset="1" stop-color="#81B3D4"/>
</radialGradient>
<radialGradient id="paint9_radial_1440_47890" cx="0" cy="0" r="1" gradientUnits="userSpaceOnUse" gradientTransform="translate(112.691 21.459) scale(95.0772 95.0771)">
<stop offset="0.01" stop-color="#5C6CBA"/>
<stop offset="1" stop-color="#81B3D4"/>
</radialGradient>
<radialGradient id="paint10_radial_1440_47890" cx="0" cy="0" r="1" gradientUnits="userSpaceOnUse" gradientTransform="translate(112.689 21.459) scale(95.0836 95.0836)">
<stop offset="0.01" stop-color="#5C6CBA"/>
<stop offset="1" stop-color="#81B3D4"/>
</radialGradient>
<linearGradient id="paint11_linear_1440_47890" x1="144.078" y1="13.4945" x2="93.8076" y2="81.8132" gradientUnits="userSpaceOnUse">
<stop stop-color="#9CD3DE"/>
<stop offset="0.19" stop-color="#98CDDA"/>
<stop offset="0.41" stop-color="#8CBED0"/>
<stop offset="0.66" stop-color="#79A6C0"/>
<stop offset="0.93" stop-color="#5F84AA"/>
<stop offset="1" stop-color="#5779A3"/>
</linearGradient>
<linearGradient id="paint12_linear_1440_47890" x1="154.316" y1="21.0313" x2="104.053" y2="89.35" gradientUnits="userSpaceOnUse">
<stop stop-color="#9CD3DE"/>
<stop offset="0.19" stop-color="#98CDDA"/>
<stop offset="0.41" stop-color="#8CBED0"/>
<stop offset="0.66" stop-color="#79A6C0"/>
<stop offset="0.93" stop-color="#5F84AA"/>
<stop offset="1" stop-color="#5779A3"/>
</linearGradient>
<linearGradient id="paint13_linear_1440_47890" x1="162.784" y1="27.2591" x2="112.514" y2="95.5843" gradientUnits="userSpaceOnUse">
<stop stop-color="#9CD3DE"/>
<stop offset="0.19" stop-color="#98CDDA"/>
<stop offset="0.41" stop-color="#8CBED0"/>
<stop offset="0.66" stop-color="#79A6C0"/>
<stop offset="0.93" stop-color="#5F84AA"/>
<stop offset="1" stop-color="#5779A3"/>
</linearGradient>
<linearGradient id="paint14_linear_1440_47890" x1="69.1612" y1="-41.6297" x2="18.891" y2="26.6955" gradientUnits="userSpaceOnUse">
<stop stop-color="#9CD3DE"/>
<stop offset="0.19" stop-color="#98CDDA"/>
<stop offset="0.41" stop-color="#8CBED0"/>
<stop offset="0.66" stop-color="#79A6C0"/>
<stop offset="0.93" stop-color="#5F84AA"/>
<stop offset="1" stop-color="#5779A3"/>
</linearGradient>
<linearGradient id="paint15_linear_1440_47890" x1="6.32512" y1="84.4119" x2="45.3384" y2="25.691" gradientUnits="userSpaceOnUse">
<stop stop-color="#42495E"/>
<stop offset="1" stop-color="#4A5780"/>
</linearGradient>
<linearGradient id="paint16_linear_1440_47890" x1="5.37274" y1="83.7834" x2="44.3861" y2="25.0561" gradientUnits="userSpaceOnUse">
<stop stop-color="#42495E"/>
<stop offset="1" stop-color="#4A5780"/>
</linearGradient>
<radialGradient id="paint17_radial_1440_47890" cx="0" cy="0" r="1" gradientUnits="userSpaceOnUse" gradientTransform="translate(115.135 21.2516) scale(94.63 94.63)">
<stop offset="0.01" stop-color="#5C6CBA"/>
<stop offset="1" stop-color="#81B3D4"/>
</radialGradient>
<linearGradient id="paint18_linear_1440_47890" x1="59.0195" y1="94.1391" x2="97.307" y2="36.4032" gradientUnits="userSpaceOnUse">
<stop stop-color="#42495E"/>
<stop offset="1" stop-color="#4A5780"/>
</linearGradient>
<linearGradient id="paint19_linear_1440_47890" x1="121.859" y1="10.7011" x2="76.1061" y2="79.1818" gradientUnits="userSpaceOnUse">
<stop stop-color="#9CD3DE"/>
<stop offset="0.19" stop-color="#98CDDA"/>
<stop offset="0.41" stop-color="#8CBED0"/>
<stop offset="0.66" stop-color="#79A6C0"/>
<stop offset="0.93" stop-color="#5F84AA"/>
<stop offset="1" stop-color="#5779A3"/>
</linearGradient>
<linearGradient id="paint20_linear_1440_47890" x1="109.803" y1="2.64557" x2="64.0437" y2="71.1198" gradientUnits="userSpaceOnUse">
<stop stop-color="#9CD3DE"/>
<stop offset="0.19" stop-color="#98CDDA"/>
<stop offset="0.41" stop-color="#8CBED0"/>
<stop offset="0.66" stop-color="#79A6C0"/>
<stop offset="0.93" stop-color="#5F84AA"/>
<stop offset="1" stop-color="#5779A3"/>
</linearGradient>
<linearGradient id="paint21_linear_1440_47890" x1="68.6086" y1="-42.0315" x2="18.3384" y2="26.2872" gradientUnits="userSpaceOnUse">
<stop stop-color="#9CD3DE"/>
<stop offset="0.19" stop-color="#98CDDA"/>
<stop offset="0.41" stop-color="#8CBED0"/>
<stop offset="0.66" stop-color="#79A6C0"/>
<stop offset="0.93" stop-color="#5F84AA"/>
<stop offset="1" stop-color="#5779A3"/>
</linearGradient>
<radialGradient id="paint22_radial_1440_47890" cx="0" cy="0" r="1" gradientUnits="userSpaceOnUse" gradientTransform="translate(107.462 31.2967) scale(31.1459)">
<stop stop-color="#40C4F4"/>
<stop offset="0.09" stop-color="#3CB9E6"/>
<stop offset="0.27" stop-color="#339CC2"/>
<stop offset="0.51" stop-color="#236D88"/>
<stop offset="0.8" stop-color="#0F2E39"/>
<stop offset="1"/>
</radialGradient>
<radialGradient id="paint23_radial_1440_47890" cx="0" cy="0" r="1" gradientUnits="userSpaceOnUse" gradientTransform="translate(59.8482 94.4611) scale(24.4384)">
<stop stop-color="#40C4F4"/>
<stop offset="0.09" stop-color="#3CB9E6"/>
<stop offset="0.27" stop-color="#339CC2"/>
<stop offset="0.51" stop-color="#236D88"/>
<stop offset="0.8" stop-color="#0F2E39"/>
<stop offset="1"/>
</radialGradient>
<clipPath id="clip0_1440_47890">
<rect width="160" height="120" fill="white"/>
</clipPath>
</defs>
</svg>
