<svg width="160" height="120" viewBox="0 0 160 120" fill="none" xmlns="http://www.w3.org/2000/svg">
<g clip-path="url(#clip0_1440_47889)">
<path d="M79.9967 116.947L129.393 80.6801L110.522 21.9986H49.4649L30.5938 80.6801L79.9967 116.947Z" fill="#391054"/>
<path d="M112.285 19.5419H47.6984L27.7422 81.6168L79.9951 119.979L132.248 81.6168L112.292 19.5419H112.285ZM38.0705 78.2234L54.085 28.4246H105.898L121.913 78.2234L79.9951 109.001L38.0774 78.2234H38.0705Z" fill="url(#paint0_radial_1440_47889)"/>
<g style="mix-blend-mode:multiply" opacity="0.3">
<path d="M54.0859 28.4247L79.9961 109.001L105.899 28.4247H54.0859Z" fill="#0C363D"/>
</g>
<path d="M112.287 19.542H47.7007L43.0859 33.9001C45.9564 34.0319 48.93 34.3997 51.979 34.9827L54.0873 28.4247H105.901L121.915 78.2235L115.838 82.6856C117.204 85.3713 118.42 88.1471 119.457 91.0062L132.25 81.61L112.294 19.535L112.287 19.542Z" fill="url(#paint1_radial_1440_47889)"/>
<path style="mix-blend-mode:soft-light" d="M112.287 19.542H47.7007L43.0859 33.9001C45.9564 34.0319 48.93 34.3997 51.979 34.9827L54.0873 28.4247H105.901L121.915 78.2235L115.838 82.6856C117.204 85.3713 118.42 88.1471 119.457 91.0062L132.25 81.61L112.294 19.535L112.287 19.542Z" fill="url(#paint2_radial_1440_47889)"/>
<path style="mix-blend-mode:screen" d="M108.748 98.8759C108.439 95.4199 107.931 92.1236 107.244 89.0008L79.9951 109.008L38.0774 78.2305L49.5732 42.4706C46.3112 42.5539 43.0905 42.9217 39.9796 43.5671L27.7422 81.624L79.9951 119.986L108.748 98.8759Z" fill="url(#paint3_radial_1440_47889)"/>
<path d="M38.0703 78.2234L42.2113 77.2866L56.6462 32.408H103.337L117.772 77.2866L121.913 78.2234L105.898 28.4247H54.0847L38.0703 78.2234Z" fill="#4B0EA7"/>
<g style="mix-blend-mode:multiply" opacity="0.2">
<path d="M42.2148 77.2866L50.2907 56.3498C55.0703 43.9556 66.8889 38.5774 80.0534 38.5774C93.2728 38.5774 105.133 44.025 109.871 56.5025L117.768 77.2866L103.34 32.4081H56.6429L42.2148 77.2866Z" fill="#2753A0"/>
</g>
<path d="M38.0703 78.2233L42.2113 77.2865L79.9949 105.024L117.772 77.2865L121.913 78.2233L79.9949 109.001L38.0703 78.2233Z" fill="url(#paint4_linear_1440_47889)"/>
<g style="mix-blend-mode:multiply" opacity="0.6">
<path d="M42.2148 77.2866L57.0275 38.8689C57.7417 37.016 59.5134 35.7946 61.4775 35.7946H98.7117C100.689 35.7946 102.461 37.0229 103.175 38.8897L117.768 77.2866L103.34 32.4081H56.6429L42.2148 77.2866Z" fill="#2753A0"/>
</g>
<path d="M54.0859 28.4247L56.6474 32.408H103.338L105.899 28.4247H54.0859Z" fill="#200968"/>
<g style="mix-blend-mode:multiply" opacity="0.6">
<path d="M34.8979 59.3544L29.8916 78.2926C29.5002 79.9234 30.2693 82.0886 31.6016 83.0948L79.9951 119.979L27.7422 81.6167L34.8979 59.3544Z" fill="#612CB7"/>
</g>
<g style="mix-blend-mode:multiply" opacity="0.6">
<path d="M42.2148 77.2865L78.2542 101.818C79.2087 102.47 80.7744 102.47 81.729 101.818L117.768 77.2865L79.9916 105.024L42.2148 77.2865Z" fill="#2753A0"/>
</g>
<g style="mix-blend-mode:multiply" opacity="0.6">
<path d="M79.9961 119.986L126.529 83.664C129.784 81.2282 130.484 80.6938 129.021 76.0304L119.311 41.3739L132.249 81.6237L79.9961 119.986Z" fill="#612CB7"/>
</g>
<g style="mix-blend-mode:screen" opacity="0.5">
<path d="M56.9023 92.0471L79.9969 109.001L111.174 86.1068L79.9969 110.444L56.9023 92.0471Z" fill="#E6ADFF"/>
</g>
<g style="mix-blend-mode:screen" opacity="0.5">
<path d="M78.2383 19.5419H112.286L119.304 41.3739L110.988 20.7563L78.2383 19.5419Z" fill="#E6ADFF"/>
</g>
<g style="mix-blend-mode:screen">
<path d="M91.7937 19.5419C91.5122 22.3733 92.7346 25.5377 95.09 28.4246H105.906L108.577 36.7452C111.963 37.5849 115.204 37.6127 117.862 36.8771L112.292 19.5488H91.7937V19.5419Z" fill="white"/>
</g>
<g style="mix-blend-mode:screen">
<path d="M54.0936 89.9862C53.2764 92.1097 54.7597 95.2811 57.7332 97.4671C60.7067 99.6531 64.1472 100.09 65.8984 98.6469L54.1004 89.9862H54.0936Z" fill="white"/>
</g>
<g style="mix-blend-mode:screen">
<path d="M65.9733 104.455C65.472 105.226 64.0986 105.212 62.8968 104.421C61.695 103.629 61.1251 102.359 61.6195 101.589C62.1208 100.819 63.4943 100.833 64.696 101.624C65.8978 102.415 66.4678 103.685 65.9733 104.455Z" fill="white"/>
</g>
<path d="M42.6113 19.9792L40.6335 36.5024C35.95 36.4816 32.0426 36.4608 25.0174 36.4677C0.130477 36.4955 0 19.9028 0 19.9028L42.6113 19.9792Z" fill="#200968"/>
<path d="M42.6113 19.9792L38.4085 32.8869C33.7251 32.8661 32.9628 32.8452 25.9307 32.8522C1.04382 32.8799 0 19.9028 0 19.9028L42.6113 19.9792Z" fill="url(#paint5_radial_1440_47889)"/>
<path d="M36.2999 39.5973L34.3496 56.1206C29.6662 56.0998 35.3591 56.1206 28.3339 56.1206C3.44701 56.1483 3.28906 39.5141 3.28906 39.5141L36.2931 39.5904L36.2999 39.5973Z" fill="#200968"/>
<path d="M36.3009 39.5977L32.1462 52.5332C27.4627 52.5124 36.3009 52.4915 29.2757 52.4985C4.38877 52.5262 3.29688 39.5214 3.29688 39.5214L36.3009 39.5977Z" fill="url(#paint6_radial_1440_47889)"/>
<path d="M29.9969 59.209L12.4648 59.1327C12.4648 59.1327 15.2186 71.5754 28.0398 75.7323L29.9969 59.2021V59.209Z" fill="#200968"/>
<path d="M29.9969 59.209L12.4648 59.1327C12.4648 59.1327 13.0074 67.9807 25.8285 72.1445L29.9969 59.209Z" fill="url(#paint7_radial_1440_47889)"/>
<path d="M42.609 19.9794L44.7035 24.0807L40.6312 36.5026L38.4062 32.8871L42.609 19.9794Z" fill="#4B0EA7"/>
<path d="M36.3031 39.5975L38.4114 43.6572L34.3597 56.1208L32.1484 52.533L36.3031 39.5975Z" fill="#4B0EA7"/>
<path d="M29.9906 59.2157L32.092 63.2754L28.0472 75.7389L25.8359 72.1512L29.9906 59.2157Z" fill="#4B0EA7"/>
<path d="M117.391 19.9791L119.368 36.5023C124.052 36.4815 127.959 36.4607 134.985 36.4676C159.871 36.4954 160.002 19.9027 160.002 19.9027L117.391 19.9791Z" fill="#200968"/>
<path d="M117.391 19.9791L121.593 32.8868C126.277 32.8659 127.039 32.8451 134.071 32.8521C158.958 32.8798 160.002 19.9027 160.002 19.9027L117.391 19.9791Z" fill="url(#paint8_radial_1440_47889)"/>
<path d="M123.695 39.5973L125.646 56.1206C130.329 56.0998 124.636 56.1206 131.661 56.1206C156.548 56.1483 156.706 39.5141 156.706 39.5141L123.702 39.5904L123.695 39.5973Z" fill="#200968"/>
<path d="M123.695 39.5977L127.85 52.5332C132.533 52.5124 123.695 52.4915 130.721 52.4985C155.607 52.5262 156.699 39.5214 156.699 39.5214L123.695 39.5977Z" fill="url(#paint9_radial_1440_47889)"/>
<path d="M129.996 59.209L147.528 59.1327C147.528 59.1327 144.774 71.5754 131.953 75.7323L129.996 59.2021V59.209Z" fill="#200968"/>
<path d="M129.996 59.209L147.528 59.1327C147.528 59.1327 146.986 67.9807 134.165 72.1445L129.996 59.209Z" fill="url(#paint10_radial_1440_47889)"/>
<path style="mix-blend-mode:soft-light" d="M117.391 19.9791L121.593 32.8868C126.277 32.8659 127.039 32.8451 134.071 32.8521C158.958 32.8798 160.002 19.9027 160.002 19.9027L117.391 19.9791Z" fill="url(#paint11_radial_1440_47889)"/>
<path style="mix-blend-mode:soft-light" d="M123.695 39.5977L127.85 52.5332C132.533 52.5124 123.695 52.4915 130.721 52.4985C155.607 52.5262 156.699 39.5214 156.699 39.5214L123.695 39.5977Z" fill="url(#paint12_radial_1440_47889)"/>
<path style="mix-blend-mode:soft-light" d="M129.996 59.209L147.528 59.1327C147.528 59.1327 146.986 67.9807 134.165 72.1445L129.996 59.209Z" fill="url(#paint13_radial_1440_47889)"/>
<path d="M117.39 19.9794L115.289 24.0807L119.368 36.5026L121.593 32.8871L117.39 19.9794Z" fill="#4B0EA7"/>
<path d="M123.695 39.5975L121.594 43.6572L125.645 56.1208L127.857 52.533L123.695 39.5975Z" fill="#4B0EA7"/>
<path d="M130.011 59.2158L127.902 63.2755L131.954 75.7391L134.165 72.1513L130.011 59.2158Z" fill="#4B0EA7"/>
<path style="mix-blend-mode:soft-light" d="M42.6113 19.9792L0 19.9028C0 19.9028 1.04382 32.8799 25.9307 32.8522C32.9559 32.8452 33.7251 32.8661 38.4085 32.8869L42.6113 19.9792Z" fill="url(#paint14_radial_1440_47889)"/>
<path style="mix-blend-mode:screen" d="M29.9969 59.209L12.4648 59.1327C12.4648 59.1327 13.0074 67.9807 25.8285 72.1445L29.9969 59.209Z" fill="url(#paint15_radial_1440_47889)"/>
<path style="mix-blend-mode:screen" d="M32.1484 52.5328L34.6 44.9061C31.2625 46.0095 28.0967 47.4599 25.185 49.2573C23.9832 49.9998 22.5686 50.9228 21.0234 51.9499C23.4338 52.3038 26.167 52.4981 29.271 52.4981C36.3031 52.4912 27.4649 52.512 32.1415 52.5328H32.1484Z" fill="url(#paint16_radial_1440_47889)"/>
<g style="mix-blend-mode:multiply" opacity="0.6">
<path d="M36.0733 55.6973L46.9853 24.0735C48.1116 20.8604 48.9356 20.0207 52.3006 19.8958L79.9893 19.5419H47.6927L36.0664 55.6973H36.0733Z" fill="#612CB7"/>
</g>
<g style="mix-blend-mode:screen">
<path d="M89.7544 24.4832C87.4951 22.8247 84.7757 22.7206 83.6769 24.2473C82.8872 25.3437 83.155 26.9815 84.1988 28.4249H92.2953C92.1717 27.0856 91.2584 25.5797 89.7544 24.4832Z" fill="white"/>
</g>
<g style="mix-blend-mode:multiply" opacity="0.6">
<path d="M93.2578 71.1171L99.9396 59.4238V55.843L86.5759 59.4238L79.8941 47.7305L73.2191 59.4238L59.8555 55.843V59.4238L66.5373 71.1171L59.8555 79.2295V82.8034H73.2191L79.8941 94.4967L86.5759 82.8034H99.9396V79.2295L93.2578 71.1171Z" fill="#2753A0"/>
</g>
<path d="M93.2578 67.5362L99.9396 55.843V51.471L86.5759 55.843L79.8941 44.1497L73.2191 55.843L59.8555 51.471V55.843L66.5373 67.5362L59.8555 74.8575V79.2295H73.2191L79.8941 90.9228L86.5759 79.2295H99.9396V74.8575L93.2578 67.5362Z" fill="#4B0EA7"/>
<path d="M93.2578 63.1643L99.9396 51.471H86.5759L79.8941 39.7777L73.2191 51.471H59.8555L66.5373 63.1643L59.8555 74.8575H73.2191L79.8941 86.5508L86.5759 74.8575H99.9396L93.2578 63.1643Z" fill="url(#paint17_radial_1440_47889)"/>
<path d="M99.9349 74.8573H86.5781V79.2293H99.9349V74.8573Z" fill="#200968"/>
<path d="M73.2191 79.2295L79.8941 90.9228V86.5508L73.2191 74.8575H59.8555V79.2295H73.2191Z" fill="#200968"/>
<path style="mix-blend-mode:screen" d="M75.3342 47.7652L73.2123 51.4779H59.8555L66.5373 63.1712L59.8555 74.8645H73.2123L79.8941 86.5577L86.5759 74.8645H99.9327L93.2509 63.1712L93.9994 61.8665C88.6498 55.6695 82.229 50.9922 75.3342 47.7722V47.7652Z" fill="url(#paint18_radial_1440_47889)"/>
<path d="M59.8555 51.471L66.5373 63.1643L65.2875 65.3502L59.8555 55.843V51.471Z" fill="#200968"/>
<g style="mix-blend-mode:multiply" opacity="0.6">
<path d="M59.8555 51.471L67.7047 61.5196C68.5975 62.734 68.8722 63.1643 67.7047 64.809L59.8555 74.8575L66.5373 63.1643L59.8555 51.471Z" fill="#612CB7"/>
</g>
<g style="mix-blend-mode:screen" opacity="0.8">
<path d="M79.8945 39.7777L86.3429 52.623L99.94 51.471H86.5764L79.8945 39.7777Z" fill="#F3FAFF"/>
</g>
<g style="mix-blend-mode:screen" opacity="0.5">
<path d="M59.8555 74.8575L74.469 73.5806L79.8941 86.5508L73.2191 74.8575H59.8555Z" fill="#F3FAFF"/>
</g>
<g style="mix-blend-mode:multiply" opacity="0.6">
<path d="M79.8945 86.5506L85.1068 73.6498C85.6768 72.4215 86.4253 72.2827 87.2906 72.4493L99.9332 74.8573H86.5764L79.8945 86.5506Z" fill="#612CB7"/>
</g>
<path style="mix-blend-mode:soft-light" d="M96.5331 57.4252L99.9324 51.4779H89.2812C91.7809 53.3377 94.2051 55.3225 96.5331 57.4252Z" fill="url(#paint19_radial_1440_47889)"/>
<path style="mix-blend-mode:soft-light" d="M84.7793 48.3204L79.8967 39.7777L77.5 43.9762C79.9722 45.3086 82.4032 46.759 84.7793 48.3204Z" fill="url(#paint20_radial_1440_47889)"/>
<g style="mix-blend-mode:screen" opacity="0.5">
<path d="M84.7633 62.6926C83.7263 64.5108 80.6567 64.6843 77.9098 63.0812C75.1629 61.4782 73.7757 58.7023 74.8127 56.8911C75.8496 55.0729 78.9193 54.8994 81.6662 56.5025C84.4131 58.1055 85.8002 60.8814 84.7633 62.6926Z" fill="#FCE265"/>
</g>
<g style="mix-blend-mode:screen" opacity="0.5">
<path d="M74.8334 63.8027C74.5038 64.3856 73.405 64.3718 72.3887 63.7819C71.3723 63.192 70.8161 62.2344 71.1457 61.6584C71.4753 61.0754 72.5741 61.0893 73.5905 61.6792C74.6068 62.2691 75.1631 63.2267 74.8334 63.8027Z" fill="#FCE265"/>
</g>
<g style="mix-blend-mode:multiply" opacity="0.6">
<path fill-rule="evenodd" clip-rule="evenodd" d="M127.04 31.9017C124.204 31.6171 122.219 30.5762 120.935 28.0085L117.398 19.9794L121.601 32.8871C126.285 32.8663 127.047 32.8454 134.079 32.8524C138.041 32.8524 141.399 32.5332 144.249 31.978C138.083 32.7275 131.751 32.3805 127.047 31.9017H127.04Z" fill="#612CB7"/>
</g>
<g style="mix-blend-mode:multiply" opacity="0.6">
<path fill-rule="evenodd" clip-rule="evenodd" d="M130.727 52.4984C136.75 52.5054 141.372 51.7489 144.929 50.597C139.813 52.0335 135.521 51.9294 132.252 51.7281C130.006 51.5893 128.173 49.9169 127.218 47.8558L123.695 39.5907L127.85 52.5262C132.533 52.5054 123.695 52.4845 130.721 52.4915L130.727 52.4984Z" fill="#612CB7"/>
</g>
<g style="mix-blend-mode:multiply" opacity="0.6">
<path fill-rule="evenodd" clip-rule="evenodd" d="M134.166 72.1512C136.948 71.249 139.145 70.1248 140.889 68.9242C138.822 69.7154 134.949 70.2913 134.949 70.2913L130.012 59.2157V59.2296L134.166 72.1512Z" fill="#612CB7"/>
</g>
<g style="mix-blend-mode:multiply" opacity="0.6">
<path d="M25.9307 32.8452C32.9559 32.8383 33.7251 32.8591 38.4085 32.8799L41.7391 22.6509L39.2669 28.2304C38.0789 31.1728 37.3716 32.1443 34.4667 32.1652C31.3352 32.1929 25.4294 32.1235 22.4284 32.0056C9.36693 31.499 1.66874 25.7946 0 19.9028C0 19.9028 1.04382 32.8799 25.9307 32.8522V32.8452Z" fill="#612CB7"/>
</g>
<g style="mix-blend-mode:multiply" opacity="0.6">
<path d="M32.6994 48.716C31.9097 50.3885 31.0582 51.7903 29.2246 51.7278C27.3293 51.6584 21.9934 51.6237 18.9512 50.9298C11.8848 49.3198 7.66146 46.6619 4.80469 43.4003C7.20822 47.231 13.4025 52.5189 29.2727 52.4981C36.3048 52.4912 27.4666 52.512 32.1432 52.5328L35.5837 41.8319L32.6994 48.723V48.716Z" fill="#612CB7"/>
</g>
<g style="mix-blend-mode:multiply" opacity="0.6">
<path d="M25.8354 72.1513L29.4681 60.8675C28.7883 62.304 27.4354 65.635 26.062 68.7162C25.128 70.812 24.2353 70.5483 22.7932 69.9445C15.6375 66.9327 13.9825 63.3449 12.4648 59.1395C12.4648 59.1395 13.0074 67.9875 25.8285 72.1513H25.8354Z" fill="#612CB7"/>
</g>
<g style="mix-blend-mode:screen" opacity="0.5">
<path d="M117.39 19.9791L156.354 20.6522C157.92 20.68 158.648 21.8666 157.968 23.2962C157.261 24.7813 156.121 26.5648 154.253 28.0984C159.63 24.4065 159.994 19.9027 159.994 19.9027L117.383 19.9791H117.39Z" fill="#E6ADFF"/>
</g>
<g style="mix-blend-mode:screen" opacity="0.5">
<path d="M123.695 39.5974L152.442 40.2775C155.8 40.3539 155.257 41.7904 154.378 43.553C153.836 44.6425 153.101 45.8362 152.126 46.8216C156.377 43.324 156.699 39.5072 156.699 39.5072L123.695 39.5836V39.5974Z" fill="#E6ADFF"/>
</g>
<g style="mix-blend-mode:screen" opacity="0.5">
<path d="M144.522 65.642C147.345 62.2415 147.537 59.1395 147.537 59.1395L130.032 59.2159H130.012L144.481 59.8335C146.617 59.9653 146.232 60.7773 145.985 61.8252C145.697 63.0327 145.223 64.4553 144.522 65.642Z" fill="#E6ADFF"/>
</g>
<g style="mix-blend-mode:screen" opacity="0.5">
<path d="M11.3242 19.9028L42.6045 19.9792L41.5538 23.213C41.5538 21.5614 40.7778 20.7217 38.8894 20.7009L11.3242 19.9028Z" fill="#F3FAFF"/>
</g>
<g style="mix-blend-mode:screen" opacity="0.5">
<path d="M11.3242 39.5975H36.3004L35.1536 43.1714L35.2772 41.9847C35.339 40.8605 34.9475 40.2776 32.9217 40.1735L11.3311 39.5906L11.3242 39.5975Z" fill="#F3FAFF"/>
</g>
<g style="mix-blend-mode:screen" opacity="0.5">
<path d="M15.8428 59.1534L30.0031 59.2158L28.9249 62.5538L28.8562 61.0063C28.815 60.1388 28.5815 59.8473 27.4141 59.771L15.8359 59.1673L15.8428 59.1534Z" fill="#F3FAFF"/>
</g>
<g style="mix-blend-mode:screen">
<path d="M121.592 32.887C124.607 32.8731 126.001 32.8593 128.487 32.8523C132.903 30.0556 135.842 25.9058 136.254 21.0758C136.288 20.701 136.295 20.3263 136.295 19.9516L117.383 19.9863L121.586 32.894L121.592 32.887Z" fill="white"/>
</g>
<path style="mix-blend-mode:soft-light" d="M3.29688 39.521C3.29688 39.521 3.47542 41.6237 5.30898 44.1428C8.02154 42.5883 11.05 41.0061 14.2845 39.5488L3.29688 39.521Z" fill="url(#paint21_radial_1440_47889)"/>
<path style="mix-blend-mode:color-dodge" opacity="0.5" d="M107.459 62.9424C124.659 62.9424 138.602 48.8523 138.602 31.4712C138.602 14.0901 124.659 0 107.459 0C90.2596 0 76.3164 14.0901 76.3164 31.4712C76.3164 48.8523 90.2596 62.9424 107.459 62.9424Z" fill="url(#paint22_radial_1440_47889)"/>
<path style="mix-blend-mode:color-dodge" opacity="0.5" d="M83.6708 100.846C86.7049 87.555 78.5022 74.2947 65.3495 71.2286C52.1968 68.1625 39.0748 76.4517 36.0406 89.743C33.0065 103.034 41.2093 116.295 54.362 119.361C67.5147 122.427 80.6367 114.138 83.6708 100.846Z" fill="url(#paint23_radial_1440_47889)"/>
<path d="M96.7031 97.3767C96.7031 97.3767 98.983 93.088 102.527 90.6175C104.642 89.1394 108.728 87.9805 108.728 87.9805C108.728 87.9805 104.923 92.8174 102.108 95.0866C99.2921 97.3559 96.7031 97.3767 96.7031 97.3767Z" fill="url(#paint24_linear_1440_47889)"/>
<path d="M106.269 89.5903C103.144 89.7777 100.631 92.3037 99.2778 94.0803C97.9181 95.8568 98.6872 96.4467 100.411 95.6764C102.128 94.8991 107.587 89.514 106.276 89.5973L106.269 89.5903Z" fill="#4E217D"/>
<path style="mix-blend-mode:multiply" opacity="0.5" d="M106.269 89.5905C104.153 89.5697 101.489 91.5891 100.658 92.4982C99.8271 93.4003 101.489 94.7883 102.622 94.0527C103.755 93.324 107.23 89.5974 106.269 89.5905Z" fill="url(#paint25_linear_1440_47889)"/>
</g>
<defs>
<radialGradient id="paint0_radial_1440_47889" cx="0" cy="0" r="1" gradientUnits="userSpaceOnUse" gradientTransform="translate(122.332 23.3795) scale(125.423 126.745)">
<stop stop-color="#5DAFD2"/>
<stop offset="0.51" stop-color="#682BC7"/>
<stop offset="0.92" stop-color="#F768CA"/>
</radialGradient>
<radialGradient id="paint1_radial_1440_47889" cx="0" cy="0" r="1" gradientUnits="userSpaceOnUse" gradientTransform="translate(122.334 23.3796) scale(125.423 126.745)">
<stop stop-color="#5DAFD2"/>
<stop offset="0.51" stop-color="#682BC7"/>
<stop offset="0.92" stop-color="#F768CA"/>
</radialGradient>
<radialGradient id="paint2_radial_1440_47889" cx="0" cy="0" r="1" gradientUnits="userSpaceOnUse" gradientTransform="translate(113.702 16.4469) scale(108.125 109.264)">
<stop stop-color="#5DAFD2"/>
<stop offset="0.17" stop-color="#5CA9D0"/>
<stop offset="0.37" stop-color="#599ACD"/>
<stop offset="0.59" stop-color="#5582C7"/>
<stop offset="0.82" stop-color="#5060BF"/>
<stop offset="1" stop-color="#4B40B8"/>
</radialGradient>
<radialGradient id="paint3_radial_1440_47889" cx="0" cy="0" r="1" gradientUnits="userSpaceOnUse" gradientTransform="translate(48.4332 111.922) scale(79.7699 80.6107)">
<stop offset="0.32" stop-color="#D332E0"/>
<stop offset="0.76" stop-color="#45094A"/>
</radialGradient>
<linearGradient id="paint4_linear_1440_47889" x1="79.9949" y1="69.9444" x2="79.9949" y2="87.4461" gradientUnits="userSpaceOnUse">
<stop offset="0.63" stop-color="#BD45E8"/>
<stop offset="1" stop-color="#F59CDE"/>
</linearGradient>
<radialGradient id="paint5_radial_1440_47889" cx="0" cy="0" r="1" gradientUnits="userSpaceOnUse" gradientTransform="translate(122.333 23.3796) scale(125.423 126.745)">
<stop stop-color="#5DAFD2"/>
<stop offset="0.51" stop-color="#682BC7"/>
<stop offset="0.92" stop-color="#F768CA"/>
</radialGradient>
<radialGradient id="paint6_radial_1440_47889" cx="0" cy="0" r="1" gradientUnits="userSpaceOnUse" gradientTransform="translate(122.334 23.3798) scale(125.423 126.745)">
<stop stop-color="#5DAFD2"/>
<stop offset="0.51" stop-color="#682BC7"/>
<stop offset="0.92" stop-color="#F768CA"/>
</radialGradient>
<radialGradient id="paint7_radial_1440_47889" cx="0" cy="0" r="1" gradientUnits="userSpaceOnUse" gradientTransform="translate(122.334 23.3797) scale(125.423 126.745)">
<stop stop-color="#5DAFD2"/>
<stop offset="0.51" stop-color="#682BC7"/>
<stop offset="0.92" stop-color="#F768CA"/>
</radialGradient>
<radialGradient id="paint8_radial_1440_47889" cx="0" cy="0" r="1" gradientUnits="userSpaceOnUse" gradientTransform="translate(122.335 23.3795) scale(125.423 126.745)">
<stop stop-color="#5DAFD2"/>
<stop offset="0.51" stop-color="#682BC7"/>
<stop offset="0.92" stop-color="#F768CA"/>
</radialGradient>
<radialGradient id="paint9_radial_1440_47889" cx="0" cy="0" r="1" gradientUnits="userSpaceOnUse" gradientTransform="translate(122.336 23.3798) scale(125.423 126.745)">
<stop stop-color="#5DAFD2"/>
<stop offset="0.51" stop-color="#682BC7"/>
<stop offset="0.92" stop-color="#F768CA"/>
</radialGradient>
<radialGradient id="paint10_radial_1440_47889" cx="0" cy="0" r="1" gradientUnits="userSpaceOnUse" gradientTransform="translate(122.332 23.3797) scale(125.423 126.745)">
<stop stop-color="#5DAFD2"/>
<stop offset="0.51" stop-color="#682BC7"/>
<stop offset="0.92" stop-color="#F768CA"/>
</radialGradient>
<radialGradient id="paint11_radial_1440_47889" cx="0" cy="0" r="1" gradientUnits="userSpaceOnUse" gradientTransform="translate(113.703 16.4468) scale(108.125 109.264)">
<stop stop-color="#5DAFD2"/>
<stop offset="0.17" stop-color="#5CA9D0"/>
<stop offset="0.37" stop-color="#599ACD"/>
<stop offset="0.59" stop-color="#5582C7"/>
<stop offset="0.82" stop-color="#5060BF"/>
<stop offset="1" stop-color="#4B40B8"/>
</radialGradient>
<radialGradient id="paint12_radial_1440_47889" cx="0" cy="0" r="1" gradientUnits="userSpaceOnUse" gradientTransform="translate(113.703 16.4471) scale(108.125 109.264)">
<stop stop-color="#5DAFD2"/>
<stop offset="0.17" stop-color="#5CA9D0"/>
<stop offset="0.37" stop-color="#599ACD"/>
<stop offset="0.59" stop-color="#5582C7"/>
<stop offset="0.82" stop-color="#5060BF"/>
<stop offset="1" stop-color="#4B40B8"/>
</radialGradient>
<radialGradient id="paint13_radial_1440_47889" cx="0" cy="0" r="1" gradientUnits="userSpaceOnUse" gradientTransform="translate(113.7 16.447) scale(108.125 109.264)">
<stop stop-color="#5DAFD2"/>
<stop offset="0.17" stop-color="#5CA9D0"/>
<stop offset="0.37" stop-color="#599ACD"/>
<stop offset="0.59" stop-color="#5582C7"/>
<stop offset="0.82" stop-color="#5060BF"/>
<stop offset="1" stop-color="#4B40B8"/>
</radialGradient>
<radialGradient id="paint14_radial_1440_47889" cx="0" cy="0" r="1" gradientUnits="userSpaceOnUse" gradientTransform="translate(113.701 16.4469) scale(108.125 109.264)">
<stop stop-color="#5DAFD2"/>
<stop offset="0.17" stop-color="#5CA9D0"/>
<stop offset="0.37" stop-color="#599ACD"/>
<stop offset="0.59" stop-color="#5582C7"/>
<stop offset="0.82" stop-color="#5060BF"/>
<stop offset="1" stop-color="#4B40B8"/>
</radialGradient>
<radialGradient id="paint15_radial_1440_47889" cx="0" cy="0" r="1" gradientUnits="userSpaceOnUse" gradientTransform="translate(48.4355 111.922) scale(79.77 80.6107)">
<stop offset="0.32" stop-color="#D332E0"/>
<stop offset="0.76" stop-color="#45094A"/>
</radialGradient>
<radialGradient id="paint16_radial_1440_47889" cx="0" cy="0" r="1" gradientUnits="userSpaceOnUse" gradientTransform="translate(48.4375 111.922) scale(79.7699 80.6107)">
<stop offset="0.32" stop-color="#D332E0"/>
<stop offset="0.76" stop-color="#45094A"/>
</radialGradient>
<radialGradient id="paint17_radial_1440_47889" cx="0" cy="0" r="1" gradientUnits="userSpaceOnUse" gradientTransform="translate(122.334 23.3794) scale(125.423 126.745)">
<stop stop-color="#5DAFD2"/>
<stop offset="0.51" stop-color="#682BC7"/>
<stop offset="0.92" stop-color="#F768CA"/>
</radialGradient>
<radialGradient id="paint18_radial_1440_47889" cx="0" cy="0" r="1" gradientUnits="userSpaceOnUse" gradientTransform="translate(48.4352 111.922) scale(79.7699 80.6107)">
<stop offset="0.32" stop-color="#D332E0"/>
<stop offset="0.76" stop-color="#45094A"/>
</radialGradient>
<radialGradient id="paint19_radial_1440_47889" cx="0" cy="0" r="1" gradientUnits="userSpaceOnUse" gradientTransform="translate(113.701 16.4467) scale(108.125 109.264)">
<stop stop-color="#5DAFD2"/>
<stop offset="0.17" stop-color="#5CA9D0"/>
<stop offset="0.37" stop-color="#599ACD"/>
<stop offset="0.59" stop-color="#5582C7"/>
<stop offset="0.82" stop-color="#5060BF"/>
<stop offset="1" stop-color="#4B40B8"/>
</radialGradient>
<radialGradient id="paint20_radial_1440_47889" cx="0" cy="0" r="1" gradientUnits="userSpaceOnUse" gradientTransform="translate(113.704 16.4467) scale(108.125 109.264)">
<stop stop-color="#5DAFD2"/>
<stop offset="0.17" stop-color="#5CA9D0"/>
<stop offset="0.37" stop-color="#599ACD"/>
<stop offset="0.59" stop-color="#5582C7"/>
<stop offset="0.82" stop-color="#5060BF"/>
<stop offset="1" stop-color="#4B40B8"/>
</radialGradient>
<radialGradient id="paint21_radial_1440_47889" cx="0" cy="0" r="1" gradientUnits="userSpaceOnUse" gradientTransform="translate(108.242 20.8118) scale(131.611 132.998)">
<stop stop-color="#5DAFD2"/>
<stop offset="0.17" stop-color="#5CA9D0"/>
<stop offset="0.37" stop-color="#599ACD"/>
<stop offset="0.59" stop-color="#5582C7"/>
<stop offset="0.82" stop-color="#5060BF"/>
<stop offset="1" stop-color="#4B40B8"/>
</radialGradient>
<radialGradient id="paint22_radial_1440_47889" cx="0" cy="0" r="1" gradientUnits="userSpaceOnUse" gradientTransform="translate(107.459 31.4712) scale(31.143 31.4712)">
<stop offset="0.1" stop-color="#1B75B2"/>
<stop offset="0.34" stop-color="#12507A"/>
<stop offset="0.65" stop-color="#082538"/>
<stop offset="0.88" stop-color="#020A0F"/>
<stop offset="1"/>
</radialGradient>
<radialGradient id="paint23_radial_1440_47889" cx="0" cy="0" r="1" gradientUnits="userSpaceOnUse" gradientTransform="translate(59.8476 95.2954) scale(24.4405 24.6981)">
<stop offset="0.1" stop-color="#1B75B2"/>
<stop offset="0.34" stop-color="#12507A"/>
<stop offset="0.65" stop-color="#082538"/>
<stop offset="0.88" stop-color="#020A0F"/>
<stop offset="1"/>
</radialGradient>
<linearGradient id="paint24_linear_1440_47889" x1="98.3581" y1="95.2116" x2="106.69" y2="90.471" gradientUnits="userSpaceOnUse">
<stop stop-color="#EFC4FF"/>
<stop offset="0.99" stop-color="#A34AC4"/>
</linearGradient>
<linearGradient id="paint25_linear_1440_47889" x1="103.784" y1="93.8347" x2="103.158" y2="89.897" gradientUnits="userSpaceOnUse">
<stop stop-color="white"/>
<stop offset="0.44" stop-color="#881DED"/>
<stop offset="1" stop-color="#262262"/>
</linearGradient>
<clipPath id="clip0_1440_47889">
<rect width="160" height="120" fill="white"/>
</clipPath>
</defs>
</svg>
