<svg width="27" height="16" viewBox="0 0 27 16" fill="none" xmlns="http://www.w3.org/2000/svg">
<path fill-rule="evenodd" clip-rule="evenodd" d="M13.5 14.0889C12.0702 15.2803 10.2156 16 8.18881 16C3.66601 16 0 12.4184 0 8C0 3.58163 3.66601 0 8.18881 0C10.2156 0 12.0702 0.71969 13.5 1.91106C14.9298 0.71969 16.7844 0 18.8112 0C23.334 0 27 3.58163 27 8C27 12.4184 23.334 16 18.8112 16C16.7844 16 14.9298 15.2803 13.5 14.0889Z" fill="#ED0006"/>
<path fill-rule="evenodd" clip-rule="evenodd" d="M13.5 1.91016C15.2604 3.37734 16.377 5.56074 16.377 7.9991C16.377 10.4375 15.2604 12.6209 13.5 14.088C11.7396 12.6209 10.623 10.4375 10.623 7.9991C10.623 5.56074 11.7396 3.37734 13.5 1.91016Z" fill="#FF5E00"/>
</svg>
