<svg width="134" height="100" viewBox="0 0 134 100" fill="none" xmlns="http://www.w3.org/2000/svg">
<g clip-path="url(#clip0_39_62483)">
<path d="M66.6628 96.5687L107.825 66.6606L92.1046 18.2666H41.2209L25.4946 66.6606L66.6628 96.5687Z" fill="#31414C"/>
<path d="M93.5724 16.2412H39.7454L23.1118 67.4327L66.6562 99.0689L110.201 67.4327L93.5669 16.2412H93.5724ZM31.7256 64.6352L45.0703 23.5697H88.2528L101.598 64.6352L66.667 90.0177L31.731 64.6352H31.7256Z" fill="url(#paint0_radial_39_62483)"/>
<g style="mix-blend-mode:multiply" opacity="0.2">
<path d="M45.0718 23.5703L66.663 90.0182L88.2543 23.5703H45.0718Z" fill="#0C363D"/>
</g>
<path d="M93.5769 16.2412H39.75L35.9048 28.0845C38.2972 28.1926 40.776 28.495 43.3143 28.981L45.0749 23.5697H88.2574L101.602 64.6352L96.5364 68.3184C97.6759 70.5326 98.6858 72.8224 99.5499 75.1824L110.21 67.4381L93.5769 16.2466V16.2412Z" fill="url(#paint1_radial_39_62483)"/>
<path style="mix-blend-mode:screen" d="M93.5769 16.2412H39.75L35.9048 28.0845C38.2972 28.1926 40.776 28.495 43.3143 28.981L45.0749 23.5697H88.2574L101.602 64.6352L96.5364 68.3184C97.6759 70.5326 98.6858 72.8224 99.5499 75.1824L110.21 67.4381L93.5769 16.2466V16.2412Z" fill="url(#paint2_linear_39_62483)"/>
<path style="mix-blend-mode:screen" d="M90.6207 81.6631C90.3669 78.8116 89.9403 76.0951 89.3678 73.5191L66.6587 90.0177L31.7227 64.6353L41.3032 35.1484C38.5814 35.2132 35.9027 35.5211 33.3051 36.0503L23.1089 67.4327L66.6532 99.0689L90.6153 81.6577L90.6207 81.6631Z" fill="url(#paint3_linear_39_62483)"/>
<path d="M31.7285 64.6358L35.1794 63.8636L47.2064 26.8538H86.1171L98.1441 63.8636L101.595 64.6358L88.2503 23.5703H45.0732L31.7285 64.6358Z" fill="#455A82"/>
<g style="mix-blend-mode:multiply" opacity="0.2">
<path d="M35.1812 63.8632L41.9102 46.5978C45.8958 36.3746 55.7409 31.9408 66.7148 31.9408C77.7319 31.9408 87.6148 36.434 91.5626 46.722L98.1458 63.8632L86.1189 26.8535H47.2027L35.1758 63.8632H35.1812Z" fill="#2753A0"/>
</g>
<path d="M31.7285 64.6356L35.1794 63.8633L66.6645 86.7345L98.1441 63.8633L101.595 64.6356L66.6645 90.018L31.7285 64.6356Z" fill="url(#paint4_linear_39_62483)"/>
<g style="mix-blend-mode:multiply" opacity="0.6">
<path d="M35.1802 63.8632L47.5258 32.1838C48.1199 30.6555 49.5942 29.6456 51.236 29.6456H82.2619C83.9091 29.6456 85.3888 30.6609 85.9775 32.2L98.1395 63.8632L86.1125 26.8535H47.1964L35.1694 63.8632H35.1802Z" fill="#2753A0"/>
</g>
<path d="M45.0718 23.5703L47.205 26.8538H86.1157L88.2489 23.5703H45.0718Z" fill="#2E3E54"/>
<g style="mix-blend-mode:multiply" opacity="0.35">
<path d="M29.0808 49.0762L24.9116 64.6945C24.5876 66.0392 25.2249 67.8268 26.3374 68.6584L66.663 99.0741L23.1187 67.4379L29.0862 49.0816L29.0808 49.0762Z" fill="#455A82"/>
</g>
<g style="mix-blend-mode:multiply" opacity="0.6">
<path d="M35.1792 63.8633L65.2115 84.0936C66.0053 84.6283 67.3123 84.6283 68.1061 84.0936L98.1384 63.8633L66.6588 86.7345L35.1792 63.8633Z" fill="#2753A0"/>
</g>
<g style="mix-blend-mode:multiply" opacity="0.35">
<path d="M66.6636 99.0739L105.439 69.1226C108.15 67.1136 108.739 66.6762 107.518 62.8256L99.4285 34.2461L110.213 67.4377L66.669 99.0739H66.6636Z" fill="#455A82"/>
</g>
<path d="M47.4155 76.036L66.663 90.0179L92.6449 71.1377L66.663 91.206L47.4155 76.036Z" fill="#F3FEFF"/>
<path d="M65.2017 16.2412H93.576L99.4247 34.2465L92.4905 17.2403L65.2017 16.2412Z" fill="#F3FEFF"/>
<g style="mix-blend-mode:screen">
<path d="M76.4924 16.2412C76.2548 18.5742 77.2755 21.1827 79.2413 23.5697H88.2547L90.4852 30.4284C93.3096 31.1196 96.0099 31.1412 98.2241 30.5364L93.5797 16.2466H76.4978L76.4924 16.2412Z" fill="white"/>
</g>
<g style="mix-blend-mode:screen">
<path d="M45.0782 74.335C44.3977 76.0901 45.629 78.704 48.1078 80.5023C50.5867 82.3007 53.4544 82.668 54.9071 81.4798L45.0728 74.335H45.0782Z" fill="white"/>
</g>
<g style="mix-blend-mode:screen">
<path d="M54.9774 86.2648C54.5616 86.902 53.4113 86.8912 52.4122 86.2378C51.4077 85.5843 50.9324 84.5366 51.3483 83.8993C51.7641 83.2621 52.9144 83.2729 53.9135 83.9263C54.918 84.5798 55.3932 85.6275 54.9774 86.2648Z" fill="white"/>
</g>
<path d="M35.5084 16.6029L33.8612 30.2284C29.9621 30.2068 26.7055 30.1906 20.846 30.196C0.108009 30.223 0 16.5381 0 16.5381L35.5084 16.6029Z" fill="#2E3E54"/>
<path d="M35.5084 16.6029L32.0035 27.2473C28.1043 27.2257 27.4616 27.2095 21.6075 27.2149C0.869481 27.2419 0 16.5381 0 16.5381L35.5084 16.6029Z" fill="url(#paint5_radial_39_62483)"/>
<path d="M30.2533 32.7772L28.6332 46.4027C24.734 46.3811 29.4757 46.4027 23.6215 46.4027C2.88352 46.4297 2.75391 32.707 2.75391 32.707L30.2587 32.7718L30.2533 32.7772Z" fill="#2E3E54"/>
<path d="M30.2544 32.7772L26.7872 43.4433C22.8881 43.4217 30.2544 43.4055 24.3948 43.4109C3.65683 43.4379 2.74414 32.707 2.74414 32.707L30.249 32.7718L30.2544 32.7772Z" fill="url(#paint6_radial_39_62483)"/>
<path d="M24.999 48.952L10.3906 48.8926C10.3906 48.8926 12.6858 59.1536 23.3735 62.5829L25.0044 48.952H24.999Z" fill="#2E3E54"/>
<path d="M24.999 48.952L10.3906 48.8926C10.3906 48.8926 10.8443 56.1887 21.5319 59.6234L25.0044 48.952H24.999Z" fill="url(#paint7_radial_39_62483)"/>
<path d="M35.5069 16.6025L37.2567 19.9833L33.8597 30.228L32.002 27.2416L35.5069 16.6025Z" fill="#455A82"/>
<path d="M30.2542 32.7773L32.004 36.1257L28.6287 46.4082L26.7871 43.4488L30.2542 32.7773Z" fill="#455A82"/>
<path d="M24.994 48.958L26.7438 52.3063L23.3684 62.5835L21.5269 59.624L24.994 48.958Z" fill="#455A82"/>
<path d="M97.8257 16.6029L99.4728 30.2284C103.372 30.2068 106.629 30.1906 112.488 30.196C133.226 30.223 133.334 16.5381 133.334 16.5381L97.8257 16.6029Z" fill="#2E3E54"/>
<path d="M97.8257 16.6029L101.331 27.2473C105.23 27.2257 105.872 27.2095 111.727 27.2149C132.465 27.2419 133.334 16.5381 133.334 16.5381L97.8257 16.6029Z" fill="url(#paint8_radial_39_62483)"/>
<path d="M103.08 32.7772L104.7 46.4027C108.599 46.3811 103.857 46.4027 109.717 46.4027C130.455 46.4297 130.584 32.707 130.584 32.707L103.08 32.7718V32.7772Z" fill="#2E3E54"/>
<path d="M103.08 32.7772L106.547 43.4433C110.446 43.4217 103.08 43.4055 108.939 43.4109C129.677 43.4379 130.59 32.707 130.59 32.707L103.085 32.7718L103.08 32.7772Z" fill="url(#paint9_radial_39_62483)"/>
<path d="M108.332 48.952L122.94 48.8926C122.94 48.8926 120.645 59.1536 109.958 62.5829L108.327 48.952H108.332Z" fill="#2E3E54"/>
<path d="M108.332 48.952L122.94 48.8926C122.94 48.8926 122.487 56.1887 111.799 59.6234L108.327 48.952H108.332Z" fill="url(#paint10_radial_39_62483)"/>
<path style="mix-blend-mode:screen" d="M97.8257 16.6029L101.331 27.2473C105.23 27.2257 105.872 27.2095 111.727 27.2149C132.465 27.2419 133.334 16.5381 133.334 16.5381L97.8257 16.6029Z" fill="url(#paint11_linear_39_62483)"/>
<path style="mix-blend-mode:screen" d="M103.08 32.7772L106.547 43.4433C110.446 43.4217 103.08 43.4055 108.939 43.4109C129.677 43.4379 130.59 32.707 130.59 32.707L103.085 32.7718L103.08 32.7772Z" fill="url(#paint12_linear_39_62483)"/>
<path style="mix-blend-mode:screen" d="M108.332 48.952L122.94 48.8926C122.94 48.8926 122.487 56.1887 111.799 59.6234L108.327 48.952H108.332Z" fill="url(#paint13_linear_39_62483)"/>
<path d="M97.824 16.6025L96.0742 19.9833L99.4711 30.228L101.329 27.2416L97.824 16.6025Z" fill="#455A82"/>
<path d="M103.081 32.7773L101.332 36.1257L104.707 46.4082L106.548 43.4488L103.081 32.7773Z" fill="#455A82"/>
<path d="M108.338 48.958L106.588 52.3063L109.964 62.5835L111.805 59.624L108.338 48.958Z" fill="#455A82"/>
<path style="mix-blend-mode:screen" d="M35.5084 16.6029L0 16.5381C0 16.5381 0.869481 27.2419 21.6075 27.2149C27.467 27.2095 28.1043 27.2257 32.0035 27.2473L35.5084 16.6029Z" fill="url(#paint14_linear_39_62483)"/>
<path style="mix-blend-mode:screen" d="M24.999 48.952L10.3906 48.8926C10.3906 48.8926 10.8443 56.1887 21.5319 59.6234L25.0044 48.952H24.999Z" fill="url(#paint15_linear_39_62483)"/>
<path style="mix-blend-mode:screen" d="M26.7868 43.4488L28.8282 37.1572C26.0469 38.0645 23.4115 39.2634 20.9867 40.7486C19.9822 41.3642 18.8049 42.1203 17.5195 42.9682C19.5285 43.2598 21.8075 43.4218 24.3944 43.4218C30.2539 43.4164 22.8876 43.4326 26.7868 43.4542V43.4488Z" fill="url(#paint16_linear_39_62483)"/>
<g style="mix-blend-mode:multiply" opacity="0.35">
<path d="M30.0649 46.0575L39.1594 19.9784C40.0991 17.3321 40.785 16.6354 43.5878 16.5328L66.6642 16.2412H39.7535L30.0649 46.0575Z" fill="#455A82"/>
</g>
<g style="mix-blend-mode:screen">
<path d="M74.7984 20.3186C72.919 18.9523 70.6508 18.8659 69.7327 20.1242C69.0793 21.0261 69.2953 22.3762 70.1648 23.5698H76.91C76.8074 22.468 76.0459 21.2259 74.793 20.3186H74.7984Z" fill="white"/>
</g>
<g style="mix-blend-mode:multiply" opacity="0.6">
<path d="M77.7136 58.7706L83.2816 49.1307V46.182L72.1457 49.1307L66.5832 39.4854L61.0153 49.1307L49.8794 46.182V49.1307L55.4473 58.7706L49.8794 65.4618V68.4159H61.0153L66.5832 78.0558L72.1457 68.4159H83.2816V65.4618L77.7136 58.7706Z" fill="#2753A0"/>
</g>
<path d="M77.7136 55.8214L83.2816 46.1815V42.5739L72.1457 46.1815L66.5832 36.5361L61.0153 46.1815L49.8794 42.5739V46.1815L55.4473 55.8214L49.8794 61.8591V65.4613H61.0153L66.5832 75.1066L72.1457 65.4613H83.2816V61.8591L77.7136 55.8214Z" fill="#455A82"/>
<path d="M77.7136 52.2139L83.2816 42.574H72.1457L66.5832 32.9287L61.0153 42.574H49.8794L55.4473 52.2139L49.8794 61.8593H61.0153L66.5832 71.4992L72.1457 61.8593H83.2816L77.7136 52.2139Z" fill="url(#paint17_radial_39_62483)"/>
<path d="M83.2809 61.8594H72.145V65.4669H83.2809V61.8594Z" fill="#2E3E54"/>
<path d="M61.0153 65.4615L66.5832 75.1068V71.4993L61.0153 61.8594H49.8794V65.4615H61.0153Z" fill="#2E3E54"/>
<path style="mix-blend-mode:screen" d="M62.7812 39.5117L61.0153 42.5684H49.8794L55.4473 52.2083L49.8794 61.8483H61.0153L66.5832 71.4882L72.1511 61.8483H83.287L77.7191 52.2083L78.3401 51.1336C73.8793 46.0247 68.5328 42.1634 62.7866 39.5117H62.7812Z" fill="url(#paint18_linear_39_62483)"/>
<path d="M49.8794 42.5742L55.4473 52.2141L54.405 54.0179L49.8794 46.1818V42.5742Z" fill="#2E3E54"/>
<g style="mix-blend-mode:multiply" opacity="0.35">
<path d="M49.8794 42.5742L56.4194 50.8586C57.1647 51.8577 57.3915 52.2141 56.4194 53.5697L49.8794 61.8541L55.4473 52.2141L49.8794 42.5742Z" fill="#455A82"/>
</g>
<g style="mix-blend-mode:screen" opacity="0.8">
<path d="M66.582 32.9287L71.9501 43.5191L83.2804 42.574H72.1446L66.582 32.9287Z" fill="#F3FAFF"/>
</g>
<g style="mix-blend-mode:screen" opacity="0.5">
<path d="M49.8794 61.8597L62.063 60.8066L66.5832 71.4997L61.0153 61.8597H49.8794Z" fill="#F3FAFF"/>
</g>
<g style="mix-blend-mode:multiply" opacity="0.35">
<path d="M66.582 71.4995L70.9294 60.8605C71.4047 59.8452 72.0258 59.7318 72.7494 59.8722L83.2858 61.8596H72.15L66.582 71.4995Z" fill="#455A82"/>
</g>
<path style="mix-blend-mode:screen" d="M80.4441 47.4774L83.2793 42.5684H74.4009C76.4855 44.1021 78.5053 45.7385 80.4441 47.4774Z" fill="url(#paint19_linear_39_62483)"/>
<path style="mix-blend-mode:screen" d="M70.6512 39.9759L66.5846 32.9336L64.5864 36.3953C66.644 37.4916 68.6692 38.6905 70.6512 39.9759Z" fill="url(#paint20_linear_39_62483)"/>
<path opacity="0.5" d="M70.6389 51.8254C69.7748 53.3214 67.215 53.4672 64.9252 52.144C62.6353 50.8209 61.4796 48.5365 62.3437 47.0352C63.2078 45.5392 65.7676 45.3934 68.0575 46.7165C70.3473 48.0396 71.503 50.3241 70.6389 51.8254Z" fill="#E6FAFF"/>
<path opacity="0.5" d="M62.3614 52.743C62.0859 53.2237 61.1733 53.2129 60.3254 52.7268C59.4775 52.2354 59.0131 51.4523 59.2939 50.9717C59.5693 50.491 60.482 50.5018 61.3299 50.9879C62.1778 51.4793 62.6422 52.2624 62.3614 52.743Z" fill="#E6FAFF"/>
<g style="mix-blend-mode:multiply" opacity="0.35">
<path fill-rule="evenodd" clip-rule="evenodd" d="M105.867 26.4315C103.502 26.1939 101.854 25.3406 100.774 23.2236L97.8257 16.6025L101.331 27.247C105.23 27.2254 105.872 27.2092 111.727 27.2146C115.032 27.2146 117.829 26.9499 120.2 26.4963C115.059 27.1173 109.782 26.8257 105.867 26.4369V26.4315Z" fill="#455A82"/>
</g>
<g style="mix-blend-mode:multiply" opacity="0.35">
<path fill-rule="evenodd" clip-rule="evenodd" d="M108.94 43.4164C113.957 43.4218 117.813 42.7953 120.773 41.8502C116.512 43.0329 112.931 42.9519 110.209 42.7845C108.335 42.6711 106.812 41.294 106.018 39.5928L103.086 32.7773L106.553 43.4434C110.452 43.4218 103.086 43.4056 108.945 43.411L108.94 43.4164Z" fill="#455A82"/>
</g>
<g style="mix-blend-mode:multiply" opacity="0.35">
<path fill-rule="evenodd" clip-rule="evenodd" d="M111.807 59.624C114.124 58.8788 115.955 57.9553 117.407 56.9616C115.685 57.615 112.455 58.0903 112.455 58.0903L108.34 48.958V48.9688L111.807 59.624Z" fill="#455A82"/>
</g>
<g style="mix-blend-mode:multiply" opacity="0.35">
<path d="M21.6075 27.2149C27.467 27.2095 28.1043 27.2257 32.0035 27.2473L34.7793 18.8117L32.7163 23.4129C31.728 25.8378 31.1394 26.6371 28.7199 26.6587C26.1115 26.6803 21.1916 26.6262 18.6912 26.529C7.80375 26.1024 1.39333 21.3986 0 16.5381C0 16.5381 0.869481 27.2419 21.6075 27.2149Z" fill="#455A82"/>
</g>
<g style="mix-blend-mode:multiply" opacity="0.35">
<path d="M27.2511 40.3009C26.5923 41.6835 25.8848 42.8392 24.3565 42.7852C22.7741 42.7312 18.3349 42.6988 15.7967 42.1263C9.90469 40.7978 6.38895 38.6052 4.00732 35.9157C6.01092 39.075 11.1684 43.4332 24.3997 43.417C30.2592 43.4116 22.8929 43.4278 26.7921 43.4494L29.6598 34.625L27.2565 40.3063L27.2511 40.3009Z" fill="#455A82"/>
</g>
<g style="mix-blend-mode:multiply" opacity="0.35">
<path d="M21.5255 59.6239L24.5498 50.3188C23.9828 51.5069 22.8541 54.2504 21.7092 56.7886C20.9315 58.5168 20.1862 58.3008 18.9873 57.7985C13.0197 55.3143 11.648 52.3602 10.3843 48.8877C10.3843 48.8877 10.8379 56.1838 21.5255 59.6185V59.6239Z" fill="#455A82"/>
</g>
<path d="M97.8257 16.6029L130.299 17.1591C131.606 17.1807 132.211 18.1582 131.644 19.3356C131.055 20.5615 130.105 22.0304 128.549 23.2941C133.032 20.2482 133.334 16.5381 133.334 16.5381L97.8257 16.6029Z" fill="#F3FEFF"/>
<path d="M103.08 32.783L127.036 33.3447C129.834 33.4041 129.38 34.5922 128.651 36.0503C128.203 36.9468 127.587 37.9297 126.772 38.7506C130.314 35.8667 130.584 32.7236 130.584 32.7236L103.08 32.7884V32.783Z" fill="#F3FEFF"/>
<path d="M120.432 54.2553C122.781 51.4524 122.943 48.8926 122.943 48.8926L108.356 48.952H108.34L120.399 49.465C122.181 49.573 121.857 50.2427 121.652 51.1068C121.414 52.1059 121.015 53.2778 120.432 54.2553Z" fill="#F3FEFF"/>
<g style="mix-blend-mode:screen" opacity="0.5">
<path d="M9.43994 16.5386L35.5082 16.6034L34.6333 19.2659C34.6333 17.8995 33.9853 17.2083 32.4137 17.1921L9.43994 16.5332V16.5386Z" fill="#F3FAFF"/>
</g>
<g style="mix-blend-mode:screen" opacity="0.5">
<path d="M9.43994 32.7773H30.2535L29.2976 35.726L29.4002 34.7485C29.4543 33.825 29.1248 33.339 27.4399 33.258L9.44534 32.7773H9.43994Z" fill="#F3FAFF"/>
</g>
<g style="mix-blend-mode:screen" opacity="0.5">
<path d="M13.1968 48.9038L24.9969 48.9524L24.1004 51.7013L24.0464 50.4214C24.014 49.7085 23.8196 49.4655 22.8475 49.4007L13.2022 48.8984L13.1968 48.9038Z" fill="#F3FAFF"/>
</g>
<g style="mix-blend-mode:screen">
<path d="M101.331 27.2427C103.842 27.2319 105.003 27.2157 107.077 27.2157C110.755 24.9097 113.201 21.4858 113.547 17.5002C113.574 17.1869 113.584 16.8791 113.584 16.5713L97.8257 16.5983L101.331 27.2427Z" fill="white"/>
</g>
<path style="mix-blend-mode:screen" d="M2.74756 32.7129C2.74756 32.7129 2.89877 34.4519 4.42172 36.5203C6.68453 35.2403 9.20658 33.9334 11.9014 32.7345L2.74756 32.7129Z" fill="url(#paint21_linear_39_62483)"/>
<path style="mix-blend-mode:color-dodge" opacity="0.5" d="M89.5521 52.0357C103.887 52.0357 115.507 40.4153 115.507 26.0809C115.507 11.7464 103.887 0.125977 89.5521 0.125977C75.2176 0.125977 63.5972 11.7464 63.5972 26.0809C63.5972 40.4153 75.2176 52.0357 89.5521 52.0357Z" fill="url(#paint22_radial_39_62483)"/>
<path style="mix-blend-mode:color-dodge" opacity="0.5" d="M70.1789 80.3863C71.1005 69.1766 62.7604 59.3423 51.5508 58.4207C40.3411 57.4991 30.5068 65.8392 29.5852 77.0488C28.6636 88.2585 37.0037 98.0928 48.2134 99.0144C59.423 99.936 69.2573 91.5959 70.1789 80.3863Z" fill="url(#paint23_radial_39_62483)"/>
</g>
<defs>
<radialGradient id="paint0_radial_39_62483" cx="0" cy="0" r="1" gradientUnits="userSpaceOnUse" gradientTransform="translate(89.927 19.0117) scale(69.078 69.078)">
<stop offset="0.01" stop-color="#5C6CBA"/>
<stop offset="1" stop-color="#81B3D4"/>
</radialGradient>
<radialGradient id="paint1_radial_39_62483" cx="0" cy="0" r="1" gradientUnits="userSpaceOnUse" gradientTransform="translate(102.499 9.60398) scale(95.5675 95.5675)">
<stop offset="0.01" stop-color="#5C6CBA"/>
<stop offset="1" stop-color="#81B3D4"/>
</radialGradient>
<linearGradient id="paint2_linear_39_62483" x1="106.625" y1="2.80473" x2="63.307" y2="56.2374" gradientUnits="userSpaceOnUse">
<stop stop-color="#9CD3DE"/>
<stop offset="0.19" stop-color="#98CDDA"/>
<stop offset="0.41" stop-color="#8CBED0"/>
<stop offset="0.66" stop-color="#79A6C0"/>
<stop offset="0.93" stop-color="#5F84AA"/>
<stop offset="1" stop-color="#5779A3"/>
</linearGradient>
<linearGradient id="paint3_linear_39_62483" x1="37.6417" y1="89.348" x2="75.5101" y2="41.8829" gradientUnits="userSpaceOnUse">
<stop stop-color="#42495E"/>
<stop offset="1" stop-color="#4A5780"/>
</linearGradient>
<linearGradient id="paint4_linear_39_62483" x1="66.6645" y1="57.8093" x2="66.6645" y2="72.2395" gradientUnits="userSpaceOnUse">
<stop stop-color="#B4E6F7"/>
<stop offset="0.23" stop-color="#CCEEF9"/>
<stop offset="0.51" stop-color="#E3F7FC"/>
<stop offset="0.77" stop-color="#F2FCFE"/>
<stop offset="1" stop-color="#F7FEFF"/>
</linearGradient>
<radialGradient id="paint5_radial_39_62483" cx="0" cy="0" r="1" gradientUnits="userSpaceOnUse" gradientTransform="translate(47.3949 5.43462) scale(76.6711 76.6711)">
<stop offset="0.01" stop-color="#5C6CBA"/>
<stop offset="1" stop-color="#81B3D4"/>
</radialGradient>
<radialGradient id="paint6_radial_39_62483" cx="0" cy="0" r="1" gradientUnits="userSpaceOnUse" gradientTransform="translate(47.3956 5.43443) scale(76.6711 76.6711)">
<stop offset="0.01" stop-color="#5C6CBA"/>
<stop offset="1" stop-color="#81B3D4"/>
</radialGradient>
<radialGradient id="paint7_radial_39_62483" cx="0" cy="0" r="1" gradientUnits="userSpaceOnUse" gradientTransform="translate(47.395 5.43464) scale(76.6711 76.6711)">
<stop offset="0.01" stop-color="#5C6CBA"/>
<stop offset="1" stop-color="#81B3D4"/>
</radialGradient>
<radialGradient id="paint8_radial_39_62483" cx="0" cy="0" r="1" gradientUnits="userSpaceOnUse" gradientTransform="translate(93.9103 17.8828) scale(79.2364 79.2364)">
<stop offset="0.01" stop-color="#5C6CBA"/>
<stop offset="1" stop-color="#81B3D4"/>
</radialGradient>
<radialGradient id="paint9_radial_39_62483" cx="0" cy="0" r="1" gradientUnits="userSpaceOnUse" gradientTransform="translate(93.9095 17.8826) scale(79.231 79.231)">
<stop offset="0.01" stop-color="#5C6CBA"/>
<stop offset="1" stop-color="#81B3D4"/>
</radialGradient>
<radialGradient id="paint10_radial_39_62483" cx="0" cy="0" r="1" gradientUnits="userSpaceOnUse" gradientTransform="translate(93.9073 17.8828) scale(79.2364 79.2363)">
<stop offset="0.01" stop-color="#5C6CBA"/>
<stop offset="1" stop-color="#81B3D4"/>
</radialGradient>
<linearGradient id="paint11_linear_39_62483" x1="120.065" y1="11.2456" x2="78.1732" y2="68.1778" gradientUnits="userSpaceOnUse">
<stop stop-color="#9CD3DE"/>
<stop offset="0.19" stop-color="#98CDDA"/>
<stop offset="0.41" stop-color="#8CBED0"/>
<stop offset="0.66" stop-color="#79A6C0"/>
<stop offset="0.93" stop-color="#5F84AA"/>
<stop offset="1" stop-color="#5779A3"/>
</linearGradient>
<linearGradient id="paint12_linear_39_62483" x1="128.597" y1="17.5262" x2="86.7106" y2="74.4584" gradientUnits="userSpaceOnUse">
<stop stop-color="#9CD3DE"/>
<stop offset="0.19" stop-color="#98CDDA"/>
<stop offset="0.41" stop-color="#8CBED0"/>
<stop offset="0.66" stop-color="#79A6C0"/>
<stop offset="0.93" stop-color="#5F84AA"/>
<stop offset="1" stop-color="#5779A3"/>
</linearGradient>
<linearGradient id="paint13_linear_39_62483" x1="135.653" y1="22.7163" x2="93.7615" y2="79.6539" gradientUnits="userSpaceOnUse">
<stop stop-color="#9CD3DE"/>
<stop offset="0.19" stop-color="#98CDDA"/>
<stop offset="0.41" stop-color="#8CBED0"/>
<stop offset="0.66" stop-color="#79A6C0"/>
<stop offset="0.93" stop-color="#5F84AA"/>
<stop offset="1" stop-color="#5779A3"/>
</linearGradient>
<linearGradient id="paint14_linear_39_62483" x1="57.6343" y1="-34.6912" x2="15.7425" y2="22.2464" gradientUnits="userSpaceOnUse">
<stop stop-color="#9CD3DE"/>
<stop offset="0.19" stop-color="#98CDDA"/>
<stop offset="0.41" stop-color="#8CBED0"/>
<stop offset="0.66" stop-color="#79A6C0"/>
<stop offset="0.93" stop-color="#5F84AA"/>
<stop offset="1" stop-color="#5779A3"/>
</linearGradient>
<linearGradient id="paint15_linear_39_62483" x1="5.27094" y1="70.3434" x2="37.782" y2="21.4094" gradientUnits="userSpaceOnUse">
<stop stop-color="#42495E"/>
<stop offset="1" stop-color="#4A5780"/>
</linearGradient>
<linearGradient id="paint16_linear_39_62483" x1="4.47728" y1="69.8196" x2="36.9884" y2="20.8801" gradientUnits="userSpaceOnUse">
<stop stop-color="#42495E"/>
<stop offset="1" stop-color="#4A5780"/>
</linearGradient>
<radialGradient id="paint17_radial_39_62483" cx="0" cy="0" r="1" gradientUnits="userSpaceOnUse" gradientTransform="translate(95.9458 17.7101) scale(78.8583 78.8583)">
<stop offset="0.01" stop-color="#5C6CBA"/>
<stop offset="1" stop-color="#81B3D4"/>
</radialGradient>
<linearGradient id="paint18_linear_39_62483" x1="49.1827" y1="78.4494" x2="81.089" y2="30.3362" gradientUnits="userSpaceOnUse">
<stop stop-color="#42495E"/>
<stop offset="1" stop-color="#4A5780"/>
</linearGradient>
<linearGradient id="paint19_linear_39_62483" x1="101.549" y1="8.91773" x2="63.4216" y2="65.985" gradientUnits="userSpaceOnUse">
<stop stop-color="#9CD3DE"/>
<stop offset="0.19" stop-color="#98CDDA"/>
<stop offset="0.41" stop-color="#8CBED0"/>
<stop offset="0.66" stop-color="#79A6C0"/>
<stop offset="0.93" stop-color="#5F84AA"/>
<stop offset="1" stop-color="#5779A3"/>
</linearGradient>
<linearGradient id="paint20_linear_39_62483" x1="91.5026" y1="2.20465" x2="53.3696" y2="59.2665" gradientUnits="userSpaceOnUse">
<stop stop-color="#9CD3DE"/>
<stop offset="0.19" stop-color="#98CDDA"/>
<stop offset="0.41" stop-color="#8CBED0"/>
<stop offset="0.66" stop-color="#79A6C0"/>
<stop offset="0.93" stop-color="#5F84AA"/>
<stop offset="1" stop-color="#5779A3"/>
</linearGradient>
<linearGradient id="paint21_linear_39_62483" x1="57.174" y1="-35.0258" x2="15.2822" y2="21.9065" gradientUnits="userSpaceOnUse">
<stop stop-color="#9CD3DE"/>
<stop offset="0.19" stop-color="#98CDDA"/>
<stop offset="0.41" stop-color="#8CBED0"/>
<stop offset="0.66" stop-color="#79A6C0"/>
<stop offset="0.93" stop-color="#5F84AA"/>
<stop offset="1" stop-color="#5779A3"/>
</linearGradient>
<radialGradient id="paint22_radial_39_62483" cx="0" cy="0" r="1" gradientUnits="userSpaceOnUse" gradientTransform="translate(89.552 26.0809) scale(25.9549 25.9549)">
<stop stop-color="#40C4F4"/>
<stop offset="0.09" stop-color="#3CB9E6"/>
<stop offset="0.27" stop-color="#339CC2"/>
<stop offset="0.51" stop-color="#236D88"/>
<stop offset="0.8" stop-color="#0F2E39"/>
<stop offset="1"/>
</radialGradient>
<radialGradient id="paint23_radial_39_62483" cx="0" cy="0" r="1" gradientUnits="userSpaceOnUse" gradientTransform="translate(49.8733 78.7183) scale(20.3653 20.3653)">
<stop stop-color="#40C4F4"/>
<stop offset="0.09" stop-color="#3CB9E6"/>
<stop offset="0.27" stop-color="#339CC2"/>
<stop offset="0.51" stop-color="#236D88"/>
<stop offset="0.8" stop-color="#0F2E39"/>
<stop offset="1"/>
</radialGradient>
<clipPath id="clip0_39_62483">
<rect width="133.333" height="100" fill="white"/>
</clipPath>
</defs>
</svg>
