<svg width="134" height="100" viewBox="0 0 134 100" fill="none" xmlns="http://www.w3.org/2000/svg">
<path d="M66.4534 94.3636L105.95 65.6686L90.8647 19.2412H42.0455L26.96 65.6686L66.4534 94.3636Z" fill="#104556"/>
<path d="M92.2758 17.2988H40.6355L24.6777 66.4132L66.4557 96.7655L108.234 66.4132L92.2758 17.2988ZM32.9401 63.7262L45.7411 24.3267H87.1668L99.9679 63.7262L66.4523 88.0771L32.9367 63.7262H32.9401Z" fill="url(#paint0_radial_39_62420)"/>
<g style="mix-blend-mode:multiply" opacity="0.3">
<path d="M45.7456 24.3271L66.4601 88.0776L87.1713 24.3271H45.7456Z" fill="#0C363D"/>
</g>
<path d="M92.2738 17.2993H40.6334L36.9434 28.6579C39.2379 28.7652 41.6163 29.0537 44.0551 29.5166L45.7424 24.3271H87.1681L99.9692 63.7266L95.1084 67.259C96.202 69.3824 97.1715 71.5797 98.0034 73.844L108.232 66.4103L92.2738 17.2959V17.2993Z" fill="url(#paint1_radial_39_62420)"/>
<path style="mix-blend-mode:screen" d="M92.2738 17.2993H40.6334L36.9434 28.6579C39.2379 28.7652 41.6163 29.0537 44.0551 29.5166L45.7424 24.3271H87.1681L99.9692 63.7266L95.1084 67.259C96.202 69.3824 97.1715 71.5797 98.0034 73.844L108.232 66.4103L92.2738 17.2959V17.2993Z" fill="url(#paint2_linear_39_62420)"/>
<path style="mix-blend-mode:screen" d="M89.4446 80.0629C89.1997 77.3256 88.7938 74.7224 88.2403 72.2501L66.4557 88.077L32.9401 63.7261L42.1316 35.4336C39.5217 35.4973 36.9488 35.7892 34.4597 36.2991L24.6777 66.4098L66.4557 96.762L89.4446 80.0596V80.0629Z" fill="url(#paint3_linear_39_62420)"/>
<path d="M32.9395 63.7267L36.2538 62.982L47.7902 27.4771H85.1233L96.6597 62.982L99.9707 63.7267L87.1696 24.3271H45.7439L32.9395 63.7267Z" fill="#9E2C19"/>
<g style="mix-blend-mode:multiply" opacity="0.2">
<path d="M36.2534 62.9814L42.7076 46.4199C46.5285 36.6111 55.9783 32.3575 66.5017 32.3575C77.0719 32.3575 86.552 36.6681 90.3426 46.5373L96.6593 62.9848L85.1229 27.4766H47.7898L36.2534 62.9848V62.9814Z" fill="#892334"/>
</g>
<path d="M32.9395 63.7262L36.2538 62.9814L66.455 84.9271L96.6597 62.9814L99.9707 63.7262L66.455 88.077L32.9395 63.7262Z" fill="url(#paint4_linear_39_62420)"/>
<g style="mix-blend-mode:multiply" opacity="0.6">
<path d="M36.2534 62.9818L48.0984 32.586C48.6687 31.1201 50.0843 30.1539 51.6576 30.1539H81.4262C83.0062 30.1539 84.4252 31.1268 84.9921 32.6028L96.6593 62.9818L85.1229 27.4736H47.7898L36.2534 62.9818Z" fill="#892334"/>
</g>
<path d="M45.7456 24.3271L47.7919 27.4771H85.125L87.1713 24.3271H45.7456Z" fill="#681D15"/>
<g style="mix-blend-mode:multiply" opacity="0.35">
<path d="M30.4011 48.7988L26.3991 63.7804C26.0871 65.0719 26.701 66.7827 27.7644 67.5811L66.4527 96.7626L24.6748 66.4104L30.3977 48.7988H30.4011Z" fill="#9E2C19"/>
</g>
<g style="mix-blend-mode:multiply" opacity="0.6">
<path d="M36.2534 62.9824L65.0693 82.392C65.8341 82.9053 67.082 82.9053 67.8468 82.392L96.6627 62.9824L66.458 84.9247L36.2534 62.9824Z" fill="#892334"/>
</g>
<g style="mix-blend-mode:multiply" opacity="0.35">
<path d="M66.4551 96.7623L103.657 68.0269C106.261 66.098 106.821 65.6787 105.65 61.9853L97.8875 34.5684L108.233 66.41L66.4551 96.7623Z" fill="#9E2C19"/>
</g>
<path d="M47.9946 74.6627L66.4549 88.0776L91.3861 69.9629L66.4582 89.2148L47.9946 74.6627Z" fill="#FFF5CC"/>
<path d="M65.0586 17.2988H92.2776L97.8899 34.5682L91.2411 18.2549L65.0586 17.2988Z" fill="#FFF5CC"/>
<g style="mix-blend-mode:screen">
<path d="M75.8878 17.2988C75.663 19.5363 76.6392 22.0422 78.5211 24.3267H87.1658L89.3027 30.9084C92.0132 31.5726 94.6029 31.5927 96.7264 31.0123L92.2715 17.2988H75.8844H75.8878Z" fill="#FFF2BB"/>
</g>
<g style="mix-blend-mode:screen">
<path d="M45.7511 73.0322C45.097 74.7129 46.2812 77.2221 48.6596 78.9497C51.038 80.6773 53.7887 81.0262 55.1842 79.8856L45.7511 73.0322Z" fill="#FFF2BB"/>
</g>
<g style="mix-blend-mode:screen">
<path d="M55.2442 84.4744C54.845 85.085 53.7447 85.0749 52.782 84.4476C51.8192 83.8203 51.363 82.8173 51.7622 82.2067C52.1614 81.5962 53.2617 81.6063 54.2244 82.2336C55.1872 82.8609 55.6434 83.8639 55.2442 84.4744Z" fill="#FFF2BB"/>
</g>
<path d="M36.5657 17.6414L34.9857 30.7142C31.2454 30.6941 28.1189 30.6773 22.5 30.684C2.60399 30.7075 2.5 17.5811 2.5 17.5811L36.5657 17.6448V17.6414Z" fill="#681D15"/>
<path d="M36.5657 17.6414L33.2045 27.8528C29.4641 27.8326 28.8502 27.8192 23.2313 27.8226C3.33529 27.8494 2.5 17.5811 2.5 17.5811L36.5657 17.6448V17.6414Z" fill="url(#paint5_radial_39_62420)"/>
<path d="M31.5243 33.1633L29.9677 46.2395C26.2274 46.2194 30.7762 46.2361 25.1573 46.2395C5.26126 46.263 5.13379 33.0996 5.13379 33.0996L31.5243 33.1633Z" fill="#681D15"/>
<path d="M31.5238 33.1633L28.1994 43.3982C24.4591 43.378 31.5238 43.3646 25.9049 43.368C6.00891 43.3915 5.13672 33.0996 5.13672 33.0996L31.5272 33.1633H31.5238Z" fill="url(#paint6_radial_39_62420)"/>
<path d="M26.4866 48.6811L12.4678 48.624C12.4678 48.624 14.6684 58.4664 24.9233 61.7606L26.4866 48.6844V48.6811Z" fill="#681D15"/>
<path d="M26.4866 48.6811L12.4678 48.624C12.4678 48.624 12.9005 55.625 23.1555 58.9192L26.4866 48.6844V48.6811Z" fill="url(#paint7_radial_39_62420)"/>
<path d="M36.564 17.6416L38.2446 20.8855L34.984 30.7144L33.2061 27.8529L36.564 17.6416Z" fill="#9E2C19"/>
<path d="M31.5246 33.1631L33.2086 36.3768L29.9681 46.2392L28.2002 43.3979L31.5246 33.1631Z" fill="#9E2C19"/>
<path d="M26.4787 48.6846L28.1593 51.8949L24.9222 61.7574L23.1543 58.916L26.4787 48.6846Z" fill="#9E2C19"/>
<path d="M96.354 17.6419L97.934 30.7147C101.674 30.6945 104.801 30.6778 110.42 30.6845C130.316 30.7079 130.42 17.5781 130.42 17.5781L96.354 17.6419Z" fill="#681D15"/>
<path d="M96.354 17.6419L99.7153 27.8532C103.456 27.8331 104.07 27.8197 109.688 27.823C129.584 27.8465 130.42 17.5781 130.42 17.5781L96.354 17.6419Z" fill="url(#paint8_radial_39_62420)"/>
<path d="M101.396 33.1624L102.953 46.2385C106.693 46.2184 102.144 46.2352 107.763 46.2385C127.659 46.262 127.784 33.0986 127.784 33.0986L101.393 33.1624H101.396Z" fill="#681D15"/>
<path d="M101.396 33.1624L104.721 43.3972C108.461 43.3771 101.396 43.3636 107.015 43.367C126.911 43.3905 127.784 33.0986 127.784 33.0986L101.393 33.1624H101.396Z" fill="url(#paint9_radial_39_62420)"/>
<path d="M106.439 48.6811L120.458 48.624C120.458 48.624 118.257 58.4664 108.002 61.7606L106.439 48.6844V48.6811Z" fill="#681D15"/>
<path d="M106.439 48.6811L120.458 48.624C120.458 48.624 120.025 55.625 109.77 58.9192L106.439 48.6844V48.6811Z" fill="url(#paint10_radial_39_62420)"/>
<path style="mix-blend-mode:screen" d="M96.354 17.6419L99.7153 27.8532C103.456 27.8331 104.07 27.8197 109.688 27.823C129.584 27.8465 130.42 17.5781 130.42 17.5781L96.354 17.6419Z" fill="url(#paint11_linear_39_62420)"/>
<path style="mix-blend-mode:screen" d="M101.396 33.1624L104.721 43.3972C108.461 43.3771 101.396 43.3636 107.015 43.367C126.911 43.3905 127.784 33.0986 127.784 33.0986L101.393 33.1624H101.396Z" fill="url(#paint12_linear_39_62420)"/>
<path style="mix-blend-mode:screen" d="M106.439 48.6811L120.458 48.624C120.458 48.624 120.025 55.625 109.77 58.9192L106.439 48.6844V48.6811Z" fill="url(#paint13_linear_39_62420)"/>
<path d="M96.355 17.6416L94.6777 20.8855L97.935 30.7144L99.7163 27.8529L96.355 17.6416Z" fill="#9E2C19"/>
<path d="M101.394 33.1631L99.7134 36.3768L102.951 46.2392L104.718 43.3979L101.394 33.1631Z" fill="#9E2C19"/>
<path d="M106.44 48.6846L104.759 51.8949L108 61.7574L109.764 58.916L106.44 48.6846Z" fill="#9E2C19"/>
<path style="mix-blend-mode:screen" d="M36.5657 17.6419L2.5 17.5781C2.5 17.5781 3.33529 27.8465 23.2313 27.823C28.8502 27.8163 29.4641 27.8331 33.2045 27.8532L36.5657 17.6419Z" fill="url(#paint14_linear_39_62420)"/>
<path style="mix-blend-mode:screen" d="M26.4866 48.6811L12.4678 48.624C12.4678 48.624 12.9005 55.625 23.1555 58.9192L26.4866 48.6844V48.6811Z" fill="url(#paint15_linear_39_62420)"/>
<path style="mix-blend-mode:screen" d="M28.1992 43.3982L30.1583 37.3633C27.4914 38.2355 24.9587 39.3827 22.634 40.8051C21.6712 41.3955 20.5407 42.1201 19.3096 42.9352C21.2351 43.2137 23.4223 43.3713 25.9047 43.368C31.5236 43.3613 24.4588 43.378 28.1992 43.3982Z" fill="url(#paint16_linear_39_62420)"/>
<g style="mix-blend-mode:multiply" opacity="0.35">
<path d="M31.3442 45.9033L40.0694 20.8849C40.9718 18.3455 41.626 17.6779 44.3197 17.5806L66.4565 17.2988H40.6364L31.3408 45.9033H31.3442Z" fill="#9E2C19"/>
</g>
<g style="mix-blend-mode:screen">
<path d="M74.2607 21.2035C72.4559 19.8919 70.2822 19.808 69.4033 21.0157C68.7726 21.8811 68.9839 23.176 69.8192 24.3233H76.2902C76.1896 23.2666 75.4583 22.0724 74.2607 21.2035Z" fill="#FFF2BB"/>
</g>
<g style="mix-blend-mode:multiply" opacity="0.6">
<path d="M77.0574 58.1015L82.3979 48.8496V46.0183L71.7169 48.8496L66.3764 39.5977L61.036 48.8496L50.355 46.0183V48.8496L55.6955 58.1015L50.355 64.5188V67.3501H61.036L66.3764 76.602L71.7169 67.3501H82.3979V64.5188L77.0574 58.1015Z" fill="#892334"/>
</g>
<path d="M77.0574 55.27L82.3979 46.0181V42.5595L71.7169 46.0181L66.3764 36.7695L61.036 46.0181L50.355 42.5595V46.0181L55.6955 55.27L50.355 61.06V64.5186H61.036L66.3764 73.7705L71.7169 64.5186H82.3979V61.06L77.0574 55.27Z" fill="#9E2C19"/>
<path d="M77.0574 51.8081L82.3979 42.5595H71.7169L66.3764 33.3076L61.036 42.5595H50.355L55.6955 51.8081L50.355 61.06H61.036L66.3764 70.312L71.7169 61.06H82.3979L77.0574 51.8081Z" fill="url(#paint17_radial_39_62420)"/>
<path d="M82.3997 61.0596H71.7188V64.5181H82.3997V61.0596Z" fill="#681D15"/>
<path d="M61.036 64.5181L66.3764 73.7701V70.3115L61.036 61.0596H50.355V64.5181H61.036Z" fill="#681D15"/>
<path style="mix-blend-mode:screen" d="M62.73 39.624L61.036 42.5593H50.355L55.6955 51.8112L50.355 61.0631H61.036L66.3764 70.3151L71.7169 61.0631H82.3979L77.0574 51.8112L77.6545 50.778C73.3775 45.877 68.2449 42.1735 62.73 39.624Z" fill="url(#paint18_linear_39_62420)"/>
<path d="M50.355 42.5596L55.6955 51.8081L54.6958 53.5391L50.355 46.0181V42.5596Z" fill="#681D15"/>
<g style="mix-blend-mode:multiply" opacity="0.35">
<path d="M50.355 42.5596L56.628 50.5099C57.3426 51.4693 57.5606 51.8115 56.628 53.1131L50.355 61.0634L55.6955 51.8115L50.355 42.5596Z" fill="#9E2C19"/>
</g>
<g style="mix-blend-mode:screen" opacity="0.8">
<path d="M66.377 33.3076L71.5296 43.4686L82.3984 42.5595H71.7174L66.377 33.3076Z" fill="#FFE67B"/>
</g>
<g style="mix-blend-mode:screen" opacity="0.5">
<path d="M50.355 61.0605L62.039 60.0508L66.3764 70.3124L61.036 61.0605H50.355Z" fill="#FFE67B"/>
</g>
<g style="mix-blend-mode:multiply" opacity="0.35">
<path d="M66.377 70.3124L70.5467 60.1077C70.9996 59.1349 71.6 59.0276 72.2911 59.1584L82.3984 61.0638H71.7174L66.377 70.3157V70.3124Z" fill="#9E2C19"/>
</g>
<path style="mix-blend-mode:screen" d="M79.6804 47.266L82.3976 42.5596H73.8804C75.8797 44.0289 77.8187 45.5988 79.6771 47.266H79.6804Z" fill="url(#paint19_linear_39_62420)"/>
<path style="mix-blend-mode:screen" d="M70.2802 40.0671L66.3788 33.3076L64.46 36.6287C66.4358 37.682 68.3781 38.8293 70.2802 40.0637V40.0671Z" fill="url(#paint20_linear_39_62420)"/>
<path d="M70.2701 51.4396C69.4415 52.8754 66.986 53.0129 64.7887 51.7449C62.5915 50.4768 61.4845 48.2829 62.313 46.8472C63.1416 45.4114 65.5972 45.2739 67.7944 46.5419C69.9917 47.8099 71.0987 50.0038 70.2701 51.4396Z" fill="#FCE265"/>
<path d="M62.3267 52.3182C62.0617 52.7778 61.1861 52.7711 60.3743 52.3015C59.5625 51.8318 59.1164 51.0804 59.3847 50.6175C59.6497 50.1579 60.5253 50.1646 61.3371 50.6342C62.1489 51.1039 62.5951 51.8553 62.3267 52.3182Z" fill="#FCE265"/>
<g style="mix-blend-mode:multiply" opacity="0.35">
<path fill-rule="evenodd" clip-rule="evenodd" d="M104.066 27.0747C101.798 26.8499 100.215 26.028 99.1819 23.9952L96.354 17.6416L99.7153 27.8529C103.456 27.8328 104.07 27.816 109.688 27.8227C112.859 27.8261 115.542 27.5678 117.82 27.1317C112.889 27.7255 107.827 27.447 104.066 27.0713V27.0747Z" fill="#9E2C19"/>
</g>
<g style="mix-blend-mode:multiply" opacity="0.35">
<path fill-rule="evenodd" clip-rule="evenodd" d="M107.015 43.3677C111.829 43.3744 115.526 42.774 118.371 41.8649C114.281 43.0021 110.85 42.9216 108.233 42.7639C106.435 42.6532 104.972 41.3315 104.211 39.7012L101.396 33.1631L104.721 43.3979C108.461 43.3778 101.396 43.3644 107.015 43.3677Z" fill="#9E2C19"/>
</g>
<g style="mix-blend-mode:multiply" opacity="0.35">
<path fill-rule="evenodd" clip-rule="evenodd" d="M109.766 58.9165C111.987 58.2019 113.745 57.3163 115.14 56.3636C113.49 56.9909 110.39 57.4438 110.39 57.4438L106.442 48.6816V48.6917L109.766 58.9165Z" fill="#9E2C19"/>
</g>
<g style="mix-blend-mode:multiply" opacity="0.35">
<path d="M23.2313 27.8231C28.8502 27.8164 29.4641 27.8332 33.2045 27.8533L35.868 19.7621L33.8888 24.1801C32.9394 26.5081 32.3759 27.273 30.0512 27.2965C27.5453 27.32 22.8254 27.2663 20.4302 27.1723C9.98407 26.7631 3.83177 22.2478 2.5 17.585C2.5 17.585 3.33529 27.8533 23.2313 27.8298V27.8231Z" fill="#9E2C19"/>
</g>
<g style="mix-blend-mode:multiply" opacity="0.35">
<path d="M28.646 40.3789C28.0153 41.704 27.3343 42.8143 25.8684 42.7607C24.3521 42.707 20.0884 42.6768 17.6564 42.1267C12.0073 40.8519 8.63255 38.7486 6.34473 36.1656C8.2669 39.1948 13.2149 43.3779 25.9086 43.3645C31.5275 43.3578 24.4628 43.3746 28.2032 43.3947L30.9539 34.9277L28.646 40.3789Z" fill="#9E2C19"/>
</g>
<g style="mix-blend-mode:multiply" opacity="0.35">
<path d="M23.1555 58.9163L26.0605 49.9898C25.5171 51.127 24.4369 53.7603 23.3366 56.1991C22.5885 57.8596 21.8774 57.6483 20.7234 57.1686C15.0005 54.7868 13.6821 51.9488 12.4678 48.6211C12.4678 48.6211 12.9005 55.6221 23.1555 58.9163Z" fill="#9E2C19"/>
</g>
<path d="M96.354 17.6414L127.508 18.1748C128.759 18.1949 129.343 19.1342 128.799 20.2647C128.236 21.4422 127.323 22.8477 125.827 24.0621C130.128 21.1403 130.42 17.5811 130.42 17.5811L96.354 17.6448V17.6414Z" fill="#FFF5CC"/>
<path d="M101.396 33.1629L124.379 33.703C127.062 33.7634 126.63 34.9006 125.928 36.2961C125.496 37.1582 124.905 38.1009 124.127 38.8858C127.525 36.1217 127.784 33.1025 127.784 33.1025L101.393 33.1663L101.396 33.1629Z" fill="#FFF5CC"/>
<path d="M118.045 53.7699C120.303 51.0829 120.454 48.624 120.454 48.624L106.459 48.6811H106.442L118.012 49.1708C119.723 49.2748 119.411 49.9189 119.213 50.7475C118.981 51.7035 118.602 52.8273 118.042 53.7666L118.045 53.7699Z" fill="#FFF5CC"/>
<g style="mix-blend-mode:screen" opacity="0.5">
<path d="M11.5557 17.5811L36.5674 17.6448L35.7254 20.201C35.7254 18.8927 35.1048 18.2285 33.5952 18.2117L11.5557 17.5811Z" fill="#FFE67B"/>
</g>
<g style="mix-blend-mode:screen" opacity="0.5">
<path d="M11.5557 33.1631H31.5255L30.6063 35.9944L30.7036 35.0551C30.7539 34.1661 30.4386 33.7032 28.8217 33.6227L11.559 33.1631H11.5557Z" fill="#FFE67B"/>
</g>
<g style="mix-blend-mode:screen" opacity="0.5">
<path d="M15.1625 48.6338L26.4809 48.6808L25.6188 51.3208L25.5651 50.0964C25.5349 49.4121 25.347 49.1772 24.4145 49.1168L15.1592 48.6371L15.1625 48.6338Z" fill="#FFE67B"/>
</g>
<g style="mix-blend-mode:screen">
<path d="M99.7153 27.8524C102.127 27.839 103.241 27.829 105.23 27.8256C108.759 25.6149 111.108 22.3308 111.44 18.5066C111.466 18.208 111.473 17.9128 111.476 17.6143L96.3574 17.6411L99.7187 27.8524H99.7153Z" fill="#FFF2BB"/>
</g>
<path style="mix-blend-mode:screen" d="M5.13672 33.1025C5.13672 33.1025 5.28097 34.7698 6.74356 36.759C8.91397 35.5313 11.336 34.2766 13.919 33.126L5.13672 33.1059V33.1025Z" fill="url(#paint21_linear_39_62420)"/>
<path style="mix-blend-mode:color-dodge" opacity="0.5" d="M88.4167 49.8021C102.169 49.8021 113.318 38.6535 113.318 24.901C113.318 11.1486 102.169 0 88.4167 0C74.6642 0 63.5156 11.1486 63.5156 24.901C63.5156 38.6535 74.6642 49.8021 88.4167 49.8021Z" fill="url(#paint22_radial_39_62420)"/>
<path style="mix-blend-mode:color-dodge" opacity="0.5" d="M50.3539 99.9998C61.1458 99.9998 69.8943 91.2512 69.8943 80.4594C69.8943 69.6675 61.1458 60.9189 50.3539 60.9189C39.562 60.9189 30.8135 69.6675 30.8135 80.4594C30.8135 91.2512 39.562 99.9998 50.3539 99.9998Z" fill="url(#paint23_radial_39_62420)"/>
<defs>
<radialGradient id="paint0_radial_39_62420" cx="0" cy="0" r="1" gradientUnits="userSpaceOnUse" gradientTransform="translate(88.7804 19.9523) scale(66.2764 66.2764)">
<stop offset="0.01" stop-color="#E8B321"/>
<stop offset="1" stop-color="#E36C0B"/>
</radialGradient>
<radialGradient id="paint1_radial_39_62420" cx="0" cy="0" r="1" gradientUnits="userSpaceOnUse" gradientTransform="translate(100.835 10.9289) scale(91.6907 91.6907)">
<stop offset="0.01" stop-color="#E8B321"/>
<stop offset="1" stop-color="#E36C0B"/>
</radialGradient>
<linearGradient id="paint2_linear_39_62420" x1="104.793" y1="4.40425" x2="63.2332" y2="55.6689" gradientUnits="userSpaceOnUse">
<stop stop-color="#FFE969"/>
<stop offset="0.11" stop-color="#FEE366"/>
<stop offset="0.24" stop-color="#FBD45F"/>
<stop offset="0.38" stop-color="#F6BC54"/>
<stop offset="0.53" stop-color="#F09945"/>
<stop offset="0.69" stop-color="#E86D31"/>
<stop offset="0.85" stop-color="#DE3719"/>
<stop offset="1" stop-color="#D40000"/>
</linearGradient>
<linearGradient id="paint3_linear_39_62420" x1="38.616" y1="87.4363" x2="74.9461" y2="41.8945" gradientUnits="userSpaceOnUse">
<stop stop-color="#D40000"/>
<stop offset="1" stop-color="#FFE447"/>
</linearGradient>
<linearGradient id="paint4_linear_39_62420" x1="66.4551" y1="57.1747" x2="66.4551" y2="71.019" gradientUnits="userSpaceOnUse">
<stop offset="0.63" stop-color="#F7D24A"/>
<stop offset="1" stop-color="#F7E399"/>
</linearGradient>
<radialGradient id="paint5_radial_39_62420" cx="0" cy="0" r="1" gradientUnits="userSpaceOnUse" gradientTransform="translate(47.9713 6.92691) scale(73.5558 73.5558)">
<stop offset="0.01" stop-color="#E8B321"/>
<stop offset="1" stop-color="#E36C0B"/>
</radialGradient>
<radialGradient id="paint6_radial_39_62420" cx="0" cy="0" r="1" gradientUnits="userSpaceOnUse" gradientTransform="translate(47.9713 6.92718) scale(73.5558 73.5559)">
<stop offset="0.01" stop-color="#E8B321"/>
<stop offset="1" stop-color="#E36C0B"/>
</radialGradient>
<radialGradient id="paint7_radial_39_62420" cx="0" cy="0" r="1" gradientUnits="userSpaceOnUse" gradientTransform="translate(47.9726 6.9266) scale(73.5558 73.5559)">
<stop offset="0.01" stop-color="#E8B321"/>
<stop offset="1" stop-color="#E36C0B"/>
</radialGradient>
<radialGradient id="paint8_radial_39_62420" cx="0" cy="0" r="1" gradientUnits="userSpaceOnUse" gradientTransform="translate(92.6002 18.873) scale(76.0181 76.0181)">
<stop offset="0.01" stop-color="#E8B321"/>
<stop offset="1" stop-color="#E36C0B"/>
</radialGradient>
<radialGradient id="paint9_radial_39_62420" cx="0" cy="0" r="1" gradientUnits="userSpaceOnUse" gradientTransform="translate(92.6007 18.8719) scale(76.0181 76.0181)">
<stop offset="0.01" stop-color="#E8B321"/>
<stop offset="1" stop-color="#E36C0B"/>
</radialGradient>
<radialGradient id="paint10_radial_39_62420" cx="0" cy="0" r="1" gradientUnits="userSpaceOnUse" gradientTransform="translate(92.6013 18.8723) scale(76.0181 76.0181)">
<stop offset="0.01" stop-color="#E8B321"/>
<stop offset="1" stop-color="#E36C0B"/>
</radialGradient>
<linearGradient id="paint11_linear_39_62420" x1="117.692" y1="12.5026" x2="77.5013" y2="67.1252" gradientUnits="userSpaceOnUse">
<stop stop-color="#FFE969"/>
<stop offset="0.11" stop-color="#FEE366"/>
<stop offset="0.24" stop-color="#FBD45F"/>
<stop offset="0.38" stop-color="#F6BC54"/>
<stop offset="0.53" stop-color="#F09945"/>
<stop offset="0.69" stop-color="#E86D31"/>
<stop offset="0.85" stop-color="#DE3719"/>
<stop offset="1" stop-color="#D40000"/>
</linearGradient>
<linearGradient id="paint12_linear_39_62420" x1="125.878" y1="18.5263" x2="85.6903" y2="73.149" gradientUnits="userSpaceOnUse">
<stop stop-color="#FFE969"/>
<stop offset="0.11" stop-color="#FEE366"/>
<stop offset="0.24" stop-color="#FBD45F"/>
<stop offset="0.38" stop-color="#F6BC54"/>
<stop offset="0.53" stop-color="#F09945"/>
<stop offset="0.69" stop-color="#E86D31"/>
<stop offset="0.85" stop-color="#DE3719"/>
<stop offset="1" stop-color="#D40000"/>
</linearGradient>
<linearGradient id="paint13_linear_39_62420" x1="132.652" y1="23.5083" x2="92.4604" y2="78.1309" gradientUnits="userSpaceOnUse">
<stop stop-color="#FFE969"/>
<stop offset="0.11" stop-color="#FEE366"/>
<stop offset="0.24" stop-color="#FBD45F"/>
<stop offset="0.38" stop-color="#F6BC54"/>
<stop offset="0.53" stop-color="#F09945"/>
<stop offset="0.69" stop-color="#E86D31"/>
<stop offset="0.85" stop-color="#DE3719"/>
<stop offset="1" stop-color="#D40000"/>
</linearGradient>
<linearGradient id="paint14_linear_39_62420" x1="57.7935" y1="-31.5665" x2="17.6023" y2="23.0561" gradientUnits="userSpaceOnUse">
<stop stop-color="#FFE969"/>
<stop offset="0.11" stop-color="#FEE366"/>
<stop offset="0.24" stop-color="#FBD45F"/>
<stop offset="0.38" stop-color="#F6BC54"/>
<stop offset="0.53" stop-color="#F09945"/>
<stop offset="0.69" stop-color="#E86D31"/>
<stop offset="0.85" stop-color="#DE3719"/>
<stop offset="1" stop-color="#D40000"/>
</linearGradient>
<linearGradient id="paint15_linear_39_62420" x1="7.56003" y1="69.2044" x2="38.7475" y2="22.2537" gradientUnits="userSpaceOnUse">
<stop stop-color="#D40000"/>
<stop offset="1" stop-color="#FFE447"/>
</linearGradient>
<linearGradient id="paint16_linear_39_62420" x1="6.79364" y1="68.6984" x2="37.9845" y2="21.7477" gradientUnits="userSpaceOnUse">
<stop stop-color="#D40000"/>
<stop offset="1" stop-color="#FFE447"/>
</linearGradient>
<radialGradient id="paint17_radial_39_62420" cx="0" cy="0" r="1" gradientUnits="userSpaceOnUse" gradientTransform="translate(94.5482 18.7085) scale(75.6592)">
<stop offset="0.01" stop-color="#E8B321"/>
<stop offset="1" stop-color="#E36C0B"/>
</radialGradient>
<linearGradient id="paint18_linear_39_62420" x1="49.6874" y1="76.9806" x2="80.2946" y2="30.8183" gradientUnits="userSpaceOnUse">
<stop stop-color="#D40000"/>
<stop offset="1" stop-color="#FFE447"/>
</linearGradient>
<linearGradient id="paint19_linear_39_62420" x1="99.9287" y1="10.2717" x2="63.347" y2="65.0185" gradientUnits="userSpaceOnUse">
<stop stop-color="#FFE969"/>
<stop offset="0.11" stop-color="#FEE366"/>
<stop offset="0.24" stop-color="#FBD45F"/>
<stop offset="0.38" stop-color="#F6BC54"/>
<stop offset="0.53" stop-color="#F09945"/>
<stop offset="0.69" stop-color="#E86D31"/>
<stop offset="0.85" stop-color="#DE3719"/>
<stop offset="1" stop-color="#D40000"/>
</linearGradient>
<linearGradient id="paint20_linear_39_62420" x1="90.2869" y1="3.82758" x2="53.7052" y2="58.5743" gradientUnits="userSpaceOnUse">
<stop stop-color="#FFE969"/>
<stop offset="0.11" stop-color="#FEE366"/>
<stop offset="0.24" stop-color="#FBD45F"/>
<stop offset="0.38" stop-color="#F6BC54"/>
<stop offset="0.53" stop-color="#F09945"/>
<stop offset="0.69" stop-color="#E86D31"/>
<stop offset="0.85" stop-color="#DE3719"/>
<stop offset="1" stop-color="#D40000"/>
</linearGradient>
<linearGradient id="paint21_linear_39_62420" x1="57.3541" y1="-31.8924" x2="17.1629" y2="22.7335" gradientUnits="userSpaceOnUse">
<stop stop-color="#FFE969"/>
<stop offset="0.11" stop-color="#FEE366"/>
<stop offset="0.24" stop-color="#FBD45F"/>
<stop offset="0.38" stop-color="#F6BC54"/>
<stop offset="0.53" stop-color="#F09945"/>
<stop offset="0.69" stop-color="#E86D31"/>
<stop offset="0.85" stop-color="#DE3719"/>
<stop offset="1" stop-color="#D40000"/>
</linearGradient>
<radialGradient id="paint22_radial_39_62420" cx="0" cy="0" r="1" gradientUnits="userSpaceOnUse" gradientTransform="translate(88.4167 24.901) scale(24.901)">
<stop stop-color="#F4A940"/>
<stop offset="0.09" stop-color="#E69F3C"/>
<stop offset="0.27" stop-color="#C28633"/>
<stop offset="0.51" stop-color="#885E23"/>
<stop offset="0.8" stop-color="#39270F"/>
<stop offset="1"/>
</radialGradient>
<radialGradient id="paint23_radial_39_62420" cx="0" cy="0" r="1" gradientUnits="userSpaceOnUse" gradientTransform="translate(50.3539 80.4594) scale(19.5404 19.5404)">
<stop stop-color="#F4A940"/>
<stop offset="0.09" stop-color="#E69F3C"/>
<stop offset="0.27" stop-color="#C28633"/>
<stop offset="0.51" stop-color="#885E23"/>
<stop offset="0.8" stop-color="#39270F"/>
<stop offset="1"/>
</radialGradient>
</defs>
</svg>
