<svg width="427" height="48" viewBox="0 0 427 48" fill="none" xmlns="http://www.w3.org/2000/svg">
<g clip-path="url(#clip0_236_12929)">
<path fill-rule="evenodd" clip-rule="evenodd" d="M5.85647 23.5068C5.85647 19.9043 5.85647 16.0921 6.11184 12.4439L0.484631 10.2733C0.238384 12.9456 0.0742188 17.8705 0.0742188 23.516C0.0742188 29.1614 0.238384 34.0864 0.484631 36.7586L6.11184 34.5788C5.86559 30.9307 5.85647 27.1185 5.85647 23.516V23.5068Z" fill="url(#paint0_radial_236_12929)"/>
<path fill-rule="evenodd" clip-rule="evenodd" d="M6.11158 12.4439C7.11481 11.24 8.32781 10.027 9.34016 9.00557C10.3252 8.02058 11.4925 6.8623 12.6508 5.87731L10.5988 0.14978C9.404 0.997966 7.40666 2.7673 5.25428 4.91968C3.10189 7.07207 1.33256 9.07853 0.484375 10.2733L6.11158 12.453V12.4439Z" fill="url(#paint1_radial_236_12929)"/>
<path fill-rule="evenodd" clip-rule="evenodd" d="M12.6608 5.8773C21.5348 5.6493 30.418 5.54897 39.3011 5.46689C52.6805 5.33921 66.06 5.29361 79.4485 5.29361C92.8371 5.29361 106.207 5.33921 119.596 5.46689C128.47 5.54897 137.362 5.6493 146.236 5.8773L148.288 0.149772C134.389 -0.23328 108.77 -0.488647 79.4577 -0.488647C50.1451 -0.488647 24.4989 -0.23328 10.5996 0.149772L12.6517 5.8773H12.6608Z" fill="url(#paint2_radial_236_12929)"/>
<path fill-rule="evenodd" clip-rule="evenodd" d="M146.217 41.1362C137.343 41.3642 128.46 41.4646 119.577 41.5466C106.198 41.6743 92.8182 41.7199 79.4297 41.7199C66.0411 41.7199 52.6708 41.6743 39.2822 41.5466C30.4082 41.4646 21.5159 41.3642 12.6419 41.1362L10.5898 46.8638C24.4891 47.2468 50.108 47.5022 79.4205 47.5022C108.733 47.5022 134.361 47.2468 148.251 46.8638L146.199 41.1362H146.217Z" fill="url(#paint3_radial_236_12929)"/>
<path fill-rule="evenodd" clip-rule="evenodd" d="M12.6606 41.1362C11.5023 40.1512 10.3258 38.9838 9.34993 38.0079C8.33758 36.9956 7.12458 35.7735 6.12135 34.5696L0.494141 36.7493C1.34233 37.9441 3.11166 39.9414 5.26404 42.0938C7.41643 44.2462 9.42289 46.0155 10.6085 46.8637L12.6606 41.1362Z" fill="url(#paint4_radial_236_12929)"/>
<path style="mix-blend-mode:screen" fill-rule="evenodd" clip-rule="evenodd" d="M79.4381 45.5506C42.5557 45.5506 12.6595 43.5806 12.6595 41.1455L10.6074 46.873C24.5067 47.2561 50.1256 47.5115 79.4381 47.5115C108.751 47.5115 134.379 47.2561 148.269 46.873L146.217 41.1455C146.217 43.5806 116.321 45.5506 79.4381 45.5506Z" fill="url(#paint5_radial_236_12929)"/>
<path style="mix-blend-mode:multiply" fill-rule="evenodd" clip-rule="evenodd" d="M10.5988 0.14978C12.4137 6.96262 5.38196 11.8967 0.484375 10.2733L6.11158 12.453C7.11481 11.2492 8.32781 10.0362 9.34016 9.01469C10.3252 8.0297 11.4925 6.87142 12.6508 5.88643L10.5988 0.14978Z" fill="url(#paint6_radial_236_12929)"/>
<g style="mix-blend-mode:screen">
<path fill-rule="evenodd" clip-rule="evenodd" d="M12.6595 5.87735C21.5336 5.64935 30.4167 5.54902 39.2999 5.46694C52.6793 5.33926 66.0587 5.29366 79.4473 5.29366C92.8359 5.29366 106.206 5.33926 119.595 5.46694C120.406 5.46694 121.218 5.48518 122.03 5.4943C86.1051 4.8194 49.4872 4.60052 13.1885 5.22069L12.7781 4.96533C12.085 3.46048 11.4739 2.1198 10.7808 0.605835C11.1912 2.211 11.5104 3.70673 11.9117 5.30278L11.8022 5.80439C10.2974 7.61933 8.13589 9.81731 6.09295 11.687L5.60046 11.7964C4.07737 11.3313 2.63637 10.9665 1.11328 10.5013C2.54516 11.158 3.88584 11.8238 5.32685 12.4804L5.58222 12.8908C5.47277 20.0411 5.46365 27.0911 5.58222 34.0043L5.33597 34.4329C4.44218 34.9163 3.6396 35.3906 2.74581 35.8739C3.7308 35.6186 4.67931 35.427 5.6643 35.1717L6.14767 35.3085C8.08117 37.242 10.1697 39.2667 12.0667 41.2093L12.1944 41.6927C12.0029 42.4679 11.8752 43.0789 11.6746 43.8815C12.0485 43.1519 12.4407 42.5409 12.8055 41.8112L13.225 41.5559C28.6839 41.8842 48.6573 41.9024 64.0888 41.7018C57.2942 41.6744 46.0854 41.6106 39.2907 41.5467C30.4167 41.4647 21.5245 41.3643 12.6504 41.1363C11.4922 40.1513 10.3156 38.9839 9.33977 38.0081C8.32742 36.9957 7.11442 35.7736 6.11119 34.5697C5.86494 30.9216 5.85582 27.1093 5.85582 23.5068C5.85582 19.9043 5.85582 16.0921 6.11119 12.444C7.11442 11.2401 8.32742 10.0271 9.33977 9.00561C10.3248 8.02062 11.4922 6.86234 12.6504 5.87735H12.6595Z" fill="#00AAAB"/>
</g>
<path fill-rule="evenodd" clip-rule="evenodd" d="M10.6087 0.158892C10.9097 0.587545 41.6177 0.924995 79.4394 0.924995C117.261 0.924995 147.969 0.578424 148.27 0.158892C134.371 -0.23328 108.752 -0.488647 79.4394 -0.488647C50.1269 -0.488647 24.4989 -0.23328 10.5996 0.149772L10.6087 0.158892Z" fill="#36FFFF"/>
</g>
<g clip-path="url(#clip1_236_12929)">
<path fill-rule="evenodd" clip-rule="evenodd" d="M-4.23294 5.87718C24.6263 5.64917 53.5152 5.54885 82.4041 5.46677C125.915 5.33909 169.427 5.29348 212.968 5.29348C256.509 5.29348 299.99 5.33909 343.531 5.46677C372.39 5.54885 401.309 5.64917 430.168 5.87718L436.842 0.14965C391.64 -0.233402 308.325 -0.48877 212.997 -0.48877C117.67 -0.48877 34.2658 -0.233402 -10.9361 0.14965L-4.2626 5.87718H-4.23294Z" fill="url(#paint7_radial_236_12929)"/>
<path fill-rule="evenodd" clip-rule="evenodd" d="M430.1 41.1362C401.24 41.3642 372.351 41.4646 343.463 41.5466C299.951 41.6743 256.44 41.7199 212.899 41.7199C169.358 41.7199 125.876 41.6743 82.3355 41.5466C53.4762 41.4646 24.5577 41.3642 -4.30156 41.1362L-10.9751 46.8638C34.2268 47.2468 117.542 47.5022 212.869 47.5022C308.197 47.5022 391.541 47.2468 436.714 46.8638L430.04 41.1362H430.1Z" fill="url(#paint8_radial_236_12929)"/>
<path style="mix-blend-mode:screen" fill-rule="evenodd" clip-rule="evenodd" d="M212.932 45.5506C92.9864 45.5506 -4.23922 43.5806 -4.23922 41.1455L-10.9127 46.873C34.2892 47.2561 117.604 47.5115 212.932 47.5115C308.259 47.5115 391.604 47.2561 436.776 46.873L430.103 41.1455C430.103 43.5806 332.877 45.5506 212.932 45.5506Z" fill="url(#paint9_radial_236_12929)"/>
<g style="mix-blend-mode:screen">
<path fill-rule="evenodd" clip-rule="evenodd" d="M-4.23647 5.87723C24.6228 5.64922 53.5116 5.5489 82.4005 5.46682C125.912 5.33913 169.423 5.29353 212.964 5.29353C256.505 5.29353 299.987 5.33913 343.528 5.46682C346.167 5.46682 348.807 5.48506 351.447 5.49418C234.616 4.81928 115.531 4.60039 -2.51618 5.22057L-3.85089 4.9652C-6.10505 3.46036 -8.09227 2.11968 -10.3464 0.605713C-9.01174 2.21088 -7.97363 3.70661 -6.66859 5.30265L-7.02451 5.80427C-11.9184 7.6192 -18.9478 9.81719 -25.5917 11.6868L-27.1933 11.7963C-32.1466 11.3312 -36.8329 10.9663 -41.7861 10.5012C-37.1295 11.1579 -32.7694 11.8236 -28.0831 12.4803L-27.2527 12.8907C-27.6086 20.041 -27.6382 27.091 -27.2527 34.0042L-28.0535 34.4328C-30.9602 34.9162 -33.5703 35.3904 -36.4769 35.8738C-33.2737 35.6184 -30.189 35.4269 -26.9857 35.1715L-25.4137 35.3084C-19.1258 37.2419 -12.3337 39.2666 -6.16437 41.2092L-5.74913 41.6925C-6.37199 42.4678 -6.78723 43.0788 -7.43975 43.8814C-6.22369 43.1518 -4.94831 42.5407 -3.76191 41.8111L-2.39754 41.5557C47.8762 41.8841 112.832 41.9023 163.017 41.7017C140.92 41.6743 104.468 41.6105 82.3709 41.5466C53.5117 41.4645 24.5931 41.3642 -4.26613 41.1362C-8.03295 40.1512 -11.8591 38.9838 -15.0327 38.008C-18.325 36.9956 -22.2698 35.7735 -25.5324 34.5696C-26.3332 30.9215 -26.3629 27.1092 -26.3629 23.5067C-26.3629 19.9042 -26.3629 16.0919 -25.5324 12.4438C-22.2698 11.24 -18.325 10.027 -15.0327 9.00548C-11.8294 8.0205 -8.03295 6.86222 -4.26613 5.87723H-4.23647Z" fill="#00AAAB"/>
</g>
<path fill-rule="evenodd" clip-rule="evenodd" d="M451.405 34.5697C448.142 35.7736 444.197 36.9866 440.905 38.0081C437.702 38.9931 433.905 40.1513 430.138 41.1363C401.279 41.3643 372.39 41.4647 343.501 41.5467C326.15 41.6015 308.829 41.6379 291.478 41.6653C337.154 41.72 382.831 41.7109 428.567 41.6015L429.872 41.8659C432.007 43.3982 434.172 44.9304 436.308 46.4626C434.765 44.8848 433.223 43.3161 431.681 41.7383L432.037 41.2458C438.236 39.1755 444.583 37.1599 451.138 35.199L452.71 35.0805C456.773 35.4453 460.866 35.8101 464.93 36.1749C461.133 35.6368 457.337 35.0896 453.54 34.5515L452.71 34.1411C453.481 27.0729 453.481 20.0047 452.71 12.9364L453.511 12.5169C457.129 11.9697 460.718 11.4316 464.337 10.8844C460.362 11.2583 456.684 11.614 452.739 11.9879L451.197 11.8602C445.71 10.0818 439.541 8.43103 433.49 6.80762C436.1 7.54636 438.592 8.31246 440.816 8.99648C444.108 10.0088 448.053 11.2309 451.316 12.4348C452.117 16.0829 452.146 19.8952 452.146 23.4977C452.146 27.1002 452.146 30.9125 451.316 34.5606L451.405 34.5697Z" fill="#6ED3A0"/>
<path fill-rule="evenodd" clip-rule="evenodd" d="M-10.9065 0.15877C-9.92767 0.587423 89.9377 0.924873 212.938 0.924873C335.938 0.924873 435.804 0.578302 436.782 0.15877C391.58 -0.233402 308.265 -0.48877 212.938 -0.48877C117.611 -0.48877 34.2658 -0.233402 -10.9361 0.14965L-10.9065 0.15877Z" fill="#36FFFF"/>
</g>
<g clip-path="url(#clip2_236_12929)">
<path fill-rule="evenodd" clip-rule="evenodd" d="M280.661 5.8773C289.535 5.6493 298.418 5.54897 307.301 5.46689C320.681 5.33921 334.06 5.29361 347.449 5.29361C360.837 5.29361 374.207 5.33921 387.596 5.46689C396.47 5.54897 405.362 5.6493 414.236 5.8773L416.288 0.149772C402.389 -0.23328 376.77 -0.488647 347.458 -0.488647C318.145 -0.488647 292.499 -0.23328 278.6 0.149772L280.652 5.8773H280.661Z" fill="url(#paint10_radial_236_12929)"/>
<path fill-rule="evenodd" clip-rule="evenodd" d="M414.217 5.87731C415.375 6.8623 416.552 8.0297 417.527 9.00557C418.54 10.0179 419.753 11.24 420.756 12.4439L426.383 10.2642C425.535 9.06941 423.766 7.07207 421.613 4.91968C419.461 2.7673 417.464 0.997966 416.269 0.14978L414.217 5.87731Z" fill="url(#paint11_radial_236_12929)"/>
<path fill-rule="evenodd" clip-rule="evenodd" d="M420.766 12.4439C421.012 16.092 421.021 19.9043 421.021 23.5068C421.021 27.1093 421.021 30.9216 420.766 34.5697L426.393 36.7494C426.639 34.0772 426.803 29.1522 426.803 23.5068C426.803 17.8613 426.639 12.9364 426.393 10.2642L420.766 12.4439Z" fill="url(#paint12_radial_236_12929)"/>
<path fill-rule="evenodd" clip-rule="evenodd" d="M420.766 34.5697C419.763 35.7736 418.55 36.9866 417.537 38.008C416.552 38.993 415.385 40.1513 414.227 41.1363L416.279 46.8638C417.473 46.0156 419.471 44.2463 421.623 42.0939C423.775 39.9415 425.545 37.9351 426.393 36.7495L420.766 34.5697Z" fill="#116E91"/>
<path fill-rule="evenodd" clip-rule="evenodd" d="M414.217 41.1362C405.343 41.3642 396.46 41.4646 387.577 41.5466C374.198 41.6743 360.818 41.7199 347.43 41.7199C334.041 41.7199 320.671 41.6743 307.282 41.5466C298.408 41.4646 289.516 41.3642 280.642 41.1362L278.59 46.8638C292.489 47.2468 318.108 47.5022 347.421 47.5022C376.733 47.5022 402.361 47.2468 416.251 46.8638L414.199 41.1362H414.217Z" fill="url(#paint13_radial_236_12929)"/>
<path style="mix-blend-mode:screen" fill-rule="evenodd" clip-rule="evenodd" d="M347.438 45.5506C310.556 45.5506 280.659 43.5806 280.659 41.1455L278.607 46.873C292.507 47.2561 318.126 47.5115 347.438 47.5115C376.751 47.5115 402.379 47.2561 416.269 46.873L414.217 41.1455C414.217 43.5806 384.321 45.5506 347.438 45.5506Z" fill="url(#paint14_radial_236_12929)"/>
<path style="mix-blend-mode:multiply" fill-rule="evenodd" clip-rule="evenodd" d="M416.27 0.14978C414.464 6.97174 421.486 11.8967 426.393 10.2733L420.766 12.453C419.763 11.2492 418.55 10.0362 417.537 9.01469C416.552 8.0297 415.385 6.87142 414.227 5.88643L416.279 0.158901L416.27 0.14978Z" fill="url(#paint15_radial_236_12929)"/>
<path style="mix-blend-mode:multiply" opacity="0.5" fill-rule="evenodd" clip-rule="evenodd" d="M416.27 46.873C414.464 40.051 421.486 35.126 426.393 36.7495L420.766 34.5697C419.763 35.7736 418.55 36.9866 417.537 38.008C416.552 38.993 415.385 40.1513 414.227 41.1363L416.279 46.8638L416.27 46.873Z" fill="url(#paint16_radial_236_12929)"/>
<path fill-rule="evenodd" clip-rule="evenodd" d="M420.766 34.5697C419.763 35.7736 418.55 36.9866 417.538 38.0081C416.553 38.9931 415.385 40.1513 414.227 41.1363C405.353 41.3643 396.47 41.4647 387.587 41.5467C382.251 41.6015 376.925 41.6379 371.59 41.6653C385.635 41.72 399.68 41.7109 413.744 41.6015L414.145 41.8659C414.802 43.3982 415.467 44.9304 416.124 46.4626C415.65 44.8848 415.176 43.3161 414.701 41.7383L414.811 41.2458C416.717 39.1755 418.669 37.1599 420.684 35.199L421.168 35.0805C422.417 35.4453 423.676 35.8101 424.925 36.1749C423.758 35.6368 422.59 35.0896 421.423 34.5515L421.168 34.1411C421.405 27.0729 421.405 20.0047 421.168 12.9364L421.414 12.5169C422.527 11.9697 423.63 11.4316 424.743 10.8844C423.521 11.2583 422.39 11.614 421.177 11.9879L420.703 11.8602C419.015 10.0818 417.118 8.43103 415.258 6.80762C416.06 7.54636 416.826 8.31246 417.51 8.99648C418.523 10.0088 419.736 11.2309 420.739 12.4348C420.985 16.0829 420.994 19.8952 420.994 23.4977C420.994 27.1002 420.994 30.9125 420.739 34.5606L420.766 34.5697Z" fill="#6ED3A0"/>
<path fill-rule="evenodd" clip-rule="evenodd" d="M278.609 0.158892C278.91 0.587545 309.618 0.924995 347.439 0.924995C385.261 0.924995 415.969 0.578424 416.27 0.158892C402.371 -0.23328 376.752 -0.488647 347.439 -0.488647C318.127 -0.488647 292.499 -0.23328 278.6 0.149772L278.609 0.158892Z" fill="#36FFFF"/>
</g>
<defs>
<radialGradient id="paint0_radial_236_12929" cx="0" cy="0" r="1" gradientUnits="userSpaceOnUse" gradientTransform="translate(-38.2674 -0.899023) scale(59.3091 59.3091)">
<stop stop-color="#2AD3D0"/>
<stop offset="1" stop-color="#008E91"/>
</radialGradient>
<radialGradient id="paint1_radial_236_12929" cx="0" cy="0" r="1" gradientUnits="userSpaceOnUse" gradientTransform="translate(6.31223 1.4175) scale(41.2054 41.2054)">
<stop stop-color="#2AFAFA"/>
<stop offset="1" stop-color="#008E91"/>
</radialGradient>
<radialGradient id="paint2_radial_236_12929" cx="0" cy="0" r="1" gradientUnits="userSpaceOnUse" gradientTransform="translate(42.703 -56.6513) scale(108.011 108.011)">
<stop stop-color="#2AD3D0"/>
<stop offset="1" stop-color="#008E91"/>
</radialGradient>
<radialGradient id="paint3_radial_236_12929" cx="0" cy="0" r="1" gradientUnits="userSpaceOnUse" gradientTransform="translate(40.6411 -24.2744) scale(121.774 121.774)">
<stop stop-color="#00ABB2"/>
<stop offset="1" stop-color="#296C7B"/>
</radialGradient>
<radialGradient id="paint4_radial_236_12929" cx="0" cy="0" r="1" gradientUnits="userSpaceOnUse" gradientTransform="translate(-6.01773 29.672) scale(37.9039)">
<stop stop-color="#00ABB2"/>
<stop offset="1" stop-color="#091E66"/>
</radialGradient>
<radialGradient id="paint5_radial_236_12929" cx="0" cy="0" r="1" gradientUnits="userSpaceOnUse" gradientTransform="translate(79.4381 44.3194) scale(111.942 111.942)">
<stop stop-color="#007F8D"/>
<stop offset="1"/>
</radialGradient>
<radialGradient id="paint6_radial_236_12929" cx="0" cy="0" r="1" gradientUnits="userSpaceOnUse" gradientTransform="translate(14.9218 16.32) scale(20.7577)">
<stop stop-color="#008894"/>
<stop offset="1" stop-color="white"/>
</radialGradient>
<radialGradient id="paint7_radial_236_12929" cx="0" cy="0" r="1" gradientUnits="userSpaceOnUse" gradientTransform="translate(93.4672 -56.6514) scale(351.264 108.011)">
<stop stop-color="#2AD3D0"/>
<stop offset="1" stop-color="#008E91"/>
</radialGradient>
<radialGradient id="paint8_radial_236_12929" cx="0" cy="0" r="1" gradientUnits="userSpaceOnUse" gradientTransform="translate(86.7548 -24.2744) scale(396.021 121.774)">
<stop stop-color="#00ABB2"/>
<stop offset="1" stop-color="#296C7B"/>
</radialGradient>
<radialGradient id="paint9_radial_236_12929" cx="0" cy="0" r="1" gradientUnits="userSpaceOnUse" gradientTransform="translate(212.932 44.3194) scale(364.047 111.942)">
<stop stop-color="#007F8D"/>
<stop offset="1"/>
</radialGradient>
<radialGradient id="paint10_radial_236_12929" cx="0" cy="0" r="1" gradientUnits="userSpaceOnUse" gradientTransform="translate(310.703 -56.6513) scale(108.011 108.011)">
<stop stop-color="#2AD3D0"/>
<stop offset="1" stop-color="#008E91"/>
</radialGradient>
<radialGradient id="paint11_radial_236_12929" cx="0" cy="0" r="1" gradientUnits="userSpaceOnUse" gradientTransform="translate(417.737 -0.123833) scale(101.098 101.098)">
<stop stop-color="#00ABB2"/>
<stop offset="1" stop-color="#296C7B"/>
</radialGradient>
<radialGradient id="paint12_radial_236_12929" cx="0" cy="0" r="1" gradientUnits="userSpaceOnUse" gradientTransform="translate(425.326 -7.06436) scale(59.3456 59.3456)">
<stop stop-color="#00ABB2"/>
<stop offset="1" stop-color="#296C7B"/>
</radialGradient>
<radialGradient id="paint13_radial_236_12929" cx="0" cy="0" r="1" gradientUnits="userSpaceOnUse" gradientTransform="translate(308.641 -24.2744) scale(121.774 121.774)">
<stop stop-color="#00ABB2"/>
<stop offset="1" stop-color="#296C7B"/>
</radialGradient>
<radialGradient id="paint14_radial_236_12929" cx="0" cy="0" r="1" gradientUnits="userSpaceOnUse" gradientTransform="translate(347.438 44.3194) scale(111.942 111.942)">
<stop stop-color="#007F8D"/>
<stop offset="1"/>
</radialGradient>
<radialGradient id="paint15_radial_236_12929" cx="0" cy="0" r="1" gradientUnits="userSpaceOnUse" gradientTransform="translate(424.159 14.1312) scale(30.4799 30.48)">
<stop stop-color="#008894"/>
<stop offset="1" stop-color="white"/>
</radialGradient>
<radialGradient id="paint16_radial_236_12929" cx="0" cy="0" r="1" gradientUnits="userSpaceOnUse" gradientTransform="translate(420.31 40.7168) scale(6.1197 6.1197)">
<stop stop-color="#6EFFCF"/>
<stop offset="0.13" stop-color="#67F6CC"/>
<stop offset="0.34" stop-color="#54DDC5"/>
<stop offset="0.6" stop-color="#36B6B9"/>
<stop offset="0.91" stop-color="#0D80AA"/>
<stop offset="1" stop-color="#006EA5"/>
</radialGradient>
<clipPath id="clip0_236_12929">
<rect width="20" height="48" fill="white"/>
</clipPath>
<clipPath id="clip1_236_12929">
<rect width="387" height="48" fill="white" transform="translate(20)"/>
</clipPath>
<clipPath id="clip2_236_12929">
<rect width="20" height="48" fill="white" transform="translate(407)"/>
</clipPath>
</defs>
</svg>
