<svg width="66" height="61" viewBox="0 0 66 61" fill="none" xmlns="http://www.w3.org/2000/svg">
<path d="M8.50391 56.8858C8.9213 58.2585 9.35724 59.5107 9.98796 59.7611C10.6187 60.0116 27.5184 61.273 36.8216 60.9391C46.1248 60.6145 54.9828 59.5107 56.1886 58.9356C57.3943 58.3698 57.9138 54.5576 57.9138 54.5576L8.50391 56.8765V56.8858Z" fill="#FFA4DA"/>
<path d="M65.584 28.0394C63.3023 36.2203 60.7516 44.1322 56.9301 52.0812C56.6426 52.6377 56.5035 52.9159 56.2159 53.4539C40.6055 54.938 25.0136 54.938 9.40316 53.4539C9.15273 52.9901 9.03215 52.749 8.79099 52.2759C4.91389 44.262 2.33534 36.2852 0.0350487 28.0394C-0.44727 24.7003 4.19041 28.9298 5.21998 29.6348C8.49418 31.8794 13.7811 36.5449 16.9719 35.6823C19.9493 34.8754 21.6466 26.7687 22.6298 23.3554C24.2623 17.7252 25.7927 11.993 27.7591 6.81738C28.5753 4.6655 30.282 1.59535 32.8142 0.96463C35.4298 1.77159 36.9232 4.43362 37.8693 6.81738C39.9284 12.0394 41.3661 17.7345 42.9985 23.3646C44.0466 26.9913 45.5956 34.8661 48.6565 35.6916C51.8565 36.5635 57.1342 31.8887 60.4084 29.644C61.4379 28.9391 66.0756 24.7096 65.5933 28.0487L65.584 28.0394Z" fill="url(#paint0_linear_274_12180)"/>
<g style="mix-blend-mode:multiply" opacity="0.7">
<path d="M56.9282 52.0808C56.6407 52.6373 56.5015 52.9156 56.214 53.4536C40.6036 54.9376 25.0117 54.9376 9.40124 53.4536C9.1508 52.9898 9.03022 52.7486 8.78906 52.2756C11.8685 52.0066 25.2992 50.5689 33.1276 50.5597C40.5294 50.5504 52.8007 51.7747 56.9282 52.0715V52.0808Z" fill="#DE376D"/>
</g>
<path d="M57.8213 53.8157C51.3935 50.4673 14.19 50.3838 7.78998 53.8157C7.16853 54.1496 8.98651 58.8337 10.2016 58.9821C17.4735 59.9003 25.3111 59.9467 32.8056 59.9374C40.3001 59.9374 48.1378 59.891 55.4097 58.9821C56.6248 58.8337 58.4335 54.131 57.8213 53.8157Z" fill="url(#paint1_linear_274_12180)"/>
<g style="mix-blend-mode:multiply" opacity="0.7">
<path d="M61.6533 34.6529C60.3733 34.4767 52.0347 42.2494 46.9147 42.2309C40.4869 42.203 35.506 21.0274 32.7234 21.0274C29.7739 21.0274 25.1176 42.203 18.6898 42.2401C13.5698 42.268 5.65793 34.152 3.95126 34.6622C2.55068 35.0888 4.10894 41.1456 4.10894 41.1456C4.53561 42.2587 5.04575 43.6964 5.50025 44.8001C5.50025 44.8001 3.83996 38.261 4.53561 37.0274C5.25909 35.7567 16.7976 44.6703 20.0811 43.9839C26.0637 42.7224 26.9171 25.6558 32.7976 25.6558C38.6782 25.6558 39.6707 42.9729 45.5142 43.9839C48.844 44.559 60.3362 35.8123 61.0504 37.0274C61.7646 38.2332 60.2713 44.29 60.2713 44.29C60.735 43.1862 61.0411 42.2958 61.4771 41.1827C61.4771 41.1827 63.091 34.8569 61.644 34.6622L61.6533 34.6529Z" fill="#DE376D"/>
</g>
<g style="mix-blend-mode:multiply" opacity="0.7">
<path d="M54.3062 58.5093C47.3497 60.0398 39.9016 59.7337 32.8338 59.7337C25.6732 59.7337 18.2529 59.8635 11.1758 58.5001C11.2129 58.4815 12.363 58.3887 14.3665 58.3145C14.3665 58.3145 14.3665 58.3145 14.3758 58.3145C26.8419 57.4334 36.6738 57.183 50.5775 58.2496C51.839 58.3424 53.0911 58.3887 54.3062 58.5093Z" fill="#DE376D"/>
</g>
<path d="M40.6823 46.1821C40.6545 46.2378 40.6174 46.2842 40.5803 46.3305C38.6789 48.3989 34.44 48.705 32.8076 48.705C31.2864 48.705 27.4186 48.6494 25.3409 46.7757C25.1739 46.6273 25.0255 46.4789 24.8864 46.3305C24.5061 45.9131 24.3855 44.6795 24.5247 42.8986C24.8864 38.1033 28.8099 32.3062 32.9189 32.3062C36.9629 32.3062 40.5803 38.2331 40.942 42.8615C40.942 42.8615 40.942 42.8708 40.942 42.8801C41.0533 44.5033 40.9791 45.6627 40.6823 46.1914V46.1821Z" fill="url(#paint2_linear_274_12180)"/>
<g style="mix-blend-mode:multiply">
<path d="M38.3898 46.7106C35.1805 48.473 30.1811 48.1669 26.879 46.4231C25.3208 45.5976 25.2188 42.5738 25.2188 42.5738C30.246 42.8892 35.2825 43.1211 40.319 43.2509C40.319 43.2509 40.3376 45.6347 38.3805 46.7106H38.3898Z" fill="#D12774"/>
</g>
<path d="M32.9463 33.7625C28.4571 33.7069 23.4484 42.2031 25.6281 45.0692C27.4646 47.49 38.5765 47.6106 40.1718 44.624C41.795 41.5909 37.2779 33.8182 32.9463 33.7625Z" fill="url(#paint3_linear_274_12180)"/>
<path d="M31.5646 35.1352C30.7484 36.5543 35.4325 36.3132 34.6812 35.2372C33.9113 34.1335 32.0099 34.3653 31.5646 35.1352Z" fill="white"/>
<path opacity="0.75" d="M28.7269 45.6441C28.0776 46.7386 37.6683 46.5068 37.0098 45.5421C36.0822 44.1694 30.0996 43.3438 28.7269 45.6441Z" fill="white"/>
<path d="M25.3438 46.7759C25.9095 47.5365 29.6568 49.4101 32.8011 49.4101C36.298 49.4101 38.2458 48.2229 39.3959 47.2675C39.3959 47.2675 37.1142 48.7145 32.8104 48.7145C27.5791 48.7145 25.3438 46.7852 25.3438 46.7852V46.7759Z" fill="url(#paint4_linear_274_12180)"/>
<g style="mix-blend-mode:multiply" opacity="0.8">
<path d="M40.9333 42.8523C40.0521 38.5207 37.2046 34.1798 32.8266 34.0221C28.5043 33.8644 25.3599 38.7804 24.5159 42.8986C24.8962 38.0847 28.8011 32.3062 32.9101 32.3062C36.9541 32.3062 40.5715 38.2331 40.9333 42.8615V42.8523Z" fill="#D12774"/>
</g>
<path d="M34.3392 49.0575C35.341 49.512 37.4094 48.3804 37.2146 48.2228C37.0106 48.0651 33.6158 48.7236 34.3392 49.0575Z" fill="white"/>
<g style="mix-blend-mode:multiply" opacity="0.5">
<path d="M50.5767 58.2494C38.7136 60.0581 26.2475 59.7799 14.375 58.3144C27.4904 57.0993 37.8973 57.2013 50.5767 58.2494Z" fill="#DE376D"/>
</g>
<g style="mix-blend-mode:multiply" opacity="0.2">
<path d="M11.3232 53.5743C10.7945 54.0195 12.8907 57.4514 13.3174 57.5442C17.8159 58.4717 26.4235 57.2752 27.9446 56.6445C28.7887 56.292 27.0542 52.5076 26.5626 52.35C22.6484 51.07 12.7238 52.4056 11.3232 53.5836V53.5743Z" fill="#E02774"/>
</g>
<g style="mix-blend-mode:soft-light">
<path d="M43.684 52.777C42.8863 53.1944 42.6173 57.155 42.9049 57.2013C45.066 57.5631 52.5327 58.3608 53.3026 57.8785C53.8405 57.5445 54.9072 53.5005 54.6475 53.2779C52.9779 51.8587 46.077 51.5434 43.684 52.777Z" fill="white"/>
</g>
<path d="M46.1271 52.573C46.4981 54.5115 51.043 52.9255 50.5607 52.5359C49.6981 51.8495 46.0251 52.0072 46.1271 52.573Z" fill="white"/>
<g style="mix-blend-mode:soft-light">
<path d="M10.5909 53.6673C9.67267 53.3519 8.01238 53.8806 7.98456 54.5577C7.96601 55.2348 9.35731 58.3328 9.82108 58.4998C10.2848 58.6667 12.0286 57.9803 11.9637 57.7485C11.8988 57.5073 11.2959 53.9177 10.5817 53.6766L10.5909 53.6673Z" fill="white"/>
</g>
<path d="M49.017 43.1954C54.8326 41.7856 61.177 36.7398 60.5833 36.9253C59.2384 37.3427 59.0436 37.6117 52.7178 41.1456C50.1671 42.574 48.2842 43.381 49.0077 43.2047L49.017 43.1954Z" fill="url(#paint5_linear_274_12180)"/>
<g style="mix-blend-mode:multiply" opacity="0.2">
<path d="M51.1257 36.9249C49.113 37.8617 44.6144 39.6054 44.5124 40.8112C44.466 41.3121 46.7478 42.9631 49.9292 41.5718C54.8544 39.4292 59.455 35.7191 60.1878 34.8008C60.9113 33.8825 55.9304 34.6895 51.135 36.9156L51.1257 36.9249Z" fill="#E02774"/>
</g>
<path d="M15.8679 42.8893C12.1856 43.5386 4.44994 36.7769 5.05283 36.9253C6.35139 37.2407 10.5531 39.6615 13.4192 41.4609C14.5694 42.1844 16.2389 42.8244 15.8679 42.8893Z" fill="url(#paint6_linear_274_12180)"/>
<g style="mix-blend-mode:multiply" opacity="0.2">
<path d="M14.5113 36.9253C16.5241 37.8622 21.0226 39.6059 21.1247 40.8117C21.171 41.3126 18.9728 42.7503 15.7821 41.3682C10.8568 39.2256 6.17278 35.7288 5.44931 34.8106C4.72583 33.8923 9.7067 34.6993 14.5021 36.9253H14.5113Z" fill="#E02774"/>
</g>
<g style="mix-blend-mode:soft-light" opacity="0.5">
<path d="M23.0097 30.3582C24.3083 31.3321 29.8364 20.6284 32.7303 20.4243C35.3552 20.2481 38.8984 30.8127 39.9465 31.3971C40.9947 31.9907 43.4155 27.4365 42.8776 24.2365C42.3396 21.0643 37.201 1.13154 32.7303 1.75299C28.2596 2.38372 23.3807 20.7768 22.8149 24.0602C22.2491 27.3715 22.1657 29.7182 23.0097 30.3582Z" fill="white"/>
</g>
<path d="M0.167969 26.9541C4.11 31.2208 13.5894 35.1628 13.5894 35.1628C13.5894 35.1628 5.72391 30.284 3.09898 28.0115C0.483331 25.7576 0.177244 26.9448 0.177244 26.9448L0.167969 26.9541Z" fill="url(#paint7_linear_274_12180)"/>
<path d="M65.4175 26.9541C61.4755 31.2208 51.9961 35.1628 51.9961 35.1628C51.9961 35.1628 59.8616 30.284 62.4865 28.0115C65.1022 25.7576 65.4083 26.9448 65.4083 26.9448L65.4175 26.9541Z" fill="url(#paint8_linear_274_12180)"/>
<path d="M24.3672 17.28C24.3672 17.28 28.504 0 32.8727 0C36.7498 0 41.3504 17.5861 41.3504 17.5861C41.3504 17.5861 35.5997 1.59536 32.3997 2.25391C29.1904 2.91246 24.3765 17.28 24.3765 17.28H24.3672Z" fill="url(#paint9_linear_274_12180)"/>
<g style="mix-blend-mode:multiply" opacity="0.8">
<path d="M36.042 26.0913C34.5579 23.0305 32.9347 21.4351 31.9051 22.5945C30.8756 23.7539 29.0391 26.8612 29.0391 26.8612C29.0391 26.8612 31.1631 21.2032 32.5451 21.0455C33.9179 20.8879 36.042 26.0913 36.042 26.0913Z" fill="#D12774"/>
</g>
<path d="M29.5703 27.715C29.5703 27.715 30.5813 25.7023 32.8074 25.6466C35.0335 25.591 35.9239 27.715 35.9239 27.715C35.9239 27.715 34.6254 25.9434 32.6868 26.1568C30.7483 26.3701 29.5703 27.715 29.5703 27.715Z" fill="url(#paint10_linear_274_12180)"/>
<path d="M33.0339 25.6929C33.4606 26.2402 34.0079 26.3144 34.1934 25.999C34.2583 25.8784 32.9226 25.5631 33.0339 25.6929Z" fill="white"/>
<path d="M5.15653 40.7656C5.11943 43.7801 8.73682 51.5992 9.18204 51.6363C9.61798 51.6734 11.1948 50.9592 10.8887 49.8555C10.5826 48.7517 5.19363 38.1778 5.15653 40.7749V40.7656Z" fill="url(#paint11_linear_274_12180)"/>
<g style="mix-blend-mode:multiply" opacity="0.2">
<path d="M8.13294 42.1193C8.29062 45.8665 12.6037 50.7639 13.6147 51.2648C14.635 51.7657 23.0384 51.1071 23.2611 50.7454C23.5764 50.226 22.3057 46.0242 21.4431 45.5512C20.5805 45.0781 8.08656 41.0341 8.13294 42.1193Z" fill="#E02774"/>
</g>
<g style="mix-blend-mode:soft-light">
<path d="M44.66 50.3747C45.0588 50.9498 55.7997 52.1185 56.4211 51.6361C57.0333 51.1446 59.5933 40.2182 58.4988 40.3573C57.4043 40.4872 46.5985 44.7724 45.6988 45.9967C44.7991 47.2303 44.122 49.6141 44.66 50.384V50.3747Z" fill="white"/>
</g>
<g style="mix-blend-mode:multiply" opacity="0.8">
<path d="M40.2422 35.2925C40.2422 35.2925 43.368 42.3882 45.7703 43.2229C48.1726 44.0577 52.9494 40.0601 52.9494 40.0601C52.9494 40.0601 48.8404 42.4345 46.401 42.1563C43.2103 41.7853 40.2515 35.2925 40.2515 35.2925H40.2422Z" fill="#D12774"/>
</g>
<g style="mix-blend-mode:multiply" opacity="0.8">
<path d="M12.9258 40.1159C12.9258 40.1159 17.0719 43.3623 19.298 43.3344C21.5333 43.3066 24.8261 36.1182 24.8261 36.1182C24.8261 36.1182 21.422 42.3234 18.6858 42.2307C15.9495 42.1379 12.9258 40.1252 12.9258 40.1252V40.1159Z" fill="#D12774"/>
</g>
<g style="mix-blend-mode:multiply" opacity="0.8">
<path d="M62.0289 34.9961C62.5298 36.6471 61.6023 40.784 61.3147 40.7932C61.0272 40.8025 61.1014 40.0605 61.1014 40.0605L60.2852 44.3364L61.5188 41.0344C61.5188 41.0344 62.233 38.0755 62.233 36.9254C62.233 35.7753 62.0289 35.0054 62.0289 35.0054V34.9961Z" fill="#D12774"/>
</g>
<g style="mix-blend-mode:multiply" opacity="0.8">
<path d="M3.40422 35.6543C3.55263 38.4091 4.05349 40.0137 4.22973 40.0508C4.40596 40.0879 4.40596 38.8172 4.40596 38.8172C4.40596 38.8172 4.95321 42.9448 5.54683 44.8926C5.54683 44.8926 4.25755 41.5349 4.09987 41.0711C4.09987 41.0711 3.67321 38.8543 3.47842 37.7784C3.28364 36.7117 3.4135 35.6543 3.4135 35.6543H3.40422Z" fill="#D12774"/>
</g>
<g style="mix-blend-mode:soft-light" opacity="0.5">
<path d="M28.7518 32.2783C29.5124 33.2522 31.7385 31.3414 34.5489 32.5101C37.3686 33.6788 37.5541 31.2858 36.3669 29.0783C35.1796 26.8893 33.7048 26.1194 31.7477 26.6388C29.2434 27.3067 27.8706 31.1559 28.7518 32.2783Z" fill="white"/>
</g>
<path d="M35.4759 3.5619C30.9124 8.69118 38.713 12.6332 39.0191 11.8077C39.3252 10.9822 36.6539 2.23552 35.4759 3.5619Z" fill="white"/>
<defs>
<linearGradient id="paint0_linear_274_12180" x1="-0.0113281" y1="27.7612" x2="65.6211" y2="27.7612" gradientUnits="userSpaceOnUse">
<stop stop-color="#FF9600"/>
<stop offset="1" stop-color="#FFA900"/>
</linearGradient>
<linearGradient id="paint1_linear_274_12180" x1="7.6694" y1="55.6058" x2="57.9419" y2="55.6058" gradientUnits="userSpaceOnUse">
<stop stop-color="#FF9600"/>
<stop offset="1" stop-color="#FFA900"/>
</linearGradient>
<linearGradient id="paint2_linear_274_12180" x1="24.4597" y1="40.5056" x2="40.9884" y2="40.5056" gradientUnits="userSpaceOnUse">
<stop offset="0.05" stop-color="#FF4B00"/>
<stop offset="1" stop-color="#FF7204"/>
</linearGradient>
<linearGradient id="paint3_linear_274_12180" x1="32.8072" y1="33.7625" x2="32.8072" y2="46.8779" gradientUnits="userSpaceOnUse">
<stop stop-color="#009F00"/>
<stop offset="0.11" stop-color="#04A000"/>
<stop offset="0.23" stop-color="#12A600"/>
<stop offset="0.37" stop-color="#2AAE00"/>
<stop offset="0.5" stop-color="#4ABB00"/>
<stop offset="0.65" stop-color="#74CA00"/>
<stop offset="0.79" stop-color="#A7DE00"/>
<stop offset="0.94" stop-color="#E3F400"/>
<stop offset="1" stop-color="#FFFF00"/>
</linearGradient>
<linearGradient id="paint4_linear_274_12180" x1="25.3438" y1="48.093" x2="39.3866" y2="48.093" gradientUnits="userSpaceOnUse">
<stop stop-color="#FFDE00"/>
<stop offset="1" stop-color="#FFE834"/>
</linearGradient>
<linearGradient id="paint5_linear_274_12180" x1="48.8593" y1="40.0697" x2="60.6297" y2="40.0697" gradientUnits="userSpaceOnUse">
<stop stop-color="#FFDE00"/>
<stop offset="1" stop-color="#FFE834"/>
</linearGradient>
<linearGradient id="paint6_linear_274_12180" x1="15.9143" y1="39.9305" x2="5.00646" y2="39.9305" gradientUnits="userSpaceOnUse">
<stop stop-color="#FFDE00"/>
<stop offset="1" stop-color="#FFE834"/>
</linearGradient>
<linearGradient id="paint7_linear_274_12180" x1="0.167969" y1="30.8961" x2="13.5894" y2="30.8961" gradientUnits="userSpaceOnUse">
<stop stop-color="#FFDE00"/>
<stop offset="1" stop-color="#FFE834"/>
</linearGradient>
<linearGradient id="paint8_linear_274_12180" x1="65.4175" y1="30.8961" x2="51.9961" y2="30.8961" gradientUnits="userSpaceOnUse">
<stop stop-color="#FFDE00"/>
<stop offset="1" stop-color="#FFE834"/>
</linearGradient>
<linearGradient id="paint9_linear_274_12180" x1="24.3672" y1="8.80232" x2="41.3411" y2="8.80232" gradientUnits="userSpaceOnUse">
<stop stop-color="#FFDE00"/>
<stop offset="1" stop-color="#FFE834"/>
</linearGradient>
<linearGradient id="paint10_linear_274_12180" x1="29.5703" y1="26.6855" x2="35.9239" y2="26.6855" gradientUnits="userSpaceOnUse">
<stop stop-color="#FFDE00"/>
<stop offset="1" stop-color="#FFE834"/>
</linearGradient>
<linearGradient id="paint11_linear_274_12180" x1="5.15653" y1="45.9969" x2="10.9258" y2="45.9969" gradientUnits="userSpaceOnUse">
<stop stop-color="#FFDE00"/>
<stop offset="1" stop-color="#FFE834"/>
</linearGradient>
</defs>
</svg>
