<svg width="164" height="86" viewBox="0 0 164 86" fill="none" xmlns="http://www.w3.org/2000/svg">
<g clip-path="url(#clip0_190_17378)">
<path fill-rule="evenodd" clip-rule="evenodd" d="M28.1655 158.494C35.1331 160.206 136.662 159.35 163.5 157.489C163.279 154.028 163.094 150.567 162.91 147.106L153.288 146.288L162.763 144.166C161.878 127.346 161.251 110.376 160.956 93.4067L155.832 91.7321L160.919 90.1319C160.514 65.9057 160.735 41.6422 161.62 17.4904C157.565 11.7223 153.472 5.99134 149.417 0.223194C147.685 -0.521083 28.4973 0.85583 0.995378 1.89782C1.47463 9.71273 1.84329 17.4904 2.13822 25.3053L5.86167 27.5382L4.20271 29.6221L4.49763 31.2223L2.39628 32.5993C3.20733 57.793 3.09673 82.9124 2.13822 107.883L4.94002 109.26L3.53912 111.679L7.52063 113.577L1.84329 114.954C1.36404 125.336 0.774183 135.682 0 146.027C9.36392 150.195 18.7647 154.363 28.1286 158.531L28.1655 158.494Z" fill="url(#paint0_linear_190_17378)"/>
<path style="mix-blend-mode:multiply" fill-rule="evenodd" clip-rule="evenodd" d="M161.583 17.4535C158.781 16.1138 146.763 14.1415 146.21 12.8762C145.768 11.9087 148.717 3.60997 149.344 0.186295C153.399 5.95444 157.491 11.6854 161.546 17.4535H161.583Z" fill="url(#paint1_radial_190_17378)"/>
<path fill-rule="evenodd" clip-rule="evenodd" d="M161.583 17.4535C156.753 15.2579 151.924 13.1367 147.279 10.569C148.2 7.14529 148.79 3.6844 149.343 0.186295C150.523 0.186295 161.546 16.151 161.546 17.4535H161.583Z" fill="url(#paint2_linear_190_17378)"/>
<path style="mix-blend-mode:screen" fill-rule="evenodd" clip-rule="evenodd" d="M149.196 9.41533C150.597 12.7274 156.79 15.0346 160.551 15.965C160.698 15.965 160.845 16.0394 160.956 16.0766C161.362 16.7837 161.583 17.2675 161.583 17.4535C161.472 17.4163 161.325 17.3419 161.177 17.2675C156.495 15.1463 151.776 13.0623 147.279 10.569C148.2 7.14529 148.79 3.6844 149.343 0.186295C149.417 0.186295 149.528 0.260722 149.675 0.372364C149.675 0.446792 149.638 0.484006 149.601 0.558433C148.827 2.90291 148.2 7.1825 149.196 9.41533Z" fill="url(#paint3_radial_190_17378)"/>
<path style="mix-blend-mode:screen" opacity="0.5" fill-rule="evenodd" clip-rule="evenodd" d="M31.52 155.294C28.2758 153.768 26.9486 151.088 25.179 146.734C20.0547 134.268 13.3451 136.501 7.99955 133.114C4.42356 130.844 3.28072 123.997 9.91657 114.805C16.0363 106.283 4.93969 96.9051 5.30834 79.1169C5.5664 67.7294 11.6124 49.7179 12.6078 44.4336C13.5294 39.5213 14.6723 36.9164 10.064 29.9202C8.29448 27.2408 10.2852 25.9755 5.93506 19.1281C3.64938 15.5556 4.3867 13.0251 6.59865 11.1644C13.5663 5.39622 26.3587 3.90766 38.93 5.39622C74.1737 9.6386 76.3119 12.2064 106.173 6.36378C114.063 4.83801 116.864 5.24736 121.952 4.68915C125.897 4.24259 129.989 3.57274 133.38 4.61473C140.422 6.73592 137.104 13.8065 143.187 18.1234C151.924 24.3381 161.435 15.6672 157.085 33.7532C154.91 42.8706 152.366 53.4393 156.458 64.7151C157.638 67.9527 157.638 76.177 156.274 79.1913C150.965 91.1742 146.025 89.3135 153.103 96.1608C158.855 101.743 150.744 106.357 154.91 112.609C158.928 118.675 157.011 124.555 152.551 136.91C151.961 138.585 154.947 140.669 149.343 143.943C145.435 146.251 159.26 152.838 127.998 152.838C119.113 152.838 116.385 156.15 107.427 155.852C99.5743 155.629 94.1182 156.038 87.9616 156.41C76.7543 157.154 65.3997 154.475 63.7776 154.512C50.8745 154.959 41.953 160.169 31.4831 155.256L31.52 155.294Z" fill="url(#paint4_radial_190_17378)"/>
<path style="mix-blend-mode:screen" opacity="0.5" fill-rule="evenodd" clip-rule="evenodd" d="M17.6592 131.588C13.3459 127.681 11.2814 124.704 14.2675 113.8C18.6546 97.6122 10.028 93.5187 9.10633 83.4337C7.88975 70.5205 8.88513 76.8469 13.4934 67.6923C16.332 62.073 8.73767 60.2867 17.5855 49.718C24.1476 41.8286 22.5624 35.4278 16.5901 28.2083C11.7238 22.3658 11.1708 14.3648 16.3689 10.4945C24.4794 4.4659 33.7696 11.276 40.1474 11.6854C42.0644 11.797 44.4975 11.3505 48.5528 9.78748C53.1241 8.00122 64.8475 13.0251 73.769 14.6253C83.944 16.486 92.7918 16.2627 105.99 9.3037C117.529 3.20063 133.602 11.5365 136.846 17.6396C137.731 19.3142 143.814 17.9001 144.92 27.3896C145.399 31.5204 155.574 34.1626 149.528 45.3267C148.422 47.3735 147.648 59.2075 149.639 62.7428C151.888 66.7991 151.888 75.8793 149.528 79.3774C142.856 89.3135 152.404 97.5006 147.501 104.72C142.524 112.051 146.763 117.894 146.763 123.476C146.763 135.235 142.634 128.09 144.957 139.589C146.985 149.6 138.8 150.977 130.174 148.967C124.423 147.628 116.202 152.652 107.391 153.098C96.7733 153.619 94.377 148.335 85.3449 150.009C71.5571 152.54 66.3221 144.427 56.737 150.754C49.4007 155.591 42.2856 154.401 39.0414 151.126C34.9493 146.921 39.7418 152.168 33.3641 143.348C27.2443 134.826 19.8712 133.561 17.6961 131.588H17.6592Z" fill="url(#paint5_radial_190_17378)"/>
</g>
<g clip-path="url(#clip1_190_17378)">
<path fill-rule="evenodd" clip-rule="evenodd" d="M28.1655 70.4052C35.1331 71.0014 136.662 70.7033 163.5 70.0553C163.279 68.85 163.094 67.6446 162.91 66.4393L153.288 66.1542L162.763 65.4155C161.878 59.5574 161.251 53.6474 160.956 47.7375L155.832 47.1543L160.919 46.597C160.514 38.1598 160.735 29.7096 161.62 21.2983C157.565 19.2894 153.472 17.2935 149.417 15.2847C147.685 15.0255 28.4973 15.505 0.995378 15.8679C1.47463 18.5896 1.84329 21.2983 2.13822 24.02L5.86167 24.7976L4.20271 25.5234L4.49763 26.0807L2.39628 26.5602C3.20733 35.3344 3.09673 44.0827 2.13822 52.7791L4.94002 53.2586L3.53912 54.101L7.52063 54.762L1.84329 55.2416C1.36404 58.8575 0.774183 62.4605 0 66.0635C9.36392 67.515 18.7647 68.9666 28.1286 70.4182L28.1655 70.4052Z" fill="url(#paint6_linear_190_17378)"/>
<path style="mix-blend-mode:screen" opacity="0.5" fill-rule="evenodd" clip-rule="evenodd" d="M31.5204 69.2916C28.2763 68.7602 26.9491 67.8271 25.1795 66.3107C20.0552 61.969 13.3456 62.7466 8.00004 61.5672C4.42405 60.7766 3.28121 58.3919 9.91706 55.1907C16.0368 52.2227 4.94017 48.9567 5.30883 42.7617C5.56689 38.7958 11.6129 32.5229 12.6083 30.6826C13.5299 28.9718 14.6728 28.0646 10.0645 25.628C8.29497 24.6949 10.2857 24.2542 5.93555 21.8695C3.64987 20.6253 4.38719 19.744 6.59914 19.096C13.5668 17.0871 26.3592 16.5687 38.9305 17.0871C74.1742 18.5646 76.3124 19.4589 106.174 17.4241C114.063 16.8927 116.865 17.0353 121.952 16.8409C125.897 16.6853 129.989 16.4521 133.381 16.8149C140.422 17.5537 137.104 20.0162 143.187 21.5196C151.924 23.684 161.436 20.6642 157.085 26.9629C154.91 30.1382 152.367 33.819 156.459 37.746C157.638 38.8735 157.638 41.7378 156.274 42.7876C150.966 46.9608 146.026 46.3128 153.104 48.6975C158.855 50.6416 150.745 52.2487 154.91 54.426C158.929 56.5386 157.012 58.5863 152.551 62.8891C151.961 63.4724 154.947 64.1981 149.344 65.3387C145.436 66.1422 159.261 68.4362 127.998 68.4362C119.114 68.4362 116.386 69.5897 107.427 69.486C99.5748 69.4082 94.1186 69.5508 87.962 69.6804C76.7548 69.9396 65.4001 69.0064 63.7781 69.0194C50.875 69.1749 41.9535 70.9894 31.4836 69.2786L31.5204 69.2916Z" fill="url(#paint7_radial_190_17378)"/>
<path style="mix-blend-mode:screen" opacity="0.5" fill-rule="evenodd" clip-rule="evenodd" d="M17.6592 61.0356C13.3459 59.6747 11.2814 58.6379 14.2675 54.8405C18.6546 49.2027 10.028 47.7771 9.10633 44.2648C7.88975 39.7675 8.88513 41.9708 13.4934 38.7826C16.332 36.8255 8.73767 36.2034 17.5855 32.5227C24.1476 29.7751 22.5624 27.5459 16.5901 25.0316C11.7238 22.9968 11.1708 20.2103 16.3689 18.8624C24.4794 16.7629 33.7696 19.1346 40.1474 19.2772C42.0644 19.3161 44.4975 19.1605 48.5528 18.6162C53.1241 17.9941 64.8475 19.7437 73.769 20.301C83.944 20.9491 92.7918 20.8713 105.99 18.4477C117.529 16.3222 133.602 19.2253 136.846 21.3508C137.731 21.934 143.814 21.4416 144.92 24.7465C145.399 26.1851 155.574 27.1052 149.528 30.9934C148.422 31.7062 147.648 35.8276 149.639 37.0588C151.888 38.4715 151.888 41.6338 149.528 42.8521C142.856 46.3125 152.404 49.1638 147.501 51.6781C142.524 54.2313 146.763 56.2661 146.763 58.2102C146.763 62.3057 142.634 59.8173 144.957 63.822C146.985 67.3084 138.8 67.7879 130.174 67.0881C124.423 66.6215 116.202 68.3711 107.391 68.5267C96.7733 68.7081 94.377 66.8677 85.3449 67.4509C71.5571 68.3323 66.3221 65.5069 56.737 67.7101C49.4007 69.395 42.2856 68.9803 39.0414 67.8398C34.9493 66.3752 39.7418 68.2026 33.3641 65.131C27.2443 62.1631 19.8712 61.7225 17.6961 61.0356H17.6592Z" fill="url(#paint8_radial_190_17378)"/>
</g>
<g clip-path="url(#clip2_190_17378)">
<path fill-rule="evenodd" clip-rule="evenodd" d="M28.1655 84.8897C35.1331 86.6015 136.662 85.7456 163.5 83.8849C163.279 80.424 163.094 76.9631 162.91 73.5022L153.288 72.6835L162.763 70.5624C161.878 53.7417 161.251 36.7722 160.956 19.8027L155.832 18.128L160.919 16.5278C160.514 -7.6984 160.735 -31.9618 161.62 -56.1136C157.565 -61.8818 153.472 -67.6127 149.417 -73.3809C147.685 -74.1251 28.4973 -72.7482 0.995378 -71.7062C1.47463 -63.8913 1.84329 -56.1136 2.13822 -48.2987L5.86167 -46.0659L4.20271 -43.9819L4.49763 -42.3817L2.39628 -41.0048C3.20733 -15.811 3.09673 9.30834 2.13822 34.2788L4.94002 35.6558L3.53912 38.0747L7.52063 39.9726L1.84329 41.3495C1.36404 51.7321 0.774183 62.0776 0 72.4231C9.36392 76.591 18.7647 80.7589 28.1286 84.9269L28.1655 84.8897Z" fill="url(#paint9_linear_190_17378)"/>
<path style="mix-blend-mode:multiply" fill-rule="evenodd" clip-rule="evenodd" d="M28.1286 84.8528C18.7647 80.6848 9.36392 76.5169 0 72.3489C0.88478 70.972 9.65885 63.9758 10.8386 63.8641C11.9814 63.7525 25.2162 82.285 28.1286 84.8528Z" fill="url(#paint10_radial_190_17378)"/>
<path fill-rule="evenodd" clip-rule="evenodd" d="M9.17959 66.8041C15.115 72.9816 22.0089 79.7917 28.1655 84.8528C26.101 84.8528 0 74.4329 0 72.349C2.8018 70.265 5.8248 68.3671 9.17959 66.8041Z" fill="url(#paint11_linear_190_17378)"/>
<path style="mix-blend-mode:screen" fill-rule="evenodd" clip-rule="evenodd" d="M22.3035 82.2847C20.6814 76.3677 8.07331 69.1483 3.79688 69.7809C5.4927 68.7017 7.29913 67.7341 9.17929 66.841C15.0778 72.9813 21.9717 79.7914 28.1283 84.8525C28.1283 84.8525 28.1283 84.8525 28.1652 84.8897C27.6122 84.8897 25.4003 84.1827 22.451 83.0662C22.451 82.8057 22.3773 82.5452 22.3035 82.2847Z" fill="url(#paint12_radial_190_17378)"/>
<path style="mix-blend-mode:screen" opacity="0.5" fill-rule="evenodd" clip-rule="evenodd" d="M31.5204 81.6894C28.2763 80.1637 26.9491 77.4843 25.1795 73.1303C20.0552 60.6636 13.3456 62.8964 8.00004 59.51C4.42405 57.2399 3.28121 50.3926 9.91706 41.2008C16.0368 32.6788 4.94017 23.3009 5.30883 5.51267C5.56689 -5.87478 11.6129 -23.8863 12.6083 -29.1707C13.5299 -34.0829 14.6728 -36.6879 10.0645 -43.6841C8.29497 -46.3635 10.2857 -47.6287 5.93555 -54.4761C3.64987 -58.0486 4.38719 -60.5792 6.59914 -62.4399C13.5668 -68.208 26.3592 -69.6966 38.9305 -68.208C74.1742 -63.9656 76.3124 -61.3979 106.174 -67.2404C114.063 -68.7662 116.865 -68.3569 121.952 -68.9151C125.897 -69.3616 129.989 -70.0315 133.381 -68.9895C140.422 -66.8683 137.104 -59.7977 143.187 -55.4809C151.924 -49.2661 161.436 -57.937 157.085 -39.851C154.91 -30.7336 152.367 -20.1649 156.459 -8.8891C157.638 -5.6515 157.638 2.57277 156.274 5.5871C150.966 17.57 146.026 15.7093 153.104 22.5566C158.855 28.1387 150.745 32.7532 154.91 39.0051C158.929 45.071 157.012 50.9508 152.551 63.3058C151.961 64.9804 154.947 67.0644 149.344 70.3392C145.436 72.6465 159.261 79.2333 127.998 79.2333C119.114 79.2333 116.386 82.5454 107.427 82.2476C99.5748 82.0244 94.1186 82.4337 87.962 82.8058C76.7548 83.5501 65.4001 80.8707 63.7781 80.9079C50.875 81.3545 41.9535 86.5645 31.4836 81.6522L31.5204 81.6894Z" fill="url(#paint13_radial_190_17378)"/>
<path style="mix-blend-mode:screen" opacity="0.5" fill-rule="evenodd" clip-rule="evenodd" d="M17.6592 57.9842C13.3459 54.0768 11.2814 51.0997 14.2675 40.196C18.6546 24.008 10.028 19.9145 9.10633 9.8295C7.88975 -3.08372 8.88513 3.24264 13.4934 -5.91197C16.332 -11.5313 8.73767 -13.3175 17.5855 -23.8863C24.1476 -31.7756 22.5624 -38.1764 16.5901 -45.3959C11.7238 -51.2385 11.1708 -59.2394 16.3689 -63.1097C24.4794 -69.1383 33.7696 -62.3282 40.1474 -61.9188C42.0644 -61.8072 44.4975 -62.2538 48.5528 -63.8167C53.1241 -65.603 64.8475 -60.5791 73.769 -58.9789C83.944 -57.1183 92.7918 -57.3415 105.99 -64.3005C117.529 -70.4036 133.602 -62.0677 136.846 -55.9646C137.731 -54.29 143.814 -55.7041 144.92 -46.2146C145.399 -42.0839 155.574 -39.4417 149.528 -28.2775C148.422 -26.2307 147.648 -14.3967 149.639 -10.8614C151.888 -6.8051 151.888 2.27508 149.528 5.77318C142.856 15.7093 152.404 23.8963 147.501 31.1158C142.524 38.447 146.763 44.2895 146.763 49.8716C146.763 61.6312 142.634 54.4861 144.957 65.9852C146.985 75.9957 138.8 77.3727 130.174 75.3631C124.423 74.0234 116.202 79.0473 107.391 79.4939C96.7733 80.0148 94.377 74.7305 85.3449 76.4051C71.5571 78.9357 66.3221 70.823 56.737 77.1494C49.4007 81.9872 42.2856 80.7963 39.0414 77.5215C34.9493 73.3164 39.7418 78.5635 33.3641 69.7438C27.2443 61.2218 19.8712 59.9566 17.6961 57.9842H17.6592Z" fill="url(#paint14_radial_190_17378)"/>
</g>
<defs>
<linearGradient id="paint0_linear_190_17378" x1="81.7684" y1="159.387" x2="81.7684" y2="-8.51218e-05" gradientUnits="userSpaceOnUse">
<stop stop-color="#EDD6B9"/>
<stop offset="1" stop-color="#D4B492"/>
</linearGradient>
<radialGradient id="paint1_radial_190_17378" cx="0" cy="0" r="1" gradientUnits="userSpaceOnUse" gradientTransform="translate(159.445 7.66628) scale(14.6726 14.8111)">
<stop stop-color="#A48A7B"/>
<stop offset="1" stop-color="white"/>
</radialGradient>
<linearGradient id="paint2_linear_190_17378" x1="156.79" y1="7.51743" x2="150.464" y2="13.7843" gradientUnits="userSpaceOnUse">
<stop stop-color="#BF9F7E"/>
<stop offset="1" stop-color="#EDD6B9"/>
</linearGradient>
<radialGradient id="paint3_radial_190_17378" cx="0" cy="0" r="1" gradientUnits="userSpaceOnUse" gradientTransform="translate(164.385 -5.1725) scale(28.4604 28.7291)">
<stop/>
<stop offset="1" stop-color="#A3805F"/>
</radialGradient>
<radialGradient id="paint4_radial_190_17378" cx="0" cy="0" r="1" gradientUnits="userSpaceOnUse" gradientTransform="translate(81.3257 80.7171) scale(154.32 155.777)">
<stop stop-color="#CA9E67"/>
<stop offset="1"/>
</radialGradient>
<radialGradient id="paint5_radial_190_17378" cx="0" cy="0" r="1" gradientUnits="userSpaceOnUse" gradientTransform="translate(79.9993 80.5683) scale(126.708 127.904)">
<stop stop-color="#CA9E67"/>
<stop offset="1"/>
</radialGradient>
<linearGradient id="paint6_linear_190_17378" x1="81.7684" y1="70.7163" x2="81.7684" y2="15.2069" gradientUnits="userSpaceOnUse">
<stop stop-color="#EDD6B9"/>
<stop offset="1" stop-color="#D4B492"/>
</linearGradient>
<radialGradient id="paint7_radial_190_17378" cx="0" cy="0" r="1" gradientUnits="userSpaceOnUse" gradientTransform="translate(81.3262 43.319) scale(154.32 54.2522)">
<stop stop-color="#CA9E67"/>
<stop offset="1"/>
</radialGradient>
<radialGradient id="paint8_radial_190_17378" cx="0" cy="0" r="1" gradientUnits="userSpaceOnUse" gradientTransform="translate(79.9993 43.2669) scale(126.708 44.5449)">
<stop stop-color="#CA9E67"/>
<stop offset="1"/>
</radialGradient>
<linearGradient id="paint9_linear_190_17378" x1="81.7684" y1="85.7828" x2="81.7684" y2="-73.6042" gradientUnits="userSpaceOnUse">
<stop stop-color="#EDD6B9"/>
<stop offset="1" stop-color="#D4B492"/>
</linearGradient>
<radialGradient id="paint10_radial_190_17378" cx="0" cy="0" r="1" gradientUnits="userSpaceOnUse" gradientTransform="translate(10.5436 86.6018) scale(25.6955 25.9381)">
<stop stop-color="#A48A7B"/>
<stop offset="1" stop-color="white"/>
</radialGradient>
<linearGradient id="paint11_linear_190_17378" x1="13.6772" y1="79.5685" x2="17.6101" y2="70.4405" gradientUnits="userSpaceOnUse">
<stop stop-color="#BF9F7E"/>
<stop offset="1" stop-color="#EDD6B9"/>
</linearGradient>
<radialGradient id="paint12_radial_190_17378" cx="0" cy="0" r="1" gradientUnits="userSpaceOnUse" gradientTransform="translate(6.30375 98.3239) scale(43.3911 43.8007)">
<stop/>
<stop offset="1" stop-color="#A3805F"/>
</radialGradient>
<radialGradient id="paint13_radial_190_17378" cx="0" cy="0" r="1" gradientUnits="userSpaceOnUse" gradientTransform="translate(81.3262 7.11286) scale(154.32 155.777)">
<stop stop-color="#CA9E67"/>
<stop offset="1"/>
</radialGradient>
<radialGradient id="paint14_radial_190_17378" cx="0" cy="0" r="1" gradientUnits="userSpaceOnUse" gradientTransform="translate(79.9993 6.96403) scale(126.708 127.904)">
<stop stop-color="#CA9E67"/>
<stop offset="1"/>
</radialGradient>
<clipPath id="clip0_190_17378">
<rect width="163.5" height="23.334" fill="white"/>
</clipPath>
<clipPath id="clip1_190_17378">
<rect width="163.5" height="39.3321" fill="white" transform="translate(0 23.334)"/>
</clipPath>
<clipPath id="clip2_190_17378">
<rect width="163.5" height="23.334" fill="white" transform="translate(0 62.666)"/>
</clipPath>
</defs>
</svg>
