<svg width="49" height="48" viewBox="0 0 49 48" fill="none" xmlns="http://www.w3.org/2000/svg">
<g clip-path="url(#clip0_144_130)">
<path d="M47.7897 21.2691C48.1101 20.8578 48.2844 20.3524 48.2853 19.832V9.46392C48.2853 8.22162 48.0394 6.9915 47.5616 5.84377C47.0838 4.69605 46.3834 3.65326 45.5006 2.77494C44.6178 1.89662 43.5697 1.19999 42.4162 0.724836C41.2628 0.249679 40.0266 0.00530198 38.7782 0.00567427H35.2806C34.9727 0.00501597 34.6677 0.0650466 34.3832 0.182286C34.0987 0.299525 33.8403 0.471662 33.623 0.688764C33.5691 0.740094 33.5186 0.795006 33.4721 0.853146H26.8245C26.6045 0.587723 26.3283 0.3739 26.0157 0.226919C25.703 0.0799374 25.3617 0.00341981 25.016 0.00283713H16.9927C16.6848 0.00279908 16.38 0.0631098 16.0956 0.180314C15.8112 0.297517 15.5527 0.469328 15.3351 0.685926C15.281 0.737256 15.2306 0.792168 15.1841 0.850308H11.4502C11.2303 0.584736 10.9541 0.3708 10.6414 0.223805C10.3288 0.076809 9.98737 0.000386276 9.64159 0H9.55899C7.0383 0 4.62084 0.996498 2.83844 2.77027C1.05604 4.54404 0.0546913 6.9498 0.0546913 9.45828V17.8792C0.055107 18.4986 0.301877 19.0927 0.741089 19.5316L0.906288 19.696V30.3787L0.741089 30.5431C0.301877 30.982 0.055107 31.5761 0.0546913 32.1955V38.5332C0.053568 39.7761 0.298685 41.007 0.77603 42.1555C1.25338 43.3041 1.95358 44.3477 2.83658 45.2267C3.71959 46.1057 4.76808 46.8028 5.92206 47.2782C7.07603 47.7536 8.31286 47.9979 9.56183 47.9971H23.7343C24.0426 47.9975 24.3479 47.9374 24.6329 47.8202C24.9178 47.703 25.1767 47.531 25.3947 47.3141C25.446 47.263 25.4973 47.2063 25.5457 47.1497H26.3118C26.532 47.4156 26.8086 47.6297 27.1218 47.7767C27.435 47.9238 27.777 48 28.1233 47.9999H32.5322C33.1546 47.9996 33.7517 47.7539 34.1927 47.3169L34.2752 47.2318C34.4953 47.4737 34.7639 47.6671 35.0636 47.7994C35.3634 47.9317 35.6876 48 36.0155 47.9999H38.7782C41.1789 48.0065 43.4918 47.1024 45.2464 45.4717C45.3318 45.3952 45.4173 45.313 45.4999 45.2308C46.3858 44.3547 47.0882 43.3123 47.5663 42.1641C48.0445 41.0158 48.2888 39.7846 48.2853 38.5417V26.3681C48.285 26.0236 48.2082 25.6834 48.0605 25.3718C47.9128 25.0601 47.6979 24.7849 47.4309 24.5654V21.7311L47.7897 21.2691Z" fill="url(#paint0_linear_144_130)"/>
<path d="M47.8705 21.6742C48.1885 21.2698 48.3601 20.7704 48.3575 20.257V10.1383C48.3575 8.92386 48.1171 7.7214 47.65 6.59946C47.1829 5.47754 46.4984 4.45817 45.6354 3.59959C44.7723 2.74101 43.7478 2.06003 42.6203 1.59556C41.4927 1.13109 40.2843 0.892214 39.064 0.892586H35.6462C35.3452 0.891602 35.0471 0.949964 34.7689 1.06429C34.4908 1.17861 34.2382 1.34663 34.0256 1.55866C33.9726 1.60904 33.9231 1.66302 33.8775 1.72022H27.3809C27.1665 1.45981 26.8965 1.25019 26.5906 1.10655C26.2847 0.962906 25.9505 0.888836 25.6122 0.889748H17.7712C17.1634 0.890702 16.5807 1.13121 16.1506 1.55866C16.0975 1.60904 16.048 1.66302 16.0025 1.72022H12.354C12.1396 1.45981 11.8697 1.25019 11.5637 1.10655C11.2578 0.962906 10.9236 0.888836 10.5853 0.889748H10.5056C8.04146 0.891254 5.6788 1.86623 3.9367 3.60042C2.19461 5.33461 1.21563 7.68612 1.21488 10.1383V18.358C1.21482 18.658 1.27414 18.9551 1.38948 19.2323C1.50481 19.5095 1.67388 19.7614 1.88703 19.9735L2.04938 20.1351V30.5769L1.88703 30.7384C1.45698 31.1661 1.21521 31.7462 1.21488 32.3512V38.5471C1.20835 40.9372 2.13927 43.2354 3.80954 44.9528C3.84941 44.9981 3.89214 45.0406 3.93771 45.086C4.79826 45.9469 5.82184 46.6294 6.94923 47.0941C8.0766 47.5587 9.28535 47.7962 10.5056 47.7928H24.3618C24.9693 47.7932 25.5522 47.5537 25.9824 47.1268C26.0337 47.0757 26.0821 47.0219 26.1305 46.9652H26.8796C27.0948 47.2247 27.3649 47.4337 27.6706 47.5772C27.9764 47.7208 28.3103 47.7954 28.6483 47.7956H32.9661C33.5741 47.7953 34.157 47.5547 34.5867 47.1268L34.6693 47.0446C34.8854 47.2818 35.1492 47.4713 35.4436 47.6006C35.738 47.7301 36.0564 47.7965 36.3782 47.7956H39.0783C41.5369 47.7881 43.8924 46.8117 45.6294 45.08C47.3663 43.3483 48.3432 41.0024 48.3461 38.5556V26.6513C48.3459 26.3149 48.2709 25.9826 48.1266 25.6784C47.9824 25.3741 47.7724 25.1053 47.5116 24.8912V22.1135L47.8705 21.6742Z" fill="url(#paint1_radial_144_130)"/>
<path d="M46.5742 20.9971C46.5742 20.9971 43.4412 22.9613 43.8257 22.9301C44.2101 22.8989 42.7576 23.976 42.7576 23.976L41.1113 25.1664L44.4067 25.8892L46.258 25.1693H47.1124L46.5742 20.9971Z" fill="url(#paint2_linear_144_130)"/>
<path d="M47.323 24.7383V22.0088L47.7246 21.5723C48.0824 21.2023 48.2859 20.711 48.2942 20.1976V10.2405C48.2942 7.81708 47.1749 5.53545 45.1612 3.82066C43.028 2.06651 40.338 1.1233 37.5709 1.15919H36.0357C38.8028 1.1233 41.4928 2.06651 43.6261 3.82066C45.6568 5.53545 46.7591 7.81708 46.7591 10.2405V20.1948C46.7505 20.7081 46.547 21.1993 46.1894 21.5694L45.7822 22.0088V24.7383C46.0709 24.927 46.3094 25.1828 46.477 25.4834C46.6447 25.784 46.7366 26.1207 46.7448 26.4644V38.1505C46.7448 40.5738 45.6284 42.8583 43.6118 44.5731C41.4781 46.3263 38.7882 47.2685 36.0215 47.2318H37.5566C40.3234 47.2685 43.0133 46.3263 45.147 44.5731C47.172 42.8725 48.28 40.5738 48.28 38.1505V26.4559C48.271 26.1141 48.1794 25.7795 48.0127 25.4805C47.8461 25.1815 47.6095 24.9269 47.323 24.7383Z" fill="#101221"/>
<path d="M45.2477 45.4713C43.4927 47.1009 41.1798 48.0039 38.7795 47.9967H36.0168C35.689 47.9967 35.3647 47.9284 35.065 47.7961C34.7652 47.6638 34.4966 47.4705 34.2766 47.2285L34.194 47.3136C33.753 47.7507 33.1559 47.9962 32.5335 47.9967H28.1246C27.7783 47.9967 27.4363 47.9205 27.1232 47.7735C26.81 47.6265 26.5334 47.4123 26.3131 47.1464H25.5613C25.5128 47.203 25.4616 47.2597 25.4103 47.3107C25.1922 47.5277 24.9334 47.6997 24.6485 47.8169C24.3635 47.9341 24.0582 47.9943 23.7498 47.9938H11.1895L12.2319 46.8601V44.7627L11.2606 43.6969L12.2319 41.5258L13.1518 40.6585L13.7214 37.9092L16.3902 36.0073L20.8475 39.1846C21.1056 39.5277 21.4592 39.7878 21.8644 39.9329C22.5906 40.2163 24.7524 40.4998 24.7524 40.4998C24.7524 40.4998 27.3926 36.1207 28.4094 35.9932C29.4262 35.8656 32.9181 35.5482 32.9181 35.5482C32.9181 35.5482 34.0801 36.3418 35.245 33.1389C36.4099 29.9361 37.2814 27.6459 38.2982 27.85C39.315 28.0541 42.1517 33.8362 42.1517 33.8362C42.1517 33.8362 41.9353 35.9194 42.1517 37.3395C42.3682 38.7595 43.0974 38.9069 44.117 39.9187C45.1366 40.9306 45.091 43.1782 45.091 43.1782C45.091 43.1782 45.2135 44.312 45.2477 45.4713Z" fill="url(#paint3_linear_144_130)"/>
<path d="M27.3809 1.72073C27.3809 1.72073 28.0217 8.78111 30.736 8.06969C33.4503 7.35827 34.0256 1.55067 34.0256 1.55067L27.3809 1.72073Z" fill="url(#paint4_linear_144_130)"/>
<path d="M25.6122 1.45955C25.8665 1.45842 26.1179 1.51382 26.348 1.6217C26.5781 1.72957 26.7811 1.88722 26.9422 2.08311L27.1131 2.28718H34.1452L34.3161 2.08311L34.4272 1.96124C34.5868 1.8014 34.7768 1.67474 34.9861 1.58862C35.1954 1.5025 35.4197 1.45862 35.6462 1.45955H39.064C41.3752 1.46255 43.5908 2.37817 45.2243 4.00535C46.8579 5.63254 47.7757 7.83828 47.7765 10.1384V20.2741C47.7749 20.6559 47.6468 21.0265 47.4119 21.3284L47.073 21.7621L46.9505 21.9152V25.1548L47.1584 25.3249C47.3553 25.4852 47.5137 25.6873 47.6221 25.9162C47.7305 26.1452 47.7862 26.3954 47.785 26.6485V38.5529C47.7843 40.8549 46.8648 43.0624 45.2289 44.6899C43.5929 46.3174 41.3744 47.2317 39.0612 47.2317H36.3639C36.1226 47.2324 35.8839 47.1823 35.6635 47.0846C35.4431 46.9868 35.246 46.8438 35.0851 46.6648L34.675 46.2312L34.2506 46.6535L34.168 46.7357C33.8432 47.0551 33.4056 47.2352 32.949 47.2374H28.6483C28.3944 47.2381 28.1435 47.1825 27.914 47.0746C27.6844 46.9667 27.4818 46.8093 27.321 46.6138L27.1501 46.4069H25.8628L25.6919 46.6138L25.5808 46.7357C25.4212 46.8955 25.2312 47.0222 25.0219 47.1083C24.8126 47.1944 24.5883 47.2383 24.3618 47.2374H10.5084C8.19467 47.2374 5.9757 46.3227 4.33964 44.6946C2.7036 43.0664 1.78447 40.8583 1.78447 38.5557V32.3626C1.78524 31.9074 1.96758 31.471 2.29144 31.1495L2.45094 30.988L2.61899 30.8207V19.9084L2.45094 19.744L2.29144 19.5825C1.96941 19.2599 1.78827 18.824 1.78733 18.3694V10.1497C1.78808 7.84818 2.70715 5.64111 4.3425 4.01368C5.97785 2.38624 8.19564 1.47163 10.5084 1.47088H10.5853C10.8396 1.46975 11.091 1.52515 11.3211 1.63303C11.5513 1.74091 11.7543 1.89854 11.9154 2.09444L12.0862 2.30136H16.273L16.4439 2.09728C16.4781 2.05477 16.5152 2.01508 16.5522 1.9754C16.7126 1.81587 16.9031 1.68943 17.1128 1.60334C17.3225 1.51725 17.5472 1.47319 17.774 1.47371H25.6122M25.6122 0.90684H17.774C17.4724 0.905856 17.1736 0.964476 16.8949 1.0793C16.6162 1.19413 16.3632 1.36287 16.1506 1.57575C16.0993 1.62677 16.0509 1.68064 16.0025 1.73449H12.3539C12.1396 1.47409 11.8697 1.26445 11.5637 1.12081C11.2578 0.97716 10.9235 0.903096 10.5853 0.904008H10.5084C9.28823 0.903636 8.0799 1.14254 6.95253 1.60705C5.82516 2.07155 4.80082 2.75257 3.93803 3.61118C3.07523 4.4698 2.3909 5.48918 1.92414 6.61109C1.45737 7.73298 1.21732 8.93544 1.21769 10.1497V18.3694C1.21671 18.6688 1.27534 18.9656 1.39022 19.2424C1.5051 19.5192 1.67395 19.7706 1.88701 19.9821L2.04936 20.1437V30.5883L1.88701 30.7471C1.67385 30.9592 1.50478 31.2111 1.38945 31.4883C1.27412 31.7655 1.21479 32.0626 1.21484 32.3626V38.5557C1.2156 41.0083 2.19497 43.3603 3.93768 45.0946C5.6804 46.8289 8.04379 47.8035 10.5084 47.8042H24.3618C24.663 47.8049 24.9612 47.746 25.2394 47.6312C25.5175 47.5164 25.7701 47.3479 25.9824 47.1353C26.0346 47.0842 26.0841 47.0302 26.1305 46.9738H26.8796C27.0949 47.2331 27.365 47.442 27.6707 47.5855C27.9765 47.7291 28.3102 47.8038 28.6483 47.8042H32.9661C33.2672 47.8049 33.5655 47.746 33.8436 47.6312C34.1219 47.5164 34.3744 47.3479 34.5867 47.1353L34.6721 47.0531C34.8874 47.2914 35.1511 47.4815 35.4456 47.611C35.7402 47.7404 36.059 47.8063 36.381 47.8042H39.0782C41.5383 47.7982 43.8956 46.8215 45.633 45.0883C47.3704 43.355 48.3461 41.0068 48.3461 38.5585V26.6542C48.347 26.3176 48.2726 25.985 48.1283 25.6805C47.984 25.376 47.7733 25.1074 47.5116 24.8941V22.1164L47.8619 21.6714C48.1751 21.2701 48.3454 20.7765 48.3461 20.2684V10.1384C48.3461 7.68623 47.3673 5.33459 45.625 3.60068C43.8826 1.86678 41.5195 0.892674 39.0554 0.892674H35.6376C35.3365 0.892062 35.0382 0.950874 34.7601 1.06569C34.4819 1.1805 34.2293 1.34904 34.017 1.56158C33.9658 1.6126 33.9145 1.66645 33.8689 1.7203H27.3808C27.1654 1.46133 26.8952 1.25288 26.5894 1.10982C26.2837 0.966756 25.95 0.892608 25.6122 0.892674V0.90684Z" fill="#161828"/>
<path d="M12.2168 2.29556C12.3706 2.93896 13.769 8.74093 14.8428 8.79475C15.1869 8.82139 15.5288 8.72047 15.8026 8.51131C15.9296 8.38369 16.0268 8.22985 16.0874 8.06065C16.2925 7.49377 16.4007 5.26031 16.3722 2.23888L12.2168 2.29556Z" fill="url(#paint5_linear_144_130)"/>
<g filter="url(#filter0_f_144_130)">
<path d="M48.287 26.3145V38.0771C48.2883 39.282 48.0474 40.475 47.5783 41.5858C47.1092 42.6967 46.4215 43.7029 45.5556 44.5451C43.8003 46.2706 41.4294 47.2337 38.9621 47.2236H36.2507C35.9296 47.2248 35.6118 47.1594 35.3175 47.0315C35.0233 46.9036 34.7591 46.7161 34.5417 46.481L34.4592 46.5631C34.0251 46.987 33.4411 47.2242 32.8329 47.2236H28.5037C28.1655 47.2244 27.8312 47.1512 27.5246 47.0091C27.2179 46.8671 26.9464 46.6597 26.7293 46.4016H25.9745C25.9304 46.4591 25.8807 46.5123 25.8264 46.5603C25.3943 46.9858 24.8109 47.2243 24.203 47.2236H10.2983C7.83123 47.2324 5.46085 46.2696 3.7048 44.5451C2.83631 43.7388 2.15579 42.7529 1.71109 41.6569C1.1339 40.1197 1.05816 38.4407 1.49463 36.8583C1.49391 38.0362 1.73017 39.2022 2.18949 40.2877C2.64881 41.3733 3.3219 42.3564 4.16905 43.1789C5.88486 44.868 8.20382 45.8109 10.6173 45.8007H24.2115C24.8081 45.8005 25.3807 45.5674 25.8065 45.1516C25.8549 45.1035 25.9033 45.0525 25.9517 44.9958H26.7008C26.914 45.2471 27.1795 45.4492 27.479 45.5883C27.7785 45.7273 28.1049 45.7998 28.4353 45.8007H32.6534C33.248 45.799 33.8183 45.5661 34.2427 45.1516L34.3253 45.0723C34.5382 45.3015 34.7962 45.4844 35.0835 45.6098C35.3707 45.7351 35.6807 45.8001 35.9943 45.8007H38.6431C41.0566 45.8109 43.3755 44.868 45.0914 43.1789C45.9395 42.3583 46.6141 41.3771 47.0754 40.293C47.5366 39.209 47.7753 38.044 47.7771 36.8668V25.3564C47.7781 25.1649 47.7522 24.9741 47.7003 24.7896C48.0825 25.2058 48.2921 25.7506 48.287 26.3145Z" fill="#45B7DD"/>
</g>
<path d="M16.3893 19.3701L13.1367 22.4511L14.3016 25.0218C14.3016 25.0218 15.4238 27.0937 16.3893 27.5161C17.3548 27.9384 18.6678 29.8006 19.5365 29.3046C20.4052 28.8085 20.9919 28.8312 21.2824 27.5161C21.5729 26.2009 22.8831 25.3421 22.5897 24.6137C22.2964 23.8852 19.1349 23.2362 17.8077 22.1138C17.0063 21.4083 16.5002 20.4292 16.3893 19.3701Z" fill="url(#paint6_linear_144_130)"/>
</g>
<defs>
<filter id="filter0_f_144_130" x="0.227344" y="23.8021" width="49.0473" height="24.4091" filterUnits="userSpaceOnUse" color-interpolation-filters="sRGB">
<feFlood flood-opacity="0" result="BackgroundImageFix"/>
<feBlend mode="normal" in="SourceGraphic" in2="BackgroundImageFix" result="shape"/>
<feGaussianBlur stdDeviation="0.49375" result="effect1_foregroundBlur_144_130"/>
</filter>
<linearGradient id="paint0_linear_144_130" x1="24.17" y1="47.4983" x2="24.17" y2="1.19894" gradientUnits="userSpaceOnUse">
<stop offset="0.26" stop-color="#313349"/>
<stop offset="0.68" stop-color="#2A2B41"/>
<stop offset="1" stop-color="#212238"/>
</linearGradient>
<radialGradient id="paint1_radial_144_130" cx="0" cy="0" r="1" gradientUnits="userSpaceOnUse" gradientTransform="translate(46.6373 24.9223) scale(51.5943 51.3445)">
<stop offset="0.26" stop-color="#26273D" stop-opacity="0"/>
<stop offset="0.62" stop-color="#25263C" stop-opacity="0.05"/>
<stop offset="0.75" stop-color="#232438" stop-opacity="0.22"/>
<stop offset="0.84" stop-color="#1E1F32" stop-opacity="0.51"/>
<stop offset="0.92" stop-color="#17192A" stop-opacity="0.93"/>
<stop offset="0.93" stop-color="#161828"/>
</radialGradient>
<linearGradient id="paint2_linear_144_130" x1="48.4225" y1="30.2541" x2="42.5478" y2="20.9656" gradientUnits="userSpaceOnUse">
<stop offset="0.26" stop-color="#313349" stop-opacity="0"/>
<stop offset="0.51" stop-color="#27293D" stop-opacity="0.47"/>
<stop offset="0.8" stop-color="#1E2033" stop-opacity="0.86"/>
<stop offset="1" stop-color="#1B1D30"/>
</linearGradient>
<linearGradient id="paint3_linear_144_130" x1="31.2917" y1="51.8883" x2="22.9277" y2="31.8855" gradientUnits="userSpaceOnUse">
<stop offset="0.26" stop-color="#313349" stop-opacity="0"/>
<stop offset="0.51" stop-color="#27293D" stop-opacity="0.47"/>
<stop offset="0.8" stop-color="#1E2033" stop-opacity="0.86"/>
<stop offset="1" stop-color="#1B1D30"/>
</linearGradient>
<linearGradient id="paint4_linear_144_130" x1="28.2211" y1="14.1835" x2="30.6703" y2="1.82956" gradientUnits="userSpaceOnUse">
<stop offset="0.26" stop-color="#313349" stop-opacity="0"/>
<stop offset="0.51" stop-color="#27293D" stop-opacity="0.47"/>
<stop offset="0.8" stop-color="#1E2033" stop-opacity="0.86"/>
<stop offset="1" stop-color="#1B1D30"/>
</linearGradient>
<linearGradient id="paint5_linear_144_130" x1="19.7473" y1="17.6833" x2="14.2211" y2="2.3266" gradientUnits="userSpaceOnUse">
<stop offset="0.26" stop-color="#313349" stop-opacity="0"/>
<stop offset="0.51" stop-color="#27293D" stop-opacity="0.47"/>
<stop offset="0.8" stop-color="#1E2033" stop-opacity="0.86"/>
<stop offset="1" stop-color="#1B1D30"/>
</linearGradient>
<linearGradient id="paint6_linear_144_130" x1="20.9179" y1="29.3215" x2="15.575" y2="19.4588" gradientUnits="userSpaceOnUse">
<stop offset="0.26" stop-color="#313349" stop-opacity="0"/>
<stop offset="0.51" stop-color="#27293D" stop-opacity="0.47"/>
<stop offset="0.8" stop-color="#1E2033" stop-opacity="0.86"/>
<stop offset="1" stop-color="#1B1D30"/>
</linearGradient>
<clipPath id="clip0_144_130">
<rect width="48.9057" height="48" fill="white"/>
</clipPath>
</defs>
</svg>
