<svg width="399" height="130" viewBox="0 0 399 130" fill="none" xmlns="http://www.w3.org/2000/svg">
<g clip-path="url(#clip0_144_85)">
<path fill-rule="evenodd" clip-rule="evenodd" d="M330.266 339.62C313.262 343.288 65.4954 341.454 -6.58551e-06 337.467C0.53979 330.051 0.98962 322.635 1.43945 315.219L24.9206 313.465L1.79929 308.92C3.95848 272.876 5.48792 236.514 6.20765 200.152L18.7129 196.563L6.2976 193.134C7.28723 141.222 6.74744 89.2307 4.58825 37.4783C14.4845 25.1183 24.4708 12.838 34.3671 0.478021C38.5955 -1.11682 329.456 1.83363 396.571 4.06641C395.401 20.8122 394.502 37.4783 393.782 54.224L384.695 59.0086L388.744 63.4741L388.024 66.903L393.152 69.8535C391.173 123.839 391.443 177.664 393.782 231.171L386.945 234.122L390.363 239.305L380.647 243.372L394.502 246.322C395.671 268.57 397.111 290.738 399 312.907C376.149 321.838 353.207 330.769 330.356 339.7L330.266 339.62Z" fill="url(#paint0_linear_144_85)"/>
<path style="mix-blend-mode:multiply" fill-rule="evenodd" clip-rule="evenodd" d="M4.67746 37.3987C11.5149 34.528 40.8439 30.3016 42.1934 27.5904C43.273 25.5171 36.0757 7.73469 34.5463 0.398438C24.65 12.7584 14.6637 25.0387 4.76745 37.3987H4.67746Z" fill="url(#paint1_radial_144_85)"/>
<path fill-rule="evenodd" clip-rule="evenodd" d="M4.67905 37.3987C16.4646 32.6939 28.2502 28.1486 39.5859 22.6464C37.3368 15.3102 35.8973 7.89417 34.5479 0.398438C31.6689 0.398438 4.76903 34.6077 4.76903 37.3987H4.67905Z" fill="url(#paint2_linear_144_85)"/>
<path style="mix-blend-mode:screen" fill-rule="evenodd" clip-rule="evenodd" d="M34.9077 20.1744C31.489 27.2714 16.3747 32.2154 7.19813 34.209C6.83826 34.209 6.47839 34.3685 6.20849 34.4482C5.21886 35.9633 4.67905 37 4.67905 37.3987C4.94895 37.3189 5.30882 37.1594 5.66868 37C17.0944 32.4547 28.6101 27.9891 39.5859 22.6464C37.3368 15.3102 35.8973 7.89417 34.5479 0.398438C34.3679 0.398438 34.098 0.557921 33.7382 0.797147C33.7382 0.956631 33.8281 1.03637 33.9181 1.19586C35.8073 6.21959 37.3368 15.3899 34.9077 20.1744Z" fill="url(#paint3_radial_144_85)"/>
<path style="mix-blend-mode:screen" opacity="0.5" fill-rule="evenodd" clip-rule="evenodd" d="M322.08 332.763C329.997 329.493 333.235 323.752 337.554 314.422C350.059 287.708 366.433 292.493 379.478 285.236C388.205 280.372 390.994 265.7 374.8 246.003C359.865 227.742 386.945 207.648 386.045 169.531C385.416 145.13 370.661 106.535 368.232 95.2115C365.983 84.6856 363.194 79.1036 374.44 64.1122C378.758 58.3707 373.9 55.6595 384.516 40.987C390.094 33.3318 388.295 27.9093 382.897 23.9222C365.893 11.5623 334.675 8.37258 303.996 11.5623C217.989 20.6528 212.771 26.155 139.898 13.6355C120.645 10.3661 113.808 11.2433 101.392 10.0472C91.7661 9.09026 81.7798 7.6549 73.5029 9.88768C56.3194 14.433 64.4164 29.5839 49.5719 38.834C28.25 52.1509 5.03867 33.571 15.6547 72.3256C20.9627 91.8623 27.1704 114.509 17.1841 138.671C14.3052 145.608 14.3052 163.231 17.6339 169.69C30.5891 195.367 42.6446 191.38 25.371 206.053C11.3363 218.014 31.1289 227.902 20.9627 241.299C11.1564 254.297 15.8346 266.896 26.7205 293.37C28.16 296.958 20.8727 301.424 34.5476 308.441C44.084 313.385 10.3467 327.5 86.638 327.5C108.32 327.5 114.977 334.597 136.839 333.959C156.002 333.48 169.317 334.357 184.341 335.155C211.691 336.75 239.401 331.008 243.359 331.088C274.847 332.045 296.619 343.209 322.169 332.683L322.08 332.763Z" fill="url(#paint4_radial_144_85)"/>
<path style="mix-blend-mode:screen" opacity="0.5" fill-rule="evenodd" clip-rule="evenodd" d="M355.906 281.967C366.432 273.594 371.47 267.215 364.183 243.85C353.477 209.163 374.529 200.391 376.778 178.781C379.747 151.111 377.318 164.667 366.072 145.05C359.145 133.009 377.678 129.182 356.086 106.535C340.072 89.6296 343.94 75.914 358.515 60.4441C370.39 47.9246 371.74 30.7801 359.055 22.487C339.262 9.56878 316.591 24.1615 301.026 25.0387C296.348 25.2779 290.41 24.321 280.514 20.9719C269.358 17.1443 240.749 27.9094 218.977 31.3383C194.147 35.3254 172.555 34.847 140.347 19.9352C112.187 6.85756 72.9622 24.7197 65.0451 37.7974C62.886 41.3858 48.0415 38.3556 45.3425 58.6898C44.173 67.5411 19.3423 73.2028 34.0968 97.1254C36.7957 101.511 38.685 126.869 33.8269 134.445C28.3389 143.136 28.3389 162.593 34.0968 170.089C50.3806 191.38 27.0794 208.923 39.0449 224.393C51.1904 240.103 40.8442 252.622 40.8442 264.583C40.8442 289.782 50.9204 274.471 45.2526 299.112C40.3044 320.562 60.2769 323.513 81.329 319.206C95.3637 316.336 115.426 327.101 136.928 328.058C162.838 329.174 168.686 317.851 190.728 321.439C224.375 326.862 237.15 309.478 260.542 323.034C278.445 333.401 295.808 330.849 303.725 323.832C313.712 314.821 302.016 326.064 317.58 307.165C332.515 288.905 350.508 286.193 355.816 281.967H355.906Z" fill="url(#paint5_radial_144_85)"/>
</g>
<g clip-path="url(#clip1_144_85)">
<path fill-rule="evenodd" clip-rule="evenodd" d="M330.266 85.9033C313.262 86.3581 65.4954 86.1307 -6.58551e-06 85.6364C0.53979 84.7171 0.98962 83.7977 1.43945 82.8784L24.9206 82.6609L1.79929 82.0975C3.95848 77.6293 5.48792 73.1216 6.20765 68.6138L18.7129 68.169L6.2976 67.7439C7.28723 61.3086 6.74744 54.8633 4.58825 48.4477C14.4845 46.9155 24.4708 45.3931 34.3671 43.8609C38.5955 43.6632 329.456 44.029 396.571 44.3057C395.401 46.3817 394.502 48.4477 393.782 50.5236L384.695 51.1168L388.744 51.6703L388.024 52.0954L393.152 52.4612C391.173 59.1536 391.443 65.8262 393.782 72.4592L386.945 72.825L390.363 73.4675L380.647 73.9717L394.502 74.3375C395.671 77.0955 397.111 79.8436 399 82.5917C376.149 83.6989 353.207 84.806 330.356 85.9132L330.266 85.9033Z" fill="url(#paint6_linear_144_85)"/>
<path style="mix-blend-mode:screen" opacity="0.5" fill-rule="evenodd" clip-rule="evenodd" d="M322.078 85.0535C329.995 84.6482 333.234 83.9365 337.552 82.7799C350.058 79.4683 366.431 80.0614 379.476 79.1618C388.203 78.5588 390.992 76.7399 374.798 74.2982C359.864 72.0345 386.944 69.5434 386.044 64.8182C385.414 61.7933 370.66 57.0087 368.231 55.605C365.982 54.3002 363.193 53.6082 374.438 51.7497C378.757 51.038 373.899 50.7019 384.515 48.883C390.092 47.934 388.293 47.2618 382.895 46.7675C365.892 45.2353 334.673 44.8399 303.995 45.2353C217.987 46.3622 212.769 47.0443 139.897 45.4923C120.644 45.087 113.806 45.1957 101.391 45.0475C91.7646 44.9288 81.7784 44.7509 73.5015 45.0277C56.3179 45.5912 64.4149 47.4694 49.5705 48.6161C28.2485 50.2669 5.03721 47.9636 15.6532 52.7679C20.9612 55.1898 27.1689 57.9973 17.1827 60.9925C14.3037 61.8526 14.3037 64.0372 17.6325 64.8379C30.5876 68.021 42.6431 67.5268 25.3696 69.3457C11.3349 70.8285 31.1274 72.0543 20.9612 73.715C11.1549 75.3263 15.8331 76.8882 26.7191 80.1701C28.1585 80.615 20.8713 81.1686 34.5461 82.0385C44.0826 82.6514 10.3452 84.4011 86.6365 84.4011C108.318 84.4011 114.976 85.2809 136.838 85.2018C156 85.1425 169.315 85.2512 184.34 85.3501C211.69 85.5478 239.399 84.836 243.358 84.8459C274.846 84.9645 296.618 86.3485 322.168 85.0436L322.078 85.0535Z" fill="url(#paint7_radial_144_85)"/>
<path style="mix-blend-mode:screen" opacity="0.5" fill-rule="evenodd" clip-rule="evenodd" d="M355.906 78.7563C366.432 77.7183 371.47 76.9275 364.183 74.031C353.477 69.7309 374.529 68.6435 376.778 65.9646C379.747 62.5344 377.318 64.2149 366.072 61.7831C359.145 60.2904 377.678 59.8159 356.086 57.0085C340.072 54.9128 343.94 53.2125 358.515 51.2947C370.39 49.7427 371.74 47.6174 359.055 46.5893C339.262 44.9879 316.591 46.7969 301.026 46.9056C296.348 46.9353 290.41 46.8167 280.514 46.4015C269.358 45.927 240.749 47.2615 218.977 47.6866C194.147 48.1808 172.555 48.1215 140.347 46.273C112.187 44.6518 72.9622 46.8661 65.0451 48.4873C62.886 48.9321 48.0415 48.5565 45.3425 51.0773C44.173 52.1745 19.3423 52.8764 34.0968 55.842C36.7957 56.3857 38.685 59.5292 33.8269 60.4683C28.3389 61.5458 28.3389 63.9579 34.0968 64.8871C50.3806 67.5265 27.0794 69.7013 39.0449 71.619C51.1904 73.5664 40.8442 75.1184 40.8442 76.6012C40.8442 79.725 50.9204 77.827 45.2526 80.8816C40.3044 83.5408 60.2769 83.9065 81.329 83.3727C95.3637 83.0168 115.426 84.3514 136.928 84.47C162.838 84.6084 168.686 83.2047 190.728 83.6495C224.375 84.3217 237.15 82.1667 260.542 83.8472C278.445 85.1323 295.808 84.816 303.725 83.9461C313.712 82.829 302.016 84.2229 317.58 81.88C332.515 79.6163 350.508 79.2802 355.816 78.7563H355.906Z" fill="url(#paint8_radial_144_85)"/>
</g>
<g clip-path="url(#clip2_144_85)">
<path fill-rule="evenodd" clip-rule="evenodd" d="M330.266 127.62C313.262 131.288 65.4954 129.454 -6.58551e-06 125.467C0.53979 118.051 0.98962 110.635 1.43945 103.219L24.9206 101.465L1.79929 96.9196C3.95848 60.8763 5.48792 24.514 6.20765 -11.8483L18.7129 -15.4367L6.2976 -18.8656C7.28723 -70.7776 6.74744 -122.769 4.58825 -174.522C14.4845 -186.882 24.4708 -199.162 34.3671 -211.522C38.5955 -213.117 329.456 -210.166 396.571 -207.934C395.401 -191.188 394.502 -174.522 393.782 -157.776L384.695 -152.991L388.744 -148.526L388.024 -145.097L393.152 -142.147C391.173 -88.1613 391.443 -34.3355 393.782 19.1713L386.945 22.1217L390.363 27.305L380.647 31.3718L394.502 34.3222C395.671 56.5702 397.111 78.7385 399 100.907C376.149 109.838 353.207 118.769 330.356 127.7L330.266 127.62Z" fill="url(#paint9_linear_144_85)"/>
<path style="mix-blend-mode:multiply" fill-rule="evenodd" clip-rule="evenodd" d="M330.356 127.541C353.207 118.61 376.149 109.679 399 100.748C396.841 97.7972 375.429 82.8057 372.55 82.5665C369.761 82.3273 337.463 122.039 330.356 127.541Z" fill="url(#paint10_radial_144_85)"/>
<path fill-rule="evenodd" clip-rule="evenodd" d="M376.598 88.8662C362.114 102.103 345.29 116.696 330.266 127.541C335.304 127.541 399 105.213 399 100.748C392.163 96.2822 384.785 92.2154 376.598 88.8662Z" fill="url(#paint11_linear_144_85)"/>
<path style="mix-blend-mode:screen" fill-rule="evenodd" clip-rule="evenodd" d="M344.571 122.038C348.529 109.359 379.298 93.8893 389.734 95.2449C385.595 92.9324 381.187 90.8591 376.599 88.9453C362.204 102.103 345.381 116.695 330.356 127.54C330.356 127.54 330.356 127.54 330.266 127.62C331.616 127.62 337.014 126.105 344.211 123.713C344.211 123.155 344.391 122.596 344.571 122.038Z" fill="url(#paint12_radial_144_85)"/>
<path style="mix-blend-mode:screen" opacity="0.5" fill-rule="evenodd" clip-rule="evenodd" d="M322.078 120.763C329.995 117.493 333.234 111.752 337.552 102.422C350.058 75.7084 366.431 80.4929 379.476 73.2364C388.203 68.3721 390.992 53.6996 374.798 34.0034C359.864 15.7425 386.944 -4.35246 386.044 -42.4691C385.414 -66.8701 370.66 -105.465 368.231 -116.789C365.982 -127.314 363.193 -132.896 374.438 -147.888C378.757 -153.629 373.899 -156.34 384.515 -171.013C390.092 -178.668 388.293 -184.091 382.895 -188.078C365.892 -200.438 334.673 -203.627 303.995 -200.438C217.987 -191.347 212.769 -185.845 139.897 -198.364C120.644 -201.634 113.806 -200.757 101.391 -201.953C91.7646 -202.91 81.7784 -204.345 73.5015 -202.112C56.3179 -197.567 64.4149 -182.416 49.5705 -173.166C28.2485 -159.849 5.03721 -178.429 15.6532 -139.674C20.9612 -120.138 27.1689 -97.491 17.1827 -73.3292C14.3037 -66.3917 14.3037 -48.7687 17.6325 -42.3096C30.5876 -16.6327 42.6431 -20.6198 25.3696 -5.9473C11.3349 6.01398 31.1274 15.902 20.9612 29.2986C11.1549 42.2965 15.8331 54.8957 26.7191 81.37C28.1585 84.9584 20.8713 89.424 34.5461 96.4413C44.0826 101.385 10.3452 115.5 86.6365 115.5C108.318 115.5 114.976 122.597 136.838 121.959C156 121.48 169.315 122.357 184.34 123.155C211.69 124.75 239.399 119.008 243.358 119.088C274.846 120.045 296.618 131.209 322.168 120.683L322.078 120.763Z" fill="url(#paint13_radial_144_85)"/>
<path style="mix-blend-mode:screen" opacity="0.5" fill-rule="evenodd" clip-rule="evenodd" d="M355.906 69.967C366.432 61.5942 371.47 55.2148 364.183 31.8504C353.477 -2.83729 374.529 -11.6089 376.778 -33.2189C379.747 -60.8894 377.318 -47.3333 366.072 -66.9498C359.145 -78.9908 377.678 -82.8184 356.086 -105.465C340.072 -122.37 343.94 -136.086 358.515 -151.556C370.39 -164.075 371.74 -181.22 359.055 -189.513C339.262 -202.431 316.591 -187.838 301.026 -186.961C296.348 -186.722 290.41 -187.679 280.514 -191.028C269.358 -194.856 240.749 -184.091 218.977 -180.662C194.147 -176.675 172.555 -177.153 140.347 -192.065C112.187 -205.142 72.9622 -187.28 65.0451 -174.203C62.886 -170.614 48.0415 -173.644 45.3425 -153.31C44.173 -144.459 19.3423 -138.797 34.0968 -114.875C36.7957 -110.489 38.685 -85.1309 33.8269 -77.5554C28.3389 -68.8636 28.3389 -49.4065 34.0968 -41.9108C50.3806 -20.6197 27.0794 -3.07652 39.0449 12.3934C51.1904 28.1026 40.8442 40.622 40.8442 52.5833C40.8442 77.7818 50.9204 62.4713 45.2526 87.1115C40.3044 108.562 60.2769 111.513 81.329 107.206C95.3637 104.336 115.426 115.101 136.928 116.058C162.838 117.174 168.686 105.851 190.728 109.439C224.375 114.862 237.15 97.478 260.542 111.034C278.445 121.401 295.808 118.849 303.725 111.832C313.712 102.821 302.016 114.064 317.58 95.1655C332.515 76.9046 350.508 74.1934 355.816 69.967H355.906Z" fill="url(#paint14_radial_144_85)"/>
</g>
<defs>
<linearGradient id="paint0_linear_144_85" x1="199.455" y1="341.534" x2="199.455" y2="-0.000421526" gradientUnits="userSpaceOnUse">
<stop stop-color="#EDD6B9"/>
<stop offset="1" stop-color="#D4B492"/>
</linearGradient>
<radialGradient id="paint1_radial_144_85" cx="0" cy="0" r="1" gradientUnits="userSpaceOnUse" gradientTransform="translate(9.89551 16.4266) rotate(180) scale(35.8066 31.7373)">
<stop stop-color="#A48A7B"/>
<stop offset="1" stop-color="white"/>
</radialGradient>
<linearGradient id="paint2_linear_144_85" x1="16.3747" y1="16.1076" x2="29.8327" y2="31.2912" gradientUnits="userSpaceOnUse">
<stop stop-color="#BF9F7E"/>
<stop offset="1" stop-color="#EDD6B9"/>
</linearGradient>
<radialGradient id="paint3_radial_144_85" cx="0" cy="0" r="1" gradientUnits="userSpaceOnUse" gradientTransform="translate(-2.15838 -11.0844) rotate(180) scale(69.4539 61.5607)">
<stop/>
<stop offset="1" stop-color="#A3805F"/>
</radialGradient>
<radialGradient id="paint4_radial_144_85" cx="0" cy="0" r="1" gradientUnits="userSpaceOnUse" gradientTransform="translate(200.535 172.96) rotate(180) scale(376.598 333.8)">
<stop stop-color="#CA9E67"/>
<stop offset="1"/>
</radialGradient>
<radialGradient id="paint5_radial_144_85" cx="0" cy="0" r="1" gradientUnits="userSpaceOnUse" gradientTransform="translate(203.773 172.641) rotate(180) scale(309.214 274.073)">
<stop stop-color="#CA9E67"/>
<stop offset="1"/>
</radialGradient>
<linearGradient id="paint6_linear_144_85" x1="199.455" y1="86.1406" x2="199.455" y2="43.8016" gradientUnits="userSpaceOnUse">
<stop stop-color="#EDD6B9"/>
<stop offset="1" stop-color="#D4B492"/>
</linearGradient>
<radialGradient id="paint7_radial_144_85" cx="0" cy="0" r="1" gradientUnits="userSpaceOnUse" gradientTransform="translate(200.534 65.2432) rotate(180) scale(376.598 41.3801)">
<stop stop-color="#CA9E67"/>
<stop offset="1"/>
</radialGradient>
<radialGradient id="paint8_radial_144_85" cx="0" cy="0" r="1" gradientUnits="userSpaceOnUse" gradientTransform="translate(203.773 65.2034) rotate(180) scale(309.214 33.976)">
<stop stop-color="#CA9E67"/>
<stop offset="1"/>
</radialGradient>
<linearGradient id="paint9_linear_144_85" x1="199.455" y1="129.534" x2="199.455" y2="-212" gradientUnits="userSpaceOnUse">
<stop stop-color="#EDD6B9"/>
<stop offset="1" stop-color="#D4B492"/>
</linearGradient>
<radialGradient id="paint10_radial_144_85" cx="0" cy="0" r="1" gradientUnits="userSpaceOnUse" gradientTransform="translate(373.27 131.289) rotate(180) scale(62.7064 55.5801)">
<stop stop-color="#A48A7B"/>
<stop offset="1" stop-color="white"/>
</radialGradient>
<linearGradient id="paint11_linear_144_85" x1="365.623" y1="116.218" x2="357.948" y2="95.931" gradientUnits="userSpaceOnUse">
<stop stop-color="#BF9F7E"/>
<stop offset="1" stop-color="#EDD6B9"/>
</linearGradient>
<radialGradient id="paint12_radial_144_85" cx="0" cy="0" r="1" gradientUnits="userSpaceOnUse" gradientTransform="translate(383.616 156.407) rotate(180) scale(105.89 93.8562)">
<stop/>
<stop offset="1" stop-color="#A3805F"/>
</radialGradient>
<radialGradient id="paint13_radial_144_85" cx="0" cy="0" r="1" gradientUnits="userSpaceOnUse" gradientTransform="translate(200.534 -39.0402) rotate(180) scale(376.598 333.8)">
<stop stop-color="#CA9E67"/>
<stop offset="1"/>
</radialGradient>
<radialGradient id="paint14_radial_144_85" cx="0" cy="0" r="1" gradientUnits="userSpaceOnUse" gradientTransform="translate(203.773 -39.3591) rotate(180) scale(309.214 274.073)">
<stop stop-color="#CA9E67"/>
<stop offset="1"/>
</radialGradient>
<clipPath id="clip0_144_85">
<rect width="399" height="50" fill="white" transform="matrix(-1 0 0 1 399 0)"/>
</clipPath>
<clipPath id="clip1_144_85">
<rect width="399" height="30" fill="white" transform="matrix(-1 0 0 1 399 50)"/>
</clipPath>
<clipPath id="clip2_144_85">
<rect width="399" height="50" fill="white" transform="matrix(-1 0 0 1 399 80)"/>
</clipPath>
</defs>
</svg>
