<svg width="62" height="62" viewBox="0 0 62 62" fill="none" xmlns="http://www.w3.org/2000/svg">
<path d="M30.3514 0.552748C30.7251 0.234234 31.2749 0.234234 31.6486 0.552748L40.2442 7.87782C40.4043 8.01431 40.6035 8.0968 40.8132 8.11354L52.0708 9.0119C52.5603 9.05096 52.949 9.43967 52.9881 9.92918L53.8865 21.1868C53.9032 21.3965 53.9857 21.5957 54.1222 21.7558L61.4473 30.3514C61.7658 30.7251 61.7658 31.2749 61.4473 31.6486L54.1222 40.2442C53.9857 40.4043 53.9032 40.6035 53.8865 40.8132L52.9881 52.0708C52.949 52.5603 52.5603 52.949 52.0708 52.9881L40.8132 53.8865C40.6035 53.9032 40.4043 53.9857 40.2442 54.1222L31.6486 61.4473C31.2749 61.7658 30.7251 61.7658 30.3514 61.4473L21.7558 54.1222C21.5957 53.9857 21.3965 53.9032 21.1868 53.8865L9.92918 52.9881C9.43967 52.949 9.05096 52.5603 9.0119 52.0708L8.11354 40.8132C8.0968 40.6035 8.01431 40.4043 7.87782 40.2442L0.552748 31.6486C0.234234 31.2749 0.234234 30.7251 0.552748 30.3514L7.87782 21.7558C8.01431 21.5957 8.0968 21.3965 8.11354 21.1868L9.0119 9.92918C9.05096 9.43967 9.43967 9.05096 9.92918 9.0119L21.1868 8.11354C21.3965 8.0968 21.5957 8.01431 21.7558 7.87782L30.3514 0.552748Z" fill="url(#paint0_linear_77272_369275)"/>
<path d="M30.9974 56.8326C45.2648 56.8326 56.8307 45.2666 56.8307 30.9993C56.8307 16.732 45.2648 5.16602 30.9974 5.16602C16.73 5.16602 5.16406 16.732 5.16406 30.9993C5.16406 45.2666 16.73 56.8326 30.9974 56.8326Z" fill="url(#paint1_linear_77272_369275)"/>
<path opacity="0.18" d="M31 54.25C43.8407 54.25 54.2501 43.8406 54.2501 31C54.2501 18.1594 43.8407 7.75 31 7.75C18.1594 7.75 7.75 18.1594 7.75 31C7.75 43.8406 18.1594 54.25 31 54.25Z" fill="url(#paint2_radial_77272_369275)" fill-opacity="0.5"/>
<path d="M51.6693 30.928C51.6693 31.775 51.6208 32.6219 51.5239 33.4447C51.427 34.3643 51.2332 35.2839 51.0151 36.1551C50.9182 36.5423 50.8213 36.9053 50.7001 37.2925C50.4821 37.9701 50.2398 38.6477 49.9491 39.3011C49.3191 40.7288 48.5438 42.0598 47.6232 43.294C46.8479 44.3346 45.9757 45.3026 45.0065 46.198C41.3481 49.5859 36.454 51.6429 31.0754 51.6671C25.6967 51.6913 20.7784 49.6585 17.0958 46.2948C16.1509 45.4236 15.2787 44.4798 14.5034 43.4634C13.0497 41.5516 11.9352 39.3737 11.2326 37.0505C10.8934 35.9615 10.6511 34.8241 10.5057 33.6625C10.4088 32.8155 10.3361 31.9686 10.3361 31.1216C10.2877 19.6509 19.4943 10.3824 30.93 10.334C42.3414 10.3098 51.6208 19.5057 51.6693 30.928Z" fill="#FCFCFC"/>
<defs>
<linearGradient id="paint0_linear_77272_369275" x1="-0.0336226" y1="30.9898" x2="62.0133" y2="30.9898" gradientUnits="userSpaceOnUse">
<stop stop-color="#FFF8C1"/>
<stop offset="0.0001" stop-color="#C2E8FD"/>
<stop offset="0.3123" stop-color="#919191"/>
<stop offset="0.7592" stop-color="#DDDDDD"/>
<stop offset="1" stop-color="#E3E3E3"/>
</linearGradient>
<linearGradient id="paint1_linear_77272_369275" x1="5.13604" y1="30.9908" x2="56.8419" y2="30.9908" gradientUnits="userSpaceOnUse">
<stop stop-color="#FFF8C1"/>
<stop offset="0.0001" stop-color="#C2E8FD"/>
<stop offset="0.3123" stop-color="#919191"/>
<stop offset="0.7592" stop-color="#DDDDDD"/>
<stop offset="1" stop-color="#E3E3E3"/>
</linearGradient>
<radialGradient id="paint2_radial_77272_369275" cx="0" cy="0" r="1" gradientUnits="userSpaceOnUse" gradientTransform="translate(30.9884 30.9883) scale(23.2387 23.2387)">
<stop stop-color="white" stop-opacity="0"/>
<stop offset="1" stop-color="#571600"/>
</radialGradient>
</defs>
</svg>
