<svg width="65" height="62" viewBox="0 0 65 62" fill="none" xmlns="http://www.w3.org/2000/svg">
<path d="M48.2002 32.5378C48.2002 32.5378 35.3242 36.8781 25.6064 44.9376C22.2362 47.7391 22.4876 46.4419 24.2395 43.5576C27.5547 38.134 36.212 27.1004 36.212 27.1004L60.3455 0.720703C60.3219 0.913911 60.0234 2.78388 59.0414 5.99941C58.3815 8.19369 57.4152 11.009 56.0012 14.3487C55.1606 16.336 54.7128 18.9305 53.8565 20.8626C53.8565 20.8626 53.2044 20.2761 52.8823 20.2761C52.1674 20.2761 50.9655 20.3727 50.5884 20.9109C50.2113 21.4491 51.0126 22.498 51.5468 23.0914C51.7589 23.3329 51.9318 23.4985 51.9632 23.5261C49.7949 28.3149 48.2002 32.5378 48.2002 32.5378Z" fill="#776483"/>
<path d="M47.6316 31.0199C47.6316 31.0199 34.7635 36.1192 25.6035 44.9446L24.2365 43.5646L21.4477 40.7286L21.0234 40.2938L37.0418 22.643L44.6463 15.2252C44.6463 15.2252 44.6464 15.2252 44.6542 15.2183L57.4359 2.74258C57.5851 2.60457 57.7187 2.45967 57.8522 2.32856C57.9622 2.21816 58.0722 2.11465 58.1743 2.01115L58.7478 1.44533C58.8342 1.35562 58.9207 1.27972 58.9992 1.19692L59.6355 0.575895C59.7612 0.45169 59.8634 0.348186 59.9419 0.279183L60.0912 0.134277C60.2326 0.237781 60.3112 0.430989 60.3347 0.707C60.4211 1.66614 59.9105 3.57061 59.0306 5.98571C57.5773 10.0155 55.1262 15.4736 52.8716 20.2693C52.1567 20.2693 50.9547 20.3659 50.5776 20.9041C50.2005 21.4423 51.0018 22.4911 51.536 23.0846C49.3521 27.618 47.6238 31.013 47.6238 31.013L47.6316 31.0199Z" fill="url(#paint0_linear_274_4359)"/>
<path d="M60.101 0.140963C60.101 0.140963 60.046 0.189265 59.9518 0.285868C59.8811 0.354871 59.7789 0.458375 59.6454 0.58258C59.4804 0.748186 59.2604 0.955194 59.0091 1.2036C58.687 1.51412 58.302 1.89363 57.8542 2.33525C51.6559 8.42819 33.9799 26.0791 21.9053 40.9147L21.4575 40.7283L15.1963 38.1545C15.1963 38.1545 15.4948 37.913 16.0055 37.4231C16.0055 37.4231 16.0055 37.4231 16.0212 37.4162C18.1187 35.4082 23.6022 29.3774 25.2127 19.8757C25.2127 19.8757 25.3384 19.786 25.574 19.6135C27.4595 18.2611 36.4074 11.8852 44.7976 6.76522C44.8369 6.80662 44.8919 6.84112 44.9469 6.87563C45.3004 7.10333 45.8582 7.15854 46.5966 6.48231C47.068 6.05449 47.3351 5.71638 47.4765 5.45417C47.555 5.30926 47.6022 5.18506 47.6258 5.08846C52.3236 2.33525 56.5658 0.244467 58.8834 0.0236581H58.8991C59.4019 -0.0315441 59.8025 0.00985753 60.101 0.147863V0.140963Z" fill="url(#paint1_linear_274_4359)"/>
<path d="M11.6928 43.3643L6.94775 50.8235C6.94775 50.8235 11.9049 53.1074 12.9026 55.0257L20.0908 49.6297C20.0908 49.6297 18.3311 45.7241 11.6849 43.3643H11.6928Z" fill="url(#paint2_linear_274_4359)"/>
<path d="M13.679 60.3389C13.5769 60.4562 13.1762 60.6288 12.5792 60.822C10.2617 61.581 4.98245 62.5884 2.70422 60.9738C-0.163215 58.952 -0.626717 51.7619 0.732366 51.203C2.09931 50.6441 6.94644 50.8166 6.94644 50.8166C11.2358 51.5963 12.9013 55.0188 12.9013 55.0188C12.9013 55.0188 14.1896 59.7731 13.679 60.3389Z" fill="url(#paint3_linear_274_4359)"/>
<g style="mix-blend-mode:multiply" opacity="0.5">
<path d="M13.679 60.3389L12.5792 60.822C10.2617 61.581 4.98245 62.5884 2.70422 60.9738C-0.163215 58.952 -0.626717 51.7619 0.732366 51.203C1.18801 51.065 8.82402 54.8187 11.2515 57.5788L13.679 60.3389Z" fill="#DE376D"/>
</g>
<g style="mix-blend-mode:multiply" opacity="0.5">
<path d="M8.92436 47.7113C13.4101 44.4336 13.5908 54.508 13.5908 54.508L20.0956 49.6295C20.0956 49.6295 18.2494 47.1109 15.3663 45.3997C12.4831 43.6884 10.7705 44.7994 10.7705 44.7994L8.9165 47.7113H8.92436Z" fill="#BE2F55"/>
</g>
<g style="mix-blend-mode:multiply" opacity="0.7">
<path d="M0.0416652 54.7013C0.183073 55.8605 1.30648 52.1068 3.79682 53.0038C6.28716 53.9008 6.71139 58.9863 8.06261 59.8696C9.41384 60.7528 12.6112 59.1174 12.6112 59.1174C12.6112 59.1174 9.78307 55.7225 5.25018 53.3074C0.717279 50.8923 0.685855 51.0786 0.505168 51.3891C0.32448 51.6997 -0.115454 53.4592 0.0495214 54.7082L0.0416652 54.7013Z" fill="#DE376D"/>
</g>
<g style="mix-blend-mode:soft-light">
<path d="M0.638458 56.0333C0.717018 54.9844 2.45319 57.1097 2.72815 58.2276C3.01096 59.3454 1.43191 58.683 1.18052 58.2414C0.929129 57.7997 0.61489 56.3231 0.638458 56.0333Z" fill="white"/>
</g>
<path d="M3.0874 41.8046C2.16039 41.0662 3.26808 35.4425 3.96727 34.5041C4.66645 33.5657 14.6985 35.8358 20.6141 40.0036C26.5296 44.1714 30.5205 51.6375 30.4655 52.4172C30.4026 53.1969 24.5421 56.7437 23.4344 56.1571C22.3267 55.5775 19.475 49.2569 14.6435 45.8481C9.81211 42.4394 4.10082 42.605 3.0874 41.8046Z" fill="url(#paint4_linear_274_4359)"/>
<path d="M3.08842 41.8049C3.46551 42.7019 10.0331 45.9727 10.0331 45.9727C10.0331 45.9727 12.5156 45.4896 15.1788 47.3734C17.8419 49.2572 17.5198 51.6378 17.5198 51.6378C17.5198 51.6378 22.6655 56.192 23.4275 56.1644C24.1896 56.1299 21.9428 50.5682 15.8622 46.1314C9.78171 41.7014 3.08057 41.8049 3.08057 41.8049H3.08842Z" fill="url(#paint5_linear_274_4359)"/>
<g style="mix-blend-mode:soft-light">
<path d="M22.0003 41.0732C18.795 38.803 14.6942 44.13 14.8121 44.8131C14.9299 45.4893 19.1014 48.5945 20.5155 50.4713C21.9296 52.3482 27.3659 48.974 27.8215 48.5945C28.2772 48.2149 24.7813 43.0466 22.0003 41.0732Z" fill="white"/>
</g>
<g style="mix-blend-mode:soft-light">
<path d="M10.6545 52.4381C9.38967 51.6446 8.03845 53.9562 8.10129 54.4254C8.15629 54.9015 11.283 57.2821 11.9821 58.2412C12.6813 59.2004 12.8542 55.4259 12.3278 54.4599C11.8093 53.4938 10.6545 52.4381 10.6545 52.4381Z" fill="white"/>
</g>
<g style="mix-blend-mode:multiply" opacity="0.2">
<path d="M8.72897 34.9115C7.81768 34.7045 5.24092 40.1144 5.18593 41.039C5.13094 41.9567 11.0386 43.1643 11.6907 43.3713C12.3427 43.5783 14.566 38.4721 14.3303 37.5475C14.0946 36.6228 9.87595 35.1738 8.72897 34.9115Z" fill="#E02774"/>
</g>
<path d="M21.9989 41.0733C21.9989 41.0733 20.7812 44.0611 22.3603 45.2687C23.9393 46.4762 26.6182 46.1933 26.6182 46.1933C26.6182 46.1933 25.0863 43.2193 21.9989 41.0664V41.0733Z" fill="white"/>
<path d="M8.90094 55.571C9.29374 54.6256 12.1533 56.6957 11.7212 58.2C11.7212 58.2 8.35888 56.882 8.90094 55.571Z" fill="white"/>
<g style="mix-blend-mode:multiply" opacity="0.5">
<path d="M3.20129 36.7607C3.20129 36.7607 2.85563 41.0251 3.21701 41.6668C3.57838 42.3086 5.41668 41.7358 7.78918 42.4466C10.1617 43.1504 9.14827 45.5241 9.14827 45.5241C9.14827 45.5241 3.87691 42.9572 3.09131 41.8117C2.30571 40.6663 3.20129 36.7607 3.20129 36.7607Z" fill="#BE2F55"/>
</g>
<g style="mix-blend-mode:multiply" opacity="0.5">
<path d="M22.2596 53.2659C21.0734 52.0515 18.7637 52.0722 18.7559 52.3896C18.748 52.707 22.3539 55.7293 23.4302 56.1641C24.5064 56.5988 28.1202 54.3424 28.1202 54.3424C28.1202 54.3424 25.3235 55.3981 24.365 55.198C23.4066 54.9979 22.2596 53.2659 22.2596 53.2659Z" fill="#BE2F55"/>
</g>
<g style="mix-blend-mode:soft-light" opacity="0.5">
<path d="M44.6376 15.2247C40.8196 19.1993 37.5908 22.4424 37.033 22.6425C35.5482 23.1669 25.6968 21.2625 26.7181 19.91C32.9479 14.3829 39.4369 10.0564 44.944 6.87541C45.2975 7.10311 45.8553 7.15832 46.5937 6.48209C47.0651 6.05427 47.3322 5.71616 47.4736 5.45395C53.9626 1.89341 58.5898 0.126942 58.8805 0.0234375H58.8883C58.6684 0.285648 50.8674 8.72468 44.6376 15.2247Z" fill="white"/>
</g>
<g style="mix-blend-mode:multiply" opacity="0.38">
<path d="M45.6467 31.3577C46.9901 29.7154 40.5325 22.6496 39.6762 22.1665C38.8277 21.6835 24.8677 37.5749 23.7364 39.1688C22.6052 40.7697 26.0068 43.654 26.1325 43.9921C26.2582 44.3302 31.7574 38.5754 37.2801 35.1943C42.8107 31.8131 45.6467 31.3577 45.6467 31.3577Z" fill="#B88974"/>
</g>
<g style="mix-blend-mode:soft-light" opacity="0.8">
<path d="M27.1529 34.7252C27.1529 34.7252 33.7598 24.8648 36.8707 21.3456C39.9895 17.8196 55.8822 4.28125 55.8822 4.28125C55.8822 4.28125 38.0648 21.1524 27.145 34.7252H27.1529Z" fill="white"/>
</g>
<path d="M40.1005 18.7993C40.1633 19.8964 43.8399 17.088 44.0599 15.4181C44.2799 13.7483 40.0534 18.0264 40.1005 18.7993Z" fill="white"/>
<g style="mix-blend-mode:multiply" opacity="0.2">
<path d="M16.0137 37.416C18.1112 35.408 23.5947 29.3772 25.2052 19.8755C25.2052 19.8755 25.3309 19.7858 25.5665 19.6133C25.9593 20.0273 28.1119 22.5459 27.5227 26.6723C26.8863 31.0953 16.5007 37.1262 16.0137 37.4091V37.416Z" fill="#B88974"/>
</g>
<path d="M37.5445 11.7127C41.606 9.32523 41.2447 12.451 37.733 15.5148C34.2214 18.5785 29.9242 16.5429 30.2227 16.3428C30.5213 16.1358 37.5524 11.7196 37.5524 11.7196L37.5445 11.7127Z" fill="white"/>
<g style="mix-blend-mode:multiply" opacity="0.5">
<path d="M51.7008 8.84891C50.7738 10.5602 53.6176 16.6669 54.3954 16.4737C55.1731 16.2805 60.1695 2.02454 59.7531 1.45182C59.3368 0.879093 51.7008 8.84891 51.7008 8.84891Z" fill="#A28993"/>
</g>
<g style="mix-blend-mode:multiply" opacity="0.5">
<path d="M47.634 31.0195L48.1918 32.5376C48.1918 32.5376 39.9902 35.3598 35.7872 37.9543C31.5843 40.5419 37.8376 34.9803 47.6262 31.0195H47.634Z" fill="#BE2F55"/>
</g>
<path d="M53.854 20.8623C53.854 20.8623 51.67 20.5932 50.9944 20.9796C50.3188 21.366 50.8295 22.1458 50.8295 22.1458C50.8295 22.1458 50.1774 21.0693 50.4052 20.6346C50.5545 20.3586 51.9214 20.124 52.8799 20.2758C53.4219 20.3655 53.7362 20.8347 53.854 20.8623Z" fill="#663F6D"/>
<path d="M47.6179 5.08154C47.6179 5.08154 47.5472 5.52316 46.7145 6.5444C45.8896 7.56564 45.0176 6.91011 45.0176 6.91011C45.0176 6.91011 45.6775 6.93772 46.3845 6.4547C47.0994 5.97168 47.61 5.08154 47.61 5.08154H47.6179Z" fill="#776483"/>
<g style="mix-blend-mode:soft-light" opacity="0.3">
<path d="M39.8795 21.7733C39.3925 20.3725 46.0229 14.5901 47.0756 14.3762C48.1283 14.1623 50.5165 24.8508 49.4481 27.19C48.3797 29.5361 46.1643 30.3986 45.6694 29.6258C45.1745 28.853 39.8795 21.7664 39.8795 21.7664V21.7733Z" fill="white"/>
</g>
<g style="mix-blend-mode:multiply" opacity="0.5">
<path d="M20.5708 31.8065C20.5708 31.8065 24.6009 26.2449 25.3001 23.1881C25.9993 20.1382 26.3685 19.6828 27.3741 18.6546C28.3796 17.6265 37.2019 11.6025 37.2019 11.6025C37.2019 11.6025 26.6199 18.4407 25.2137 19.876C25.2137 19.876 24.2081 27.1281 20.5787 31.8065H20.5708Z" fill="#862F68"/>
</g>
<g style="mix-blend-mode:multiply" opacity="0.5">
<path d="M49.4253 4.05346C49.4253 4.05346 57.7133 0.837938 59.0096 1.21055C60.3058 1.58317 58.5461 7.33799 58.5461 7.33799C58.5461 7.33799 61.1228 0.906941 60.1016 0.154811C59.0803 -0.597318 53.3219 1.78328 49.4253 4.06036V4.05346Z" fill="#862F68"/>
</g>
<path d="M8.73193 34.9116C8.73193 34.9116 15.7709 36.133 21.985 40.3766C28.199 44.6203 30.3359 51.9277 30.3359 51.9277C30.3359 51.9277 26.7928 44.4616 21.4508 40.7355C16.1087 37.0024 8.73193 34.9185 8.73193 34.9185V34.9116Z" fill="url(#paint6_linear_274_4359)"/>
<path d="M16.6744 32.6894C16.6744 32.6894 29.566 36.9883 39.3153 45.0271C42.7012 47.8148 42.4419 46.5245 40.6744 43.6402C37.3356 38.2304 28.639 27.2175 28.639 27.2175L4.40332 0.899902C4.42689 1.09311 4.73327 2.96308 5.72312 6.17861C6.39088 8.37289 7.36502 11.1882 8.79481 14.521C9.64325 16.5083 10.0989 19.1028 10.9631 21.028C10.9631 21.028 11.6151 20.4415 11.9372 20.4415C12.6521 20.4415 13.8541 20.5381 14.2311 21.0694C14.6082 21.6007 13.8069 22.6565 13.2806 23.2499C13.0685 23.4914 12.9035 23.657 12.8721 23.6846C15.056 28.4665 16.6665 32.6894 16.6665 32.6894H16.6744Z" fill="#776483"/>
<path d="M17.2238 31.1647C17.2238 31.1647 30.1154 36.2295 39.3069 45.0274L40.666 43.6404L43.4392 40.7975L43.8634 40.3628L27.7822 22.7602L20.1462 15.3631C20.1462 15.3631 20.1462 15.3631 20.1383 15.3562L7.3174 2.91503C7.16813 2.77703 7.03458 2.63902 6.89318 2.50791C6.78319 2.39751 6.67321 2.29401 6.56322 2.1905L5.98188 1.62468C5.89547 1.53498 5.80905 1.45907 5.73049 1.37627L5.09416 0.755246C4.96846 0.631042 4.85848 0.534438 4.78777 0.458535L4.63851 0.313629C4.4971 0.417133 4.41854 0.610341 4.39498 0.886351C4.30856 1.84549 4.83491 3.74996 5.71478 6.16506C7.18385 10.1948 9.65848 15.6391 11.9289 20.4279C12.6437 20.4279 13.8457 20.5245 14.2228 21.0558C14.5999 21.5872 13.7986 22.6429 13.2722 23.2363C15.4719 27.7629 17.2159 31.1509 17.2159 31.1509L17.2238 31.1647Z" fill="url(#paint7_linear_274_4359)"/>
<path d="M4.64502 0.327423C4.64502 0.327423 4.70001 0.375725 4.79428 0.472329C4.86499 0.541332 4.96711 0.644836 5.10067 0.76904C5.26564 0.934647 5.48561 1.14166 5.737 1.39006C6.05909 1.70058 6.45189 2.08009 6.89183 2.51481C13.1138 8.59395 30.8525 26.1896 42.99 40.9907L43.4378 40.7975L49.6912 38.2099C49.6912 38.2099 49.3926 37.9684 48.882 37.4854C48.882 37.4854 48.882 37.4854 48.8663 37.4785C46.7609 35.4774 41.2539 29.4604 39.612 19.9656C39.612 19.9656 39.4863 19.8759 39.2506 19.7034C37.3573 18.3578 28.3936 12.0027 19.9799 6.91028C19.9406 6.95168 19.8856 6.98618 19.8306 7.02068C19.4771 7.24839 18.9272 7.3036 18.1809 6.63427C17.7095 6.20645 17.4424 5.86834 17.301 5.60613C17.2146 5.46122 17.1753 5.33702 17.1517 5.24041C12.4224 2.49411 8.17235 0.410226 5.86269 0.196318H5.84698C5.3442 0.141116 4.94355 0.189418 4.64502 0.320523V0.327423Z" fill="url(#paint8_linear_274_4359)"/>
<path d="M53.2198 43.4058L57.9884 50.8512C57.9884 50.8512 53.0392 53.149 52.0493 55.0742L44.8375 49.6989C44.8375 49.6989 46.5815 45.7864 53.2198 43.4127V43.4058Z" fill="url(#paint9_linear_274_4359)"/>
<path d="M51.2941 60.3873C51.3962 60.4977 51.7969 60.6771 52.394 60.8704C54.7115 61.6225 59.9985 62.6092 62.2689 60.9946C65.1285 58.959 65.5684 51.7758 64.2015 51.2169C62.8345 50.658 57.9874 50.8443 57.9874 50.8443C53.698 51.6309 52.0483 55.0672 52.0483 55.0672C52.0483 55.0672 50.7756 59.8284 51.2941 60.3873Z" fill="url(#paint10_linear_274_4359)"/>
<g style="mix-blend-mode:multiply" opacity="0.5">
<path d="M51.293 60.3875L52.3928 60.8705C54.7103 61.6227 59.9974 62.6094 62.2678 60.9947C65.1273 58.9592 65.5673 51.776 64.2003 51.2171C63.7447 51.079 56.1244 54.8604 53.7048 57.6205L51.293 60.3875Z" fill="#DE376D"/>
</g>
<g style="mix-blend-mode:multiply" opacity="0.5">
<path d="M56.0009 47.7392C51.5072 44.4754 51.358 54.5498 51.358 54.5498L44.8375 49.6851C44.8375 49.6851 46.668 47.1596 49.5511 45.4414C52.4264 43.7232 54.139 44.8273 54.139 44.8273L56.0009 47.7323V47.7392Z" fill="#BE2F55"/>
</g>
<g style="mix-blend-mode:multiply" opacity="0.7">
<path d="M64.9112 54.7086C64.7698 55.8679 63.6307 52.121 61.1482 53.0181C58.6657 53.922 58.2572 59.0075 56.9138 59.8976C55.5705 60.7809 52.3652 59.1593 52.3652 59.1593C52.3652 59.1593 55.1777 55.7575 59.7027 53.3217C64.2278 50.8928 64.2592 51.086 64.4399 51.3896C64.6284 51.7001 65.0683 53.4528 64.9112 54.7017V54.7086Z" fill="#DE376D"/>
</g>
<g style="mix-blend-mode:soft-light">
<path d="M64.3186 56.0404C64.2322 54.9916 62.5117 57.1238 62.2368 58.2416C61.9618 59.3595 63.533 58.6901 63.7844 58.2485C64.0358 57.8069 64.3422 56.3302 64.3186 56.0404Z" fill="white"/>
</g>
<path d="M61.8146 41.8189C62.7416 41.0806 61.6104 35.4569 60.9033 34.5185C60.2041 33.58 50.1799 35.8778 44.2801 40.0663C38.3803 44.2547 34.413 51.7277 34.4758 52.5075C34.5387 53.2872 40.4149 56.8132 41.5226 56.2267C42.6303 55.6402 45.4585 49.3126 50.2742 45.8901C55.0899 42.4676 60.8012 42.6194 61.8146 41.812V41.8189Z" fill="url(#paint11_linear_274_4359)"/>
<path d="M61.816 41.819C61.4389 42.716 54.887 46.0074 54.887 46.0074C54.887 46.0074 52.4045 45.5382 49.7492 47.422C47.0939 49.3127 47.4238 51.6933 47.4238 51.6933C47.4238 51.6933 42.2939 56.2612 41.5319 56.2336C40.7698 56.206 42.9931 50.6306 49.0579 46.18C55.1227 41.7293 61.8238 41.819 61.8238 41.819H61.816Z" fill="url(#paint12_linear_274_4359)"/>
<g style="mix-blend-mode:soft-light">
<path d="M42.9071 41.1427C46.1045 38.8656 50.2289 44.1788 50.111 44.862C49.9932 45.5382 45.8295 48.6571 44.4312 50.534C43.0249 52.4178 37.5729 49.0573 37.1173 48.6778C36.6616 48.2983 40.1339 43.1162 42.9071 41.1427Z" fill="white"/>
</g>
<g style="mix-blend-mode:soft-light">
<path d="M54.2895 52.4795C55.5464 51.6791 56.9055 53.9907 56.8505 54.4599C56.7955 54.936 53.6846 57.3304 52.9854 58.2895C52.2862 59.2487 52.1055 55.4742 52.624 54.5082C53.1425 53.5421 54.2895 52.4795 54.2895 52.4795Z" fill="white"/>
</g>
<g style="mix-blend-mode:multiply" opacity="0.2">
<path d="M56.1434 34.9394C57.0547 34.7324 59.6472 40.1353 59.71 41.053C59.7729 41.9708 53.8652 43.1921 53.2131 43.406C52.5611 43.613 50.3143 38.5137 50.55 37.596C50.7856 36.6783 54.9964 35.2085 56.1356 34.9463L56.1434 34.9394Z" fill="#E02774"/>
</g>
<path d="M42.9029 41.1426C42.9029 41.1426 44.1284 44.1305 42.5572 45.338C40.986 46.5525 38.3071 46.2764 38.3071 46.2764C38.3071 46.2764 39.8312 43.2955 42.9029 41.1357V41.1426Z" fill="white"/>
<path d="M56.0479 55.5986C55.6551 54.6532 52.7956 56.7371 53.2434 58.2345C53.2434 58.2345 56.5979 56.9027 56.0479 55.5986Z" fill="white"/>
<g style="mix-blend-mode:multiply" opacity="0.5">
<path d="M61.681 36.7744C61.681 36.7744 62.0424 41.0388 61.681 41.6805C61.3197 42.3222 59.4814 41.7564 57.1167 42.474C54.7442 43.1848 55.7734 45.5585 55.7734 45.5585C55.7734 45.5585 61.0369 42.9709 61.8146 41.8254C62.5923 40.68 61.681 36.7744 61.681 36.7744Z" fill="#BE2F55"/>
</g>
<g style="mix-blend-mode:multiply" opacity="0.5">
<path d="M42.6911 53.3354C43.8695 52.121 46.1792 52.1348 46.187 52.4453C46.1949 52.7558 42.6047 55.7919 41.5284 56.2335C40.4522 56.6682 36.8306 54.4257 36.8306 54.4257C36.8306 54.4257 39.6273 55.4745 40.5857 55.2675C41.5441 55.0674 42.6911 53.3354 42.6911 53.3354Z" fill="#BE2F55"/>
</g>
<g style="mix-blend-mode:soft-light" opacity="0.5">
<path d="M20.1636 15.3631C23.9974 19.3238 27.234 22.5601 27.7996 22.7602C29.2844 23.2846 39.1358 21.3525 38.1067 20.0001C31.8533 14.4867 25.3486 10.1879 19.8337 7.01376C19.4802 7.24146 18.9302 7.29667 18.1839 6.62734C17.7126 6.19952 17.4455 5.86141 17.3041 5.5992C10.7836 2.05936 6.14858 0.299793 5.86577 0.196289H5.85791C6.07788 0.458499 13.9103 8.87683 20.1636 15.3562V15.3631Z" fill="white"/>
</g>
<g style="mix-blend-mode:multiply" opacity="0.38">
<path d="M19.2097 31.4961C17.8585 29.8608 24.2925 22.7742 25.141 22.2843C25.9894 21.8012 40.0045 37.6443 41.1436 39.2382C42.2827 40.8322 38.8889 43.7303 38.7711 44.0684C38.6532 44.4065 33.1305 38.6724 27.5842 35.2982C22.0457 31.9308 19.2097 31.4892 19.2097 31.4892V31.4961Z" fill="#B88974"/>
</g>
<g style="mix-blend-mode:soft-light" opacity="0.8">
<path d="M37.7285 34.808C37.7285 34.808 31.0823 24.9682 27.9557 21.4559C24.829 17.9437 8.88135 4.44678 8.88135 4.44678C8.88135 4.44678 26.7615 21.2696 37.7285 34.808Z" fill="white"/>
</g>
<path d="M24.7174 18.9236C24.6624 20.0207 20.9701 17.2261 20.7423 15.5493C20.5144 13.8726 24.7567 18.1438 24.7174 18.9236Z" fill="white"/>
<g style="mix-blend-mode:multiply" opacity="0.2">
<path d="M48.868 37.4645C46.7626 35.4635 41.2555 29.4464 39.6136 19.9517C39.6136 19.9517 39.4879 19.862 39.2523 19.6895C38.8595 20.1035 36.7148 22.6359 37.3197 26.7553C37.9796 31.1784 48.3809 37.1816 48.868 37.4576V37.4645Z" fill="#B88974"/>
</g>
<path d="M27.2418 11.8232C23.1724 9.44949 23.5417 12.5753 27.069 15.6252C30.5963 18.6751 34.8778 16.6327 34.5872 16.4257C34.2886 16.2187 27.2418 11.8232 27.2418 11.8232Z" fill="white"/>
<g style="mix-blend-mode:multiply" opacity="0.5">
<path d="M13.0739 9.00792C14.0088 10.7192 11.1885 16.8328 10.4108 16.6465C9.63301 16.4602 4.57376 2.21116 4.99013 1.63844C5.4065 1.06571 13.0739 9.00792 13.0739 9.00792Z" fill="#A28993"/>
</g>
<g style="mix-blend-mode:multiply" opacity="0.5">
<path d="M17.2228 31.1646L16.6729 32.6895C16.6729 32.6895 24.8823 35.491 29.0931 38.0648C33.3039 40.6455 27.027 35.0977 17.2228 31.1646Z" fill="#BE2F55"/>
</g>
<path d="M10.9644 21.0281C10.9644 21.0281 13.1483 20.752 13.8318 21.1385C14.5153 21.518 14.0046 22.3046 14.0046 22.3046C14.0046 22.3046 14.6567 21.2282 14.421 20.7935C14.2717 20.5174 12.8969 20.2828 11.9464 20.4415C11.4043 20.5312 11.0901 21.0074 10.9722 21.0281H10.9644Z" fill="#663F6D"/>
<path d="M17.1465 5.22656C17.1465 5.22656 17.2172 5.66818 18.05 6.68942C18.8827 7.71066 19.7469 7.04823 19.7469 7.04823C19.7469 7.04823 19.087 7.07583 18.3721 6.59972C17.6572 6.1236 17.1387 5.22656 17.1387 5.22656H17.1465Z" fill="#776483"/>
<g style="mix-blend-mode:soft-light" opacity="0.3">
<path d="M24.9468 21.8976C25.426 20.4969 18.7798 14.7351 17.7271 14.5212C16.6744 14.3073 14.3255 25.0027 15.4018 27.3419C16.4859 29.6811 18.6934 30.5437 19.1884 29.7639C19.6833 28.9911 24.9468 21.8907 24.9468 21.8907V21.8976Z" fill="white"/>
</g>
<g style="mix-blend-mode:multiply" opacity="0.5">
<path d="M44.2951 31.8754C44.2951 31.8754 40.2414 26.3206 39.5343 23.2707C38.8273 20.2208 38.4502 19.7654 37.4447 18.7441C36.4391 17.716 27.5933 11.7266 27.5933 11.7266C27.5933 11.7266 38.1988 18.5302 39.6129 19.9655C39.6129 19.9655 40.6499 27.2177 44.2951 31.8823V31.8754Z" fill="#862F68"/>
</g>
<g style="mix-blend-mode:multiply" opacity="0.5">
<path d="M15.3374 4.19827C15.3374 4.19827 7.03362 1.01035 5.73739 1.38296C4.44115 1.75558 6.22446 7.5035 6.22446 7.5035C6.22446 7.5035 3.62413 1.07935 4.64541 0.320322C5.66668 -0.431808 11.433 1.92808 15.3374 4.19827Z" fill="#862F68"/>
</g>
<path d="M56.1402 34.939C56.1402 34.939 49.1091 36.181 42.9107 40.4454C36.7123 44.7097 34.6069 52.0171 34.6069 52.0171C34.6069 52.0171 38.1186 44.5441 43.4449 40.7973C48.7713 37.0504 56.1402 34.939 56.1402 34.939Z" fill="url(#paint13_linear_274_4359)"/>
<defs>
<linearGradient id="paint0_linear_274_4359" x1="58.8413" y1="-0.529383" x2="33.0343" y2="48.8162" gradientUnits="userSpaceOnUse">
<stop stop-color="#BEAFC0"/>
<stop offset="1" stop-color="#997A80"/>
</linearGradient>
<linearGradient id="paint1_linear_274_4359" x1="52.1558" y1="-4.02599" x2="26.9035" y2="44.2636" gradientUnits="userSpaceOnUse">
<stop stop-color="#E0D9E1"/>
<stop offset="1" stop-color="#B9A4A8"/>
</linearGradient>
<linearGradient id="paint2_linear_274_4359" x1="8.9509" y1="46.3423" x2="16.6501" y2="53.3824" gradientUnits="userSpaceOnUse">
<stop stop-color="#CE5411"/>
<stop offset="1" stop-color="#B42B00"/>
</linearGradient>
<linearGradient id="paint3_linear_274_4359" x1="2.5257" y1="60.8387" x2="9.19161" y2="51.3895" gradientUnits="userSpaceOnUse">
<stop stop-color="#FFA900"/>
<stop offset="1" stop-color="#FF9600"/>
</linearGradient>
<linearGradient id="paint4_linear_274_4359" x1="12.6225" y1="48.5273" x2="19.2968" y2="39.0663" gradientUnits="userSpaceOnUse">
<stop stop-color="#FF9600"/>
<stop offset="1" stop-color="#FFA900"/>
</linearGradient>
<linearGradient id="paint5_linear_274_4359" x1="13.1744" y1="49.0932" x2="15.4714" y2="45.8371" gradientUnits="userSpaceOnUse">
<stop offset="0.05" stop-color="#FF3F00"/>
<stop offset="1" stop-color="#D95203"/>
</linearGradient>
<linearGradient id="paint6_linear_274_4359" x1="19.0409" y1="43.937" x2="21.7048" y2="40.1609" gradientUnits="userSpaceOnUse">
<stop stop-color="#FFDE00"/>
<stop offset="1" stop-color="#FFE834"/>
</linearGradient>
<linearGradient id="paint7_linear_274_4359" x1="5.90472" y1="-0.380317" x2="31.8737" y2="48.9026" gradientUnits="userSpaceOnUse">
<stop stop-color="#BEAFC0"/>
<stop offset="1" stop-color="#997A80"/>
</linearGradient>
<linearGradient id="paint8_linear_274_4359" x1="12.5777" y1="-3.89618" x2="37.9926" y2="44.338" gradientUnits="userSpaceOnUse">
<stop stop-color="#E0D9E1"/>
<stop offset="1" stop-color="#B9A4A8"/>
</linearGradient>
<linearGradient id="paint9_linear_274_4359" x1="55.9741" y1="46.346" x2="48.302" y2="53.4091" gradientUnits="userSpaceOnUse">
<stop stop-color="#CE5411"/>
<stop offset="1" stop-color="#B42B00"/>
</linearGradient>
<linearGradient id="paint10_linear_274_4359" x1="62.4516" y1="60.8235" x2="55.7528" y2="51.3919" gradientUnits="userSpaceOnUse">
<stop stop-color="#FFA900"/>
<stop offset="1" stop-color="#FF9600"/>
</linearGradient>
<linearGradient id="paint11_linear_274_4359" x1="52.308" y1="48.542" x2="45.6008" y2="39.0987" gradientUnits="userSpaceOnUse">
<stop stop-color="#FF9600"/>
<stop offset="1" stop-color="#FFA900"/>
</linearGradient>
<linearGradient id="paint12_linear_274_4359" x1="51.7655" y1="49.1147" x2="49.453" y2="45.8587" gradientUnits="userSpaceOnUse">
<stop offset="0.05" stop-color="#FF3F00"/>
<stop offset="1" stop-color="#D95203"/>
</linearGradient>
<linearGradient id="paint13_linear_274_4359" x1="45.8738" y1="43.9696" x2="43.1967" y2="40.2006" gradientUnits="userSpaceOnUse">
<stop stop-color="#FFDE00"/>
<stop offset="1" stop-color="#FFE834"/>
</linearGradient>
</defs>
</svg>
