<svg width="293" height="64" viewBox="0 0 293 64" fill="none" xmlns="http://www.w3.org/2000/svg">
<g clip-path="url(#clip0_149_46074)">
<path fill-rule="evenodd" clip-rule="evenodd" d="M6.48405 2.15945C19.6372 1.79956 31.5291 0.479972 44.8624 0.00012207C53.8714 0.180066 65.8234 0.719897 77.1748 0.300028C97.9555 0.779878 119.457 0.83986 125.103 0.719897C147.265 1.43967 170.328 2.27941 193.811 2.9392C194.772 3.11915 196.995 4.73864 197.415 5.75832C198.136 8.93733 198.856 11.6365 199.337 14.3956C199.457 16.315 199.938 22.1332 199.938 26.032C199.277 37.8483 198.376 49.1847 197.895 57.882C197.355 58.8417 193.151 60.9411 190.688 61.6609C166.904 62.5606 142.4 63.0404 116.214 64.0001C92.7303 62.8605 63.1808 61.6609 39.457 61.9608C26.9645 61.241 15.5531 60.8811 5.40297 60.9411C4.26182 60.4612 2.3399 58.6618 1.97954 57.942C0.898461 46.1857 0.417981 35.2691 -0.0625 23.5128C0.35792 16.5549 1.61918 11.6365 1.97954 5.87829C2.46002 4.97857 5.34291 2.57932 6.48405 2.15945Z" fill="url(#paint0_radial_149_46074)"/>
<path fill-rule="evenodd" clip-rule="evenodd" d="M4.38438 22.2534C5.10511 18.1746 6.54655 14.5158 7.56757 9.59732L1.98198 5.87848C1.56156 11.6367 0.36036 16.4952 0 23.513L4.38438 22.2534Z" fill="url(#paint1_radial_149_46074)"/>
<path fill-rule="evenodd" clip-rule="evenodd" d="M1.98047 5.87869L7.56605 9.53755C7.56605 9.53755 9.12762 8.03801 9.3078 7.91805L6.48497 2.15985C5.40389 2.57972 2.46095 4.97897 1.98047 5.87869Z" fill="url(#paint2_radial_149_46074)"/>
<path fill-rule="evenodd" clip-rule="evenodd" d="M6.48438 2.15943L9.3072 7.91763C21.5595 7.49776 36.9348 5.75831 48.2261 4.67864L44.8628 -0.0598755C31.5294 0.539937 19.6375 1.79954 6.48438 2.15943Z" fill="url(#paint3_radial_149_46074)"/>
<path fill-rule="evenodd" clip-rule="evenodd" d="M39.8192 61.961L43.2426 56.9225C33.3928 56.3227 18.0775 54.7632 8.16755 54.6432L5.46484 60.9413C15.615 60.8813 27.0264 61.2412 39.5189 61.961C39.639 61.961 39.6991 61.961 39.8192 61.961Z" fill="url(#paint4_radial_149_46074)"/>
<path fill-rule="evenodd" clip-rule="evenodd" d="M5.46639 60.9408L8.1691 54.6427C7.62855 54.5828 6.84777 54.1629 6.66759 53.863L2.04297 58.0017C2.46339 58.7215 4.38531 60.5209 5.46639 61.0007V60.9408Z" fill="url(#paint5_radial_149_46074)"/>
<path fill-rule="evenodd" clip-rule="evenodd" d="M2.04204 57.9423L6.66667 53.8036C5.76577 43.3069 4.80481 32.7502 4.38438 22.2535L0 23.5131C0.48048 35.2694 0.960961 46.186 2.04204 57.9423Z" fill="url(#paint6_radial_149_46074)"/>
<path fill-rule="evenodd" clip-rule="evenodd" d="M35.491 17.2147C37.9535 15.5952 40.4159 13.9157 42.8183 11.8763C43.8994 10.1369 45.0405 8.39741 46.1216 6.59798C46.6622 5.75824 46.8423 5.21841 46.3018 4.85852C35.2508 5.93818 20.8363 7.4977 9.24474 7.91756C9.06456 8.03753 7.68318 9.4171 7.503 9.53706C6.6021 14.1556 5.28078 17.6345 4.5 21.3534C4.62012 21.5333 4.74024 21.6533 4.86036 21.7133C5.94144 22.1931 26.542 18.2943 31.527 17.5146C32.548 17.3346 34.5901 17.3946 35.4309 17.2147H35.491Z" fill="url(#paint7_radial_149_46074)"/>
<path fill-rule="evenodd" clip-rule="evenodd" d="M97.9564 40.1881C86.0645 34.5498 54.3528 22.1937 39.2177 18.8348C34.1726 17.6951 33.2116 18.2349 28.1666 18.9547C19.1576 20.2743 5.82425 22.1337 4.74317 22.5536C4.62305 22.5536 4.50293 22.6736 4.38281 22.7935C4.80323 33.1103 5.76419 43.487 6.6651 53.8038C6.90534 54.1037 7.68612 54.5236 8.1666 54.5836C10.4489 54.5836 12.9714 54.7035 15.6741 54.8835C24.8032 55.3633 35.614 56.443 43.2417 56.8629C55.8543 56.6829 68.527 56.323 77.536 56.503C80.8993 56.503 86.3648 56.9229 92.4309 57.3427C99.0975 57.7026 105.764 58.5423 112.491 58.7223C113.872 58.7223 115.013 58.6023 115.194 58.4824C115.494 58.2424 114.353 55.9632 113.152 53.7438C109.308 50.3249 105.644 46.846 101.98 43.2471C100.299 41.5676 100.119 41.1478 97.9564 40.1281V40.1881Z" fill="url(#paint8_radial_149_46074)"/>
<path opacity="0.75" fill-rule="evenodd" clip-rule="evenodd" d="M7.26287 3.83898C20.0557 3.35913 33.3289 3.59906 46.0016 1.61968L77.7734 2.15951C93.6893 1.43973 109.245 2.15951 124.62 2.5194C139.095 2.93926 181.077 1.8596 192.848 4.79868C193.509 4.79868 195.551 5.75838 195.731 7.01799C198.314 10.3769 198.854 14.0958 199.635 18.2345C199.515 16.555 199.395 15.1754 199.335 14.3957C198.794 11.6365 198.134 8.93739 197.413 5.75838C196.993 4.7387 194.77 3.11921 193.809 2.93926C170.266 2.21949 147.203 1.43973 125.101 0.719958C119.455 0.839921 97.9536 0.779939 77.1728 0.300089C65.8214 0.719958 53.8695 0.120146 44.8605 0.000183105C31.5271 0.540014 19.6352 1.79962 6.48209 2.15951C5.40101 2.57938 2.45806 4.97863 1.97758 5.87835C1.61722 10.8568 0.656262 15.1754 0.175781 20.8137C1.67728 16.0752 3.47908 11.5166 3.05866 6.59812C4.74035 5.93833 5.94155 5.15857 7.32293 3.83898H7.26287Z" fill="url(#paint9_linear_149_46074)"/>
<path fill-rule="evenodd" clip-rule="evenodd" d="M170.745 57.4021C175.43 57.3421 180.114 57.2222 184.799 57.1022C186.841 57.1022 188.823 56.9823 190.865 57.1022C191.045 57.1022 191.165 57.3421 191.165 57.5221C191.165 58.5418 191.045 59.6214 190.925 60.6411C191.165 59.5015 191.285 58.3018 191.646 57.1622C191.826 56.6823 193.748 55.8426 194.288 56.0825C195.37 56.5024 196.391 57.1622 197.412 57.642C196.691 57.0422 195.97 56.5024 195.249 55.9026C194.288 55.1828 194.409 55.1228 194.469 53.8632C194.589 51.9438 194.709 50.0244 194.829 48.045C194.829 41.2072 195.069 35.0291 195.61 28.2512C195.61 27.5914 195.61 26.6917 195.97 26.3918C196.09 26.2718 199.033 26.0919 199.394 26.0319C199.093 26.0319 195.97 25.792 195.91 25.732C195.43 25.0722 195.069 22.733 194.709 21.6533C194.409 20.3937 194.168 19.1341 193.868 17.8745C193.688 17.0947 193.568 16.255 193.748 16.0151C193.808 15.9551 194.228 15.6552 194.769 15.5352C195.61 15.2953 196.451 15.0554 197.291 14.8154C196.09 15.0554 195.189 15.2953 193.988 15.2353C192.907 15.2353 193.087 14.6955 193.027 13.6158C192.967 12.956 192.607 12.2362 192.547 11.5165C192.427 10.4968 192.246 10.1369 193.027 9.41711C194.228 8.33745 195.37 7.31777 196.571 6.23811C195.43 7.07784 194.228 7.91758 193.087 8.75732C191.826 9.65704 191.285 8.63736 191.886 7.25779C192.427 5.99818 192.907 4.67859 193.448 3.41899L191.406 7.07784C190.565 8.51739 190.204 8.21749 188.523 8.15751C177.772 7.8576 167.141 7.13783 156.451 6.23811C152.006 6.11814 125.58 5.6383 124.439 4.73858C124.018 4.43867 124.559 2.99912 124.859 1.01974C123.598 4.49865 124.258 4.67859 120.294 5.39837C116.871 5.63829 111.225 6.41805 108.042 6.05816C107.261 5.9382 107.081 5.9382 107.081 5.15844C107.081 4.31871 107.021 3.47897 106.961 2.57925C106.841 3.53895 106.721 4.37869 106.661 5.33839C106.601 5.99818 106.12 5.75826 105.46 5.63829C102.336 5.21843 99.2134 4.91852 96.0902 4.73858C90.5647 4.79856 85.9401 5.33839 80.4146 5.69828C78.1923 5.69828 78.1323 3.65891 77.2914 0.839795C77.4116 1.61955 77.892 4.31871 77.6518 4.85854C77.4116 5.27841 76.871 5.21843 75.7899 5.09846C73.2074 4.85854 70.5647 4.55863 67.9821 4.31871C63.6578 4.13876 59.4536 4.07878 55.1293 4.07878C52.9071 4.07878 49.5437 4.49865 47.862 3.89884C47.7419 3.89884 45.5197 1.01974 45.2194 0.659851C45.5197 1.25966 46.6608 3.17906 46.4806 3.71889C46.3004 4.31871 45.2794 4.25873 44.3785 4.31871C41.9761 4.49865 39.7539 4.6786 37.3515 4.73858C28.4025 5.87822 20.1143 6.598 11.1653 7.19781C9.90405 7.25779 9.60374 7.61768 9.00314 6.59799C8.22236 5.27841 7.44158 3.95882 6.60074 2.69921C7.2614 4.49865 7.862 5.9382 8.34248 7.79762C8.4626 8.15751 7.20134 8.8173 6.72086 8.57738C5.09924 7.73764 3.77792 7.13783 2.21636 6.23811C3.29744 7.07784 4.01816 7.8576 5.09924 8.75732C6.6608 10.0169 6.48062 9.53708 6.00014 11.5165C5.21936 14.6355 4.49864 17.6945 3.71786 20.8136C3.41756 22.0732 3.3575 22.0732 2.1563 22.553C1.43558 22.8529 0.955096 23.2128 0.234375 23.5127C1.01516 23.3328 1.73588 23.2128 2.51666 23.0329C3.29744 22.8529 3.83798 22.673 3.83798 23.5727C3.83798 24.8923 3.83798 26.1519 3.89804 27.4715C4.2584 32.09 4.61876 36.7086 4.97912 41.3871C5.33948 45.2259 5.63978 49.0647 6.00014 52.9035C6.00014 53.2034 6.00014 53.5033 5.81996 53.8032C5.4596 54.643 3.47762 56.5024 2.7569 57.2822C3.9581 56.3824 5.1593 55.5427 6.3605 54.643C6.42056 54.523 7.44158 54.8229 7.5617 55.1828C7.32146 56.0225 7.02116 56.8023 6.78092 57.642C7.20134 56.8623 7.68182 56.0825 8.10224 55.3028C8.28242 55.1828 8.4626 55.0628 8.7629 55.0029C10.0242 55.0029 11.2254 55.0029 12.4866 55.0029C13.5076 55.0029 14.5287 55.0029 15.5497 55.0029C12.847 54.8829 10.2644 54.7629 8.04218 54.703C7.50164 54.643 6.72086 54.2231 6.54068 53.9232C5.63978 43.6664 4.73888 33.2297 4.2584 22.9129C4.37852 22.7929 4.43858 22.733 4.61876 22.673C5.7599 22.2531 19.0932 20.3937 28.0422 19.0741C33.0272 18.3543 34.0482 17.8145 39.0932 18.9541C54.2284 22.3131 85.9401 34.6692 97.832 40.3075C99.9941 41.3271 100.174 41.747 101.856 43.4265C105.52 47.0853 109.243 50.5643 113.027 53.9232C114.228 56.0825 115.37 58.4218 115.069 58.6617C114.889 58.7817 113.748 58.9616 112.367 58.9016C105.64 58.7217 98.9731 57.9419 92.3064 57.5221C99.3335 58.4218 106.421 58.8417 113.868 59.7414C114.769 59.8613 115.309 59.9213 115.61 60.1613C115.85 60.3412 116.09 61.8407 116.15 63.3403C116.391 61.3009 116.391 60.1013 116.751 59.9213C116.931 59.9213 117.772 59.8614 118.613 59.8014C124.198 59.6814 129.844 59.3815 135.43 58.7817C145.219 57.1022 154.769 55.1228 163.718 52.4237C167.201 50.5043 170.745 48.7048 174.409 47.0853C177.712 45.6458 181.075 48.7648 184.258 50.5643C182.637 49.2447 181.135 48.165 179.514 47.0853C177.652 45.8257 176.571 45.7658 178.493 44.0863C183.057 40.1275 186.781 37.1884 191.706 33.7095C192.066 32.5699 194.409 27.9513 194.769 28.1313C194.829 28.1313 194.949 28.3112 195.069 28.6711C194.469 37.3084 194.409 46.8454 193.868 55.6627C193.027 56.0825 192.066 56.5024 191.345 56.8023C184.499 57.0422 177.532 57.3421 170.505 57.5821L170.745 57.4021ZM135.61 58.7817C129.844 58.7817 124.018 59.5614 118.252 58.7817C117.351 58.6617 116.871 58.4818 116.571 58.1219C115.61 57.1622 114.589 54.8829 113.928 53.6233C109.063 49.6045 104.979 45.7058 101.496 41.807C101.075 40.4874 101.075 40.1275 102.096 38.8079C109.664 28.4911 123.237 18.7742 134.889 13.3159C138.793 11.4565 143.057 9.89696 146.841 8.63736C147.922 7.79762 148.342 7.37775 148.883 7.13783C150.084 6.598 151.345 6.83792 152.607 6.8979C165.7 7.49771 179.033 8.09753 191.105 8.8173C191.526 9.11721 191.886 9.41711 192.246 9.83698C192.487 11.6964 192.547 13.5558 192.907 15.4152C193.688 18.4143 194.649 22.3731 195.189 24.7123C195.43 25.792 195.43 26.1519 194.649 27.7114C193.688 29.5708 192.667 31.4302 191.406 32.9298C186.361 37.2484 181.135 41.3271 175.85 45.1659C172.066 47.7451 167.922 49.7845 163.538 51.464C154.649 54.703 145.219 56.8623 135.67 58.7817H135.61ZM99.4536 40.0675C80.3545 30.7704 59.9941 23.7526 38.3725 18.1144C37.1713 17.8145 36.6308 17.4546 36.6308 17.3346C36.6308 17.1547 37.1713 16.6748 38.1323 15.9551C39.874 14.6355 41.6758 13.3759 43.5377 12.1763C44.5587 9.83698 46.5407 6.11814 48.2824 4.67859C57.7719 4.61861 69.2434 4.67859 78.6128 6.17813C88.7629 5.27841 97.2914 5.21843 106.901 6.53801C113.027 6.11814 118.072 6.05816 123.778 5.21843C130.925 5.69828 138.553 6.11814 146.361 6.47803C147.261 6.47803 148.282 6.53801 147.021 7.43773C145.159 8.69734 139.754 10.5568 134.709 12.956C129.664 15.3553 125.159 18.1144 123.598 18.8342C122.697 19.254 122.757 18.9541 122.757 18.1744C122.697 15.1753 122.757 11.5764 122.997 8.09753C122.577 9.777 122.156 14.8754 122.336 18.4743C122.336 19.314 122.517 19.5539 121.195 20.4537C113.327 25.732 106.541 31.6102 101.376 38.628C100.535 39.8276 100.415 40.0675 99.5136 40.0076L99.4536 40.0675ZM4.5587 21.4134C5.33948 17.6345 6.6608 14.2156 7.5617 9.59706C7.74188 9.41711 9.12326 8.09753 9.30344 7.97756C20.895 7.55769 35.3095 5.99818 46.3605 4.91852C46.901 5.27841 46.7209 5.81824 46.1803 6.65798C45.0992 8.39743 43.9581 10.1369 42.877 11.9363C40.5347 13.9757 38.0722 15.7151 35.5497 17.2747C34.7089 17.4546 32.6668 17.4546 31.6458 17.5746C26.6608 18.4143 6.00014 22.3131 4.97912 21.7733C4.859 21.7133 4.73888 21.5933 4.61876 21.4134H4.5587Z" fill="url(#paint10_radial_149_46074)"/>
<g style="mix-blend-mode:screen" opacity="0.5">
<path fill-rule="evenodd" clip-rule="evenodd" d="M22.5201 25.9124C20.8384 26.3323 19.1567 27.052 17.8954 28.2517C16.454 29.6912 14.5321 34.1898 15.6132 36.1692C16.2138 37.2488 17.475 38.2085 18.7363 38.3285C20.6582 38.4485 22.7603 37.8487 24.3219 36.709C25.8234 35.5694 26.6041 33.9499 27.7453 32.4503C28.466 31.4906 29.3669 30.5909 29.9675 29.5113C30.9885 27.7118 29.3068 25.9124 28.0456 25.6725C25.9435 25.3126 24.6222 25.3726 22.5201 25.8524V25.9124Z" fill="#373FA5"/>
</g>
<path fill-rule="evenodd" clip-rule="evenodd" d="M22.1607 25.552C20.479 25.9719 18.7973 26.6917 17.5361 27.8913C16.0946 29.3309 14.1727 33.8294 15.2538 35.8088C15.8544 36.8885 17.1156 37.8482 18.3769 37.9682C20.2988 38.0881 22.4009 37.4883 23.9625 36.3487C25.464 35.209 26.2448 33.5895 27.3859 32.09C28.1066 31.1303 29.0075 30.2306 29.6081 29.1509C30.6292 27.3515 28.9475 25.552 27.6862 25.3121C25.5841 24.9522 24.2628 25.0122 22.1607 25.4921V25.552Z" fill="url(#paint11_radial_149_46074)"/>
</g>
<g clip-path="url(#clip1_149_46074)">
<path fill-rule="evenodd" clip-rule="evenodd" d="M0.104354 2.15914C20.6962 1.79925 39.3134 0.479667 60.1873 -0.000183105C74.2912 0.179761 93.0025 0.719592 110.774 0.299723C143.307 0.779573 176.968 0.839554 185.807 0.719592C220.502 1.43937 256.609 2.2791 293.373 2.9389C294.877 3.11884 298.356 4.73834 299.014 5.75802C300.143 8.93702 301.271 11.6362 302.023 14.3953C302.211 16.3147 302.964 22.1329 302.964 26.0317C301.929 37.848 300.519 49.1844 299.767 57.8817C298.92 58.8414 292.339 60.9408 288.484 61.6605C251.249 62.5603 212.886 63.0401 171.891 63.9998C135.126 62.8602 88.8653 61.6605 51.7249 61.9605C32.1674 61.2407 14.3024 60.8808 -1.58812 60.9408C-3.37463 60.4609 -6.38347 58.6615 -6.94763 57.9417C-8.64011 46.1854 -9.39232 35.2688 -10.1445 23.5125C-9.48635 16.5546 -7.51179 11.6362 -6.94763 5.87798C-6.19542 4.97826 -1.68215 2.57901 0.104354 2.15914Z" fill="url(#paint12_radial_149_46074)"/>
<path fill-rule="evenodd" clip-rule="evenodd" d="M0.102539 2.15925L4.52178 7.91745C23.7032 7.49758 47.774 5.75812 65.4509 4.67846L60.1855 -0.0600586C39.3116 0.539754 20.6943 1.79936 0.102539 2.15925Z" fill="url(#paint13_radial_149_46074)"/>
<path fill-rule="evenodd" clip-rule="evenodd" d="M60.1855 0L65.451 4.73852C80.3072 4.67854 98.3603 4.73852 113.122 6.23805L111.054 0.359888C111.054 0.359888 110.866 0.359888 110.772 0.359888C93.0008 0.779756 74.2895 0.179944 60.1855 0.0599813V0Z" fill="url(#paint14_radial_149_46074)"/>
<path fill-rule="evenodd" clip-rule="evenodd" d="M111.058 0.360274L113.126 6.23844C129.017 5.33872 142.368 5.27874 157.413 6.59833C167.003 6.17846 174.902 6.11847 183.834 5.27874L185.809 0.720162C176.97 0.840124 143.497 0.780143 111.058 0.300293V0.360274Z" fill="url(#paint15_radial_149_46074)"/>
<path fill-rule="evenodd" clip-rule="evenodd" d="M185.808 0.719238L183.833 5.27781C216.742 6.65738 255.951 7.5571 289.143 8.75673L293.468 2.99853C256.609 2.27875 220.503 1.49899 185.902 0.77922L185.808 0.719238Z" fill="url(#paint16_radial_149_46074)"/>
<path fill-rule="evenodd" clip-rule="evenodd" d="M289.894 56.6225C251.625 57.5222 210.253 58.6019 171.984 59.5016V64.0002C213.168 63.0405 251.437 62.5606 288.765 61.6609L289.988 56.5625L289.894 56.6225Z" fill="url(#paint17_radial_149_46074)"/>
<path fill-rule="evenodd" clip-rule="evenodd" d="M171.892 59.5008C155.437 58.4811 123.75 56.6817 111.339 56.5617C97.2347 56.3818 77.3951 56.7417 57.6495 56.9216L52.29 61.96C89.3365 61.6601 135.409 62.9197 171.986 63.9994V59.5008H171.892Z" fill="url(#paint18_radial_149_46074)"/>
<path fill-rule="evenodd" clip-rule="evenodd" d="M52.288 61.9608L57.6475 56.9224C42.2272 56.3225 18.2504 54.763 2.73607 54.6431L-1.49512 60.9411C14.3954 60.8811 32.2604 61.241 51.8179 61.9608C52.0059 61.9608 52.1 61.9608 52.288 61.9608Z" fill="url(#paint19_radial_149_46074)"/>
<path fill-rule="evenodd" clip-rule="evenodd" d="M45.5216 17.2145C49.3767 15.595 53.2317 13.9156 56.9928 11.8762C58.6853 10.1367 60.4718 8.39729 62.1643 6.59785C63.0105 5.75812 63.2926 5.21829 62.4463 4.8584C45.1455 5.93806 22.5791 7.49757 4.432 7.91744C4.14992 8.03741 1.98731 9.41697 1.70523 9.53694C0.294833 14.1555 -1.77375 17.6344 -2.99609 21.3532C-2.80804 21.5332 -2.61999 21.6531 -2.43193 21.7131C-0.739458 22.193 31.5116 18.2942 39.3158 17.5144C40.9143 17.3345 44.1112 17.3945 45.4275 17.2145H45.5216Z" fill="url(#paint20_radial_149_46074)"/>
<path fill-rule="evenodd" clip-rule="evenodd" d="M58.1177 12.1765C55.2969 13.3762 52.4761 14.6358 49.6553 15.9554C48.1509 16.6751 47.3047 17.215 47.3047 17.3349C47.3047 17.4549 48.1509 17.8148 50.0315 18.1147C83.881 23.7529 115.756 30.7707 145.656 40.0678C147.161 40.1278 147.255 39.8879 148.571 38.6882C156.657 31.6704 167.282 25.7923 179.6 20.5139C181.669 19.6142 181.386 19.3743 181.386 18.5345C181.198 14.9357 181.763 9.89724 182.421 8.15779C181.951 11.6367 181.951 15.2356 182.045 18.2346C182.045 19.0144 182.045 19.3143 183.361 18.8944C185.806 18.1747 192.858 15.3555 200.756 13.0163C208.654 10.617 217.211 8.7576 220.031 7.49799C221.912 6.71824 220.689 6.59827 219.467 6.53829C207.15 6.11842 195.02 5.75854 183.737 5.21871C174.899 6.11842 166.906 6.17841 157.316 6.53829C142.271 5.15872 128.92 5.21871 113.029 6.17841C98.3611 4.67887 80.402 4.55891 65.5458 4.67887C62.8191 6.05844 59.7162 9.83726 58.1177 12.1765Z" fill="url(#paint21_radial_149_46074)"/>
<path fill-rule="evenodd" clip-rule="evenodd" d="M143.308 40.1879C124.69 34.5497 75.0445 22.1935 51.3498 18.8346C43.4516 17.6949 41.9472 18.2348 34.0489 18.9545C19.945 20.2741 -0.928912 22.1335 -2.62139 22.5534C-2.80944 22.5534 -2.99749 22.6734 -3.18555 22.7933C-2.52736 33.1101 -1.02294 43.4869 0.387459 53.8036C0.763565 54.1035 1.98591 54.5234 2.73812 54.5834C6.31113 54.5834 10.2602 54.7034 14.4914 54.8833C28.7835 55.3632 45.7082 56.4428 57.6496 56.8627C77.3951 56.6827 97.2347 56.3229 111.339 56.5028C116.604 56.5028 125.161 56.9227 134.657 57.3425C145.094 57.7024 155.531 58.5422 166.062 58.7221C168.225 58.7221 170.011 58.6021 170.293 58.4822C170.763 58.2423 168.977 55.963 167.096 53.7437C161.079 50.3247 155.343 46.8458 149.607 43.2469C146.975 41.5675 146.693 41.1476 143.308 40.1279V40.1879Z" fill="url(#paint22_radial_149_46074)"/>
<path fill-rule="evenodd" clip-rule="evenodd" d="M201.132 13.3155C182.891 18.8338 161.547 28.4908 149.794 38.8075C148.195 40.1871 148.289 40.547 148.854 41.8066C154.307 45.7054 160.795 49.6641 168.317 53.6229C169.351 54.8825 170.95 57.1018 172.454 58.1215C173.018 58.4814 173.677 58.6613 175.087 58.7813C184.02 59.5011 193.14 58.7813 202.261 58.7813C217.211 56.8619 231.973 54.7026 245.889 51.4636C252.847 49.7841 259.241 47.7447 265.164 45.1655C273.533 41.2668 281.713 37.248 289.517 32.9294C291.492 31.4298 293.09 29.5704 294.595 27.711C295.535 26.5114 295.817 25.9715 295.629 25.3118C295.629 25.1318 295.535 24.8919 295.441 24.7119C294.501 22.3127 292.996 18.3539 291.868 15.4148C291.304 13.6154 291.116 11.756 290.834 9.83659C290.269 9.41672 289.705 9.05683 289.047 8.81691C270.148 8.09713 249.274 7.5573 228.776 6.89751C227.836 6.89751 226.802 6.89751 225.861 6.83752C224.921 6.83752 223.887 6.89751 222.946 7.19741C222.006 7.43734 221.442 7.85721 219.75 8.69694C213.826 10.0165 207.15 11.576 201.038 13.3755L201.132 13.3155Z" fill="url(#paint23_radial_149_46074)"/>
<path fill-rule="evenodd" clip-rule="evenodd" d="M263.288 47.025C257.552 48.6445 252.005 50.5039 246.551 52.3633C232.635 55.0625 217.685 57.0419 202.265 58.7213C220.506 58.3015 239.029 57.8216 257.27 57.3418C268.271 57.0419 279.272 56.8019 289.897 56.562C291.026 56.2621 292.53 55.8422 293.846 55.4224C294.599 46.6651 294.787 37.1281 295.727 28.4308C295.539 28.1309 295.351 27.9509 295.257 27.891C294.693 27.771 291.026 32.3896 290.461 33.4692C282.751 36.9481 276.922 39.8872 269.776 43.846C266.767 45.5255 268.459 45.5854 271.374 46.845C273.913 47.9847 276.263 49.0644 278.802 50.324C273.819 48.5245 268.553 45.4055 263.382 46.845L263.288 47.025Z" fill="url(#paint24_radial_149_46074)"/>
<path opacity="0.75" fill-rule="evenodd" clip-rule="evenodd" d="M1.3295 3.8388C21.3571 3.35895 42.137 3.59888 61.9766 1.61949L111.717 2.15933C136.634 1.43955 160.986 2.15933 185.057 2.51921C207.718 2.93908 273.442 1.85942 291.871 4.7985C292.906 4.7985 296.102 5.7582 296.385 7.01781C300.428 10.3768 301.274 14.0956 302.496 18.2343C302.308 16.5548 302.12 15.1753 302.026 14.3955C301.18 11.6364 300.146 8.93721 299.017 5.7582C298.359 4.73852 294.88 3.11903 293.376 2.93908C256.517 2.21931 220.411 1.43955 185.809 0.719775C176.971 0.839738 143.309 0.779756 110.776 0.299906C93.0053 0.719775 74.294 0.119963 60.1901 0C39.3162 0.539831 20.6989 1.79944 0.107154 2.15933C-1.58532 2.57919 -6.19262 4.97844 -6.94483 5.87816C-7.50899 10.8566 -9.01341 15.1753 -9.76562 20.8135C-7.41496 16.075 -4.59417 11.5164 -5.25235 6.59794C-2.61961 5.93814 -0.739084 5.15839 1.42352 3.8388H1.3295Z" fill="url(#paint25_linear_149_46074)"/>
<path fill-rule="evenodd" clip-rule="evenodd" d="M257.265 57.4019C264.599 57.342 271.933 57.222 279.267 57.102C282.464 57.102 285.567 56.9821 288.764 57.102C289.046 57.102 289.234 57.342 289.234 57.5219C289.234 58.5416 289.046 59.6212 288.858 60.6409C289.234 59.5013 289.422 58.3017 289.987 57.162C290.269 56.6822 293.277 55.8424 294.124 56.0823C295.816 56.5022 297.415 57.162 299.013 57.6419C297.885 57.042 296.756 56.5022 295.628 55.9024C294.124 55.1826 294.312 55.1226 294.406 53.863C294.594 51.9436 294.782 50.0242 294.97 48.0449C294.97 41.207 295.346 35.0289 296.192 28.251C296.192 27.5912 296.192 26.6915 296.756 26.3916C296.944 26.2717 301.552 26.0917 302.116 26.0317C301.646 26.0317 296.756 25.7918 296.662 25.7318C295.91 25.072 295.346 22.7328 294.782 21.6531C294.312 20.3935 293.936 19.1339 293.465 17.8743C293.183 17.0945 292.995 16.2548 293.277 16.0149C293.371 15.9549 294.03 15.655 294.876 15.535C296.192 15.2951 297.509 15.0552 298.825 14.8152C296.944 15.0552 295.534 15.2951 293.654 15.2351C291.961 15.2351 292.243 14.6953 292.149 13.6156C292.055 12.9558 291.491 12.236 291.397 11.5163C291.209 10.4966 290.927 10.1367 292.149 9.41693C294.03 8.33727 295.816 7.31759 297.697 6.23792C295.91 7.07766 294.03 7.9174 292.243 8.75714C290.269 9.65686 289.422 8.63717 290.363 7.25761C291.209 5.998 291.961 4.67841 292.807 3.41881L289.61 7.07766C288.294 8.51721 287.73 8.21731 285.097 8.15732C268.266 7.85742 251.624 7.13764 234.887 6.23792C227.929 6.11796 186.557 5.63811 184.771 4.73839C184.113 4.43849 184.959 2.99894 185.429 1.01956C183.455 4.49847 184.489 4.67841 178.283 5.39819C172.924 5.63811 164.085 6.41787 159.102 6.05798C157.879 5.93802 157.597 5.93802 157.597 5.15826C157.597 4.31852 157.503 3.47879 157.409 2.57907C157.221 3.53877 157.033 4.37851 156.939 5.33821C156.845 5.998 156.093 5.75807 155.059 5.63811C150.169 5.21824 145.28 4.91834 140.39 4.73839C131.74 4.79837 124.5 5.33821 115.85 5.69809C112.371 5.69809 112.277 3.65873 110.96 0.839612C111.148 1.61937 111.9 4.31852 111.524 4.85836C111.148 5.27822 110.302 5.21824 108.609 5.09828C104.566 4.85836 100.429 4.55845 96.3861 4.31852C89.6161 4.13858 83.0343 4.0786 76.2644 4.0786C72.7854 4.0786 67.5199 4.49847 64.8872 3.89866C64.6991 3.89866 61.2202 1.01956 60.75 0.659668C61.2202 1.25948 63.0067 3.17888 62.7246 3.71871C62.4425 4.31852 60.8441 4.25854 59.4337 4.31852C55.6726 4.49847 52.1936 4.67841 48.4326 4.73839C34.4226 5.87804 21.447 6.59781 7.43703 7.19762C5.46248 7.25761 4.99235 7.61749 4.05208 6.59781C2.82974 5.27822 1.60739 3.95864 0.291023 2.69903C1.32531 4.49847 2.26558 5.93802 3.01779 7.79744C3.20584 8.15732 1.23129 8.81712 0.479076 8.57719C-2.05964 7.73746 -4.12822 7.13764 -6.57291 6.23792C-4.88043 7.07766 -3.75211 7.85742 -2.05964 8.75714C0.385049 10.0167 0.102969 9.53689 -0.649242 11.5163C-1.87159 14.6353 -2.9999 17.6943 -4.22225 20.8134C-4.69238 22.073 -4.78641 22.073 -6.66693 22.5528C-7.79525 22.8527 -8.54746 23.2126 -9.67578 23.5125C-8.45344 23.3326 -7.32512 23.2126 -6.10278 23.0327C-4.88043 22.8527 -4.03419 22.6728 -4.03419 23.5725C-4.03419 24.8921 -4.03419 26.1517 -3.94017 27.4713C-3.37601 32.0898 -2.81185 36.7084 -2.24769 41.3869C-1.68353 45.2257 -1.2134 49.0645 -0.649242 52.9033C-0.649242 53.2032 -0.649242 53.5032 -0.931321 53.8031C-1.49548 54.6428 -4.59835 56.5022 -5.72667 57.282C-3.84614 56.3823 -1.96561 55.5425 -0.0850834 54.6428C0.00894303 54.5228 1.60739 54.8227 1.79545 55.1826C1.41934 56.0224 0.949208 56.8021 0.573102 57.6419C1.23129 56.8621 1.9835 56.0823 2.64168 55.3026C2.92376 55.1826 3.20584 55.0627 3.67598 55.0027C5.65053 55.0027 7.53106 55.0027 9.50561 55.0027C11.1041 55.0027 12.7025 55.0027 14.301 55.0027C10.0698 54.8827 6.02664 54.7628 2.54766 54.7028C1.70142 54.6428 0.479076 54.2229 0.196997 53.923C-1.2134 43.6662 -2.6238 33.2295 -3.37601 22.9127C-3.18796 22.7927 -3.09393 22.7328 -2.81185 22.6728C-1.02535 22.2529 19.8485 20.3935 33.8585 19.0739C41.6627 18.3541 43.2611 17.8143 51.1593 18.954C74.854 22.3129 124.5 34.669 143.117 40.3073C146.502 41.327 146.784 41.7468 149.417 43.4263C155.153 47.0852 160.982 50.5641 166.906 53.923C168.786 56.0823 170.573 58.4216 170.103 58.6615C169.821 58.7815 168.034 58.9614 165.872 58.9015C155.341 58.7215 144.904 57.9418 134.467 57.5219C145.468 58.4216 156.563 58.8415 168.222 59.7412C169.633 59.8612 170.479 59.9211 170.949 60.1611C171.325 60.341 171.701 61.8405 171.795 63.3401C172.171 61.3007 172.171 60.1011 172.736 59.9211C173.018 59.9211 174.334 59.8612 175.65 59.8012C184.395 59.6812 193.233 59.3813 201.978 58.7815C217.304 57.102 232.254 55.1226 246.264 52.4235C251.718 50.5041 257.265 48.7046 263.001 47.0852C268.172 45.6456 273.438 48.7646 278.421 50.5641C275.883 49.2445 273.532 48.1648 270.993 47.0852C268.078 45.8255 266.386 45.7656 269.395 44.0861C276.541 40.1273 282.37 37.1882 290.081 33.7093C290.645 32.5697 294.312 27.9511 294.876 28.1311C294.97 28.1311 295.158 28.311 295.346 28.6709C294.406 37.3082 294.312 46.8452 293.465 55.6625C292.149 56.0823 290.645 56.5022 289.516 56.8021C278.797 57.042 267.89 57.342 256.889 57.5819L257.265 57.4019ZM202.26 58.7815C193.233 58.7815 184.113 59.5613 175.086 58.7815C173.676 58.6615 172.924 58.4816 172.453 58.1217C170.949 57.162 169.351 54.8827 168.316 53.6231C160.7 49.6044 154.306 45.7056 148.853 41.8068C148.195 40.4872 148.195 40.1273 149.793 38.8077C161.64 28.491 182.89 18.774 201.132 13.3157C207.243 11.4563 213.919 9.89678 219.843 8.63717C221.535 7.79744 222.193 7.37757 223.04 7.13764C224.92 6.59781 226.895 6.83774 228.869 6.89772C249.367 7.49753 270.241 8.09734 289.14 8.81712C289.798 9.11702 290.363 9.41693 290.927 9.8368C291.303 11.6962 291.397 13.5556 291.961 15.4151C293.183 18.4141 294.688 22.3729 295.534 24.7121C295.91 25.7918 295.91 26.1517 294.688 27.7112C293.183 29.5706 291.585 31.43 289.61 32.9296C281.712 37.2482 273.532 41.327 265.258 45.1658C259.334 47.745 252.846 49.7843 245.982 51.4638C232.066 54.7028 217.304 56.8621 202.354 58.7815H202.26ZM145.656 40.0673C115.755 30.7703 83.8805 23.7525 50.031 18.1142C48.1505 17.8143 47.3042 17.4544 47.3042 17.3345C47.3042 17.1545 48.1505 16.6747 49.6549 15.9549C52.3817 14.6353 55.2025 13.3757 58.1173 12.1761C59.7157 9.8368 62.8186 6.11796 65.5454 4.67841C80.4016 4.61843 98.3606 4.67841 113.029 6.17794C128.919 5.27822 142.271 5.21824 157.315 6.53783C166.906 6.11796 174.804 6.05798 183.737 5.21824C194.926 5.69809 206.867 6.11796 219.091 6.47785C220.501 6.47785 222.099 6.53783 220.125 7.43755C217.21 8.69716 208.748 10.5566 200.849 12.9558C192.951 15.3551 185.899 18.1142 183.455 18.834C182.044 19.2539 182.138 18.9539 182.138 18.1742C182.044 15.1751 182.138 11.5763 182.514 8.09734C181.856 9.77682 181.198 14.8752 181.48 18.4741C181.48 19.3138 181.762 19.5538 179.693 20.4535C167.376 25.7318 156.751 31.61 148.665 38.6278C147.348 39.8274 147.16 40.0673 145.75 40.0074L145.656 40.0673ZM-2.90588 21.4132C-1.68353 17.6344 0.385049 14.2154 1.79545 9.59687C2.07753 9.41693 4.24013 8.09734 4.52221 7.97738C22.6693 7.55751 45.2357 5.998 62.5365 4.91834C63.3828 5.27822 63.1007 5.81806 62.2545 6.65779C60.562 8.39725 58.7755 10.1367 57.083 11.9361C53.416 13.9755 49.5609 15.715 45.6118 17.2745C44.2954 17.4544 41.0985 17.4544 39.5001 17.5744C31.6959 18.4141 -0.649242 22.3129 -2.24769 21.7731C-2.43574 21.7131 -2.6238 21.5931 -2.81185 21.4132H-2.90588Z" fill="url(#paint26_radial_149_46074)"/>
<g style="mix-blend-mode:screen" opacity="0.5">
<path fill-rule="evenodd" clip-rule="evenodd" d="M43.2631 37.3681C42.4169 37.3681 41.2885 37.548 40.7244 37.9679C39.502 38.9276 38.6558 40.0672 38.2797 41.2069C37.9036 42.4665 41.1945 43.6061 42.793 43.6661C44.1093 43.6661 45.5197 43.3662 46.2719 42.7064C47.4943 41.6867 45.7078 37.488 43.2631 37.3081V37.3681Z" fill="#373FA5"/>
</g>
<g style="mix-blend-mode:screen" opacity="0.5">
<path fill-rule="evenodd" clip-rule="evenodd" d="M25.2066 25.9122C22.5739 26.3321 19.9411 27.0518 17.9666 28.2515C15.71 29.691 12.7011 34.1896 14.3936 36.169C15.3338 37.2487 17.3084 38.2084 19.283 38.3283C22.2918 38.4483 25.5827 37.8485 28.0274 36.7088C30.3781 35.5692 31.6004 33.9497 33.3869 32.4502C34.5152 31.4905 35.9256 30.5907 36.8659 29.5111C38.4644 27.7116 35.8316 25.9122 33.8571 25.6723C30.5661 25.3124 28.4976 25.3724 25.2066 25.8522V25.9122Z" fill="#373FA5"/>
</g>
<g style="mix-blend-mode:screen" opacity="0.5">
<path fill-rule="evenodd" clip-rule="evenodd" d="M272.597 24.8919C269.212 25.3118 265.639 28.9706 264.792 31.1299C263.946 33.4092 265.545 34.6089 267.237 34.189C270.998 33.2293 281.529 30.5301 282.281 27.5911C282.657 26.0915 281.529 24.7719 278.99 24.532C276.922 24.2921 274.665 24.592 272.597 24.8919Z" fill="#373FA5"/>
</g>
<path fill-rule="evenodd" clip-rule="evenodd" d="M272.028 24.472C268.643 24.8918 265.07 28.5507 264.224 30.71C263.378 32.9893 264.976 34.1889 266.669 33.7691C270.43 32.8094 280.961 30.1102 281.713 27.1711C282.089 25.6716 280.961 24.352 278.422 24.1121C276.353 23.8722 274.097 24.1721 272.028 24.472Z" fill="url(#paint27_radial_149_46074)"/>
<path fill-rule="evenodd" clip-rule="evenodd" d="M42.6957 36.9487C41.8495 36.9487 40.7212 37.1286 40.157 37.5485C38.9347 38.5082 38.0884 39.6478 37.7123 40.7875C37.3362 42.0471 40.6271 43.1867 42.2256 43.2467C43.542 43.2467 44.9524 42.9468 45.7046 42.287C46.9269 41.2673 45.1404 37.0686 42.6957 36.8887V36.9487Z" fill="url(#paint28_radial_149_46074)"/>
<path fill-rule="evenodd" clip-rule="evenodd" d="M24.649 25.5518C22.0163 25.9717 19.3835 26.6915 17.409 27.8911C15.1523 29.3307 12.1435 33.8293 13.836 35.8086C14.7762 36.8883 16.7508 37.848 18.7253 37.968C21.7342 38.0879 25.0251 37.4881 27.4698 36.3485C29.8205 35.2088 31.0428 33.5893 32.8293 32.0898C33.9576 31.1301 35.368 30.2304 36.3083 29.1507C37.9067 27.3513 35.274 25.5518 33.2994 25.3119C30.0085 24.952 27.9399 25.012 24.649 25.4919V25.5518Z" fill="url(#paint29_radial_149_46074)"/>
</g>
<g clip-path="url(#clip2_149_46074)">
<path fill-rule="evenodd" clip-rule="evenodd" d="M99.488 2.15933C112.641 1.79944 124.533 0.47985 137.866 0C146.875 0.179944 158.827 0.719775 170.179 0.299906C190.959 0.779756 212.461 0.839738 218.107 0.719775C240.269 1.43955 263.332 2.27929 286.815 2.93908C287.776 3.11903 289.998 4.73852 290.419 5.7582C291.14 8.93721 291.86 11.6364 292.341 14.3955C292.461 16.3149 292.941 22.1331 292.941 26.0319C292.281 37.8482 291.38 49.1846 290.899 57.8819C290.359 58.8416 286.155 60.941 283.692 61.6607C259.908 62.5604 235.404 63.0403 209.218 64C185.734 62.8604 156.185 61.6607 132.461 61.9606C119.968 61.2409 108.557 60.881 98.4069 60.941C97.2657 60.4611 95.3438 58.6617 94.9834 57.9419C93.9024 46.1856 93.4219 35.269 92.9414 23.5127C93.3618 16.5548 94.6231 11.6364 94.9834 5.87816C95.4639 4.97844 98.3468 2.57919 99.488 2.15933Z" fill="url(#paint30_radial_149_46074)"/>
<path fill-rule="evenodd" clip-rule="evenodd" d="M218.105 0.719421L216.844 5.278C237.865 6.65757 262.91 7.55728 284.111 8.75691L286.874 2.99871C263.33 2.27893 240.267 1.49918 218.165 0.779403L218.105 0.719421Z" fill="url(#paint31_radial_149_46074)"/>
<path fill-rule="evenodd" clip-rule="evenodd" d="M286.876 2.99913L284.113 8.75733C284.534 9.05724 284.894 9.35714 285.254 9.77701L290.48 5.75827C290.059 4.73859 287.837 3.11909 286.876 2.93915V2.99913Z" fill="url(#paint32_radial_149_46074)"/>
<path fill-rule="evenodd" clip-rule="evenodd" d="M290.421 5.81854L285.195 9.83729C285.436 11.6967 285.496 13.5561 285.856 15.4155C286.817 19.1344 288.138 24.2928 288.439 26.1522H292.943C292.943 22.2534 292.463 16.4352 292.342 14.5158C291.802 11.7567 291.141 9.05753 290.421 5.87852V5.81854Z" fill="url(#paint33_radial_149_46074)"/>
<path fill-rule="evenodd" clip-rule="evenodd" d="M292.999 26.0319H288.495C287.714 35.329 287.654 45.8857 287.113 55.4827L291.017 57.882C291.498 49.2447 292.399 37.8482 293.059 26.0319H292.999Z" fill="url(#paint34_radial_149_46074)"/>
<path fill-rule="evenodd" clip-rule="evenodd" d="M287.116 55.4826C286.275 55.9025 285.314 56.3223 284.593 56.6222L283.812 61.7207C286.215 61.0009 290.479 58.8416 291.02 57.9418L287.116 55.5426V55.4826Z" fill="url(#paint35_radial_149_46074)"/>
<path fill-rule="evenodd" clip-rule="evenodd" d="M284.593 56.6227C260.148 57.5224 233.722 58.602 209.277 59.5018V64.0004C235.584 63.0407 260.028 62.5608 283.872 61.6611L284.653 56.5627L284.593 56.6227Z" fill="url(#paint36_radial_149_46074)"/>
<path fill-rule="evenodd" clip-rule="evenodd" d="M227.897 13.3156C216.246 18.8338 202.612 28.4908 195.105 38.8076C194.084 40.1872 194.144 40.5471 194.504 41.8067C197.987 45.7054 202.132 49.6642 206.936 53.623C207.597 54.8826 208.618 57.1019 209.579 58.1216C209.939 58.4814 210.36 58.6614 211.261 58.7814C216.966 59.5011 222.792 58.7814 228.618 58.7814C238.168 56.8619 247.597 54.7026 256.486 51.4636C260.93 49.7842 265.014 47.7448 268.798 45.1656C274.144 41.2668 279.369 37.2481 284.354 32.9294C285.615 31.4299 286.636 29.5705 287.597 27.7111C288.198 26.5114 288.378 25.9716 288.258 25.3118C288.258 25.1319 288.198 24.8919 288.138 24.712C287.537 22.3127 286.576 18.354 285.855 15.4149C285.495 13.6155 285.375 11.756 285.195 9.83665C284.834 9.41678 284.474 9.05689 284.054 8.81697C271.981 8.09719 258.648 7.55736 245.555 6.89757C244.954 6.89757 244.294 6.89757 243.693 6.83759C243.093 6.83759 242.432 6.89757 241.831 7.19747C241.231 7.4374 240.87 7.85727 239.789 8.697C236.005 10.0166 231.741 11.5761 227.837 13.3755L227.897 13.3156Z" fill="url(#paint37_radial_149_46074)"/>
<path fill-rule="evenodd" clip-rule="evenodd" d="M267.596 47.0252C263.933 48.6447 260.389 50.5041 256.905 52.3635C248.017 55.0627 238.467 57.042 228.617 58.7215C240.269 58.3016 252.101 57.8218 263.752 57.3419C270.779 57.042 277.806 56.8021 284.593 56.5622C285.314 56.2623 286.275 55.8424 287.116 55.4225C287.596 46.6653 287.716 37.1283 288.317 28.431C288.197 28.1311 288.077 27.9511 288.017 27.8911C287.656 27.7712 285.314 32.3897 284.954 33.4694C280.029 36.9483 276.305 39.8874 271.74 43.8462C269.818 45.5256 270.899 45.5856 272.761 46.8452C274.383 47.9849 275.884 49.0645 277.506 50.3241C274.323 48.5247 270.96 45.4057 267.656 46.8452L267.596 47.0252Z" fill="url(#paint38_radial_149_46074)"/>
<path opacity="0.75" fill-rule="evenodd" clip-rule="evenodd" d="M100.267 3.83898C113.06 3.35913 126.333 3.59906 139.006 1.61968L170.777 2.15951C186.693 1.43973 202.249 2.15951 217.624 2.5194C232.099 2.93926 274.081 1.8596 285.852 4.79868C286.513 4.79868 288.555 5.75838 288.735 7.01799C291.318 10.3769 291.858 14.0958 292.639 18.2345C292.519 16.555 292.399 15.1754 292.339 14.3957C291.798 11.6365 291.138 8.93739 290.417 5.75838C289.997 4.7387 287.774 3.11921 286.813 2.93926C263.27 2.21949 240.207 1.43973 218.105 0.719958C212.459 0.839921 190.957 0.779939 170.177 0.300089C158.825 0.719958 146.873 0.120146 137.864 0.000183105C124.531 0.540014 112.639 1.79962 99.486 2.15951C98.4049 2.57938 95.462 4.97863 94.9815 5.87835C94.6211 10.8568 93.6602 15.1754 93.1797 20.8137C94.6812 16.0752 96.483 11.5166 96.0626 6.59812C97.7443 5.93833 98.9455 5.15857 100.327 3.83898H100.267Z" fill="url(#paint39_linear_149_46074)"/>
<path fill-rule="evenodd" clip-rule="evenodd" d="M263.753 57.4021C268.437 57.3421 273.122 57.2222 277.807 57.1022C279.849 57.1022 281.831 56.9823 283.873 57.1022C284.053 57.1022 284.173 57.3421 284.173 57.5221C284.173 58.5418 284.053 59.6214 283.933 60.6411C284.173 59.5015 284.293 58.3018 284.654 57.1622C284.834 56.6823 286.756 55.8426 287.296 56.0825C288.377 56.5024 289.398 57.1622 290.419 57.642C289.699 57.0422 288.978 56.5024 288.257 55.9026C287.296 55.1828 287.416 55.1228 287.476 53.8632C287.597 51.9438 287.717 50.0244 287.837 48.045C287.837 41.2072 288.077 35.0291 288.618 28.2512C288.618 27.5914 288.618 26.6917 288.978 26.3918C289.098 26.2718 292.041 26.0919 292.401 26.0319C292.101 26.0319 288.978 25.792 288.918 25.732C288.437 25.0722 288.077 22.733 287.717 21.6533C287.416 20.3937 287.176 19.1341 286.876 17.8745C286.696 17.0947 286.576 16.255 286.756 16.0151C286.816 15.9551 287.236 15.6552 287.777 15.5352C288.618 15.2953 289.458 15.0554 290.299 14.8154C289.098 15.0554 288.197 15.2953 286.996 15.2353C285.915 15.2353 286.095 14.6955 286.035 13.6158C285.975 12.956 285.615 12.2362 285.555 11.5165C285.434 10.4968 285.254 10.1369 286.035 9.41711C287.236 8.33745 288.377 7.31777 289.579 6.23811C288.437 7.07784 287.236 7.91758 286.095 8.75732C284.834 9.65704 284.293 8.63736 284.894 7.25779C285.434 5.99818 285.915 4.67859 286.455 3.41899L284.413 7.07784C283.573 8.51739 283.212 8.21749 281.53 8.15751C270.78 7.8576 260.149 7.13783 249.458 6.23811C245.014 6.11814 218.588 5.6383 217.446 4.73858C217.026 4.43867 217.567 2.99912 217.867 1.01974C216.606 4.49865 217.266 4.67859 213.302 5.39837C209.879 5.63829 204.233 6.41805 201.05 6.05816C200.269 5.9382 200.089 5.9382 200.089 5.15844C200.089 4.31871 200.029 3.47897 199.969 2.57925C199.849 3.53895 199.729 4.37869 199.669 5.33839C199.609 5.99818 199.128 5.75826 198.467 5.63829C195.344 5.21843 192.221 4.91852 189.098 4.73858C183.573 4.79856 178.948 5.33839 173.422 5.69828C171.2 5.69828 171.14 3.65891 170.299 0.839795C170.419 1.61955 170.9 4.31871 170.66 4.85854C170.419 5.27841 169.879 5.21843 168.798 5.09846C166.215 4.85854 163.573 4.55863 160.99 4.31871C156.666 4.13876 152.461 4.07878 148.137 4.07878C145.915 4.07878 142.551 4.49865 140.87 3.89884C140.75 3.89884 138.527 1.01974 138.227 0.659851C138.527 1.25966 139.669 3.17906 139.488 3.71889C139.308 4.31871 138.287 4.25873 137.386 4.31871C134.984 4.49865 132.762 4.6786 130.359 4.73858C121.41 5.87822 113.122 6.598 104.173 7.19781C102.912 7.25779 102.612 7.61768 102.011 6.59799C101.23 5.27841 100.449 3.95882 99.6086 2.69921C100.269 4.49865 100.87 5.9382 101.35 7.79762C101.47 8.15751 100.209 8.8173 99.7287 8.57738C98.1071 7.73764 96.7857 7.13783 95.2242 6.23811C96.3053 7.07784 97.026 7.8576 98.1071 8.75732C99.6686 10.0169 99.4884 9.53708 99.008 11.5165C98.2272 14.6355 97.5065 17.6945 96.7257 20.8136C96.4254 22.0732 96.3653 22.0732 95.1641 22.553C94.4434 22.8529 93.9629 23.2128 93.2422 23.5127C94.023 23.3328 94.7437 23.2128 95.5245 23.0329C96.3053 22.8529 96.8458 22.673 96.8458 23.5727C96.8458 24.8923 96.8458 26.1519 96.9059 27.4715C97.2662 32.09 97.6266 36.7086 97.9869 41.3871C98.3473 45.2259 98.6476 49.0647 99.008 52.9035C99.008 53.2034 99.008 53.5033 98.8278 53.8032C98.4674 54.643 96.4854 56.5024 95.7647 57.2822C96.9659 56.3824 98.1671 55.5427 99.3683 54.643C99.4284 54.523 100.449 54.8229 100.57 55.1828C100.329 56.0225 100.029 56.8023 99.7887 57.642C100.209 56.8623 100.69 56.0825 101.11 55.3028C101.29 55.1828 101.47 55.0628 101.771 55.0029C103.032 55.0029 104.233 55.0029 105.494 55.0029C106.515 55.0029 107.536 55.0029 108.558 55.0029C105.855 54.8829 103.272 54.7629 101.05 54.703C100.509 54.643 99.7287 54.2231 99.5485 53.9232C98.6476 43.6664 97.7467 33.2297 97.2662 22.9129C97.3863 22.7929 97.4464 22.733 97.6266 22.673C98.7677 22.2531 112.101 20.3937 121.05 19.0741C126.035 18.3543 127.056 17.8145 132.101 18.9541C147.236 22.3131 178.948 34.6692 190.84 40.3075C193.002 41.3271 193.182 41.747 194.864 43.4265C198.527 47.0853 202.251 50.5643 206.035 53.9232C207.236 56.0825 208.377 58.4218 208.077 58.6617C207.897 58.7817 206.756 58.9616 205.374 58.9016C198.648 58.7217 191.981 57.9419 185.314 57.5221C192.341 58.4218 199.428 58.8417 206.876 59.7414C207.777 59.8613 208.317 59.9213 208.618 60.1613C208.858 60.3412 209.098 61.8407 209.158 63.3403C209.398 61.3009 209.398 60.1013 209.759 59.9213C209.939 59.9213 210.78 59.8614 211.621 59.8014C217.206 59.6814 222.852 59.3815 228.437 58.7817C238.227 57.1022 247.777 55.1228 256.726 52.4237C260.209 50.5043 263.753 48.7048 267.416 47.0853C270.72 45.6458 274.083 48.7648 277.266 50.5643C275.645 49.2447 274.143 48.165 272.521 47.0853C270.66 45.8257 269.579 45.7658 271.5 44.0863C276.065 40.1275 279.789 37.1884 284.714 33.7095C285.074 32.5699 287.416 27.9513 287.777 28.1313C287.837 28.1313 287.957 28.3112 288.077 28.6711C287.476 37.3084 287.416 46.8454 286.876 55.6627C286.035 56.0825 285.074 56.5024 284.353 56.8023C277.506 57.0422 270.539 57.3421 263.512 57.5821L263.753 57.4021ZM228.618 58.7817C222.852 58.7817 217.026 59.5614 211.26 58.7817C210.359 58.6617 209.879 58.4818 209.579 58.1219C208.618 57.1622 207.597 54.8829 206.936 53.6233C202.071 49.6045 197.987 45.7058 194.503 41.807C194.083 40.4874 194.083 40.1275 195.104 38.8079C202.672 28.4911 216.245 18.7742 227.897 13.3159C231.801 11.4565 236.065 9.89696 239.849 8.63736C240.93 7.79762 241.35 7.37775 241.891 7.13783C243.092 6.598 244.353 6.83792 245.615 6.8979C258.708 7.49771 272.041 8.09753 284.113 8.8173C284.533 9.11721 284.894 9.41711 285.254 9.83698C285.494 11.6964 285.554 13.5558 285.915 15.4152C286.696 18.4143 287.657 22.3731 288.197 24.7123C288.437 25.792 288.437 26.1519 287.657 27.7114C286.696 29.5708 285.675 31.4302 284.413 32.9298C279.368 37.2484 274.143 41.3271 268.858 45.1659C265.074 47.7451 260.93 49.7845 256.545 51.464C247.657 54.703 238.227 56.8623 228.678 58.7817H228.618ZM192.461 40.0675C173.362 30.7704 153.002 23.7526 131.38 18.1144C130.179 17.8145 129.639 17.4546 129.639 17.3346C129.639 17.1547 130.179 16.6748 131.14 15.9551C132.882 14.6355 134.684 13.3759 136.545 12.1763C137.567 9.83698 139.548 6.11814 141.29 4.67859C150.78 4.61861 162.251 4.67859 171.621 6.17813C181.771 5.27841 190.299 5.21843 199.909 6.53801C206.035 6.11814 211.08 6.05816 216.786 5.21843C223.933 5.69828 231.561 6.11814 239.368 6.47803C240.269 6.47803 241.29 6.53801 240.029 7.43773C238.167 8.69734 232.762 10.5568 227.717 12.956C222.672 15.3553 218.167 18.1144 216.606 18.8342C215.705 19.254 215.765 18.9541 215.765 18.1744C215.705 15.1753 215.765 11.5764 216.005 8.09753C215.585 9.777 215.164 14.8754 215.344 18.4743C215.344 19.314 215.524 19.5539 214.203 20.4537C206.335 25.732 199.548 31.6102 194.383 38.628C193.542 39.8276 193.422 40.0675 192.521 40.0076L192.461 40.0675ZM97.5665 21.4134C98.3473 17.6345 99.6686 14.2156 100.57 9.59706C100.75 9.41711 102.131 8.09753 102.311 7.97756C113.903 7.55769 128.317 5.99818 139.368 4.91852C139.909 5.27841 139.729 5.81824 139.188 6.65798C138.107 8.39743 136.966 10.1369 135.885 11.9363C133.542 13.9757 131.08 15.7151 128.558 17.2747C127.717 17.4546 125.675 17.4546 124.654 17.5746C119.669 18.4143 99.008 22.3131 97.9869 21.7733C97.8668 21.7133 97.7467 21.5933 97.6266 21.4134H97.5665Z" fill="url(#paint40_radial_149_46074)"/>
<g style="mix-blend-mode:screen" opacity="0.5">
<path fill-rule="evenodd" clip-rule="evenodd" d="M273.544 24.8921C271.382 25.3119 269.1 28.9708 268.559 31.1301C268.019 33.4094 269.04 34.609 270.121 34.1892C272.523 33.2295 279.25 30.5303 279.731 27.5912C279.971 26.0917 279.25 24.7721 277.629 24.5322C276.307 24.2923 274.866 24.5922 273.544 24.8921Z" fill="#373FA5"/>
</g>
<path fill-rule="evenodd" clip-rule="evenodd" d="M273.185 24.4722C271.023 24.892 268.741 28.5509 268.2 30.7102C267.66 32.9895 268.681 34.1891 269.762 33.7693C272.164 32.8096 278.891 30.1104 279.371 27.1713C279.611 25.6718 278.891 24.3522 277.269 24.1123C275.948 23.8723 274.506 24.1723 273.185 24.4722Z" fill="url(#paint41_radial_149_46074)"/>
</g>
<defs>
<radialGradient id="paint0_radial_149_46074" cx="0" cy="0" r="1" gradientUnits="userSpaceOnUse" gradientTransform="translate(34.7123 0.779875) scale(228.589 228.289)">
<stop stop-color="#676C94"/>
<stop offset="1" stop-color="#17233A"/>
</radialGradient>
<radialGradient id="paint1_radial_149_46074" cx="0" cy="0" r="1" gradientUnits="userSpaceOnUse" gradientTransform="translate(0.3003 25.9122) scale(46.4865 46.4255)">
<stop stop-color="#5A6084"/>
<stop offset="1" stop-color="#323B63"/>
</radialGradient>
<radialGradient id="paint2_radial_149_46074" cx="0" cy="0" r="1" gradientUnits="userSpaceOnUse" gradientTransform="translate(13.0916 9.23764) scale(17.1772 17.1546)">
<stop stop-color="#8899C2"/>
<stop offset="1" stop-color="#727696"/>
</radialGradient>
<radialGradient id="paint3_radial_149_46074" cx="0" cy="0" r="1" gradientUnits="userSpaceOnUse" gradientTransform="translate(48.3462 -39.5875) scale(69.6697 69.5783)">
<stop stop-color="#8899C2"/>
<stop offset="1" stop-color="#727696"/>
</radialGradient>
<radialGradient id="paint4_radial_149_46074" cx="0" cy="0" r="1" gradientUnits="userSpaceOnUse" gradientTransform="translate(43.0024 17.3349) scale(74.3544 74.2568)">
<stop stop-color="#4E5470"/>
<stop offset="1" stop-color="#252E4F"/>
</radialGradient>
<radialGradient id="paint5_radial_149_46074" cx="0" cy="0" r="1" gradientUnits="userSpaceOnUse" gradientTransform="translate(12.9739 44.8058) scale(36.5165 36.4686)">
<stop stop-color="#5A6084"/>
<stop offset="1" stop-color="#323B63"/>
</radialGradient>
<radialGradient id="paint6_radial_149_46074" cx="0" cy="0" r="1" gradientUnits="userSpaceOnUse" gradientTransform="translate(-0.420418 18.8945) scale(64.9249 64.8397)">
<stop stop-color="#5A6084"/>
<stop offset="1" stop-color="#323B63"/>
</radialGradient>
<radialGradient id="paint7_radial_149_46074" cx="0" cy="0" r="1" gradientUnits="userSpaceOnUse" gradientTransform="translate(36.5721 16.9747) scale(78.2583 78.1556)">
<stop stop-color="#4E5B7D"/>
<stop offset="1" stop-color="#313556"/>
</radialGradient>
<radialGradient id="paint8_radial_149_46074" cx="0" cy="0" r="1" gradientUnits="userSpaceOnUse" gradientTransform="translate(62.6411 -19.1334) scale(178.258 178.024)">
<stop stop-color="#4E5B7D"/>
<stop offset="1" stop-color="#313556"/>
</radialGradient>
<linearGradient id="paint9_linear_149_46074" x1="70.2561" y1="0.000183105" x2="70.2561" y2="20.8137" gradientUnits="userSpaceOnUse">
<stop stop-color="#A0DBF0"/>
<stop offset="1" stop-color="#00FFEA"/>
</linearGradient>
<radialGradient id="paint10_radial_149_46074" cx="0" cy="0" r="1" gradientUnits="userSpaceOnUse" gradientTransform="translate(29.6638 -39.2877) scale(225.045 224.75)">
<stop stop-color="#7C8FB2"/>
<stop offset="1" stop-color="#515682"/>
</radialGradient>
<radialGradient id="paint11_radial_149_46074" cx="0" cy="0" r="1" gradientUnits="userSpaceOnUse" gradientTransform="translate(28.6472 38.7479) scale(19.6396 19.6139)">
<stop stop-color="#5A6084"/>
<stop offset="1" stop-color="#323B63"/>
</radialGradient>
<radialGradient id="paint12_radial_149_46074" cx="0" cy="0" r="1" gradientUnits="userSpaceOnUse" gradientTransform="translate(44.2968 0.77957) scale(357.865 228.289)">
<stop stop-color="#676C94"/>
<stop offset="1" stop-color="#17233A"/>
</radialGradient>
<radialGradient id="paint13_radial_149_46074" cx="0" cy="0" r="1" gradientUnits="userSpaceOnUse" gradientTransform="translate(65.639 -39.5877) scale(109.071 69.5783)">
<stop stop-color="#8899C2"/>
<stop offset="1" stop-color="#727696"/>
</radialGradient>
<radialGradient id="paint14_radial_149_46074" cx="0" cy="0" r="1" gradientUnits="userSpaceOnUse" gradientTransform="translate(95.7276 -52.0637) scale(107.378 68.4986)">
<stop stop-color="#8899C2"/>
<stop offset="1" stop-color="#727696"/>
</radialGradient>
<radialGradient id="paint15_radial_149_46074" cx="0" cy="0" r="1" gradientUnits="userSpaceOnUse" gradientTransform="translate(158.635 -28.8506) scale(112.174 71.5576)">
<stop stop-color="#8899C2"/>
<stop offset="1" stop-color="#727696"/>
</radialGradient>
<radialGradient id="paint16_radial_149_46074" cx="0" cy="0" r="1" gradientUnits="userSpaceOnUse" gradientTransform="translate(204.331 -52.5441) scale(137.279 87.5726)">
<stop stop-color="#8899C2"/>
<stop offset="1" stop-color="#727696"/>
</radialGradient>
<radialGradient id="paint17_radial_149_46074" cx="0" cy="0" r="1" gradientUnits="userSpaceOnUse" gradientTransform="translate(208.467 5.51846) scale(142.638 90.9916)">
<stop stop-color="#4E5470"/>
<stop offset="1" stop-color="#252E4F"/>
</radialGradient>
<radialGradient id="paint18_radial_149_46074" cx="0" cy="0" r="1" gradientUnits="userSpaceOnUse" gradientTransform="translate(107.39 7.19717) scale(119.508 76.2362)">
<stop stop-color="#4E5470"/>
<stop offset="1" stop-color="#252E4F"/>
</radialGradient>
<radialGradient id="paint19_radial_149_46074" cx="0" cy="0" r="1" gradientUnits="userSpaceOnUse" gradientTransform="translate(57.2714 17.3347) scale(116.405 74.2568)">
<stop stop-color="#4E5470"/>
<stop offset="1" stop-color="#252E4F"/>
</radialGradient>
<radialGradient id="paint20_radial_149_46074" cx="0" cy="0" r="1" gradientUnits="userSpaceOnUse" gradientTransform="translate(47.214 16.9746) scale(122.517 78.1556)">
<stop stop-color="#4E5B7D"/>
<stop offset="1" stop-color="#313556"/>
</radialGradient>
<radialGradient id="paint21_radial_149_46074" cx="0" cy="0" r="1" gradientUnits="userSpaceOnUse" gradientTransform="translate(119.141 41.9272) scale(231.775 147.854)">
<stop stop-color="#4E5B7D"/>
<stop offset="1" stop-color="#313556"/>
</radialGradient>
<radialGradient id="paint22_radial_149_46074" cx="0" cy="0" r="1" gradientUnits="userSpaceOnUse" gradientTransform="translate(88.0201 -19.1336) scale(279.071 178.024)">
<stop stop-color="#4E5B7D"/>
<stop offset="1" stop-color="#313556"/>
</radialGradient>
<radialGradient id="paint23_radial_149_46074" cx="0" cy="0" r="1" gradientUnits="userSpaceOnUse" gradientTransform="translate(135.596 26.6313) scale(293.645 187.321)">
<stop stop-color="#4E5B7D"/>
<stop offset="1" stop-color="#313556"/>
</radialGradient>
<radialGradient id="paint24_radial_149_46074" cx="0" cy="0" r="1" gradientUnits="userSpaceOnUse" gradientTransform="translate(225.395 12.2958) scale(142.826 91.1115)">
<stop stop-color="#1A1F3A"/>
<stop offset="1" stop-color="#647394"/>
</radialGradient>
<linearGradient id="paint25_linear_149_46074" x1="99.948" y1="0" x2="99.948" y2="20.8135" gradientUnits="userSpaceOnUse">
<stop stop-color="#A0DBF0"/>
<stop offset="1" stop-color="#00FFEA"/>
</linearGradient>
<radialGradient id="paint26_radial_149_46074" cx="0" cy="0" r="1" gradientUnits="userSpaceOnUse" gradientTransform="translate(36.3972 -39.2879) scale(352.317 224.75)">
<stop stop-color="#7C8FB2"/>
<stop offset="1" stop-color="#515682"/>
</radialGradient>
<radialGradient id="paint27_radial_149_46074" cx="0" cy="0" r="1" gradientUnits="userSpaceOnUse" gradientTransform="translate(278.328 39.8272) scale(28.302 18.0544)">
<stop stop-color="#5A6084"/>
<stop offset="1" stop-color="#323B63"/>
</radialGradient>
<radialGradient id="paint28_radial_149_46074" cx="0" cy="0" r="1" gradientUnits="userSpaceOnUse" gradientTransform="translate(45.8926 45.7659) scale(17.865 11.3964)">
<stop stop-color="#5A6084"/>
<stop offset="1" stop-color="#323B63"/>
</radialGradient>
<radialGradient id="paint29_radial_149_46074" cx="0" cy="0" r="1" gradientUnits="userSpaceOnUse" gradientTransform="translate(34.8039 38.7477) scale(30.7467 19.6139)">
<stop stop-color="#5A6084"/>
<stop offset="1" stop-color="#323B63"/>
</radialGradient>
<radialGradient id="paint30_radial_149_46074" cx="0" cy="0" r="1" gradientUnits="userSpaceOnUse" gradientTransform="translate(127.716 0.779753) scale(228.589 228.289)">
<stop stop-color="#676C94"/>
<stop offset="1" stop-color="#17233A"/>
</radialGradient>
<radialGradient id="paint31_radial_149_46074" cx="0" cy="0" r="1" gradientUnits="userSpaceOnUse" gradientTransform="translate(229.937 -52.5439) scale(87.6877 87.5726)">
<stop stop-color="#8899C2"/>
<stop offset="1" stop-color="#727696"/>
</radialGradient>
<radialGradient id="paint32_radial_149_46074" cx="0" cy="0" r="1" gradientUnits="userSpaceOnUse" gradientTransform="translate(276.546 -17.6944) scale(28.1081 28.0712)">
<stop stop-color="#8899C2"/>
<stop offset="1" stop-color="#727696"/>
</radialGradient>
<radialGradient id="paint33_radial_149_46074" cx="0" cy="0" r="1" gradientUnits="userSpaceOnUse" gradientTransform="translate(286.577 9.17749) scale(65.5256 65.4395)">
<stop stop-color="#5A6084"/>
<stop offset="1" stop-color="#323B63"/>
</radialGradient>
<radialGradient id="paint34_radial_149_46074" cx="0" cy="0" r="1" gradientUnits="userSpaceOnUse" gradientTransform="translate(267.654 17.9944) scale(61.3214 61.2409)">
<stop stop-color="#5A6084"/>
<stop offset="1" stop-color="#323B63"/>
</radialGradient>
<radialGradient id="paint35_radial_149_46074" cx="0" cy="0" r="1" gradientUnits="userSpaceOnUse" gradientTransform="translate(284.413 41.9868) scale(35.7958 35.7488)">
<stop stop-color="#5A6084"/>
<stop offset="1" stop-color="#323B63"/>
</radialGradient>
<radialGradient id="paint36_radial_149_46074" cx="0" cy="0" r="1" gradientUnits="userSpaceOnUse" gradientTransform="translate(232.581 5.51865) scale(91.1111 90.9916)">
<stop stop-color="#4E5470"/>
<stop offset="1" stop-color="#252E4F"/>
</radialGradient>
<radialGradient id="paint37_radial_149_46074" cx="0" cy="0" r="1" gradientUnits="userSpaceOnUse" gradientTransform="translate(186.035 26.6314) scale(187.568 187.321)">
<stop stop-color="#4E5B7D"/>
<stop offset="1" stop-color="#313556"/>
</radialGradient>
<radialGradient id="paint38_radial_149_46074" cx="0" cy="0" r="1" gradientUnits="userSpaceOnUse" gradientTransform="translate(243.392 12.296) scale(91.2312 91.1115)">
<stop stop-color="#1A1F3A"/>
<stop offset="1" stop-color="#647394"/>
</radialGradient>
<linearGradient id="paint39_linear_149_46074" x1="163.26" y1="0.000183105" x2="163.26" y2="20.8137" gradientUnits="userSpaceOnUse">
<stop stop-color="#A0DBF0"/>
<stop offset="1" stop-color="#00FFEA"/>
</linearGradient>
<radialGradient id="paint40_radial_149_46074" cx="0" cy="0" r="1" gradientUnits="userSpaceOnUse" gradientTransform="translate(122.672 -39.2877) scale(225.045 224.75)">
<stop stop-color="#7C8FB2"/>
<stop offset="1" stop-color="#515682"/>
</radialGradient>
<radialGradient id="paint41_radial_149_46074" cx="0" cy="0" r="1" gradientUnits="userSpaceOnUse" gradientTransform="translate(277.209 39.8274) scale(18.0781 18.0544)">
<stop stop-color="#5A6084"/>
<stop offset="1" stop-color="#323B63"/>
</radialGradient>
<clipPath id="clip0_149_46074">
<rect width="17.7778" height="64" fill="white"/>
</clipPath>
<clipPath id="clip1_149_46074">
<rect width="257.444" height="64" fill="white" transform="translate(17.7773)"/>
</clipPath>
<clipPath id="clip2_149_46074">
<rect width="17.7778" height="64" fill="white" transform="translate(275.223)"/>
</clipPath>
</defs>
</svg>
