<svg width="38" height="71" viewBox="0 0 38 71" fill="none" xmlns="http://www.w3.org/2000/svg">
<path d="M21.5443 2.03278L20.8125 6.27236C20.8125 6.27236 18.2195 7.13141 18.132 5.3099C18.0445 3.48839 21.5443 2.03278 21.5443 2.03278Z" fill="#D37878"/>
<path d="M36.8893 43.5774C37.5734 48.2625 37.8597 53.544 37.7961 57.4257C37.7961 57.4257 37.7961 57.4496 37.7961 57.4575C37.7563 59.6767 37.5973 61.4426 37.3348 62.3653C36.0462 66.9071 28.9272 68.9195 22.182 69.9058C15.4369 70.8921 8.03948 71.0115 5.49414 67.0264C5.11234 66.4298 4.65895 65.3799 4.17375 64.0197C1.42955 56.3598 -2.18961 38.8845 1.70795 37.238C3.79194 36.355 5.63732 34.4699 6.735 32.5688C8.06335 30.2939 8.33379 28.0111 6.69523 27.4304C4.90553 26.7941 3.54536 25.5692 3.10788 23.8988C3.06016 23.7476 3.02834 23.5806 3.00448 23.4215C2.8454 22.4113 3.02039 21.2659 3.60104 20.0092L14.546 17.8218L25.658 16.7718C26.8512 18.132 27.3284 19.5081 27.2409 20.7887C27.2409 20.7887 27.2409 20.7887 27.2409 20.8046C27.1455 22.3557 26.2307 23.7556 24.8228 24.7817C24.099 25.3146 23.9956 26.1339 24.3297 27.0645C24.3297 27.0645 24.3297 27.0805 24.3456 27.1043C24.8387 28.4009 26.183 29.8724 27.8931 31.0019C29.2613 31.9007 30.8521 32.5688 32.4191 32.7438C34.5826 32.9825 36.0462 37.8266 36.8973 43.5774H36.8893Z" fill="url(#paint0_linear_274_12027)"/>
<path d="M32.8341 45.2158C33.6375 51.4599 33.8761 58.9607 33.2398 61.1878C33.1523 61.4981 32.1103 64.1468 21.563 65.6899C11.0158 67.233 9.24197 64.9899 9.07493 64.7275C7.85794 62.8105 5.9728 55.771 4.9308 49.6304C4.29446 45.8283 3.98425 42.3682 4.35014 40.6819C6.75231 39.4013 8.91585 37.2696 10.4112 34.7004C12.0418 31.9164 12.4952 29.1484 11.6839 26.9371C11.0714 25.2747 9.2897 23.0316 7.61932 22.4271L15.1678 22.0294L22.4618 21.051C20.8949 22.2123 19.8449 24.3043 19.8926 26.253C19.9881 30.5403 24.2515 33.6743 25.556 34.5413C26.7889 35.3526 28.6422 36.339 30.8615 36.7923C31.6728 38.2559 32.3489 41.5171 32.8341 45.1999V45.2158Z" fill="url(#paint1_linear_274_12027)"/>
<path d="M3.58442 20.009C2.22425 24.5508 29.3003 22.8009 26.0948 17.3364C23.0165 12.0787 5.37411 14.0274 3.58442 20.009Z" fill="url(#paint2_linear_274_12027)"/>
<path d="M9.7656 19.1745C9.15313 21.2187 21.3628 20.4313 19.9152 17.9655C18.5232 15.5951 10.569 16.478 9.7656 19.1745Z" fill="url(#paint3_linear_274_12027)"/>
<g style="mix-blend-mode:multiply" opacity="0.8">
<path d="M4.68909 25.4973C4.68909 25.4973 5.68336 29.021 14.8386 28.9017C23.9939 28.7824 25.2904 23.6997 25.2904 23.6997C25.2904 23.6997 23.453 26.2132 14.3375 27.3427C6.82081 28.2733 4.68909 25.4973 4.68909 25.4973Z" fill="#C2B6C4"/>
</g>
<path d="M32.8308 45.2168C33.6342 51.4608 33.8728 58.9616 33.2365 61.1888C33.149 61.499 32.107 64.1478 21.5597 65.6909C11.0125 67.234 9.2387 64.9909 9.07166 64.7284C7.85467 62.8115 5.96953 55.772 4.92753 49.6314L4.91162 49.4484L32.8308 45.2088V45.2168Z" fill="url(#paint4_linear_274_12027)"/>
<path d="M4.90493 49.4483C1.54827 41.5975 30.5095 39.7203 32.6571 44.0235C35.799 50.3073 8.40478 57.6411 4.90493 49.4483Z" fill="url(#paint5_linear_274_12027)"/>
<g style="mix-blend-mode:soft-light">
<path d="M10.7133 68.4424C8.60541 67.0982 15.4858 67.1379 22.4616 65.9448C29.4454 64.7437 33.1202 63.5824 34.1861 64.0597C35.252 64.529 30.8056 67.9015 22.7559 69.5321C14.7063 71.1628 10.928 68.5856 10.7053 68.4424H10.7133Z" fill="white"/>
</g>
<g style="mix-blend-mode:soft-light" opacity="0.3">
<path d="M26.0306 31.8455C24.0103 32.2193 30.5327 36.1089 31.3838 36.8328C32.2349 37.5566 33.4042 44.1108 34.8439 44.6835C36.2836 45.2563 35.3609 38.2566 34.828 35.9896C34.295 33.7227 29.3634 31.2251 26.0306 31.8455Z" fill="white"/>
</g>
<g style="mix-blend-mode:soft-light" opacity="0.3">
<path d="M2.23131 41.1593C0.680247 39.815 0.202996 48.7158 2.33472 53.9735C4.46644 59.2312 5.5164 58.8733 5.66753 58.6108C5.81866 58.3483 3.24945 42.0422 2.23131 41.1593Z" fill="white"/>
</g>
<g style="mix-blend-mode:color-burn" opacity="0.36">
<path d="M12.5521 46.8544C5.55238 48.5805 11.0408 51.2531 18.2552 50.3065C25.4697 49.36 27.6969 47.3316 28.3332 46.6714C28.9695 46.0112 24.4675 43.9273 12.56 46.8544H12.5521Z" fill="#CF7BAE"/>
</g>
<g style="mix-blend-mode:soft-light" opacity="0.3">
<path d="M17.9659 26.6033C15.7626 26.3806 16.3273 23.5011 19.7635 22.2046C23.2077 20.9001 25.2758 20.3911 25.8882 20.4229C26.5007 20.4547 26.1826 22.9125 23.1441 24.8693C20.1056 26.826 17.9579 26.5953 17.9579 26.5953L17.9659 26.6033Z" fill="white"/>
</g>
<path d="M19.526 21.4964C18.6113 22.2521 21.0532 22.8566 22.6441 22.1169C24.2349 21.3771 24.5213 20.6056 24.4735 20.367C24.4258 20.1283 21.1646 20.1522 19.526 21.5044V21.4964Z" fill="#FEFFEB"/>
<path d="M25.5412 34.557C23.9185 34.9388 26.6309 38.908 29.3671 38.6296C32.1034 38.3512 29.1206 33.7139 25.5412 34.557Z" fill="#FEFFEB"/>
<g style="mix-blend-mode:color-burn" opacity="0.36">
<path d="M5.31442 52.2637C5.43373 50.3467 10.7074 54.5227 15.9492 56.8771C21.183 59.2236 20.9046 55.5965 24.0386 53.9818C27.1725 52.3671 27.3078 57.4419 23.6011 60.4327C19.8945 63.4234 18.94 65.7381 18.2161 62.6519C17.4923 59.5656 18.9399 60.6395 19.1309 61.4985C19.3218 62.3576 21.2228 61.3315 21.3342 59.3429C21.4455 57.3544 16.0844 57.8714 15.5594 58.8975C15.0265 59.9236 13.6663 63.1291 14.1515 65.0461C14.6367 66.963 25.8999 65.6029 28.827 63.3359C31.7542 61.069 29.5111 56.8453 30.386 54.4113C31.261 51.9694 32.4859 55.8033 32.7246 53.2182C32.9632 50.6331 32.9711 46.4253 32.9711 46.4253C32.9711 46.4253 29.4395 50.6729 21.2149 52.0171C12.9823 53.3614 4.93262 49.6388 4.93262 49.6388L5.31442 52.2637Z" fill="#CF7BAE"/>
</g>
<path d="M23.9862 51.4764C23.9862 51.4764 24.5191 50.2913 27.0804 49.0743C29.6416 47.8652 31.2007 47.8811 31.2007 47.8811C31.2007 47.8811 28.2337 50.7447 23.9862 51.4764Z" fill="#FEFFEB"/>
<path d="M29.2625 9.14392C26.741 11.2836 20.3299 15.4755 18.4368 19.6435C18.4368 19.6435 17.4903 19.9139 16.2733 20.1287H16.2494C14.8495 20.3752 13.0916 20.5502 11.9462 20.1923C11.9462 20.1923 11.5246 16.3266 11.1826 10.2973C10.8406 4.27595 12.3439 1.69879 13.028 0.696564C13.6882 -0.289755 16.1062 -0.226122 19.7811 0.871557C19.8527 0.895419 19.9402 0.919282 20.0197 0.943144C23.8377 2.10446 19.3675 2.7567 19.4947 4.72934C19.622 6.70198 27.7671 7.3065 30.0022 7.70421C30.1374 7.72807 30.217 7.7758 30.2568 7.83148C30.4158 8.05419 30.0102 8.50758 29.2625 9.14392Z" fill="url(#paint6_linear_274_12027)"/>
<g style="mix-blend-mode:multiply" opacity="0.2">
<path d="M15.1058 20.3037C15.1058 20.3037 17.9057 7.04408 18.1284 5.31006C18.3511 3.57605 18.3511 3.61582 19.4011 2.34315C20.459 1.07843 16.0285 -0.0033352 14.032 0.0921151C12.0355 0.179611 11.0492 3.40106 11.1287 8.61901C11.2162 13.837 13.3718 20.3435 13.3718 20.3435L15.0979 20.3037H15.1058Z" fill="#C15697"/>
</g>
<g style="mix-blend-mode:multiply" opacity="0.3">
<path d="M15.1 20.3039C15.1 20.3039 17.1681 7.99877 17.6215 5.84319C18.0749 3.67965 13.1831 9.22372 12.2922 11.602C11.4013 13.9803 13.366 20.3437 13.366 20.3437L15.0921 20.3039H15.1Z" fill="#991E5F"/>
</g>
<g style="mix-blend-mode:multiply" opacity="0.3">
<path d="M29.2587 9.1441C26.7372 11.2838 20.3261 15.4756 18.433 19.6436C17.1683 20.0016 16.3967 20.0573 16.2695 20.1288L16.2456 20.1368C16.3251 19.8266 18.0114 12.628 20.4295 11.1167C22.9112 9.57363 28.161 10.035 29.2587 9.15206V9.1441Z" fill="#991E5F"/>
</g>
<path d="M30.2654 7.83137C30.1858 8.06204 29.7324 8.95291 27.728 9.00859C25.4292 9.07223 18.3738 9.04836 17.6262 7.15527C16.8705 5.25421 19.0977 2.77251 19.6386 2.31912C20.1794 1.86573 19.2568 0.720324 19.7817 0.871454C19.8533 0.895316 19.9408 0.919179 20.0204 0.943041C23.8384 2.10435 19.3681 2.7566 19.4954 4.72924C19.6227 6.70188 27.7677 7.30639 30.0029 7.7041C30.1381 7.72797 30.2176 7.77569 30.2574 7.83137H30.2654Z" fill="#F7F7F7"/>
<path d="M23.5206 48.2549C22.4467 49.1378 21.8263 49.5116 20.5377 49.4082C19.2571 49.3128 13.4983 51.3252 12.1142 47.5788C11.0643 44.7391 11.295 36.1407 11.6211 31.1613C11.7245 29.5864 11.8358 28.3774 11.9313 27.8206C15.9959 27.9956 19.4798 26.7149 19.4798 26.7149C19.4639 27.1683 19.623 28.1308 19.8855 29.4114C21.0627 35.21 24.4035 47.539 23.5206 48.2549Z" fill="url(#paint7_linear_274_12027)"/>
<g style="mix-blend-mode:multiply" opacity="0.3">
<path d="M19.885 29.4035L19.9009 29.491C19.9009 29.491 14.3886 28.1865 14.5557 35.1067C14.8818 49.0742 20.3781 48.8993 18.0953 49.1458C15.8045 49.3845 15.1681 49.122 14.6909 44.6517C14.2136 40.1735 13.4182 27.2957 11.6365 31.1535C11.7399 29.5785 11.8512 28.3774 11.9467 27.8127C16.0113 27.9877 19.4952 26.7071 19.4952 26.7071L19.9009 29.4035H19.885Z" fill="#991E5F"/>
</g>
<g style="mix-blend-mode:soft-light" opacity="0.8">
<path d="M15.6382 30.8351C15.1928 31.5113 14.2462 36.2122 15.0098 41.0801C15.7734 45.9481 17.9767 48.3503 19.0187 48.3264C20.0607 48.3105 20.7766 40.0541 19.8062 34.5736C18.8358 29.1011 17.1575 28.5205 15.6382 30.8351Z" fill="#FEFFEB"/>
</g>
<g style="mix-blend-mode:multiply" opacity="0.3">
<path d="M19.8809 29.403C19.8809 29.403 20.549 36.5698 21.2569 41.8036C21.9649 47.0454 22.1796 48.6999 22.7364 48.851C23.2932 48.9942 23.842 48.2068 23.842 48.2068C23.842 48.2068 20.907 33.0858 19.8888 29.403H19.8809Z" fill="#991E5F"/>
</g>
<g style="mix-blend-mode:multiply">
<path d="M0.164453 46.0514C0.164453 46.0514 0.291719 40.6346 1.37349 38.7574C2.45526 36.8802 3.60066 36.5939 4.79379 35.4723C5.97897 34.3428 6.45622 33.0224 6.45622 33.0224C6.45622 33.0224 5.11991 35.1701 3.64044 36.1007C2.16096 37.0313 1.75529 37.0473 0.97578 37.8268C0.196269 38.6063 -0.265073 41.2073 0.164453 46.0514Z" fill="#C2B6C4"/>
</g>
<path d="M2.0406 38.9485C0.911107 42.0348 3.61553 39.9667 4.14846 38.9485C4.6814 37.9304 2.47808 37.7554 2.0406 38.9485Z" fill="#FEFFEB"/>
<path d="M3.18696 21.0911C3.18696 21.0911 2.82902 20.0412 4.5869 18.0128C6.35273 15.9766 11.1889 15.0221 11.1889 15.0221C11.1889 15.0221 4.31645 16.7163 3.18696 21.0911Z" fill="#FEFFEB"/>
<g style="mix-blend-mode:multiply">
<path d="M36.8906 43.5773C36.8269 43.2909 35.3793 36.7844 33.9714 34.5731C32.5396 32.3142 29.517 32.7914 27.4887 31.638C25.5956 30.5483 24.4741 27.478 24.3389 27.1042C24.832 28.4007 26.1763 29.8722 27.8864 31.0017C29.2546 31.9005 30.8454 32.5687 32.4124 32.7437C34.5759 32.9823 36.0395 37.8264 36.8906 43.5773Z" fill="#C2B6C4"/>
</g>
<g style="mix-blend-mode:multiply" opacity="0.5">
<path d="M8.08508 62.5087C8.08508 62.5087 9.32594 67.3528 21.2811 65.6665C33.1965 63.9802 33.5226 59.1679 33.5226 59.1679C33.5226 59.1679 33.6339 60.4167 32.9499 61.6894C32.2658 62.9621 27.6763 64.9984 21.3368 65.929C14.9973 66.8596 10.2645 65.7779 9.58842 65.5154C8.91232 65.2529 8.09304 62.5007 8.09304 62.5007L8.08508 62.5087Z" fill="#AE257A"/>
</g>
<path d="M17.8324 49.7661C18.8903 49.599 18.7471 49.1616 19.9482 48.907C21.1493 48.6445 23.8776 48.8832 23.8776 48.8832C23.8776 48.8832 22.422 49.6865 21.6425 49.7184C20.8629 49.7502 18.8585 49.615 17.8324 49.774V49.7661Z" fill="#FEFFEB"/>
<path d="M13.8529 49.44C13.9722 49.5593 14.4017 49.5037 14.6722 49.5832C14.9426 49.6548 15.0938 49.79 15.0938 49.79C15.0938 49.79 14.1074 49.8377 13.8529 49.448V49.44Z" fill="#FEFFEB"/>
<path d="M11.9215 46.9262C11.8022 47.2046 11.0306 47.3558 11.2215 47.7773C11.4124 48.1989 12.693 48.5807 12.693 48.5807C12.693 48.5807 12.168 47.7296 11.9294 46.9262H11.9215Z" fill="#FEFFEB"/>
<g style="mix-blend-mode:multiply" opacity="0.5">
<path d="M18.4343 19.6431C18.4343 19.6431 19.7388 19.2136 20.1126 18.617C20.4785 18.0205 25.0204 16.9626 25.4181 16.9387C25.8158 16.9148 24.0102 15.141 22.2364 14.8627C22.2364 14.8627 19.5877 13.4548 18.307 14.8308C17.0264 16.2069 16.2708 20.1204 16.2708 20.1204L18.4343 19.6352V19.6431Z" fill="#991E5F"/>
</g>
<g style="mix-blend-mode:multiply" opacity="0.5">
<path d="M27.8918 31.0021C27.8918 31.0021 17.4003 41.0482 7.48137 30.9862C7.81545 29.4828 8.32452 28.0193 6.69391 27.4386C4.90422 26.8023 3.54405 25.5773 3.10657 23.907C3.86222 25.9591 8.71427 28.2181 16.1037 27.0966C23.8272 25.9114 27.0566 21.0832 27.2396 20.8128C27.1441 22.3638 26.2294 23.7638 24.8215 24.7899C23.0636 26.0705 24.9488 29.0692 27.8918 31.0101V31.0021Z" fill="#876D89"/>
</g>
<path d="M27.4702 67.9734C25.0283 68.3314 27.168 65.5792 29.5781 64.7281C31.9882 63.877 33.4915 65.1497 33.3802 65.6428C33.2688 66.128 29.9996 67.6075 27.4702 67.9814V67.9734Z" fill="#FEFFEB"/>
<g style="mix-blend-mode:multiply">
<path d="M37.7952 57.4492C37.7554 59.6684 37.5964 61.4343 37.3339 62.3569C36.0453 66.8988 28.9263 68.9112 22.1811 69.8975C15.436 70.8838 8.03859 71.0032 5.49325 67.0181C5.11145 66.4215 4.65806 65.3716 4.17285 64.0114C4.17285 64.0114 7.52157 72.0372 22.2925 69.6112C39.4417 66.7874 37.7475 57.9742 37.8032 57.4413L37.7952 57.4492Z" fill="#7A5E7E"/>
</g>
<defs>
<linearGradient id="paint0_linear_274_12027" x1="22.1745" y1="69.8978" x2="14.5403" y2="17.8215" gradientUnits="userSpaceOnUse">
<stop stop-color="#E1E1E1"/>
<stop offset="0.31" stop-color="#B3B3B3"/>
<stop offset="0.61" stop-color="#8D8D8D"/>
<stop offset="0.85" stop-color="#767676"/>
<stop offset="0.99" stop-color="#6E6E6E"/>
</linearGradient>
<linearGradient id="paint1_linear_274_12027" x1="21.5587" y1="65.6871" x2="15.0586" y2="21.3471" gradientUnits="userSpaceOnUse">
<stop stop-color="#A79AA5"/>
<stop offset="0.22" stop-color="#A296A1"/>
<stop offset="0.47" stop-color="#958A97"/>
<stop offset="0.73" stop-color="#7E7786"/>
<stop offset="0.99" stop-color="#615E70"/>
</linearGradient>
<linearGradient id="paint2_linear_274_12027" x1="3.94766" y1="21.8502" x2="25.6305" y2="15.496" gradientUnits="userSpaceOnUse">
<stop stop-color="#ACACAC"/>
<stop offset="0.33" stop-color="#AFAFAF"/>
<stop offset="0.7" stop-color="#BBBBBB"/>
<stop offset="0.99" stop-color="#CACACA"/>
</linearGradient>
<linearGradient id="paint3_linear_274_12027" x1="9.93175" y1="20.001" x2="19.7135" y2="17.136" gradientUnits="userSpaceOnUse">
<stop stop-color="#735F71"/>
<stop offset="0.54" stop-color="#716371"/>
<stop offset="0.99" stop-color="#6E6E6E"/>
</linearGradient>
<linearGradient id="paint4_linear_274_12027" x1="21.5554" y1="65.6881" x2="18.8545" y2="47.2642" gradientUnits="userSpaceOnUse">
<stop stop-color="#F9BD00"/>
<stop offset="0.16" stop-color="#F8B800"/>
<stop offset="0.35" stop-color="#F5AB00"/>
<stop offset="0.54" stop-color="#F19400"/>
<stop offset="0.73" stop-color="#EB7500"/>
<stop offset="0.93" stop-color="#E54E00"/>
<stop offset="0.99" stop-color="#E24100"/>
</linearGradient>
<linearGradient id="paint5_linear_274_12027" x1="4.77509" y1="49.3202" x2="32.9578" y2="45.1887" gradientUnits="userSpaceOnUse">
<stop stop-color="#F9BD00"/>
<stop offset="0.99" stop-color="#F9BE00"/>
</linearGradient>
<linearGradient id="paint6_linear_274_12027" x1="21.8982" y1="19.3077" x2="18.9746" y2="-0.635038" gradientUnits="userSpaceOnUse">
<stop stop-color="#EF988D"/>
<stop offset="1" stop-color="#FEE4CD"/>
</linearGradient>
<linearGradient id="paint7_linear_274_12027" x1="18.1943" y1="49.8614" x2="14.8981" y2="27.3766" gradientUnits="userSpaceOnUse">
<stop stop-color="#F8C4BA"/>
<stop offset="1" stop-color="#956565"/>
</linearGradient>
</defs>
</svg>
