<svg width="254" height="104" viewBox="0 0 254 104" fill="none" xmlns="http://www.w3.org/2000/svg">
<g clip-path="url(#clip0_1701_117606)">
<path d="M10.4969 1.70163C18.5314 -0.899421 61.9421 -0.612962 69.2984 1.8735C76.8161 4.40581 79.0852 7.59123 79.4082 20.4934C79.7312 33.3955 79.5697 76.6279 79.4082 84.7748C79.2467 92.9217 73.3439 102.203 66.8032 103.108C60.2626 104.013 14.1629 103.784 10.4969 102.203C6.83091 100.622 0.290231 95.1905 -0.194264 82.0592C-0.670683 68.9279 -0.832181 25.6955 0.443654 18.9121C1.71949 12.1287 1.40457 4.65789 10.4888 1.71309L10.4969 1.70163Z" fill="url(#paint0_linear_1701_117606)"/>
<path d="M46.3269 96.9199C27.6981 96.9199 13.9788 96.3011 11.7663 95.7282C10.0302 94.9376 4.9026 91.7751 4.53923 81.7146C3.98206 66.3718 4.04666 25.878 5.02372 20.6415C5.23367 19.5071 5.40324 18.4186 5.56474 17.3644C6.39646 11.8758 6.71138 9.82479 11.5563 8.255C15.9087 6.84562 34.1418 5.12686 49.2258 5.12686C64.3097 5.12686 67.257 6.8227 67.3701 6.89145C73.507 10.9477 74.4518 11.5665 74.6779 20.7217C74.9847 33.2572 74.8394 76.3521 74.6779 84.5792C74.5891 89.2542 70.5354 95.8313 66.3526 96.4157C64.1724 96.7136 56.3075 96.9084 46.3349 96.9084L46.3269 96.9199Z" fill="url(#paint1_linear_1701_117606)"/>
<mask id="mask0_1701_117606" style="mask-type:luminance" maskUnits="userSpaceOnUse" x="-1" y="-1" width="81" height="105">
<path d="M10.4972 1.70035C18.5317 -0.900699 61.7244 -0.614239 69.1129 1.66598C76.1785 3.84307 79.0854 7.58995 79.4004 20.4921C79.7234 33.3942 79.5619 76.6266 79.4004 84.7736C79.2389 92.9204 73.3361 102.202 66.7954 103.107C60.2548 104.012 14.1551 103.783 10.4891 102.202C6.82309 100.62 0.282418 95.1892 -0.202076 82.0579C-0.678496 68.9266 -0.839994 25.6942 0.435842 18.9108C1.71168 12.1275 1.39676 4.65661 10.481 1.71181L10.4972 1.70035Z" fill="white"/>
</mask>
<g mask="url(#mask0_1701_117606)">
<path opacity="0.5" d="M29.7312 83.8241C41.2783 86.6887 54.5938 89.8283 64.6632 104.472C65.8987 106.271 67.8528 108.792 66.2701 111.359C64.6471 113.994 62.4588 111.645 60.9003 110.27C46.2363 97.3908 30.4741 92.4064 13.4926 97.345C8.27617 98.8575 3.28588 101.963 -1.81747 104.3C-2.84298 104.77 -4.09459 105.962 -4.86978 104.094C-5.6369 102.238 -4.40951 101.012 -3.52127 100.221C6.12017 91.6158 16.0442 84.0189 29.7393 83.8241H29.7312Z" fill="#7A401C"/>
<path opacity="0.25" d="M16.7632 23.3678C11.5306 20.1251 6.11236 17.4668 0.726398 14.7626C-0.113392 14.3386 -1.21158 14.9689 -2.19672 15.1064C-1.50228 16.2178 -0.937033 17.6043 -0.0891676 18.3949C2.80165 21.122 5.63594 24.1355 8.76901 26.1637C16.0203 30.8616 16.0606 35.9033 9.62495 41.8731C4.78 45.0012 -0.0730176 48.1065 -4.90181 51.2919C-5.35401 51.5898 -5.63663 52.3919 -6 52.9648C-5.6124 53.1138 -5.16021 53.5377 -4.86144 53.3773C0.411477 50.5242 5.66824 47.6138 10.925 44.7033C11.2399 44.5773 11.5548 44.3825 11.8617 44.1877C15.6973 41.8273 19.6378 39.57 20.2758 32.6033C20.6633 28.3981 19.2987 24.9376 16.7632 23.3678Z" fill="#7A401C"/>
<path opacity="0.25" d="M49.2085 23.3445C49.0793 23.2299 48.942 23.1268 48.8048 23.0466C38.2266 15.2205 28.2864 5.458 16.3921 1.63091C16.0287 1.28715 15.625 1.11528 15.2697 1.19549C9.68991 -0.958686 3.9648 -0.958686 -1.76839 -0.64931C-2.26903 -0.626394 -2.75352 0.164234 -3.24609 0.599652C-2.67278 0.897569 -2.11561 1.37882 -1.52614 1.47049C4.06977 2.34132 9.67376 3.14341 15.2697 3.96841C26.0658 8.72364 35.4812 17.3747 45.1872 25.2008C45.8574 25.8997 46.568 26.5299 47.1898 27.3091C50.3067 31.205 55.7007 34.8487 54.7721 40.4633C53.8516 46.0779 47.9569 45.6998 43.9194 46.6509C31.0965 49.6759 13.8566 55.0842 -0.549075 60.5957C-1.60689 60.9967 -2.89887 70.4499 -2.77775 70.7593C-2.00256 72.7072 6.47609 66.6113 7.72771 66.0155C20.8414 59.7592 34.1892 56.0811 47.5935 51.853C53.1248 50.1113 60.6587 49.9967 61.1351 39.5581C61.5873 29.5664 54.5945 26.7477 49.1843 23.3445H49.2085Z" fill="#7A401C"/>
<path opacity="0.25" d="M85.0916 69.5225C80.707 61.4787 74.5054 59.5881 67.8517 60.3444C61.6582 61.0433 55.5213 62.9683 49.3279 63.461C34.7123 64.6413 20.0967 65.4319 6.24823 73.2465C3.24436 74.3694 0.232421 75.435 -2.74722 76.6611C-3.39321 76.9246 -3.92616 77.7611 -4.51562 78.334C-3.87771 78.6549 -3.18327 79.3653 -2.60187 79.2278C0.603867 78.4715 3.80153 77.5778 6.99919 76.7069C7.49984 76.7528 8.03278 76.833 8.46883 76.3059C9.85771 75.9163 11.2385 75.5153 12.6274 75.16C35.5359 69.2934 58.2506 71.5621 80.8765 78.3111C82.5723 78.8153 84.4133 81.8861 85.9718 78.8267C87.5464 75.7215 86.5936 72.2955 85.0997 69.534L85.0916 69.5225Z" fill="#7A401C"/>
</g>
<path d="M23.1836 96.5521L36.0308 96.4833L55.564 96.85L37.9365 98.7406L23.1836 96.5521Z" fill="#542909"/>
<path d="M-0.525128 60.5842L4.25522 59.6331L16.7309 54.4768L3.64152 57.2268L-0.533203 60.0342L-0.525128 60.5842Z" fill="#542909"/>
<path d="M16.7307 54.477L4.25495 59.6333L-0.525391 60.5844L4.65062 61.1L16.9487 54.4083L16.7307 54.477Z" fill="#EBB273"/>
<path d="M4.43271 78.334C4.43271 78.334 4.34388 96.4726 20.7844 96.4726C20.7844 96.4726 10.7554 98.0538 7.48502 94.6507C4.21468 91.2475 4.43271 78.334 4.43271 78.334Z" fill="#542909"/>
<path d="M23.1582 6.59364L35.9973 6.66239L55.7162 5.12697L37.9111 4.40509L23.1582 6.59364Z" fill="#EBB273"/>
<path d="M4.59422 26.2795C4.59422 26.2795 5.61974 13.9159 8.57515 10.9024C10.4243 9.02321 15.7053 7.06382 21.6404 6.61695C21.6404 6.61695 11.0219 6.26174 7.75151 9.66487C4.48117 13.068 4.59422 26.2681 4.59422 26.2681V26.2795Z" fill="#EBB273"/>
<path d="M16.666 44.3819L22.0116 41.5517L25.2335 44.3819H16.666Z" fill="#542909"/>
<path d="M22.0116 46.2263L16.666 44.3815H25.2335L22.0116 46.2263Z" fill="#EBB273"/>
<path opacity="0.48" d="M61.7241 13.1569C41.0524 10.1089 17.9904 14.1308 17.9904 14.1308C14.7766 14.1308 11.482 18.3819 11.0379 22.8392C8.51856 48.4143 10.4323 79.4436 10.4323 79.4436C10.4323 83.9352 15.0754 89.1602 18.2973 89.1602C18.2973 89.1602 43.6525 92.254 62.362 88.8394C65.5516 88.255 68.0225 84.6571 68.4747 80.1998C71.5432 49.7778 68.4747 23.5611 68.4747 23.5611C68.3213 17.7517 64.9299 13.6152 61.7322 13.1454L61.7241 13.1569Z" fill="url(#paint2_linear_1701_117606)"/>
<path d="M10.0195 38.3894C10.0195 38.3894 10.1084 23.1956 11.0612 20.0675C12.014 16.9393 12.9669 13.7768 17.9087 13.3528C23.1574 12.8945 31.9671 10.9122 40.9464 10.7174C49.9257 10.5226 62.6033 11.7601 64.7028 13.5476C66.8104 15.3351 69.0956 16.6987 69.2167 32.4425C69.2167 32.4425 68.3527 16.8018 64.2829 15.2206C60.2132 13.6393 49.0617 12.6424 49.0617 12.6424C49.0617 12.6424 54.1731 18.0966 55.7235 18.6581C55.7235 18.6581 48.2946 12.6424 45.2746 12.7456C42.2546 12.8487 31.3131 13.3414 31.3131 13.3414L33.9051 15.8279C33.9051 15.8279 30.6105 13.1351 27.6632 13.2383C24.7159 13.3414 15.8738 14.1435 14.4042 16.4237C12.9346 18.7154 11.3034 18.8414 10.8835 27.4123C10.8835 27.4123 12.4178 28.7873 13.1203 30.105C13.1203 30.105 11.8687 28.7758 10.9481 28.2831L10.0195 38.3779V38.3894Z" fill="#542909"/>
<path d="M9.94031 67.4824C9.94031 67.4824 10.7317 81.9543 13.1137 84.1429C15.4958 86.3314 16.0369 88.2335 21.6409 88.6117C27.2368 88.9898 33.7451 87.4314 34.2135 87.5919C34.6818 87.7523 44.2748 89.2762 45.2761 89.3794C46.2855 89.471 60.1662 89.0471 62.7825 87.5919C65.3988 86.1367 68.3057 83.3866 68.8064 76.6262C68.8064 76.6262 69.1536 84.4064 65.8671 87.4658C62.5806 90.5138 49.572 90.4565 49.572 90.4565C49.572 90.4565 51.3727 91.4648 55.1356 94.3065C55.1356 94.3065 51.1143 91.3502 45.2115 90.4565C39.3087 89.5627 28.7145 90.3992 25.5572 90.4565C22.408 90.5138 13.2187 90.4221 11.6764 85.0939C10.1341 79.7658 9.73844 75.9502 9.73844 75.9502L8.05078 76.6262C8.05078 76.6262 9.68191 76.0533 9.73844 72.4324C9.79496 68.8116 9.94031 67.4824 9.94031 67.4824Z" fill="#B57650"/>
</g>
<g clip-path="url(#clip1_1701_117606)">
<path d="M-73.6206 1.70074C-18.9858 -0.900306 276.207 -0.613847 326.229 1.87262C377.35 4.40492 392.779 7.59035 394.976 20.4925C397.172 33.3946 396.074 76.627 394.976 84.7739C393.878 92.9208 353.739 102.202 309.262 103.107C264.786 104.013 -48.6917 103.783 -73.6206 102.202C-98.5495 100.621 -143.026 95.1896 -146.321 82.0583C-149.56 68.927 -150.658 25.6946 -141.983 18.9112C-133.307 12.1279 -135.449 4.657 -73.6755 1.7122L-73.6206 1.70074Z" fill="url(#paint3_linear_1701_117606)"/>
<path d="M170.017 96.92C43.3406 96.92 -49.9505 96.3012 -64.9956 95.7283C-76.8011 94.9377 -111.669 91.7751 -114.14 81.7147C-117.928 66.3719 -117.489 25.8781 -110.845 20.6416C-109.417 19.5072 -108.264 18.4187 -107.166 17.3645C-101.51 11.8759 -99.3689 9.82489 -66.4233 8.25509C-36.8271 6.84571 87.1582 5.12695 189.729 5.12695C292.3 5.12695 312.342 6.82279 313.11 6.89154C354.841 10.9478 361.266 11.5666 362.803 20.7218C364.89 33.2573 363.901 76.3522 362.803 84.5793C362.199 89.2543 334.635 95.8314 306.192 96.4158C291.366 96.7137 237.884 96.9085 170.071 96.9085L170.017 96.92Z" fill="url(#paint4_linear_1701_117606)"/>
<mask id="mask1_1701_117606" style="mask-type:luminance" maskUnits="userSpaceOnUse" x="-149" y="-1" width="546" height="105">
<path d="M-73.6184 1.70044C-18.9836 -0.900607 274.727 -0.614147 324.969 1.66607C373.014 3.84316 392.782 7.59005 394.923 20.4922C397.12 33.3943 396.021 76.6267 394.923 84.7736C393.825 92.9205 353.686 102.202 309.21 103.107C264.733 104.012 -48.7445 103.783 -73.6733 102.202C-98.6022 100.621 -143.079 95.1893 -146.373 82.058C-149.613 68.9267 -150.711 25.6943 -142.035 18.9109C-133.36 12.1276 -135.501 4.6567 -73.7282 1.7119L-73.6184 1.70044Z" fill="white"/>
</mask>
<g mask="url(#mask1_1701_117606)">
<path opacity="0.5" d="M57.1733 83.8242C135.694 86.6888 226.239 89.8284 294.711 104.472C303.112 106.271 316.4 108.792 305.638 111.359C294.601 113.994 279.721 111.645 269.123 110.27C169.408 97.3909 62.2249 92.4065 -53.2495 97.3451C-88.7209 98.8576 -122.655 101.963 -157.358 104.3C-164.331 104.77 -172.842 105.962 -178.113 104.094C-183.33 102.238 -174.984 101.012 -168.943 100.221C-103.382 91.6159 -35.8981 84.019 57.2282 83.8242H57.1733Z" fill="#7A401C"/>
<path opacity="0.15" d="M453.404 37.6568C451.153 38.5047 449.725 39.662 446.156 40.1662C443.685 40.5214 436.602 40.2922 434.46 39.7881C391.466 29.7505 330.242 27.0005 273.96 22.4401C205.159 16.8713 148.492 7.49838 90.6726 -1.58811C84.3581 -2.58499 75.7922 -3.94853 80.7341 -5.89646C86.0054 -7.99334 96.1087 -6.95063 103.082 -6.28604C202.084 3.1442 301.58 12.3682 399.373 22.337C426.883 25.1443 445.003 30.7932 453.459 37.6339L453.404 37.6568Z" fill="#7A401C"/>
<path opacity="0.25" d="M189.619 23.3446C188.74 23.23 187.807 23.1269 186.874 23.0467C114.942 15.2206 47.3488 5.45809 -33.5327 1.631C-36.0036 1.28725 -38.7491 1.11537 -41.1651 1.19558C-79.1075 -0.958595 -118.038 -0.958595 -157.024 -0.649219C-160.428 -0.626302 -163.723 0.164325 -167.072 0.599743C-163.174 0.897661 -159.385 1.37891 -155.377 1.47058C-117.324 2.34142 -79.2173 3.1435 -41.1651 3.96851C32.2487 8.72373 96.2731 17.3748 162.274 25.2009C166.832 25.8998 171.664 26.53 175.892 27.3092C197.087 31.2051 233.766 34.8488 227.452 40.4634C221.192 46.078 181.108 45.6999 153.653 46.6509C66.4573 49.676 -50.7742 55.0843 -148.733 60.5958C-155.926 60.9968 -164.711 70.45 -163.888 70.7594C-158.616 72.7073 -100.961 66.6114 -92.4504 66.0156C-3.27762 59.7593 87.4876 56.0812 178.637 51.853C216.25 50.1114 267.48 49.9968 270.72 39.5582C273.795 29.5665 226.243 26.7477 189.454 23.3446H189.619Z" fill="#7A401C"/>
<path opacity="0.25" d="M433.63 69.5226C403.814 61.4788 361.644 59.5882 316.399 60.3445C274.283 61.0434 232.552 62.9684 190.436 63.4611C91.0505 64.6413 -8.33546 65.432 -102.505 73.2466C-122.931 74.3695 -143.413 75.4351 -163.674 76.6612C-168.067 76.9247 -171.691 77.7612 -175.699 78.3341C-171.361 78.6549 -166.639 79.3654 -162.686 79.2279C-140.887 78.4716 -119.143 77.5779 -97.3985 76.707C-93.9941 76.7529 -90.3701 76.8331 -87.405 76.306C-77.9605 75.9164 -68.571 75.5153 -59.1266 75.1601C96.6512 69.2934 251.111 71.5622 404.967 78.3112C416.498 78.8154 429.018 81.8862 439.615 78.8268C450.323 75.7216 443.843 72.2955 433.685 69.5341L433.63 69.5226Z" fill="#7A401C"/>
</g>
<path d="M12.6426 96.552L100.003 96.4832L232.829 96.8499L112.962 98.7405L12.6426 96.552Z" fill="#542909"/>
<path d="M12.4766 6.59391L99.7824 6.66266L233.871 5.12724L112.796 4.40536L12.4766 6.59391Z" fill="#EBB273"/>
<path d="M-31.6699 44.382L4.68007 41.5518L26.5889 44.382H-31.6699Z" fill="#542909"/>
<path d="M4.68007 46.2266L-31.6699 44.3818H26.5889L4.68007 46.2266Z" fill="#EBB273"/>
<path d="M60.3027 72.1927C60.3027 72.1927 161.501 69.9812 229.479 71.0927C297.456 72.2041 364.226 76.6385 364.226 76.6385C364.226 76.6385 294.107 74.5187 226.843 73.7166C159.579 72.9146 60.3577 72.2041 60.3577 72.2041L60.3027 72.1927Z" fill="#B57650"/>
<path opacity="0.48" d="M274.724 13.1569C134.156 10.1089 -22.6651 14.1308 -22.6651 14.1308C-44.5191 14.1308 -66.9221 18.3819 -69.9421 22.8392C-87.0738 48.4143 -74.0603 79.4436 -74.0603 79.4436C-74.0603 83.9352 -42.4874 89.1602 -20.5786 89.1602C-20.5786 89.1602 151.837 92.254 279.062 88.8394C300.751 88.255 317.553 84.6571 320.628 80.1998C341.494 49.7778 320.628 23.5611 320.628 23.5611C319.585 17.7517 296.523 13.6152 274.779 13.1454L274.724 13.1569Z" fill="url(#paint5_linear_1701_117606)"/>
<path d="M-76.8613 38.3894C-76.8613 38.3894 -76.2573 23.1956 -69.778 20.0675C-63.2987 16.9393 -56.8194 13.7768 -23.2149 13.3528C12.4762 12.8945 72.3823 10.9122 133.442 10.7174C194.501 10.5226 280.709 11.7601 294.985 13.5476C309.316 15.3351 324.856 16.6987 325.679 32.4425C325.679 32.4425 319.804 16.8018 292.13 15.2206C264.455 13.6393 188.625 12.6424 188.625 12.6424C188.625 12.6424 223.383 18.0966 233.926 18.6581C233.926 18.6581 183.409 12.6424 162.873 12.7456C142.337 12.8487 67.9347 13.3414 67.9347 13.3414L85.5606 15.8279C85.5606 15.8279 63.1576 13.1351 43.1156 13.2383C23.0737 13.3414 -37.052 14.1435 -47.0455 16.4237C-57.039 18.7154 -68.1307 18.8414 -70.986 27.4123C-70.986 27.4123 -60.5532 28.7873 -55.7761 30.105C-55.7761 30.105 -64.2871 28.7758 -70.5468 28.2831L-76.8613 38.3779V38.3894Z" fill="#542909"/>
<path d="M-77.4051 67.4824C-77.4051 67.4824 -72.024 81.9543 -55.8257 84.1429C-39.6275 86.3314 -35.9485 88.2335 2.15856 88.6117C40.2108 88.9898 84.4677 87.4314 87.6525 87.5919C90.8372 87.7523 156.07 89.2762 162.878 89.3794C169.742 89.471 264.131 89.0471 281.922 87.5919C299.712 86.1367 319.48 83.3866 322.884 76.6262C322.884 76.6262 325.245 84.4064 302.897 87.4658C280.549 90.5138 192.09 90.4565 192.09 90.4565C192.09 90.4565 204.335 91.4648 229.923 94.3065C229.923 94.3065 202.578 91.3502 162.439 90.4565C122.3 89.5627 50.2592 90.3992 28.7896 90.4565C7.37496 90.5138 -55.1119 90.4221 -65.5996 85.0939C-76.0873 79.7658 -78.7778 75.9502 -78.7778 75.9502L-90.2539 76.6262C-90.2539 76.6262 -79.1622 76.0533 -78.7778 72.4324C-78.3935 68.8116 -77.4051 67.4824 -77.4051 67.4824Z" fill="#B57650"/>
</g>
<g clip-path="url(#clip2_1701_117606)">
<path d="M184.497 1.70163C192.531 -0.899421 235.942 -0.612962 243.298 1.8735C250.816 4.40581 253.085 7.59123 253.408 20.4934C253.731 33.3955 253.57 76.6279 253.408 84.7748C253.247 92.9217 247.344 102.203 240.803 103.108C234.263 104.013 188.163 103.784 184.497 102.203C180.831 100.622 174.29 95.1905 173.806 82.0592C173.329 68.9279 173.168 25.6955 174.444 18.9121C175.719 12.1287 175.405 4.65789 184.489 1.71309L184.497 1.70163Z" fill="url(#paint6_linear_1701_117606)"/>
<path d="M220.327 96.9199C201.698 96.9199 187.979 96.3011 185.766 95.7282C184.03 94.9376 178.903 91.7751 178.539 81.7146C177.982 66.3718 178.047 25.878 179.024 20.6415C179.234 19.5071 179.403 18.4186 179.565 17.3644C180.396 11.8758 180.711 9.82479 185.556 8.255C189.909 6.84562 208.142 5.12686 223.226 5.12686C238.31 5.12686 241.257 6.8227 241.37 6.89145C247.507 10.9477 248.452 11.5665 248.678 20.7217C248.985 33.2572 248.839 76.3521 248.678 84.5792C248.589 89.2542 244.535 95.8313 240.353 96.4157C238.172 96.7136 230.307 96.9084 220.335 96.9084L220.327 96.9199Z" fill="url(#paint7_linear_1701_117606)"/>
<mask id="mask2_1701_117606" style="mask-type:luminance" maskUnits="userSpaceOnUse" x="173" y="-1" width="81" height="105">
<path d="M184.497 1.70035C192.532 -0.900699 235.724 -0.614239 243.113 1.66598C250.178 3.84307 253.085 7.58995 253.4 20.4921C253.723 33.3942 253.562 76.6266 253.4 84.7736C253.239 92.9204 247.336 102.202 240.795 103.107C234.255 104.012 188.155 103.783 184.489 102.202C180.823 100.62 174.282 95.1892 173.798 82.0579C173.322 68.9266 173.16 25.6942 174.436 18.9108C175.712 12.1275 175.397 4.65661 184.481 1.71181L184.497 1.70035Z" fill="white"/>
</mask>
<g mask="url(#mask2_1701_117606)">
<path opacity="0.5" d="M203.731 83.8241C215.278 86.6887 228.594 89.8283 238.663 104.472C239.899 106.271 241.853 108.792 240.27 111.359C238.647 113.994 236.459 111.645 234.9 110.27C220.236 97.3908 204.474 92.4064 187.493 97.345C182.276 98.8575 177.286 101.963 172.183 104.3C171.157 104.77 169.905 105.962 169.13 104.094C168.363 102.238 169.59 101.012 170.479 100.221C180.12 91.6158 190.044 84.0189 203.739 83.8241H203.731Z" fill="#7A401C"/>
<path opacity="0.15" d="M262.001 37.6567C261.67 38.5046 261.46 39.6619 260.935 40.1661C260.572 40.5213 259.53 40.2921 259.216 39.788C252.893 29.7504 243.889 27.0004 235.613 22.44C225.495 16.8712 217.161 7.49829 208.659 -1.5882C207.73 -2.58508 206.47 -3.94862 207.197 -5.89655C207.972 -7.99343 209.458 -6.95072 210.483 -6.28613C225.043 3.14411 239.674 12.3681 254.056 22.3369C258.101 25.1442 260.766 30.7932 262.009 37.6338L262.001 37.6567Z" fill="#7A401C"/>
<path opacity="0.25" d="M223.208 23.3445C223.079 23.2299 222.942 23.1268 222.805 23.0466C212.227 15.2205 202.286 5.458 190.392 1.63091C190.029 1.28715 189.625 1.11528 189.27 1.19549C183.69 -0.958686 177.965 -0.958686 172.232 -0.64931C171.731 -0.626394 171.246 0.164234 170.754 0.599652C171.327 0.897569 171.884 1.37882 172.474 1.47049C178.07 2.34132 183.674 3.14341 189.27 3.96841C200.066 8.72364 209.481 17.3747 219.187 25.2008C219.857 25.8997 220.568 26.5299 221.19 27.3091C224.307 31.205 229.701 34.8487 228.772 40.4633C227.852 46.0779 221.957 45.6998 217.919 46.6509C205.096 49.6759 187.857 55.0842 173.451 60.5957C172.393 60.9967 171.101 70.4499 171.222 70.7593C171.997 72.7072 180.476 66.6113 181.728 66.0155C194.841 59.7592 208.189 56.0811 221.594 51.853C227.125 50.1113 234.659 49.9967 235.135 39.5581C235.587 29.5664 228.594 26.7477 223.184 23.3445H223.208Z" fill="#7A401C"/>
<path opacity="0.25" d="M259.092 69.5225C254.707 61.4787 248.505 59.5881 241.852 60.3444C235.658 61.0433 229.521 62.9683 223.328 63.461C208.712 64.6413 194.097 65.4319 180.248 73.2465C177.244 74.3694 174.232 75.435 171.253 76.6611C170.607 76.9246 170.074 77.7611 169.484 78.334C170.122 78.6549 170.817 79.3653 171.398 79.2278C174.604 78.4715 177.802 77.5778 180.999 76.7069C181.5 76.7528 182.033 76.833 182.469 76.3059C183.858 75.9163 185.239 75.5153 186.627 75.16C209.536 69.2934 232.251 71.5621 254.877 78.3111C256.572 78.8153 258.413 81.8861 259.972 78.8267C261.546 75.7215 260.594 72.2955 259.1 69.534L259.092 69.5225Z" fill="#7A401C"/>
</g>
<path d="M197.184 96.5521L210.031 96.4833L229.564 96.85L211.936 98.7406L197.184 96.5521Z" fill="#542909"/>
<path d="M248.749 78.0702C248.749 78.0702 247.731 87.9473 245.107 92.1526C243.266 95.1088 238.26 96.438 232.316 96.839C232.316 96.839 243.557 97.1369 246.617 93.7338C249.686 90.3307 248.749 78.0702 248.749 78.0702Z" fill="#542909"/>
<path d="M197.158 6.59364L209.997 6.66239L229.716 5.12697L211.911 4.40509L197.158 6.59364Z" fill="#EBB273"/>
<path d="M248.718 25.0763C248.718 25.0763 248.686 15.4283 246.054 11.2231C244.213 8.26684 238.334 5.8033 232.383 5.40225C232.383 5.40225 242.686 5.55121 246.578 9.41268C249.768 12.5867 248.71 25.0763 248.71 25.0763H248.718Z" fill="#EBB273"/>
<path d="M253.522 62.9L248.822 58.3739L242.273 60.2989L248.822 62.0292L253.522 62.9Z" fill="#542909"/>
<path d="M204.191 72.1926C204.191 72.1926 219.073 69.9811 229.07 71.0926C239.067 72.204 248.886 76.6384 248.886 76.6384C248.886 76.6384 238.574 74.5186 228.683 73.7166C218.791 72.9145 204.199 72.2041 204.199 72.2041L204.191 72.1926Z" fill="#B57650"/>
<path opacity="0.48" d="M235.724 13.1569C215.052 10.1089 191.99 14.1308 191.99 14.1308C188.777 14.1308 185.482 18.3819 185.038 22.8392C182.519 48.4143 184.432 79.4436 184.432 79.4436C184.432 83.9352 189.075 89.1602 192.297 89.1602C192.297 89.1602 217.652 92.254 236.362 88.8394C239.552 88.255 242.023 84.6571 242.475 80.1998C245.543 49.7778 242.475 23.5611 242.475 23.5611C242.321 17.7517 238.93 13.6152 235.732 13.1454L235.724 13.1569Z" fill="url(#paint8_linear_1701_117606)"/>
<path d="M184.02 38.3894C184.02 38.3894 184.108 23.1956 185.061 20.0675C186.014 16.9393 186.967 13.7768 191.909 13.3528C197.157 12.8945 205.967 10.9122 214.946 10.7174C223.926 10.5226 236.603 11.7601 238.703 13.5476C240.81 15.3351 243.096 16.6987 243.217 32.4425C243.217 32.4425 242.353 16.8018 238.283 15.2206C234.213 13.6393 223.062 12.6424 223.062 12.6424C223.062 12.6424 228.173 18.0966 229.724 18.6581C229.724 18.6581 222.295 12.6424 219.275 12.7456C216.255 12.8487 205.313 13.3414 205.313 13.3414L207.905 15.8279C207.905 15.8279 204.611 13.1351 201.663 13.2383C198.716 13.3414 189.874 14.1435 188.404 16.4237C186.935 18.7154 185.303 18.8414 184.884 27.4123C184.884 27.4123 186.418 28.7873 187.12 30.105C187.12 30.105 185.869 28.7758 184.948 28.2831L184.02 38.3779V38.3894Z" fill="#542909"/>
<path d="M183.94 67.4824C183.94 67.4824 184.732 81.9543 187.114 84.1429C189.496 86.3314 190.037 88.2335 195.641 88.6117C201.237 88.9898 207.745 87.4314 208.213 87.5919C208.682 87.7523 218.275 89.2762 219.276 89.3794C220.285 89.471 234.166 89.0471 236.783 87.5919C239.399 86.1367 242.306 83.3866 242.806 76.6262C242.806 76.6262 243.154 84.4064 239.867 87.4658C236.581 90.5138 223.572 90.4565 223.572 90.4565C223.572 90.4565 225.373 91.4648 229.136 94.3065C229.136 94.3065 225.114 91.3502 219.212 90.4565C213.309 89.5627 202.714 90.3992 199.557 90.4565C196.408 90.5138 187.219 90.4221 185.676 85.0939C184.134 79.7658 183.738 75.9502 183.738 75.9502L182.051 76.6262C182.051 76.6262 183.682 76.0533 183.738 72.4324C183.795 68.8116 183.94 67.4824 183.94 67.4824Z" fill="#B57650"/>
</g>
<defs>
<linearGradient id="paint0_linear_1701_117606" x1="39.5181" y1="103.635" x2="39.5181" y2="-0.120256" gradientUnits="userSpaceOnUse">
<stop stop-color="#77421F"/>
<stop offset="0.25" stop-color="#7A4420"/>
<stop offset="0.44" stop-color="#834C24"/>
<stop offset="0.61" stop-color="#945A2A"/>
<stop offset="0.77" stop-color="#AB6D33"/>
<stop offset="0.92" stop-color="#C9853F"/>
<stop offset="1" stop-color="#DB9446"/>
</linearGradient>
<linearGradient id="paint1_linear_1701_117606" x1="39.5197" y1="96.9199" x2="39.5197" y2="5.12686" gradientUnits="userSpaceOnUse">
<stop stop-color="#99572F"/>
<stop offset="0.23" stop-color="#A05F34"/>
<stop offset="0.6" stop-color="#B57844"/>
<stop offset="1" stop-color="#D1995A"/>
</linearGradient>
<linearGradient id="paint2_linear_1701_117606" x1="39.7846" y1="90.455" x2="39.7846" y2="12.0225" gradientUnits="userSpaceOnUse">
<stop stop-color="#72420C"/>
<stop offset="0.3" stop-color="#4E2A07"/>
<stop offset="0.57" stop-color="#341903"/>
<stop offset="0.81" stop-color="#240F00"/>
<stop offset="1" stop-color="#1F0C00"/>
</linearGradient>
<linearGradient id="paint3_linear_1701_117606" x1="123.724" y1="103.634" x2="123.724" y2="-0.121141" gradientUnits="userSpaceOnUse">
<stop stop-color="#77421F"/>
<stop offset="0.25" stop-color="#7A4420"/>
<stop offset="0.44" stop-color="#834C24"/>
<stop offset="0.61" stop-color="#945A2A"/>
<stop offset="0.77" stop-color="#AB6D33"/>
<stop offset="0.92" stop-color="#C9853F"/>
<stop offset="1" stop-color="#DB9446"/>
</linearGradient>
<linearGradient id="paint4_linear_1701_117606" x1="123.728" y1="96.92" x2="123.728" y2="5.12695" gradientUnits="userSpaceOnUse">
<stop stop-color="#99572F"/>
<stop offset="0.23" stop-color="#A05F34"/>
<stop offset="0.6" stop-color="#B57844"/>
<stop offset="1" stop-color="#D1995A"/>
</linearGradient>
<linearGradient id="paint5_linear_1701_117606" x1="125.535" y1="90.455" x2="125.535" y2="12.0225" gradientUnits="userSpaceOnUse">
<stop stop-color="#72420C"/>
<stop offset="0.3" stop-color="#4E2A07"/>
<stop offset="0.57" stop-color="#341903"/>
<stop offset="0.81" stop-color="#240F00"/>
<stop offset="1" stop-color="#1F0C00"/>
</linearGradient>
<linearGradient id="paint6_linear_1701_117606" x1="213.518" y1="103.635" x2="213.518" y2="-0.120256" gradientUnits="userSpaceOnUse">
<stop stop-color="#77421F"/>
<stop offset="0.25" stop-color="#7A4420"/>
<stop offset="0.44" stop-color="#834C24"/>
<stop offset="0.61" stop-color="#945A2A"/>
<stop offset="0.77" stop-color="#AB6D33"/>
<stop offset="0.92" stop-color="#C9853F"/>
<stop offset="1" stop-color="#DB9446"/>
</linearGradient>
<linearGradient id="paint7_linear_1701_117606" x1="213.52" y1="96.9199" x2="213.52" y2="5.12686" gradientUnits="userSpaceOnUse">
<stop stop-color="#99572F"/>
<stop offset="0.23" stop-color="#A05F34"/>
<stop offset="0.6" stop-color="#B57844"/>
<stop offset="1" stop-color="#D1995A"/>
</linearGradient>
<linearGradient id="paint8_linear_1701_117606" x1="213.785" y1="90.455" x2="213.785" y2="12.0225" gradientUnits="userSpaceOnUse">
<stop stop-color="#72420C"/>
<stop offset="0.3" stop-color="#4E2A07"/>
<stop offset="0.57" stop-color="#341903"/>
<stop offset="0.81" stop-color="#240F00"/>
<stop offset="1" stop-color="#1F0C00"/>
</linearGradient>
<clipPath id="clip0_1701_117606">
<rect width="25" height="104" fill="white"/>
</clipPath>
<clipPath id="clip1_1701_117606">
<rect width="204" height="104" fill="white" transform="translate(25)"/>
</clipPath>
<clipPath id="clip2_1701_117606">
<rect width="25" height="104" fill="white" transform="translate(229)"/>
</clipPath>
</defs>
</svg>
