<svg width="254" height="64" viewBox="0 0 254 64" fill="none" xmlns="http://www.w3.org/2000/svg">
<g clip-path="url(#clip0_2311_380584)">
<path d="M10.4969 1.04657C18.5314 -0.554077 61.9421 -0.377794 69.2984 1.15234C76.8161 2.71068 79.0852 4.67094 79.4082 12.6107C79.7312 20.5505 79.5697 47.1551 79.4082 52.1685C79.2467 57.182 73.3439 62.8936 66.8032 63.4506C60.2626 64.0077 14.1629 63.8667 10.4969 62.8936C6.83091 61.9205 0.290231 58.5782 -0.194264 50.4974C-0.670683 42.4166 -0.832181 15.812 0.443654 11.6376C1.71949 7.46326 1.40457 2.86581 10.4888 1.05362L10.4969 1.04657Z" fill="url(#paint0_linear_2311_380584)"/>
<path d="M46.3269 59.6425C27.6981 59.6425 13.9788 59.2618 11.7663 58.9092C10.0302 58.4227 4.9026 56.4765 4.53923 50.2855C3.98206 40.8438 4.04666 15.9245 5.02372 12.702C5.23367 12.0039 5.40324 11.3341 5.56474 10.6853C6.39646 7.30776 6.71138 6.04558 11.5563 5.07955C15.9087 4.21224 34.1418 3.15454 49.2258 3.15454C64.3097 3.15454 67.257 4.19813 67.3701 4.24044C73.507 6.7366 74.4518 7.11737 74.6779 12.7514C74.9847 20.4655 74.8394 46.9855 74.6779 52.0483C74.5891 54.9252 70.5354 58.9727 66.3526 59.3323C64.1724 59.5156 56.3075 59.6355 46.3349 59.6355L46.3269 59.6425Z" fill="url(#paint1_linear_2311_380584)"/>
<mask id="mask0_2311_380584" style="mask-type:luminance" maskUnits="userSpaceOnUse" x="-1" y="-1" width="81" height="65">
<path d="M10.4972 1.04598C18.5317 -0.55467 61.7244 -0.378388 69.1129 1.02482C76.1785 2.36457 79.0854 4.67035 79.4004 12.6101C79.7234 20.5499 79.5619 47.1545 79.4004 52.1679C79.2389 57.1814 73.3361 62.893 66.7954 63.45C60.2548 64.0071 14.1551 63.8661 10.4891 62.893C6.82309 61.9199 0.282418 58.5776 -0.202076 50.4968C-0.678496 42.416 -0.839994 15.8114 0.435842 11.637C1.71168 7.46266 1.39676 2.86521 10.481 1.05303L10.4972 1.04598Z" fill="white"/>
</mask>
<g mask="url(#mask0_2311_380584)">
<path opacity="0.5" d="M29.7312 51.584C41.2783 53.3468 54.5938 55.2789 64.6632 64.2904C65.8987 65.3975 67.8528 66.9488 66.2701 68.5283C64.6471 70.1501 62.4588 68.7046 60.9003 67.8584C46.2363 59.9327 30.4741 56.8654 13.4926 59.9045C8.27617 60.8353 3.28588 62.7462 -1.81747 64.1847C-2.84298 64.4738 -4.09459 65.2071 -4.86978 64.0577C-5.6369 62.9154 -4.40951 62.1609 -3.52127 61.6744C6.12017 56.3789 16.0442 51.7039 29.7393 51.584H29.7312Z" fill="#7A401C"/>
<path opacity="0.25" d="M16.7632 14.3798C11.5306 12.3843 6.11236 10.7483 0.726398 9.08424C-0.113392 8.82334 -1.21158 9.21116 -2.19672 9.29578C-1.50228 9.97976 -0.937033 10.833 -0.0891676 11.3195C2.80165 12.9977 5.63594 14.8522 8.76901 16.1003C16.0203 18.9913 16.0606 22.0939 9.62495 25.7676C4.78 27.6926 -0.0730176 29.6035 -4.90181 31.5638C-5.35401 31.7471 -5.63663 32.2407 -6 32.5933C-5.6124 32.685 -5.16021 32.9459 -4.86144 32.8471C0.411477 31.0914 5.66824 29.3003 10.925 27.5093C11.2399 27.4317 11.5548 27.3119 11.8617 27.192C15.6973 25.7394 19.6378 24.3503 20.2758 20.0631C20.6633 17.4753 19.2987 15.3458 16.7632 14.3798Z" fill="#7A401C"/>
<path opacity="0.25" d="M49.2085 14.3655C49.0793 14.2949 48.942 14.2315 48.8048 14.1821C38.2266 9.36609 28.2864 3.35838 16.3921 1.00324C16.0287 0.7917 15.625 0.685931 15.2697 0.73529C9.68991 -0.590355 3.9648 -0.590355 -1.76839 -0.39997C-2.26903 -0.385867 -2.75352 0.100672 -3.24609 0.368622C-2.67278 0.551956 -2.11561 0.848111 -1.52614 0.904521C4.06977 1.44042 9.67376 1.93401 15.2697 2.44171C26.0658 5.368 35.4812 10.6917 45.1872 15.5078C45.8574 15.9379 46.568 16.3257 47.1898 16.8052C50.3067 19.2027 55.7007 21.445 54.7721 24.9001C53.8516 28.3553 47.9569 28.1226 43.9194 28.7078C31.0965 30.5694 13.8566 33.8976 -0.549075 37.2893C-1.60689 37.5361 -2.89887 43.3534 -2.77775 43.5438C-2.00256 44.7425 6.47609 40.9912 7.72771 40.6245C20.8414 36.7745 34.1892 34.511 47.5935 31.9091C53.1248 30.8373 60.6587 30.7668 61.1351 24.3431C61.5873 18.1943 54.5945 16.4597 49.1843 14.3655H49.2085Z" fill="#7A401C"/>
<path opacity="0.25" d="M85.0916 42.7833C80.707 37.8333 74.5054 36.6698 67.8517 37.1352C61.6582 37.5653 55.5213 38.75 49.3279 39.0532C34.7123 39.7794 20.0967 40.266 6.24823 45.075C3.24436 45.766 0.232421 46.4218 -2.74722 47.1763C-3.39321 47.3384 -3.92616 47.8532 -4.51562 48.2058C-3.87771 48.4032 -3.18327 48.8404 -2.60187 48.7558C0.603867 48.2904 3.80153 47.7404 6.99919 47.2045C7.49984 47.2327 8.03278 47.282 8.46883 46.9577C9.85771 46.7179 11.2385 46.4711 12.6274 46.2525C35.5359 42.6423 58.2506 44.0384 80.8765 48.1916C82.5723 48.5019 84.4133 50.3917 85.9718 48.509C87.5464 46.5981 86.5936 44.4897 85.0997 42.7904L85.0916 42.7833Z" fill="#7A401C"/>
</g>
<path d="M23.1836 59.4163L36.0308 59.374L55.564 59.5996L37.9365 60.7631L23.1836 59.4163Z" fill="#542909"/>
<path d="M-0.525128 37.2822L4.25522 36.6969L16.7309 33.5238L3.64152 35.2161L-0.533203 36.9437L-0.525128 37.2822Z" fill="#542909"/>
<path d="M16.7307 33.5239L4.25495 36.697L-0.525391 37.2823L4.65062 37.5996L16.9487 33.4816L16.7307 33.5239Z" fill="#EBB273"/>
<path d="M4.43271 48.2051C4.43271 48.2051 4.34388 59.3673 20.7844 59.3673C20.7844 59.3673 10.7554 60.3404 7.48502 58.2461C4.21468 56.1519 4.43271 48.2051 4.43271 48.2051Z" fill="#542909"/>
<path d="M23.1582 4.05676L35.9973 4.09907L55.7162 3.15419L37.9111 2.70996L23.1582 4.05676Z" fill="#EBB273"/>
<path d="M4.59422 16.1718C4.59422 16.1718 5.61974 8.56345 8.57515 6.70895C10.4243 5.55254 15.7053 4.34677 21.6404 4.07177C21.6404 4.07177 11.0219 3.85318 7.75151 5.94741C4.48117 8.04165 4.59422 16.1648 4.59422 16.1648V16.1718Z" fill="#EBB273"/>
<path d="M16.666 27.312L22.0116 25.5703L25.2335 27.312H16.666Z" fill="#542909"/>
<path d="M22.0116 28.447L16.666 27.3118H25.2335L22.0116 28.447Z" fill="#EBB273"/>
<path opacity="0.48" d="M61.7241 8.09708C41.0524 6.22144 17.9904 8.69644 17.9904 8.69644C14.7766 8.69644 11.482 11.3125 11.0379 14.0554C8.51856 29.7939 10.4323 48.8889 10.4323 48.8889C10.4323 51.653 15.0754 54.8684 18.2973 54.8684C18.2973 54.8684 43.6525 56.7722 62.362 54.671C65.5516 54.3113 68.0225 52.0972 68.4747 49.3543C71.5432 30.6331 68.4747 14.4997 68.4747 14.4997C68.3213 10.9247 64.9299 8.37913 61.7322 8.09003L61.7241 8.09708Z" fill="url(#paint2_linear_2311_380584)"/>
<path d="M10.0195 23.6243C10.0195 23.6243 10.1084 14.2742 11.0612 12.3492C12.014 10.4242 12.9669 8.47805 17.9087 8.21715C23.1574 7.9351 31.9671 6.71522 40.9464 6.59535C49.9257 6.47548 62.6033 7.23702 64.7028 8.33702C66.8104 9.43703 69.0956 10.2761 69.2167 19.9646C69.2167 19.9646 68.3527 10.3396 64.2829 9.36651C60.2132 8.39343 49.0617 7.77997 49.0617 7.77997C49.0617 7.77997 54.1731 11.1364 55.7235 11.4819C55.7235 11.4819 48.2946 7.77997 45.2746 7.84343C42.2546 7.90689 31.3131 8.2101 31.3131 8.2101L33.9051 9.74023C33.9051 9.74023 30.6105 8.08318 27.6632 8.14664C24.7159 8.2101 15.8738 8.70369 14.4042 10.1069C12.9346 11.5172 11.3034 11.5947 10.8835 16.8691C10.8835 16.8691 12.4178 17.7153 13.1203 18.5262C13.1203 18.5262 11.8687 17.7082 10.9481 17.405L10.0195 23.6172V23.6243Z" fill="#542909"/>
<path d="M9.94031 41.5271C9.94031 41.5271 10.7317 50.4329 13.1137 51.7797C15.4958 53.1265 16.0369 54.297 21.6409 54.5297C27.2368 54.7624 33.7451 53.8034 34.2135 53.9021C34.6818 54.0009 44.2748 54.9387 45.2761 55.0021C46.2855 55.0586 60.1662 54.7977 62.7825 53.9021C65.3988 53.0066 68.3057 51.3143 68.8064 47.154C68.8064 47.154 69.1536 51.9419 65.8671 53.8246C62.5806 55.7002 49.572 55.665 49.572 55.665C49.572 55.665 51.3727 56.2855 55.1356 58.0342C55.1356 58.0342 51.1143 56.215 45.2115 55.665C39.3087 55.115 28.7145 55.6297 25.5572 55.665C22.408 55.7002 13.2187 55.6438 11.6764 52.365C10.1341 49.0861 9.73844 46.738 9.73844 46.738L8.05078 47.154C8.05078 47.154 9.68191 46.8015 9.73844 44.5733C9.79496 42.3451 9.94031 41.5271 9.94031 41.5271Z" fill="#B57650"/>
</g>
<g clip-path="url(#clip1_2311_380584)">
<path d="M-73.6206 1.04645C-18.9858 -0.554199 276.207 -0.377916 326.229 1.15222C377.35 2.71056 392.779 4.67082 394.976 12.6106C397.172 20.5504 396.074 47.1549 394.976 52.1684C393.878 57.1819 353.739 62.8934 309.262 63.4505C264.786 64.0076 -48.6917 63.8665 -73.6206 62.8935C-98.5495 61.9204 -143.026 58.5781 -146.321 50.4973C-149.56 42.4165 -150.658 15.8119 -141.983 11.6375C-133.307 7.46314 -135.449 2.86568 -73.6755 1.0535L-73.6206 1.04645Z" fill="url(#paint3_linear_2311_380584)"/>
<path d="M170.017 59.6425C43.3406 59.6425 -49.9505 59.2618 -64.9956 58.9092C-76.8011 58.4227 -111.669 56.4765 -114.14 50.2855C-117.928 40.8438 -117.489 15.9245 -110.845 12.702C-109.417 12.0039 -108.264 11.3341 -107.166 10.6853C-101.51 7.30776 -99.3689 6.04558 -66.4233 5.07955C-36.8271 4.21224 87.1582 3.15454 189.729 3.15454C292.3 3.15454 312.342 4.19813 313.11 4.24044C354.841 6.7366 361.266 7.11737 362.803 12.7514C364.89 20.4655 363.901 46.9855 362.803 52.0483C362.199 54.9252 334.635 58.9727 306.192 59.3323C291.366 59.5156 237.884 59.6355 170.071 59.6355L170.017 59.6425Z" fill="url(#paint4_linear_2311_380584)"/>
<mask id="mask1_2311_380584" style="mask-type:luminance" maskUnits="userSpaceOnUse" x="-149" y="-1" width="546" height="65">
<path d="M-73.6184 1.04598C-18.9836 -0.55467 274.727 -0.378388 324.969 1.02482C373.014 2.36457 392.782 4.67035 394.923 12.6101C397.12 20.5499 396.021 47.1545 394.923 52.1679C393.825 57.1814 353.686 62.893 309.21 63.45C264.733 64.0071 -48.7445 63.8661 -73.6733 62.893C-98.6022 61.9199 -143.079 58.5776 -146.373 50.4968C-149.613 42.416 -150.711 15.8114 -142.035 11.637C-133.36 7.46266 -135.501 2.86521 -73.7282 1.05303L-73.6184 1.04598Z" fill="white"/>
</mask>
<g mask="url(#mask1_2311_380584)">
<path opacity="0.5" d="M57.1733 51.584C135.694 53.3468 226.239 55.2789 294.711 64.2904C303.112 65.3975 316.4 66.9488 305.638 68.5283C294.601 70.1501 279.721 68.7046 269.123 67.8584C169.408 59.9327 62.2249 56.8654 -53.2495 59.9045C-88.7209 60.8353 -122.655 62.7462 -157.358 64.1847C-164.331 64.4738 -172.842 65.2071 -178.113 64.0577C-183.33 62.9154 -174.984 62.1609 -168.943 61.6744C-103.382 56.3789 -35.8981 51.7039 57.2282 51.584H57.1733Z" fill="#7A401C"/>
<path opacity="0.15" d="M453.404 23.1731C451.153 23.6949 449.725 24.4071 446.156 24.7174C443.685 24.9359 436.602 24.7949 434.46 24.4847C391.466 18.3077 330.242 16.6154 273.96 13.809C205.159 10.3821 148.492 4.61409 90.6726 -0.977598C84.3581 -1.59106 75.7922 -2.43017 80.7341 -3.62889C86.0054 -4.91928 96.1087 -4.27761 103.082 -3.86863C202.084 1.93459 301.58 7.61089 399.373 13.7455C426.883 15.4731 445.003 18.9494 453.459 23.159L453.404 23.1731Z" fill="#7A401C"/>
<path opacity="0.25" d="M189.619 14.3655C188.74 14.2949 187.807 14.2315 186.874 14.1821C114.942 9.36609 47.3488 3.35838 -33.5327 1.00324C-36.0036 0.7917 -38.7491 0.685931 -41.1651 0.73529C-79.1075 -0.590355 -118.038 -0.590355 -157.024 -0.39997C-160.428 -0.385867 -163.723 0.100672 -167.072 0.368622C-163.174 0.551956 -159.385 0.848111 -155.377 0.904521C-117.324 1.44042 -79.2173 1.93401 -41.1651 2.44171C32.2487 5.368 96.2731 10.6917 162.274 15.5078C166.832 15.9379 171.664 16.3257 175.892 16.8052C197.087 19.2027 233.766 21.445 227.452 24.9001C221.192 28.3553 181.108 28.1226 153.653 28.7078C66.4573 30.5694 -50.7742 33.8976 -148.733 37.2893C-155.926 37.5361 -164.711 43.3534 -163.888 43.5438C-158.616 44.7425 -100.961 40.9912 -92.4504 40.6245C-3.27762 36.7745 87.4876 34.511 178.637 31.9091C216.25 30.8373 267.48 30.7668 270.72 24.3431C273.795 18.1943 226.243 16.4597 189.454 14.3655H189.619Z" fill="#7A401C"/>
<path opacity="0.25" d="M433.63 42.7833C403.814 37.8333 361.644 36.6698 316.399 37.1352C274.283 37.5653 232.552 38.75 190.436 39.0532C91.0505 39.7794 -8.33546 40.266 -102.505 45.075C-122.931 45.766 -143.413 46.4218 -163.674 47.1763C-168.067 47.3384 -171.691 47.8532 -175.699 48.2058C-171.361 48.4032 -166.639 48.8404 -162.686 48.7558C-140.887 48.2904 -119.143 47.7404 -97.3985 47.2045C-93.9941 47.2327 -90.3701 47.282 -87.405 46.9577C-77.9605 46.7179 -68.571 46.4711 -59.1266 46.2525C96.6512 42.6423 251.111 44.0384 404.967 48.1916C416.498 48.5019 429.018 50.3917 439.615 48.509C450.323 46.5981 443.843 44.4897 433.685 42.7904L433.63 42.7833Z" fill="#7A401C"/>
</g>
<path d="M12.6426 59.4162L100.003 59.3738L232.829 59.5995L112.962 60.7629L12.6426 59.4162Z" fill="#542909"/>
<path d="M12.4766 4.05774L99.7824 4.10004L233.871 3.15517L112.796 2.71094L12.4766 4.05774Z" fill="#EBB273"/>
<path d="M-31.6699 27.312L4.68007 25.5703L26.5889 27.312H-31.6699Z" fill="#542909"/>
<path d="M4.68007 28.447L-31.6699 27.3118H26.5889L4.68007 28.447Z" fill="#EBB273"/>
<path d="M60.3027 44.4258C60.3027 44.4258 161.501 43.0649 229.479 43.7489C297.456 44.4329 364.226 47.1617 364.226 47.1617C364.226 47.1617 294.107 45.8572 226.843 45.3636C159.579 44.87 60.3577 44.4329 60.3577 44.4329L60.3027 44.4258Z" fill="#B57650"/>
<path opacity="0.48" d="M274.724 8.09708C134.156 6.22144 -22.6651 8.69644 -22.6651 8.69644C-44.5191 8.69644 -66.9221 11.3125 -69.9421 14.0554C-87.0738 29.7939 -74.0603 48.8889 -74.0603 48.8889C-74.0603 51.653 -42.4874 54.8684 -20.5786 54.8684C-20.5786 54.8684 151.837 56.7722 279.062 54.671C300.751 54.3113 317.553 52.0972 320.628 49.3543C341.494 30.6331 320.628 14.4997 320.628 14.4997C319.585 10.9247 296.523 8.37913 274.779 8.09003L274.724 8.09708Z" fill="url(#paint5_linear_2311_380584)"/>
<path d="M-76.8613 23.6243C-76.8613 23.6243 -76.2573 14.2742 -69.778 12.3492C-63.2987 10.4242 -56.8194 8.47805 -23.2149 8.21715C12.4762 7.9351 72.3823 6.71522 133.442 6.59535C194.501 6.47548 280.709 7.23702 294.985 8.33702C309.316 9.43703 324.856 10.2761 325.679 19.9646C325.679 19.9646 319.804 10.3396 292.13 9.36651C264.455 8.39343 188.625 7.77997 188.625 7.77997C188.625 7.77997 223.383 11.1364 233.926 11.4819C233.926 11.4819 183.409 7.77997 162.873 7.84343C142.337 7.90689 67.9347 8.2101 67.9347 8.2101L85.5606 9.74023C85.5606 9.74023 63.1576 8.08318 43.1156 8.14664C23.0737 8.2101 -37.052 8.70369 -47.0455 10.1069C-57.039 11.5172 -68.1307 11.5947 -70.986 16.8691C-70.986 16.8691 -60.5532 17.7153 -55.7761 18.5262C-55.7761 18.5262 -64.2871 17.7082 -70.5468 17.405L-76.8613 23.6172V23.6243Z" fill="#542909"/>
<path d="M-77.4051 41.5271C-77.4051 41.5271 -72.024 50.4329 -55.8257 51.7797C-39.6275 53.1265 -35.9485 54.297 2.15856 54.5297C40.2108 54.7624 84.4677 53.8034 87.6525 53.9021C90.8372 54.0009 156.07 54.9387 162.878 55.0021C169.742 55.0586 264.131 54.7977 281.922 53.9021C299.712 53.0066 319.48 51.3143 322.884 47.154C322.884 47.154 325.245 51.9419 302.897 53.8246C280.549 55.7002 192.09 55.665 192.09 55.665C192.09 55.665 204.335 56.2855 229.923 58.0342C229.923 58.0342 202.578 56.215 162.439 55.665C122.3 55.115 50.2592 55.6297 28.7896 55.665C7.37496 55.7002 -55.1119 55.6438 -65.5996 52.365C-76.0873 49.0861 -78.7778 46.738 -78.7778 46.738L-90.2539 47.154C-90.2539 47.154 -79.1622 46.8015 -78.7778 44.5733C-78.3935 42.3451 -77.4051 41.5271 -77.4051 41.5271Z" fill="#B57650"/>
</g>
<g clip-path="url(#clip2_2311_380584)">
<path d="M184.497 1.04657C192.531 -0.554077 235.942 -0.377794 243.298 1.15234C250.816 2.71068 253.085 4.67094 253.408 12.6107C253.731 20.5505 253.57 47.1551 253.408 52.1685C253.247 57.182 247.344 62.8936 240.803 63.4506C234.263 64.0077 188.163 63.8667 184.497 62.8936C180.831 61.9205 174.29 58.5782 173.806 50.4974C173.329 42.4166 173.168 15.812 174.444 11.6376C175.719 7.46326 175.405 2.86581 184.489 1.05362L184.497 1.04657Z" fill="url(#paint6_linear_2311_380584)"/>
<path d="M220.327 59.6425C201.698 59.6425 187.979 59.2618 185.766 58.9092C184.03 58.4227 178.903 56.4765 178.539 50.2855C177.982 40.8438 178.047 15.9245 179.024 12.702C179.234 12.0039 179.403 11.3341 179.565 10.6853C180.396 7.30776 180.711 6.04558 185.556 5.07955C189.909 4.21224 208.142 3.15454 223.226 3.15454C238.31 3.15454 241.257 4.19813 241.37 4.24044C247.507 6.7366 248.452 7.11737 248.678 12.7514C248.985 20.4655 248.839 46.9855 248.678 52.0483C248.589 54.9252 244.535 58.9727 240.353 59.3323C238.172 59.5156 230.307 59.6355 220.335 59.6355L220.327 59.6425Z" fill="url(#paint7_linear_2311_380584)"/>
<mask id="mask2_2311_380584" style="mask-type:luminance" maskUnits="userSpaceOnUse" x="173" y="-1" width="81" height="65">
<path d="M184.497 1.04598C192.532 -0.55467 235.724 -0.378388 243.113 1.02482C250.178 2.36457 253.085 4.67035 253.4 12.6101C253.723 20.5499 253.562 47.1545 253.4 52.1679C253.239 57.1814 247.336 62.893 240.795 63.45C234.255 64.0071 188.155 63.8661 184.489 62.893C180.823 61.9199 174.282 58.5776 173.798 50.4968C173.322 42.416 173.16 15.8114 174.436 11.637C175.712 7.46266 175.397 2.86521 184.481 1.05303L184.497 1.04598Z" fill="white"/>
</mask>
<g mask="url(#mask2_2311_380584)">
<path opacity="0.5" d="M203.731 51.584C215.278 53.3468 228.594 55.2789 238.663 64.2904C239.899 65.3975 241.853 66.9488 240.27 68.5283C238.647 70.1501 236.459 68.7046 234.9 67.8584C220.236 59.9327 204.474 56.8654 187.493 59.9045C182.276 60.8353 177.286 62.7462 172.183 64.1847C171.157 64.4738 169.905 65.2071 169.13 64.0577C168.363 62.9154 169.59 62.1609 170.479 61.6744C180.12 56.3789 190.044 51.7039 203.739 51.584H203.731Z" fill="#7A401C"/>
<path opacity="0.15" d="M262.001 23.1731C261.67 23.6949 261.46 24.4071 260.935 24.7174C260.572 24.9359 259.53 24.7949 259.216 24.4847C252.893 18.3077 243.889 16.6154 235.613 13.809C225.495 10.3821 217.161 4.61409 208.659 -0.977598C207.73 -1.59106 206.47 -2.43017 207.197 -3.62889C207.972 -4.91928 209.458 -4.27761 210.483 -3.86863C225.043 1.93459 239.674 7.61089 254.056 13.7455C258.101 15.4731 260.766 18.9494 262.009 23.159L262.001 23.1731Z" fill="#7A401C"/>
<path opacity="0.25" d="M223.208 14.3655C223.079 14.2949 222.942 14.2315 222.805 14.1821C212.227 9.36609 202.286 3.35838 190.392 1.00324C190.029 0.7917 189.625 0.685931 189.27 0.73529C183.69 -0.590355 177.965 -0.590355 172.232 -0.39997C171.731 -0.385867 171.246 0.100672 170.754 0.368622C171.327 0.551956 171.884 0.848111 172.474 0.904521C178.07 1.44042 183.674 1.93401 189.27 2.44171C200.066 5.368 209.481 10.6917 219.187 15.5078C219.857 15.9379 220.568 16.3257 221.19 16.8052C224.307 19.2027 229.701 21.445 228.772 24.9001C227.852 28.3553 221.957 28.1226 217.919 28.7078C205.096 30.5694 187.857 33.8976 173.451 37.2893C172.393 37.5361 171.101 43.3534 171.222 43.5438C171.997 44.7425 180.476 40.9912 181.728 40.6245C194.841 36.7745 208.189 34.511 221.594 31.9091C227.125 30.8373 234.659 30.7668 235.135 24.3431C235.587 18.1943 228.594 16.4597 223.184 14.3655H223.208Z" fill="#7A401C"/>
<path opacity="0.25" d="M259.092 42.7833C254.707 37.8333 248.505 36.6698 241.852 37.1352C235.658 37.5653 229.521 38.75 223.328 39.0532C208.712 39.7794 194.097 40.266 180.248 45.075C177.244 45.766 174.232 46.4218 171.253 47.1763C170.607 47.3384 170.074 47.8532 169.484 48.2058C170.122 48.4032 170.817 48.8404 171.398 48.7558C174.604 48.2904 177.802 47.7404 180.999 47.2045C181.5 47.2327 182.033 47.282 182.469 46.9577C183.858 46.7179 185.239 46.4711 186.627 46.2525C209.536 42.6423 232.251 44.0384 254.877 48.1916C256.572 48.5019 258.413 50.3917 259.972 48.509C261.546 46.5981 260.594 44.4897 259.1 42.7904L259.092 42.7833Z" fill="#7A401C"/>
</g>
<path d="M197.184 59.4163L210.031 59.374L229.564 59.5996L211.936 60.7631L197.184 59.4163Z" fill="#542909"/>
<path d="M248.749 48.043C248.749 48.043 247.731 54.1212 245.107 56.709C243.266 58.5283 238.26 59.3462 232.316 59.593C232.316 59.593 243.557 59.7763 246.617 57.6821C249.686 55.5879 248.749 48.043 248.749 48.043Z" fill="#542909"/>
<path d="M197.158 4.05676L209.997 4.09907L229.716 3.15419L211.911 2.70996L197.158 4.05676Z" fill="#EBB273"/>
<path d="M248.718 15.4313C248.718 15.4313 248.686 9.49411 246.054 6.90628C244.213 5.08705 238.334 3.57101 232.383 3.32422C232.383 3.32422 242.686 3.41589 246.578 5.79218C249.768 7.74539 248.71 15.4313 248.71 15.4313H248.718Z" fill="#EBB273"/>
<path d="M253.522 38.7071L248.822 35.9219L242.273 37.1065L248.822 38.1712L253.522 38.7071Z" fill="#542909"/>
<path d="M204.191 44.4258C204.191 44.4258 219.073 43.0649 229.07 43.7489C239.067 44.4329 248.886 47.1617 248.886 47.1617C248.886 47.1617 238.574 45.8572 228.683 45.3636C218.791 44.87 204.199 44.4329 204.199 44.4329L204.191 44.4258Z" fill="#B57650"/>
<path opacity="0.48" d="M235.724 8.09708C215.052 6.22144 191.99 8.69644 191.99 8.69644C188.777 8.69644 185.482 11.3125 185.038 14.0554C182.519 29.7939 184.432 48.8889 184.432 48.8889C184.432 51.653 189.075 54.8684 192.297 54.8684C192.297 54.8684 217.652 56.7722 236.362 54.671C239.552 54.3113 242.023 52.0972 242.475 49.3543C245.543 30.6331 242.475 14.4997 242.475 14.4997C242.321 10.9247 238.93 8.37913 235.732 8.09003L235.724 8.09708Z" fill="url(#paint8_linear_2311_380584)"/>
<path d="M184.02 23.6243C184.02 23.6243 184.108 14.2742 185.061 12.3492C186.014 10.4242 186.967 8.47805 191.909 8.21715C197.157 7.9351 205.967 6.71522 214.946 6.59535C223.926 6.47548 236.603 7.23702 238.703 8.33702C240.81 9.43703 243.096 10.2761 243.217 19.9646C243.217 19.9646 242.353 10.3396 238.283 9.36651C234.213 8.39343 223.062 7.77997 223.062 7.77997C223.062 7.77997 228.173 11.1364 229.724 11.4819C229.724 11.4819 222.295 7.77997 219.275 7.84343C216.255 7.90689 205.313 8.2101 205.313 8.2101L207.905 9.74023C207.905 9.74023 204.611 8.08318 201.663 8.14664C198.716 8.2101 189.874 8.70369 188.404 10.1069C186.935 11.5172 185.303 11.5947 184.884 16.8691C184.884 16.8691 186.418 17.7153 187.12 18.5262C187.12 18.5262 185.869 17.7082 184.948 17.405L184.02 23.6172V23.6243Z" fill="#542909"/>
<path d="M183.94 41.5271C183.94 41.5271 184.732 50.4329 187.114 51.7797C189.496 53.1265 190.037 54.297 195.641 54.5297C201.237 54.7624 207.745 53.8034 208.213 53.9021C208.682 54.0009 218.275 54.9387 219.276 55.0021C220.285 55.0586 234.166 54.7977 236.783 53.9021C239.399 53.0066 242.306 51.3143 242.806 47.154C242.806 47.154 243.154 51.9419 239.867 53.8246C236.581 55.7002 223.572 55.665 223.572 55.665C223.572 55.665 225.373 56.2855 229.136 58.0342C229.136 58.0342 225.114 56.215 219.212 55.665C213.309 55.115 202.714 55.6297 199.557 55.665C196.408 55.7002 187.219 55.6438 185.676 52.365C184.134 49.0861 183.738 46.738 183.738 46.738L182.051 47.154C182.051 47.154 183.682 46.8015 183.738 44.5733C183.795 42.3451 183.94 41.5271 183.94 41.5271Z" fill="#B57650"/>
</g>
<defs>
<linearGradient id="paint0_linear_2311_380584" x1="39.5181" y1="63.775" x2="39.5181" y2="-0.0745906" gradientUnits="userSpaceOnUse">
<stop stop-color="#77421F"/>
<stop offset="0.25" stop-color="#7A4420"/>
<stop offset="0.44" stop-color="#834C24"/>
<stop offset="0.61" stop-color="#945A2A"/>
<stop offset="0.77" stop-color="#AB6D33"/>
<stop offset="0.92" stop-color="#C9853F"/>
<stop offset="1" stop-color="#DB9446"/>
</linearGradient>
<linearGradient id="paint1_linear_2311_380584" x1="39.5197" y1="59.6425" x2="39.5197" y2="3.15454" gradientUnits="userSpaceOnUse">
<stop stop-color="#99572F"/>
<stop offset="0.23" stop-color="#A05F34"/>
<stop offset="0.6" stop-color="#B57844"/>
<stop offset="1" stop-color="#D1995A"/>
</linearGradient>
<linearGradient id="paint2_linear_2311_380584" x1="39.7846" y1="55.6652" x2="39.7846" y2="7.399" gradientUnits="userSpaceOnUse">
<stop stop-color="#72420C"/>
<stop offset="0.3" stop-color="#4E2A07"/>
<stop offset="0.57" stop-color="#341903"/>
<stop offset="0.81" stop-color="#240F00"/>
<stop offset="1" stop-color="#1F0C00"/>
</linearGradient>
<linearGradient id="paint3_linear_2311_380584" x1="123.724" y1="63.7749" x2="123.724" y2="-0.0747126" gradientUnits="userSpaceOnUse">
<stop stop-color="#77421F"/>
<stop offset="0.25" stop-color="#7A4420"/>
<stop offset="0.44" stop-color="#834C24"/>
<stop offset="0.61" stop-color="#945A2A"/>
<stop offset="0.77" stop-color="#AB6D33"/>
<stop offset="0.92" stop-color="#C9853F"/>
<stop offset="1" stop-color="#DB9446"/>
</linearGradient>
<linearGradient id="paint4_linear_2311_380584" x1="123.728" y1="59.6425" x2="123.728" y2="3.15454" gradientUnits="userSpaceOnUse">
<stop stop-color="#99572F"/>
<stop offset="0.23" stop-color="#A05F34"/>
<stop offset="0.6" stop-color="#B57844"/>
<stop offset="1" stop-color="#D1995A"/>
</linearGradient>
<linearGradient id="paint5_linear_2311_380584" x1="125.535" y1="55.6652" x2="125.535" y2="7.399" gradientUnits="userSpaceOnUse">
<stop stop-color="#72420C"/>
<stop offset="0.3" stop-color="#4E2A07"/>
<stop offset="0.57" stop-color="#341903"/>
<stop offset="0.81" stop-color="#240F00"/>
<stop offset="1" stop-color="#1F0C00"/>
</linearGradient>
<linearGradient id="paint6_linear_2311_380584" x1="213.518" y1="63.775" x2="213.518" y2="-0.0745906" gradientUnits="userSpaceOnUse">
<stop stop-color="#77421F"/>
<stop offset="0.25" stop-color="#7A4420"/>
<stop offset="0.44" stop-color="#834C24"/>
<stop offset="0.61" stop-color="#945A2A"/>
<stop offset="0.77" stop-color="#AB6D33"/>
<stop offset="0.92" stop-color="#C9853F"/>
<stop offset="1" stop-color="#DB9446"/>
</linearGradient>
<linearGradient id="paint7_linear_2311_380584" x1="213.52" y1="59.6425" x2="213.52" y2="3.15454" gradientUnits="userSpaceOnUse">
<stop stop-color="#99572F"/>
<stop offset="0.23" stop-color="#A05F34"/>
<stop offset="0.6" stop-color="#B57844"/>
<stop offset="1" stop-color="#D1995A"/>
</linearGradient>
<linearGradient id="paint8_linear_2311_380584" x1="213.785" y1="55.6652" x2="213.785" y2="7.399" gradientUnits="userSpaceOnUse">
<stop stop-color="#72420C"/>
<stop offset="0.3" stop-color="#4E2A07"/>
<stop offset="0.57" stop-color="#341903"/>
<stop offset="0.81" stop-color="#240F00"/>
<stop offset="1" stop-color="#1F0C00"/>
</linearGradient>
<clipPath id="clip0_2311_380584">
<rect width="25" height="64" fill="white"/>
</clipPath>
<clipPath id="clip1_2311_380584">
<rect width="204" height="64" fill="white" transform="translate(25)"/>
</clipPath>
<clipPath id="clip2_2311_380584">
<rect width="25" height="64" fill="white" transform="translate(229)"/>
</clipPath>
</defs>
</svg>
