<svg width="64" height="64" viewBox="0 0 64 64" fill="none" xmlns="http://www.w3.org/2000/svg">
<path fill-rule="evenodd" clip-rule="evenodd" d="M31.4823 0.0241542C35.4985 0.286336 47.8062 3.56361 51.4337 6.84087C52.2111 7.49633 58.041 13.1332 60.2434 17.197C61.7981 20.2121 63.871 32.0103 63.871 32.9279C63.871 39.7447 57.7819 53.1159 49.4904 59.1461C47.4175 60.5881 34.7212 64.1275 31.4823 63.9965C20.9884 63.6032 9.8467 55.9999 7.12605 53.1159C5.31229 51.2807 1.55519 41.0556 1.29608 39.2203C1.03697 37.385 -0.12902 30.6994 0.130089 28.4709C0.389199 25.5869 3.62808 15.4929 5.18274 13.2643C8.68071 7.62742 23.9681 -0.500209 31.4823 0.0241542Z" fill="#A08E86"/>
<path fill-rule="evenodd" clip-rule="evenodd" d="M6.21896 28.7333C6.34852 26.5048 8.9396 18.9015 9.97604 17.3284C9.97604 17.3284 10.1056 17.0663 10.2352 16.9352C8.29183 16.1486 5.70075 14.0512 5.31209 13.0024C5.31209 13.0024 5.18253 13.1335 5.18253 13.2646C3.75743 15.4932 0.388992 25.5872 0.129883 28.4712C1.29587 27.9468 4.92342 28.0779 6.21896 28.7333Z" fill="url(#paint0_radial_15_293563)"/>
<path fill-rule="evenodd" clip-rule="evenodd" d="M10.2343 16.9341C13.4731 12.8703 27.0764 6.44689 30.8334 6.44689C31.3517 4.8738 31.4812 1.07216 30.8334 0.0234375C23.1897 0.0234375 8.93872 7.49561 5.18164 13.0014C5.5703 14.0502 8.29094 16.1476 10.1047 16.9341H10.2343Z" fill="url(#paint1_radial_15_293563)"/>
<path fill-rule="evenodd" clip-rule="evenodd" d="M31.2223 6.57872C33.1656 6.8409 42.8823 9.33163 46.6393 11.8224C47.4167 9.59381 48.7122 7.75854 50.3964 6.05436C45.7324 3.03927 35.3681 0.417455 31.7405 0.155273C31.611 0.155273 31.3519 0.155273 31.0928 0.155273C31.611 1.33509 31.4814 5.13672 31.0928 6.57872C31.0928 6.57872 31.3519 6.57872 31.4814 6.57872H31.2223Z" fill="url(#paint2_radial_15_293563)"/>
<path fill-rule="evenodd" clip-rule="evenodd" d="M50.2669 5.92236C48.5827 7.62654 47.2871 9.46181 46.5098 11.6904C46.7689 11.8214 47.028 12.0836 47.2871 12.2147C47.8053 12.7391 52.0806 16.6718 53.7648 19.6869C56.0968 19.2936 58.1697 18.2449 59.9835 16.6718C57.6515 12.7391 52.2102 7.49545 51.5624 6.84C51.1737 6.57782 50.7851 6.18454 50.2669 5.92236Z" fill="url(#paint3_radial_15_293563)"/>
<path fill-rule="evenodd" clip-rule="evenodd" d="M59.9842 16.8035C58.0409 18.3765 56.0976 19.5564 53.7656 19.8185C53.7656 19.8185 53.7656 19.9496 53.8952 20.0807C55.0611 22.3093 57.7818 32.5343 57.7818 33.1898C57.7818 33.452 57.7818 33.5831 57.7818 33.8453C59.9842 33.1898 61.9276 32.9276 64.0005 32.9276C64.0005 32.01 61.9275 20.0807 60.3729 17.1967C60.3729 17.0656 60.2433 16.8035 60.1138 16.6724L59.9842 16.8035Z" fill="url(#paint4_radial_15_293563)"/>
<path fill-rule="evenodd" clip-rule="evenodd" d="M63.8704 33.0586C61.927 33.0586 59.8542 33.1897 57.6517 33.9762C57.2631 39.351 51.5627 49.8382 45.4736 54.1642C46.7692 56.6549 48.0647 58.0969 49.4898 59.2767C57.7813 53.2466 63.8704 40.0064 63.8704 33.0586Z" fill="url(#paint5_radial_15_293563)"/>
<path fill-rule="evenodd" clip-rule="evenodd" d="M49.4899 59.1457C48.0648 57.9659 46.7692 56.655 45.4737 54.0332C43.919 55.0819 34.332 57.8348 32 57.7037C32.6478 59.8012 32.5182 61.8987 31.6113 63.9961H32C35.6275 63.9961 47.6761 60.5877 49.6194 59.1457H49.4899Z" fill="url(#paint6_radial_15_293563)"/>
<path fill-rule="evenodd" clip-rule="evenodd" d="M31.4822 63.9953C32.3891 61.8979 32.5187 59.8004 31.8709 57.703C25.6523 57.1786 12.6968 49.4442 11.9195 48.3955C9.97616 49.8375 8.42152 51.5417 7.12598 53.1148C9.84662 55.9988 20.9883 63.602 31.4822 63.9953Z" fill="url(#paint7_radial_15_293563)"/>
<path fill-rule="evenodd" clip-rule="evenodd" d="M7.12554 53.1156C8.42109 51.4114 10.1053 49.8383 11.919 48.3963C11.4008 47.6098 7.25509 38.3024 6.99598 36.8604C5.18222 38.1713 3.23889 38.9578 1.16602 39.22C1.42512 41.0553 5.31177 51.2803 6.99598 53.1156H7.12554Z" fill="url(#paint8_radial_15_293563)"/>
<path fill-rule="evenodd" clip-rule="evenodd" d="M1.29531 39.2194C3.36819 38.9573 5.31151 38.1707 7.12528 36.8598C6.86617 35.4178 6.08885 30.4364 6.2184 28.7322C4.92285 28.0767 1.29531 27.8145 0.129319 28.47C-0.000235565 30.6985 1.0362 37.3842 1.29531 39.2194Z" fill="url(#paint9_radial_15_293563)"/>
<path fill-rule="evenodd" clip-rule="evenodd" d="M10.6239 17.3281C10.6239 17.3281 9.97614 17.7214 9.71703 18.1146C8.16238 21.3919 7.38507 24.407 6.34863 27.9464C6.34863 30.4372 6.47817 32.2724 6.86684 34.7632C7.12595 36.3362 7.64417 36.7295 9.32838 35.943C15.9357 33.1901 22.5429 31.4859 29.2798 29.9128C32.5186 27.4221 37.3122 22.965 40.0328 19.9499C41.8466 17.8524 43.4013 15.6239 45.4741 12.7399C45.4741 12.6088 45.6037 12.3466 45.7332 12.2155C45.7332 11.9534 45.7332 11.6912 45.6037 11.5601C40.8101 9.46264 35.7575 7.75846 30.5753 6.84082C23.968 8.41391 18.0085 11.0357 12.5672 15.0995C12.049 15.4928 11.6604 15.755 11.1421 16.1483C10.883 16.4104 10.883 16.9348 10.6239 17.3281Z" fill="url(#paint10_radial_15_293563)"/>
<path fill-rule="evenodd" clip-rule="evenodd" d="M46.2507 12.477C44.4369 14.5745 42.8823 16.9341 41.4572 19.2937C41.1981 19.5559 41.0685 19.9492 41.5867 20.0803C42.6232 20.3425 43.6596 20.6047 44.6961 20.6047C46.7689 20.6047 48.8418 20.2114 51.0443 19.9492C51.5625 19.9492 52.0807 19.9492 52.5989 19.687C53.1171 19.4248 52.9875 19.1627 52.7284 18.9005C52.4693 18.5072 52.3398 17.9828 51.9511 17.5896C50.9147 16.2787 49.7487 15.0988 48.5827 13.919C47.9349 13.2636 47.4167 12.7392 46.6394 12.2148C46.5098 12.2148 46.2507 12.2148 46.1212 12.3459L46.2507 12.477Z" fill="url(#paint11_radial_15_293563)"/>
<path fill-rule="evenodd" clip-rule="evenodd" d="M56.0974 34.501C53.895 35.4186 51.6926 36.4673 49.6197 37.6471C48.7128 38.958 47.6764 40.269 46.7695 41.5799C46.6399 43.284 46.3808 44.9882 46.2512 46.6924C45.9921 48.3966 45.8626 50.1008 45.6035 51.8049C45.6035 52.7226 45.4739 53.5091 45.6035 53.6402C45.6035 53.6402 46.5104 53.2469 47.2877 52.4604C48.5832 51.2806 50.1379 49.5764 50.397 49.3142C51.9516 47.3479 53.3767 45.1193 54.5427 42.8908C55.4496 40.7933 56.7452 38.3026 57.1338 35.8119C57.3929 34.7631 57.5225 33.8455 55.9678 34.501H56.0974Z" fill="url(#paint12_radial_15_293563)"/>
<path fill-rule="evenodd" clip-rule="evenodd" d="M49.3598 37.3848C51.8214 36.4672 55.3193 34.2386 55.9671 33.9764C57.1331 33.5832 57.3922 33.4521 57.2627 32.6655C56.874 31.0925 56.6149 29.5194 56.0967 28.0774C55.3193 25.5866 54.4125 23.227 53.5056 20.7363C53.5056 20.6052 53.5056 20.343 53.376 20.2119C52.5987 20.2119 51.8214 20.2119 51.0441 20.2119C48.9712 20.343 47.0278 20.7363 44.955 20.8674C44.4368 20.8674 44.0481 20.8674 43.5299 20.8674C42.7525 20.8674 42.1048 20.6052 41.3275 20.6052C40.4206 20.6052 40.1614 20.8674 39.5136 21.3917C36.1452 24.2757 32.9064 27.1597 29.9266 30.1748C22.0238 31.7479 14.5096 33.7143 7.90234 37.1226C8.16145 40.7932 10.3639 45.2503 12.3072 48.3964C13.8619 49.8384 15.8052 51.0182 17.7485 52.067C22.1534 54.5577 28.2424 57.3106 31.87 57.7039C32.7768 57.7039 34.7201 57.4417 36.793 56.9173C39.5137 55.9997 42.1048 55.3442 44.4367 54.2955C44.8254 53.509 44.4367 52.4602 44.6959 51.6737C45.2141 48.2653 45.7323 44.857 46.121 41.3175C47.287 40.0066 48.1938 38.6957 49.1007 37.2537L49.3598 37.3848Z" fill="url(#paint13_radial_15_293563)"/>
<g style="mix-blend-mode:screen" opacity="0.5">
<path fill-rule="evenodd" clip-rule="evenodd" d="M25.7819 13.9196C25.7819 13.9196 25.1341 12.8709 25.3932 12.6087C26.5592 11.2978 28.1139 10.5112 29.539 9.59361C30.0572 9.33143 30.705 9.33143 31.2232 9.59361C32.6483 10.3802 34.2029 11.0356 35.1098 12.3465C36.4053 14.3129 30.9641 14.8372 30.0572 14.7061C28.6321 14.7061 27.0774 14.7061 25.7819 13.7885V13.9196Z" fill="#3C3C96"/>
</g>
<path fill-rule="evenodd" clip-rule="evenodd" d="M25.7819 13.6579C25.7819 13.6579 25.2636 12.6092 25.5227 12.2159C26.6887 11.0361 28.1138 10.1184 29.6685 9.33189C30.1867 9.06971 30.8345 9.06971 31.3527 9.33189C32.7778 9.98734 34.2029 10.7739 35.1098 12.0848C36.4053 13.9201 30.964 14.3133 30.1867 14.3133C28.7616 14.3133 27.2069 14.3133 25.9114 13.6579H25.7819Z" fill="url(#paint14_radial_15_293563)"/>
<g style="mix-blend-mode:screen" opacity="0.5">
<path fill-rule="evenodd" clip-rule="evenodd" d="M39.644 12.8699C39.644 12.8699 38.478 13.132 37.9598 13.3942C37.7006 13.5253 37.7007 13.9186 37.8302 14.1808C38.2189 14.9673 39.1257 15.7539 40.0326 16.1471C40.2917 16.2782 40.81 16.4093 41.0691 16.1471C41.4578 15.7539 41.8464 15.0984 41.976 14.4429C41.976 14.1808 41.8464 13.5253 41.4577 13.2631C41.0691 13.001 40.2918 12.8699 39.644 12.7388V12.8699Z" fill="#3C3C96"/>
</g>
<path fill-rule="evenodd" clip-rule="evenodd" d="M39.6438 12.8706C39.6438 12.8706 38.4779 13.1328 38.0892 13.395C37.8301 13.5261 37.8301 13.9193 37.8301 14.1815C38.2187 14.9681 39.1256 15.6235 40.0325 16.0168C40.2916 16.1479 40.8098 16.279 41.0689 16.0168C41.4576 15.6235 41.8463 15.0991 41.9758 14.5748C41.9758 14.3126 41.8463 13.6571 41.4576 13.395C41.0689 13.1328 40.2916 13.0017 39.6438 12.8706Z" fill="url(#paint15_radial_15_293563)"/>
<g style="mix-blend-mode:screen" opacity="0.5">
<path fill-rule="evenodd" clip-rule="evenodd" d="M28.6323 49.706C27.855 49.706 25.3935 49.0505 24.7457 48.9194C24.2275 48.9194 24.6161 51.2791 25.1343 51.5412C26.5594 52.3278 27.2072 53.2454 27.855 53.5076C28.1141 53.5076 29.021 53.7698 30.0574 54.032C30.9643 54.2942 31.8712 54.5563 32.3894 54.5563C33.8145 54.4252 36.1465 52.8522 36.4056 52.0656C36.7943 50.8858 36.0169 49.3127 34.9805 49.3127C34.3327 49.3127 31.2234 49.8371 28.6323 49.5749V49.706Z" fill="#3C3C96"/>
</g>
<path fill-rule="evenodd" clip-rule="evenodd" d="M28.6323 49.3131C27.855 49.3131 25.3935 48.5266 24.7457 48.3955C24.2275 48.3955 24.6161 50.7551 25.1343 51.1484C26.5594 52.0661 27.2072 52.9837 27.855 53.2459C28.3732 53.508 31.4825 54.2946 32.3894 54.1635C33.8145 54.1635 36.276 52.8526 36.5351 51.935C36.9238 50.7551 36.1465 49.1821 35.1101 49.1821C34.4623 49.1821 31.353 49.7064 28.7619 49.3131H28.6323Z" fill="url(#paint16_radial_15_293563)"/>
<path opacity="0.75" fill-rule="evenodd" clip-rule="evenodd" d="M31.0931 0.679926C37.5709 1.46647 45.8624 4.08829 48.9717 7.36556C53.247 8.80756 57.5222 13.2646 58.9473 17.5906C61.7975 21.5234 62.9636 28.6023 63.0931 33.0593C63.8705 34.5013 63.0931 37.5164 62.3158 40.9248C63.3522 37.9097 63.8704 35.2879 63.8704 33.0593C63.8704 32.1417 61.7976 20.2125 60.2429 17.3285C58.17 13.2646 52.2105 7.62774 51.4332 6.97228C47.8057 3.56392 35.498 0.417744 31.4818 0.155563C23.8381 -0.3688 8.55062 7.75883 5.05265 13.3957C3.62755 15.6243 0.259109 25.7183 0 28.6023C0 29.9132 0.259121 32.535 0.51823 35.0257C0.51823 32.9283 0.388679 29.651 0.647788 28.4712C1.81378 23.883 3.23887 18.2461 5.70041 14.0512C12.9555 7.10337 22.6721 1.72865 30.9636 0.942108L31.0931 0.679926Z" fill="url(#paint17_linear_15_293563)"/>
<path fill-rule="evenodd" clip-rule="evenodd" d="M6.0891 14.0505C7.25509 15.4925 7.5142 15.8858 9.06885 17.0656C9.06885 17.3278 9.06885 17.5899 9.06885 17.8521C8.29152 20.8672 7.12554 24.0134 5.95955 27.0285C5.57088 28.0772 5.57087 28.0772 4.53444 28.0772C3.62755 28.0772 2.9798 28.2083 1.94336 28.2083C3.88668 28.4705 5.70044 28.2083 5.95955 29.3881C6.34821 32.0099 6.60731 34.2385 6.47775 36.8603C6.21864 37.909 4.79354 38.4334 3.36844 38.8266C4.9231 38.5645 5.18223 38.5645 6.34822 38.0401C7.12555 37.6468 6.99599 38.0401 7.38465 38.8266C8.42109 41.7106 9.84618 44.4635 11.1417 47.2164C11.5304 48.1341 11.7895 48.3963 11.1417 49.1828C10.6235 49.8383 9.97574 50.3626 9.45752 51.0181C10.1053 50.4937 10.7531 49.9694 11.4008 49.5761C12.3077 49.0517 12.3077 49.1828 13.085 49.5761C14.7692 50.4937 16.3239 51.2803 18.0081 52.1979C16.0648 51.0181 14.1215 49.8383 12.5668 48.5274C10.494 45.3812 8.42108 40.9241 8.16197 37.2536C14.7693 33.8452 22.413 31.8788 30.1863 30.3057C33.166 27.2907 36.4049 24.4067 39.7733 21.5227C40.4211 20.9983 40.6802 20.7361 41.587 20.7361C42.3644 20.7361 43.0122 20.9983 43.7895 20.9983C44.3077 20.9983 44.6964 20.9983 45.2146 20.9983C47.2875 20.7361 49.2308 20.4739 51.3036 20.3428C52.081 20.3428 52.8583 20.3428 53.6356 20.3428C53.6356 20.4739 53.6356 20.7361 53.7652 20.8672C54.6721 23.3579 55.579 25.7176 56.3563 28.2083C56.8745 29.7814 57.1336 31.2234 57.5223 32.7965C57.7814 33.583 57.5223 33.7141 56.2267 34.1074C55.4494 34.3696 51.9514 36.5981 49.6195 37.5157C48.8421 38.9577 47.8057 40.2686 46.6397 41.5795C46.1215 44.9879 45.6033 48.3963 45.2146 51.9357C45.085 52.7223 45.2146 53.771 44.9555 54.5575C42.6235 55.6063 40.0324 56.2617 37.3118 57.1793C39.9029 56.655 42.4939 55.9995 45.085 55.3441C45.6032 55.3441 45.8624 55.3441 46.1215 55.6063C46.6397 55.9995 46.6397 56.2617 47.0284 56.7861C47.2875 56.7861 48.583 58.097 48.8421 58.3592C48.1943 57.7037 47.6761 56.9172 47.0284 56.2617C46.7692 55.8684 46.3806 55.0819 46.5101 54.5575C47.0283 53.6399 47.6761 53.2466 48.4535 52.4601C49.2308 51.4114 50.0081 50.4937 50.7854 49.445C50.5263 49.7072 48.9717 51.4114 47.6761 52.5912C46.8988 53.3777 46.1214 53.771 45.9919 53.771C45.7328 53.771 45.7328 52.8534 45.9919 51.9357C46.251 50.2315 46.3806 48.5274 46.6397 46.8232C46.7693 45.119 47.0283 43.4148 47.1579 41.7106C48.1943 40.3997 49.1012 39.0888 50.0081 37.7779C52.081 36.7292 54.2834 35.5494 56.4858 34.6317C58.0405 33.9763 57.7814 34.8939 57.6518 35.9426C57.1336 38.4334 55.8381 40.793 55.0607 43.0215C55.9676 41.0552 58.2996 37.5157 58.4292 36.5981C58.5587 35.8116 58.4292 34.8939 58.4292 34.1074C59.8543 33.7141 61.5385 33.4519 63.2227 33.3208C61.4089 33.3208 60.2429 33.3208 58.4292 33.7141C58.4292 33.583 58.4292 33.3208 58.4292 33.1897C58.0405 31.7477 57.5223 30.3057 57.0041 28.8637C56.6154 27.5528 56.4858 26.2419 56.2267 25.0621C55.8381 23.489 54.9312 22.047 54.8016 20.4739C54.8016 20.0807 55.5789 20.2117 55.7085 20.2117C56.7449 19.6874 57.7814 19.0319 58.8178 18.3765C57.9109 18.7698 57.1336 19.163 56.2267 19.4252C55.5789 19.6874 55.1903 19.6874 54.5425 19.6874C54.4129 19.6874 54.1539 19.6874 54.0243 19.4252C53.1174 18.2454 52.2105 16.8034 51.1741 15.6236C50.2672 14.5748 48.9717 13.6572 47.9352 12.7396C47.417 12.3463 47.2874 12.0841 47.417 11.4287C47.417 11.0354 47.417 10.6421 47.6761 10.2489C48.0648 9.46231 48.4535 8.80685 48.9717 8.1514C48.4535 8.80685 47.9352 9.5934 47.417 9.98667C47.417 9.98667 47.1579 10.511 47.0284 10.9043C46.6397 11.6908 46.3806 11.5598 45.6032 11.1665C43.4008 10.2489 41.4575 9.06903 39.2551 8.28249C37.7004 7.88922 31.6114 7.36485 31.7409 5.2674C31.7409 3.56322 31.6113 3.03886 31.4818 0.941406C31.4818 2.3834 31.4818 5.52958 30.9636 6.05395C30.5749 6.44722 30.1863 6.44722 29.5385 6.7094C27.4656 7.36485 25.1336 7.75813 22.9312 8.41358C20.7288 9.5934 10.1053 16.279 9.97573 16.279C9.06885 16.279 7.51419 15.3614 6.47775 14.3127L6.0891 14.0505ZM41.4575 19.2941C42.8826 16.9345 44.4372 14.5748 46.251 12.4774C46.251 12.3463 46.6397 12.2152 46.7692 12.3463C47.5466 12.7396 48.0648 13.395 48.7126 14.0505C49.8786 15.2303 51.0445 16.4101 52.081 17.721C52.3401 18.1143 52.5992 18.5076 52.8583 19.0319C52.9879 19.4252 53.247 19.6874 52.7287 19.8185C52.2105 20.0807 51.6923 20.0807 51.1741 20.0807C49.1012 20.3428 47.0283 20.7361 44.8259 20.7361C43.7895 20.7361 42.7531 20.4739 41.7166 20.2117C41.1984 20.0807 41.3279 19.8185 41.587 19.4252L41.4575 19.2941ZM9.32797 35.9426C15.9353 33.1897 22.5425 31.4856 29.2794 29.9125C32.5182 27.4217 37.3117 22.9647 40.0324 19.9496C41.8462 17.8521 43.4008 15.6236 45.4737 12.7396C45.4737 12.6085 45.6033 12.3463 45.7328 12.2152C45.7328 11.953 45.7328 11.6909 45.6032 11.5598C40.8097 9.46231 35.7571 7.75813 30.5749 6.84049C23.9676 8.41358 18.0081 11.0354 12.5668 15.0992C12.0486 15.4925 11.6599 15.7547 11.1417 16.1479C10.8826 16.4101 10.8826 16.9345 10.6235 17.3278C10.3644 17.5899 9.97572 17.721 9.71662 18.1143C8.16196 21.3916 7.38465 24.4067 6.34822 27.9461C6.34822 30.4368 6.47776 32.2721 6.86642 34.7628C7.12553 36.3359 7.64376 36.7292 9.32797 35.9426Z" fill="url(#paint18_radial_15_293563)"/>
<path fill-rule="evenodd" clip-rule="evenodd" d="M7.12576 36.861C7.38486 38.303 11.401 47.6105 12.0488 48.397C12.8261 49.4457 25.7816 57.1801 32.0002 57.7044C34.3322 57.8355 44.0488 55.2137 45.4739 54.0339C51.563 49.7079 57.2634 39.2206 57.652 33.8459C57.652 33.5837 57.652 33.3216 57.652 33.1905C57.652 32.4039 54.9314 22.3099 53.7654 20.0814C53.7654 20.0814 53.7654 19.9503 53.6358 19.8192C51.9516 16.8041 47.6763 12.7403 47.1581 12.347C46.899 12.2159 46.6399 11.9538 46.3808 11.8227C42.7533 9.46304 32.9071 6.97231 30.9638 6.57904C30.9638 6.57904 30.7047 6.57904 30.5751 6.57904C26.818 6.57904 13.2148 12.8714 9.97595 17.0663C9.97595 17.0663 9.84639 17.3285 9.71683 17.4596C8.55084 19.1638 6.08932 26.767 5.95976 28.8645C5.83021 30.5687 6.60753 35.5501 6.86664 36.9921L7.12576 36.861Z" fill="url(#paint19_linear_15_293563)"/>
<path fill-rule="evenodd" clip-rule="evenodd" d="M7.12576 36.861C7.38486 38.303 11.401 47.6105 12.0488 48.397C12.8261 49.4457 25.7816 57.1801 32.0002 57.7044C34.3322 57.8355 44.0488 55.2137 45.4739 54.0339C51.563 49.7079 57.2634 39.2206 57.652 33.8459C57.652 33.5837 57.652 33.3216 57.652 33.1905C57.652 32.4039 54.9314 22.3099 53.7654 20.0814C53.7654 20.0814 53.7654 19.9503 53.6358 19.8192C51.9516 16.8041 47.6763 12.7403 47.1581 12.347C46.899 12.2159 46.6399 11.9538 46.3808 11.8227C42.7533 9.46304 32.9071 6.97231 30.9638 6.57904C30.9638 6.57904 30.7047 6.57904 30.5751 6.57904C26.818 6.57904 13.2148 12.8714 9.97595 17.0663C9.97595 17.0663 9.84639 17.3285 9.71683 17.4596C8.55084 19.1638 6.08932 26.767 5.95976 28.8645C5.83021 30.5687 6.60753 35.5501 6.86664 36.9921L7.12576 36.861Z" fill="url(#paint20_linear_15_293563)"/>
<path opacity="0.5" fill-rule="evenodd" clip-rule="evenodd" d="M10.7532 16.935C14.8989 12.8712 27.2066 7.2343 30.8341 7.2343C30.8341 7.2343 31.0932 7.2343 31.2228 7.2343C33.0366 7.49648 41.7167 9.72502 45.8625 11.9536C46.1216 11.9536 46.2511 12.2157 46.5102 12.3468C46.5102 12.3468 46.6398 12.3468 46.7693 12.4779C47.0284 12.609 47.2876 12.8712 47.5467 13.0023C48.0649 13.3956 51.1742 16.4107 53.1175 19.1636C53.5062 19.6879 53.7653 20.0812 54.0244 20.4745C54.0244 20.4745 54.0244 20.6056 54.1539 20.7367C55.0608 22.4408 57.0041 29.2576 57.6519 32.4037C57.1337 29.913 54.9313 21.9165 53.8948 19.9501C53.8948 19.9501 53.8948 19.819 53.7653 19.6879C52.0811 16.6728 47.8058 12.609 47.2876 12.2157C47.0285 12.0847 46.7693 11.8225 46.5102 11.6914C42.8827 9.33175 33.0366 6.84103 31.0932 6.44775C31.0932 6.44775 30.8341 6.44775 30.7046 6.44775C26.9475 6.44775 13.3442 12.7401 10.1054 16.935C10.1054 16.935 9.97582 17.1972 9.84626 17.3283C8.80983 18.7703 6.86652 24.8005 6.21875 27.6845C6.99608 24.6694 8.68029 19.819 9.58717 18.2459C9.58717 18.2459 9.58717 18.2459 9.58717 18.1148C9.58717 18.1148 9.71671 17.8527 9.84626 17.7216C9.97582 17.4594 10.2349 17.1972 10.4941 16.935H10.7532Z" fill="#23110C"/>
<g clip-path="url(#clip0_15_293563)">
<path fill-rule="evenodd" clip-rule="evenodd" d="M44.8827 35.345C46.0269 36.6132 46.7102 38.6511 46.4684 40.1275C46.4137 40.4493 46.317 40.7395 46.1751 40.995C45.408 42.3515 44.7731 43.2159 43.8996 43.9604C43.8932 43.9604 43.8899 43.9667 43.8867 43.9699C43.8867 43.9699 43.8867 43.9699 43.8803 43.9699C43.6192 44.197 43.3323 44.4084 43.0132 44.6166C42.6136 44.8847 42.1623 45.1497 41.6402 45.4337C40.1866 46.2255 37.4437 45.5315 35.8708 44.1718C34.5235 42.9825 33.1988 41.7837 31.8902 40.5723C30.5784 41.7869 29.2505 42.9888 27.8968 44.1813C26.9459 45.0046 25.5664 45.5851 24.303 45.7397C23.4746 45.8406 22.6978 45.7586 22.1241 45.4463C21.4569 45.0835 20.9058 44.7522 20.4288 44.4115C19.2362 43.5598 18.511 42.6386 17.586 41.0045C17.5376 40.9225 17.4957 40.8278 17.4603 40.7364C17.3829 40.5502 17.3281 40.3483 17.2927 40.137C17.0928 38.9193 17.5247 37.3198 18.3241 36.0864C18.4949 35.8214 18.6786 35.5753 18.8817 35.3545C19.8937 34.2535 20.9122 33.1714 21.9436 32.0989C22.1499 31.8812 22.3594 31.6635 22.5689 31.4458C21.3345 30.1619 20.1064 28.8685 18.8913 27.5498C18.0598 26.6287 17.4731 25.3005 17.3088 24.0765C17.196 23.2532 17.2733 22.474 17.6021 21.903C18.8945 19.6253 19.8035 18.7388 22.137 17.4675C23.5939 16.6757 26.3368 17.3697 27.9064 18.7325C29.2537 19.9187 30.5784 21.1206 31.887 22.3288C33.202 21.1175 34.5267 19.9124 35.8805 18.7199C37.4533 17.3571 40.2027 16.6631 41.6563 17.4517C43.9899 18.7231 44.8956 19.6095 46.1945 21.8935C46.52 22.4645 46.5974 23.2405 46.4878 24.0671C46.3234 25.2911 45.7303 26.6255 44.8988 27.5467C43.6804 28.8653 42.4524 30.1682 41.2115 31.4553C41.421 31.673 41.6337 31.8907 41.8368 32.1083C42.865 33.1746 43.8803 34.2535 44.8859 35.3482L44.8827 35.345Z" fill="url(#paint21_radial_15_293563)"/>
<path fill-rule="evenodd" clip-rule="evenodd" d="M46.4844 40.2852C46.5199 40.5912 46.5231 40.8878 46.4973 41.1685L46.4812 41.3326C46.4329 41.6954 46.333 42.0234 46.175 42.3042C46.0848 42.4619 45.9945 42.6165 45.9075 42.7648C44.744 44.7144 43.8092 45.5661 41.6369 46.7428C40.1832 47.5378 37.4403 46.8406 35.8675 45.481C35.558 45.2065 35.2486 44.9352 34.9424 44.6576C33.911 43.7427 32.8925 42.8153 31.8869 41.8846C30.5751 43.0992 29.2471 44.3011 27.8934 45.4936C27.6291 45.7207 27.3358 45.9321 27.0167 46.1151C25.4374 47.0457 23.3327 47.4148 22.124 46.7586C19.7872 45.4904 18.8815 44.604 17.5858 42.3168C17.2925 41.8026 17.1991 41.1212 17.2635 40.3893C17.2732 40.3073 17.2796 40.2284 17.2925 40.1433C17.3538 39.6858 17.473 39.2126 17.6471 38.752C17.6471 38.752 17.6471 38.7426 17.6471 38.7394C17.6793 38.6574 17.7083 38.5691 17.747 38.4902C17.7534 38.4776 17.7567 38.4713 17.7599 38.4618C17.7953 38.3672 17.8405 38.2694 17.8856 38.1779C18.1499 37.6195 18.4851 37.0958 18.8751 36.6668C20.0934 35.345 21.3215 34.0421 22.5624 32.7582C22.3529 32.5405 22.1434 32.3228 21.9371 32.1052C20.9121 31.0389 19.8936 29.9568 18.888 28.8622C17.747 27.5971 17.0637 25.5592 17.3054 24.0828C17.357 23.761 17.4537 23.4677 17.5987 23.2153C18.8944 20.9313 19.8001 20.0417 22.1337 18.7735C23.5905 17.9817 26.3334 18.6757 27.9031 20.0385C29.2504 21.2247 30.5751 22.4266 31.8837 23.638C33.1987 22.4235 34.5234 21.2215 35.8771 20.0291C37.45 18.6631 40.1993 17.9691 41.653 18.7577C43.9865 20.0291 44.8922 20.9155 46.1911 23.1995C46.3362 23.4519 46.4297 23.7453 46.4844 24.0671C46.723 25.5466 46.0397 27.5877 44.8954 28.8558C43.8834 29.9568 42.8649 31.0389 41.8335 32.1115C41.6272 32.3291 41.4177 32.5468 41.2082 32.7645C42.4459 34.0453 43.6707 35.3418 44.8858 36.6605C45.7173 37.5785 46.3072 38.9066 46.4716 40.1338C46.478 40.1874 46.4844 40.2379 46.4877 40.2884L46.4844 40.2852Z" fill="url(#paint22_radial_15_293563)"/>
<path fill-rule="evenodd" clip-rule="evenodd" d="M17.7634 21.6821C17.7021 22.1238 17.686 22.5244 17.6022 22.9314C17.5829 23.0323 17.512 23.1806 17.4733 23.2942C17.4185 23.4582 17.3798 23.6286 17.3282 23.7926C17.2477 24.045 17.2573 24.3163 17.2573 24.6002C17.2573 24.7516 17.2573 24.9062 17.2573 25.0576C17.2573 25.1239 17.238 25.2091 17.2541 25.2721C17.267 25.3321 17.3186 25.3447 17.3347 25.4046C17.3669 25.5371 17.3025 25.6949 17.3282 25.8305C17.3508 25.9599 17.4217 26.1365 17.4765 26.2564C17.5732 26.4709 17.6441 26.6854 17.7795 26.881C17.9729 27.1586 18.1663 27.4268 18.321 27.7296C18.3822 27.8495 18.4241 27.9662 18.4821 28.083C18.5208 28.1587 18.6401 28.3227 18.6304 28.4079C18.4338 28.1902 18.379 27.941 18.221 27.6949C18.076 27.471 17.9664 27.228 17.7988 27.0261C17.6248 26.8179 17.4862 26.6634 17.3863 26.4078C17.2863 26.1555 17.1671 25.9031 17.0994 25.6349C17.0672 25.5056 17.0091 25.3857 16.9801 25.2627C16.964 25.1933 16.9866 25.1239 16.9769 25.0545C16.9672 24.9819 16.9318 24.9535 16.9189 24.8999C16.8577 24.616 16.906 24.2816 16.9028 23.985C16.9028 23.6538 17.022 23.3226 17.1381 23.0166C17.1735 22.9251 17.1671 22.821 17.2058 22.7326C17.2412 22.6506 17.3153 22.556 17.354 22.474C17.4346 22.3004 17.5055 22.0386 17.7666 21.6821H17.7634Z" fill="#00D5EA"/>
<path fill-rule="evenodd" clip-rule="evenodd" d="M28.9443 44.257C28.8218 44.4115 28.738 44.5851 28.5962 44.7396C28.377 44.9762 28.1611 45.2034 27.9 45.3958C27.7453 45.5062 27.6067 45.5283 27.4649 45.6703C27.3198 45.8185 27.1554 45.9542 27.0168 46.1088C25.4375 47.0394 23.3328 47.4085 22.1241 46.7523C19.7874 45.4841 18.8817 44.5977 17.586 42.3105C17.2604 41.7395 17.1831 40.9635 17.2927 40.137C17.0928 38.9193 17.5247 37.3198 18.3241 36.0864C18.1951 36.5406 17.9921 37.017 17.9792 37.4933C17.9792 37.6353 17.9985 37.7804 17.9663 37.9129C17.9534 37.9539 17.9212 38.0107 17.9083 38.0675C17.8986 38.1085 17.8954 38.1401 17.8922 38.1748C17.8857 38.2095 17.8793 38.241 17.8567 38.282C17.8277 38.342 17.7955 38.3987 17.7665 38.4587C17.76 38.4681 17.7568 38.4745 17.7536 38.4871C17.7084 38.5691 17.6698 38.6511 17.6536 38.7363C17.6536 38.7363 17.6536 38.7458 17.6536 38.7489C17.644 38.8025 17.6472 38.8562 17.6633 38.9161C17.7149 39.1054 17.8825 39.3483 17.8245 39.5502C17.7665 39.7647 17.6794 39.9603 17.6085 40.1811C17.5731 40.2979 17.5054 40.4114 17.4764 40.5313C17.4635 40.5944 17.4635 40.6638 17.4635 40.7364C17.4635 40.8468 17.4796 40.9635 17.4796 41.0644C17.4731 41.3988 17.6343 41.7805 17.7471 42.0992C17.8309 42.3295 17.9598 42.5187 18.1081 42.7175C18.2886 42.9572 18.4594 43.1875 18.6303 43.4367C18.7785 43.6544 18.9429 43.8626 19.0525 44.0929C19.1717 44.3421 19.2588 44.4526 19.565 44.4715C19.8647 44.4904 20.1451 44.4084 20.432 44.4115C20.5319 44.4115 20.635 44.4242 20.735 44.4494C21.0863 44.5472 21.3635 44.727 21.6439 44.9321C21.8244 45.0583 22.0758 45.0835 22.2917 45.1213C22.4883 45.156 22.6753 45.2286 22.8816 45.2475C23.2458 45.2822 23.6132 45.3485 23.9355 45.5283C24.0548 45.5945 24.1869 45.6639 24.3062 45.7397C24.3771 45.7838 24.448 45.828 24.5125 45.8785C24.6833 46.011 24.8251 46.1592 25.0314 46.2507C25.2957 46.3674 25.6277 46.2917 25.892 46.2129C26.1724 46.1308 26.4431 46.0583 26.6978 45.8942C26.9524 45.7333 27.2231 45.6009 27.4358 45.3832C27.5777 45.2381 27.7582 45.1813 27.9064 45.033C28.0418 44.8942 28.1772 44.787 28.3383 44.6828C28.5446 44.5503 28.7928 44.4242 28.9539 44.2507L28.9443 44.257Z" fill="#00D5EA"/>
<path fill-rule="evenodd" clip-rule="evenodd" d="M45.9075 42.7616C44.7439 44.7112 43.8092 45.5629 41.6368 46.7396C40.1832 47.5346 37.4403 46.8374 35.8674 45.4778C35.558 45.2033 35.2486 44.932 34.9424 44.6544C35.1325 44.7617 35.2711 44.8342 35.4581 44.9099C35.5741 44.9604 35.6934 45.0203 35.8062 45.0803C36.0382 45.2033 36.2284 45.3705 36.4734 45.4746C36.7731 45.604 37.0245 45.8374 37.3146 45.9857C37.4629 46.0614 37.595 46.1655 37.7433 46.2349C37.9044 46.3106 38.0946 46.339 38.2687 46.3895C38.5491 46.4715 38.8617 46.462 39.1453 46.4052C39.3097 46.3705 39.4483 46.3705 39.6159 46.3705C39.8061 46.3705 39.9672 46.3043 40.1542 46.2948C40.686 46.2728 41.163 46.4557 41.6658 46.2286C41.8463 46.1434 41.9978 46.0235 42.1686 45.9194C42.2524 45.8658 42.3588 45.8216 42.4233 45.7396C42.5329 45.604 42.578 45.3926 42.6747 45.2412C42.81 45.0298 42.8777 44.8058 43.0196 44.6071C43.055 44.5566 43.0937 44.5093 43.1388 44.4651C43.2484 44.3579 43.3644 44.3011 43.4934 44.2159C43.6255 44.1307 43.7577 44.0424 43.893 43.9572C43.893 43.9572 43.8995 43.9509 43.9059 43.9478C44.0413 43.8594 44.1831 43.7711 44.3281 43.6922C44.8696 43.3988 45.3789 43.0518 45.9171 42.7521L45.9075 42.7616Z" fill="#00D5EA"/>
<path fill-rule="evenodd" clip-rule="evenodd" d="M20.7094 19.3603C20.342 19.6316 20.0196 19.8871 19.6812 20.19C19.5265 20.3288 19.3363 20.4833 19.2783 20.6821C19.3815 20.7326 19.5845 20.6379 19.7006 20.6127C19.9165 20.5685 20.1518 20.477 20.3645 20.4139C20.7062 20.313 21.0704 20.3414 21.4281 20.3445C21.6183 20.3445 21.7891 20.3414 21.9664 20.2688C22.2275 20.1616 22.4144 19.9944 22.6529 19.8524C22.8141 19.7578 22.9398 19.6316 23.0945 19.5275C23.2943 19.3918 23.5264 19.3035 23.752 19.2183C24.1066 19.0827 24.445 18.9596 24.8124 18.8682C24.922 18.8398 25.2798 18.7735 25.3185 18.6599C25.37 18.5148 25.1057 18.3571 25.009 18.3192C24.7738 18.2246 24.4805 18.2372 24.2291 18.2372C24.0582 18.2372 23.9164 18.1773 23.7488 18.1615C23.6263 18.1489 23.4942 18.1647 23.3685 18.1647C23.1138 18.1647 22.8818 18.212 22.6336 18.2498C22.4241 18.2814 22.2436 18.3476 22.0599 18.4454C21.4249 18.783 20.7932 18.8618 20.7094 19.3603Z" fill="#009896"/>
<path fill-rule="evenodd" clip-rule="evenodd" d="M26.4594 19.0101C26.4369 19.1963 26.4562 19.3792 26.511 19.5527C26.5916 19.5622 26.5948 19.6284 26.6432 19.6789C26.7076 19.742 26.7785 19.7767 26.8527 19.8272C26.9913 19.9187 27.0815 20.007 27.2459 20.048C27.4199 20.0922 27.5005 20.0449 27.4651 19.8524C27.4006 19.4991 27.0235 19.253 26.7431 19.0795L26.4562 19.0101H26.4594Z" fill="#009896"/>
<path fill-rule="evenodd" clip-rule="evenodd" d="M37.0987 18.9376C36.8344 19.0795 36.6636 19.1584 36.4573 19.3571C36.2833 19.5243 36.0706 19.6568 35.8772 19.8019C35.629 19.9849 35.1939 20.2278 35.1133 20.5496C35.1939 20.5875 35.3776 20.4581 35.4614 20.4203C35.6451 20.3351 35.8191 20.2404 36.0029 20.1521C36.4025 19.9628 36.8731 19.8493 37.3179 19.8556C37.8401 19.865 38.3396 19.5086 38.749 19.2278C38.981 19.0669 39.2228 18.8429 39.4742 18.723C39.5773 18.6726 39.9157 18.6126 39.8996 18.458C39.7772 18.417 39.6063 18.4454 39.4774 18.4454C39.2196 18.4454 38.9327 18.4139 38.6781 18.4517C38.4589 18.4833 38.2397 18.5274 38.0205 18.5685C37.8884 18.5937 37.753 18.6063 37.6209 18.6316C37.3566 18.6852 37.2212 18.8271 37.0278 19.0101L37.0987 18.9407V18.9376Z" fill="#009896"/>
<path fill-rule="evenodd" clip-rule="evenodd" d="M21.9407 32.1051C23.981 33.8181 28.4386 36.0453 34.9428 36.0927C41.4471 36.14 45.8016 38.0138 45.8016 38.0138L45.4212 37.3514C45.4212 37.3514 41.5922 36.5343 38.6817 36.0895C35.7712 35.6447 35.5907 35.4333 32.4643 35.6447C29.3378 35.8561 24.342 33.6888 21.251 31.449L21.9407 32.102V32.1051Z" fill="#00D5EA"/>
<path fill-rule="evenodd" clip-rule="evenodd" d="M34.6204 44.3673C35.8065 43.7049 39.2392 41.5565 42.0401 41.5912C44.8442 41.6259 45.7757 42.9793 45.7757 42.9793L45.4179 43.5314C45.4179 43.5314 44.2221 41.6796 41.0699 41.8625C37.9177 42.0487 35.1845 44.7838 35.1845 44.7838L34.6172 44.3642L34.6204 44.3673Z" fill="#00D5EA"/>
<path fill-rule="evenodd" clip-rule="evenodd" d="M29.0472 44.3358C29.3373 44.0329 29.6273 43.7301 29.911 43.4209C30.0818 43.2348 30.3042 43.0235 30.4331 42.8089C30.5427 42.6291 30.6265 42.4588 30.6652 42.26C30.6974 42.1054 30.7168 41.9572 30.7715 41.8058C30.8102 41.7048 30.8167 41.5975 30.8489 41.4966C30.8876 41.3736 30.9843 41.2884 31.0423 41.1717C31.1035 41.0518 31.0971 40.9729 31.2163 40.8846C31.3034 40.8183 31.4581 40.7836 31.5644 40.7489C31.8513 40.6606 32.1994 40.648 32.4991 40.6732C32.7473 40.6953 32.8956 40.8909 32.9439 41.1117C33.0084 41.402 32.9601 41.6701 32.9955 41.9635C33.0213 42.1843 33.1438 42.3673 33.234 42.5629C33.321 42.7522 33.392 42.8373 33.3049 43.0171C33.2276 43.178 33.1824 43.1686 33.0535 43.0171C32.8376 42.7679 32.5475 42.5755 32.2993 42.3484C32.2542 42.3073 32.2091 42.2663 32.1672 42.2285C32.1027 42.1685 32.0415 42.0834 31.977 42.0266C31.9093 41.9698 31.732 41.9162 31.6547 41.8846C31.558 41.9982 31.4645 42.1181 31.3678 42.2285C31.2615 42.3484 31.1648 42.5187 31.0455 42.6323C30.7715 42.8941 30.475 43.0865 30.1592 43.3074C29.94 43.462 29.7047 43.6323 29.5339 43.8405C29.4146 43.9856 29.3211 44.0897 29.1729 44.197C28.973 44.3421 28.7571 44.4841 29.0439 44.339L29.0472 44.3358Z" fill="#00D5EA"/>
<path fill-rule="evenodd" clip-rule="evenodd" d="M21.5732 31.7424C21.6699 32.0831 21.7151 32.2976 21.7183 32.6225C21.7183 32.7739 21.7183 32.9285 21.7183 33.0799C21.7183 33.1714 21.6603 33.4333 21.7892 33.4396C21.8665 33.4459 21.9922 33.2661 22.0406 33.2187C22.2211 33.0547 22.437 32.9001 22.5273 32.673C22.5627 32.5878 22.595 32.6383 22.5692 32.531C22.5627 32.5026 22.4789 32.4111 22.4564 32.3733C22.3146 32.1335 22.0954 31.9663 21.8633 31.8086L21.5765 31.7392L21.5732 31.7424Z" fill="#00D5EA"/>
<path fill-rule="evenodd" clip-rule="evenodd" d="M17.3313 26.045C17.4151 26.5056 17.5183 26.8968 17.673 27.3132C17.7729 27.5814 17.9566 27.8337 18.1017 28.083C18.2693 28.37 18.5948 28.4931 18.8204 28.736C18.9204 28.8432 19.0783 29.1934 19.2588 29.1997C19.2556 29.1272 19.1524 29.0672 19.1073 29.0041C19.0396 28.9032 18.9687 28.7833 18.9107 28.6792C18.8301 28.5341 18.7592 28.3858 18.6786 28.2439C18.5916 28.0861 18.4466 27.9599 18.3499 27.8022C18.2757 27.6823 18.1629 27.6003 18.0888 27.4836C18.0147 27.3637 17.9599 27.228 17.8857 27.105C17.7439 26.8779 17.4603 26.452 17.3281 26.045H17.3313Z" fill="#00D5EA"/>
<path fill-rule="evenodd" clip-rule="evenodd" d="M46.5135 24.2847C46.4877 24.4614 46.4878 24.7832 46.4265 24.9724C46.4104 25.0198 46.3717 25.0828 46.3556 25.1428C46.3201 25.2627 46.2686 25.3794 46.2299 25.4961C46.1977 25.5939 46.1268 25.6759 46.0977 25.7643C45.9849 26.086 45.9817 26.4394 45.8335 26.7769C45.653 27.1933 45.4209 27.5719 45.2211 27.9788C45.1437 28.1366 45.0567 28.288 44.9664 28.4363C44.9052 28.5372 44.873 28.6697 44.7988 28.758C44.9342 28.7265 45.0921 28.5372 45.1759 28.4363C45.2823 28.3038 45.3887 28.1744 45.5047 28.0419C45.6465 27.881 45.7625 27.7107 45.885 27.534C45.9398 27.4552 46.0301 27.4078 46.0849 27.3353C46.1525 27.247 46.1816 27.1334 46.246 27.0419C46.3749 26.8495 46.4555 26.657 46.5232 26.4299C46.6102 26.146 46.5812 25.8557 46.6425 25.5655C46.6973 25.3037 46.665 25.0198 46.6038 24.7737C46.5812 24.6822 46.5973 24.597 46.5716 24.5087C46.5619 24.4772 46.5264 24.433 46.5135 24.3888C46.4974 24.332 46.5232 24.2816 46.5039 24.2216C46.4845 24.2185 46.4652 24.2122 46.5168 24.2784L46.5135 24.2847Z" fill="#00D5EA"/>
<g style="mix-blend-mode:multiply">
<path fill-rule="evenodd" clip-rule="evenodd" d="M43.1713 30.0199C42.1302 31.0388 40.8571 32.1745 39.2874 32.2439C38.4011 32.2818 37.6469 31.9758 36.7927 31.8086C35.5196 31.5594 34.0853 31.755 32.8573 31.3259C31.6776 30.9158 30.8815 30.0041 30.859 28.7549C30.8396 27.5498 31.3295 26.4583 32.0386 25.5056C32.535 24.8368 33.0346 24.0481 33.6792 23.4992C34.269 22.9976 34.8685 22.5023 35.4358 21.9755C36.074 21.3856 36.6509 20.8303 37.4309 20.4076C38.1755 20.007 38.9651 19.7136 39.8096 19.5905C40.567 19.4801 41.434 19.742 42.1012 20.0701C42.9296 20.4739 43.384 21.0922 43.9545 21.7862C44.5186 22.4708 44.9215 23.2373 45.0923 24.1112C45.1535 24.4203 45.2341 24.7484 45.2341 25.0607C45.2309 25.4614 45.1084 25.8873 45.0085 26.2753C44.8473 26.9062 44.7926 27.6223 44.5315 28.2154C44.3897 28.5372 44.1898 28.8306 44.0448 29.1492C43.8869 29.4931 43.5355 29.6918 43.1778 30.0167L43.1713 30.0199Z" fill="#B7E7FF"/>
</g>
<g style="mix-blend-mode:multiply">
<path fill-rule="evenodd" clip-rule="evenodd" d="M31.42 24.3194C31.4265 24.7579 31.4491 24.9756 31.3234 25.3415C31.2138 25.657 31.0752 25.9409 30.8915 26.2185C30.5562 26.717 30.1598 27.3858 29.4926 27.4772C29.1252 27.5277 28.7577 27.3826 28.4193 27.2596C27.9229 27.0798 27.4298 26.8684 27.014 26.5466C26.3887 26.0671 25.7925 25.0986 25.7119 24.3226C25.6281 23.5339 26.0439 22.8557 26.6917 22.4203C27.014 22.2026 27.3202 22.0197 27.7134 22.0039C28.1228 21.985 28.5644 22.1553 28.9543 22.272C30.1082 22.6222 31.1203 23.4897 31.4297 24.3226L31.42 24.3194Z" fill="#B7E7FF"/>
</g>
<g style="mix-blend-mode:soft-light" opacity="0.5">
<path fill-rule="evenodd" clip-rule="evenodd" d="M38.7527 32.9758C38.295 32.4458 37.9759 32.2376 37.2958 32.0326C36.764 31.8717 36.2902 31.7581 35.7358 31.8338C35.2298 31.9032 34.7657 32.0799 34.2854 32.2313C34.0372 32.3102 33.8245 32.4174 33.5892 32.5247C33.2443 32.6856 32.8737 32.7392 32.5256 32.8906C32.0067 33.1146 31.4394 33.3007 30.9914 33.6478C30.7432 33.8402 30.6787 34.0768 30.8753 34.3449C31.0913 34.6415 31.5876 34.8024 31.91 34.9254C32.3064 35.0768 32.7222 35.1431 33.1283 35.2661C33.4603 35.367 33.7697 35.468 34.1146 35.5311C34.6883 35.6352 35.2556 35.6068 35.8357 35.6068C37.1798 35.6068 38.5947 35.7267 39.9291 35.5847C40.6414 35.509 41.3602 35.5342 42.066 35.4238C42.3432 35.3797 42.6301 35.3576 42.6913 35.0263C42.7816 34.5468 42.0209 34.0389 41.6761 33.8118C41.2989 33.5626 40.9122 33.4427 40.4996 33.2629C40.1257 33.0988 39.7841 32.9001 38.7494 32.9727L38.7527 32.9758Z" fill="#24F8EB"/>
</g>
<g style="mix-blend-mode:soft-light">
<path fill-rule="evenodd" clip-rule="evenodd" d="M30.7717 37.0895C30.4945 36.916 30.2269 36.733 29.9659 36.5375C29.7596 36.4964 29.5565 36.446 29.3535 36.3923C28.8152 36.2378 28.3027 36.1368 27.758 36.0232C26.775 35.8182 25.8177 35.5721 24.8701 35.263C23.9032 34.9475 23.7098 33.796 22.543 33.7361C22.1369 33.714 21.5728 34.1431 21.2892 34.4112C20.8637 34.8119 20.4802 35.2157 20.1353 35.6857C19.8452 36.08 19.4746 36.4239 19.2393 36.8403C18.9653 37.3293 18.6301 37.7394 18.4077 38.2568C18.166 38.8246 17.9371 39.4492 17.9629 40.077C18.0016 40.9982 18.5141 41.5976 19.1587 42.2001C19.6744 42.6828 20.5737 42.932 21.2795 43.014C22.1498 43.1149 23.0361 42.9036 23.8419 42.6134C24.5381 42.361 25.302 42.3578 26.0304 42.2695C26.5429 42.2064 26.9813 42.0329 27.4679 41.8783C27.7999 41.7742 28.119 41.7143 28.4027 41.5061C29.1762 40.9382 29.7789 40.0612 30.1786 39.2095C30.4042 38.73 30.5235 37.9918 30.4622 37.4649C30.4236 37.1337 30.256 36.8498 30.7717 37.0927V37.0895Z" fill="#6DBECC"/>
</g>
<g style="mix-blend-mode:multiply" opacity="0.2">
<path fill-rule="evenodd" clip-rule="evenodd" d="M38.4656 42.7175C38.2948 42.7711 38.0466 42.8058 37.8694 42.8689C37.7275 42.9194 37.6018 43.0361 37.4761 43.1181C37.1345 43.3389 36.809 43.6292 36.5189 43.9131C36.348 44.0803 36.0483 44.3169 36.0805 44.6008C36.0999 44.7617 36.3287 44.9478 36.4609 45.0361C36.709 45.2033 36.9604 45.2854 37.2376 45.3895C37.5342 45.4999 37.8661 45.6166 38.1723 45.6923C38.5527 45.7869 38.9266 45.7239 39.3069 45.6576C39.7485 45.5819 40.1965 45.2475 40.5349 44.9699C40.8862 44.6797 41.1602 44.5219 41.5889 44.3705C41.9499 44.2412 42.3689 44.1623 42.6976 43.9509C43.1231 43.6765 43.0489 43.0866 42.6654 42.8216C42.1787 42.484 41.5115 42.4335 40.9313 42.4335C40.0256 42.4367 38.8943 42.4083 38.456 42.7143L38.4656 42.7175Z" fill="#328A92"/>
</g>
<g style="mix-blend-mode:soft-light">
<path fill-rule="evenodd" clip-rule="evenodd" d="M44.8602 40.2568C44.554 40.5565 44.3155 40.831 43.919 40.9982C43.3679 41.2253 42.7458 41.1401 42.1689 41.2064C41.3889 41.2947 40.5348 41.2379 39.7773 41.465C39.1005 41.6669 38.4172 41.8278 37.7596 42.0739C37.5501 42.1528 37.3277 42.1812 37.1086 42.2127C36.9087 42.2411 36.7766 42.1906 36.5832 42.1433C36.1932 42.0455 35.742 41.708 35.4712 41.4209C35.3294 41.2695 35.2907 41.0833 35.2295 40.8941C35.1263 40.588 35.0168 40.301 35.0071 39.976C34.9877 39.4303 35.0941 38.8467 35.3842 38.3703C35.7001 37.8498 36.3221 37.6763 36.8443 37.4397C37.4825 37.1495 38.198 37.0138 38.8974 37.017C40.1996 37.017 41.4824 37.2851 42.7587 37.4933C43.3421 37.588 43.8836 37.8277 44.4154 38.0738C44.7474 38.2284 45.06 38.4239 45.2953 38.7047C45.4855 38.935 45.55 39.2473 45.4919 39.5344C45.3727 40.1401 44.8441 40.4335 44.8602 40.2537V40.2568Z" fill="#6DBECC"/>
</g>
<g style="mix-blend-mode:multiply" opacity="0.2">
<path fill-rule="evenodd" clip-rule="evenodd" d="M26.3145 33.714C26.7883 33.9601 27.2653 34.1683 27.7713 34.3513C27.9776 34.4238 28.1807 34.4522 28.3869 34.5059C28.5932 34.5595 28.7512 34.6478 28.9703 34.6352C29.8921 34.5784 30.353 33.7487 31.0009 33.2219C31.3329 32.9506 31.768 32.6698 31.8711 32.2377C31.984 31.7581 31.8873 31.266 31.6906 30.8149C31.4425 30.2502 31.1395 29.7108 30.9139 29.1398C30.8268 28.9221 30.6979 28.7549 30.569 28.5625C30.4078 28.3196 30.2854 28.0956 30.0372 27.9284C29.486 27.553 28.9349 27.3668 28.2709 27.2943C27.926 27.2564 27.5908 27.2501 27.2427 27.247C26.7786 27.247 26.3306 27.1302 25.8793 27.0325C25.0091 26.8463 24.1808 26.5025 23.3073 26.3227C22.9431 26.2469 22.5789 26.1933 22.2082 26.1807C21.815 26.1681 21.3573 26.1334 20.977 26.2501C20.1261 26.5088 19.7586 27.4993 19.8521 28.3069C19.9133 28.8464 20.0938 29.2849 20.3227 29.7707C20.4226 29.9821 20.4967 30.2029 20.6063 30.4111C20.732 30.6509 20.9189 30.8464 21.093 31.0578C21.2896 31.2944 21.5184 31.4364 21.7731 31.6004C22.0664 31.7865 22.3403 31.9758 22.6594 32.1146C22.9527 32.244 23.2364 32.3891 23.5168 32.5374C23.8101 32.6919 24.1227 32.7487 24.4289 32.8686C24.8157 33.0232 25.1477 33.2755 25.5151 33.468C25.9567 33.6951 26.3564 33.9885 26.3048 33.714H26.3145Z" fill="#328A92"/>
</g>
<g style="mix-blend-mode:multiply" opacity="0.3">
<path fill-rule="evenodd" clip-rule="evenodd" d="M23.2099 40.7868C23.1068 40.7868 23.0617 40.7616 22.9972 40.8436C22.9617 40.8878 22.9295 40.9288 22.9005 40.9792C22.8522 41.0676 22.8328 41.1496 22.8103 41.2474C22.7909 41.3294 22.7812 41.3893 22.7812 41.4777C22.7812 41.5597 22.807 41.607 22.836 41.6796C22.9102 41.8594 23.0874 41.8972 23.2357 41.9319C23.3872 41.9667 23.5774 41.9162 23.7127 41.8342C23.8578 41.749 23.9996 41.5912 23.9996 41.3893C23.9996 41.2505 23.9448 41.1244 23.8868 41.0076C23.8546 40.9477 23.8255 40.8972 23.774 40.8625C23.7127 40.8215 23.6612 40.8278 23.5967 40.8152C23.5355 40.8026 23.4742 40.7773 23.4098 40.7616C23.3453 40.7458 23.2776 40.7553 23.2131 40.7836L23.2099 40.7868Z" fill="#00A695"/>
</g>
<g style="mix-blend-mode:multiply" opacity="0.3">
<path fill-rule="evenodd" clip-rule="evenodd" d="M40.5153 27.3574C40.2252 27.5435 39.6773 27.8716 39.7998 28.3763C39.8481 28.5751 39.9996 28.8369 40.1286 28.9789C40.1962 29.0546 40.2575 29.1618 40.3316 29.2249C40.4734 29.3479 40.641 29.3669 40.8119 29.3637C41.0149 29.3637 41.218 29.3637 41.4178 29.3637C41.6112 29.3637 41.7756 29.4142 41.9625 29.4615C42.1366 29.5057 42.3944 29.4899 42.5717 29.4678C42.6909 29.4521 42.7876 29.3953 42.8972 29.3416C42.9552 29.3132 43.0165 29.2975 43.0745 29.2722C43.1486 29.2407 43.1841 29.1965 43.2518 29.1524C43.3356 29.0956 43.4194 29.0766 43.4999 29.0136C43.5612 28.9631 43.6321 28.9221 43.6901 28.8684C43.819 28.7454 43.8932 28.6318 43.8835 28.4362C43.8771 28.2911 43.8029 28.2091 43.7352 28.1019C43.6547 27.9757 43.5257 27.8716 43.4161 27.7801C43.3001 27.6854 43.1841 27.5403 43.0487 27.4835C42.9842 27.4551 42.8972 27.4204 42.8295 27.4047C42.7973 27.3984 42.7619 27.4173 42.7296 27.411C42.6781 27.3984 42.6458 27.3668 42.5942 27.3542C42.417 27.3163 42.2333 27.2659 42.0592 27.1996C41.9819 27.1712 41.9142 27.1586 41.8368 27.1365C41.7659 27.1176 41.6982 27.0577 41.6241 27.0419C41.2309 26.9599 40.8344 27.2154 40.5153 27.3542V27.3574Z" fill="#00A695"/>
</g>
<g style="mix-blend-mode:multiply" opacity="0.3">
<path fill-rule="evenodd" clip-rule="evenodd" d="M38.8516 28.6445C38.7581 28.7139 38.6034 28.8022 38.5228 28.9126C38.4906 28.9568 38.4712 29.0167 38.439 29.0577C38.3778 29.1303 38.3133 29.1871 38.2553 29.2628C38.2166 29.3133 38.1779 29.3669 38.1296 29.4047C38.0716 29.4489 38.0103 29.4615 37.9555 29.5183C37.8975 29.5783 37.8492 29.6319 37.7879 29.6855C37.6945 29.7675 37.5752 29.8969 37.5398 30.0357C37.4979 30.2155 37.514 30.5562 37.6558 30.6698C37.8556 30.8275 38.1296 30.7486 38.3391 30.6698C38.468 30.6193 38.5937 30.5373 38.7227 30.4994C38.8129 30.4742 38.9096 30.4616 38.9998 30.4269C39.1868 30.3511 39.4511 30.1587 39.5445 29.9473C39.6348 29.7455 39.5188 29.4805 39.4156 29.307C39.3479 29.1934 39.2803 29.0483 39.1965 28.9568C39.0772 28.8274 38.8387 28.7738 38.8516 28.6476V28.6445Z" fill="#00A695"/>
</g>
<g style="mix-blend-mode:multiply" opacity="0.3">
<path fill-rule="evenodd" clip-rule="evenodd" d="M22.1047 39.9193C22.1369 39.9792 22.2046 40.0707 22.2207 40.137C22.2272 40.1685 22.2175 40.2032 22.2207 40.2316C22.2272 40.2663 22.2433 40.2947 22.2465 40.3326C22.2497 40.3704 22.2465 40.4083 22.2465 40.4461C22.2465 40.5092 22.2304 40.5502 22.2239 40.607C22.211 40.708 22.1691 40.8184 22.1305 40.9067C22.066 41.0518 22.0112 41.2033 21.9371 41.3389C21.8823 41.4399 21.8146 41.4872 21.7211 41.5124C21.6953 41.5187 21.6631 41.5029 21.6373 41.5124C21.6115 41.5187 21.589 41.5377 21.56 41.544C21.4858 41.5566 21.4149 41.5345 21.3408 41.5566C21.2795 41.5755 21.2183 41.5724 21.1538 41.5724C21.0797 41.5724 21.0153 41.5755 20.9476 41.5944C20.8702 41.6134 20.78 41.6007 20.6994 41.6007C20.6349 41.6007 20.5834 41.5755 20.5189 41.5724C20.4544 41.5692 20.3867 41.5724 20.3223 41.5724C20.2449 41.5724 20.174 41.6039 20.0967 41.6007C20.0225 41.6007 19.9516 41.6007 19.8807 41.585C19.8034 41.566 19.7389 41.5408 19.6615 41.5061C19.5229 41.443 19.4005 41.3831 19.3134 41.2285C19.1845 40.9982 19.1201 40.6323 19.2296 40.3736C19.2651 40.2916 19.3199 40.2032 19.3424 40.118C19.3682 40.0329 19.394 39.954 19.4327 39.8751C19.4746 39.7931 19.5036 39.73 19.5584 39.6606C19.6325 39.5723 19.7002 39.4808 19.7905 39.4177C19.9419 39.3105 20.087 39.1843 20.2707 39.1748C20.3481 39.1716 20.4254 39.1748 20.5028 39.1748C20.5737 39.1748 20.6349 39.2032 20.7026 39.2032C20.7703 39.2032 20.8251 39.2316 20.8896 39.2316C20.9282 39.2316 20.9701 39.2253 21.0088 39.2316C21.041 39.2379 21.07 39.2568 21.1023 39.2631C21.1732 39.2726 21.2248 39.2726 21.2892 39.3041C21.3537 39.3357 21.4117 39.3735 21.4762 39.4019C21.6051 39.4556 21.7501 39.4619 21.8758 39.5313C21.9177 39.5565 21.9983 39.6322 22.0305 39.6764C22.0789 39.7458 22.095 39.8499 22.1014 39.9162L22.1047 39.9193Z" fill="#00A695"/>
</g>
<g style="mix-blend-mode:multiply" opacity="0.3">
<path fill-rule="evenodd" clip-rule="evenodd" d="M19.191 40.79C19.2103 40.5912 19.2038 40.424 19.2715 40.2442C19.2877 40.1969 19.2973 40.1433 19.3199 40.0991C19.3489 40.0392 19.4069 39.9792 19.4585 39.9414C19.5906 39.8341 19.7389 39.7994 19.8775 39.7205C20.0096 39.6448 20.145 39.5754 20.29 39.5533C20.4125 39.5344 20.5447 39.5533 20.6672 39.5533C20.7155 39.5533 20.7832 39.5376 20.8251 39.588C20.867 39.6417 20.8895 39.7205 20.9411 39.7679C21.0507 39.8625 21.2634 39.8278 21.373 39.7552C21.4665 39.6921 21.6051 39.6322 21.7114 39.6669C21.7437 39.6764 21.7824 39.7142 21.8146 39.7332C21.8597 39.7552 21.9016 39.7773 21.9403 39.812C21.9693 39.8404 22.0048 39.872 22.0338 39.9004C22.0628 39.9287 22.1079 39.9634 22.1337 40.0013C22.1337 39.913 22.037 39.7679 21.9951 39.7111C21.9629 39.6669 21.9371 39.6164 21.9016 39.5754C21.8629 39.5313 21.821 39.4966 21.7791 39.4587C21.7405 39.424 21.705 39.3956 21.6567 39.383C21.6341 39.3767 21.6148 39.383 21.5922 39.383C21.5567 39.383 21.5406 39.3672 21.5084 39.3577C21.4633 39.3451 21.4149 39.3672 21.373 39.3577C21.3053 39.342 21.2312 39.3073 21.1667 39.2789C21.0024 39.2032 20.8219 39.2379 20.6543 39.1906C20.5608 39.1653 20.4544 39.1842 20.3577 39.1842C20.2449 39.1842 20.1321 39.1937 20.0193 39.2253C19.9774 39.2379 19.9323 39.2536 19.8936 39.2726C19.8453 39.2978 19.8098 39.3546 19.7647 39.3861C19.7324 39.4082 19.697 39.4145 19.6648 39.4398C19.6164 39.4776 19.581 39.5407 19.5391 39.588C19.4295 39.7016 19.3263 39.8057 19.2812 39.9887C19.249 40.1149 19.1652 40.2284 19.1523 40.3609C19.1458 40.4366 19.1523 40.5155 19.1523 40.5912C19.1523 40.6259 19.1458 40.6701 19.1523 40.7048C19.1587 40.7458 19.1813 40.7742 19.1942 40.79H19.191Z" fill="#00928B"/>
</g>
<g style="mix-blend-mode:multiply" opacity="0.3">
<path fill-rule="evenodd" clip-rule="evenodd" d="M40.1796 29.0641C40.1538 28.9757 40.1377 28.8937 40.0958 28.8243C40.07 28.7801 40.0442 28.736 40.0216 28.695C39.9797 28.6224 39.8895 28.5593 39.8831 28.4741C39.8734 28.3669 39.8959 28.2848 39.9411 28.1965C40.0313 28.0167 40.1441 27.8684 40.2731 27.7454C40.344 27.6792 40.4213 27.6097 40.5019 27.5624C40.576 27.5183 40.6566 27.493 40.7307 27.4489C40.7855 27.4173 40.8339 27.3795 40.8919 27.3605C40.9564 27.3384 41.0176 27.3416 41.0853 27.3416C41.1755 27.3416 41.2658 27.3321 41.3496 27.3731C41.3818 27.3889 41.385 27.411 41.4044 27.4489C41.4205 27.4836 41.443 27.5025 41.4688 27.5277C41.5301 27.594 41.5913 27.6508 41.6719 27.6634C41.7235 27.6728 41.7783 27.6918 41.8298 27.6918C41.9201 27.6949 42.0135 27.6318 42.1038 27.6129C42.3262 27.5656 42.5744 27.5025 42.7935 27.6003C42.8645 27.6318 42.9289 27.6634 42.9966 27.717C43.0256 27.7422 43.0675 27.7675 43.0933 27.799C43.1191 27.8306 43.1352 27.8621 43.1674 27.8905C43.2158 27.9347 43.2609 27.9725 43.3157 27.9946C43.3415 28.0041 43.3673 28.0199 43.393 28.0356C43.4349 28.0577 43.4833 28.0609 43.522 28.0861C43.5864 28.1303 43.6541 28.1713 43.7121 28.2249C43.754 28.2628 43.7734 28.3164 43.8024 28.3669C43.8217 28.3984 43.8249 28.411 43.8378 28.4489C43.8507 28.4899 43.8797 28.5151 43.8894 28.5561C43.9023 28.6066 43.8733 28.7864 43.9087 28.7959C43.9249 28.7391 43.9184 28.6129 43.9087 28.5561C43.8862 28.4394 43.8475 28.3322 43.7927 28.2344C43.7347 28.1303 43.6831 28.0199 43.609 27.9378C43.5349 27.859 43.4543 27.8022 43.3769 27.7359C43.3125 27.6792 43.2577 27.6066 43.1932 27.5561C43.1062 27.4867 43.0224 27.3952 42.9354 27.3195C42.9031 27.2911 42.858 27.269 42.8193 27.2533C42.7774 27.2343 42.7355 27.247 42.6936 27.2343C42.6549 27.2217 42.6259 27.2123 42.584 27.2123C42.526 27.2123 42.4777 27.2343 42.4197 27.2407C42.3294 27.247 42.2714 27.2186 42.2005 27.146C42.1135 27.0545 42.0103 26.982 41.9072 26.9346C41.8653 26.9157 41.833 26.922 41.7911 26.9126C41.746 26.8999 41.717 26.8873 41.6687 26.8873C41.5688 26.8873 41.4592 26.8968 41.3657 26.941C41.2593 26.9946 41.153 27.0608 41.0498 27.1239C40.8951 27.2186 40.7211 27.247 40.5664 27.3321C40.4278 27.4047 40.2763 27.4741 40.1538 27.5877C40.0893 27.6476 40.0378 27.7202 39.9733 27.7801C39.9314 27.818 39.9056 27.8558 39.8798 27.9126C39.8573 27.9631 39.8412 28.0199 39.825 28.0735C39.8057 28.1303 39.8121 28.1807 39.8025 28.2375C39.7993 28.2596 39.7864 28.2596 39.7831 28.2785C39.7767 28.3101 39.7831 28.3511 39.7831 28.3826C39.7831 28.4363 39.796 28.4836 39.8089 28.5341C39.8347 28.6382 39.9185 28.7328 39.983 28.7991C39.9959 28.8117 40.0055 28.818 40.0152 28.8306C40.0313 28.8495 40.0603 28.8716 40.0764 28.8905C40.1183 28.941 40.1345 29.023 40.1796 29.0735V29.0641Z" fill="#00928B"/>
</g>
<g style="mix-blend-mode:multiply" opacity="0.3">
<path fill-rule="evenodd" clip-rule="evenodd" d="M37.6277 30.6224C37.6503 30.4458 37.6729 30.2565 37.7309 30.0925C37.7857 29.9347 37.9243 29.7549 38.0339 29.6603C38.1338 29.5719 38.2498 29.5057 38.3594 29.4489C38.4238 29.4142 38.4883 29.4047 38.556 29.4016C38.6301 29.3984 38.701 29.3637 38.7752 29.3606C38.8912 29.3574 39.0137 29.3006 39.1297 29.3196C39.2296 29.3385 39.3167 29.3953 39.3972 29.471C39.4585 29.5278 39.4875 29.5688 39.5165 29.6571C39.5358 29.7107 39.5294 29.9 39.5584 29.9158C39.6164 29.9473 39.61 29.7644 39.6003 29.717C39.5874 29.6476 39.5584 29.5877 39.5326 29.5246C39.5004 29.4457 39.4746 29.3606 39.4391 29.2849C39.3876 29.1839 39.3102 29.1366 39.249 29.0483C39.1877 28.9599 39.1265 28.9126 39.062 28.8306C39.0169 28.777 38.9202 28.6634 38.859 28.6571C38.7913 28.6508 38.7172 28.7202 38.6656 28.7738C38.5592 28.8811 38.4561 28.9757 38.3594 29.1019C38.2401 29.2533 38.1015 29.3795 37.9758 29.5246C37.921 29.5877 37.8791 29.6666 37.8179 29.7202C37.7728 29.7581 37.7373 29.7865 37.7051 29.8401C37.6374 29.9536 37.5794 30.0767 37.5665 30.2281C37.5536 30.3764 37.6052 30.4931 37.6245 30.6319L37.6277 30.6224Z" fill="#00928B"/>
</g>
<g style="mix-blend-mode:soft-light" opacity="0.5">
<path fill-rule="evenodd" clip-rule="evenodd" d="M19.9385 41.5755C20.0513 41.5755 20.1641 41.5755 20.2769 41.5755C20.3704 41.5755 20.4413 41.5976 20.5315 41.6165C20.5895 41.626 20.654 41.6007 20.712 41.6165C20.7314 41.6228 20.7475 41.6449 20.77 41.6512C20.7958 41.6607 20.8281 41.6607 20.8571 41.6701C20.9957 41.7143 21.1343 41.6827 21.2729 41.6417C21.376 41.6133 21.4856 41.5755 21.5855 41.5282C21.6274 41.5061 21.766 41.4525 21.7724 41.3925C21.6661 41.3452 21.5436 41.4146 21.4372 41.4209C21.3341 41.4272 21.2277 41.4619 21.1246 41.4903C21.0247 41.5155 20.9183 41.4998 20.8184 41.4998C20.5638 41.4998 20.3091 41.4998 19.9417 41.5755H19.9385Z" fill="#24F8EB"/>
</g>
<g style="mix-blend-mode:multiply" opacity="0.3">
<path fill-rule="evenodd" clip-rule="evenodd" d="M22.8077 41.6417C22.8142 41.5313 22.8142 41.4367 22.8399 41.3389C22.8464 41.3136 22.8496 41.2821 22.8593 41.26C22.8722 41.2253 22.8947 41.1937 22.9141 41.1717C22.9657 41.1117 23.0237 41.0928 23.0785 41.0486C23.13 41.0076 23.1848 40.9666 23.2396 40.954C23.288 40.9445 23.3395 40.954 23.3879 40.954C23.4072 40.954 23.433 40.9445 23.4491 40.9729C23.4652 41.0013 23.4749 41.0486 23.4942 41.0739C23.5361 41.1243 23.6199 41.1086 23.6651 41.0676C23.7005 41.0329 23.7553 41.0013 23.8004 41.0171C23.8133 41.0234 23.8295 41.0455 23.8423 41.0549C23.8617 41.0676 23.8778 41.0802 23.8939 41.0991C23.9068 41.1149 23.9197 41.1338 23.9294 41.1496C23.9423 41.1654 23.9584 41.1843 23.968 41.2064C23.968 41.1559 23.9294 41.077 23.9133 41.0455C23.9004 41.0202 23.8907 40.9918 23.8746 40.9698C23.8585 40.9445 23.8423 40.9256 23.8262 40.9067C23.8101 40.8877 23.7972 40.872 23.7779 40.8625C23.7682 40.8594 23.7618 40.8625 23.7521 40.8625C23.7392 40.8625 23.7328 40.853 23.7199 40.8467C23.7037 40.8404 23.6844 40.853 23.6651 40.8467C23.6393 40.8373 23.6103 40.8183 23.5845 40.8026C23.52 40.7584 23.4491 40.7805 23.3814 40.7552C23.346 40.7395 23.3009 40.7521 23.2654 40.7521C23.2203 40.7521 23.1752 40.7584 23.1333 40.7742C23.1171 40.7805 23.0978 40.7899 23.0817 40.7994C23.0623 40.8152 23.0495 40.8436 23.0301 40.8625C23.0172 40.8751 23.0043 40.8783 22.9914 40.8909C22.9721 40.913 22.9592 40.9477 22.9399 40.9729C22.898 41.036 22.8561 41.096 22.8367 41.1969C22.8238 41.2663 22.7916 41.3294 22.7852 41.4051C22.7852 41.4461 22.7852 41.4903 22.7852 41.5345C22.7852 41.5534 22.7852 41.5786 22.7852 41.5975C22.7852 41.6196 22.7948 41.6354 22.8013 41.6449L22.8077 41.6417Z" fill="#00928B"/>
</g>
<g style="mix-blend-mode:soft-light" opacity="0.5">
<path fill-rule="evenodd" clip-rule="evenodd" d="M23.1038 42.0802C23.1489 42.0802 23.1941 42.0802 23.236 42.0802C23.2714 42.0802 23.3004 42.0928 23.3359 42.1023C23.3584 42.1086 23.3842 42.0928 23.4068 42.1023C23.4132 42.1054 23.4197 42.1181 23.4293 42.1212C23.439 42.1275 23.4519 42.1275 23.4616 42.1307C23.5164 42.1559 23.5712 42.137 23.626 42.1149C23.6679 42.0991 23.7098 42.077 23.7484 42.0518C23.7646 42.0392 23.8193 42.0108 23.8226 41.9761C23.7807 41.9509 23.7323 41.9887 23.6904 41.9919C23.6485 41.995 23.6066 42.014 23.5679 42.0297C23.5293 42.0455 23.4874 42.036 23.4455 42.036C23.3455 42.036 23.2456 42.036 23.1006 42.0802H23.1038Z" fill="#24F8EB"/>
</g>
<g style="mix-blend-mode:soft-light" opacity="0.5">
<path fill-rule="evenodd" clip-rule="evenodd" d="M41.1533 29.8716C41.2758 29.8716 41.3693 29.8653 41.4821 29.9063C41.5659 29.9379 41.6529 29.9221 41.7367 29.9505C41.8882 30.0073 42.1009 30.0073 42.2556 29.9347C42.3974 29.8685 42.5199 29.7833 42.6585 29.7076C42.7874 29.635 42.8938 29.5246 43.0292 29.4678C43.1227 29.4268 43.2129 29.3795 43.2999 29.3227C43.3322 29.3006 43.4482 29.2344 43.4546 29.1965C43.3934 29.1681 43.3547 29.2123 43.2999 29.2249C43.2193 29.2439 43.142 29.2786 43.0614 29.307C42.9776 29.3385 42.8874 29.3448 42.8036 29.3764C42.7359 29.4016 42.6811 29.4331 42.6102 29.4489C42.5683 29.4584 42.5231 29.4742 42.4812 29.4836C42.3555 29.5152 42.2298 29.5625 42.1074 29.6193C42.0139 29.6634 41.9172 29.6666 41.8205 29.6887C41.7303 29.7108 41.6336 29.7423 41.5433 29.7707C41.4982 29.7833 41.4563 29.8117 41.4112 29.8275C41.3499 29.8464 41.3048 29.8369 41.1533 29.8716Z" fill="#24F8EB"/>
</g>
<g style="mix-blend-mode:soft-light" opacity="0.5">
<path fill-rule="evenodd" clip-rule="evenodd" d="M37.8105 30.7802C37.933 30.8054 38.0394 30.8307 38.1586 30.8338C38.2167 30.8338 38.2876 30.8181 38.3456 30.8338C38.4777 30.8685 38.5712 30.9127 38.713 30.878C38.8645 30.8401 39.0031 30.7518 39.1385 30.6666C39.2094 30.6225 39.3834 30.4742 39.2062 30.4679C39.1514 30.4679 39.1127 30.5026 39.0643 30.5215C39.0096 30.5436 38.9451 30.5562 38.8871 30.5752C38.7517 30.6193 38.6067 30.6603 38.4713 30.6824C38.4197 30.6919 38.3681 30.6824 38.3134 30.6919C38.2489 30.7077 38.1812 30.755 38.12 30.7739C38.0136 30.8054 37.9201 30.837 37.8105 30.837V30.7834V30.7802Z" fill="#24F8EB"/>
</g>
<g style="mix-blend-mode:soft-light" opacity="0.5">
<path fill-rule="evenodd" clip-rule="evenodd" d="M33.3604 25.411C33.1219 25.9693 32.8479 26.3542 32.9607 26.9347C33.0736 27.5088 33.3217 27.818 33.7826 28.1681C34.105 28.4142 34.7947 28.9473 35.1944 28.5814C35.6005 28.2092 35.7907 27.2344 35.6263 26.7454C35.3394 25.9031 34.6883 25.3794 33.7859 25.411H33.3636H33.3604Z" fill="white"/>
<path fill-rule="evenodd" clip-rule="evenodd" d="M26.7396 38.2126C26.5753 37.8813 26.3367 37.6384 26.5785 37.345C26.7396 37.1494 26.8299 37.1021 27.0072 37.2946C27.2457 37.5501 27.2811 37.9949 26.8299 38.0391L26.7396 38.2126Z" fill="white"/>
<path fill-rule="evenodd" clip-rule="evenodd" d="M39.807 21.5023C39.6426 21.1711 39.4041 20.9282 39.6459 20.6348C39.807 20.4392 39.8973 20.3919 40.0745 20.5843C40.313 20.8398 40.3485 21.2846 39.8973 21.3288L39.807 21.5023Z" fill="white"/>
<path fill-rule="evenodd" clip-rule="evenodd" d="M30.6914 36.8655C30.743 37.1779 30.7075 37.5943 31.0943 37.6447C31.2232 37.6605 31.3457 37.6511 31.4005 37.5122C31.5004 37.2599 31.0943 37.0043 30.8719 37.039L30.6946 36.8655H30.6914Z" fill="white"/>
<path fill-rule="evenodd" clip-rule="evenodd" d="M26.8271 39.4934C27.0205 39.1401 27.1495 38.8088 27.6104 38.8057C27.8392 38.8057 28.0487 38.9697 28.1712 39.1621C28.2872 39.3451 28.284 39.4745 28.1293 39.6259C27.9295 39.8215 27.6233 39.7521 27.3654 39.7521L26.8304 39.4902L26.8271 39.4934Z" fill="white"/>
<path fill-rule="evenodd" clip-rule="evenodd" d="M23.8584 21.4582C24.0518 21.1048 24.1807 20.7736 24.6416 20.7704C24.8705 20.7704 25.08 20.9345 25.2024 21.1269C25.3185 21.3099 25.3153 21.4392 25.1605 21.5907C24.9607 21.7863 24.6545 21.7168 24.3967 21.7168L23.8616 21.455L23.8584 21.4582Z" fill="white"/>
<path fill-rule="evenodd" clip-rule="evenodd" d="M22.2083 29.4331C22.2599 29.8905 22.1761 30.4678 22.6112 30.695C22.8852 30.8369 23.2171 30.8306 23.5104 30.7802C24.0197 30.695 24.3259 30.4836 24.5225 29.982C24.8738 29.0829 23.143 28.4615 22.4855 28.8842L22.2051 29.4331H22.2083Z" fill="white"/>
</g>
<path style="mix-blend-mode:screen" fill-rule="evenodd" clip-rule="evenodd" d="M23.388 17.1047L23.0947 18.6978C23.0947 18.6978 24.8836 18.824 25.886 19.5338C26.8884 20.2436 31.5909 24.6727 31.5909 24.6727L31.8874 22.3288C31.8874 22.3288 28.2646 18.8492 26.8303 17.9974C25.3928 17.1394 23.388 17.1047 23.388 17.1047Z" fill="url(#paint23_radial_15_293563)"/>
<path style="mix-blend-mode:screen" fill-rule="evenodd" clip-rule="evenodd" d="M39.3041 17.1173L39.4717 18.723C39.4717 18.723 35.2687 20.5307 31.5879 24.6727L31.7555 22.2026C31.7555 22.2026 35.1785 18.8839 36.5161 18.1236C37.8537 17.3634 39.3008 17.1173 39.3008 17.1173H39.3041Z" fill="url(#paint24_linear_15_293563)"/>
<g style="mix-blend-mode:soft-light">
<path fill-rule="evenodd" clip-rule="evenodd" d="M39.4713 18.723C39.4713 18.723 44.7315 19.8934 45.2311 25.0639L46.5719 24.515C46.5719 24.515 46.9619 22.5307 44.9281 19.9723C42.4495 16.8555 40.1449 16.8712 39.3037 17.1173L39.4713 18.723Z" fill="white"/>
</g>
<path style="mix-blend-mode:multiply" opacity="0.5" fill-rule="evenodd" clip-rule="evenodd" d="M45.2306 25.0639C45.2306 25.0639 43.9994 31.1367 39.7803 32.5941L41.8334 32.1083C41.8334 32.1083 45.1629 28.6918 46.0847 27.3416C47.0065 25.9914 46.6423 24.4141 46.6423 24.4141L45.2306 25.0639Z" fill="url(#paint25_radial_15_293563)"/>
<path style="mix-blend-mode:multiply" opacity="0.5" fill-rule="evenodd" clip-rule="evenodd" d="M16.9766 25.2658L19.2779 25.2343C19.2779 25.2343 20.738 29.9221 23.8579 32.5909L21.6823 32.2124C21.6823 32.2124 21.5921 31.4773 19.8451 29.7801C18.0982 28.0829 17.0636 26.2374 16.9766 25.2658Z" fill="url(#paint26_radial_15_293563)"/>
<g style="mix-blend-mode:soft-light">
<path fill-rule="evenodd" clip-rule="evenodd" d="M19.2786 25.2343C19.2786 25.2343 18.5502 20.5906 23.0916 18.6978L23.3849 17.1047C23.3849 17.1047 20.9482 17.0353 18.879 19.9691C16.8097 22.903 16.8709 24.0954 16.9773 25.2658L19.2786 25.2343Z" fill="white"/>
</g>
<path style="mix-blend-mode:screen" fill-rule="evenodd" clip-rule="evenodd" d="M21.6828 32.2124L23.8584 32.591C23.8584 32.591 20.4644 35.2567 18.8883 38.405L17.4121 38.2126C17.4121 38.2126 17.5024 37.1085 18.321 36.0926C19.1397 35.0768 21.6828 32.2124 21.6828 32.2124Z" fill="url(#paint27_radial_15_293563)"/>
<path style="mix-blend-mode:screen" fill-rule="evenodd" clip-rule="evenodd" d="M41.8334 32.1083L39.7803 32.5941C39.7803 32.5941 43.9413 35.591 44.9244 39.1779L46.5134 38.4429C46.5134 38.4429 45.8913 35.162 41.8334 32.1083Z" fill="url(#paint28_radial_15_293563)"/>
<path style="mix-blend-mode:multiply" opacity="0.5" fill-rule="evenodd" clip-rule="evenodd" d="M44.925 39.1779C44.925 39.1779 45.7404 44.6103 39.3135 45.6639L39.4714 47.0394C39.4714 47.0394 40.5383 47.5851 42.6978 46.134C44.8573 44.6828 47.0812 41.8626 46.5172 38.446L44.9282 39.1811L44.925 39.1779Z" fill="url(#paint29_radial_15_293563)"/>
<path style="mix-blend-mode:multiply" fill-rule="evenodd" clip-rule="evenodd" d="M39.3134 45.6608C39.3134 45.6608 33.2958 42.9415 31.8873 38.8088L31.6553 41.8846C31.6553 41.8846 35.9291 45.6576 37.2506 46.3706C38.5721 47.0867 39.4746 47.0331 39.4746 47.0331L39.3167 45.6576L39.3134 45.6608Z" fill="url(#paint30_radial_15_293563)"/>
<path style="mix-blend-mode:multiply" fill-rule="evenodd" clip-rule="evenodd" d="M31.8876 38.8088C31.8876 38.8088 29.8409 43.7459 23.5977 45.3895L23.8265 47.0867C23.8265 47.0867 26.1826 47.033 28.2519 45.1749C30.3211 43.3168 31.7006 42.055 31.7006 42.055L31.8876 38.8057V38.8088Z" fill="url(#paint31_radial_15_293563)"/>
<path style="mix-blend-mode:multiply" opacity="0.5" fill-rule="evenodd" clip-rule="evenodd" d="M18.8885 38.405C18.8885 38.405 18.1955 42.3547 23.5975 45.3895L23.8263 47.0867C18.8885 46.3264 16.455 40.5313 17.4123 38.2126L18.8885 38.405Z" fill="url(#paint32_radial_15_293563)"/>
<g style="mix-blend-mode:soft-light">
<path fill-rule="evenodd" clip-rule="evenodd" d="M38.2243 19.5653L37.6377 17.6L39.3041 17.1173L39.4717 18.723L38.2243 19.5653Z" fill="white"/>
</g>
<g style="mix-blend-mode:soft-light">
<path fill-rule="evenodd" clip-rule="evenodd" d="M43.8584 36.8655L45.5151 36.0927C45.5151 36.0927 46.0985 36.8025 46.5175 38.4397L44.9285 39.1748C44.9285 39.1748 44.4418 37.6952 43.8584 36.8624V36.8655Z" fill="white"/>
</g>
<g style="mix-blend-mode:soft-light">
<path fill-rule="evenodd" clip-rule="evenodd" d="M16.9772 25.2658L16.9385 24.4141L19.2785 24.2248V25.2343L16.9772 25.2658Z" fill="white"/>
</g>
</g>
<defs>
<radialGradient id="paint0_radial_15_293563" cx="0" cy="0" r="1" gradientUnits="userSpaceOnUse" gradientTransform="translate(23.8384 29.2577) scale(52.4697 53.0918)">
<stop stop-color="#8D96B3"/>
<stop offset="1" stop-color="#777387"/>
</radialGradient>
<radialGradient id="paint1_radial_15_293563" cx="0" cy="0" r="1" gradientUnits="userSpaceOnUse" gradientTransform="translate(28.3719 1.85871) scale(51.0445 51.6498)">
<stop stop-color="#8D96B3"/>
<stop offset="1" stop-color="#777387"/>
</radialGradient>
<radialGradient id="paint2_radial_15_293563" cx="0" cy="0" r="1" gradientUnits="userSpaceOnUse" gradientTransform="translate(33.1656 -1.94218) scale(30.0566 30.4131)">
<stop stop-color="#8D96B3"/>
<stop offset="1" stop-color="#777387"/>
</radialGradient>
<radialGradient id="paint3_radial_15_293563" cx="0" cy="0" r="1" gradientUnits="userSpaceOnUse" gradientTransform="translate(47.5462 6.31564) scale(34.5911 35.0012)">
<stop stop-color="#8D96B3"/>
<stop offset="1" stop-color="#777387"/>
</radialGradient>
<radialGradient id="paint4_radial_15_293563" cx="0" cy="0" r="1" gradientUnits="userSpaceOnUse" gradientTransform="translate(36.4053 21.7849) scale(30.4454 30.8063)">
<stop stop-color="#818CA3"/>
<stop offset="1" stop-color="#565373"/>
</radialGradient>
<radialGradient id="paint5_radial_15_293563" cx="0" cy="0" r="1" gradientUnits="userSpaceOnUse" gradientTransform="translate(19.4332 17.5899) scale(63.9999 64.7588)">
<stop stop-color="#5F5D75"/>
<stop offset="1" stop-color="#373854"/>
</radialGradient>
<radialGradient id="paint6_radial_15_293563" cx="0" cy="0" r="1" gradientUnits="userSpaceOnUse" gradientTransform="translate(32.7773 32.141) scale(33.0365 33.4282)">
<stop stop-color="#5F5D75"/>
<stop offset="1" stop-color="#373854"/>
</radialGradient>
<radialGradient id="paint7_radial_15_293563" cx="0" cy="0" r="1" gradientUnits="userSpaceOnUse" gradientTransform="translate(29.0207 28.863) scale(42.8826 43.391)">
<stop stop-color="#5F5D75"/>
<stop offset="1" stop-color="#373854"/>
</radialGradient>
<radialGradient id="paint8_radial_15_293563" cx="0" cy="0" r="1" gradientUnits="userSpaceOnUse" gradientTransform="translate(20.3401 31.0924) scale(49.2307 49.8145)">
<stop stop-color="#5F5D75"/>
<stop offset="1" stop-color="#373854"/>
</radialGradient>
<radialGradient id="paint9_radial_15_293563" cx="0" cy="0" r="1" gradientUnits="userSpaceOnUse" gradientTransform="translate(24.3561 25.586) scale(40.8098 41.2936)">
<stop stop-color="#818CA3"/>
<stop offset="1" stop-color="#565373"/>
</radialGradient>
<radialGradient id="paint10_radial_15_293563" cx="0" cy="0" r="1" gradientUnits="userSpaceOnUse" gradientTransform="translate(30.8345 31.617) scale(83.8219 84.8157)">
<stop stop-color="#5F5D75"/>
<stop offset="1" stop-color="#373854"/>
</radialGradient>
<radialGradient id="paint11_radial_15_293563" cx="0" cy="0" r="1" gradientUnits="userSpaceOnUse" gradientTransform="translate(40.939 24.9307) scale(23.7085 23.9896)">
<stop stop-color="#5F5D75"/>
<stop offset="1" stop-color="#373854"/>
</radialGradient>
<radialGradient id="paint12_radial_15_293563" cx="0" cy="0" r="1" gradientUnits="userSpaceOnUse" gradientTransform="translate(66.4618 54.4268) scale(33.4251 33.8214)">
<stop stop-color="#5F5D75"/>
<stop offset="1" stop-color="#373854"/>
</radialGradient>
<radialGradient id="paint13_radial_15_293563" cx="0" cy="0" r="1" gradientUnits="userSpaceOnUse" gradientTransform="translate(28.5015 20.6052) scale(62.7045 63.4479)">
<stop stop-color="#5F5D75"/>
<stop offset="1" stop-color="#373854"/>
</radialGradient>
<radialGradient id="paint14_radial_15_293563" cx="0" cy="0" r="1" gradientUnits="userSpaceOnUse" gradientTransform="translate(30.5754 17.7217) scale(13.4737 13.6334)">
<stop stop-color="#5F5D75"/>
<stop offset="1" stop-color="#373854"/>
</radialGradient>
<radialGradient id="paint15_radial_15_293563" cx="0" cy="0" r="1" gradientUnits="userSpaceOnUse" gradientTransform="translate(40.4212 17.0655) scale(6.47772 6.55454)">
<stop stop-color="#5F5D75"/>
<stop offset="1" stop-color="#373854"/>
</radialGradient>
<radialGradient id="paint16_radial_15_293563" cx="0" cy="0" r="1" gradientUnits="userSpaceOnUse" gradientTransform="translate(30.9643 46.2981) scale(15.5465 15.7309)">
<stop stop-color="#373854"/>
<stop offset="1" stop-color="#5F5D75"/>
</radialGradient>
<linearGradient id="paint17_linear_15_293563" x1="22.441" y1="0.131409" x2="22.441" y2="40.9248" gradientUnits="userSpaceOnUse">
<stop stop-color="#A0DBF0"/>
<stop offset="1" stop-color="#00FFEA"/>
</linearGradient>
<radialGradient id="paint18_radial_15_293563" cx="0" cy="0" r="1" gradientUnits="userSpaceOnUse" gradientTransform="translate(24.2268 6.57831) scale(70.9959 71.8377)">
<stop stop-color="#818CA3"/>
<stop offset="1" stop-color="#565373"/>
</radialGradient>
<linearGradient id="paint19_linear_15_293563" x1="31.7987" y1="6.57904" x2="31.7987" y2="57.7092" gradientUnits="userSpaceOnUse">
<stop stop-color="#020D1A"/>
<stop offset="1" stop-color="#08151D"/>
</linearGradient>
<linearGradient id="paint20_linear_15_293563" x1="31.7987" y1="6.57904" x2="31.7987" y2="57.7092" gradientUnits="userSpaceOnUse">
<stop offset="0.5" stop-color="white" stop-opacity="0"/>
<stop offset="0.776042" stop-color="white" stop-opacity="0.1"/>
</linearGradient>
<radialGradient id="paint21_radial_15_293563" cx="0" cy="0" r="1" gradientUnits="userSpaceOnUse" gradientTransform="translate(32.1029 37.7836) scale(22.5587 22.0795)">
<stop stop-color="#00A695"/>
<stop offset="0.71" stop-color="#005E87"/>
<stop offset="1" stop-color="#003184"/>
</radialGradient>
<radialGradient id="paint22_radial_15_293563" cx="0" cy="0" r="1" gradientUnits="userSpaceOnUse" gradientTransform="translate(32.1028 39.0896) scale(22.5587 22.0795)">
<stop stop-color="#06EBEE"/>
<stop offset="0.75" stop-color="#00C5C0"/>
<stop offset="1" stop-color="#00A695"/>
</radialGradient>
<radialGradient id="paint23_radial_15_293563" cx="0" cy="0" r="1" gradientUnits="userSpaceOnUse" gradientTransform="translate(27.4911 20.8903) scale(4.1385 4.0506)">
<stop stop-color="#00D3B0"/>
<stop offset="0.18" stop-color="#00CAAD"/>
<stop offset="0.48" stop-color="#00B1A5"/>
<stop offset="0.85" stop-color="#008A98"/>
<stop offset="0.99" stop-color="#007993"/>
</radialGradient>
<linearGradient id="paint24_linear_15_293563" x1="31.5911" y1="20.8966" x2="39.4717" y2="20.8966" gradientUnits="userSpaceOnUse">
<stop stop-color="#002830"/>
<stop offset="0.1" stop-color="#003A3B"/>
<stop offset="0.4" stop-color="#00705C"/>
<stop offset="0.66" stop-color="#009775"/>
<stop offset="0.87" stop-color="#00B084"/>
<stop offset="1" stop-color="#00B98A"/>
</linearGradient>
<radialGradient id="paint25_radial_15_293563" cx="0" cy="0" r="1" gradientUnits="userSpaceOnUse" gradientTransform="translate(43.2484 28.5025) scale(3.83875 3.75721)">
<stop stop-color="#05E7E4"/>
<stop offset="0.09" stop-color="#04DEDE"/>
<stop offset="0.24" stop-color="#04C5CD"/>
<stop offset="0.43" stop-color="#039EB3"/>
<stop offset="0.65" stop-color="#02678E"/>
<stop offset="0.89" stop-color="#002260"/>
<stop offset="1" stop-color="#00004A"/>
</radialGradient>
<radialGradient id="paint26_radial_15_293563" cx="0" cy="0" r="1" gradientUnits="userSpaceOnUse" gradientTransform="translate(20.4189 28.9126) scale(3.60346 3.52692)">
<stop stop-color="#05E7E4"/>
<stop offset="0.09" stop-color="#04DEDE"/>
<stop offset="0.24" stop-color="#04C5CD"/>
<stop offset="0.43" stop-color="#039EB3"/>
<stop offset="0.65" stop-color="#02678E"/>
<stop offset="0.89" stop-color="#002260"/>
<stop offset="1" stop-color="#00004A"/>
</radialGradient>
<radialGradient id="paint27_radial_15_293563" cx="0" cy="0" r="1" gradientUnits="userSpaceOnUse" gradientTransform="translate(20.6352 35.3103) scale(3.19412 3.12628)">
<stop stop-color="#00D3B0"/>
<stop offset="0.18" stop-color="#00CAAD"/>
<stop offset="0.48" stop-color="#00B1A5"/>
<stop offset="0.85" stop-color="#008A98"/>
<stop offset="0.99" stop-color="#007993"/>
</radialGradient>
<radialGradient id="paint28_radial_15_293563" cx="0" cy="0" r="1" gradientUnits="userSpaceOnUse" gradientTransform="translate(43.1484 35.6415) scale(3.49065 3.41651)">
<stop stop-color="#00D3B0"/>
<stop offset="0.18" stop-color="#00CAAD"/>
<stop offset="0.48" stop-color="#00B1A5"/>
<stop offset="0.85" stop-color="#008A98"/>
<stop offset="0.99" stop-color="#007993"/>
</radialGradient>
<radialGradient id="paint29_radial_15_293563" cx="0" cy="0" r="1" gradientUnits="userSpaceOnUse" gradientTransform="translate(42.9588 42.79) scale(4.06437 3.97804)">
<stop stop-color="#05E7E4"/>
<stop offset="0.09" stop-color="#04DEDE"/>
<stop offset="0.24" stop-color="#04C5CD"/>
<stop offset="0.43" stop-color="#039EB3"/>
<stop offset="0.65" stop-color="#02678E"/>
<stop offset="0.89" stop-color="#002260"/>
<stop offset="1" stop-color="#00004A"/>
</radialGradient>
<radialGradient id="paint30_radial_15_293563" cx="0" cy="0" r="1" gradientUnits="userSpaceOnUse" gradientTransform="translate(35.5617 42.9225) scale(4.05792 3.97173)">
<stop stop-color="#00A695"/>
<stop offset="0.12" stop-color="#009D90"/>
<stop offset="0.31" stop-color="#008486"/>
<stop offset="0.54" stop-color="#005D74"/>
<stop offset="0.82" stop-color="#00275B"/>
<stop offset="1" stop-color="#00004A"/>
</radialGradient>
<radialGradient id="paint31_radial_15_293563" cx="0" cy="0" r="1" gradientUnits="userSpaceOnUse" gradientTransform="translate(27.7426 42.9477) scale(4.18685 4.09792)">
<stop stop-color="#00A695"/>
<stop offset="0.12" stop-color="#009D90"/>
<stop offset="0.31" stop-color="#008486"/>
<stop offset="0.54" stop-color="#005D74"/>
<stop offset="0.82" stop-color="#00275B"/>
<stop offset="1" stop-color="#00004A"/>
</radialGradient>
<radialGradient id="paint32_radial_15_293563" cx="0" cy="0" r="1" gradientUnits="userSpaceOnUse" gradientTransform="translate(20.5162 42.6512) scale(3.9709 3.88655)">
<stop stop-color="#05E7E4"/>
<stop offset="0.09" stop-color="#04DEDE"/>
<stop offset="0.24" stop-color="#04C5CD"/>
<stop offset="0.43" stop-color="#039EB3"/>
<stop offset="0.65" stop-color="#02678E"/>
<stop offset="0.89" stop-color="#002260"/>
<stop offset="1" stop-color="#00004A"/>
</radialGradient>
<clipPath id="clip0_15_293563">
<rect width="29.8301" height="30.1176" fill="white" transform="translate(16.8838 17.0195)"/>
</clipPath>
</defs>
</svg>
