<svg width="18" height="18" viewBox="0 0 18 18" fill="none" xmlns="http://www.w3.org/2000/svg">
<g clip-path="url(#clip0_1407_401138)">
<path fill-rule="evenodd" clip-rule="evenodd" d="M15.5916 11.6336C15.4436 15.1671 12.5334 17.9867 8.96342 17.9867C5.29884 17.9867 2.32813 14.9161 2.32813 11.3514C2.32813 10.8749 2.31959 9.92271 3.03401 8.31613C3.46157 7.35464 3.72973 6.75062 3.88107 6.19848C3.96422 5.89502 4.12594 5.4129 4.58695 6.19848C4.85879 6.66168 4.86931 7.32789 4.86931 7.32789C4.86931 7.32789 5.88069 6.55177 6.56342 5.06907C7.56429 2.89544 6.76573 1.59613 6.49284 0.692598C6.39839 0.380033 6.33909 -0.181708 6.98695 0.0573035C7.64709 0.300903 9.39232 1.52257 10.3046 2.81024C11.6066 4.64801 12.0693 6.41024 12.0693 6.41024C12.0693 6.41024 12.4862 5.89283 12.634 5.35142C12.801 4.74006 12.8034 4.13455 13.3398 4.78679C13.85 5.40704 14.6076 6.57267 15.034 7.68083C15.8083 9.69323 15.5916 11.6336 15.5916 11.6336Z" fill="url(#paint0_linear_1407_401138)"/>
<path fill-rule="evenodd" clip-rule="evenodd" d="M8.96323 17.9867C6.42919 17.9867 4.375 15.9325 4.375 13.3985C4.375 11.8695 4.99116 10.9411 6.27354 9.68228C7.09462 8.87623 7.86312 7.88623 8.18973 7.21211C8.25403 7.07941 8.40036 6.38786 8.96458 7.19757C9.26055 7.62223 9.72453 8.37746 10.0221 9.022C10.535 10.1333 10.6574 11.2102 10.6574 11.2102C10.6574 11.2102 11.16 10.914 11.5044 10.1514C11.6154 9.90562 11.8399 8.97513 12.4674 9.90548C12.9279 10.5882 13.5604 11.8157 13.5515 13.3985C13.5515 15.9325 11.4972 17.9867 8.96323 17.9867Z" fill="white" fill-opacity="0.3"/>
<path fill-rule="evenodd" clip-rule="evenodd" d="M9.03451 12.9749C9.68745 12.9749 9.68745 14.1841 10.5169 15.7985C11.0691 16.8735 10.2431 17.9867 9.03451 17.9867C7.82597 17.9867 7.19922 17.007 7.19922 15.7985C7.19922 14.59 8.38157 12.9749 9.03451 12.9749Z" fill="white"/>
</g>
<defs>
<linearGradient id="paint0_linear_1407_401138" x1="2.32092" y1="8.99023" x2="15.6224" y2="8.99023" gradientUnits="userSpaceOnUse">
<stop stop-color="#FFFCA8"/>
<stop offset="0.3123" stop-color="#FDB836"/>
<stop offset="0.7592" stop-color="#FDC966"/>
<stop offset="1" stop-color="#F1DC83"/>
</linearGradient>
<clipPath id="clip0_1407_401138">
<rect width="18" height="18" fill="white"/>
</clipPath>
</defs>
</svg>
