<svg width="21" height="20" viewBox="0 0 21 20" fill="none" xmlns="http://www.w3.org/2000/svg">
<path d="M5.41699 6.6665L5.41699 9.1665" stroke="white" stroke-width="1.5" stroke-miterlimit="10" stroke-linecap="round"/>
<path d="M4.16699 7.9165H6.66699" stroke="white" stroke-width="1.5" stroke-miterlimit="10" stroke-linecap="round"/>
<path d="M15.8984 7.83838C15.8984 8.48561 15.3738 9.01025 14.7266 9.01025C14.0794 9.01025 13.5547 8.48561 13.5547 7.83838C13.5547 7.19115 14.0794 6.6665 14.7266 6.6665C15.3738 6.6665 15.8984 7.19115 15.8984 7.83838Z" stroke="white" stroke-width="1.5" stroke-miterlimit="10"/>
<path d="M4.34912 3.33325H16.146C18.0876 3.33325 19.6616 6.21896 19.6616 9.77856C19.6616 13.3382 18.0876 16.2629 16.146 16.2629C14.7187 16.2629 13.4925 14.7022 12.943 12.4613C12.8154 11.9413 12.3081 11.5754 11.7726 11.5754H8.72252C8.18705 11.5754 7.67967 11.9413 7.55213 12.4613C7.0026 14.7022 5.77646 16.2629 4.34912 16.2629C2.40748 16.2629 0.833496 13.3382 0.833496 9.77856C0.833496 6.21896 2.40748 3.33325 4.34912 3.33325Z" stroke="white" stroke-width="1.5" stroke-miterlimit="10"/>
</svg>
