<svg width="23" height="14" viewBox="0 0 23 14" fill="none" xmlns="http://www.w3.org/2000/svg">
<path fill-rule="evenodd" clip-rule="evenodd" d="M11.5 12.3278C10.282 13.3703 8.70218 14 6.97565 14C3.12289 14 0 10.8661 0 7C0 3.13393 3.12289 0 6.97565 0C8.70218 0 10.282 0.629728 11.5 1.67217C12.718 0.629728 14.2978 0 16.0244 0C19.8771 0 23 3.13393 23 7C23 10.8661 19.8771 14 16.0244 14C14.2978 14 12.718 13.3703 11.5 12.3278Z" fill="#ED0006"/>
<path fill-rule="evenodd" clip-rule="evenodd" d="M11.4976 1.67178C12.9972 2.95557 13.9484 4.86604 13.9484 6.99961C13.9484 9.13318 12.9972 11.0436 11.4976 12.3274C9.99804 11.0436 9.04688 9.13318 9.04688 6.99961C9.04688 4.86604 9.99804 2.95557 11.4976 1.67178Z" fill="#FF5E00"/>
</svg>
