<svg width="32" height="32" viewBox="0 0 32 32" fill="none" xmlns="http://www.w3.org/2000/svg">
<path d="M4.46094 16.0129C4.46094 9.63834 9.63495 4.4707 16.0095 4.4707C22.3841 4.4707 27.5582 9.63834 27.5582 16.0129C27.5582 22.3875 22.3841 27.5552 16.0095 27.5552C9.63495 27.5552 4.46094 22.3875 4.46094 16.0129Z" fill="url(#paint0_linear_39_71386)"/>
<path d="M16.0098 6.29395C21.3788 6.29406 25.7352 10.6463 25.7354 16.0127C25.7354 21.3792 21.3789 25.7323 16.0098 25.7324C10.6405 25.7324 6.28418 21.3793 6.28418 16.0127C6.28431 10.6462 10.6406 6.29395 16.0098 6.29395Z" stroke="white" stroke-opacity="0.2" stroke-width="3.64557"/>
<path d="M7.16016 16.1548C7.16016 11.191 11.1891 7.16699 16.1529 7.16699C21.1167 7.16699 25.1456 11.191 25.1456 16.1548C25.1456 21.1186 21.1167 25.1425 16.1529 25.1425C11.1891 25.1425 7.16016 21.1186 7.16016 16.1548Z" fill="url(#paint1_linear_39_71386)"/>
<path opacity="0.2" d="M32 16C32 24.8366 24.8366 32 16 32C7.16344 32 0 24.8366 0 16C0 7.16344 7.16344 0 16 0C24.8366 0 32 7.16344 32 16ZM3.2 16C3.2 23.0692 8.93075 28.8 16 28.8C23.0692 28.8 28.8 23.0692 28.8 16C28.8 8.93075 23.0692 3.2 16 3.2C8.93075 3.2 3.2 8.93075 3.2 16Z" fill="url(#paint2_linear_39_71386)"/>
<path d="M16 1.6C16 0.716345 16.7181 -0.00829025 17.5974 0.0799275C20.1975 0.340807 22.7029 1.23568 24.8891 2.69649C27.5203 4.45459 29.5711 6.95345 30.7821 9.87707C31.9931 12.8007 32.3099 16.0177 31.6926 19.1214C31.0752 22.2251 29.5513 25.0761 27.3137 27.3137C25.0761 29.5513 22.2251 31.0752 19.1214 31.6926C16.0177 32.3099 12.8007 31.9931 9.87706 30.7821C6.95345 29.5711 4.45459 27.5203 2.69649 24.8891C1.23568 22.7029 0.340807 20.1975 0.0799273 17.5974C-0.0082903 16.7181 0.716345 16 1.6 16C2.48366 16 3.18969 16.7191 3.29986 17.5959C3.54692 19.562 4.24821 21.4516 5.35719 23.1113C6.76367 25.2162 8.76276 26.8569 11.1017 27.8257C13.4405 28.7945 16.0142 29.0479 18.4972 28.5541C20.9801 28.0602 23.2609 26.8411 25.051 25.051C26.8411 23.2609 28.0602 20.9801 28.5541 18.4972C29.0479 16.0142 28.7945 13.4405 27.8257 11.1017C26.8569 8.76276 25.2162 6.76367 23.1113 5.35719C21.4516 4.24821 19.562 3.54692 17.5959 3.29986C16.7191 3.18969 16 2.48366 16 1.6Z" fill="#8BFFCB" fill-opacity="0.4"/>
<defs>
<linearGradient id="paint0_linear_39_71386" x1="4.44841" y1="16.0091" x2="27.5631" y2="16.0091" gradientUnits="userSpaceOnUse">
<stop stop-color="#C2E8FD"/>
<stop offset="0.3123" stop-color="#67E0AC"/>
<stop offset="0.7592" stop-color="#138B57"/>
<stop offset="1" stop-color="#C2E8FD"/>
</linearGradient>
<linearGradient id="paint1_linear_39_71386" x1="7.1504" y1="16.1518" x2="25.1495" y2="16.1518" gradientUnits="userSpaceOnUse">
<stop stop-color="#C2E8FD"/>
<stop offset="0.3123" stop-color="#67E0AC"/>
<stop offset="0.7592" stop-color="#138B57"/>
<stop offset="1" stop-color="#C2E8FD"/>
</linearGradient>
<linearGradient id="paint2_linear_39_71386" x1="-0.0173536" y1="15.9947" x2="32.0069" y2="15.9947" gradientUnits="userSpaceOnUse">
<stop stop-color="#C2E8FD"/>
<stop offset="0.3123" stop-color="#67E0AC"/>
<stop offset="0.7592" stop-color="#138B57"/>
<stop offset="1" stop-color="#C2E8FD"/>
</linearGradient>
</defs>
</svg>
