<svg width="32" height="32" viewBox="0 0 32 32" fill="none" xmlns="http://www.w3.org/2000/svg">
<path d="M13.6459 2.45238C14.9298 1.11492 17.0702 1.11492 18.3541 2.45238C19.1528 3.28437 20.332 3.63277 21.4545 3.36782C23.2497 2.94404 25.0445 4.12281 25.4053 5.93176C25.6315 7.06559 26.4385 8.01432 27.5265 8.40523C29.2688 9.03118 30.1454 10.9912 29.4779 12.718C29.0597 13.7996 29.2325 15.0369 29.9371 15.958C31.0665 17.4345 30.7674 19.5576 29.2677 20.6559C28.3334 21.3403 27.8252 22.48 27.9245 23.6339C28.0828 25.4731 26.6931 27.1115 24.85 27.216C23.6975 27.2814 22.6599 27.9578 22.1265 28.9815C21.2729 30.6201 19.2196 31.2367 17.6158 30.3195C16.6147 29.7469 15.3853 29.7469 14.3842 30.3195C12.7804 31.2367 10.7271 30.6201 9.87347 28.9815C9.34014 27.9578 8.30246 27.2814 7.14996 27.216C5.30692 27.1115 3.91724 25.4731 4.07553 23.6339C4.17484 22.48 3.66661 21.3403 2.73226 20.6559C1.23258 19.5576 0.933527 17.4345 2.06291 15.958C2.76745 15.0369 2.94026 13.7996 2.52214 12.718C1.85462 10.9912 2.73117 9.03118 4.47346 8.40523C5.56153 8.01432 6.36849 7.06559 6.59467 5.93176C6.95552 4.1228 8.75027 2.94404 10.5455 3.36782C11.668 3.63277 12.8472 3.28437 13.6459 2.45238Z" fill="url(#paint0_linear_39_71369)"/>
<path d="M13.6459 2.45238C14.9298 1.11492 17.0702 1.11492 18.3541 2.45238C19.1528 3.28437 20.332 3.63277 21.4545 3.36782C23.2497 2.94404 25.0445 4.12281 25.4053 5.93176C25.6315 7.06559 26.4385 8.01432 27.5265 8.40523C29.2688 9.03118 30.1454 10.9912 29.4779 12.718C29.0597 13.7996 29.2325 15.0369 29.9371 15.958C31.0665 17.4345 30.7674 19.5576 29.2677 20.6559C28.3334 21.3403 27.8252 22.48 27.9245 23.6339C28.0828 25.4731 26.6931 27.1115 24.85 27.216C23.6975 27.2814 22.6599 27.9578 22.1265 28.9815C21.2729 30.6201 19.2196 31.2367 17.6158 30.3195C16.6147 29.7469 15.3853 29.7469 14.3842 30.3195C12.7804 31.2367 10.7271 30.6201 9.87347 28.9815C9.34014 27.9578 8.30246 27.2814 7.14996 27.216C5.30692 27.1115 3.91724 25.4731 4.07553 23.6339C4.17484 22.48 3.66661 21.3403 2.73226 20.6559C1.23258 19.5576 0.933527 17.4345 2.06291 15.958C2.76745 15.0369 2.94026 13.7996 2.52214 12.718C1.85462 10.9912 2.73117 9.03118 4.47346 8.40523C5.56153 8.01432 6.36849 7.06559 6.59467 5.93176C6.95552 4.1228 8.75027 2.94404 10.5455 3.36782C11.668 3.63277 12.8472 3.28437 13.6459 2.45238Z" fill="url(#paint1_linear_39_71369)" fill-opacity="0.1"/>
<path d="M4.90625 16.2163C4.90625 10.0897 9.87289 5.12305 15.9996 5.12305C22.1262 5.12305 27.0929 10.0897 27.0929 16.2163V16.4445C27.0929 22.5712 22.1262 27.5378 15.9996 27.5378C9.87289 27.5378 4.90625 22.5712 4.90625 16.4445V16.2163Z" fill="black" fill-opacity="0.04"/>
<path d="M16 7.15137C21.0061 7.15161 25.0645 11.2107 25.0645 16.2168V16.4443C25.0645 21.4504 21.0061 25.5085 16 25.5088C10.9937 25.5088 6.93457 21.4506 6.93457 16.4443V16.2168C6.93457 11.2105 10.9937 7.15137 16 7.15137Z" stroke="white" stroke-opacity="0.3" stroke-width="4.05734"/>
<path opacity="0.8" d="M14.1712 18.356L12.0412 16.2041C11.9265 16.088 11.7708 16.0227 11.6084 16.0227C11.446 16.0227 11.2903 16.088 11.1756 16.2041C10.9362 16.446 10.9362 16.8366 11.1756 17.0785L13.7415 19.6708C13.9809 19.9126 14.3676 19.9126 14.607 19.6708L21.1015 13.1095C21.3409 12.8677 21.3409 12.477 21.1015 12.2351C20.9868 12.119 20.8311 12.0537 20.6687 12.0537C20.5063 12.0537 20.3506 12.119 20.236 12.2351L14.1712 18.356Z" fill="white" stroke="white" stroke-width="0.811468"/>
<path d="M16.0011 6.34681C16.0011 5.70762 16.5206 5.18328 17.1564 5.24896C19.1638 5.45632 21.0861 6.20123 22.7161 7.41498C24.6566 8.86001 26.0793 10.8925 26.7727 13.2105C27.4661 15.5285 27.3932 18.0083 26.565 20.2816C25.7367 22.5549 24.1972 24.5004 22.1751 25.829C20.1531 27.1577 17.7564 27.7986 15.3411 27.6565C12.9257 27.5145 10.6207 26.5971 8.76828 25.0407C6.91588 23.4842 5.61499 21.3717 5.05886 19.017C4.59173 17.0392 4.67097 14.9791 5.27737 13.0543C5.46944 12.4447 6.15691 12.1759 6.7436 12.4296C7.33029 12.6833 7.59228 13.3635 7.41656 13.9781C6.99839 15.4405 6.95903 16.9922 7.31159 18.485C7.75323 20.3549 8.7863 22.0325 10.2573 23.2685C11.7284 24.5045 13.5589 25.233 15.4769 25.3458C17.395 25.4586 19.2983 24.9497 20.904 23.8946C22.5098 22.8395 23.7324 21.2945 24.3901 19.4892C25.0479 17.684 25.1057 15.7147 24.5551 13.8739C24.0044 12.0331 22.8747 10.419 21.3336 9.27151C20.1034 8.35544 18.6635 7.77568 17.1552 7.57906C16.5214 7.49644 16.0011 6.986 16.0011 6.34681Z" fill="white" fill-opacity="0.5"/>
<defs>
<linearGradient id="paint0_linear_39_71369" x1="-0.0173536" y1="15.9947" x2="32.0069" y2="15.9947" gradientUnits="userSpaceOnUse">
<stop stop-color="#FFFCA8"/>
<stop offset="0.3123" stop-color="#FDB836"/>
<stop offset="0.7592" stop-color="#FDC966"/>
<stop offset="1" stop-color="#F1DC83"/>
</linearGradient>
<linearGradient id="paint1_linear_39_71369" x1="-5.4955" y1="-2.5" x2="18.8128" y2="40.8882" gradientUnits="userSpaceOnUse">
<stop stop-color="white"/>
<stop offset="1" stop-color="white" stop-opacity="0"/>
</linearGradient>
</defs>
</svg>
