<svg width="25" height="25" viewBox="0 0 25 25" fill="none" xmlns="http://www.w3.org/2000/svg">
<path d="M19.8659 5.13435C22.1385 7.40702 24.1156 12.1258 22.0388 16.1038C21.8231 16.5167 21.7153 16.7232 21.6759 16.8224C21.5082 17.2436 21.4837 17.4585 21.552 17.9066C21.5681 18.0121 21.604 18.151 21.676 18.4287C21.8919 19.2617 21.9999 19.6782 21.989 19.9818C21.9496 21.0736 21.0737 21.9495 19.982 21.9888C19.6784 21.9998 19.2618 21.8918 18.4288 21.6759C18.151 21.6039 18.0122 21.5679 17.906 21.5518C17.4578 21.4838 17.2366 21.5095 16.816 21.6787C16.7164 21.7187 16.5127 21.8262 16.1053 22.0411C12.1418 24.1317 7.50383 22.2351 5.13447 19.8657C1.06651 15.7978 1.06651 9.20231 5.13447 5.13435C9.20243 1.06638 15.7979 1.06638 19.8659 5.13435Z" stroke="white" stroke-width="1.5"/>
<path d="M9.22713 12.352C9.22713 12.9273 8.76076 13.3937 8.18547 13.3937C7.61017 13.3937 7.1438 12.9273 7.1438 12.352C7.1438 11.7767 7.61017 11.3104 8.18547 11.3104C8.76076 11.3104 9.22713 11.7767 9.22713 12.352Z" fill="white"/>
<path d="M13.3938 12.352C13.3938 12.9273 12.9274 13.3937 12.3521 13.3937C11.7768 13.3937 11.3105 12.9273 11.3105 12.352C11.3105 11.7767 11.7768 11.3104 12.3521 11.3104C12.9274 11.3104 13.3938 11.7767 13.3938 12.352Z" fill="white"/>
<path d="M17.5605 12.352C17.5605 12.9273 17.0941 13.3937 16.5188 13.3937C15.9435 13.3937 15.4771 12.9273 15.4771 12.352C15.4771 11.7767 15.9435 11.3104 16.5188 11.3104C17.0941 11.3104 17.5605 11.7767 17.5605 12.352Z" fill="white"/>
</svg>
