<svg width="56" height="56" viewBox="0 0 56 56" fill="none" xmlns="http://www.w3.org/2000/svg">
<path d="M43.6653 8L38.2063 14.4699C37.6486 15.5526 36.5678 17.6266 36.4577 17.6266C36.382 17.6266 35.4526 18.2136 34.5577 18.794L25.0783 30.0251L16.9001 21.3246C16.2461 21.2724 15.4338 21.0442 14.9587 20.2941C14.6421 19.7984 14.3461 19.068 14.0982 18.3375L11.7164 15.8069L3.22141 22.5573L2.98047 23.9987L9.91273 31.199H11.7026C11.7026 31.199 10.9316 31.6034 10.9316 31.6882C10.9316 31.7208 11.0004 32.0404 11.083 32.4056L16.6109 38.145C17.0928 38.2363 17.4783 38.3407 17.6435 38.4451C18.2425 38.8494 20.5693 41.6213 20.6519 41.8691C20.6794 41.9409 20.7001 42.1561 20.7276 42.417L26.1041 47.9999L44.2367 26.4966C43.9613 26.3857 43.7617 26.2422 43.7892 26.0596C43.8512 25.7205 45.9439 23.9595 47.4997 22.6225L54.5972 14.2025L43.6653 8Z" fill="url(#paint0_radial_1243_19558)"/>
<g opacity="0.4">
<path d="M11.1133 31.1992C11.189 31.271 11.2647 31.3362 11.3405 31.4079C11.5332 31.297 11.7191 31.1992 11.7191 31.1992H11.1133Z" fill="#22D8E0"/>
<path d="M45.337 22.8895C45.5367 22.7656 51.7461 14.6064 51.7461 14.6064L44.3388 10.2432C44.3388 10.2432 39.6026 16.4391 38.9348 17.3261C38.2671 18.2131 35.3964 20.6785 35.3276 20.9328C35.2588 21.1872 25.7174 32.4443 25.7174 32.4443C25.7174 32.4443 16.2381 23.2091 15.77 22.6416C15.3018 22.0742 11.7634 18.0892 11.7634 18.0892C11.7634 18.0892 9.829 19.6676 9.56052 19.8567C9.29204 20.0458 4.95508 23.5873 4.95508 23.5873C4.95508 23.5873 10.4968 29.2811 10.6964 29.4702C10.896 29.6594 18.5718 37.1206 18.6406 37.4402C18.6613 37.5446 19.5218 38.399 20.6645 39.4882C20.1345 38.562 19.3566 37.1793 18.8747 36.8011C18.1656 36.2532 15.1504 33.0248 15.0884 32.6661C15.0265 32.3008 16.183 31.6291 15.9214 31.2051C15.6667 30.7812 12.3899 30.5333 11.3641 28.8898C10.3384 27.2462 7.70182 24.9961 8.85835 23.4765C10.0149 21.9568 11.4949 21.0437 12.4518 21.4677C13.4156 21.8916 14.8268 24.1417 16.2381 24.9961C17.6493 25.8505 19.7076 28.5898 21.8899 31.0812C24.0721 33.5726 25.2287 36.0119 26.3232 34.9749C27.4178 33.9379 33.1316 25.7853 33.9645 24.8722C34.7975 23.9591 35.7613 22.3742 36.2776 22.3155C36.7939 22.2568 37.4961 21.3437 38.0743 20.1241C38.6526 18.9045 42.9551 13.0672 43.5334 12.8194C44.1117 12.5781 45.4609 12.0302 46.8102 13.2433C48.1595 14.4564 49.316 16.3478 47.774 18.174C46.232 20.0002 42.4457 24.3178 41.7986 24.9896C41.1584 25.6614 38.7834 28.8246 38.329 29.1898C37.8816 29.555 34.2812 34.6683 33.5102 35.7641C32.9939 36.4945 31.741 38.3077 30.9562 39.436C34.0747 35.6662 37.8196 31.1334 38.7214 30.0377C40.3254 28.0745 45.1305 23.0199 45.3301 22.8895H45.337Z" fill="#22D8E0"/>
</g>
<path opacity="0.15" d="M43.6673 8L38.2082 14.4699C37.6506 15.5526 36.5698 17.6266 36.4596 17.6266C36.3839 17.6266 35.4546 18.2136 34.5596 18.794L25.0803 30.0251L16.902 21.3246C16.248 21.2724 15.4357 21.0442 14.9607 20.2941C14.644 19.7984 14.348 19.068 14.1002 18.3375L11.7183 15.8069L3.22336 22.5573L2.98242 23.9987L9.91468 31.199H11.7045C11.7045 31.199 10.9335 31.6034 10.9335 31.6882C10.9335 31.7208 11.0024 32.0404 11.085 32.4056L16.6129 38.145C17.0948 38.2363 17.4803 38.3407 17.6455 38.4451C18.2444 38.8494 20.5712 41.6213 20.6538 41.8691C20.6814 41.9409 20.702 42.1561 20.7296 42.417L26.106 47.9999L44.2386 26.4966C43.9633 26.3857 43.7636 26.2422 43.7912 26.0596C43.8531 25.7205 45.9459 23.9595 47.5017 22.6225L54.5992 14.2025L43.6673 8ZM45.3332 22.8899C45.1336 23.0138 40.3285 28.075 38.7245 30.0381C37.1205 32.0012 26.4433 44.9019 26.4433 44.9019C26.4433 44.9019 18.6988 37.7537 18.6368 37.4407C18.568 37.1276 10.8922 29.6598 10.6926 29.4707C10.4929 29.2815 4.95127 23.5878 4.95127 23.5878C4.95127 23.5878 9.28823 20.0463 9.55671 19.8571C9.82519 19.668 11.7596 18.0897 11.7596 18.0897C11.7596 18.0897 15.298 22.0746 15.7661 22.6421C16.2343 23.2095 25.7136 32.4447 25.7136 32.4447C25.7136 32.4447 35.2618 21.1876 35.3238 20.9333C35.3926 20.6789 38.2633 18.2136 38.931 17.3266C39.5988 16.4396 44.335 10.2436 44.335 10.2436L51.7423 14.6069C51.7423 14.6069 45.5329 22.766 45.3332 22.8899Z" fill="#217CDF"/>
<g style="mix-blend-mode:overlay" opacity="0.28">
<path d="M20.1853 26.7514C20.1853 26.6209 20.0958 25.6426 19.9925 24.6056L16.9016 21.3185C16.5712 21.2924 16.1994 21.2207 15.8483 21.0576L15.752 22.636C15.752 22.636 20.1784 26.9666 20.1784 26.7514H20.1853Z" fill="#25CA88"/>
</g>
<g style="mix-blend-mode:overlay" opacity="0.45">
<path d="M38.312 17.9991C38.5736 17.7316 38.787 17.5034 38.9178 17.3273C39.0623 17.1381 39.3928 16.7077 39.8196 16.1403L39.496 15.2533L39.5373 12.8857L38.2018 14.4706C38.1743 14.5228 38.1468 14.575 38.1192 14.6337L38.2569 15.8663L36.9902 19.2513L38.312 17.9991Z" fill="#25CA88"/>
</g>
<path opacity="0.44" d="M9.92537 31.1985H11.7152C11.7152 31.1985 10.9442 31.6029 10.9442 31.6877C10.9442 31.7203 11.0131 32.0399 11.0957 32.4051L16.6236 38.1445C17.1055 38.2358 17.491 38.3402 17.6562 38.4445C18.2551 38.8489 20.5819 41.6208 20.6645 41.8686C20.6921 41.9404 20.7127 42.1556 20.7402 42.4165L26.1167 47.9994L44.2493 26.4961C43.974 26.3852 43.7743 26.2417 43.8019 26.0591C43.8638 25.72 45.9566 23.959 47.5124 22.622L54.5273 14.2998C53.3707 14.4889 51.7943 14.7172 51.753 14.5933C51.753 14.5933 45.5435 22.7524 45.3439 22.8763C45.1443 23.0003 40.3392 28.0614 38.7352 30.0245C37.1312 31.9877 26.454 44.8883 26.454 44.8883C26.454 44.8883 18.7094 37.7401 18.6475 37.4271C18.5786 37.114 10.9029 29.6463 10.7033 29.4571C10.5036 29.268 4.96196 23.5742 4.96196 23.5742L3.24094 22.5502L3 23.9916L9.93226 31.192L9.92537 31.1985Z" fill="#133E9F"/>
<g style="mix-blend-mode:overlay" opacity="0.45">
<path d="M44.3308 10.2436L49.5696 13.3285L49.5214 11.3328L43.6699 8C43.6699 8 43.9246 9.98923 44.3308 10.2436Z" fill="#25CA88"/>
</g>
<g style="mix-blend-mode:overlay" opacity="0.45">
<path d="M9.5499 19.8578L11.7528 18.0838L11.7184 15.8076L6.18359 20.2035L9.5499 19.8578Z" fill="#25CA88"/>
</g>
<path d="M36.4584 17.6259C36.4034 17.6259 35.9008 17.939 35.2812 18.3238C35.6668 18.826 36.2244 19.713 36.2244 19.713L36.7131 21.5718L36.9197 19.4456L37.4773 17.8542C37.4773 17.8542 38.1794 16.3933 38.2483 15.865C38.2896 15.5454 38.2827 14.8671 38.2689 14.3779L38.1932 14.4692C37.6356 15.5519 36.5548 17.6259 36.4447 17.6259H36.4584Z" fill="#206BB0"/>
<path opacity="0.64" d="M43.7917 26.066C43.8536 25.7269 45.9464 23.9659 47.5022 22.6289C47.5022 22.6289 44.1083 24.7355 43.5714 25.0421C43.0344 25.3486 39.9297 27.7813 39.9297 27.7813L43.0344 26.5617L44.2391 26.4965C43.9638 26.3856 43.7641 26.2421 43.7917 26.0595V26.066Z" fill="#133E9F"/>
<path opacity="0.64" d="M11.7029 31.1995C11.7029 31.1995 10.9319 31.6038 10.9319 31.6886C10.9319 31.7212 11.0007 32.0408 11.0833 32.406L11.2899 32.6213C11.5859 32.1713 12.0333 31.4734 12.233 31.5451C12.5221 31.656 15.4272 31.1016 15.4272 31.1016L11.7098 30.8799L9.91992 31.1929H11.7098L11.7029 31.1995Z" fill="#133E9F"/>
<path d="M43.7105 8.07781L43.683 9.82573L43.5728 10.8888C43.5728 10.8888 42.3406 12.6628 42.1823 12.7672C42.0239 12.865 39.346 16.7717 39.346 16.7717L38.1138 17.887C38.1138 17.887 37.742 18.3762 37.6801 18.4349C37.6181 18.4936 37.0812 19.0479 37.0812 19.0479L36.9366 19.3545L36.7852 21.1676L37.2739 19.2436C37.2739 19.2436 39.0294 17.4761 39.0913 17.3652C39.1533 17.2609 39.7866 16.4195 39.9312 16.4522C40.0757 16.4848 43.8276 17.0457 43.7794 17.0326C43.7312 17.0196 40.2341 16.2826 40.2341 16.2826C40.2341 16.2826 41.2323 14.2999 41.246 14.2868C41.2598 14.2738 42.8087 12.2715 42.8087 12.2715L43.9859 10.8693L44.8395 10.5171C44.8395 10.5171 45.9341 11.2345 46.0029 11.3584C46.0649 11.4823 47.8685 12.3172 47.8685 12.3172C47.8685 12.3172 46.0305 11.2475 46.0167 11.2149C46.0029 11.1823 44.9015 10.2823 44.8739 10.2823C44.8464 10.2823 43.9239 9.6692 43.9239 9.59746C43.9239 9.52571 43.6968 8.07129 43.6968 8.07129L43.7105 8.07781Z" fill="#22D8E0"/>
<path d="M35.5257 18.6436L36.2623 19.8371L36.7236 21.6698L36.1591 20.2545C36.1591 20.2545 35.7598 20.6132 35.5739 20.7893C35.388 20.9654 33.6395 23.2612 33.2402 23.6786C32.8409 24.096 31.7257 25.3352 31.7464 25.2896C31.767 25.2504 33.5087 23.1373 33.5087 23.1373L35.6496 20.3719L35.8837 19.5958L35.5257 18.6436Z" fill="#22D8E0"/>
<path opacity="0.7" d="M37.0074 22.6162L36.9592 26.6338L29.3867 35.9995L37.1451 26.9599L39.3411 27.6252L37.3309 26.6077L37.0074 22.6162Z" fill="#25BEAA"/>
<path d="M14.0617 19.5902C14.1168 19.7402 15.5555 21.6642 15.6106 21.8664C15.6657 22.0686 16.0925 22.8251 16.0925 22.8251L16.2026 21.7621C16.2026 21.7621 16.6708 21.6186 16.9737 21.3903L16.9117 21.3251C16.2577 21.2729 15.4454 21.0446 14.9704 20.2946C14.6537 19.7989 14.3577 19.0684 14.1099 18.338L13.8965 18.1162C13.9378 18.7162 14.0342 19.4924 14.0686 19.5902H14.0617Z" fill="#206BB0"/>
<path d="M3.37017 22.6547L5.10495 23.1765L8.30604 20.8024C8.30604 20.8024 10.4952 19.1915 10.4952 19.0871C10.4952 18.9828 11.4521 18.1219 11.4521 18.1219L11.7687 16.0479C11.7687 16.0479 11.9271 18.1219 11.9271 18.2197C11.9271 18.3175 14.543 20.6981 14.543 20.9459C14.543 21.1938 21.4202 28.2246 21.3169 28.1789C21.2137 28.1267 13.9579 21.1025 13.8477 20.9459C13.7376 20.7894 12.2988 18.9763 12.1405 18.9763H11.1285C11.1285 18.9763 9.95134 19.8437 9.84119 19.9024C9.73104 19.9611 7.34916 21.8134 7.23901 21.859C7.12887 21.8982 5.80024 22.9156 5.80024 23.0004C5.80024 23.0852 5.62814 23.6917 5.62814 23.7765C5.62814 23.8613 10.4401 29.1898 10.4814 29.2485L4.93973 23.5808L3.36328 22.6482L3.37017 22.6547Z" fill="#22D8E0"/>
<path d="M15.4284 31.1149C15.4284 31.1149 13.2255 31.4802 13.1635 31.4802C13.1016 31.4802 12.6816 31.4475 12.6816 31.4475C12.6816 31.4475 14.1342 32.8824 14.1342 32.9411C14.1342 32.9998 18.1269 36.9717 18.0994 36.8478C18.065 36.7239 14.5541 32.7585 14.4233 32.7259C14.2925 32.6933 13.3287 31.7802 13.3287 31.7802L15.4353 31.1084L15.4284 31.1149Z" fill="#22D8E0"/>
<path d="M22.6348 29.4902L25.7257 32.1773L27.9493 29.8294C27.9493 29.8294 25.9529 32.6404 25.9529 32.6665C25.9529 32.6926 27.9837 36.358 27.9837 36.358L25.4366 32.4513L22.6348 29.4902Z" fill="#22D8E0"/>
<path d="M37.0308 24.54L37.0652 26.438C37.0652 26.438 33.3271 31.2643 33.3616 31.2317C33.396 31.1991 37.134 26.7575 37.134 26.7575L38.6967 27.3706L37.375 26.5032L37.0377 24.54H37.0308Z" fill="#22D8E0"/>
<path d="M21.8164 40.4932C21.9197 40.591 25.0795 43.1672 25.0795 43.1672L26.236 44.3281C26.236 44.3281 26.9519 43.8455 26.9863 43.8129C27.0208 43.7803 29.6367 41.0475 29.6367 41.0475L27.5302 43.8781L26.6146 45.2934L26.174 47.6087C26.174 47.6087 26.2429 44.9086 26.2429 44.876C26.2429 44.8434 21.8302 40.4997 21.8302 40.4997L21.8164 40.4932Z" fill="#22D8E0"/>
<path d="M24.3979 35.4061L17.2316 30.8015C17.2316 30.8015 15.6758 25.3164 15.6758 25.336C15.6758 25.3816 16.729 30.371 16.729 30.371L16.2747 30.7884L16.9769 30.9906L24.3979 35.4061Z" fill="#22D8E0"/>
<path opacity="0.64" d="M20.6406 41.8561L20.5442 40.5713L21.4322 40.1017L18.4583 38.0342L16.5996 38.1516C17.0815 38.2429 17.467 38.3472 17.6322 38.4516C18.2174 38.8494 20.4547 41.5039 20.6337 41.8496L20.6406 41.8561Z" fill="#133E9F"/>
<path d="M25.5896 37.1279L26.2918 39.8411L23.5312 40.3107L26.5052 40.1607L29.4791 40.3824L26.6153 39.8672L25.5896 37.1279Z" fill="#22D8E0"/>
<path d="M49.5696 13.3291L51.9102 14.4835C51.9102 14.4835 54.7464 14.2291 54.5192 14.3139C54.2921 14.3987 52.0547 14.6726 51.9721 14.7248C51.8895 14.777 46.3203 21.7687 46.3203 21.7687L51.5729 14.7248L49.5765 13.3291H49.5696Z" fill="#22D8E0"/>
<g opacity="0.39">
<path d="M21.65 38.8229C21.884 38.7251 22.1525 38.8229 22.2558 39.0512C22.359 39.273 22.2558 39.5273 22.0148 39.6251C21.7808 39.723 21.5123 39.6251 21.409 39.3969C21.3058 39.1751 21.409 38.9208 21.65 38.8229Z" fill="#25B9B2"/>
<path d="M26.388 41.048C26.8354 40.8654 27.3518 41.061 27.5445 41.4785C27.7373 41.9024 27.5307 42.3915 27.0833 42.5742C26.6358 42.7568 26.1195 42.5611 25.9336 42.1437C25.7409 41.7198 25.9474 41.2306 26.388 41.048Z" fill="#25B9B2"/>
<path d="M36.2945 29.5036C36.5285 29.4058 36.797 29.5036 36.9003 29.7319C37.0035 29.9536 36.9003 30.208 36.6593 30.3058C36.4253 30.4036 36.1568 30.3058 36.0535 30.0775C35.9503 29.8558 36.0535 29.6014 36.2945 29.5036Z" fill="#25B9B2"/>
<path d="M18.2919 27.755C18.7738 27.5594 19.3383 27.7681 19.5448 28.2246C19.7513 28.6812 19.531 29.216 19.0491 29.4116C18.5672 29.6073 18.0027 29.3986 17.7962 28.9421C17.5897 28.4855 17.81 27.9507 18.2919 27.755Z" fill="#25B9B2"/>
<path d="M10.2569 21.7486C10.4978 21.5398 10.8696 21.5594 11.0899 21.7877C11.3102 22.016 11.2895 22.3682 11.0486 22.5769C10.8076 22.7856 10.4359 22.766 10.2156 22.5377C9.9953 22.3095 10.016 21.9573 10.2569 21.7486Z" fill="#25B9B2"/>
<path d="M24.9867 37.8714C25.1175 38.1257 25.0073 38.4258 24.7457 38.5497C24.4773 38.6736 24.1606 38.5692 24.0298 38.3214C23.899 38.0736 24.0092 37.767 24.2707 37.6431C24.5392 37.5192 24.8559 37.6235 24.9867 37.8714Z" fill="#23AFFF"/>
<path d="M22.184 35.263C22.3148 35.5173 22.2046 35.8174 21.943 35.9413C21.6745 36.0652 21.3579 35.9608 21.2271 35.713C21.0963 35.4652 21.2064 35.1586 21.468 35.0347C21.7296 34.9108 22.0532 35.0151 22.184 35.263Z" fill="#23AFFF"/>
<path d="M43.5934 20.1575C43.7379 20.4314 43.614 20.7705 43.3249 20.9075C43.0358 21.0445 42.6778 20.9271 42.5332 20.6531C42.3887 20.3792 42.5126 20.0401 42.8017 19.9031C43.0908 19.7661 43.4488 19.8835 43.5934 20.1575Z" fill="#23AFFF"/>
<path d="M41.9996 17.8876C42.1442 18.1615 42.0203 18.5007 41.7311 18.6311C41.442 18.7681 41.084 18.6572 40.9395 18.3768C40.7949 18.1028 40.9188 17.7637 41.208 17.6267C41.4971 17.4898 41.8551 17.6072 41.9996 17.8811V17.8876Z" fill="#23AFFF"/>
<path d="M34.0349 34.8518C33.9592 35.067 33.7045 35.1844 33.4773 35.1126C33.2501 35.0409 33.1262 34.7996 33.2019 34.5844C33.2777 34.3626 33.5324 34.2517 33.7595 34.3235C33.9867 34.3952 34.1106 34.6365 34.0349 34.8518Z" fill="#23AFFF"/>
<path opacity="0.75" d="M13.1706 28.0813C13.3978 28.2966 13.3978 28.6553 13.1706 28.8705C12.9435 29.0857 12.5648 29.0923 12.3377 28.8705C12.1036 28.6553 12.1036 28.2966 12.3377 28.0813C12.5648 27.8661 12.9435 27.8661 13.1706 28.0813Z" fill="#23AFFF"/>
<path opacity="0.75" d="M48.3826 15.0636C48.6855 15.6505 48.4308 16.3615 47.8112 16.6549C47.1916 16.9419 46.4413 16.7006 46.1315 16.1136C45.8286 15.5266 46.0833 14.8157 46.7029 14.5222C47.3224 14.2353 48.0728 14.4766 48.3826 15.0636Z" fill="#23AFFF"/>
<path opacity="0.75" d="M11.4777 25.7404C11.6292 25.8839 11.6292 26.1122 11.4777 26.2557C11.3263 26.3992 11.0853 26.3992 10.9339 26.2557C10.7825 26.1122 10.7825 25.8839 10.9339 25.7404C11.0853 25.5969 11.3263 25.5969 11.4777 25.7404Z" fill="#23AFFF"/>
</g>
<defs>
<radialGradient id="paint0_radial_1243_19558" cx="0" cy="0" r="1" gradientUnits="userSpaceOnUse" gradientTransform="translate(28.7888 28.0032) scale(23.5779 22.3381)">
<stop offset="0.09" stop-color="#25A3D2"/>
<stop offset="0.44" stop-color="#25A9CC"/>
<stop offset="0.9" stop-color="#25B6B9"/>
<stop offset="1" stop-color="#25B9B1"/>
</radialGradient>
</defs>
</svg>
