<svg width="64" height="64" viewBox="0 0 64 64" fill="none" xmlns="http://www.w3.org/2000/svg">
<g clip-path="url(#clip0_126_45920)">
<path d="M14.666 0L27.3353 35.8987V35.88L28.338 38.7067C33.906 54.464 36.9007 62.912 36.9167 62.9307C36.9327 62.9493 37.77 62.984 38.7833 63.0373C41.866 63.1707 45.69 63.5173 48.5887 63.864C48.914 63.9173 49.2873 63.9467 49.666 63.9467C49.738 63.9467 49.8074 63.9467 49.8793 63.944H49.8687L37.306 28.312L36.1433 25.032L29.682 6.76267C28.4553 3.296 27.4153 0.341333 27.362 0.229333L27.2847 0.00266667H14.682L14.666 0Z" fill="white"/>
<path d="M37.3627 0.032L37.336 14.184L37.3147 28.336L36.1493 25.0507L34.6373 56.544C36.1173 60.7227 36.9093 62.944 36.9173 62.9627C36.9253 62.9813 37.7707 63.0267 38.784 63.0747C41.8693 63.208 45.6907 63.5547 48.6 63.9013C48.9253 63.9547 49.2987 63.984 49.68 63.984C49.752 63.984 49.8213 63.984 49.8907 63.9813H49.88C49.9147 63.9547 49.9333 49.5253 49.9253 31.9493L49.8987 0.0266667H37.3627V0.032ZM14.6667 0V31.9787C14.6667 49.5653 14.6853 63.9707 14.7067 63.984C14.728 63.9973 15.816 63.904 17.1253 63.7547C18.4347 63.6053 20.2453 63.408 21.152 63.328C22.5333 63.1947 26.6667 62.928 27.1467 62.928C27.2853 62.928 27.296 62.208 27.3147 49.3787L27.336 35.8293L28.3493 38.656L28.696 39.6587L30.216 8.18667L29.7093 6.73067L27.2827 0H14.664L14.6667 0Z" fill="white"/>
</g>
<defs>
<clipPath id="clip0_126_45920">
<rect width="64" height="64" fill="white"/>
</clipPath>
</defs>
</svg>
