<svg width="20" height="20" viewBox="0 0 20 20" fill="none" xmlns="http://www.w3.org/2000/svg">
<path d="M16.0149 7.4487L15.8975 8.18947L16.0149 7.4487ZM12.5513 3.98514L11.8105 4.10247V4.10247L12.5513 3.98514ZM4.21756 16.7042L4.6584 16.0975L4.21756 16.7042ZM3.29576 15.7824L3.90253 15.3416L3.29576 15.7824ZM16.7042 15.7824L16.0975 15.3416L16.7042 15.7824ZM15.7824 16.7042L15.3416 16.0975L15.7824 16.7042ZM15.7824 3.29576L16.2233 2.689L15.7824 3.29576ZM16.7042 4.21756L17.311 3.77672L16.7042 4.21756ZM4.21756 3.29576L4.6584 3.90253L4.21756 3.29576ZM3.29576 4.21756L3.90253 4.6584L3.29576 4.21756ZM12.5 2.52411L12.5257 1.77455L12.5 2.52411ZM17.4759 7.5L18.2255 7.47432L17.4759 7.5ZM6.66667 10.9167C6.25245 10.9167 5.91667 11.2525 5.91667 11.6667C5.91667 12.0809 6.25245 12.4167 6.66667 12.4167V11.6667V10.9167ZM13.3333 12.4167C13.7475 12.4167 14.0833 12.0809 14.0833 11.6667C14.0833 11.2525 13.7475 10.9167 13.3333 10.9167V11.6667V12.4167ZM6.66667 7.58333C6.25245 7.58333 5.91667 7.91912 5.91667 8.33333C5.91667 8.74755 6.25245 9.08333 6.66667 9.08333V8.33333V7.58333ZM9.16667 9.08333C9.58088 9.08333 9.91667 8.74755 9.91667 8.33333C9.91667 7.91912 9.58088 7.58333 9.16667 7.58333V8.33333V9.08333ZM16.0149 7.4487L16.1322 6.70793C14.6702 6.47638 13.5236 5.32978 13.2921 3.86782L12.5513 3.98514L11.8105 4.10247C12.1437 6.20627 13.7937 7.85626 15.8975 8.18947L16.0149 7.4487ZM10 17.5V16.75C8.42091 16.75 7.29683 16.749 6.4285 16.6549C5.57421 16.5623 5.05688 16.387 4.6584 16.0975L4.21756 16.7042L3.77672 17.311C4.47352 17.8173 5.28502 18.0398 6.26693 18.1462C7.23481 18.251 8.45432 18.25 10 18.25V17.5ZM2.5 10H1.75C1.75 11.5457 1.74897 12.7652 1.85383 13.7331C1.96022 14.715 2.18275 15.5265 2.689 16.2233L3.29576 15.7824L3.90253 15.3416C3.61301 14.9431 3.43766 14.4258 3.34511 13.5715C3.25103 12.7032 3.25 11.5791 3.25 10H2.5ZM4.21756 16.7042L4.6584 16.0975C4.36834 15.8867 4.11326 15.6317 3.90253 15.3416L3.29576 15.7824L2.689 16.2233C2.99226 16.6407 3.35932 17.0077 3.77672 17.311L4.21756 16.7042ZM17.5 10H16.75C16.75 11.5791 16.749 12.7032 16.6549 13.5715C16.5623 14.4258 16.387 14.9431 16.0975 15.3416L16.7042 15.7824L17.311 16.2233C17.8173 15.5265 18.0398 14.715 18.1462 13.7331C18.251 12.7652 18.25 11.5457 18.25 10H17.5ZM10 17.5V18.25C11.5457 18.25 12.7652 18.251 13.7331 18.1462C14.715 18.0398 15.5265 17.8173 16.2233 17.311L15.7824 16.7042L15.3416 16.0975C14.9431 16.387 14.4258 16.5623 13.5715 16.6549C12.7032 16.749 11.5791 16.75 10 16.75V17.5ZM16.7042 15.7824L16.0975 15.3416C15.8867 15.6317 15.6317 15.8867 15.3416 16.0975L15.7824 16.7042L16.2233 17.311C16.6407 17.0077 17.0077 16.6407 17.311 16.2233L16.7042 15.7824ZM15.7824 3.29576L15.3416 3.90253C15.6317 4.11326 15.8867 4.36834 16.0975 4.6584L16.7042 4.21756L17.311 3.77672C17.0077 3.35932 16.6407 2.99226 16.2233 2.689L15.7824 3.29576ZM10 2.5V1.75C8.45432 1.75 7.23481 1.74897 6.26693 1.85383C5.28502 1.96022 4.47352 2.18275 3.77672 2.689L4.21756 3.29576L4.6584 3.90253C5.05688 3.61301 5.57421 3.43766 6.4285 3.34511C7.29683 3.25103 8.42091 3.25 10 3.25V2.5ZM2.5 10H3.25C3.25 8.42091 3.25103 7.29683 3.34511 6.4285C3.43766 5.57421 3.61301 5.05688 3.90253 4.6584L3.29576 4.21756L2.689 3.77672C2.18275 4.47352 1.96022 5.28502 1.85383 6.26693C1.74897 7.23481 1.75 8.45432 1.75 10H2.5ZM4.21756 3.29576L3.77672 2.689C3.35932 2.99226 2.99226 3.35932 2.689 3.77672L3.29576 4.21756L3.90253 4.6584C4.11326 4.36834 4.36834 4.11326 4.6584 3.90253L4.21756 3.29576ZM10 2.5V3.25C10.9783 3.25 11.7863 3.25009 12.4743 3.27367L12.5 2.52411L12.5257 1.77455C11.8065 1.74991 10.97 1.75 10 1.75V2.5ZM12.5 2.52411L12.4743 3.27367C14.0185 3.32657 14.7868 3.49945 15.3416 3.90253L15.7824 3.29576L16.2233 2.689C15.2704 1.99668 14.0884 1.82809 12.5257 1.77455L12.5 2.52411ZM12.5 2.52411L11.75 2.52411C11.75 3.25476 11.7482 3.70922 11.8105 4.10247L12.5513 3.98514L13.2921 3.86782C13.2528 3.62005 13.25 3.30973 13.25 2.5241L12.5 2.52411ZM17.5 10H18.25C18.25 9.03004 18.2501 8.19352 18.2255 7.47432L17.4759 7.5L16.7263 7.52568C16.7499 8.21372 16.75 9.02174 16.75 10H17.5ZM17.4759 7.5L18.2255 7.47432C18.1719 5.91157 18.0033 4.72962 17.311 3.77672L16.7042 4.21756L16.0975 4.6584C16.5005 5.21318 16.6734 5.98145 16.7263 7.52568L17.4759 7.5ZM17.4759 7.5L17.4759 6.75C16.6903 6.74999 16.3799 6.74718 16.1322 6.70793L16.0149 7.4487L15.8975 8.18947C16.2908 8.25175 16.7452 8.24999 17.4759 8.25L17.4759 7.5ZM6.66667 11.6667V12.4167H13.3333V11.6667V10.9167H6.66667V11.6667ZM6.66667 8.33333V9.08333H9.16667V8.33333V7.58333H6.66667V8.33333Z" fill="url(#paint0_linear_77289_62813)"/>
<defs>
<linearGradient id="paint0_linear_77289_62813" x1="2.49187" y1="9.99754" x2="17.5032" y2="9.99754" gradientUnits="userSpaceOnUse">
<stop stop-color="#FFF8C1"/>
<stop offset="0.0001" stop-color="#C2E8FD"/>
<stop offset="0.3123" stop-color="#919191"/>
<stop offset="0.7592" stop-color="#DDDDDD"/>
<stop offset="1" stop-color="#E3E3E3"/>
</linearGradient>
</defs>
</svg>
