<svg width="64" height="64" viewBox="0 0 64 64" fill="none" xmlns="http://www.w3.org/2000/svg">
<g clip-path="url(#clip0_126_45990)">
<path fill-rule="evenodd" clip-rule="evenodd" d="M50.928 28.3687C40.6144 22.2439 23.6 21.68 13.7504 24.6688C12.1696 25.1455 10.4992 24.2559 10.0192 22.6719C9.53919 21.0911 10.432 19.4206 12.0128 18.9406C23.3184 15.507 42.1088 16.1691 53.984 23.2188C55.4048 24.0636 55.872 25.9011 55.0272 27.3219C54.1888 28.7427 52.3456 29.2136 50.928 28.3687ZM50.592 37.4406C49.8688 38.615 48.3328 38.9825 47.1584 38.2625C38.56 32.9761 25.4464 31.4464 15.2736 34.5344C13.952 34.9312 12.56 34.1887 12.16 32.8703C11.7632 31.5519 12.5056 30.1594 13.824 29.7594C25.4432 26.233 39.8912 27.9421 49.7696 34.0125C50.944 34.7325 51.312 36.2694 50.592 37.4406ZM46.6752 46.1531C46.0992 47.0939 44.8736 47.3916 43.9328 46.8156C36.4192 42.2236 26.96 41.1873 15.8208 43.7313C14.7488 43.9776 13.6768 43.3049 13.4336 42.2297C13.1872 41.1577 13.856 40.0901 14.9344 39.8438C27.1232 37.0565 37.5776 38.2557 46.0128 43.4109C46.9536 43.9869 47.2512 45.2123 46.6752 46.1531ZM32 0C14.3264 0 0 14.3264 0 32C0 49.6736 14.3264 64 32 64C49.6736 64 64 49.6736 64 32C64 14.3296 49.6736 0 32 0Z" fill="white"/>
</g>
<defs>
<clipPath id="clip0_126_45990">
<rect width="64" height="64" fill="white"/>
</clipPath>
</defs>
</svg>
