<svg width="20" height="20" viewBox="0 0 20 20" fill="none" xmlns="http://www.w3.org/2000/svg">
<g clip-path="url(#clip0_77289_62586)">
<path d="M6.875 19.4141H13.125C13.125 17.6882 10 16.2891 10 16.2891C10 16.2891 6.875 17.6882 6.875 19.4141Z" fill="white"/>
<path d="M10 9.99996C10.5039 8.99207 11.3536 8.19898 12.3938 7.76559L13.4672 7.31836C14.6792 6.81336 15.4687 5.62906 15.4687 4.31602C15.4687 3.42836 15.1161 2.57707 14.4885 1.94941L13.125 0.585938H6.875L5.51152 1.94941C4.88387 2.57707 4.53125 3.42836 4.53125 4.31602C4.53125 5.62906 5.32078 6.81336 6.53281 7.31836L7.60621 7.76559C8.64641 8.19898 9.49605 8.99203 10 9.99996ZM10 9.99996C10.5039 11.0079 11.3536 11.801 12.3938 12.2344L13.4672 12.6816C14.6792 13.1866 15.4687 14.3709 15.4687 15.684C15.4687 16.5716 15.1161 17.4229 14.4885 18.0506L13.125 19.4141M10 9.99996C9.49605 11.0079 8.64641 11.801 7.60621 12.2344L6.53281 12.6816C5.32078 13.1866 4.53125 14.3709 4.53125 15.684C4.53125 16.5716 4.88387 17.4229 5.51152 18.0506L6.875 19.4141M6.875 19.4141H13.125M6.875 19.4141C6.875 17.6882 10 16.2891 10 16.2891C10 16.2891 13.125 17.6882 13.125 19.4141" stroke="white" stroke-width="1.2" stroke-miterlimit="10" stroke-linecap="round" stroke-linejoin="round"/>
</g>
<defs>
<clipPath id="clip0_77289_62586">
<rect width="20" height="20" fill="white"/>
</clipPath>
</defs>
</svg>
