<svg width="42" height="14" viewBox="0 0 42 14" fill="none" xmlns="http://www.w3.org/2000/svg">
<path d="M27.3561 0C24.374 0 21.709 1.5902 21.709 4.52822C21.709 7.89757 26.4354 8.13029 26.4354 9.82296C26.4354 10.5357 25.6415 11.1737 24.2856 11.1737C22.3612 11.1737 20.9229 10.2822 20.9229 10.2822L20.3074 13.247C20.3074 13.247 21.9643 14 24.1641 14C27.4246 14 29.9902 12.3317 29.9902 9.34346C29.9902 5.78313 25.244 5.55733 25.244 3.98625C25.244 3.42794 25.8957 2.81621 27.2478 2.81621C28.7734 2.81621 30.0181 3.46454 30.0181 3.46454L30.6204 0.601061C30.6204 0.601061 29.266 0 27.3561 0ZM0.0722101 0.216112L0 0.648336C0 0.648336 1.2546 0.884557 2.38457 1.35576C3.83951 1.8961 3.94315 2.21066 4.18818 3.18765L6.85831 13.7771H10.4376L15.9519 0.216112H12.3807L8.83753 9.43632L7.39169 1.62084C7.25909 0.726364 6.58745 0.216112 5.76532 0.216112H0.0722101ZM17.3879 0.216112L14.5864 13.7771H17.9918L20.7834 0.216112H17.3879ZM36.3807 0.216112C35.5596 0.216112 35.1245 0.668398 34.8053 1.45876L29.8162 13.7771H33.3873L34.0782 11.7241H38.4289L38.849 13.7771H42L39.2511 0.216112H36.3807ZM36.8452 3.87988L37.9037 8.96864H35.0678L36.8452 3.87988Z" fill="#2174C8"/>
</svg>
