<svg width="64" height="64" viewBox="0 0 64 64" fill="none" xmlns="http://www.w3.org/2000/svg">
<g clip-path="url(#clip0_126_45850)">
<path fill-rule="evenodd" clip-rule="evenodd" d="M25.563 40.2752V22.3174C31.9381 25.3171 36.8755 28.215 42.7151 31.3392C37.8987 34.0103 31.9381 37.0073 25.563 40.2752ZM61.0912 13.3861C59.9915 11.9373 58.1173 10.8095 56.1219 10.4361C50.2568 9.32236 13.6672 9.31919 7.80529 10.4361C6.20515 10.7361 4.78028 11.4612 3.55626 12.5877C-1.60116 17.3746 0.0149318 43.0451 1.25807 47.2033C1.78082 49.0032 2.45661 50.3012 3.30768 51.1533C4.40419 52.2798 5.90549 53.0555 7.62995 53.4033C12.4591 54.4022 37.3377 54.9607 56.0198 53.5533C57.7411 53.2533 59.2647 52.4527 60.4664 51.2783C65.235 46.5106 64.9099 19.3984 61.0912 13.3861Z" fill="white"/>
</g>
<defs>
<clipPath id="clip0_126_45850">
<rect width="64" height="64" fill="white"/>
</clipPath>
</defs>
</svg>
