<svg width="52" height="39" viewBox="0 0 52 39" fill="none" xmlns="http://www.w3.org/2000/svg">
<g clip-path="url(#clip0_126_45728)">
<path d="M25.9167 36.8022L41.3205 25.6111L35.4371 7.50441H16.3976L10.5143 25.6111L25.9167 36.8022Z" fill="#104556"/>
<path d="M35.9875 6.74682H15.8478L9.62427 25.9014L25.9177 37.7388L42.211 25.9014L35.9875 6.74682ZM12.8466 24.8535L17.839 9.48768H33.995L38.9874 24.8535L25.9163 34.3503L12.8453 24.8535H12.8466Z" fill="url(#paint0_radial_126_45728)"/>
<g style="mix-blend-mode:multiply" opacity="0.3">
<path d="M17.8407 9.48774L25.9194 34.3504L33.9967 9.48774H17.8407Z" fill="#0C363D"/>
</g>
<path d="M35.9867 6.74686H15.847L14.4078 11.1767C15.3027 11.2186 16.2303 11.3311 17.1814 11.5116L17.8395 9.48772H33.9955L38.9879 24.8535L37.0922 26.2312C37.5187 27.0593 37.8968 27.9162 38.2213 28.7993L42.2102 25.9002L35.9867 6.74555V6.74686Z" fill="url(#paint1_radial_126_45728)"/>
<path style="mix-blend-mode:screen" d="M35.9867 6.74686H15.847L14.4078 11.1767C15.3027 11.2186 16.2303 11.3311 17.1814 11.5116L17.8395 9.48772H33.9955L38.9879 24.8535L37.0922 26.2312C37.5187 27.0593 37.8968 27.9162 38.2213 28.7993L42.2102 25.9002L35.9867 6.74555V6.74686Z" fill="url(#paint2_linear_126_45728)"/>
<path style="mix-blend-mode:screen" d="M34.8833 31.2248C34.7878 30.1573 34.6295 29.142 34.4137 28.1778L25.9177 34.3503L12.8466 24.8535L16.4313 13.8194C15.4134 13.8442 14.41 13.9581 13.4392 14.1569L9.62427 25.9001L25.9177 37.7375L34.8833 31.2235V31.2248Z" fill="url(#paint3_linear_126_45728)"/>
<path d="M12.8463 24.8535L14.1389 24.5631L18.6381 10.7162H33.198L37.6972 24.5631L38.9885 24.8535L33.9961 9.48772H17.84L12.8463 24.8535Z" fill="#9E2C19"/>
<g style="mix-blend-mode:multiply" opacity="0.2">
<path d="M14.1388 24.5631L16.6559 18.1041C18.1461 14.2786 21.8315 12.6197 25.9356 12.6197C30.058 12.6197 33.7552 14.3009 35.2336 18.1499L37.6971 24.5644L33.1979 10.7162H18.638L14.1388 24.5644V24.5631Z" fill="#892334"/>
</g>
<path d="M12.8463 24.8535L14.1389 24.5631L25.9174 33.1219L37.6972 24.5631L38.9885 24.8535L25.9174 34.3504L12.8463 24.8535Z" fill="url(#paint4_linear_126_45728)"/>
<g style="mix-blend-mode:multiply" opacity="0.6">
<path d="M14.1388 24.5631L18.7583 12.7087C18.9808 12.137 19.5329 11.7602 20.1464 11.7602H31.7562C32.3724 11.7602 32.9258 12.1396 33.1469 12.7153L37.6971 24.5631L33.1979 10.7149H18.638L14.1388 24.5631Z" fill="#892334"/>
</g>
<path d="M17.8407 9.48774L18.6388 10.7162H33.1987L33.9967 9.48774H17.8407Z" fill="#681D15"/>
<g style="mix-blend-mode:multiply" opacity="0.35">
<path d="M11.8563 19.0316L10.2955 24.8744C10.1738 25.3781 10.4133 26.0453 10.828 26.3567L25.9164 37.7375L9.62305 25.9001L11.855 19.0316H11.8563Z" fill="#9E2C19"/>
</g>
<g style="mix-blend-mode:multiply" opacity="0.6">
<path d="M14.1388 24.5631L25.377 32.1328C25.6753 32.333 26.1619 32.333 26.4602 32.1328L37.6984 24.5631L25.9186 33.1206L14.1388 24.5631Z" fill="#892334"/>
</g>
<g style="mix-blend-mode:multiply" opacity="0.35">
<path d="M25.9175 37.7375L40.4264 26.5308C41.4416 25.7785 41.6601 25.615 41.2035 24.1745L38.1761 13.4819L42.2109 25.9002L25.9175 37.7375Z" fill="#9E2C19"/>
</g>
<path d="M18.7179 29.1185L25.9174 34.3504L35.6406 27.2856L25.9187 34.7939L18.7179 29.1185Z" fill="#FFF5CC"/>
<path d="M25.3728 6.74682H35.9882L38.177 13.4819L35.584 7.11968L25.3728 6.74682Z" fill="#FFF5CC"/>
<g style="mix-blend-mode:screen">
<path d="M29.5963 6.74682C29.5086 7.61945 29.8893 8.59674 30.6233 9.48768H33.9947L34.8281 12.0545C35.8852 12.3136 36.8952 12.3214 37.7233 12.0951L35.9859 6.74682H29.595H29.5963Z" fill="#FFF2BB"/>
</g>
<g style="mix-blend-mode:screen">
<path d="M17.843 28.4828C17.5879 29.1382 18.0497 30.1168 18.9773 30.7906C19.9049 31.4644 20.9777 31.6004 21.5219 31.1556L17.843 28.4828Z" fill="#FFF2BB"/>
</g>
<g style="mix-blend-mode:screen">
<path d="M21.5453 32.9452C21.3896 33.1833 20.9605 33.1794 20.5851 32.9347C20.2096 32.6901 20.0317 32.2989 20.1873 32.0608C20.343 31.8227 20.7721 31.8266 21.1476 32.0713C21.5231 32.3159 21.701 32.7071 21.5453 32.9452Z" fill="#FFF2BB"/>
</g>
<path d="M14.2606 6.88038L13.6444 11.9788C12.1857 11.9709 10.9664 11.9644 8.77497 11.967C1.01553 11.9761 0.974976 6.85683 0.974976 6.85683L14.2606 6.88168V6.88038Z" fill="#681D15"/>
<path d="M14.2606 6.88038L12.9497 10.8628C11.491 10.8549 11.2516 10.8497 9.06018 10.851C1.30074 10.8615 0.974976 6.85683 0.974976 6.85683L14.2606 6.88168V6.88038Z" fill="url(#paint5_radial_126_45728)"/>
<path d="M12.2942 12.9337L11.6872 18.0334C10.2285 18.0256 12.0025 18.0321 9.81111 18.0334C2.05167 18.0426 2.00195 12.9089 2.00195 12.9089L12.2942 12.9337Z" fill="#681D15"/>
<path d="M12.2943 12.9337L10.9978 16.9253C9.53902 16.9175 12.2943 16.9122 10.1029 16.9135C2.34345 16.9227 2.0033 12.9089 2.0033 12.9089L12.2956 12.9337H12.2943Z" fill="url(#paint6_radial_126_45728)"/>
<path d="M10.3296 18.9859L4.8623 18.9637C4.8623 18.9637 5.72054 22.8022 9.71997 24.0869L10.3296 18.9872V18.9859Z" fill="#681D15"/>
<path d="M10.3296 18.9859L4.8623 18.9637C4.8623 18.9637 5.03107 21.6941 9.0305 22.9788L10.3296 18.9872V18.9859Z" fill="url(#paint7_radial_126_45728)"/>
<path d="M14.26 6.88028L14.9155 8.14539L13.6438 11.9787L12.9504 10.8627L14.26 6.88028Z" fill="#9E2C19"/>
<path d="M12.2944 12.9337L12.9512 14.1871L11.6874 18.0334L10.9979 16.9253L12.2944 12.9337Z" fill="#9E2C19"/>
<path d="M10.3267 18.9872L10.9821 20.2392L9.71962 24.0856L9.03015 22.9775L10.3267 18.9872Z" fill="#9E2C19"/>
<path d="M37.5781 6.88038L38.1943 11.9788C39.6531 11.9709 40.8724 11.9644 43.0638 11.967C50.8232 11.9762 50.8638 6.85553 50.8638 6.85553L37.5781 6.88038Z" fill="#681D15"/>
<path d="M37.5781 6.88038L38.889 10.8628C40.3478 10.855 40.5872 10.8497 42.7786 10.851C50.538 10.8602 50.8638 6.85553 50.8638 6.85553L37.5781 6.88038Z" fill="url(#paint8_radial_126_45728)"/>
<path d="M39.5446 12.9337L40.1517 18.0334C41.6104 18.0255 39.8364 18.0321 42.0278 18.0334C49.7872 18.0425 49.8356 12.9088 49.8356 12.9088L39.5433 12.9337H39.5446Z" fill="#681D15"/>
<path d="M39.5446 12.9337L40.8412 16.9252C42.2999 16.9174 39.5446 16.9122 41.736 16.9135C49.4955 16.9226 49.8356 12.9088 49.8356 12.9088L39.5433 12.9337H39.5446Z" fill="url(#paint9_radial_126_45728)"/>
<path d="M41.5111 18.9859L46.9784 18.9637C46.9784 18.9637 46.1202 22.8022 42.1208 24.0869L41.5111 18.9872V18.9859Z" fill="#681D15"/>
<path d="M41.5111 18.9859L46.9784 18.9637C46.9784 18.9637 46.8097 21.6941 42.8102 22.9788L41.5111 18.9872V18.9859Z" fill="url(#paint10_radial_126_45728)"/>
<path style="mix-blend-mode:screen" d="M37.5781 6.88038L38.889 10.8628C40.3478 10.855 40.5872 10.8497 42.7786 10.851C50.538 10.8602 50.8638 6.85553 50.8638 6.85553L37.5781 6.88038Z" fill="url(#paint11_linear_126_45728)"/>
<path style="mix-blend-mode:screen" d="M39.5446 12.9337L40.8412 16.9252C42.2999 16.9174 39.5446 16.9122 41.736 16.9135C49.4955 16.9226 49.8356 12.9088 49.8356 12.9088L39.5433 12.9337H39.5446Z" fill="url(#paint12_linear_126_45728)"/>
<path style="mix-blend-mode:screen" d="M41.5111 18.9859L46.9784 18.9637C46.9784 18.9637 46.8097 21.6941 42.8102 22.9788L41.5111 18.9872V18.9859Z" fill="url(#paint13_linear_126_45728)"/>
<path d="M37.5785 6.88028L36.9243 8.14539L38.1947 11.9787L38.8894 10.8627L37.5785 6.88028Z" fill="#9E2C19"/>
<path d="M39.5438 12.9337L38.8883 14.1871L40.1508 18.0334L40.8403 16.9253L39.5438 12.9337Z" fill="#9E2C19"/>
<path d="M41.5115 18.9872L40.8561 20.2392L42.1199 24.0856L42.808 22.9774L41.5115 18.9872Z" fill="#9E2C19"/>
<path style="mix-blend-mode:screen" d="M14.2606 6.88038L0.974976 6.85552C0.974976 6.85552 1.30074 10.8602 9.06018 10.851C11.2516 10.8484 11.491 10.8549 12.9497 10.8628L14.2606 6.88038Z" fill="url(#paint14_linear_126_45728)"/>
<path style="mix-blend-mode:screen" d="M10.3296 18.9859L4.8623 18.9637C4.8623 18.9637 5.03107 21.6941 9.0305 22.9788L10.3296 18.9872V18.9859Z" fill="url(#paint15_linear_126_45728)"/>
<path style="mix-blend-mode:screen" d="M10.9977 16.9253L11.7618 14.5717C10.7217 14.9119 9.73391 15.3593 8.82727 15.914C8.45179 16.1443 8.0109 16.4269 7.53076 16.7448C8.28172 16.8534 9.13472 16.9149 10.1029 16.9135C12.2942 16.9109 9.53898 16.9175 10.9977 16.9253Z" fill="url(#paint16_linear_126_45728)"/>
<g style="mix-blend-mode:multiply" opacity="0.35">
<path d="M12.2243 17.9026L15.6272 8.14538C15.9791 7.15501 16.2342 6.89466 17.2848 6.85672L25.9182 6.74682H15.8483L12.223 17.9026H12.2243Z" fill="#9E2C19"/>
</g>
<g style="mix-blend-mode:screen">
<path d="M28.9616 8.26968C28.2577 7.75814 27.41 7.72544 27.0672 8.19642C26.8212 8.53396 26.9037 9.03895 27.2294 9.48639H29.7531C29.7139 9.07428 29.4286 8.60853 28.9616 8.26968Z" fill="#FFF2BB"/>
</g>
<g style="mix-blend-mode:multiply" opacity="0.6">
<path d="M30.0523 22.6596L32.1351 19.0513V17.9472L27.9695 19.0513L25.8867 15.4431L23.8039 19.0513L19.6383 17.9472V19.0513L21.7211 22.6596L19.6383 25.1623V26.2665H23.8039L25.8867 29.8748L27.9695 26.2665H32.1351V25.1623L30.0523 22.6596Z" fill="#892334"/>
</g>
<path d="M30.0523 21.5554L32.1351 17.9472V16.5983L27.9695 17.9472L25.8867 14.3402L23.8039 17.9472L19.6383 16.5983V17.9472L21.7211 21.5554L19.6383 23.8135V25.1623H23.8039L25.8867 28.7706L27.9695 25.1623H32.1351V23.8135L30.0523 21.5554Z" fill="#9E2C19"/>
<path d="M30.0523 20.2053L32.1351 16.5983H27.9695L25.8867 12.9901L23.8039 16.5983H19.6383L21.7211 20.2053L19.6383 23.8135H23.8039L25.8867 27.4218L27.9695 23.8135H32.1351L30.0523 20.2053Z" fill="url(#paint17_radial_126_45728)"/>
<path d="M32.1358 23.8134H27.9702V25.1623H32.1358V23.8134Z" fill="#681D15"/>
<path d="M23.8039 25.1623L25.8867 28.7706V27.4218L23.8039 23.8135H19.6383V25.1623H23.8039Z" fill="#681D15"/>
<path style="mix-blend-mode:screen" d="M24.4646 15.4536L23.8039 16.5983H19.6383L21.7211 20.2066L19.6383 23.8148H23.8039L25.8867 27.4231L27.9695 23.8148H32.1351L30.0523 20.2066L30.2851 19.8036C28.6171 17.8922 26.6154 16.4479 24.4646 15.4536Z" fill="url(#paint18_linear_126_45728)"/>
<path d="M19.6383 16.5983L21.7211 20.2053L21.3312 20.8803L19.6383 17.9472V16.5983Z" fill="#681D15"/>
<g style="mix-blend-mode:multiply" opacity="0.35">
<path d="M19.6383 16.5983L22.0848 19.6989C22.3635 20.0731 22.4485 20.2066 22.0848 20.7142L19.6383 23.8148L21.7211 20.2066L19.6383 16.5983Z" fill="#9E2C19"/>
</g>
<g style="mix-blend-mode:screen" opacity="0.8">
<path d="M25.887 12.9901L27.8965 16.9529L32.1353 16.5983H27.9698L25.887 12.9901Z" fill="#FFE67B"/>
</g>
<g style="mix-blend-mode:screen" opacity="0.5">
<path d="M19.6383 23.8135L24.1951 23.4197L25.8867 27.4218L23.8039 23.8135H19.6383Z" fill="#FFE67B"/>
</g>
<g style="mix-blend-mode:multiply" opacity="0.35">
<path d="M25.887 27.4218L27.5132 23.442C27.6898 23.0625 27.924 23.0207 28.1935 23.0717L32.1353 23.8148H27.9698L25.887 27.4231V27.4218Z" fill="#9E2C19"/>
</g>
<path style="mix-blend-mode:screen" d="M31.0753 18.4339L32.135 16.5984H28.8132C29.593 17.1714 30.3492 17.7837 31.074 18.4339H31.0753Z" fill="url(#paint19_linear_126_45728)"/>
<path style="mix-blend-mode:screen" d="M27.409 15.6263L25.8875 12.9901L25.1392 14.2853C25.9097 14.6961 26.6672 15.1435 27.409 15.6249V15.6263Z" fill="url(#paint20_linear_126_45728)"/>
<path d="M27.4052 20.0613C27.082 20.6213 26.1244 20.6749 25.2674 20.1804C24.4105 19.6859 23.9788 18.8302 24.3019 18.2703C24.6251 17.7103 25.5827 17.6567 26.4397 18.1512C27.2966 18.6458 27.7283 19.5014 27.4052 20.0613Z" fill="#FCE265"/>
<path d="M24.3073 20.4041C24.204 20.5833 23.8625 20.5807 23.5459 20.3975C23.2293 20.2144 23.0553 19.9213 23.16 19.7408C23.2633 19.5615 23.6048 19.5642 23.9214 19.7473C24.238 19.9305 24.412 20.2235 24.3073 20.4041Z" fill="#FCE265"/>
<g style="mix-blend-mode:multiply" opacity="0.35">
<path fill-rule="evenodd" clip-rule="evenodd" d="M40.5859 10.5592C39.7015 10.4715 39.084 10.151 38.681 9.35817L37.5781 6.88028L38.889 10.8627C40.3478 10.8549 40.5872 10.8483 42.7786 10.8509C44.0149 10.8522 45.0615 10.7515 45.9498 10.5814C44.0267 10.813 42.0525 10.7044 40.5859 10.5579V10.5592Z" fill="#9E2C19"/>
</g>
<g style="mix-blend-mode:multiply" opacity="0.35">
<path fill-rule="evenodd" clip-rule="evenodd" d="M41.7359 16.9135C43.6133 16.9162 45.0551 16.682 46.1645 16.3274C44.5697 16.7709 43.2313 16.7395 42.2108 16.6781C41.5096 16.6349 40.9392 16.1194 40.6422 15.4836L39.5446 12.9337L40.8411 16.9253C42.2998 16.9175 39.5446 16.9122 41.7359 16.9135Z" fill="#9E2C19"/>
</g>
<g style="mix-blend-mode:multiply" opacity="0.35">
<path fill-rule="evenodd" clip-rule="evenodd" d="M42.8088 22.9775C43.6749 22.6988 44.3605 22.3534 44.9047 21.9819C44.261 22.2265 43.0522 22.4031 43.0522 22.4031L41.5123 18.9859V18.9898L42.8088 22.9775Z" fill="#9E2C19"/>
</g>
<g style="mix-blend-mode:multiply" opacity="0.35">
<path d="M9.06018 10.851C11.2516 10.8484 11.491 10.8549 12.9497 10.8628L13.9885 7.70721L13.2166 9.43023C12.8464 10.3382 12.6266 10.6365 11.7199 10.6456C10.7426 10.6548 8.90188 10.6338 7.96776 10.5972C3.89376 10.4376 1.49437 8.67665 0.974976 6.85814C0.974976 6.85814 1.30074 10.8628 9.06018 10.8536V10.851Z" fill="#9E2C19"/>
</g>
<g style="mix-blend-mode:multiply" opacity="0.35">
<path d="M11.1717 15.7479C10.9258 16.2646 10.6602 16.6977 10.0885 16.6767C9.49712 16.6558 7.83429 16.644 6.88578 16.4295C4.68263 15.9323 3.36649 15.112 2.47424 14.1047C3.22389 15.286 5.15361 16.9175 10.1042 16.9122C12.2955 16.9096 9.5403 16.9162 10.999 16.924L12.0718 13.6219L11.1717 15.7479Z" fill="#9E2C19"/>
</g>
<g style="mix-blend-mode:multiply" opacity="0.35">
<path d="M9.0305 22.9774L10.1635 19.496C9.95154 19.9395 9.53027 20.9665 9.10115 21.9177C8.8094 22.5653 8.53205 22.4828 8.082 22.2958C5.85006 21.3669 5.3359 20.2601 4.8623 18.9622C4.8623 18.9622 5.03107 21.6926 9.0305 22.9774Z" fill="#9E2C19"/>
</g>
<path d="M37.5781 6.88035L49.7282 7.08836C50.2162 7.09621 50.4438 7.46253 50.2319 7.90342C50.0121 8.36263 49.6562 8.91081 49.0727 9.3844C50.7499 8.24489 50.8638 6.8568 50.8638 6.8568L37.5781 6.88165V6.88035Z" fill="#FFF5CC"/>
<path d="M39.5446 12.9338L48.5077 13.1444C49.5543 13.168 49.3856 13.6115 49.1121 14.1557C48.9434 14.492 48.7131 14.8596 48.4096 15.1657C49.7349 14.0877 49.8356 12.9102 49.8356 12.9102L39.5433 12.9351L39.5446 12.9338Z" fill="#FFF5CC"/>
<path d="M46.0377 20.9706C46.9182 19.9227 46.977 18.9637 46.977 18.9637L41.5189 18.9859H41.5123L46.0246 19.1769C46.6918 19.2175 46.5702 19.4687 46.493 19.7918C46.4027 20.1647 46.2549 20.603 46.0364 20.9693L46.0377 20.9706Z" fill="#FFF5CC"/>
<g style="mix-blend-mode:screen" opacity="0.5">
<path d="M4.50684 6.8568L14.2614 6.88165L13.933 7.87857C13.933 7.36834 13.691 7.1093 13.1023 7.10275L4.50684 6.8568Z" fill="#FFE67B"/>
</g>
<g style="mix-blend-mode:screen" opacity="0.5">
<path d="M4.50684 12.9337H12.2951L11.9366 14.0379L11.9745 13.6716C11.9942 13.3249 11.8712 13.1444 11.2406 13.113L4.50814 12.9337H4.50684Z" fill="#FFE67B"/>
</g>
<g style="mix-blend-mode:screen" opacity="0.5">
<path d="M5.91354 18.9675L10.3277 18.9858L9.99147 20.0154L9.97053 19.5379C9.95876 19.271 9.8855 19.1794 9.52179 19.1559L5.91223 18.9688L5.91354 18.9675Z" fill="#FFE67B"/>
</g>
<g style="mix-blend-mode:screen">
<path d="M38.8889 10.8627C39.8296 10.8575 40.2639 10.8535 41.0398 10.8522C42.4161 9.99007 43.3319 8.70926 43.4614 7.21781C43.4719 7.10137 43.4745 6.98625 43.4758 6.86981L37.5793 6.88027L38.8902 10.8627H38.8889Z" fill="#FFF2BB"/>
</g>
<path style="mix-blend-mode:screen" d="M2.0033 12.9102C2.0033 12.9102 2.05955 13.5604 2.62996 14.3362C3.47643 13.8574 4.42101 13.3681 5.42839 12.9194L2.0033 12.9115V12.9102Z" fill="url(#paint21_linear_126_45728)"/>
<path style="mix-blend-mode:color-dodge" opacity="0.5" d="M34.4825 19.4228C39.846 19.4228 44.1939 15.0749 44.1939 9.7114C44.1939 4.34794 39.846 0 34.4825 0C29.1191 0 24.7711 4.34794 24.7711 9.7114C24.7711 15.0749 29.1191 19.4228 34.4825 19.4228Z" fill="url(#paint22_radial_126_45728)"/>
<path style="mix-blend-mode:color-dodge" opacity="0.5" d="M19.6381 39C23.8469 39 27.2589 35.5881 27.2589 31.3792C27.2589 27.1704 23.8469 23.7585 19.6381 23.7585C15.4293 23.7585 12.0173 27.1704 12.0173 31.3792C12.0173 35.5881 15.4293 39 19.6381 39Z" fill="url(#paint23_radial_126_45728)"/>
</g>
<defs>
<radialGradient id="paint0_radial_126_45728" cx="0" cy="0" r="1" gradientUnits="userSpaceOnUse" gradientTransform="translate(34.6243 7.78168) scale(25.8478 25.8478)">
<stop offset="0.01" stop-color="#E8B321"/>
<stop offset="1" stop-color="#E36C0B"/>
</radialGradient>
<radialGradient id="paint1_radial_126_45728" cx="0" cy="0" r="1" gradientUnits="userSpaceOnUse" gradientTransform="translate(39.3255 4.26243) scale(35.7594 35.7594)">
<stop offset="0.01" stop-color="#E8B321"/>
<stop offset="1" stop-color="#E36C0B"/>
</radialGradient>
<linearGradient id="paint2_linear_126_45728" x1="40.8692" y1="1.71781" x2="24.6609" y2="21.711" gradientUnits="userSpaceOnUse">
<stop stop-color="#FFE969"/>
<stop offset="0.11" stop-color="#FEE366"/>
<stop offset="0.24" stop-color="#FBD45F"/>
<stop offset="0.38" stop-color="#F6BC54"/>
<stop offset="0.53" stop-color="#F09945"/>
<stop offset="0.69" stop-color="#E86D31"/>
<stop offset="0.85" stop-color="#DE3719"/>
<stop offset="1" stop-color="#D40000"/>
</linearGradient>
<linearGradient id="paint3_linear_126_45728" x1="15.0602" y1="34.1004" x2="29.2289" y2="16.3391" gradientUnits="userSpaceOnUse">
<stop stop-color="#D40000"/>
<stop offset="1" stop-color="#FFE447"/>
</linearGradient>
<linearGradient id="paint4_linear_126_45728" x1="25.9174" y1="22.2985" x2="25.9174" y2="27.6977" gradientUnits="userSpaceOnUse">
<stop offset="0.63" stop-color="#F7D24A"/>
<stop offset="1" stop-color="#F7E399"/>
</linearGradient>
<radialGradient id="paint5_radial_126_45728" cx="0" cy="0" r="1" gradientUnits="userSpaceOnUse" gradientTransform="translate(18.7088 2.70171) scale(28.6868)">
<stop offset="0.01" stop-color="#E8B321"/>
<stop offset="1" stop-color="#E36C0B"/>
</radialGradient>
<radialGradient id="paint6_radial_126_45728" cx="0" cy="0" r="1" gradientUnits="userSpaceOnUse" gradientTransform="translate(18.7088 2.70164) scale(28.6868 28.6868)">
<stop offset="0.01" stop-color="#E8B321"/>
<stop offset="1" stop-color="#E36C0B"/>
</radialGradient>
<radialGradient id="paint7_radial_126_45728" cx="0" cy="0" r="1" gradientUnits="userSpaceOnUse" gradientTransform="translate(18.7092 2.70169) scale(28.6868 28.6868)">
<stop offset="0.01" stop-color="#E8B321"/>
<stop offset="1" stop-color="#E36C0B"/>
</radialGradient>
<radialGradient id="paint8_radial_126_45728" cx="0" cy="0" r="1" gradientUnits="userSpaceOnUse" gradientTransform="translate(36.1142 7.36053) scale(29.6471 29.6471)">
<stop offset="0.01" stop-color="#E8B321"/>
<stop offset="1" stop-color="#E36C0B"/>
</radialGradient>
<radialGradient id="paint9_radial_126_45728" cx="0" cy="0" r="1" gradientUnits="userSpaceOnUse" gradientTransform="translate(36.1143 7.36037) scale(29.6471 29.6471)">
<stop offset="0.01" stop-color="#E8B321"/>
<stop offset="1" stop-color="#E36C0B"/>
</radialGradient>
<radialGradient id="paint10_radial_126_45728" cx="0" cy="0" r="1" gradientUnits="userSpaceOnUse" gradientTransform="translate(36.1144 7.36049) scale(29.6471 29.6471)">
<stop offset="0.01" stop-color="#E8B321"/>
<stop offset="1" stop-color="#E36C0B"/>
</radialGradient>
<linearGradient id="paint11_linear_126_45728" x1="45.9001" y1="4.87609" x2="30.2256" y2="26.1789" gradientUnits="userSpaceOnUse">
<stop stop-color="#FFE969"/>
<stop offset="0.11" stop-color="#FEE366"/>
<stop offset="0.24" stop-color="#FBD45F"/>
<stop offset="0.38" stop-color="#F6BC54"/>
<stop offset="0.53" stop-color="#F09945"/>
<stop offset="0.69" stop-color="#E86D31"/>
<stop offset="0.85" stop-color="#DE3719"/>
<stop offset="1" stop-color="#D40000"/>
</linearGradient>
<linearGradient id="paint12_linear_126_45728" x1="49.0925" y1="7.22562" x2="33.4192" y2="28.5284" gradientUnits="userSpaceOnUse">
<stop stop-color="#FFE969"/>
<stop offset="0.11" stop-color="#FEE366"/>
<stop offset="0.24" stop-color="#FBD45F"/>
<stop offset="0.38" stop-color="#F6BC54"/>
<stop offset="0.53" stop-color="#F09945"/>
<stop offset="0.69" stop-color="#E86D31"/>
<stop offset="0.85" stop-color="#DE3719"/>
<stop offset="1" stop-color="#D40000"/>
</linearGradient>
<linearGradient id="paint13_linear_126_45728" x1="51.7341" y1="9.16854" x2="36.0595" y2="30.4714" gradientUnits="userSpaceOnUse">
<stop stop-color="#FFE969"/>
<stop offset="0.11" stop-color="#FEE366"/>
<stop offset="0.24" stop-color="#FBD45F"/>
<stop offset="0.38" stop-color="#F6BC54"/>
<stop offset="0.53" stop-color="#F09945"/>
<stop offset="0.69" stop-color="#E86D31"/>
<stop offset="0.85" stop-color="#DE3719"/>
<stop offset="1" stop-color="#D40000"/>
</linearGradient>
<linearGradient id="paint14_linear_126_45728" x1="22.5395" y1="-12.3109" x2="6.86488" y2="8.99195" gradientUnits="userSpaceOnUse">
<stop stop-color="#FFE969"/>
<stop offset="0.11" stop-color="#FEE366"/>
<stop offset="0.24" stop-color="#FBD45F"/>
<stop offset="0.38" stop-color="#F6BC54"/>
<stop offset="0.53" stop-color="#F09945"/>
<stop offset="0.69" stop-color="#E86D31"/>
<stop offset="0.85" stop-color="#DE3719"/>
<stop offset="1" stop-color="#D40000"/>
</linearGradient>
<linearGradient id="paint15_linear_126_45728" x1="2.94828" y1="26.99" x2="15.1114" y2="8.67925" gradientUnits="userSpaceOnUse">
<stop stop-color="#D40000"/>
<stop offset="1" stop-color="#FFE447"/>
</linearGradient>
<linearGradient id="paint16_linear_126_45728" x1="2.64955" y1="26.7924" x2="14.814" y2="8.48165" gradientUnits="userSpaceOnUse">
<stop stop-color="#D40000"/>
<stop offset="1" stop-color="#FFE447"/>
</linearGradient>
<radialGradient id="paint17_radial_126_45728" cx="0" cy="0" r="1" gradientUnits="userSpaceOnUse" gradientTransform="translate(36.8737 7.2964) scale(29.5071 29.5071)">
<stop offset="0.01" stop-color="#E8B321"/>
<stop offset="1" stop-color="#E36C0B"/>
</radialGradient>
<linearGradient id="paint18_linear_126_45728" x1="19.378" y1="30.0226" x2="31.3148" y2="12.0193" gradientUnits="userSpaceOnUse">
<stop stop-color="#D40000"/>
<stop offset="1" stop-color="#FFE447"/>
</linearGradient>
<linearGradient id="paint19_linear_126_45728" x1="38.9721" y1="4.00613" x2="24.7052" y2="25.3574" gradientUnits="userSpaceOnUse">
<stop stop-color="#FFE969"/>
<stop offset="0.11" stop-color="#FEE366"/>
<stop offset="0.24" stop-color="#FBD45F"/>
<stop offset="0.38" stop-color="#F6BC54"/>
<stop offset="0.53" stop-color="#F09945"/>
<stop offset="0.69" stop-color="#E86D31"/>
<stop offset="0.85" stop-color="#DE3719"/>
<stop offset="1" stop-color="#D40000"/>
</linearGradient>
<linearGradient id="paint20_linear_126_45728" x1="35.2117" y1="1.49284" x2="20.9448" y2="22.8441" gradientUnits="userSpaceOnUse">
<stop stop-color="#FFE969"/>
<stop offset="0.11" stop-color="#FEE366"/>
<stop offset="0.24" stop-color="#FBD45F"/>
<stop offset="0.38" stop-color="#F6BC54"/>
<stop offset="0.53" stop-color="#F09945"/>
<stop offset="0.69" stop-color="#E86D31"/>
<stop offset="0.85" stop-color="#DE3719"/>
<stop offset="1" stop-color="#D40000"/>
</linearGradient>
<linearGradient id="paint21_linear_126_45728" x1="22.3681" y1="-12.4378" x2="6.6935" y2="8.86628" gradientUnits="userSpaceOnUse">
<stop stop-color="#FFE969"/>
<stop offset="0.11" stop-color="#FEE366"/>
<stop offset="0.24" stop-color="#FBD45F"/>
<stop offset="0.38" stop-color="#F6BC54"/>
<stop offset="0.53" stop-color="#F09945"/>
<stop offset="0.69" stop-color="#E86D31"/>
<stop offset="0.85" stop-color="#DE3719"/>
<stop offset="1" stop-color="#D40000"/>
</linearGradient>
<radialGradient id="paint22_radial_126_45728" cx="0" cy="0" r="1" gradientUnits="userSpaceOnUse" gradientTransform="translate(34.4825 9.7114) scale(9.71141)">
<stop stop-color="#F4A940"/>
<stop offset="0.09" stop-color="#E69F3C"/>
<stop offset="0.27" stop-color="#C28633"/>
<stop offset="0.51" stop-color="#885E23"/>
<stop offset="0.8" stop-color="#39270F"/>
<stop offset="1"/>
</radialGradient>
<radialGradient id="paint23_radial_126_45728" cx="0" cy="0" r="1" gradientUnits="userSpaceOnUse" gradientTransform="translate(19.6381 31.3792) scale(7.62076)">
<stop stop-color="#F4A940"/>
<stop offset="0.09" stop-color="#E69F3C"/>
<stop offset="0.27" stop-color="#C28633"/>
<stop offset="0.51" stop-color="#885E23"/>
<stop offset="0.8" stop-color="#39270F"/>
<stop offset="1"/>
</radialGradient>
<clipPath id="clip0_126_45728">
<rect width="52" height="39" fill="white"/>
</clipPath>
</defs>
</svg>
