<svg width="22" height="75" viewBox="0 0 22 75" fill="none" xmlns="http://www.w3.org/2000/svg">
<g clip-path="url(#clip0_220_9744)">
<path fill-rule="evenodd" clip-rule="evenodd" d="M-104.72 6.19774C-103.46 4.85774 -96.32 0.697744 -96.03 0.587744C-95.75 0.477744 -86.06 0.377744 -85.48 0.387744C-85.35 0.387744 -83.3 0.777744 -83.17 0.767744C-82.03 0.637744 -78.65 0.277744 -78.55 0.277744C-52.22 0.267744 -25.89 -0.0222562 0.43 0.107744C0.550003 0.107744 2.64 0.667744 2.88 0.667744C3.32999 0.667744 12.94 0.457744 13.15 0.457744C13.53 0.457744 21.81 4.92774 21.99 5.34774C22.63 6.78774 21.67 19.4277 21.04 25.9477C21.04 26.0577 20.57 26.6677 20.59 26.7777C20.62 26.9577 21.81 30.1477 21.79 30.3277C21.76 30.5977 21.38 35.1977 21.18 35.4877C20.65 36.2577 14 40.6277 13.5 40.7277C12.57 40.9177 -5.3 40.6477 -9.21 40.3777C-9.74 40.3377 -15.16 41.1077 -15.6 41.1077C-33.6 41.3277 -66.72 40.5177 -67.55 40.4877C-68.59 40.4477 -93.42 41.0077 -94.34 40.7977C-95.93 40.4377 -102.96 36.6877 -103.18 36.3777C-103.65 35.6877 -104.79 17.7977 -104.68 16.6777C-104.68 16.5777 -103.82 15.1777 -103.83 15.1077C-103.94 14.2177 -104.98 9.68774 -105 9.34774C-105 9.20774 -104.79 6.27774 -104.72 6.20774V6.19774Z" fill="#1E2635"/>
<path fill-rule="evenodd" clip-rule="evenodd" d="M-78.5413 0.267744L-75.6312 2.57774C-51.4512 2.66774 -25.5813 2.64774 -3.10125 2.57774L0.428749 0.107744C-25.8913 -0.0222562 -52.2213 0.267744 -78.5413 0.267744ZM-96.0312 0.587744L-94.2613 2.75774C-94.1313 2.70774 -89.3813 2.83774 -88.9213 2.83774L-85.4712 0.387744C-86.0512 0.387744 -95.7513 0.487744 -96.0213 0.587744H-96.0312Z" fill="url(#paint0_radial_220_9744)"/>
<path fill-rule="evenodd" clip-rule="evenodd" d="M0.428436 0.107422L-3.10156 2.57742C-2.51156 2.57742 1.98843 1.98742 2.33843 1.98742L2.87843 0.667422C2.64843 0.667422 0.548436 0.107422 0.428436 0.107422Z" fill="url(#paint1_radial_220_9744)"/>
<path fill-rule="evenodd" clip-rule="evenodd" d="M2.87984 0.677773L2.33984 1.99777C2.63984 1.99777 11.3398 2.64777 11.7198 2.73777L13.1498 0.467773C12.9398 0.467773 3.32984 0.687773 2.87984 0.677773Z" fill="url(#paint2_radial_220_9744)"/>
<path fill-rule="evenodd" clip-rule="evenodd" d="M13.1409 0.457266L11.7109 2.72727C12.0309 2.80727 18.0909 6.13727 18.0909 6.24727L21.9909 5.33727C21.8109 4.92727 13.5309 0.447266 13.1509 0.447266L13.1409 0.457266Z" fill="url(#paint3_radial_220_9744)"/>
<path fill-rule="evenodd" clip-rule="evenodd" d="M21.7805 30.3277L17.1505 31.6777C17.1505 31.9077 17.5205 34.4877 17.4105 34.6277L21.1705 35.4877C21.3705 35.1977 21.7505 30.5977 21.7805 30.3277ZM18.0905 6.25766C18.0905 12.3477 16.7305 23.1277 16.7305 24.4977L21.0405 25.9477C21.6705 19.4277 22.6305 6.79766 21.9905 5.34766L18.0905 6.25766Z" fill="url(#paint4_radial_220_9744)"/>
<path fill-rule="evenodd" clip-rule="evenodd" d="M-101.081 7.05781C-101.081 7.05781 -100.661 9.93781 -100.631 10.2278C-100.621 10.3378 -101.481 14.6478 -101.401 15.1678C-101.371 15.3878 -99.831 18.7478 -99.781 19.1378C-99.621 20.3278 -99.751 35.0378 -99.411 35.3578C-99.121 35.6278 -93.161 38.5678 -92.931 38.5978C-91.671 38.7878 -68.901 38.9978 -67.691 38.9978C-65.791 38.9978 -21.601 38.6078 -19.971 38.6078C-19.451 38.6078 -10.451 38.9478 -9.65099 38.9478C-8.28099 38.9478 11.019 38.6078 11.759 38.4878C11.979 38.4478 17.139 34.9578 17.409 34.6378C17.519 34.5078 17.149 31.9178 17.149 31.6878C17.149 31.4978 17.839 27.7178 17.969 27.0178C17.989 26.9178 16.719 24.6378 16.719 24.5078C16.719 23.1378 18.079 12.3578 18.079 6.26781C18.079 6.15781 12.019 2.81781 11.699 2.74781C11.319 2.65781 2.61901 2.00781 2.31901 2.00781C1.96901 2.00781 -2.531 2.59781 -3.12099 2.59781C-25.601 2.65781 -51.471 2.67781 -75.651 2.59781C-76.101 2.59781 -82.971 2.30781 -83.121 2.30781C-83.281 2.30781 -88.511 2.84781 -88.951 2.84781C-89.401 2.84781 -94.151 2.71781 -94.291 2.76781C-95.191 3.10781 -100.291 6.38781 -101.101 7.06781L-101.081 7.05781Z" fill="url(#paint5_radial_220_9744)"/>
<path style="mix-blend-mode:screen" fill-rule="evenodd" clip-rule="evenodd" d="M-100.271 7.19749C-100.341 7.28749 -99.4809 10.0475 -99.4509 10.3175C-99.4109 10.6975 -100.781 14.6275 -100.601 15.1275C-100.361 15.7975 -98.5709 18.7875 -98.5709 19.2175C-98.5709 21.8875 -99.3009 34.3575 -98.6609 35.1475C-98.5909 35.2375 -92.9309 38.0875 -92.6209 38.1575C-91.4909 38.4375 -70.7109 38.5375 -67.6909 38.5375C-51.8109 38.5375 -35.9209 37.7375 -20.0409 37.7375C-19.0909 37.7375 -10.8809 38.4875 -9.66088 38.4875C-7.43088 38.4875 10.7491 38.2775 11.3991 38.0475C11.6791 37.9475 16.5891 34.5675 16.6291 34.4775C16.7791 34.0975 15.8991 32.2575 15.6691 31.6875C15.4691 31.2075 17.3091 27.8775 17.4391 27.0775C17.4791 26.8575 15.9291 24.6675 15.9291 24.4975C15.9291 18.5475 17.4391 12.4575 17.2891 6.41749C17.2891 6.39749 11.7991 3.26749 11.3691 3.15749C11.0691 3.07749 2.99912 2.43749 2.34912 2.45749C1.74912 2.47749 -2.54088 3.33749 -3.06087 3.33749C-27.2409 3.33749 -51.4509 3.12749 -75.6309 3.04749C-78.0109 3.04749 -81.9009 2.70749 -83.1109 2.70749C-83.8309 2.70749 -87.8909 3.66749 -88.9309 3.66749C-89.8409 3.66749 -93.4909 3.12749 -93.9709 3.20749C-94.3209 3.26749 -100.011 6.87749 -100.271 7.20749V7.19749Z" fill="url(#paint6_radial_220_9744)"/>
<path opacity="0.75" fill-rule="evenodd" clip-rule="evenodd" d="M11.7289 2.90785C12.0589 3.01785 12.4489 3.24785 12.7489 3.39785C13.4989 3.77785 14.2689 4.13785 15.0389 4.49785C14.1889 3.98785 13.2989 3.44785 12.5189 2.90785C12.3189 2.76785 12.2389 2.64785 12.2289 2.52785C12.2089 2.27785 12.7889 1.11785 12.9189 0.797852C12.6889 1.08785 11.8289 2.31785 11.4489 2.43785C10.9889 2.57785 6.16891 2.25785 5.37891 2.20785C6.55891 2.33785 10.9189 2.67785 11.7089 2.90785H11.7289Z" fill="url(#paint7_linear_220_9744)"/>
<path opacity="0.75" fill-rule="evenodd" clip-rule="evenodd" d="M17.7591 6.29797C18.2828 7.45015 17.9032 9.94992 17.8191 11.0788C17.9159 10.2721 18.0172 6.92424 18.4991 6.40797C18.7091 6.18797 20.8291 5.65797 21.3391 5.50797C20.7491 5.60797 18.6191 6.04797 18.1491 5.97797C17.6691 5.90797 16.2191 5.13797 15.7891 4.91797C16.2591 5.21797 17.5591 5.95797 17.7591 6.30797V6.29797Z" fill="url(#paint8_linear_220_9744)"/>
<path style="mix-blend-mode:multiply" fill-rule="evenodd" clip-rule="evenodd" d="M-0.418282 15.0783C1.09172 14.7283 15.0217 12.6883 15.3217 13.5283C15.8317 14.9183 15.0417 20.2883 14.2317 22.1583C13.9717 22.7583 5.93172 24.6483 5.29172 24.0983C4.82172 23.6883 -1.57828 15.3483 -0.418282 15.0783Z" fill="url(#paint9_radial_220_9744)"/>
<path style="mix-blend-mode:multiply" fill-rule="evenodd" clip-rule="evenodd" d="M-4.31753 16.078C-10.1775 16.688 -20.1575 18.318 -20.3175 19.018C-20.5275 19.918 -8.80752 26.958 -6.63752 27.238C-5.31752 27.408 3.12248 25.338 3.26248 24.718C3.35248 24.348 0.0524731 19.338 -1.92753 16.798C-2.29753 16.328 -3.43753 15.988 -4.32753 16.078H-4.31753Z" fill="url(#paint10_radial_220_9744)"/>
<path style="mix-blend-mode:multiply" fill-rule="evenodd" clip-rule="evenodd" d="M-21.08 4.49817C-22.35 4.60817 -26.02 9.26817 -25.24 9.60817C-23.38 10.4382 -3.10997 13.7382 -0.859966 13.7382C0.680035 13.7382 13.37 12.1582 14.13 11.6882C14.71 11.3282 15.27 7.88817 14.9 7.00817C14.49 6.04817 11.28 4.29817 10.29 3.86817C9.56004 3.54817 5.07003 3.30817 4.27003 3.35817C3.22003 3.41817 -0.209963 4.57817 -2.12996 4.67817C-6.05996 4.86817 -17.53 4.17817 -21.07 4.49817H-21.08Z" fill="url(#paint11_radial_220_9744)"/>
</g>
<g clip-path="url(#clip1_220_9744)">
<path fill-rule="evenodd" clip-rule="evenodd" d="M-104.72 -46.2707C-103.46 -54.1192 -96.32 -78.4849 -96.03 -79.1292C-95.75 -79.7735 -86.06 -80.3592 -85.48 -80.3007C-85.35 -80.3007 -83.3 -78.0164 -83.17 -78.0749C-82.03 -78.8364 -78.65 -80.9449 -78.55 -80.9449C-52.22 -81.0035 -25.89 -82.7021 0.43 -81.9407C0.550003 -81.9407 2.64 -78.6607 2.88 -78.6607C3.32999 -78.6607 12.94 -79.8907 13.15 -79.8907C13.53 -79.8907 21.81 -53.7092 21.99 -51.2492C22.63 -42.8149 21.67 31.2194 21.04 69.4079C21.04 70.0522 20.57 73.6251 20.59 74.2693C20.62 75.3236 21.81 94.0079 21.79 95.0622C21.76 96.6436 21.38 123.586 21.18 125.285C20.65 129.795 14 155.391 13.5 155.977C12.57 157.089 -5.3 155.508 -9.21 153.926C-9.74 153.692 -15.16 158.202 -15.6 158.202C-33.6 159.491 -66.72 154.746 -67.55 154.571C-68.59 154.336 -93.42 157.617 -94.34 156.386C-95.93 154.278 -102.96 132.314 -103.18 130.498C-103.65 126.456 -104.79 21.6722 -104.68 15.1122C-104.68 14.5265 -103.82 6.32648 -103.83 5.91649C-103.94 0.703629 -104.98 -25.8292 -105 -27.8207C-105 -28.6407 -104.79 -45.8021 -104.72 -46.2121V-46.2707Z" fill="#1E2635"/>
<path fill-rule="evenodd" clip-rule="evenodd" d="M21.7805 95.0624L17.1505 102.97C17.1505 104.317 17.5205 119.428 17.4105 120.248L21.1705 125.285C21.3705 123.587 21.7505 96.6438 21.7805 95.0624ZM18.0905 -45.919C18.0905 -10.249 16.7305 52.891 16.7305 60.9153L21.0405 69.4081C21.6705 31.2196 22.6305 -42.7562 21.9905 -51.249L18.0905 -45.919Z" fill="url(#paint12_radial_220_9744)"/>
<path fill-rule="evenodd" clip-rule="evenodd" d="M-101.081 -41.2328C-101.081 -41.2328 -100.661 -24.3642 -100.631 -22.6657C-100.621 -22.0214 -101.481 3.22291 -101.401 6.26862C-101.371 7.55719 -99.831 27.2372 -99.781 29.5215C-99.621 36.4915 -99.751 122.65 -99.411 124.524C-99.121 126.106 -93.161 143.326 -92.931 143.501C-91.671 144.614 -68.901 145.844 -67.691 145.844C-65.791 145.844 -21.601 143.56 -19.971 143.56C-19.451 143.56 -10.451 145.551 -9.65099 145.551C-8.28099 145.551 11.019 143.56 11.759 142.857C11.979 142.623 17.139 122.181 17.409 120.307C17.519 119.546 17.149 104.376 17.149 103.029C17.149 101.916 17.839 79.7758 17.969 75.6758C17.989 75.0901 16.719 61.7358 16.719 60.9743C16.719 52.9501 18.079 -10.1899 18.079 -45.86C18.079 -46.5042 12.019 -66.0671 11.699 -66.4771C11.319 -67.0042 2.61901 -70.8114 2.31901 -70.8114C1.96901 -70.8114 -2.531 -67.3557 -3.12099 -67.3557C-25.601 -67.0042 -51.471 -66.8871 -75.651 -67.3557C-76.101 -67.3557 -82.971 -69.0542 -83.121 -69.0542C-83.281 -69.0542 -88.511 -65.8914 -88.951 -65.8914C-89.401 -65.8914 -94.151 -66.6528 -94.291 -66.36C-95.191 -64.3685 -100.291 -45.1571 -101.101 -41.1742L-101.081 -41.2328Z" fill="url(#paint13_radial_220_9744)"/>
<path style="mix-blend-mode:screen" fill-rule="evenodd" clip-rule="evenodd" d="M-100.271 -40.4122C-100.341 -39.8851 -99.4809 -23.7193 -99.4509 -22.1379C-99.4109 -19.9122 -100.781 3.10638 -100.601 6.03495C-100.361 9.95924 -98.5709 27.4721 -98.5709 29.9907C-98.5709 45.6292 -99.3009 118.668 -98.6609 123.295C-98.5909 123.822 -92.9309 140.515 -92.6209 140.925C-91.4909 142.565 -70.7109 143.151 -67.6909 143.151C-51.8109 143.151 -35.9209 138.465 -20.0409 138.465C-19.0909 138.465 -10.8809 142.858 -9.66088 142.858C-7.43088 142.858 10.7491 141.628 11.3991 140.281C11.6791 139.695 16.5891 119.898 16.6291 119.371C16.7791 117.145 15.8991 106.368 15.6691 103.029C15.4691 100.218 17.3091 80.7135 17.4391 76.0278C17.4791 74.7392 15.9291 61.9121 15.9291 60.9164C15.9291 26.0664 17.4391 -9.60362 17.2891 -44.9808C17.2891 -45.0979 11.7991 -63.4308 11.3691 -64.075C11.0691 -64.5436 2.99912 -68.2922 2.34912 -68.175C1.74912 -68.0579 -2.54088 -63.0208 -3.06087 -63.0208C-27.2409 -63.0208 -51.4509 -64.2508 -75.6309 -64.7193C-78.0109 -64.7193 -81.9009 -66.7108 -83.1109 -66.7108C-83.8309 -66.7108 -87.8909 -61.0879 -88.9309 -61.0879C-89.8409 -61.0879 -93.4909 -64.2508 -93.9709 -63.7822C-94.3209 -63.4308 -100.011 -42.2865 -100.271 -40.3536V-40.4122Z" fill="url(#paint14_radial_220_9744)"/>
<path style="mix-blend-mode:multiply" fill-rule="evenodd" clip-rule="evenodd" d="M-0.418282 5.74223C1.09172 3.69223 15.0217 -8.25634 15.3217 -3.33634C15.8317 4.80509 15.0417 36.2579 14.2317 47.2108C13.9717 50.7251 5.93172 61.7951 5.29172 58.5737C4.82172 56.1722 -1.57828 7.32366 -0.418282 5.74223Z" fill="url(#paint15_radial_220_9744)"/>
<path style="mix-blend-mode:multiply" fill-rule="evenodd" clip-rule="evenodd" d="M-4.31753 11.5966C-10.1775 15.1695 -20.1575 24.7166 -20.3175 28.8166C-20.5275 34.088 -8.80752 75.3223 -6.63752 76.9623C-5.31752 77.958 3.12248 65.8337 3.26248 62.2023C3.35248 60.0352 0.0524731 30.6909 -1.92753 15.8137C-2.29753 13.0609 -3.43753 11.0695 -4.32753 11.5966H-4.31753Z" fill="url(#paint16_radial_220_9744)"/>
</g>
<g clip-path="url(#clip2_220_9744)">
<path fill-rule="evenodd" clip-rule="evenodd" d="M-104.72 40.1977C-103.46 38.8577 -96.32 34.6977 -96.03 34.5877C-95.75 34.4777 -86.06 34.3777 -85.48 34.3877C-85.35 34.3877 -83.3 34.7777 -83.17 34.7677C-82.03 34.6377 -78.65 34.2777 -78.55 34.2777C-52.22 34.2677 -25.89 33.9777 0.43 34.1077C0.550003 34.1077 2.64 34.6677 2.88 34.6677C3.32999 34.6677 12.94 34.4577 13.15 34.4577C13.53 34.4577 21.81 38.9277 21.99 39.3477C22.63 40.7877 21.67 53.4277 21.04 59.9477C21.04 60.0577 20.57 60.6677 20.59 60.7777C20.62 60.9577 21.81 64.1477 21.79 64.3277C21.76 64.5977 21.38 69.1977 21.18 69.4877C20.65 70.2577 14 74.6277 13.5 74.7277C12.57 74.9177 -5.3 74.6477 -9.21 74.3777C-9.74 74.3377 -15.16 75.1077 -15.6 75.1077C-33.6 75.3277 -66.72 74.5177 -67.55 74.4877C-68.59 74.4477 -93.42 75.0077 -94.34 74.7977C-95.93 74.4377 -102.96 70.6877 -103.18 70.3777C-103.65 69.6877 -104.79 51.7977 -104.68 50.6777C-104.68 50.5777 -103.82 49.1777 -103.83 49.1077C-103.94 48.2177 -104.98 43.6877 -105 43.3477C-105 43.2077 -104.79 40.2777 -104.72 40.2077V40.1977Z" fill="#1E2635"/>
<path fill-rule="evenodd" clip-rule="evenodd" d="M21.0287 59.948L16.7188 58.498C16.7188 58.628 17.9887 60.908 17.9688 61.008L20.5788 60.778C20.5588 60.668 21.0187 60.048 21.0287 59.948Z" fill="url(#paint17_radial_220_9744)"/>
<path fill-rule="evenodd" clip-rule="evenodd" d="M20.5785 60.7773L17.9685 61.0073C17.8285 61.7073 17.1385 65.4973 17.1485 65.6773L21.7785 64.3273C21.7985 64.1473 20.6085 60.9573 20.5785 60.7773Z" fill="url(#paint18_radial_220_9744)"/>
<path fill-rule="evenodd" clip-rule="evenodd" d="M21.7805 64.3277L17.1505 65.6777C17.1505 65.9077 17.5205 68.4877 17.4105 68.6277L21.1705 69.4877C21.3705 69.1977 21.7505 64.5977 21.7805 64.3277ZM18.0905 40.2577C18.0905 46.3477 16.7305 57.1277 16.7305 58.4977L21.0405 59.9477C21.6705 53.4277 22.6305 40.7977 21.9905 39.3477L18.0905 40.2577Z" fill="url(#paint19_radial_220_9744)"/>
<path fill-rule="evenodd" clip-rule="evenodd" d="M21.1717 69.4879L17.4117 68.6279C17.1417 68.9479 11.9817 72.4379 11.7617 72.4779L13.4917 74.7279C13.9917 74.6279 20.6417 70.2579 21.1717 69.4879Z" fill="url(#paint20_radial_220_9744)"/>
<path fill-rule="evenodd" clip-rule="evenodd" d="M11.7584 72.4775C11.0084 72.5975 -8.29156 72.9375 -9.65157 72.9375L-9.22157 74.3775C-5.32156 74.6375 12.5584 74.9075 13.4884 74.7275L11.7584 72.4775ZM-67.5616 74.4875L-67.6916 72.9875C-68.9016 72.9875 -91.6716 72.7775 -92.9316 72.5875L-94.3516 74.8075C-93.4216 75.0175 -68.6016 74.4575 -67.5616 74.4975V74.4875Z" fill="url(#paint21_radial_220_9744)"/>
<path fill-rule="evenodd" clip-rule="evenodd" d="M-101.081 41.0578C-101.081 41.0578 -100.661 43.9378 -100.631 44.2278C-100.621 44.3378 -101.481 48.6478 -101.401 49.1678C-101.371 49.3878 -99.831 52.7478 -99.781 53.1378C-99.621 54.3278 -99.751 69.0378 -99.411 69.3578C-99.121 69.6278 -93.161 72.5678 -92.931 72.5978C-91.671 72.7878 -68.901 72.9978 -67.691 72.9978C-65.791 72.9978 -21.601 72.6078 -19.971 72.6078C-19.451 72.6078 -10.451 72.9478 -9.65099 72.9478C-8.28099 72.9478 11.019 72.6078 11.759 72.4878C11.979 72.4478 17.139 68.9578 17.409 68.6378C17.519 68.5078 17.149 65.9178 17.149 65.6878C17.149 65.4978 17.839 61.7178 17.969 61.0178C17.989 60.9178 16.719 58.6378 16.719 58.5078C16.719 57.1378 18.079 46.3578 18.079 40.2678C18.079 40.1578 12.019 36.8178 11.699 36.7478C11.319 36.6578 2.61901 36.0078 2.31901 36.0078C1.96901 36.0078 -2.531 36.5978 -3.12099 36.5978C-25.601 36.6578 -51.471 36.6778 -75.651 36.5978C-76.101 36.5978 -82.971 36.3078 -83.121 36.3078C-83.281 36.3078 -88.511 36.8478 -88.951 36.8478C-89.401 36.8478 -94.151 36.7178 -94.291 36.7678C-95.191 37.1078 -100.291 40.3878 -101.101 41.0678L-101.081 41.0578Z" fill="url(#paint22_radial_220_9744)"/>
<path style="mix-blend-mode:screen" fill-rule="evenodd" clip-rule="evenodd" d="M-100.271 41.1975C-100.341 41.2875 -99.4809 44.0475 -99.4509 44.3175C-99.4109 44.6975 -100.781 48.6275 -100.601 49.1275C-100.361 49.7975 -98.5709 52.7875 -98.5709 53.2175C-98.5709 55.8875 -99.3009 68.3575 -98.6609 69.1475C-98.5909 69.2375 -92.9309 72.0875 -92.6209 72.1575C-91.4909 72.4375 -70.7109 72.5375 -67.6909 72.5375C-51.8109 72.5375 -35.9209 71.7375 -20.0409 71.7375C-19.0909 71.7375 -10.8809 72.4875 -9.66088 72.4875C-7.43088 72.4875 10.7491 72.2775 11.3991 72.0475C11.6791 71.9475 16.5891 68.5675 16.6291 68.4775C16.7791 68.0975 15.8991 66.2575 15.6691 65.6875C15.4691 65.2075 17.3091 61.8775 17.4391 61.0775C17.4791 60.8575 15.9291 58.6675 15.9291 58.4975C15.9291 52.5475 17.4391 46.4575 17.2891 40.4175C17.2891 40.3975 11.7991 37.2675 11.3691 37.1575C11.0691 37.0775 2.99912 36.4375 2.34912 36.4575C1.74912 36.4775 -2.54088 37.3375 -3.06087 37.3375C-27.2409 37.3375 -51.4509 37.1275 -75.6309 37.0475C-78.0109 37.0475 -81.9009 36.7075 -83.1109 36.7075C-83.8309 36.7075 -87.8909 37.6675 -88.9309 37.6675C-89.8409 37.6675 -93.4909 37.1275 -93.9709 37.2075C-94.3209 37.2675 -100.011 40.8775 -100.271 41.2075V41.1975Z" fill="url(#paint23_radial_220_9744)"/>
<path style="mix-blend-mode:multiply" fill-rule="evenodd" clip-rule="evenodd" d="M15.9023 60.4884C16.0723 61.2584 14.1223 64.5884 14.0023 65.2384C13.9323 65.5884 15.4123 67.4483 15.2923 67.6983C14.8023 68.7183 12.2823 70.8683 11.4123 70.9983C6.21234 71.7883 -6.65766 71.4783 -7.62766 71.0384C-7.86766 70.9284 -5.96767 63.3784 -5.04767 62.8884C-3.32767 61.9683 7.52233 59.2983 12.9323 58.2883C13.7723 58.1283 15.6923 59.6084 15.8923 60.4784L15.9023 60.4884Z" fill="url(#paint24_radial_220_9744)"/>
<path style="mix-blend-mode:multiply" fill-rule="evenodd" clip-rule="evenodd" d="M-0.418282 49.0783C1.09172 48.7283 15.0217 46.6883 15.3217 47.5283C15.8317 48.9183 15.0417 54.2883 14.2317 56.1583C13.9717 56.7583 5.93172 58.6483 5.29172 58.0983C4.82172 57.6883 -1.57828 49.3483 -0.418282 49.0783Z" fill="url(#paint25_radial_220_9744)"/>
<path style="mix-blend-mode:multiply" fill-rule="evenodd" clip-rule="evenodd" d="M-4.31753 50.078C-10.1775 50.688 -20.1575 52.318 -20.3175 53.018C-20.5275 53.918 -8.80752 60.958 -6.63752 61.238C-5.31752 61.408 3.12248 59.338 3.26248 58.718C3.35248 58.348 0.0524731 53.338 -1.92753 50.798C-2.29753 50.328 -3.43753 49.988 -4.32753 50.078H-4.31753Z" fill="url(#paint26_radial_220_9744)"/>
<path style="mix-blend-mode:screen" fill-rule="evenodd" clip-rule="evenodd" d="M0.519531 67.1973C0.659531 67.3973 1.02954 67.6773 1.40954 67.9473C2.04954 68.3873 2.88953 68.9173 3.63953 69.2073C4.01953 69.3573 5.56953 69.3073 6.16953 69.1473C7.19953 68.8873 8.60953 68.0773 9.26953 67.6473C6.34953 67.4973 3.43953 67.3473 0.519531 67.1973Z" fill="url(#paint27_radial_220_9744)"/>
<path fill-rule="evenodd" clip-rule="evenodd" d="M0.520657 67.1973C0.380657 66.9673 1.42066 65.8473 1.91066 65.6173C3.22066 64.9973 5.70066 64.4673 6.24066 64.4973C7.20066 64.5673 9.50066 66.6173 9.49066 67.3873C9.49066 67.7573 7.38066 68.5473 6.18066 68.8673C5.56066 69.0373 4.21066 69.0073 3.83066 68.8973C2.97066 68.6473 0.690659 67.4473 0.530659 67.1873L0.520657 67.1973Z" fill="url(#paint28_radial_220_9744)"/>
<path style="mix-blend-mode:multiply" fill-rule="evenodd" clip-rule="evenodd" d="M1.53066 66.2482C3.12066 65.6082 4.99066 65.3382 6.77066 65.2482C7.41066 65.2182 8.61066 66.0982 8.91066 66.3682C8.17066 65.5082 6.90066 64.5382 6.24066 64.4982C5.70066 64.4582 3.21066 64.9982 1.91066 65.6182C1.42066 65.8482 0.380657 66.9782 0.520657 67.1982C0.540657 67.2282 0.600661 67.2782 0.680661 67.3482C0.410661 67.1982 1.10066 66.4182 1.53066 66.2482Z" fill="url(#paint29_radial_220_9744)"/>
<path style="mix-blend-mode:screen" fill-rule="evenodd" clip-rule="evenodd" d="M6.17875 68.8683C6.97875 68.6483 8.16875 68.2283 8.88875 67.8583C8.38875 67.2183 7.82875 67.0883 6.84875 67.0183C5.04875 66.8783 3.38875 67.2283 1.96875 68.0783C2.65875 68.4283 3.40875 68.7783 3.82875 68.8983C4.20875 69.0083 5.55875 69.0383 6.17875 68.8683Z" fill="url(#paint30_radial_220_9744)"/>
<path style="mix-blend-mode:screen" fill-rule="evenodd" clip-rule="evenodd" d="M8.39891 60.7383C8.29891 61.1183 8.10891 61.5183 8.24891 61.8983C8.34891 62.1583 8.76891 62.5183 9.13891 62.7583C9.41891 62.9383 9.56891 62.9583 9.79891 62.8283C10.5489 62.4283 11.5189 61.4683 11.9689 61.0383C10.7789 60.9383 9.58891 60.8383 8.39891 60.7383Z" fill="url(#paint31_radial_220_9744)"/>
<path fill-rule="evenodd" clip-rule="evenodd" d="M10.9818 59.3879C10.7418 59.3279 8.96176 59.7079 8.68176 60.0079C8.48176 60.2179 8.16176 61.4479 8.42176 61.8779C8.50176 62.0079 9.34176 62.6579 9.56176 62.6079C10.2918 62.4379 12.0718 61.0679 12.2018 60.7579C12.3918 60.3379 11.3418 59.4779 10.9718 59.3779L10.9818 59.3879Z" fill="url(#paint32_radial_220_9744)"/>
<path style="mix-blend-mode:multiply" fill-rule="evenodd" clip-rule="evenodd" d="M8.90079 60.7772C9.27079 60.5072 10.4408 59.9772 11.0608 59.8872C11.3708 59.8472 11.7008 59.9972 11.9808 60.1472C11.6908 59.7872 11.2108 59.4472 10.9808 59.3872C10.7408 59.3272 8.96079 59.7072 8.68079 60.0072C8.53079 60.1672 8.30079 60.9372 8.33079 61.4772C8.47079 61.2172 8.71079 60.9072 8.90079 60.7772Z" fill="url(#paint33_radial_220_9744)"/>
<path style="mix-blend-mode:screen" fill-rule="evenodd" clip-rule="evenodd" d="M12.1484 60.5776C11.6084 60.0376 8.94844 61.2376 8.39844 61.8376C8.39844 61.8576 8.41843 61.8676 8.41843 61.8776C8.49843 62.0076 9.33843 62.6576 9.55843 62.6076C10.2884 62.4376 12.0684 61.0676 12.1984 60.7576C12.2084 60.7276 12.2184 60.6976 12.2184 60.6676C12.1984 60.6276 12.1684 60.5976 12.1384 60.5676L12.1484 60.5776Z" fill="url(#paint34_radial_220_9744)"/>
</g>
<defs>
<radialGradient id="paint0_radial_220_9744" cx="0" cy="0" r="1" gradientUnits="userSpaceOnUse" gradientTransform="translate(-79.1913 -26.9859) scale(179.25 102.172)">
<stop stop-color="#7F8DAF"/>
<stop offset="1" stop-color="#555A77"/>
</radialGradient>
<radialGradient id="paint1_radial_220_9744" cx="0" cy="0" r="1" gradientUnits="userSpaceOnUse" gradientTransform="translate(-18.0716 -1.91758) scale(32.7 18.639)">
<stop stop-color="#6E7B98"/>
<stop offset="1" stop-color="#474C65"/>
</radialGradient>
<radialGradient id="paint2_radial_220_9744" cx="0" cy="0" r="1" gradientUnits="userSpaceOnUse" gradientTransform="translate(13.0298 0.556573) scale(35.84 20.4288)">
<stop stop-color="#7F8DAF"/>
<stop offset="1" stop-color="#555A77"/>
</radialGradient>
<radialGradient id="paint3_radial_220_9744" cx="0" cy="0" r="1" gradientUnits="userSpaceOnUse" gradientTransform="translate(3.41094 2.10077) scale(35.56 20.2692)">
<stop stop-color="#7F8DAF"/>
<stop offset="1" stop-color="#555A77"/>
</radialGradient>
<radialGradient id="paint4_radial_220_9744" cx="0" cy="0" r="1" gradientUnits="userSpaceOnUse" gradientTransform="translate(24.0805 6.08546) scale(132.02 75.2514)">
<stop stop-color="#3B4254"/>
<stop offset="1" stop-color="#17262E"/>
</radialGradient>
<radialGradient id="paint5_radial_220_9744" cx="0" cy="0" r="1" gradientUnits="userSpaceOnUse" gradientTransform="translate(-41.001 -18.3218) scale(144.62 82.4334)">
<stop stop-color="#5A627C"/>
<stop offset="0.69" stop-color="#363B4E"/>
<stop offset="1" stop-color="#272B3A"/>
</radialGradient>
<radialGradient id="paint6_radial_220_9744" cx="0" cy="0" r="1" gradientUnits="userSpaceOnUse" gradientTransform="translate(-44.6809 -24.4781) scale(200.95 114.542)">
<stop stop-color="#18262F"/>
<stop offset="1"/>
</radialGradient>
<linearGradient id="paint7_linear_220_9744" x1="8.77296" y1="0.797852" x2="8.77296" y2="4.49785" gradientUnits="userSpaceOnUse">
<stop stop-color="#A0DBF0"/>
<stop offset="1" stop-color="#00FFEA"/>
</linearGradient>
<linearGradient id="paint8_linear_220_9744" x1="17.7391" y1="4.91797" x2="17.7391" y2="11.0788" gradientUnits="userSpaceOnUse">
<stop stop-color="#A0DBF0"/>
<stop offset="1" stop-color="#00FFEA"/>
</linearGradient>
<radialGradient id="paint9_radial_220_9744" cx="0" cy="0" r="1" gradientUnits="userSpaceOnUse" gradientTransform="translate(-23.3783 -5.47918) scale(60.35 34.3995)">
<stop stop-color="#B8C9D3"/>
<stop offset="1" stop-color="#FAFFFF"/>
</radialGradient>
<radialGradient id="paint10_radial_220_9744" cx="0" cy="0" r="1" gradientUnits="userSpaceOnUse" gradientTransform="translate(-40.0275 -9.87993) scale(77.87 44.3859)">
<stop stop-color="#B8C9D3"/>
<stop offset="1" stop-color="#FAFFFF"/>
</radialGradient>
<radialGradient id="paint11_radial_220_9744" cx="0" cy="0" r="1" gradientUnits="userSpaceOnUse" gradientTransform="translate(-17.73 -16.4404) scale(56.86 32.4102)">
<stop stop-color="#B8C9D3"/>
<stop offset="1" stop-color="#FAFFFF"/>
</radialGradient>
<radialGradient id="paint12_radial_220_9744" cx="0" cy="0" r="1" gradientUnits="userSpaceOnUse" gradientTransform="translate(24.0805 -46.9276) scale(132.02 440.758)">
<stop stop-color="#3B4254"/>
<stop offset="1" stop-color="#17262E"/>
</radialGradient>
<radialGradient id="paint13_radial_220_9744" cx="0" cy="0" r="1" gradientUnits="userSpaceOnUse" gradientTransform="translate(-41.001 -189.885) scale(144.62 482.824)">
<stop stop-color="#5A627C"/>
<stop offset="0.69" stop-color="#363B4E"/>
<stop offset="1" stop-color="#272B3A"/>
</radialGradient>
<radialGradient id="paint14_radial_220_9744" cx="0" cy="0" r="1" gradientUnits="userSpaceOnUse" gradientTransform="translate(-44.6809 -225.941) scale(200.95 670.886)">
<stop stop-color="#18262F"/>
<stop offset="1"/>
</radialGradient>
<radialGradient id="paint15_radial_220_9744" cx="0" cy="0" r="1" gradientUnits="userSpaceOnUse" gradientTransform="translate(-23.3783 -114.666) scale(60.35 201.483)">
<stop stop-color="#B8C9D3"/>
<stop offset="1" stop-color="#FAFFFF"/>
</radialGradient>
<radialGradient id="paint16_radial_220_9744" cx="0" cy="0" r="1" gradientUnits="userSpaceOnUse" gradientTransform="translate(-40.0275 -140.443) scale(77.87 259.975)">
<stop stop-color="#B8C9D3"/>
<stop offset="1" stop-color="#FAFFFF"/>
</radialGradient>
<radialGradient id="paint17_radial_220_9744" cx="0" cy="0" r="1" gradientUnits="userSpaceOnUse" gradientTransform="translate(15.8988 49.8727) scale(22.85 13.0245)">
<stop stop-color="#42495C"/>
<stop offset="1" stop-color="#15222A"/>
</radialGradient>
<radialGradient id="paint18_radial_220_9744" cx="0" cy="0" r="1" gradientUnits="userSpaceOnUse" gradientTransform="translate(17.8085 65.5926) scale(39.04 22.2528)">
<stop stop-color="#3B4254"/>
<stop offset="1" stop-color="#17262E"/>
</radialGradient>
<radialGradient id="paint19_radial_220_9744" cx="0" cy="0" r="1" gradientUnits="userSpaceOnUse" gradientTransform="translate(24.0805 40.0855) scale(132.02 75.2514)">
<stop stop-color="#3B4254"/>
<stop offset="1" stop-color="#17262E"/>
</radialGradient>
<radialGradient id="paint20_radial_220_9744" cx="0" cy="0" r="1" gradientUnits="userSpaceOnUse" gradientTransform="translate(-0.888274 57.5163) scale(43.97 25.0629)">
<stop stop-color="#2D3B44"/>
<stop offset="1" stop-color="#17232A"/>
</radialGradient>
<radialGradient id="paint21_radial_220_9744" cx="0" cy="0" r="1" gradientUnits="userSpaceOnUse" gradientTransform="translate(-41.9816 22.518) scale(129.38 73.7465)">
<stop stop-color="#333A4A"/>
<stop offset="1" stop-color="#142027"/>
</radialGradient>
<radialGradient id="paint22_radial_220_9744" cx="0" cy="0" r="1" gradientUnits="userSpaceOnUse" gradientTransform="translate(-41.001 15.6782) scale(144.62 82.4334)">
<stop stop-color="#5A627C"/>
<stop offset="0.69" stop-color="#363B4E"/>
<stop offset="1" stop-color="#272B3A"/>
</radialGradient>
<radialGradient id="paint23_radial_220_9744" cx="0" cy="0" r="1" gradientUnits="userSpaceOnUse" gradientTransform="translate(-44.6809 9.52189) scale(200.95 114.542)">
<stop stop-color="#18262F"/>
<stop offset="1"/>
</radialGradient>
<radialGradient id="paint24_radial_220_9744" cx="0" cy="0" r="1" gradientUnits="userSpaceOnUse" gradientTransform="translate(-26.9277 35.3552) scale(72.67 41.4219)">
<stop stop-color="#B8C9D3"/>
<stop offset="1" stop-color="#FAFFFF"/>
</radialGradient>
<radialGradient id="paint25_radial_220_9744" cx="0" cy="0" r="1" gradientUnits="userSpaceOnUse" gradientTransform="translate(-23.3783 28.5208) scale(60.35 34.3995)">
<stop stop-color="#B8C9D3"/>
<stop offset="1" stop-color="#FAFFFF"/>
</radialGradient>
<radialGradient id="paint26_radial_220_9744" cx="0" cy="0" r="1" gradientUnits="userSpaceOnUse" gradientTransform="translate(-40.0275 24.1201) scale(77.87 44.3859)">
<stop stop-color="#B8C9D3"/>
<stop offset="1" stop-color="#FAFFFF"/>
</radialGradient>
<radialGradient id="paint27_radial_220_9744" cx="0" cy="0" r="1" gradientUnits="userSpaceOnUse" gradientTransform="translate(3.67953 69.5028) scale(13.57 7.73491)">
<stop stop-color="#323344"/>
<stop offset="0.14" stop-color="#1C2C34"/>
<stop offset="0.47" stop-color="#0C161B"/>
<stop offset="0.77" stop-color="#03070A"/>
<stop offset="1"/>
</radialGradient>
<radialGradient id="paint28_radial_220_9744" cx="0" cy="0" r="1" gradientUnits="userSpaceOnUse" gradientTransform="translate(6.06066 71.6859) scale(16.79 9.5703)">
<stop stop-color="#4D536B"/>
<stop offset="1" stop-color="#2A2D3D"/>
</radialGradient>
<radialGradient id="paint29_radial_220_9744" cx="0" cy="0" r="1" gradientUnits="userSpaceOnUse" gradientTransform="translate(10.0507 74.2119) scale(18.06 10.2942)">
<stop offset="0.33" stop-color="#F2F8FC"/>
<stop offset="0.7" stop-color="#E5F1F8"/>
<stop offset="1" stop-color="#D8EBF5"/>
</radialGradient>
<radialGradient id="paint30_radial_220_9744" cx="0" cy="0" r="1" gradientUnits="userSpaceOnUse" gradientTransform="translate(4.48875 71.704) scale(11.97 6.82291)">
<stop stop-color="#142027"/>
<stop offset="0.35" stop-color="#0F1A20"/>
<stop offset="0.85" stop-color="#04090D"/>
<stop offset="1"/>
</radialGradient>
<radialGradient id="paint31_radial_220_9744" cx="0" cy="0" r="1" gradientUnits="userSpaceOnUse" gradientTransform="translate(9.64891 62.3959) scale(9.37 5.3409)">
<stop stop-color="#323344"/>
<stop offset="0.14" stop-color="#1C2C34"/>
<stop offset="0.47" stop-color="#0C161B"/>
<stop offset="0.77" stop-color="#03070A"/>
<stop offset="1"/>
</radialGradient>
<radialGradient id="paint32_radial_220_9744" cx="0" cy="0" r="1" gradientUnits="userSpaceOnUse" gradientTransform="translate(12.0118 65.4792) scale(16.65 9.4905)">
<stop stop-color="#4D536B"/>
<stop offset="1" stop-color="#2A2D3D"/>
</radialGradient>
<radialGradient id="paint33_radial_220_9744" cx="0" cy="0" r="1" gradientUnits="userSpaceOnUse" gradientTransform="translate(14.0608 66.0599) scale(12.77 7.2789)">
<stop offset="0.33" stop-color="#F2F8FC"/>
<stop offset="0.7" stop-color="#E5F1F8"/>
<stop offset="1" stop-color="#D8EBF5"/>
</radialGradient>
<radialGradient id="paint34_radial_220_9744" cx="0" cy="0" r="1" gradientUnits="userSpaceOnUse" gradientTransform="translate(10.8584 65.9919) scale(11.79 6.7203)">
<stop stop-color="#142027"/>
<stop offset="0.35" stop-color="#0F1A20"/>
<stop offset="0.85" stop-color="#04090D"/>
<stop offset="1"/>
</radialGradient>
<clipPath id="clip0_220_9744">
<rect width="22" height="17" fill="white"/>
</clipPath>
<clipPath id="clip1_220_9744">
<rect width="22" height="41" fill="white" transform="translate(0 17)"/>
</clipPath>
<clipPath id="clip2_220_9744">
<rect width="22" height="17" fill="white" transform="translate(0 58)"/>
</clipPath>
</defs>
</svg>
