<svg width="48" height="48" viewBox="0 0 48 48" fill="none" xmlns="http://www.w3.org/2000/svg">
<path fill-rule="evenodd" clip-rule="evenodd" d="M23.6433 2.01661C26.4044 2.19686 34.866 4.44998 37.3599 6.7031C37.8943 7.15373 41.9024 11.0291 43.4166 13.823C44.4854 15.8958 45.9105 24.0071 45.9105 24.638C45.9105 29.3245 41.7243 38.5172 36.0239 42.6629C34.5988 43.6543 25.87 46.0877 23.6433 45.9976C16.4287 45.7272 8.76881 40.4999 6.89837 38.5172C5.6514 37.2554 3.0684 30.2257 2.89026 28.964C2.71213 27.7022 1.91051 23.1058 2.08864 21.5737C2.26678 19.591 4.49351 12.6513 5.56234 11.1192C7.9672 7.24385 18.4773 1.65611 23.6433 2.01661Z" fill="#A08E86"/>
<path fill-rule="evenodd" clip-rule="evenodd" d="M6.27511 21.7544C6.36418 20.2223 8.14555 14.9951 8.8581 13.9136C8.8581 13.9136 8.94717 13.7333 9.03624 13.6432C7.70021 13.1025 5.91884 11.6605 5.65163 10.9395C5.65163 10.9395 5.56256 11.0296 5.56256 11.1197C4.5828 12.6518 2.267 19.5914 2.08887 21.5742C2.89049 21.2137 5.38442 21.3038 6.27511 21.7544Z" fill="url(#paint0_radial_77289_5370)"/>
<path fill-rule="evenodd" clip-rule="evenodd" d="M9.03618 13.6417C11.2629 10.8479 20.6151 6.43175 23.1981 6.43175C23.5544 5.35025 23.6435 2.73662 23.1981 2.01562C17.9431 2.01562 8.14549 7.15275 5.5625 10.938C5.82971 11.659 7.70014 13.101 8.94711 13.6417H9.03618Z" fill="url(#paint1_radial_77289_5370)"/>
<path fill-rule="evenodd" clip-rule="evenodd" d="M23.466 6.52257C24.8021 6.70282 31.4822 8.41519 34.0652 10.1276C34.5996 8.59544 35.4903 7.33369 36.6482 6.16207C33.4417 4.08919 26.3162 2.2867 23.8223 2.10645C23.7332 2.10645 23.5551 2.10645 23.377 2.10645C23.7332 2.91757 23.6442 5.53119 23.377 6.52257C23.377 6.52257 23.5551 6.52257 23.6441 6.52257H23.466Z" fill="url(#paint2_radial_77289_5370)"/>
<path fill-rule="evenodd" clip-rule="evenodd" d="M36.5586 6.07129C35.4007 7.24291 34.51 8.50466 33.9756 10.0368C34.1537 10.1269 34.3319 10.3072 34.51 10.3973C34.8663 10.7578 37.8056 13.4615 38.9635 15.5344C40.5667 15.264 41.9918 14.543 43.2387 13.4615C41.6355 10.7578 37.8946 7.15279 37.4493 6.70216C37.1821 6.52191 36.9149 6.25154 36.5586 6.07129Z" fill="url(#paint3_radial_77289_5370)"/>
<path fill-rule="evenodd" clip-rule="evenodd" d="M43.2392 13.552C41.9031 14.6335 40.5671 15.4447 38.9639 15.6249C38.9639 15.6249 38.9639 15.715 39.0529 15.8052C39.8545 17.3373 41.725 24.367 41.725 24.8177C41.725 24.9979 41.725 25.088 41.725 25.2683C43.2391 24.8177 44.5752 24.6374 46.0003 24.6374C46.0003 24.0065 44.5752 15.8052 43.5064 13.8224C43.5064 13.7323 43.4173 13.552 43.3282 13.4619L43.2392 13.552Z" fill="url(#paint4_radial_77289_5370)"/>
<path fill-rule="evenodd" clip-rule="evenodd" d="M45.9114 24.7275C44.5754 24.7275 43.1503 24.8177 41.6361 25.3584C41.3689 29.0535 37.4499 36.2635 33.2637 39.2377C34.1544 40.95 35.045 41.9414 36.0248 42.7525C41.7252 38.6068 45.9114 29.5042 45.9114 24.7275Z" fill="url(#paint5_radial_77289_5370)"/>
<path fill-rule="evenodd" clip-rule="evenodd" d="M36.0244 42.6623C35.0446 41.8512 34.154 40.95 33.2633 39.1475C32.1945 39.8685 25.6034 41.7611 24.0001 41.671C24.4455 43.113 24.3564 44.555 23.7329 45.997H24.0001C26.494 45.997 34.7775 43.6537 36.1135 42.6623H36.0244Z" fill="url(#paint6_radial_77289_5370)"/>
<path fill-rule="evenodd" clip-rule="evenodd" d="M23.6448 45.9963C24.2683 44.5544 24.3574 43.1124 23.912 41.6704C19.6367 41.3099 10.7299 35.9925 10.1954 35.2715C8.85941 36.2629 7.79059 37.4345 6.8999 38.516C8.77035 40.4987 16.4303 45.726 23.6448 45.9963Z" fill="url(#paint7_radial_77289_5370)"/>
<path fill-rule="evenodd" clip-rule="evenodd" d="M6.89893 38.5173C7.78962 37.3457 8.9475 36.2642 10.1945 35.2728C9.83819 34.732 6.988 28.3332 6.80986 27.3418C5.5629 28.243 4.22686 28.7838 2.80176 28.964C2.9799 30.2258 5.65197 37.2555 6.80986 38.5173H6.89893Z" fill="url(#paint8_radial_77289_5370)"/>
<path fill-rule="evenodd" clip-rule="evenodd" d="M2.89132 28.9638C4.31642 28.7835 5.65246 28.2428 6.89942 27.3415C6.72128 26.3501 6.18687 22.9254 6.27594 21.7538C5.38526 21.3031 2.89132 21.1229 2.0897 21.5735C2.00063 23.1056 2.71318 27.702 2.89132 28.9638Z" fill="url(#paint9_radial_77289_5370)"/>
<path fill-rule="evenodd" clip-rule="evenodd" d="M9.30353 13.9131C9.30353 13.9131 8.85817 14.1835 8.68003 14.4539C7.61121 16.707 7.07681 18.7799 6.36426 21.2132C6.36426 22.9256 6.45332 24.1874 6.72052 25.8997C6.89866 26.9812 7.25494 27.2516 8.41284 26.7109C12.9553 24.8182 17.4978 23.6466 22.1294 22.5651C24.3561 20.8527 27.6517 17.7885 29.5221 15.7156C30.7691 14.2736 31.8379 12.7415 33.263 10.7587C33.263 10.6686 33.3521 10.4884 33.4412 10.3982C33.4412 10.218 33.4412 10.0377 33.3521 9.94762C30.0565 8.50562 26.5829 7.334 23.0201 6.70312C18.4776 7.78462 14.3804 9.58712 10.6396 12.381C10.2833 12.6514 10.0161 12.8316 9.65979 13.102C9.48166 13.2822 9.48166 13.6427 9.30353 13.9131Z" fill="url(#paint10_radial_77289_5370)"/>
<path fill-rule="evenodd" clip-rule="evenodd" d="M33.7971 10.5777C32.5502 12.0197 31.4813 13.642 30.5016 15.2642C30.3234 15.4445 30.2344 15.7148 30.5906 15.805C31.3032 15.9852 32.0158 16.1655 32.7283 16.1655C34.1534 16.1655 35.5785 15.8951 37.0927 15.7148C37.449 15.7148 37.8052 15.7148 38.1615 15.5346C38.5178 15.3543 38.4287 15.1741 38.2506 14.9938C38.0724 14.7235 37.9834 14.363 37.7162 14.0926C37.0036 13.1913 36.202 12.3802 35.4004 11.5691C34.955 11.1185 34.5988 10.758 34.0643 10.3975C33.9753 10.3975 33.7971 10.3975 33.7081 10.4876L33.7971 10.5777Z" fill="url(#paint11_radial_77289_5370)"/>
<path fill-rule="evenodd" clip-rule="evenodd" d="M40.5662 25.7197C39.052 26.3506 37.5378 27.0716 36.1127 27.8827C35.4893 28.784 34.7767 29.6852 34.1532 30.5865C34.0641 31.7581 33.886 32.9297 33.7969 34.1014C33.6188 35.273 33.5297 36.4446 33.3516 37.6162C33.3516 38.2471 33.2625 38.7879 33.3516 38.878C33.3516 38.878 33.9751 38.6076 34.5095 38.0669C35.4002 37.2557 36.469 36.0841 36.6471 35.9039C37.716 34.552 38.6957 33.0199 39.4973 31.4877C40.1208 30.0457 41.0115 28.3334 41.2787 26.621C41.4569 25.9 41.5459 25.2691 40.4771 25.7197H40.5662Z" fill="url(#paint12_radial_77289_5370)"/>
<path fill-rule="evenodd" clip-rule="evenodd" d="M35.9346 27.7019C37.6269 27.071 40.0318 25.5389 40.4771 25.3586C41.2788 25.0882 41.4569 24.9981 41.3678 24.4574C41.1006 23.3759 40.9225 22.2944 40.5662 21.303C40.0318 19.5906 39.4083 17.9684 38.7848 16.256C38.7848 16.1659 38.7849 15.9856 38.6958 15.8955C38.1614 15.8955 37.627 15.8955 37.0925 15.8955C35.6674 15.9856 34.3314 16.256 32.9063 16.3461C32.55 16.3461 32.2828 16.3461 31.9265 16.3461C31.3921 16.3461 30.9468 16.1659 30.4124 16.1659C29.7889 16.1659 29.6107 16.3461 29.1654 16.7066C26.8496 18.6894 24.6229 20.6721 22.5743 22.745C17.1411 23.8265 11.9751 25.1784 7.43262 27.5216C7.61075 30.0451 9.12493 33.1094 10.461 35.2724C11.5298 36.2637 12.8658 37.0749 14.2018 37.7959C17.2302 39.5082 21.4164 41.4009 23.9103 41.6712C24.5338 41.6712 25.8699 41.491 27.295 41.1305C29.1654 40.4996 30.9468 40.049 32.55 39.328C32.8172 38.7872 32.55 38.0662 32.7282 37.5255C33.0844 35.1822 33.4407 32.839 33.7079 30.4056C34.5095 29.5044 35.133 28.6031 35.7565 27.6117L35.9346 27.7019Z" fill="url(#paint13_radial_77289_5370)"/>
<g style="mix-blend-mode:screen" opacity="0.5">
<path fill-rule="evenodd" clip-rule="evenodd" d="M19.7253 11.5693C19.7253 11.5693 19.2799 10.8483 19.4581 10.668C20.2597 9.76677 21.3285 9.22602 22.3083 8.59515C22.6645 8.4149 23.1099 8.4149 23.4662 8.59515C24.4459 9.1359 25.5148 9.58652 26.1382 10.4878C27.0289 11.8396 23.288 12.2001 22.6646 12.11C21.6848 12.11 20.616 12.11 19.7253 11.4791V11.5693Z" fill="#3C3C96"/>
</g>
<path fill-rule="evenodd" clip-rule="evenodd" d="M19.7241 11.3896C19.7241 11.3896 19.3678 10.6686 19.546 10.3982C20.3476 9.58708 21.3273 8.95621 22.3962 8.41546C22.7524 8.23521 23.1978 8.23521 23.5541 8.41546C24.5338 8.86609 25.5136 9.40684 26.1371 10.3081C27.0277 11.5698 23.2869 11.8402 22.7525 11.8402C21.7727 11.8402 20.7039 11.8402 19.8132 11.3896H19.7241Z" fill="url(#paint14_radial_77289_5370)"/>
<g style="mix-blend-mode:screen" opacity="0.5">
<path fill-rule="evenodd" clip-rule="evenodd" d="M29.2557 10.8479C29.2557 10.8479 28.454 11.0282 28.0978 11.2084C27.9196 11.2986 27.9196 11.5689 28.0087 11.7492C28.2759 12.2899 28.8994 12.8307 29.5229 13.1011C29.701 13.1912 30.0573 13.2813 30.2354 13.1011C30.5026 12.8307 30.7698 12.3801 30.8589 11.9294C30.8589 11.7492 30.7698 11.2986 30.5026 11.1183C30.2354 10.9381 29.701 10.8479 29.2557 10.7578V10.8479Z" fill="#3C3C96"/>
</g>
<path fill-rule="evenodd" clip-rule="evenodd" d="M29.2553 10.8486C29.2553 10.8486 28.4536 11.0289 28.1864 11.2091C28.0083 11.2993 28.0083 11.5696 28.0083 11.7499C28.2755 12.2906 28.899 12.7413 29.5225 13.0116C29.7006 13.1018 30.0569 13.1919 30.235 13.0116C30.5022 12.7413 30.7694 12.3808 30.8585 12.0203C30.8585 11.84 30.7694 11.3894 30.5022 11.2091C30.235 11.0289 29.7006 10.9388 29.2553 10.8486Z" fill="url(#paint15_radial_77289_5370)"/>
<g style="mix-blend-mode:screen" opacity="0.5">
<path fill-rule="evenodd" clip-rule="evenodd" d="M21.6841 36.1726C21.1496 36.1726 19.4573 35.722 19.012 35.6318C18.6557 35.6318 18.9229 37.2541 19.2792 37.4343C20.2589 37.9751 20.7043 38.606 21.1496 38.7862C21.3278 38.7862 21.9513 38.9665 22.6638 39.1467C23.2873 39.327 23.9108 39.5072 24.267 39.5072C25.2468 39.4171 26.85 38.3356 27.0282 37.7948C27.2954 36.9837 26.761 35.9022 26.0484 35.9022C25.6031 35.9022 23.4654 36.2627 21.6841 36.0825V36.1726Z" fill="#3C3C96"/>
</g>
<path fill-rule="evenodd" clip-rule="evenodd" d="M21.6841 35.9024C21.1496 35.9024 19.4573 35.3616 19.012 35.2715C18.6557 35.2715 18.9229 36.8937 19.2792 37.1641C20.2589 37.795 20.7043 38.4259 21.1496 38.6061C21.5059 38.7864 23.6436 39.3271 24.267 39.237C25.2468 39.237 26.9391 38.3357 27.1172 37.7049C27.3844 36.8937 26.85 35.8122 26.1375 35.8122C25.6921 35.8122 23.5545 36.1727 21.7731 35.9024H21.6841Z" fill="url(#paint16_radial_77289_5370)"/>
<path opacity="0.75" fill-rule="evenodd" clip-rule="evenodd" d="M23.3765 2.46793C27.83 3.00868 33.5304 4.81117 35.668 7.0643C38.6073 8.05567 41.5465 11.1199 42.5263 14.094C44.4858 16.7978 45.2875 21.6645 45.3765 24.7288C45.9109 25.7202 45.3765 27.793 44.8421 30.1363C45.5546 28.0634 45.9109 26.2609 45.9109 24.7288C45.9109 24.0979 44.4858 15.8965 43.417 13.9138C41.9919 11.1199 37.8947 7.24455 37.3603 6.79392C34.8664 4.45067 26.4049 2.28768 23.6437 2.10743C18.3887 1.74693 7.87855 7.33467 5.47369 11.21C4.49394 12.7422 2.17814 19.6818 2 21.6645C2 22.5658 2.17815 24.3683 2.35628 26.0807C2.35628 24.6387 2.26722 22.3855 2.44535 21.5744C3.24697 18.42 4.22672 14.5447 5.91903 11.6607C10.9069 6.88405 17.587 3.18893 23.2875 2.64818L23.3765 2.46793Z" fill="url(#paint17_linear_77289_5370)"/>
<path fill-rule="evenodd" clip-rule="evenodd" d="M6.18614 11.66C6.98776 12.6513 7.16589 12.9217 8.23471 13.7328C8.23471 13.9131 8.23471 14.0933 8.23471 14.2736C7.7003 16.3464 6.89868 18.5094 6.09706 20.5823C5.82986 21.3033 5.82985 21.3033 5.1173 21.3033C4.49382 21.3033 4.04849 21.3934 3.33594 21.3934C4.67197 21.5737 5.91893 21.3934 6.09706 22.2046C6.36427 24.0071 6.5424 25.5392 6.45333 27.3417C6.27519 28.0627 5.29544 28.4232 4.31568 28.6936C5.38451 28.5133 5.56266 28.5133 6.36428 28.1528C6.89869 27.8824 6.80962 28.1528 7.07683 28.6936C7.78938 30.6763 8.76912 32.5689 9.65981 34.4616C9.92702 35.0924 10.1052 35.2727 9.65981 35.8134C9.30354 36.2641 8.8582 36.6246 8.50193 37.0752C8.94727 36.7147 9.39261 36.3542 9.83795 36.0838C10.4614 35.7233 10.4614 35.8134 10.9958 36.0838C12.1537 36.7147 13.2226 37.2554 14.3805 37.8863C13.0444 37.0752 11.7084 36.2641 10.6396 35.3628C9.21447 33.1998 7.78937 30.1356 7.61124 27.6121C12.1537 25.2688 17.4088 23.9169 22.7529 22.8354C24.8015 20.7626 27.0282 18.7798 29.344 16.7971C29.7894 16.4366 29.9675 16.2563 30.591 16.2563C31.1254 16.2563 31.5707 16.4366 32.1052 16.4366C32.4614 16.4366 32.7286 16.4366 33.0849 16.4366C34.51 16.2563 35.846 16.0761 37.2711 15.9859C37.8055 15.9859 38.34 15.9859 38.8744 15.9859C38.8744 16.0761 38.8744 16.2563 38.9635 16.3464C39.5869 18.0588 40.2104 19.6811 40.7448 21.3934C41.1011 22.4749 41.2792 23.4663 41.5465 24.5478C41.7246 25.0886 41.5464 25.1787 40.6557 25.4491C40.1213 25.6293 37.7165 27.1614 36.1133 27.7923C35.5788 28.7837 34.8663 29.6849 34.0647 30.5862C33.7084 32.9294 33.3521 35.2727 33.0849 37.7061C32.9958 38.2468 33.0849 38.9678 32.9068 39.5085C31.3035 40.2295 29.5222 40.6802 27.6517 41.311C29.4331 40.9506 31.2144 40.4999 32.9958 40.0493C33.3521 40.0493 33.5303 40.0493 33.7084 40.2295C34.0647 40.4999 34.0647 40.6802 34.3319 41.0407C34.51 41.0407 35.4007 41.9419 35.5788 42.1222C35.1335 41.6715 34.7772 41.1308 34.3319 40.6802C34.1537 40.4098 33.8865 39.869 33.9756 39.5085C34.3319 38.8777 34.7772 38.6073 35.3116 38.0666C35.846 37.3456 36.3805 36.7147 36.9149 35.9937C36.7367 36.1739 35.6679 37.3456 34.7772 38.1567C34.2428 38.6974 33.7084 38.9678 33.6193 38.9678C33.4412 38.9678 33.4412 38.3369 33.6193 37.7061C33.7974 36.5344 33.8865 35.3628 34.0647 34.1912C34.1537 33.0196 34.3319 31.8479 34.4209 30.6763C35.1335 29.7751 35.757 28.8738 36.3804 27.9726C37.8055 27.2516 39.3197 26.4404 40.8339 25.8096C41.9027 25.3589 41.7246 25.9898 41.6355 26.7108C41.2792 28.4232 40.3885 30.0454 39.8541 31.5776C40.4776 30.2257 42.0809 27.7923 42.1699 27.1614C42.259 26.6207 42.1699 25.9898 42.1699 25.4491C43.1497 25.1787 44.3076 24.9984 45.4655 24.9083C44.2185 24.9083 43.4169 24.9083 42.1699 25.1787C42.1699 25.0886 42.1699 24.9083 42.1699 24.8182C41.9027 23.8268 41.5464 22.8354 41.1902 21.8441C40.923 20.9428 40.8339 20.0416 40.6557 19.2304C40.3885 18.1489 39.7651 17.1576 39.676 16.0761C39.676 15.8057 40.2104 15.8958 40.2995 15.8958C41.012 15.5353 41.7246 15.0847 42.4371 14.6341C41.8136 14.9044 41.2792 15.1748 40.6557 15.3551C40.2104 15.5353 39.9432 15.5353 39.4978 15.5353C39.4088 15.5353 39.2307 15.5353 39.1416 15.3551C38.5181 14.5439 37.8946 13.5526 37.1821 12.7415C36.5586 12.0205 35.6679 11.3896 34.9553 10.7587C34.5991 10.4883 34.51 10.3081 34.5991 9.85745C34.5991 9.58708 34.5991 9.3167 34.7772 9.04633C35.0444 8.50558 35.3116 8.05496 35.6679 7.60433C35.3116 8.05496 34.9553 8.59571 34.5991 8.86608C34.5991 8.86608 34.4209 9.22658 34.3319 9.49695C34.0647 10.0377 33.8865 9.94758 33.3521 9.6772C31.8379 9.04633 30.5019 8.23521 28.9878 7.69446C27.9189 7.42408 23.7327 7.06358 23.8218 5.62158C23.8218 4.44996 23.7327 4.08946 23.6436 2.64746C23.6436 3.63883 23.6436 5.80183 23.2873 6.16233C23.0201 6.43271 22.7529 6.43271 22.3076 6.61296C20.8825 7.06358 19.2792 7.33396 17.7651 7.78458C16.2509 8.59571 8.94726 13.1921 8.85819 13.1921C8.23471 13.1921 7.16588 12.5612 6.45333 11.8402L6.18614 11.66ZM30.5019 15.2649C31.4817 13.6427 32.5505 12.0205 33.7974 10.5785C33.7974 10.4883 34.0647 10.3982 34.1537 10.4883C34.6881 10.7587 35.0444 11.2093 35.4898 11.66C36.2914 12.4711 37.093 13.2822 37.8055 14.1834C37.9837 14.4538 38.1618 14.7242 38.34 15.0847C38.429 15.3551 38.6072 15.5353 38.2509 15.6254C37.8946 15.8057 37.5383 15.8057 37.1821 15.8057C35.757 15.9859 34.3319 16.2563 32.8177 16.2563C32.1051 16.2563 31.3926 16.0761 30.6801 15.8958C30.3238 15.8057 30.4128 15.6254 30.591 15.3551L30.5019 15.2649ZM8.41286 26.7108C12.9554 24.8182 17.4979 23.6466 22.1294 22.5651C24.3562 20.8527 27.6517 17.7884 29.5221 15.7156C30.7691 14.2736 31.838 12.7415 33.2631 10.7587C33.2631 10.6686 33.3521 10.4883 33.4412 10.3982C33.4412 10.218 33.4412 10.0377 33.3521 9.94758C30.0566 8.50558 26.5829 7.33396 23.0201 6.70308C18.4776 7.78458 14.3805 9.58708 10.6396 12.381C10.2833 12.6513 10.0161 12.8316 9.65981 13.102C9.48168 13.2822 9.48168 13.6427 9.30355 13.9131C9.12541 14.0933 8.85819 14.1834 8.68005 14.4538C7.61123 16.7069 7.07683 18.7798 6.36428 21.2132C6.36428 22.9256 6.45334 24.1873 6.72054 25.8997C6.89868 26.9812 7.25496 27.2516 8.41286 26.7108Z" fill="url(#paint18_radial_77289_5370)"/>
<path fill-rule="evenodd" clip-rule="evenodd" d="M6.89847 27.3413C7.07661 28.3327 9.83773 34.7316 10.2831 35.2723C10.8175 35.9933 19.7244 41.3107 23.9997 41.6712C25.6029 41.7613 32.2831 39.9588 33.2628 39.1477C37.4491 36.1736 41.3681 28.9636 41.6353 25.2684C41.6353 25.0882 41.6353 24.9079 41.6353 24.8178C41.6353 24.2771 39.7649 17.3374 38.9632 15.8053C38.9632 15.8053 38.9632 15.7152 38.8741 15.6251C37.7163 13.5522 34.777 10.7583 34.4207 10.488C34.2426 10.3978 34.0645 10.2176 33.8863 10.1275C31.3924 8.50521 24.6232 6.79284 23.2871 6.52246C23.2871 6.52246 23.109 6.52246 23.0199 6.52246C20.4369 6.52246 11.0847 10.8485 8.85798 13.7325C8.85798 13.7325 8.7689 13.9127 8.67983 14.0028C7.87821 15.1745 6.18592 20.4017 6.09685 21.8437C6.00778 23.0153 6.54219 26.4401 6.72033 27.4314L6.89847 27.3413Z" fill="url(#paint19_linear_77289_5370)"/>
<path fill-rule="evenodd" clip-rule="evenodd" d="M6.89847 27.3413C7.07661 28.3327 9.83773 34.7316 10.2831 35.2723C10.8175 35.9933 19.7244 41.3107 23.9997 41.6712C25.6029 41.7613 32.2831 39.9588 33.2628 39.1477C37.4491 36.1736 41.3681 28.9636 41.6353 25.2684C41.6353 25.0882 41.6353 24.9079 41.6353 24.8178C41.6353 24.2771 39.7649 17.3374 38.9632 15.8053C38.9632 15.8053 38.9632 15.7152 38.8741 15.6251C37.7163 13.5522 34.777 10.7583 34.4207 10.488C34.2426 10.3978 34.0645 10.2176 33.8863 10.1275C31.3924 8.50521 24.6232 6.79284 23.2871 6.52246C23.2871 6.52246 23.109 6.52246 23.0199 6.52246C20.4369 6.52246 11.0847 10.8485 8.85798 13.7325C8.85798 13.7325 8.7689 13.9127 8.67983 14.0028C7.87821 15.1745 6.18592 20.4017 6.09685 21.8437C6.00778 23.0153 6.54219 26.4401 6.72033 27.4314L6.89847 27.3413Z" fill="url(#paint20_linear_77289_5370)"/>
<path opacity="0.5" fill-rule="evenodd" clip-rule="evenodd" d="M9.39231 13.6426C12.2425 10.8487 20.704 6.97337 23.198 6.97337C23.198 6.97337 23.3761 6.97337 23.4652 6.97337C24.7121 7.15362 30.6797 8.68574 33.5299 10.2179C33.7081 10.2179 33.7971 10.3981 33.9753 10.4882C33.9753 10.4882 34.0644 10.4882 34.1534 10.5784C34.3316 10.6685 34.5097 10.8487 34.6879 10.9389C35.0441 11.2092 37.1818 13.2821 38.5178 15.1747C38.785 15.5352 38.9632 15.8056 39.1413 16.076C39.1413 16.076 39.1413 16.1661 39.2303 16.2562C39.8538 17.4279 41.1899 22.1144 41.6352 24.2774C41.2789 22.565 39.7648 17.0674 39.0522 15.7155C39.0522 15.7155 39.0522 15.6254 38.9632 15.5352C37.8053 13.4624 34.866 10.6685 34.5097 10.3981C34.3316 10.308 34.1534 10.1277 33.9753 10.0376C31.4814 8.41537 24.7121 6.70299 23.3761 6.43262C23.3761 6.43262 23.198 6.43262 23.1089 6.43262C20.5259 6.43262 11.1737 10.7586 8.94696 13.6426C8.94696 13.6426 8.85789 13.8229 8.76882 13.913C8.05627 14.9044 6.72025 19.0501 6.2749 21.0329C6.80932 18.96 7.96721 15.6254 8.59069 14.5439C8.59069 14.5439 8.59069 14.5439 8.59069 14.4537C8.59069 14.4537 8.67975 14.2735 8.76882 14.1834C8.85789 14.0031 9.03603 13.8229 9.21417 13.6426H9.39231Z" fill="#23110C"/>
<path d="M24 26.5C25.3807 26.5 26.5 25.3807 26.5 24C26.5 22.6193 25.3807 21.5 24 21.5C22.6193 21.5 21.5 22.6193 21.5 24C21.5 25.3807 22.6193 26.5 24 26.5Z" stroke="white" stroke-width="1.5" stroke-miterlimit="10" stroke-linecap="round" stroke-linejoin="round"/>
<path d="M15.6665 24.7329V23.2662C15.6665 22.3995 16.3748 21.6829 17.2498 21.6829C18.7582 21.6829 19.3748 20.6162 18.6165 19.3079C18.1832 18.5579 18.4415 17.5829 19.1998 17.1495L20.6415 16.3245C21.2998 15.9329 22.1498 16.1662 22.5415 16.8245L22.6332 16.9829C23.3832 18.2912 24.6165 18.2912 25.3748 16.9829L25.4665 16.8245C25.8582 16.1662 26.7082 15.9329 27.3665 16.3245L28.8082 17.1495C29.5665 17.5829 29.8248 18.5579 29.3915 19.3079C28.6332 20.6162 29.2498 21.6829 30.7582 21.6829C31.6248 21.6829 32.3415 22.3912 32.3415 23.2662V24.7329C32.3415 25.5995 31.6332 26.3162 30.7582 26.3162C29.2498 26.3162 28.6332 27.3829 29.3915 28.6912C29.8248 29.4495 29.5665 30.4162 28.8082 30.8495L27.3665 31.6745C26.7082 32.0662 25.8582 31.8329 25.4665 31.1745L25.3748 31.0162C24.6248 29.7079 23.3915 29.7079 22.6332 31.0162L22.5415 31.1745C22.1498 31.8329 21.2998 32.0662 20.6415 31.6745L19.1998 30.8495C18.4415 30.4162 18.1832 29.4412 18.6165 28.6912C19.3748 27.3829 18.7582 26.3162 17.2498 26.3162C16.3748 26.3162 15.6665 25.5995 15.6665 24.7329Z" stroke="white" stroke-width="1.5" stroke-miterlimit="10" stroke-linecap="round" stroke-linejoin="round"/>
<defs>
<radialGradient id="paint0_radial_77289_5370" cx="0" cy="0" r="1" gradientUnits="userSpaceOnUse" gradientTransform="translate(18.3885 22.1149) scale(36.0729 36.5006)">
<stop stop-color="#8D96B3"/>
<stop offset="1" stop-color="#777387"/>
</radialGradient>
<radialGradient id="paint1_radial_77289_5370" cx="0" cy="0" r="1" gradientUnits="userSpaceOnUse" gradientTransform="translate(21.5058 3.27737) scale(35.0931 35.5092)">
<stop stop-color="#8D96B3"/>
<stop offset="1" stop-color="#777387"/>
</radialGradient>
<radialGradient id="paint2_radial_77289_5370" cx="0" cy="0" r="1" gradientUnits="userSpaceOnUse" gradientTransform="translate(24.8021 0.664446) scale(20.6639 20.909)">
<stop stop-color="#8D96B3"/>
<stop offset="1" stop-color="#777387"/>
</radialGradient>
<radialGradient id="paint3_radial_77289_5370" cx="0" cy="0" r="1" gradientUnits="userSpaceOnUse" gradientTransform="translate(34.6881 6.34166) scale(23.7814 24.0633)">
<stop stop-color="#8D96B3"/>
<stop offset="1" stop-color="#777387"/>
</radialGradient>
<radialGradient id="paint4_radial_77289_5370" cx="0" cy="0" r="1" gradientUnits="userSpaceOnUse" gradientTransform="translate(27.0286 16.9768) scale(20.9312 21.1794)">
<stop stop-color="#818CA3"/>
<stop offset="1" stop-color="#565373"/>
</radialGradient>
<radialGradient id="paint5_radial_77289_5370" cx="0" cy="0" r="1" gradientUnits="userSpaceOnUse" gradientTransform="translate(15.3609 14.0928) scale(43.9999 44.5217)">
<stop stop-color="#5F5D75"/>
<stop offset="1" stop-color="#373854"/>
</radialGradient>
<radialGradient id="paint6_radial_77289_5370" cx="0" cy="0" r="1" gradientUnits="userSpaceOnUse" gradientTransform="translate(24.5345 24.0966) scale(22.7126 22.9819)">
<stop stop-color="#5F5D75"/>
<stop offset="1" stop-color="#373854"/>
</radialGradient>
<radialGradient id="paint7_radial_77289_5370" cx="0" cy="0" r="1" gradientUnits="userSpaceOnUse" gradientTransform="translate(21.9525 21.8429) scale(29.4818 29.8313)">
<stop stop-color="#5F5D75"/>
<stop offset="1" stop-color="#373854"/>
</radialGradient>
<radialGradient id="paint8_radial_77289_5370" cx="0" cy="0" r="1" gradientUnits="userSpaceOnUse" gradientTransform="translate(15.9839 23.3763) scale(33.8461 34.2475)">
<stop stop-color="#5F5D75"/>
<stop offset="1" stop-color="#373854"/>
</radialGradient>
<radialGradient id="paint9_radial_77289_5370" cx="0" cy="0" r="1" gradientUnits="userSpaceOnUse" gradientTransform="translate(18.7456 19.5908) scale(28.0567 28.3893)">
<stop stop-color="#818CA3"/>
<stop offset="1" stop-color="#565373"/>
</radialGradient>
<radialGradient id="paint10_radial_77289_5370" cx="0" cy="0" r="1" gradientUnits="userSpaceOnUse" gradientTransform="translate(23.1983 23.7367) scale(57.6275 58.3108)">
<stop stop-color="#5F5D75"/>
<stop offset="1" stop-color="#373854"/>
</radialGradient>
<radialGradient id="paint11_radial_77289_5370" cx="0" cy="0" r="1" gradientUnits="userSpaceOnUse" gradientTransform="translate(30.1453 19.1396) scale(16.2996 16.4929)">
<stop stop-color="#5F5D75"/>
<stop offset="1" stop-color="#373854"/>
</radialGradient>
<radialGradient id="paint12_radial_77289_5370" cx="0" cy="0" r="1" gradientUnits="userSpaceOnUse" gradientTransform="translate(47.6917 39.4187) scale(22.9797 23.2522)">
<stop stop-color="#5F5D75"/>
<stop offset="1" stop-color="#373854"/>
</radialGradient>
<radialGradient id="paint13_radial_77289_5370" cx="0" cy="0" r="1" gradientUnits="userSpaceOnUse" gradientTransform="translate(21.5946 16.1659) scale(43.1093 43.6205)">
<stop stop-color="#5F5D75"/>
<stop offset="1" stop-color="#373854"/>
</radialGradient>
<radialGradient id="paint14_radial_77289_5370" cx="0" cy="0" r="1" gradientUnits="userSpaceOnUse" gradientTransform="translate(23.0197 14.1835) scale(9.26315 9.37299)">
<stop stop-color="#5F5D75"/>
<stop offset="1" stop-color="#373854"/>
</radialGradient>
<radialGradient id="paint15_radial_77289_5370" cx="0" cy="0" r="1" gradientUnits="userSpaceOnUse" gradientTransform="translate(29.7897 13.7326) scale(4.45344 4.50625)">
<stop stop-color="#5F5D75"/>
<stop offset="1" stop-color="#373854"/>
</radialGradient>
<radialGradient id="paint16_radial_77289_5370" cx="0" cy="0" r="1" gradientUnits="userSpaceOnUse" gradientTransform="translate(23.2873 33.8295) scale(10.6882 10.815)">
<stop stop-color="#373854"/>
<stop offset="1" stop-color="#5F5D75"/>
</radialGradient>
<linearGradient id="paint17_linear_77289_5370" x1="17.4282" y1="2.09082" x2="17.4282" y2="30.1363" gradientUnits="userSpaceOnUse">
<stop stop-color="#A0DBF0"/>
<stop offset="1" stop-color="#00FFEA"/>
</linearGradient>
<radialGradient id="paint18_radial_77289_5370" cx="0" cy="0" r="1" gradientUnits="userSpaceOnUse" gradientTransform="translate(18.6558 6.52283) scale(48.8097 49.3884)">
<stop stop-color="#818CA3"/>
<stop offset="1" stop-color="#565373"/>
</radialGradient>
<linearGradient id="paint19_linear_77289_5370" x1="23.8611" y1="6.52246" x2="23.8611" y2="41.6744" gradientUnits="userSpaceOnUse">
<stop stop-color="#020D1A"/>
<stop offset="1" stop-color="#08151D"/>
</linearGradient>
<linearGradient id="paint20_linear_77289_5370" x1="23.8611" y1="6.52246" x2="23.8611" y2="41.6744" gradientUnits="userSpaceOnUse">
<stop offset="0.5" stop-color="white" stop-opacity="0"/>
<stop offset="0.776042" stop-color="white" stop-opacity="0.1"/>
</linearGradient>
</defs>
</svg>
