<svg width="576" height="30" viewBox="0 0 576 30" fill="none" xmlns="http://www.w3.org/2000/svg">
<g clip-path="url(#clip0_189_37445)">
<g clip-path="url(#clip1_189_37445)">
<path fill-rule="evenodd" clip-rule="evenodd" d="M203.649 18.3876C195.006 18.9599 186.372 19.4272 177.724 19.8087C174.188 19.9661 171.165 20.2809 167.671 20.6195C164.394 20.939 161.556 20.4716 158.241 20.5289C147.584 20.7244 137.121 21.125 126.431 21.0582C122.574 21.0344 118.698 20.3715 114.935 20.6147C111.573 20.8341 108.81 21.1011 105.363 21.0916C78.7119 21.0391 51.6177 20.1426 25.0232 18.3828L17.6484 26.7572L18.0021 26.781C30.7759 27.7062 43.5686 28.3834 56.366 28.8842C67.5366 29.3229 79.0326 29.733 90.1985 29.7903C94.8384 29.8141 100.308 29.0177 104.764 29.5566C108.258 29.981 110.828 29.9858 114.336 29.9858C128.279 29.9858 142.218 29.8046 156.161 29.4231C158.58 29.3611 161.867 29.3849 164.191 29.0844C166.068 28.8412 166.224 28.3357 168.289 28.5599C170.411 28.7888 171.693 28.9032 173.839 28.8269C186.188 28.3882 198.698 27.6585 211.029 26.7619L203.654 18.3876H203.649Z" fill="url(#paint0_radial_189_37445)"/>
<path fill-rule="evenodd" clip-rule="evenodd" d="M25.0211 18.3914C23.8187 14.9625 21.843 11.8388 19.1411 9.12997C16.5712 6.55471 13.6289 4.6471 10.4177 3.44531L1.72266 10.8087C6.09377 10.7657 9.87074 12.3157 12.9781 15.4298C16.0808 18.544 17.651 22.3449 17.651 26.7705L25.0258 18.3961L25.0211 18.3914Z" fill="url(#paint1_radial_189_37445)"/>
<path fill-rule="evenodd" clip-rule="evenodd" d="M10.4149 3.44463C10.3724 -1.26714 10.3253 -5.9837 10.2828 -10.6955C10.2498 -14.0624 10.2168 -17.4293 10.1838 -20.7962C10.1555 -23.9962 10.1225 -27.1915 10.0942 -30.3915C10.0094 -39.3763 10.0329 -48.3706 9.83489 -57.3554C9.78302 -59.8162 9.17946 -62.5059 9.23604 -64.714C9.3162 -68.0284 9.64156 -71.3524 9.66514 -74.7384C9.74058 -86.4988 9.45295 -98.4118 9.33978 -110.186C9.30677 -113.553 9.27848 -116.92 9.24547 -120.287C9.1606 -129 8.93426 -137.961 9.02857 -146.65C9.09458 -151.038 9.5001 -155.349 9.54725 -159.794C9.57554 -162.574 8.99084 -164.41 8.83995 -167.033C8.48159 -173.237 8.67492 -180.167 8.61833 -186.448C8.58533 -189.814 8.55703 -193.181 8.52403 -196.548L-0.3125 -203.688C-0.204047 -192.123 -0.0955949 -180.558 0.017573 -168.993C0.0552956 -164.973 -0.0861642 -159.913 0.357077 -156.017C0.569266 -154.128 1.46518 -150.337 0.988931 -148.663C0.234478 -146.006 0.253339 -144.924 0.272201 -142.167C0.479675 -111.808 0.823894 -81.4484 1.13039 -51.0889C1.15868 -48.1178 1.02194 -43.4204 1.44632 -40.6305C1.59249 -39.6767 2.16776 -38.1697 2.09232 -37.4019C1.9037 -35.4657 1.48404 -34.0063 1.3803 -31.8746C1.21527 -28.2549 1.38973 -24.0201 1.42274 -20.3384C1.52176 -9.95626 1.62078 0.425859 1.71981 10.8127L10.4149 3.44941V3.44463Z" fill="url(#paint2_radial_189_37445)"/>
<path fill-rule="evenodd" clip-rule="evenodd" d="M199.726 12.7266C171.302 14.5197 142.812 15.216 114.336 15.216C85.8606 15.216 57.3706 14.5197 28.9466 12.7266L25.0234 18.3921C51.6179 20.1519 78.7122 21.0532 105.363 21.1009C108.815 21.1057 111.578 20.8434 114.935 20.624C118.698 20.376 122.569 21.0389 126.431 21.0675C137.121 21.1343 147.58 20.7385 158.241 20.5382C161.556 20.4762 164.394 20.9483 167.672 20.6288C171.166 20.2854 174.188 19.9754 177.725 19.8181C186.377 19.4318 195.011 18.9644 203.65 18.3969L199.726 12.7313V12.7266Z" fill="url(#paint3_radial_189_37445)"/>
<path fill-rule="evenodd" clip-rule="evenodd" d="M28.9492 12.7237C27.478 9.84802 25.5542 7.2346 23.2578 4.93117C21.1595 2.82804 18.8018 1.04444 16.2273 -0.367188L10.418 3.44802C13.6338 4.6498 16.5762 6.55741 19.1413 9.13267C21.8432 11.8367 23.8189 14.9604 25.0213 18.3941L28.9445 12.7285L28.9492 12.7237Z" fill="url(#paint4_radial_189_37445)"/>
<path fill-rule="evenodd" clip-rule="evenodd" d="M16.2197 -0.369171L14.3995 -192.846L8.51953 -196.547C8.55254 -193.18 8.58555 -189.813 8.61384 -186.446C8.67042 -180.161 8.47709 -173.236 8.83546 -167.032C8.98635 -164.404 9.57105 -162.573 9.54276 -159.792C9.4956 -155.347 9.09009 -151.036 9.02407 -146.649C8.92976 -137.96 9.1561 -129.003 9.24098 -120.286C9.27398 -116.919 9.30699 -113.557 9.33528 -110.185C9.44845 -98.4056 9.73609 -86.4974 9.66064 -74.737C9.63706 -71.3462 9.31171 -68.027 9.23155 -64.7126C9.17496 -62.5093 9.77852 -59.8148 9.83039 -57.354C10.0284 -48.3692 10.0096 -39.3749 10.0897 -30.3901C10.118 -27.19 10.151 -23.9948 10.1793 -20.7948C10.2123 -17.4279 10.2453 -14.061 10.2783 -10.694C10.3255 -5.98227 10.3679 -1.26574 10.4104 3.44603L16.2197 -0.369171Z" fill="url(#paint5_radial_189_37445)"/>
</g>
<g clip-path="url(#clip2_189_37445)">
<path fill-rule="evenodd" clip-rule="evenodd" d="M560.89 -2.50615C554.019 5.374 548.262 14.3147 543.859 24.1526L555.599 43.5348C559.211 31.8043 565.109 21.118 573.194 11.8511C580.884 3.04098 589.688 -3.48504 599.311 -7.59643L581.928 -20.6484C574.224 -15.8355 567.169 -9.71735 560.89 -2.52243V-2.50615Z" fill="url(#paint6_radial_189_37445)"/>
<path fill-rule="evenodd" clip-rule="evenodd" d="M32.829 24.1597C28.4267 14.3218 22.6699 5.38111 15.7983 -2.49905C9.51941 -9.69397 2.46444 -15.7958 -5.23959 -20.625L-22.623 -7.57299C-13.0001 -3.46161 -4.19546 3.06442 3.48035 11.8745C11.5654 21.1251 17.4774 31.8114 21.0755 43.5583L32.8149 24.176L32.829 24.1597Z" fill="url(#paint7_radial_189_37445)"/>
<path style="mix-blend-mode:screen" fill-rule="evenodd" clip-rule="evenodd" d="M-2.25977 5.89844C6.95403 15.4101 14.0372 26.2432 17.5788 39.3115C17.9316 40.5678 18.0021 41.8241 17.8328 43.0477C17.339 46.5554 9.07052 58.4817 6.84115 62.0384C9.94534 58.6775 18.4113 48.399 21.8682 46.9307C23.0394 46.4249 24.2952 46.2128 25.6497 46.2944C35.1034 46.7838 44.5006 47.1591 53.9543 47.518C62.3638 47.8606 64.1557 52.3146 71.0837 55.9528C76.1069 58.498 81.4122 59.379 85.4335 58.7427C89.9911 57.9107 93.7725 55.2024 97.4129 52.1188C101.801 48.3827 104.623 49.5247 109.787 49.7042C125.336 50.2426 140.97 50.7157 156.534 50.9442C139.672 49.9816 122.754 48.8721 105.893 48.0727C98.5558 47.7138 98.0055 43.8145 92.3615 40.5352C92.0088 40.3394 91.7407 40.2089 91.3738 40.0621C85.0102 37.7127 73.0732 35.8038 70.3359 36.1464C62.7589 37.3374 62.4484 45.3971 53.1641 44.6303C44.3454 43.8961 35.4561 43.1945 26.6515 42.3298C23.8295 42.0525 21.5155 40.2252 20.2597 37.2885C15.2225 25.4601 8.22392 14.7248 -2.25977 5.93105V5.89844Z" fill="url(#paint8_radial_189_37445)"/>
<path style="mix-blend-mode:screen" fill-rule="evenodd" clip-rule="evenodd" d="M578.925 5.89844C569.712 15.4101 562.628 26.2432 559.087 39.3115C558.748 40.5678 558.664 41.8241 558.833 43.0477C559.327 46.5554 567.595 58.4817 569.824 62.0384C566.72 58.6775 558.254 48.399 554.797 46.9307C553.626 46.4249 552.37 46.2128 551.03 46.2944C520.172 47.9096 491.881 48.1869 460.543 49.8184C482.611 46.5554 549.929 43.7329 553.683 40.9104C554.826 40.0457 555.771 38.8221 556.42 37.2885C561.457 25.4601 568.456 14.7248 578.94 5.93105L578.925 5.89844Z" fill="url(#paint9_radial_189_37445)"/>
</g>
<g clip-path="url(#clip3_189_37445)">
<path fill-rule="evenodd" clip-rule="evenodd" d="M555.593 18.3876C529.729 18.9599 503.894 19.4272 478.016 19.8087C467.434 19.9661 458.389 20.2809 447.934 20.6195C438.127 20.939 429.633 20.4716 419.714 20.5289C387.825 20.7244 356.515 21.125 324.528 21.0582C312.986 21.0344 301.388 20.3715 290.128 20.6147C280.068 20.8341 271.799 21.1011 261.485 21.0916C181.735 21.0391 100.66 20.1426 21.0797 18.3828L-0.988281 26.7572L0.0699645 26.781C38.2938 27.7062 76.5741 28.3834 114.868 28.8842C148.295 29.3229 182.695 29.733 216.107 29.7903C229.991 29.8141 246.359 29.0177 259.693 29.5566C270.148 29.981 277.838 29.9858 288.336 29.9858C330.059 29.9858 371.768 29.8046 413.491 29.4231C420.73 29.3611 430.564 29.3849 437.521 29.0844C443.136 28.8412 443.602 28.3357 449.782 28.5599C456.132 28.7888 459.969 28.9032 466.389 28.8269C503.343 28.3882 540.777 27.6585 577.675 26.7619L555.607 18.3876H555.593Z" fill="url(#paint10_radial_189_37445)"/>
<path fill-rule="evenodd" clip-rule="evenodd" d="M560.89 4.92813C554.019 7.23156 548.262 9.84498 543.859 12.7207L555.599 18.3863C559.211 14.9573 565.109 11.8337 573.194 9.12486C580.884 6.5496 589.688 4.64199 599.311 3.4402L581.928 -0.375C574.224 1.03186 567.169 2.82024 560.89 4.92337V4.92813Z" fill="url(#paint11_radial_189_37445)"/>
<path fill-rule="evenodd" clip-rule="evenodd" d="M543.852 12.7266C458.797 14.5197 373.545 15.216 288.335 15.216C203.125 15.216 117.872 14.5197 32.8176 12.7266L21.0781 18.3921C100.658 20.1519 181.734 21.0532 261.483 21.1009C271.812 21.1057 280.08 20.8434 290.127 20.624C301.386 20.376 312.971 21.0389 324.527 21.0675C356.514 21.1343 387.81 20.7385 419.712 20.5382C429.632 20.4762 438.126 20.9483 447.932 20.6288C458.388 20.2854 467.432 19.9754 478.015 19.8181C503.906 19.4318 529.742 18.9644 555.591 18.3969L543.852 12.7313V12.7266Z" fill="url(#paint12_radial_189_37445)"/>
<path fill-rule="evenodd" clip-rule="evenodd" d="M32.829 12.7237C28.4267 9.84802 22.6699 7.2346 15.7983 4.93117C9.51941 2.82804 2.46444 1.04444 -5.23959 -0.367188L-22.623 3.44802C-13.0001 4.6498 -4.19546 6.55741 3.48035 9.13267C11.5654 11.8367 17.4774 14.9604 21.0755 18.3941L32.8149 12.7285L32.829 12.7237Z" fill="url(#paint13_radial_189_37445)"/>
<path style="mix-blend-mode:screen" fill-rule="evenodd" clip-rule="evenodd" d="M-2.25977 7.39062C6.95403 10.171 14.0372 13.3376 17.5788 17.1575C17.9316 17.5247 18.0021 17.892 17.8328 18.2496C17.339 19.275 9.07052 22.7611 6.84115 23.8008C9.94534 22.8184 18.4113 19.8139 21.8682 19.3847C23.0394 19.2368 24.2952 19.1748 25.6497 19.1987C35.1034 19.3417 44.5006 19.4514 53.9543 19.5563C62.3638 19.6565 64.1557 20.9584 71.0837 22.0219C76.1069 22.7659 81.4122 23.0234 85.4335 22.8374C89.9911 22.5942 93.7725 21.8025 97.4129 20.9012C101.801 19.8091 104.623 20.1429 109.787 20.1954C125.336 20.3528 140.97 20.4911 156.534 20.5578C139.672 20.2765 122.754 19.9522 105.893 19.7185C98.5558 19.6136 98.0055 18.4738 92.3615 17.5152C92.0088 17.458 91.7407 17.4198 91.3738 17.3769C85.0102 16.6902 73.0732 16.1322 70.3359 16.2323C62.7589 16.5805 62.4484 18.9364 53.1641 18.7122C44.3454 18.4976 35.4561 18.2926 26.6515 18.0398C23.8295 17.9587 21.5155 17.4246 20.2597 16.5662C15.2225 13.1087 8.22392 9.97065 -2.25977 7.40016V7.39062Z" fill="url(#paint14_radial_189_37445)"/>
<path style="mix-blend-mode:screen" fill-rule="evenodd" clip-rule="evenodd" d="M578.925 7.39062C569.712 10.171 562.628 13.3376 559.087 17.1575C558.748 17.5247 558.664 17.892 558.833 18.2496C559.327 19.275 567.595 22.7611 569.824 23.8008C566.72 22.8184 558.254 19.8139 554.797 19.3847C553.626 19.2368 552.37 19.1748 551.03 19.1987C520.172 19.6708 491.881 19.7519 460.543 20.2288C482.611 19.275 549.929 18.4499 553.683 17.6249C554.826 17.3721 555.771 17.0145 556.42 16.5662C561.457 13.1087 568.456 9.97065 578.94 7.40016L578.925 7.39062Z" fill="url(#paint15_radial_189_37445)"/>
<path fill-rule="evenodd" clip-rule="evenodd" d="M59.0805 19.1653C58.7842 18.8077 65.7263 16.7236 69.6489 16.3516C72.5978 16.075 88.147 16.8905 92.8597 17.8062C95.5829 18.3355 101.072 19.6756 99.9993 19.8855C98.5742 20.1716 89.0077 21.0252 83.3214 21.1588C81.4307 21.2017 73.0635 21.0348 70.5942 20.8154C68.506 20.6342 59.3909 19.5659 59.0664 19.1653H59.0805Z" fill="url(#paint16_radial_189_37445)"/>
<path style="mix-blend-mode:multiply" fill-rule="evenodd" clip-rule="evenodd" d="M63.055 19.9141C65.0445 19.4372 68.1064 18.9555 70.8296 18.6503C74.4841 18.2449 88.3401 17.6536 92.0792 18.0732C95.4938 18.4548 97.4269 18.9937 100.023 19.6804C99.247 19.2321 95.1269 18.2401 92.8694 17.8062C88.1566 16.8905 72.6075 16.075 69.6585 16.3516C65.7218 16.7236 58.7797 18.8077 59.0901 19.1653C59.2312 19.337 60.9527 19.6279 63.055 19.9188V19.9141Z" fill="url(#paint17_radial_189_37445)"/>
<path style="mix-blend-mode:screen" fill-rule="evenodd" clip-rule="evenodd" d="M83.3457 21.1574C88.383 21.0382 96.4539 20.3562 99.2335 20.0033C99.1206 19.9747 99.0078 19.9509 98.8949 19.9223C90.8522 18.1673 76.6435 19.6361 68.1211 20.547C69.2076 20.671 70.1106 20.7664 70.6185 20.8093C73.1019 21.0239 81.455 21.1956 83.3457 21.1527V21.1574Z" fill="url(#paint18_radial_189_37445)"/>
<path style="mix-blend-mode:screen" fill-rule="evenodd" clip-rule="evenodd" d="M296.17 20.5671C304.198 20.2905 310.901 20.6196 318.746 20.6482C321.582 20.6529 328.595 20.6672 331.036 20.4002C333.462 20.1331 336.807 19.1984 339.332 18.7215C340.574 18.4878 341.717 18.3018 343.043 18.1301C345.23 17.9251 349.844 18.0777 351.791 18.4735C356.772 19.4893 356.123 20.4574 363.249 20.3906C369.655 20.3239 376.54 20.3906 382.988 20.4097C394.516 20.4431 406.044 20.4908 417.572 20.548C399.074 20.7865 380.59 21.0917 362.106 21.4255C355.573 21.54 354.543 22.6702 349.364 23.7766C346.853 24.3108 344.172 24.7495 341.138 24.7161C337.978 24.6064 333.787 24.1105 332.178 23.1185C330.147 21.8595 330.372 21.5638 325.561 21.54C323.614 21.5304 321.892 21.4971 319.945 21.4351C311.832 21.1537 304.424 20.7149 296.17 20.5719V20.5671Z" fill="url(#paint19_radial_189_37445)"/>
<path fill-rule="evenodd" clip-rule="evenodd" d="M332.285 21.0753C331.89 21.2756 333.485 22.4821 334.388 22.7349C336.081 23.2166 339.919 23.6458 340.427 23.6696C341.654 23.7221 345.619 23.6076 346.692 23.4503C350.939 22.8207 357.895 21.3757 358.389 21.018C358.869 20.6699 354.184 19.0389 351.108 18.4953C350.459 18.3808 344.632 18.171 343.319 18.3522C339.086 18.934 334.091 20.1596 332.271 21.08L332.285 21.0753Z" fill="url(#paint20_radial_189_37445)"/>
<path style="mix-blend-mode:multiply" fill-rule="evenodd" clip-rule="evenodd" d="M333.753 22.4678C337.436 21.3757 340.356 20.4601 344.857 19.6732C346.847 19.3251 350.233 19.0723 352.477 19.1677C353.747 19.2201 354.847 19.4729 355.849 19.7447C354.396 19.2535 352.576 18.7528 351.122 18.4953C350.473 18.3808 344.646 18.171 343.334 18.3522C339.101 18.934 334.106 20.1596 332.285 21.08C331.975 21.2374 332.892 22.0196 333.739 22.4678H333.753Z" fill="url(#paint21_radial_189_37445)"/>
<path style="mix-blend-mode:screen" fill-rule="evenodd" clip-rule="evenodd" d="M358.433 20.9785C350.602 20.5827 342.968 21.8846 336.252 23.1246C338.016 23.425 340.076 23.6492 340.443 23.6635C341.67 23.7159 345.635 23.6015 346.707 23.4441C350.955 22.8146 357.911 21.3696 358.405 21.0119L358.433 20.9785Z" fill="url(#paint22_radial_189_37445)"/>
</g>
<g clip-path="url(#clip4_189_37445)">
<path fill-rule="evenodd" clip-rule="evenodd" d="M567.068 -187.958C567.04 -184.93 567.012 -181.897 566.984 -178.868C566.908 -170.942 566.583 -162.425 567.068 -154.565C567.257 -151.504 566.771 -149.024 566.696 -145.967C566.46 -136.644 566.498 -127.106 566.408 -117.758C566.361 -112.708 566.314 -107.658 566.262 -102.607C566.201 -96.0164 565.984 -89.0775 566.107 -82.5249C566.149 -80.1928 566.611 -77.8322 566.399 -75.6289C565.743 -68.9142 565.904 -63.2867 566.234 -56.5958C566.371 -53.7916 565.861 -51.3404 565.777 -48.5028C565.564 -41.3732 565.616 -34.0003 565.545 -26.8468C565.512 -23.4798 565.479 -20.1129 565.451 -16.746C565.39 -10.0122 565.324 -3.27835 565.258 3.45548L573.953 10.8188C574.019 3.92762 574.085 -2.96361 574.146 -9.85482C574.165 -11.9007 574.184 -13.9514 574.203 -15.9925C574.264 -22.4545 574.325 -28.9165 574.387 -35.3785C574.41 -37.8965 574.556 -41.0441 574.391 -43.4954C574.292 -45.0262 573.637 -47.6396 573.967 -48.932C574.325 -50.3341 574.467 -51.0399 574.528 -52.5088C574.655 -55.5418 574.608 -58.8086 574.637 -61.8656C574.698 -68.2179 574.759 -74.5702 574.816 -80.9273C574.896 -89.5401 574.976 -98.1529 575.061 -106.766C575.08 -108.921 575.099 -111.077 575.122 -113.228C575.146 -115.593 575.4 -121.054 574.816 -123.061C574.486 -124.211 574.005 -124.444 574.283 -125.641C574.745 -127.606 575.136 -128.503 575.25 -130.635C575.396 -133.496 575.382 -136.539 575.334 -139.414C575.283 -142.486 574.637 -145.299 574.754 -148.251C574.948 -153.082 575.5 -157.732 575.58 -162.649C575.806 -176.298 575.844 -190.013 575.976 -203.672L567.139 -196.528L567.13 -195.517C567.106 -192.994 567.083 -190.467 567.059 -187.944L567.068 -187.958Z" fill="url(#paint23_radial_189_37445)"/>
<path fill-rule="evenodd" clip-rule="evenodd" d="M565.257 3.45009C562.041 4.65187 559.103 6.55948 556.528 9.13474C553.827 11.8388 551.856 14.9625 550.648 18.3961L558.023 26.7705C558.023 22.3496 559.593 18.544 562.696 15.4298C565.804 12.3157 569.58 10.7705 573.952 10.8087L565.257 3.44531V3.45009Z" fill="url(#paint24_radial_189_37445)"/>
<path fill-rule="evenodd" clip-rule="evenodd" d="M550.649 18.3876C542.006 18.9599 533.372 19.4272 524.724 19.8087C521.188 19.9661 518.165 20.2809 514.671 20.6195C511.394 20.939 508.556 20.4716 505.241 20.5289C494.584 20.7244 484.121 21.125 473.431 21.0582C469.574 21.0344 465.698 20.3715 461.935 20.6147C458.573 20.8341 455.81 21.1011 452.363 21.0916C425.712 21.0391 398.618 20.1426 372.023 18.3828L364.648 26.7572L365.002 26.781C377.776 27.7062 390.569 28.3834 403.366 28.8842C414.537 29.3229 426.033 29.733 437.198 29.7903C441.838 29.8141 447.308 29.0177 451.764 29.5566C455.258 29.981 457.828 29.9858 461.336 29.9858C475.279 29.9858 489.218 29.8046 503.161 29.4231C505.58 29.3611 508.867 29.3849 511.191 29.0844C513.068 28.8412 513.224 28.3357 515.289 28.5599C517.411 28.7888 518.693 28.9032 520.839 28.8269C533.188 28.3882 545.698 27.6585 558.029 26.7619L550.654 18.3876H550.649Z" fill="url(#paint25_radial_189_37445)"/>
<path fill-rule="evenodd" clip-rule="evenodd" d="M561.273 -192.841L559.453 -0.364385L565.262 3.45082C565.328 -3.28301 565.39 -10.0169 565.456 -16.7507C565.489 -20.1128 565.522 -23.4845 565.55 -26.8514C565.616 -34.0049 565.569 -41.3778 565.781 -48.5075C565.866 -51.345 566.375 -53.7963 566.238 -56.6005C565.904 -63.2914 565.748 -68.9188 566.404 -75.6336C566.616 -77.8321 566.158 -80.1975 566.111 -82.5295C565.989 -89.0822 566.201 -96.0211 566.267 -102.612C566.319 -107.662 566.366 -112.713 566.413 -117.763C566.503 -127.11 566.465 -136.643 566.701 -145.972C566.781 -149.024 567.262 -151.508 567.073 -154.57C566.587 -162.429 566.913 -170.942 566.988 -178.873C567.017 -181.906 567.045 -184.934 567.073 -187.963C567.097 -190.49 567.12 -193.013 567.144 -195.536L567.153 -196.547L561.273 -192.846V-192.841Z" fill="url(#paint26_radial_189_37445)"/>
<path fill-rule="evenodd" clip-rule="evenodd" d="M552.418 4.92813C550.122 7.23156 548.198 9.84498 546.727 12.7207L550.65 18.3863C551.857 14.9573 553.828 11.8337 556.53 9.12486C559.1 6.5496 562.042 4.64199 565.258 3.4402L559.449 -0.375C556.874 1.03186 554.516 2.82024 552.418 4.92337V4.92813Z" fill="url(#paint27_radial_189_37445)"/>
<path fill-rule="evenodd" clip-rule="evenodd" d="M546.726 12.7266C518.302 14.5197 489.812 15.216 461.336 15.216C432.861 15.216 404.371 14.5197 375.947 12.7266L372.023 18.3921C398.618 20.1519 425.712 21.0532 452.363 21.1009C455.815 21.1057 458.578 20.8434 461.935 20.624C465.698 20.376 469.569 21.0389 473.431 21.0675C484.121 21.1343 494.58 20.7385 505.241 20.5382C508.556 20.4762 511.394 20.9483 514.672 20.6288C518.166 20.2854 521.188 19.9754 524.725 19.8181C533.377 19.4318 542.011 18.9644 550.65 18.3969L546.726 12.7313V12.7266Z" fill="url(#paint28_radial_189_37445)"/>
<path style="mix-blend-mode:screen" fill-rule="evenodd" clip-rule="evenodd" d="M558.444 7.39062C555.365 10.171 552.998 13.3376 551.815 17.1575C551.701 17.5247 551.673 17.892 551.73 18.2496C551.895 19.275 554.658 22.7611 555.403 23.8008C554.366 22.8184 551.536 19.8139 550.381 19.3847C549.99 19.2368 549.57 19.1748 549.122 19.1987C538.81 19.6708 529.356 19.7519 518.883 20.2288C526.258 19.275 548.754 18.4499 550.009 17.6249C550.391 17.3721 550.707 17.0145 550.923 16.5662C552.607 13.1087 554.946 9.97065 558.449 7.40016L558.444 7.39062Z" fill="url(#paint29_radial_189_37445)"/>
</g>
</g>
<defs>
<radialGradient id="paint0_radial_189_37445" cx="0" cy="0" r="1" gradientUnits="userSpaceOnUse" gradientTransform="translate(108.164 -29.6601) scale(157.652 159.447)">
<stop stop-color="#313D50"/>
<stop offset="1" stop-color="#192033"/>
</radialGradient>
<radialGradient id="paint1_radial_189_37445" cx="0" cy="0" r="1" gradientUnits="userSpaceOnUse" gradientTransform="translate(26.8695 27.5955) scale(40.9102 41.3759)">
<stop stop-color="#3A4763"/>
<stop offset="1" stop-color="#232C47"/>
</radialGradient>
<radialGradient id="paint2_radial_189_37445" cx="0" cy="0" r="1" gradientUnits="userSpaceOnUse" gradientTransform="translate(-56.4485 -140.293) scale(200.067 202.344)">
<stop stop-color="#677A9E"/>
<stop offset="1" stop-color="#39456F"/>
</radialGradient>
<radialGradient id="paint3_radial_189_37445" cx="0" cy="0" r="1" gradientUnits="userSpaceOnUse" gradientTransform="translate(167.964 -17.4231) scale(206.362 208.711)">
<stop stop-color="#607099"/>
<stop offset="1" stop-color="#495586"/>
</radialGradient>
<radialGradient id="paint4_radial_189_37445" cx="0" cy="0" r="1" gradientUnits="userSpaceOnUse" gradientTransform="translate(34.7302 10.964) scale(29.848 30.1878)">
<stop stop-color="#434F73"/>
<stop offset="1" stop-color="#323C59"/>
</radialGradient>
<radialGradient id="paint5_radial_189_37445" cx="0" cy="0" r="1" gradientUnits="userSpaceOnUse" gradientTransform="translate(-81.3688 -114.11) scale(259.867 262.825)">
<stop stop-color="#344156"/>
<stop offset="1" stop-color="#19202F"/>
</radialGradient>
<radialGradient id="paint6_radial_189_37445" cx="0" cy="0" r="1" gradientUnits="userSpaceOnUse" gradientTransform="translate(553.863 -34.1083) scale(102.509 118.529)">
<stop stop-color="#506283"/>
<stop offset="1" stop-color="#39456F"/>
</radialGradient>
<radialGradient id="paint7_radial_189_37445" cx="0" cy="0" r="1" gradientUnits="userSpaceOnUse" gradientTransform="translate(50.1278 18.1395) scale(89.316 103.274)">
<stop stop-color="#434F73"/>
<stop offset="1" stop-color="#323C59"/>
</radialGradient>
<radialGradient id="paint8_radial_189_37445" cx="0" cy="0" r="1" gradientUnits="userSpaceOnUse" gradientTransform="translate(29.5158 32.965) scale(151.23 174.864)">
<stop stop-color="#20377D"/>
<stop offset="0.21" stop-color="#152554"/>
<stop offset="0.44" stop-color="#0C152F"/>
<stop offset="0.66" stop-color="#050915"/>
<stop offset="0.85" stop-color="#010205"/>
<stop offset="1"/>
</radialGradient>
<radialGradient id="paint9_radial_189_37445" cx="0" cy="0" r="1" gradientUnits="userSpaceOnUse" gradientTransform="translate(553.499 39.9805) scale(128.57 148.662)">
<stop stop-color="#20377D"/>
<stop offset="0.21" stop-color="#152554"/>
<stop offset="0.44" stop-color="#0C152F"/>
<stop offset="0.66" stop-color="#050915"/>
<stop offset="0.85" stop-color="#010205"/>
<stop offset="1"/>
</radialGradient>
<radialGradient id="paint10_radial_189_37445" cx="0" cy="0" r="1" gradientUnits="userSpaceOnUse" gradientTransform="translate(269.866 -29.6601) scale(471.752 159.447)">
<stop stop-color="#313D50"/>
<stop offset="1" stop-color="#192033"/>
</radialGradient>
<radialGradient id="paint11_radial_189_37445" cx="0" cy="0" r="1" gradientUnits="userSpaceOnUse" gradientTransform="translate(553.863 -4.30943) scale(102.509 34.6468)">
<stop stop-color="#506283"/>
<stop offset="1" stop-color="#39456F"/>
</radialGradient>
<radialGradient id="paint12_radial_189_37445" cx="0" cy="0" r="1" gradientUnits="userSpaceOnUse" gradientTransform="translate(448.807 -17.4231) scale(617.508 208.711)">
<stop stop-color="#607099"/>
<stop offset="1" stop-color="#495586"/>
</radialGradient>
<radialGradient id="paint13_radial_189_37445" cx="0" cy="0" r="1" gradientUnits="userSpaceOnUse" gradientTransform="translate(50.1278 10.964) scale(89.316 30.1878)">
<stop stop-color="#434F73"/>
<stop offset="1" stop-color="#323C59"/>
</radialGradient>
<radialGradient id="paint14_radial_189_37445" cx="0" cy="0" r="1" gradientUnits="userSpaceOnUse" gradientTransform="translate(29.5158 15.3024) scale(151.23 51.1142)">
<stop stop-color="#20377D"/>
<stop offset="0.21" stop-color="#152554"/>
<stop offset="0.44" stop-color="#0C152F"/>
<stop offset="0.66" stop-color="#050915"/>
<stop offset="0.85" stop-color="#010205"/>
<stop offset="1"/>
</radialGradient>
<radialGradient id="paint15_radial_189_37445" cx="0" cy="0" r="1" gradientUnits="userSpaceOnUse" gradientTransform="translate(553.499 17.3531) scale(128.57 43.4552)">
<stop stop-color="#20377D"/>
<stop offset="0.21" stop-color="#152554"/>
<stop offset="0.44" stop-color="#0C152F"/>
<stop offset="0.66" stop-color="#050915"/>
<stop offset="0.85" stop-color="#010205"/>
<stop offset="1"/>
</radialGradient>
<radialGradient id="paint16_radial_189_37445" cx="0" cy="0" r="1" gradientUnits="userSpaceOnUse" gradientTransform="translate(89.558 23.4097) scale(60.0942 20.3112)">
<stop stop-color="#475979"/>
<stop offset="0.34" stop-color="#3F4F70"/>
<stop offset="0.89" stop-color="#2A3758"/>
<stop offset="1" stop-color="#263153"/>
</radialGradient>
<radialGradient id="paint17_radial_189_37445" cx="0" cy="0" r="1" gradientUnits="userSpaceOnUse" gradientTransform="translate(92.2485 29.6142) scale(62.7046 21.1935)">
<stop offset="0.33" stop-color="#F7F7EA"/>
<stop offset="0.44" stop-color="#EBECE2"/>
<stop offset="0.63" stop-color="#CDD1CF"/>
<stop offset="0.88" stop-color="#9DA5B1"/>
<stop offset="1" stop-color="#858FA2"/>
</radialGradient>
<radialGradient id="paint18_radial_189_37445" cx="0" cy="0" r="1" gradientUnits="userSpaceOnUse" gradientTransform="translate(109.647 23.065) scale(53.2509 17.9982)">
<stop stop-color="#232536"/>
<stop offset="1"/>
</radialGradient>
<radialGradient id="paint19_radial_189_37445" cx="0" cy="0" r="1" gradientUnits="userSpaceOnUse" gradientTransform="translate(330.895 20.405) scale(114.897 38.834)">
<stop stop-color="#20377D"/>
<stop offset="0.21" stop-color="#152554"/>
<stop offset="0.44" stop-color="#0C152F"/>
<stop offset="0.66" stop-color="#050915"/>
<stop offset="0.85" stop-color="#010205"/>
<stop offset="1"/>
</radialGradient>
<radialGradient id="paint20_radial_189_37445" cx="0" cy="0" r="1" gradientUnits="userSpaceOnUse" gradientTransform="translate(355.722 26.5406) scale(43.896 14.8364)">
<stop stop-color="#475979"/>
<stop offset="0.34" stop-color="#3F4F70"/>
<stop offset="0.89" stop-color="#2A3758"/>
<stop offset="1" stop-color="#263153"/>
</radialGradient>
<radialGradient id="paint21_radial_189_37445" cx="0" cy="0" r="1" gradientUnits="userSpaceOnUse" gradientTransform="translate(356.597 27.9808) scale(46.5205 15.7235)">
<stop offset="0.33" stop-color="#F7F7EA"/>
<stop offset="0.44" stop-color="#EBECE2"/>
<stop offset="0.63" stop-color="#CDD1CF"/>
<stop offset="0.88" stop-color="#9DA5B1"/>
<stop offset="1" stop-color="#858FA2"/>
</radialGradient>
<radialGradient id="paint22_radial_189_37445" cx="0" cy="0" r="1" gradientUnits="userSpaceOnUse" gradientTransform="translate(372.148 26.7776) scale(70.1547 23.7114)">
<stop stop-color="#232536"/>
<stop offset="1"/>
</radialGradient>
<radialGradient id="paint23_radial_189_37445" cx="0" cy="0" r="1" gradientUnits="userSpaceOnUse" gradientTransform="translate(440.212 -110.094) scale(244.07 246.848)">
<stop stop-color="#344156"/>
<stop offset="1" stop-color="#19202F"/>
</radialGradient>
<radialGradient id="paint24_radial_189_37445" cx="0" cy="0" r="1" gradientUnits="userSpaceOnUse" gradientTransform="translate(549.182 31.4966) scale(37.4774 37.904)">
<stop stop-color="#303B54"/>
<stop offset="1" stop-color="#181D2A"/>
</radialGradient>
<radialGradient id="paint25_radial_189_37445" cx="0" cy="0" r="1" gradientUnits="userSpaceOnUse" gradientTransform="translate(455.164 -29.6601) scale(157.652 159.447)">
<stop stop-color="#313D50"/>
<stop offset="1" stop-color="#192033"/>
</radialGradient>
<radialGradient id="paint26_radial_189_37445" cx="0" cy="0" r="1" gradientUnits="userSpaceOnUse" gradientTransform="translate(511.22 -119.175) scale(219.182 221.678)">
<stop stop-color="#677A9E"/>
<stop offset="1" stop-color="#39456F"/>
</radialGradient>
<radialGradient id="paint27_radial_189_37445" cx="0" cy="0" r="1" gradientUnits="userSpaceOnUse" gradientTransform="translate(550.07 -4.30943) scale(34.2568 34.6468)">
<stop stop-color="#506283"/>
<stop offset="1" stop-color="#39456F"/>
</radialGradient>
<radialGradient id="paint28_radial_189_37445" cx="0" cy="0" r="1" gradientUnits="userSpaceOnUse" gradientTransform="translate(514.964 -17.4231) scale(206.362 208.711)">
<stop stop-color="#607099"/>
<stop offset="1" stop-color="#495586"/>
</radialGradient>
<radialGradient id="paint29_radial_189_37445" cx="0" cy="0" r="1" gradientUnits="userSpaceOnUse" gradientTransform="translate(549.947 17.3531) scale(42.9661 43.4552)">
<stop stop-color="#20377D"/>
<stop offset="0.21" stop-color="#152554"/>
<stop offset="0.44" stop-color="#0C152F"/>
<stop offset="0.66" stop-color="#050915"/>
<stop offset="0.85" stop-color="#010205"/>
<stop offset="1"/>
</radialGradient>
<clipPath id="clip0_189_37445">
<rect width="576" height="30" fill="white"/>
</clipPath>
<clipPath id="clip1_189_37445">
<rect width="27" height="42" fill="white" transform="translate(0 -12)"/>
</clipPath>
<clipPath id="clip2_189_37445">
<rect width="522" height="715" fill="white" transform="translate(27 -707)"/>
</clipPath>
<clipPath id="clip3_189_37445">
<rect width="522" height="22" fill="white" transform="translate(27 8)"/>
</clipPath>
<clipPath id="clip4_189_37445">
<rect width="27" height="42" fill="white" transform="translate(549 -12)"/>
</clipPath>
</defs>
</svg>
