<svg width="27" height="759" viewBox="0 0 27 759" fill="none" xmlns="http://www.w3.org/2000/svg">
<g clip-path="url(#clip0_186_36796)">
<path fill-rule="evenodd" clip-rule="evenodd" d="M-179.36 11.734C-148.875 9.70715 -118.197 8.92026 -87.6703 8.92026C-57.1433 8.92026 -26.4654 9.70715 4.02394 11.734L11.3516 3.35484C-17.478 1.26125 -51.3812 0.0546875 -87.6656 0.0546875C-123.95 0.0546875 -157.858 1.26125 -186.688 3.35484L-179.36 11.734Z" fill="url(#paint0_radial_186_36796)"/>
<path fill-rule="evenodd" clip-rule="evenodd" d="M4.02734 11.7337C6.4133 18.4533 11.5907 23.8422 18.1497 26.4604L26.9863 19.3165C18.3478 19.2306 11.3597 12.0962 11.3597 3.35938L4.03205 11.7385L4.02734 11.7337Z" fill="url(#paint1_radial_186_36796)"/>
<path fill-rule="evenodd" clip-rule="evenodd" d="M18.0685 35.042C18.0402 38.0703 18.0119 41.1034 17.9836 44.1317C17.9082 52.0578 17.5828 60.5752 18.0685 68.4346C18.2571 71.4963 17.7714 73.9761 17.696 77.0331C17.4602 86.3565 17.4979 95.8945 17.4084 105.242C17.3612 110.292 17.314 115.342 17.2622 120.393C17.2009 126.984 16.984 133.923 17.1066 140.475C17.149 142.807 17.6111 145.168 17.3989 147.371C16.7435 154.086 16.9038 159.713 17.2339 166.404C17.3706 169.208 16.8614 171.66 16.7765 174.497C16.5643 181.627 16.6162 189 16.5455 196.153C16.5124 199.52 16.4794 202.887 16.4511 206.254C16.3898 212.988 16.3238 219.722 16.2578 226.455L24.9529 233.819C25.0189 226.928 25.0849 220.036 25.1462 213.145C25.1651 211.099 25.1839 209.049 25.2028 207.007C25.2641 200.545 25.3254 194.083 25.3867 187.621C25.4103 185.103 25.5564 181.956 25.3914 179.505C25.2924 177.974 24.637 175.36 24.967 174.068C25.3254 172.666 25.4669 171.96 25.5282 170.491C25.6555 167.458 25.6083 164.191 25.6366 161.134C25.6979 154.782 25.7592 148.43 25.8158 142.073C25.8959 133.46 25.9761 124.847 26.061 116.234C26.0798 114.079 26.0987 111.923 26.1223 109.772C26.1459 107.407 26.4005 101.946 25.8158 99.9386C25.4857 98.7893 25.0048 98.5556 25.283 97.3586C25.7451 95.3937 26.1364 94.4972 26.2496 92.3654C26.3958 89.504 26.3816 86.4614 26.3345 83.5857C26.2826 80.5144 25.6366 77.7007 25.7545 74.7487C25.9478 69.9177 26.4995 65.2679 26.5797 60.3511C26.806 46.7022 26.8437 32.9866 26.9758 19.3281L18.1392 26.4721L18.1298 27.4831C18.1062 30.0059 18.0826 32.5335 18.0591 35.0563L18.0685 35.042Z" fill="url(#paint2_radial_186_36796)"/>
<path fill-rule="evenodd" clip-rule="evenodd" d="M-175.433 17.4012C-146.217 15.5508 -116.935 14.8307 -87.662 14.8307C-58.3892 14.8307 -29.1071 15.5556 0.109112 17.4012L4.03227 11.7356C-26.4523 9.70876 -57.1303 8.92188 -87.662 8.92188C-118.194 8.92188 -148.867 9.70876 -179.352 11.7356L-175.433 17.4012Z" fill="url(#paint3_radial_186_36796)"/>
<path fill-rule="evenodd" clip-rule="evenodd" d="M0.105469 17.3969C2.83564 22.7525 7.07472 27.202 12.271 30.154L18.151 26.4532C11.5967 23.8398 6.4193 18.4461 4.02863 11.7266L0.105469 17.3921V17.3969Z" fill="url(#paint4_radial_186_36796)"/>
<path fill-rule="evenodd" clip-rule="evenodd" d="M12.2732 30.1586L10.4531 222.636L16.2624 226.451C16.3284 219.717 16.3897 212.983 16.4557 206.249C16.4888 202.887 16.5217 199.515 16.55 196.149C16.6161 188.995 16.5689 181.622 16.7811 174.493C16.866 171.655 17.3752 169.204 17.2385 166.4C16.9037 159.709 16.7481 154.081 17.4035 147.366C17.6157 145.168 17.1583 142.802 17.1112 140.47C16.9886 133.918 17.2008 126.979 17.2668 120.388C17.3186 115.338 17.3658 110.287 17.413 105.237C17.5025 95.8898 17.4648 86.3566 17.7006 77.0284C17.7807 73.9762 18.2617 71.4916 18.0731 68.4299C17.5874 60.5706 17.9128 52.0579 17.9882 44.1271C18.0165 41.094 18.0448 38.0656 18.0731 35.0373C18.0967 32.5098 18.1202 29.987 18.1438 27.4642L18.1533 26.4531L12.2732 30.1539V30.1586Z" fill="url(#paint5_radial_186_36796)"/>
<path style="mix-blend-mode:screen" fill-rule="evenodd" clip-rule="evenodd" d="M7.04688 17.6094C10.1448 21.2434 12.7571 23.2845 16.9066 24.9775C17.2744 25.1253 17.6517 25.1826 18.0147 25.1444C19.1228 25.0347 24.6398 21.0335 25.9459 20.1608C24.7246 21.3149 19.7405 25.669 19.2266 26.804C19.0757 27.1378 18.9908 27.5003 18.9767 27.8961L17.845 62.7098L17.2744 28.5542C17.2603 27.6195 16.7746 26.8326 15.9683 26.3843C11.9272 24.1524 9.28195 21.2386 7.05159 17.6189L7.04688 17.6094Z" fill="url(#paint6_radial_186_36796)"/>
</g>
<g clip-path="url(#clip1_186_36796)">
<path fill-rule="evenodd" clip-rule="evenodd" d="M18.0685 14.2078C18.0402 26.3032 18.0119 38.4175 17.9836 50.5129C17.9082 82.1703 17.5828 116.19 18.0685 147.58C18.2571 159.809 17.7714 169.714 17.696 181.924C17.4602 219.162 17.4979 257.258 17.4084 294.591C17.3612 314.763 17.314 334.935 17.2622 355.106C17.2009 381.43 16.984 409.145 17.1066 435.316C17.149 444.631 17.6111 454.059 17.3989 462.86C16.7435 489.679 16.9038 512.155 17.2339 538.879C17.3706 550.079 16.8614 559.87 16.7765 571.203C16.5643 599.68 16.6162 629.128 16.5455 657.699C16.5124 671.147 16.4794 684.595 16.4511 698.043C16.3898 724.938 16.3238 751.834 16.2578 778.729L24.9529 808.139C25.0189 780.615 25.0849 753.091 25.1462 725.567C25.1651 717.395 25.1839 709.205 25.2028 701.052C25.2641 675.242 25.3254 649.433 25.3867 623.623C25.4103 613.566 25.5564 600.994 25.3914 591.204C25.2924 585.089 24.637 574.651 24.967 569.489C25.3254 563.889 25.4669 561.07 25.5282 555.203C25.6555 543.089 25.6083 530.041 25.6366 517.831C25.6979 492.46 25.7592 467.088 25.8158 441.697C25.8959 407.297 25.9761 372.897 26.061 338.496C26.0798 329.887 26.0987 321.277 26.1223 312.687C26.1459 303.239 26.4005 281.429 25.8158 273.41C25.4857 268.82 25.0048 267.886 25.283 263.105C25.7451 255.258 26.1364 251.677 26.2496 243.162C26.3958 231.734 26.3816 219.581 26.3345 208.095C26.2826 195.829 25.6366 184.59 25.7545 172.8C25.9478 153.504 26.4995 134.933 26.5797 115.294C26.806 60.7797 26.8437 5.99819 26.9758 -48.5547L18.1392 -20.0211L18.1298 -15.983C18.1062 -5.90667 18.0826 4.18866 18.0591 14.2649L18.0685 14.2078Z" fill="url(#paint7_radial_186_36796)"/>
<path fill-rule="evenodd" clip-rule="evenodd" d="M12.2732 -5.30924L10.4531 763.46L16.2624 778.698C16.3284 751.803 16.3897 724.907 16.4557 698.012C16.4888 684.583 16.5217 671.116 16.55 657.668C16.6161 629.097 16.5689 599.649 16.7811 571.172C16.866 559.839 17.3752 550.048 17.2385 538.848C16.9037 512.124 16.7481 489.648 17.4035 462.828C17.6157 454.047 17.1583 444.6 17.1112 435.285C16.9886 409.114 17.2008 381.399 17.2668 355.075C17.3186 334.903 17.3658 314.732 17.413 294.56C17.5025 257.227 17.4648 219.15 17.7006 181.892C17.7807 169.702 18.2617 159.778 18.0731 147.549C17.5874 116.159 17.9128 82.1582 17.9882 50.4818C18.0165 38.3674 18.0448 26.272 18.0731 14.1767C18.0967 4.08132 18.1202 -5.99495 18.1438 -16.0712L18.1533 -20.1094L12.2732 -5.32828V-5.30924Z" fill="url(#paint8_radial_186_36796)"/>
<path style="mix-blend-mode:screen" fill-rule="evenodd" clip-rule="evenodd" d="M7.04688 -55.4375C10.1448 -40.9231 12.7571 -32.7706 16.9066 -26.0087C17.2744 -25.4182 17.6517 -25.1896 18.0147 -25.342C19.1228 -25.7801 24.6398 -41.7612 25.9459 -45.2469C24.7246 -40.6374 19.7405 -23.2467 19.2266 -18.7133C19.0757 -17.38 18.9908 -15.9324 18.9767 -14.3514L17.845 124.697L17.2744 -11.7228C17.2603 -15.4562 16.7746 -18.5991 15.9683 -20.3896C11.9272 -29.3039 9.28195 -40.9421 7.05159 -55.3994L7.04688 -55.4375Z" fill="url(#paint9_radial_186_36796)"/>
</g>
<g clip-path="url(#clip2_186_36796)">
<path fill-rule="evenodd" clip-rule="evenodd" d="M18.0685 541.042C18.0402 544.07 18.0119 547.103 17.9836 550.132C17.9082 558.058 17.5828 566.575 18.0685 574.435C18.2571 577.496 17.7714 579.976 17.696 583.033C17.4602 592.356 17.4979 601.894 17.4084 611.242C17.3612 616.292 17.314 621.342 17.2622 626.393C17.2009 632.984 16.984 639.923 17.1066 646.475C17.149 648.807 17.6111 651.168 17.3989 653.371C16.7435 660.086 16.9038 665.713 17.2339 672.404C17.3706 675.208 16.8614 677.66 16.7765 680.497C16.5643 687.627 16.6162 695 16.5455 702.153C16.5124 705.52 16.4794 708.887 16.4511 712.254C16.3898 718.988 16.3238 725.722 16.2578 732.455L24.9529 739.819C25.0189 732.928 25.0849 726.036 25.1462 719.145C25.1651 717.099 25.1839 715.049 25.2028 713.007C25.2641 706.545 25.3254 700.083 25.3867 693.621C25.4103 691.103 25.5564 687.956 25.3914 685.505C25.2924 683.974 24.637 681.36 24.967 680.068C25.3254 678.666 25.4669 677.96 25.5282 676.491C25.6555 673.458 25.6083 670.191 25.6366 667.134C25.6979 660.782 25.7592 654.43 25.8158 648.073C25.8959 639.46 25.9761 630.847 26.061 622.234C26.0798 620.079 26.0987 617.923 26.1223 615.772C26.1459 613.407 26.4005 607.946 25.8158 605.939C25.4857 604.789 25.0048 604.556 25.283 603.359C25.7451 601.394 26.1364 600.497 26.2496 598.365C26.3958 595.504 26.3816 592.461 26.3345 589.586C26.2826 586.514 25.6366 583.701 25.7545 580.749C25.9478 575.918 26.4995 571.268 26.5797 566.351C26.806 552.702 26.8437 538.987 26.9758 525.328L18.1392 532.472L18.1298 533.483C18.1062 536.006 18.0826 538.533 18.0591 541.056L18.0685 541.042Z" fill="url(#paint10_radial_186_36796)"/>
<path fill-rule="evenodd" clip-rule="evenodd" d="M16.2565 732.45C13.0407 733.652 10.103 735.559 7.52845 738.135C4.82657 740.839 2.85556 743.962 1.64844 747.396L9.02322 755.771C9.02322 751.35 10.5934 747.544 13.6961 744.43C16.8035 741.316 20.5805 739.771 24.9516 739.809L16.2565 732.445V732.45Z" fill="url(#paint11_radial_186_36796)"/>
<path fill-rule="evenodd" clip-rule="evenodd" d="M1.64926 747.388C-6.99394 747.96 -15.6277 748.427 -24.2756 748.809C-27.8121 748.966 -30.8346 749.281 -34.3287 749.619C-37.6058 749.939 -40.4445 749.472 -43.7593 749.529C-54.416 749.724 -64.8793 750.125 -75.5689 750.058C-79.4261 750.034 -83.3021 749.371 -87.0649 749.615C-90.4269 749.834 -93.1901 750.101 -96.637 750.092C-123.288 750.039 -150.382 749.143 -176.977 747.383L-184.352 755.757L-183.998 755.781C-171.224 756.706 -158.431 757.383 -145.634 757.884C-134.463 758.323 -122.967 758.733 -111.802 758.79C-107.162 758.814 -101.692 758.018 -97.2359 758.557C-93.7418 758.981 -91.172 758.986 -87.6638 758.986C-73.7205 758.986 -59.782 758.805 -45.8388 758.423C-43.4198 758.361 -40.1333 758.385 -37.8086 758.084C-35.9319 757.841 -35.7763 757.336 -33.711 757.56C-31.5891 757.789 -30.3065 757.903 -28.161 757.827C-15.8116 757.388 -3.30182 756.659 9.02876 755.762L1.65398 747.388H1.64926Z" fill="url(#paint12_radial_186_36796)"/>
<path fill-rule="evenodd" clip-rule="evenodd" d="M12.2732 536.159L10.4531 728.636L16.2624 732.451C16.3284 725.717 16.3897 718.983 16.4557 712.249C16.4888 708.887 16.5217 705.515 16.55 702.149C16.6161 694.995 16.5689 687.622 16.7811 680.493C16.866 677.655 17.3752 675.204 17.2385 672.4C16.9037 665.709 16.7481 660.081 17.4035 653.366C17.6157 651.168 17.1583 648.802 17.1112 646.47C16.9886 639.918 17.2008 632.979 17.2668 626.388C17.3186 621.338 17.3658 616.287 17.413 611.237C17.5025 601.89 17.4648 592.357 17.7006 583.028C17.7807 579.976 18.2617 577.492 18.0731 574.43C17.5874 566.571 17.9128 558.058 17.9882 550.127C18.0165 547.094 18.0448 544.066 18.0731 541.037C18.0967 538.51 18.1202 535.987 18.1438 533.464L18.1533 532.453L12.2732 536.154V536.159Z" fill="url(#paint13_radial_186_36796)"/>
<path fill-rule="evenodd" clip-rule="evenodd" d="M3.41795 733.928C1.12159 736.232 -0.802255 738.845 -2.27344 741.721L1.6497 747.386C2.85683 743.957 4.82784 740.834 7.52972 738.125C10.0996 735.55 13.0419 733.642 16.2578 732.44L10.4485 728.625C7.87394 730.032 5.51627 731.82 3.41795 733.923V733.928Z" fill="url(#paint14_radial_186_36796)"/>
<path fill-rule="evenodd" clip-rule="evenodd" d="M-2.27364 741.727C-30.6976 743.52 -59.1877 744.216 -87.6635 744.216C-116.139 744.216 -144.629 743.52 -173.053 741.727L-176.977 747.392C-150.382 749.152 -123.288 750.053 -96.6368 750.101C-93.1852 750.106 -90.422 749.843 -87.0647 749.624C-83.3018 749.376 -79.4306 750.039 -75.5687 750.068C-64.8791 750.134 -54.4205 749.738 -43.7591 749.538C-40.4442 749.476 -37.6056 749.948 -34.3284 749.629C-30.8344 749.285 -27.8119 748.975 -24.2754 748.818C-15.6227 748.432 -6.98898 747.964 1.6495 747.397L-2.27364 741.731V741.727Z" fill="url(#paint15_radial_186_36796)"/>
<path style="mix-blend-mode:screen" fill-rule="evenodd" clip-rule="evenodd" d="M9.44442 736.391C6.36531 739.171 3.99821 742.338 2.81467 746.158C2.7015 746.525 2.67321 746.892 2.72979 747.25C2.89483 748.275 5.65802 751.761 6.40304 752.801C5.36567 751.818 2.53647 748.814 1.38122 748.385C0.989843 748.237 0.570173 748.175 0.122217 748.199C-10.1902 748.671 -19.6444 748.752 -30.1172 749.229C-22.7424 748.275 -0.245577 747.45 1.0087 746.625C1.39064 746.372 1.70657 746.014 1.92348 745.566C3.60685 742.109 5.94565 738.971 9.44914 736.4L9.44442 736.391Z" fill="url(#paint16_radial_186_36796)"/>
</g>
<defs>
<radialGradient id="paint0_radial_186_36796" cx="0" cy="0" r="1" gradientUnits="userSpaceOnUse" gradientTransform="translate(-87.6656 -56.2959) scale(116.761 118.09)">
<stop offset="0.72" stop-color="#262E44"/>
<stop offset="0.76" stop-color="#313A51"/>
<stop offset="0.85" stop-color="#46536B"/>
<stop offset="0.94" stop-color="#53627B"/>
<stop offset="1" stop-color="#586881"/>
</radialGradient>
<radialGradient id="paint1_radial_186_36796" cx="0" cy="0" r="1" gradientUnits="userSpaceOnUse" gradientTransform="translate(21.2524 26.5415) scale(46.3234 46.8507)">
<stop stop-color="#435371"/>
<stop offset="1" stop-color="#28304F"/>
</radialGradient>
<radialGradient id="paint2_radial_186_36796" cx="0" cy="0" r="1" gradientUnits="userSpaceOnUse" gradientTransform="translate(-108.788 112.906) scale(244.07 246.848)">
<stop stop-color="#344156"/>
<stop offset="1" stop-color="#19202F"/>
</radialGradient>
<radialGradient id="paint3_radial_186_36796" cx="0" cy="0" r="1" gradientUnits="userSpaceOnUse" gradientTransform="translate(-86.337 14.5016) scale(149.891 151.597)">
<stop stop-color="#38465E"/>
<stop offset="1" stop-color="#1F263F"/>
</radialGradient>
<radialGradient id="paint4_radial_186_36796" cx="0" cy="0" r="1" gradientUnits="userSpaceOnUse" gradientTransform="translate(36.9039 37.7224) scale(53.9763 54.5908)">
<stop stop-color="#4D5F7E"/>
<stop offset="1" stop-color="#2C3751"/>
</radialGradient>
<radialGradient id="paint5_radial_186_36796" cx="0" cy="0" r="1" gradientUnits="userSpaceOnUse" gradientTransform="translate(-37.7799 103.825) scale(219.182 221.678)">
<stop stop-color="#677A9E"/>
<stop offset="1" stop-color="#39456F"/>
</radialGradient>
<radialGradient id="paint6_radial_186_36796" cx="0" cy="0" r="1" gradientUnits="userSpaceOnUse" gradientTransform="translate(17.265 26.4988) scale(43.928 44.428)">
<stop stop-color="#20377D"/>
<stop offset="0.21" stop-color="#152554"/>
<stop offset="0.44" stop-color="#0C152F"/>
<stop offset="0.66" stop-color="#050915"/>
<stop offset="0.85" stop-color="#010205"/>
<stop offset="1"/>
</radialGradient>
<radialGradient id="paint7_radial_186_36796" cx="0" cy="0" r="1" gradientUnits="userSpaceOnUse" gradientTransform="translate(-108.788 325.201) scale(244.07 985.933)">
<stop stop-color="#344156"/>
<stop offset="1" stop-color="#19202F"/>
</radialGradient>
<radialGradient id="paint8_radial_186_36796" cx="0" cy="0" r="1" gradientUnits="userSpaceOnUse" gradientTransform="translate(-37.7799 288.922) scale(219.182 885.399)">
<stop stop-color="#677A9E"/>
<stop offset="1" stop-color="#39456F"/>
</radialGradient>
<radialGradient id="paint9_radial_186_36796" cx="0" cy="0" r="1" gradientUnits="userSpaceOnUse" gradientTransform="translate(17.265 -19.9324) scale(43.928 177.449)">
<stop stop-color="#20377D"/>
<stop offset="0.21" stop-color="#152554"/>
<stop offset="0.44" stop-color="#0C152F"/>
<stop offset="0.66" stop-color="#050915"/>
<stop offset="0.85" stop-color="#010205"/>
<stop offset="1"/>
</radialGradient>
<radialGradient id="paint10_radial_186_36796" cx="0" cy="0" r="1" gradientUnits="userSpaceOnUse" gradientTransform="translate(-108.788 618.906) scale(244.07 246.848)">
<stop stop-color="#344156"/>
<stop offset="1" stop-color="#19202F"/>
</radialGradient>
<radialGradient id="paint11_radial_186_36796" cx="0" cy="0" r="1" gradientUnits="userSpaceOnUse" gradientTransform="translate(0.181969 760.497) scale(37.4774 37.904)">
<stop stop-color="#303B54"/>
<stop offset="1" stop-color="#181D2A"/>
</radialGradient>
<radialGradient id="paint12_radial_186_36796" cx="0" cy="0" r="1" gradientUnits="userSpaceOnUse" gradientTransform="translate(-93.8361 699.34) scale(157.652 159.447)">
<stop stop-color="#313D50"/>
<stop offset="1" stop-color="#192033"/>
</radialGradient>
<radialGradient id="paint13_radial_186_36796" cx="0" cy="0" r="1" gradientUnits="userSpaceOnUse" gradientTransform="translate(-37.7799 609.825) scale(219.182 221.678)">
<stop stop-color="#677A9E"/>
<stop offset="1" stop-color="#39456F"/>
</radialGradient>
<radialGradient id="paint14_radial_186_36796" cx="0" cy="0" r="1" gradientUnits="userSpaceOnUse" gradientTransform="translate(1.06973 724.691) scale(34.2568 34.6468)">
<stop stop-color="#506283"/>
<stop offset="1" stop-color="#39456F"/>
</radialGradient>
<radialGradient id="paint15_radial_186_36796" cx="0" cy="0" r="1" gradientUnits="userSpaceOnUse" gradientTransform="translate(-34.0361 711.577) scale(206.362 208.711)">
<stop stop-color="#607099"/>
<stop offset="1" stop-color="#495586"/>
</radialGradient>
<radialGradient id="paint16_radial_186_36796" cx="0" cy="0" r="1" gradientUnits="userSpaceOnUse" gradientTransform="translate(0.947397 746.353) scale(42.9661 43.4552)">
<stop stop-color="#20377D"/>
<stop offset="0.21" stop-color="#152554"/>
<stop offset="0.44" stop-color="#0C152F"/>
<stop offset="0.66" stop-color="#050915"/>
<stop offset="0.85" stop-color="#010205"/>
<stop offset="1"/>
</radialGradient>
<clipPath id="clip0_186_36796">
<rect width="27" height="42" fill="white"/>
</clipPath>
<clipPath id="clip1_186_36796">
<rect width="27" height="675" fill="white" transform="translate(0 42)"/>
</clipPath>
<clipPath id="clip2_186_36796">
<rect width="27" height="42" fill="white" transform="translate(0 717)"/>
</clipPath>
</defs>
</svg>
