<svg width="27" height="759" viewBox="0 0 27 759" fill="none" xmlns="http://www.w3.org/2000/svg">
<g clip-path="url(#clip0_186_36590)">
<path fill-rule="evenodd" clip-rule="evenodd" d="M8.52322 26.4574C15.0775 23.844 20.255 18.4502 22.6456 11.7307L15.318 3.35156C15.318 12.0884 8.32989 19.2276 -0.308594 19.3086L8.52793 26.4526L8.52322 26.4574Z" fill="url(#paint0_radial_186_36590)"/>
<path fill-rule="evenodd" clip-rule="evenodd" d="M22.6401 11.734C53.1247 9.70715 83.8026 8.92026 114.33 8.92026C144.857 8.92026 175.535 9.70715 206.024 11.734L213.352 3.35484C184.522 1.26125 150.619 0.0546875 114.334 0.0546875C78.0499 0.0546875 44.142 1.26125 15.3125 3.35484L22.6401 11.734Z" fill="url(#paint1_radial_186_36590)"/>
<path fill-rule="evenodd" clip-rule="evenodd" d="M10.4149 226.445C10.3724 221.733 10.3253 217.016 10.2828 212.305C10.2498 208.938 10.2168 205.571 10.1838 202.204C10.1555 199.004 10.1225 195.809 10.0942 192.609C10.0094 183.624 10.0329 174.629 9.83489 165.645C9.78302 163.184 9.17946 160.494 9.23604 158.286C9.3162 154.972 9.64156 151.648 9.66514 148.262C9.74058 136.501 9.45295 124.588 9.33978 112.814C9.30677 109.447 9.27848 106.08 9.24547 102.713C9.1606 93.9999 8.93426 85.0389 9.02857 76.3498C9.09458 71.9623 9.5001 67.6511 9.54725 63.2064C9.57554 60.4261 8.99084 58.59 8.83995 55.9671C8.48159 49.7626 8.67492 42.8332 8.61833 36.5524C8.58533 33.1855 8.55703 29.8186 8.52403 26.4517L-0.3125 19.3125C-0.204047 30.8773 -0.0955949 42.4422 0.017573 54.007C0.0552956 58.0273 -0.0861642 63.0872 0.357077 66.9835C0.569266 68.872 1.46518 72.6633 0.988931 74.3373C0.234478 76.9936 0.253339 78.0762 0.272201 80.8326C0.479675 111.192 0.823894 141.552 1.13039 171.911C1.15868 174.882 1.02194 179.58 1.44632 182.369C1.59249 183.323 2.16776 184.83 2.09232 185.598C1.9037 187.534 1.48404 188.994 1.3803 191.125C1.21527 194.745 1.38973 198.98 1.42274 202.662C1.52176 213.044 1.62078 223.426 1.71981 233.813L10.4149 226.449V226.445Z" fill="url(#paint2_radial_186_36590)"/>
<path fill-rule="evenodd" clip-rule="evenodd" d="M14.4035 30.157C19.595 27.2003 23.8341 22.7555 26.5643 17.4L22.6458 11.7344C20.2552 18.4539 15.0777 23.8429 8.52344 26.4611L14.4035 30.1618V30.157Z" fill="url(#paint3_radial_186_36590)"/>
<path fill-rule="evenodd" clip-rule="evenodd" d="M26.5669 17.4012C55.783 15.5508 85.0652 14.8307 114.338 14.8307C143.611 14.8307 172.893 15.5556 202.109 17.4012L206.032 11.7356C175.548 9.70876 144.87 8.92188 114.338 8.92188C83.8062 8.92188 53.133 9.70876 22.6484 11.7356L26.5669 17.4012Z" fill="url(#paint4_radial_186_36590)"/>
<path fill-rule="evenodd" clip-rule="evenodd" d="M16.2197 222.631L14.3995 30.1539L8.51953 26.4531C8.55254 29.82 8.58555 33.187 8.61384 36.5539C8.67042 42.8394 8.47709 49.764 8.83546 55.9685C8.98635 58.5962 9.57105 60.4275 9.54276 63.2078C9.4956 67.6525 9.09009 71.9637 9.02407 76.3512C8.92976 85.0403 9.1561 93.9965 9.24098 102.714C9.27398 106.081 9.30699 109.443 9.33528 112.815C9.44845 124.594 9.73609 136.503 9.66064 148.263C9.63706 151.654 9.31171 154.973 9.23155 158.287C9.17496 160.491 9.77852 163.185 9.83039 165.646C10.0284 174.631 10.0096 183.625 10.0897 192.61C10.118 195.81 10.151 199.005 10.1793 202.205C10.2123 205.572 10.2453 208.939 10.2783 212.306C10.3255 217.018 10.3679 221.734 10.4104 226.446L16.2197 222.631Z" fill="url(#paint5_radial_186_36590)"/>
</g>
<g clip-path="url(#clip1_186_36590)">
<path fill-rule="evenodd" clip-rule="evenodd" d="M10.4149 778.694C10.3724 759.874 10.3253 741.036 10.2828 722.217C10.2498 708.769 10.2168 695.321 10.1838 681.874C10.1555 669.092 10.1225 656.33 10.0942 643.549C10.0094 607.663 10.0329 571.739 9.83489 535.853C9.78302 526.025 9.17946 515.281 9.23604 506.462C9.3162 493.224 9.64156 479.948 9.66514 466.424C9.74058 419.452 9.45295 371.871 9.33978 324.842C9.30677 311.394 9.27848 297.946 9.24547 284.498C9.1606 249.698 8.93426 213.907 9.02857 179.202C9.09458 161.678 9.5001 144.459 9.54725 126.707C9.57554 115.602 8.99084 108.268 8.83995 97.792C8.48159 73.0108 8.67492 45.3343 8.61833 20.2484C8.58533 6.80066 8.55703 -6.64708 8.52403 -20.0948L-0.3125 -48.6094C-0.204047 -2.41847 -0.0955949 43.7724 0.017573 89.9633C0.0552956 106.021 -0.0861642 126.23 0.357077 141.792C0.569266 149.335 1.46518 164.478 0.988931 171.164C0.234478 181.774 0.253339 186.098 0.272201 197.107C0.479675 318.365 0.823894 439.624 1.13039 560.882C1.15868 572.749 1.02194 591.511 1.44632 602.654C1.59249 606.463 2.16776 612.482 2.09232 615.549C1.9037 623.283 1.48404 629.111 1.3803 637.626C1.21527 652.083 1.38973 668.997 1.42274 683.702C1.52176 725.169 1.62078 766.636 1.71981 808.122L10.4149 778.713V778.694Z" fill="url(#paint6_radial_186_36590)"/>
<path fill-rule="evenodd" clip-rule="evenodd" d="M16.2197 763.456L14.3995 -5.31266L8.51953 -20.0938C8.55254 -6.64601 8.58555 6.80174 8.61384 20.2495C8.67042 45.3545 8.47709 73.0119 8.83546 97.793C8.98635 108.288 9.57105 115.603 9.54276 126.708C9.4956 144.46 9.09009 161.679 9.02407 179.203C8.92976 213.908 9.1561 249.68 9.24098 284.5C9.27398 297.947 9.30699 311.376 9.33528 324.843C9.44845 371.891 9.73609 419.453 9.66064 466.425C9.63706 479.968 9.31171 493.225 9.23155 506.463C9.17496 515.264 9.77852 526.026 9.83039 535.854C10.0284 571.74 10.0096 607.664 10.0897 643.55C10.118 656.331 10.151 669.094 10.1793 681.875C10.2123 695.322 10.2453 708.77 10.2783 722.218C10.3255 741.037 10.3679 759.875 10.4104 778.695L16.2197 763.456Z" fill="url(#paint7_radial_186_36590)"/>
<path fill-rule="evenodd" clip-rule="evenodd" d="M9.19782 268.674C8.74515 268.16 7.25511 275.531 6.81658 281.417C5.78392 295.417 8.26419 327.627 9.35814 327.665C10.9755 327.722 14.1961 293.855 13.4888 286.826C12.6353 278.369 10.7869 270.483 9.19782 268.674Z" fill="url(#paint8_radial_186_36590)"/>
<path style="mix-blend-mode:multiply" fill-rule="evenodd" clip-rule="evenodd" d="M6.59072 292.506C8.04776 277.096 12.4802 280.449 13.0507 301.097C13.5081 294.83 13.7297 289.23 13.4892 286.811C12.6358 278.354 10.7874 270.468 9.1983 268.658C8.74563 268.144 7.25558 275.516 6.81706 281.401C6.59072 284.411 6.53414 288.278 6.59072 292.487V292.506Z" fill="url(#paint9_radial_186_36590)"/>
</g>
<g clip-path="url(#clip2_186_36590)">
<path fill-rule="evenodd" clip-rule="evenodd" d="M203.649 747.388C195.006 747.96 186.372 748.427 177.724 748.809C174.188 748.966 171.165 749.281 167.671 749.619C164.394 749.939 161.556 749.472 158.241 749.529C147.584 749.724 137.121 750.125 126.431 750.058C122.574 750.034 118.698 749.371 114.935 749.615C111.573 749.834 108.81 750.101 105.363 750.092C78.7119 750.039 51.6177 749.143 25.0232 747.383L17.6484 755.757L18.0021 755.781C30.7759 756.706 43.5686 757.383 56.366 757.884C67.5366 758.323 79.0326 758.733 90.1985 758.79C94.8384 758.814 100.308 758.018 104.764 758.557C108.258 758.981 110.828 758.986 114.336 758.986C128.279 758.986 142.218 758.805 156.161 758.423C158.58 758.361 161.867 758.385 164.191 758.084C166.068 757.841 166.224 757.336 168.289 757.56C170.411 757.789 171.693 757.903 173.839 757.827C186.188 757.388 198.698 756.659 211.029 755.762L203.654 747.388H203.649Z" fill="url(#paint10_radial_186_36590)"/>
<path fill-rule="evenodd" clip-rule="evenodd" d="M25.0211 747.391C23.8187 743.962 21.843 740.839 19.1411 738.13C16.5712 735.555 13.6289 733.647 10.4177 732.445L1.72266 739.809C6.09377 739.766 9.87074 741.316 12.9781 744.43C16.0808 747.544 17.651 751.345 17.651 755.771L25.0258 747.396L25.0211 747.391Z" fill="url(#paint11_radial_186_36590)"/>
<path fill-rule="evenodd" clip-rule="evenodd" d="M10.4149 732.445C10.3724 727.733 10.3253 723.016 10.2828 718.305C10.2498 714.938 10.2168 711.571 10.1838 708.204C10.1555 705.004 10.1225 701.809 10.0942 698.609C10.0094 689.624 10.0329 680.629 9.83489 671.645C9.78302 669.184 9.17946 666.494 9.23604 664.286C9.3162 660.972 9.64156 657.648 9.66514 654.262C9.74058 642.501 9.45295 630.588 9.33978 618.814C9.30677 615.447 9.27848 612.08 9.24547 608.713C9.1606 600 8.93426 591.039 9.02857 582.35C9.09458 577.962 9.5001 573.651 9.54725 569.206C9.57554 566.426 8.99084 564.59 8.83995 561.967C8.48159 555.763 8.67492 548.833 8.61833 542.552C8.58533 539.186 8.55703 535.819 8.52403 532.452L-0.3125 525.312C-0.204047 536.877 -0.0955949 548.442 0.017573 560.007C0.0552956 564.027 -0.0861642 569.087 0.357077 572.983C0.569266 574.872 1.46518 578.663 0.988931 580.337C0.234478 582.994 0.253339 584.076 0.272201 586.833C0.479675 617.192 0.823894 647.552 1.13039 677.911C1.15868 680.882 1.02194 685.58 1.44632 688.369C1.59249 689.323 2.16776 690.83 2.09232 691.598C1.9037 693.534 1.48404 694.994 1.3803 697.125C1.21527 700.745 1.38973 704.98 1.42274 708.662C1.52176 719.044 1.62078 729.426 1.71981 739.813L10.4149 732.449V732.445Z" fill="url(#paint12_radial_186_36590)"/>
<path fill-rule="evenodd" clip-rule="evenodd" d="M199.726 741.727C171.302 743.52 142.812 744.216 114.336 744.216C85.8606 744.216 57.3706 743.52 28.9466 741.727L25.0234 747.392C51.6179 749.152 78.7122 750.053 105.363 750.101C108.815 750.106 111.578 749.843 114.935 749.624C118.698 749.376 122.569 750.039 126.431 750.068C137.121 750.134 147.58 749.738 158.241 749.538C161.556 749.476 164.394 749.948 167.672 749.629C171.166 749.285 174.188 748.975 177.725 748.818C186.377 748.432 195.011 747.964 203.65 747.397L199.726 741.731V741.727Z" fill="url(#paint13_radial_186_36590)"/>
<path fill-rule="evenodd" clip-rule="evenodd" d="M28.9492 741.724C27.478 738.848 25.5542 736.235 23.2578 733.931C21.1595 731.828 18.8018 730.044 16.2273 728.633L10.418 732.448C13.6338 733.65 16.5762 735.557 19.1413 738.133C21.8432 740.837 23.8189 743.96 25.0213 747.394L28.9445 741.728L28.9492 741.724Z" fill="url(#paint14_radial_186_36590)"/>
<path fill-rule="evenodd" clip-rule="evenodd" d="M16.2197 728.631L14.3995 536.154L8.51953 532.453C8.55254 535.82 8.58555 539.187 8.61384 542.554C8.67042 548.839 8.47709 555.764 8.83546 561.968C8.98635 564.596 9.57105 566.427 9.54276 569.208C9.4956 573.653 9.09009 577.964 9.02407 582.351C8.92976 591.04 9.1561 599.997 9.24098 608.714C9.27398 612.081 9.30699 615.443 9.33528 618.815C9.44845 630.594 9.73609 642.503 9.66064 654.263C9.63706 657.654 9.31171 660.973 9.23155 664.287C9.17496 666.491 9.77852 669.185 9.83039 671.646C10.0284 680.631 10.0096 689.625 10.0897 698.61C10.118 701.81 10.151 705.005 10.1793 708.205C10.2123 711.572 10.2453 714.939 10.2783 718.306C10.3255 723.018 10.3679 727.734 10.4104 732.446L16.2197 728.631Z" fill="url(#paint15_radial_186_36590)"/>
</g>
<defs>
<radialGradient id="paint0_radial_186_36590" cx="0" cy="0" r="1" gradientUnits="userSpaceOnUse" gradientTransform="translate(5.85434 28.3316) scale(51.3358 51.9201)">
<stop stop-color="#7082A5"/>
<stop offset="1" stop-color="#505D8B"/>
</radialGradient>
<radialGradient id="paint1_radial_186_36590" cx="0" cy="0" r="1" gradientUnits="userSpaceOnUse" gradientTransform="translate(114.334 -56.2959) scale(116.761 118.09)">
<stop offset="0.72" stop-color="#262E44"/>
<stop offset="0.76" stop-color="#313A51"/>
<stop offset="0.85" stop-color="#46536B"/>
<stop offset="0.94" stop-color="#53627B"/>
<stop offset="1" stop-color="#586881"/>
</radialGradient>
<radialGradient id="paint2_radial_186_36590" cx="0" cy="0" r="1" gradientUnits="userSpaceOnUse" gradientTransform="translate(-56.4485 82.7069) scale(200.067 202.344)">
<stop stop-color="#677A9E"/>
<stop offset="1" stop-color="#39456F"/>
</radialGradient>
<radialGradient id="paint3_radial_186_36590" cx="0" cy="0" r="1" gradientUnits="userSpaceOnUse" gradientTransform="translate(-8.11696 30.343) scale(49.1432 49.7026)">
<stop stop-color="#475979"/>
<stop offset="1" stop-color="#252F51"/>
</radialGradient>
<radialGradient id="paint4_radial_186_36590" cx="0" cy="0" r="1" gradientUnits="userSpaceOnUse" gradientTransform="translate(115.663 14.5016) scale(149.891 151.597)">
<stop stop-color="#38465E"/>
<stop offset="1" stop-color="#1F263F"/>
</radialGradient>
<radialGradient id="paint5_radial_186_36590" cx="0" cy="0" r="1" gradientUnits="userSpaceOnUse" gradientTransform="translate(-81.3688 108.89) scale(259.867 262.825)">
<stop stop-color="#344156"/>
<stop offset="1" stop-color="#19202F"/>
</radialGradient>
<radialGradient id="paint6_radial_186_36590" cx="0" cy="0" r="1" gradientUnits="userSpaceOnUse" gradientTransform="translate(-56.4485 204.593) scale(200.067 808.179)">
<stop stop-color="#677A9E"/>
<stop offset="1" stop-color="#39456F"/>
</radialGradient>
<radialGradient id="paint7_radial_186_36590" cx="0" cy="0" r="1" gradientUnits="userSpaceOnUse" gradientTransform="translate(-81.3688 309.166) scale(259.867 1049.74)">
<stop stop-color="#344156"/>
<stop offset="1" stop-color="#19202F"/>
</radialGradient>
<radialGradient id="paint8_radial_186_36590" cx="0" cy="0" r="1" gradientUnits="userSpaceOnUse" gradientTransform="translate(5.88294 345.494) scale(24.3028 98.1723)">
<stop stop-color="#475979"/>
<stop offset="0.34" stop-color="#3F4F70"/>
<stop offset="0.89" stop-color="#2A3758"/>
<stop offset="1" stop-color="#263153"/>
</radialGradient>
<radialGradient id="paint9_radial_186_36590" cx="0" cy="0" r="1" gradientUnits="userSpaceOnUse" gradientTransform="translate(3.52104 328.506) scale(25.1186 101.468)">
<stop offset="0.33" stop-color="#F7F7EA"/>
<stop offset="0.44" stop-color="#EBECE2"/>
<stop offset="0.63" stop-color="#CDD1CF"/>
<stop offset="0.88" stop-color="#9DA5B1"/>
<stop offset="1" stop-color="#858FA2"/>
</radialGradient>
<radialGradient id="paint10_radial_186_36590" cx="0" cy="0" r="1" gradientUnits="userSpaceOnUse" gradientTransform="translate(108.164 699.34) scale(157.652 159.447)">
<stop stop-color="#313D50"/>
<stop offset="1" stop-color="#192033"/>
</radialGradient>
<radialGradient id="paint11_radial_186_36590" cx="0" cy="0" r="1" gradientUnits="userSpaceOnUse" gradientTransform="translate(26.8695 756.596) scale(40.9102 41.3759)">
<stop stop-color="#3A4763"/>
<stop offset="1" stop-color="#232C47"/>
</radialGradient>
<radialGradient id="paint12_radial_186_36590" cx="0" cy="0" r="1" gradientUnits="userSpaceOnUse" gradientTransform="translate(-56.4485 588.707) scale(200.067 202.344)">
<stop stop-color="#677A9E"/>
<stop offset="1" stop-color="#39456F"/>
</radialGradient>
<radialGradient id="paint13_radial_186_36590" cx="0" cy="0" r="1" gradientUnits="userSpaceOnUse" gradientTransform="translate(167.964 711.577) scale(206.362 208.711)">
<stop stop-color="#607099"/>
<stop offset="1" stop-color="#495586"/>
</radialGradient>
<radialGradient id="paint14_radial_186_36590" cx="0" cy="0" r="1" gradientUnits="userSpaceOnUse" gradientTransform="translate(34.7302 739.964) scale(29.848 30.1878)">
<stop stop-color="#434F73"/>
<stop offset="1" stop-color="#323C59"/>
</radialGradient>
<radialGradient id="paint15_radial_186_36590" cx="0" cy="0" r="1" gradientUnits="userSpaceOnUse" gradientTransform="translate(-81.3688 614.89) scale(259.867 262.825)">
<stop stop-color="#344156"/>
<stop offset="1" stop-color="#19202F"/>
</radialGradient>
<clipPath id="clip0_186_36590">
<rect width="27" height="42" fill="white"/>
</clipPath>
<clipPath id="clip1_186_36590">
<rect width="27" height="675" fill="white" transform="translate(0 42)"/>
</clipPath>
<clipPath id="clip2_186_36590">
<rect width="27" height="42" fill="white" transform="translate(0 717)"/>
</clipPath>
</defs>
</svg>
