<svg width="576" height="30" viewBox="0 0 576 30" fill="none" xmlns="http://www.w3.org/2000/svg">
<g clip-path="url(#clip0_189_37018)">
<g clip-path="url(#clip1_189_37018)">
<path fill-rule="evenodd" clip-rule="evenodd" d="M22.6401 11.734C53.1247 9.70715 83.8026 8.92026 114.33 8.92026C144.857 8.92026 175.535 9.70715 206.024 11.734L213.352 3.35484C184.522 1.26125 150.619 0.0546875 114.334 0.0546875C78.0499 0.0546875 44.142 1.26125 15.3125 3.35484L22.6401 11.734Z" fill="url(#paint0_radial_189_37018)"/>
<path fill-rule="evenodd" clip-rule="evenodd" d="M10.4149 226.445C10.3724 221.733 10.3253 217.016 10.2828 212.305C10.2498 208.938 10.2168 205.571 10.1838 202.204C10.1555 199.004 10.1225 195.809 10.0942 192.609C10.0094 183.624 10.0329 174.629 9.83489 165.645C9.78302 163.184 9.17946 160.494 9.23604 158.286C9.3162 154.972 9.64156 151.648 9.66514 148.262C9.74058 136.501 9.45295 124.588 9.33978 112.814C9.30677 109.447 9.27848 106.08 9.24547 102.713C9.1606 93.9999 8.93426 85.0389 9.02857 76.3498C9.09458 71.9623 9.5001 67.6511 9.54725 63.2064C9.57554 60.4261 8.99084 58.59 8.83995 55.9671C8.48159 49.7626 8.67492 42.8332 8.61833 36.5524C8.58533 33.1855 8.55703 29.8186 8.52403 26.4517L-0.3125 19.3125C-0.204047 30.8773 -0.0955949 42.4422 0.017573 54.007C0.0552956 58.0273 -0.0861642 63.0872 0.357077 66.9835C0.569266 68.872 1.46518 72.6633 0.988931 74.3373C0.234478 76.9936 0.253339 78.0762 0.272201 80.8326C0.479675 111.192 0.823894 141.552 1.13039 171.911C1.15868 174.882 1.02194 179.58 1.44632 182.369C1.59249 183.323 2.16776 184.83 2.09232 185.598C1.9037 187.534 1.48404 188.994 1.3803 191.125C1.21527 194.745 1.38973 198.98 1.42274 202.662C1.52176 213.044 1.62078 223.426 1.71981 233.813L10.4149 226.449V226.445Z" fill="url(#paint1_radial_189_37018)"/>
<path fill-rule="evenodd" clip-rule="evenodd" d="M8.52322 26.4574C15.0775 23.844 20.255 18.4502 22.6456 11.7307L15.318 3.35156C15.318 12.0884 8.32989 19.2276 -0.308594 19.3086L8.52793 26.4526L8.52322 26.4574Z" fill="url(#paint2_radial_189_37018)"/>
<path fill-rule="evenodd" clip-rule="evenodd" d="M14.4035 30.157C19.595 27.2003 23.8341 22.7555 26.5643 17.4L22.6458 11.7344C20.2552 18.4539 15.0777 23.8429 8.52344 26.4611L14.4035 30.1618V30.157Z" fill="url(#paint3_radial_189_37018)"/>
<path fill-rule="evenodd" clip-rule="evenodd" d="M26.5669 17.4012C55.783 15.5508 85.0652 14.8307 114.338 14.8307C143.611 14.8307 172.893 15.5556 202.109 17.4012L206.032 11.7356C175.548 9.70876 144.87 8.92188 114.338 8.92188C83.8062 8.92188 53.133 9.70876 22.6484 11.7356L26.5669 17.4012Z" fill="url(#paint4_radial_189_37018)"/>
<path fill-rule="evenodd" clip-rule="evenodd" d="M16.2197 222.631L14.3995 30.1539L8.51953 26.4531C8.55254 29.82 8.58555 33.187 8.61384 36.5539C8.67042 42.8394 8.47709 49.764 8.83546 55.9685C8.98635 58.5962 9.57105 60.4275 9.54276 63.2078C9.4956 67.6525 9.09009 71.9637 9.02407 76.3512C8.92976 85.0403 9.1561 93.9965 9.24098 102.714C9.27398 106.081 9.30699 109.443 9.33528 112.815C9.44845 124.594 9.73609 136.503 9.66064 148.263C9.63706 151.654 9.31171 154.973 9.23155 158.287C9.17496 160.491 9.77852 163.185 9.83039 165.646C10.0284 174.631 10.0096 183.625 10.0897 192.61C10.118 195.81 10.151 199.005 10.1793 202.205C10.2123 205.572 10.2453 208.939 10.2783 212.306C10.3255 217.018 10.3679 221.734 10.4104 226.446L16.2197 222.631Z" fill="url(#paint5_radial_189_37018)"/>
</g>
<g clip-path="url(#clip2_189_37018)">
<path fill-rule="evenodd" clip-rule="evenodd" d="M13.9532 11.734C105.174 9.70715 196.973 8.92026 288.321 8.92026C379.669 8.92026 471.468 9.70715 562.703 11.734L584.63 3.35484C498.362 1.26125 396.911 0.0546875 288.335 0.0546875C179.759 0.0546875 78.2945 1.26125 -7.97363 3.35484L13.9532 11.734Z" fill="url(#paint6_radial_189_37018)"/>
<path fill-rule="evenodd" clip-rule="evenodd" d="M25.701 17.4012C113.126 15.5508 200.749 14.8307 288.343 14.8307C375.938 14.8307 463.561 15.5556 550.986 17.4012L562.725 11.7356C471.505 9.70876 379.705 8.92188 288.343 8.92188C196.982 8.92188 105.196 9.70876 13.9756 11.7356L25.701 17.4012Z" fill="url(#paint7_radial_189_37018)"/>
</g>
<g clip-path="url(#clip3_189_37018)">
<path fill-rule="evenodd" clip-rule="evenodd" d="M369.64 11.734C400.125 9.70715 430.803 8.92026 461.33 8.92026C491.857 8.92026 522.535 9.70715 553.024 11.734L560.352 3.35484C531.522 1.26125 497.619 0.0546875 461.334 0.0546875C425.05 0.0546875 391.142 1.26125 362.312 3.35484L369.64 11.734Z" fill="url(#paint8_radial_189_37018)"/>
<path fill-rule="evenodd" clip-rule="evenodd" d="M553.027 11.7337C555.413 18.4533 560.591 23.8422 567.15 26.4604L575.986 19.3165C567.348 19.2306 560.36 12.0962 560.36 3.35938L553.032 11.7385L553.027 11.7337Z" fill="url(#paint9_radial_189_37018)"/>
<path fill-rule="evenodd" clip-rule="evenodd" d="M567.068 35.042C567.04 38.0703 567.012 41.1034 566.984 44.1317C566.908 52.0578 566.583 60.5752 567.068 68.4346C567.257 71.4963 566.771 73.9761 566.696 77.0331C566.46 86.3565 566.498 95.8945 566.408 105.242C566.361 110.292 566.314 115.342 566.262 120.393C566.201 126.984 565.984 133.923 566.107 140.475C566.149 142.807 566.611 145.168 566.399 147.371C565.743 154.086 565.904 159.713 566.234 166.404C566.371 169.208 565.861 171.66 565.777 174.497C565.564 181.627 565.616 189 565.545 196.153C565.512 199.52 565.479 202.887 565.451 206.254C565.39 212.988 565.324 219.722 565.258 226.455L573.953 233.819C574.019 226.928 574.085 220.036 574.146 213.145C574.165 211.099 574.184 209.049 574.203 207.007C574.264 200.545 574.325 194.083 574.387 187.621C574.41 185.103 574.556 181.956 574.391 179.505C574.292 177.974 573.637 175.36 573.967 174.068C574.325 172.666 574.467 171.96 574.528 170.491C574.655 167.458 574.608 164.191 574.637 161.134C574.698 154.782 574.759 148.43 574.816 142.073C574.896 133.46 574.976 124.847 575.061 116.234C575.08 114.079 575.099 111.923 575.122 109.772C575.146 107.407 575.4 101.946 574.816 99.9386C574.486 98.7893 574.005 98.5556 574.283 97.3586C574.745 95.3937 575.136 94.4972 575.25 92.3654C575.396 89.504 575.382 86.4614 575.334 83.5857C575.283 80.5144 574.637 77.7007 574.754 74.7487C574.948 69.9177 575.5 65.2679 575.58 60.3511C575.806 46.7022 575.844 32.9866 575.976 19.3281L567.139 26.4721L567.13 27.4831C567.106 30.0059 567.083 32.5335 567.059 35.0563L567.068 35.042Z" fill="url(#paint10_radial_189_37018)"/>
<path fill-rule="evenodd" clip-rule="evenodd" d="M373.567 17.4012C402.783 15.5508 432.065 14.8307 461.338 14.8307C490.611 14.8307 519.893 15.5556 549.109 17.4012L553.032 11.7356C522.548 9.70876 491.87 8.92188 461.338 8.92188C430.806 8.92188 400.133 9.70876 369.648 11.7356L373.567 17.4012Z" fill="url(#paint11_radial_189_37018)"/>
<path fill-rule="evenodd" clip-rule="evenodd" d="M549.105 17.3969C551.836 22.7525 556.075 27.202 561.271 30.154L567.151 26.4532C560.597 23.8398 555.419 18.4461 553.029 11.7266L549.105 17.3921V17.3969Z" fill="url(#paint12_radial_189_37018)"/>
<path fill-rule="evenodd" clip-rule="evenodd" d="M561.273 30.1586L559.453 222.636L565.262 226.451C565.328 219.717 565.39 212.983 565.456 206.249C565.489 202.887 565.522 199.515 565.55 196.149C565.616 188.995 565.569 181.622 565.781 174.493C565.866 171.655 566.375 169.204 566.238 166.4C565.904 159.709 565.748 154.081 566.404 147.366C566.616 145.168 566.158 142.802 566.111 140.47C565.989 133.918 566.201 126.979 566.267 120.388C566.319 115.338 566.366 110.287 566.413 105.237C566.503 95.8898 566.465 86.3566 566.701 77.0284C566.781 73.9762 567.262 71.4916 567.073 68.4299C566.587 60.5706 566.913 52.0579 566.988 44.1271C567.017 41.094 567.045 38.0656 567.073 35.0373C567.097 32.5098 567.12 29.987 567.144 27.4642L567.153 26.4531L561.273 30.1539V30.1586Z" fill="url(#paint13_radial_189_37018)"/>
<path style="mix-blend-mode:screen" fill-rule="evenodd" clip-rule="evenodd" d="M556.047 17.6094C559.145 21.2434 561.757 23.2845 565.907 24.9775C566.274 25.1253 566.652 25.1826 567.015 25.1444C568.123 25.0347 573.64 21.0335 574.946 20.1608C573.725 21.3149 568.741 25.669 568.227 26.804C568.076 27.1378 567.991 27.5003 567.977 27.8961L566.845 62.7098L566.274 28.5542C566.26 27.6195 565.775 26.8326 564.968 26.3843C560.927 24.1524 558.282 21.2386 556.052 17.6189L556.047 17.6094Z" fill="url(#paint14_radial_189_37018)"/>
</g>
</g>
<defs>
<radialGradient id="paint0_radial_189_37018" cx="0" cy="0" r="1" gradientUnits="userSpaceOnUse" gradientTransform="translate(114.334 -56.2959) scale(116.761 118.09)">
<stop offset="0.72" stop-color="#262E44"/>
<stop offset="0.76" stop-color="#313A51"/>
<stop offset="0.85" stop-color="#46536B"/>
<stop offset="0.94" stop-color="#53627B"/>
<stop offset="1" stop-color="#586881"/>
</radialGradient>
<radialGradient id="paint1_radial_189_37018" cx="0" cy="0" r="1" gradientUnits="userSpaceOnUse" gradientTransform="translate(-56.4485 82.7069) scale(200.067 202.344)">
<stop stop-color="#677A9E"/>
<stop offset="1" stop-color="#39456F"/>
</radialGradient>
<radialGradient id="paint2_radial_189_37018" cx="0" cy="0" r="1" gradientUnits="userSpaceOnUse" gradientTransform="translate(5.85434 28.3316) scale(51.3358 51.9201)">
<stop stop-color="#7082A5"/>
<stop offset="1" stop-color="#505D8B"/>
</radialGradient>
<radialGradient id="paint3_radial_189_37018" cx="0" cy="0" r="1" gradientUnits="userSpaceOnUse" gradientTransform="translate(-8.11696 30.343) scale(49.1432 49.7026)">
<stop stop-color="#475979"/>
<stop offset="1" stop-color="#252F51"/>
</radialGradient>
<radialGradient id="paint4_radial_189_37018" cx="0" cy="0" r="1" gradientUnits="userSpaceOnUse" gradientTransform="translate(115.663 14.5016) scale(149.891 151.597)">
<stop stop-color="#38465E"/>
<stop offset="1" stop-color="#1F263F"/>
</radialGradient>
<radialGradient id="paint5_radial_189_37018" cx="0" cy="0" r="1" gradientUnits="userSpaceOnUse" gradientTransform="translate(-81.3688 108.89) scale(259.867 262.825)">
<stop stop-color="#344156"/>
<stop offset="1" stop-color="#19202F"/>
</radialGradient>
<radialGradient id="paint6_radial_189_37018" cx="0" cy="0" r="1" gradientUnits="userSpaceOnUse" gradientTransform="translate(288.335 -56.2959) scale(349.39 118.09)">
<stop offset="0.72" stop-color="#262E44"/>
<stop offset="0.76" stop-color="#313A51"/>
<stop offset="0.85" stop-color="#46536B"/>
<stop offset="0.94" stop-color="#53627B"/>
<stop offset="1" stop-color="#586881"/>
</radialGradient>
<radialGradient id="paint7_radial_189_37018" cx="0" cy="0" r="1" gradientUnits="userSpaceOnUse" gradientTransform="translate(292.308 14.5016) scale(448.527 151.597)">
<stop stop-color="#38465E"/>
<stop offset="1" stop-color="#1F263F"/>
</radialGradient>
<radialGradient id="paint8_radial_189_37018" cx="0" cy="0" r="1" gradientUnits="userSpaceOnUse" gradientTransform="translate(461.334 -56.2959) scale(116.761 118.09)">
<stop offset="0.72" stop-color="#262E44"/>
<stop offset="0.76" stop-color="#313A51"/>
<stop offset="0.85" stop-color="#46536B"/>
<stop offset="0.94" stop-color="#53627B"/>
<stop offset="1" stop-color="#586881"/>
</radialGradient>
<radialGradient id="paint9_radial_189_37018" cx="0" cy="0" r="1" gradientUnits="userSpaceOnUse" gradientTransform="translate(570.252 26.5415) scale(46.3234 46.8507)">
<stop stop-color="#435371"/>
<stop offset="1" stop-color="#28304F"/>
</radialGradient>
<radialGradient id="paint10_radial_189_37018" cx="0" cy="0" r="1" gradientUnits="userSpaceOnUse" gradientTransform="translate(440.212 112.906) scale(244.07 246.848)">
<stop stop-color="#344156"/>
<stop offset="1" stop-color="#19202F"/>
</radialGradient>
<radialGradient id="paint11_radial_189_37018" cx="0" cy="0" r="1" gradientUnits="userSpaceOnUse" gradientTransform="translate(462.663 14.5016) scale(149.891 151.597)">
<stop stop-color="#38465E"/>
<stop offset="1" stop-color="#1F263F"/>
</radialGradient>
<radialGradient id="paint12_radial_189_37018" cx="0" cy="0" r="1" gradientUnits="userSpaceOnUse" gradientTransform="translate(585.904 37.7224) scale(53.9763 54.5908)">
<stop stop-color="#4D5F7E"/>
<stop offset="1" stop-color="#2C3751"/>
</radialGradient>
<radialGradient id="paint13_radial_189_37018" cx="0" cy="0" r="1" gradientUnits="userSpaceOnUse" gradientTransform="translate(511.22 103.825) scale(219.182 221.678)">
<stop stop-color="#677A9E"/>
<stop offset="1" stop-color="#39456F"/>
</radialGradient>
<radialGradient id="paint14_radial_189_37018" cx="0" cy="0" r="1" gradientUnits="userSpaceOnUse" gradientTransform="translate(566.265 26.4988) scale(43.928 44.428)">
<stop stop-color="#20377D"/>
<stop offset="0.21" stop-color="#152554"/>
<stop offset="0.44" stop-color="#0C152F"/>
<stop offset="0.66" stop-color="#050915"/>
<stop offset="0.85" stop-color="#010205"/>
<stop offset="1"/>
</radialGradient>
<clipPath id="clip0_189_37018">
<rect width="576" height="30" fill="white"/>
</clipPath>
<clipPath id="clip1_189_37018">
<rect width="27" height="42" fill="white"/>
</clipPath>
<clipPath id="clip2_189_37018">
<rect width="522" height="22" fill="white" transform="translate(27)"/>
</clipPath>
<clipPath id="clip3_189_37018">
<rect width="27" height="42" fill="white" transform="translate(549)"/>
</clipPath>
</defs>
</svg>
