<svg width="30" height="689" viewBox="0 0 30 689" fill="none" xmlns="http://www.w3.org/2000/svg">
<g clip-path="url(#clip0_179_38106)">
<g clip-path="url(#clip1_179_38106)">
<path fill-rule="evenodd" clip-rule="evenodd" d="M-293.223 11.6148C-242.719 9.58801 -191.896 8.80112 -141.322 8.80112C-90.748 8.80112 -39.9243 9.58801 10.587 11.6148L22.7266 3.2357C-25.0349 1.1421 -81.202 -0.0644531 -141.314 -0.0644531C-201.426 -0.0644531 -257.601 1.1421 -305.362 3.2357L-293.223 11.6148Z" fill="url(#paint0_radial_179_38106)"/>
<path fill-rule="evenodd" clip-rule="evenodd" d="M-286.719 17.282C-238.317 15.4316 -189.806 14.7115 -141.31 14.7115C-92.8141 14.7115 -44.3027 15.4364 4.09941 17.282L10.5989 11.6164C-39.9046 9.58962 -90.7284 8.80273 -141.31 8.80273C-191.892 8.80273 -242.707 9.58962 -293.211 11.6164L-286.719 17.282Z" fill="url(#paint1_radial_179_38106)"/>
</g>
<g clip-path="url(#clip2_179_38106)">
<path fill-rule="evenodd" clip-rule="evenodd" d="M9.58315 657.403C5.77879 664.512 2.59159 672.577 0.154297 681.452L6.65372 698.937C8.65355 688.355 11.9189 678.715 16.3951 670.355C20.6525 662.407 25.5271 656.52 30.8548 652.811L21.2306 641.037C16.9653 645.379 13.0594 650.898 9.58315 657.389V657.403Z" fill="url(#paint2_radial_179_38106)"/>
<path style="mix-blend-mode:screen" fill-rule="evenodd" clip-rule="evenodd" d="M19.5686 664.984C14.4674 673.565 10.5459 683.337 8.58514 695.126C8.39766 696.26 8.35079 697.393 8.44453 698.497C8.71795 701.661 13.2957 712.42 14.53 715.628C12.8114 712.596 8.12426 703.324 6.21036 701.999C5.56198 701.543 4.86672 701.352 4.12459 701.425C-12.9599 702.883 -28.6226 703.133 -45.9727 704.604C-33.755 701.661 3.51528 699.115 5.59322 696.569C6.22598 695.789 6.74937 694.685 7.10872 693.301C9.89754 682.631 13.7722 672.947 19.5764 665.014L19.5686 664.984Z" fill="url(#paint3_radial_179_38106)"/>
</g>
<g clip-path="url(#clip3_179_38106)">
<path fill-rule="evenodd" clip-rule="evenodd" d="M6.65021 677.268C-7.66887 677.841 -21.9723 678.308 -36.2992 678.69C-42.1581 678.847 -47.1655 679.162 -52.954 679.5C-58.3832 679.82 -63.086 679.352 -68.5777 679.41C-86.2324 679.605 -103.567 680.006 -121.276 679.939C-127.666 679.915 -134.088 679.252 -140.321 679.496C-145.891 679.715 -150.469 679.982 -156.18 679.972C-200.332 679.92 -245.219 679.023 -289.277 677.264L-301.495 685.638L-300.909 685.662C-279.747 686.587 -258.554 687.264 -237.352 687.765C-218.846 688.204 -199.801 688.614 -181.302 688.671C-173.616 688.695 -164.554 687.899 -157.172 688.437C-151.383 688.862 -147.126 688.867 -141.314 688.867C-118.214 688.867 -95.1223 688.685 -72.0227 688.304C-68.0152 688.242 -62.5704 688.266 -58.7192 687.965C-55.61 687.722 -55.3523 687.217 -51.9307 687.441C-48.4154 687.67 -46.2905 687.784 -42.7362 687.708C-22.277 687.269 -1.55219 686.539 18.8757 685.643L6.65803 677.268H6.65021Z" fill="url(#paint4_radial_179_38106)"/>
<path fill-rule="evenodd" clip-rule="evenodd" d="M9.58315 663.809C5.77879 666.112 2.59159 668.726 0.154297 671.602L6.65372 677.267C8.65355 673.838 11.9189 670.715 16.3951 668.006C20.6525 665.43 25.5271 663.523 30.8548 662.321L21.2306 658.506C16.9653 659.913 13.0594 661.701 9.58315 663.804V663.809Z" fill="url(#paint5_radial_179_38106)"/>
<path fill-rule="evenodd" clip-rule="evenodd" d="M0.149894 671.607C-46.9398 673.401 -94.1389 674.097 -141.314 674.097C-188.49 674.097 -235.689 673.401 -282.779 671.607L-289.278 677.273C-245.22 679.033 -200.333 679.934 -156.18 679.982C-150.462 679.987 -145.884 679.724 -140.322 679.505C-134.089 679.257 -127.675 679.92 -121.277 679.948C-103.568 680.015 -86.2411 679.619 -68.5786 679.419C-63.0869 679.357 -58.3841 679.829 -52.9549 679.51C-47.1664 679.166 -42.159 678.856 -36.3001 678.699C-21.9654 678.313 -7.66195 677.845 6.64932 677.278L0.149894 671.612V671.607Z" fill="url(#paint6_radial_179_38106)"/>
<path style="mix-blend-mode:screen" fill-rule="evenodd" clip-rule="evenodd" d="M19.5686 666.271C14.4674 669.052 10.5459 672.218 8.58514 676.038C8.39766 676.406 8.35079 676.773 8.44453 677.13C8.71795 678.156 13.2957 681.642 14.53 682.682C12.8114 681.699 8.12426 678.695 6.21036 678.266C5.56198 678.118 4.86672 678.056 4.12459 678.08C-12.9599 678.552 -28.6226 678.633 -45.9727 679.11C-33.755 678.156 3.51528 677.331 5.59322 676.506C6.22598 676.253 6.74937 675.895 7.10872 675.447C9.89754 671.99 13.7722 668.852 19.5764 666.281L19.5686 666.271Z" fill="url(#paint7_radial_179_38106)"/>
</g>
<g clip-path="url(#clip4_179_38106)">
<path fill-rule="evenodd" clip-rule="evenodd" d="M-176.36 11.6148C-145.875 9.58801 -115.197 8.80112 -84.6703 8.80112C-54.1433 8.80112 -23.4654 9.58801 7.02394 11.6148L14.3516 3.2357C-14.478 1.1421 -48.3812 -0.0644531 -84.6656 -0.0644531C-120.95 -0.0644531 -154.858 1.1421 -183.688 3.2357L-176.36 11.6148Z" fill="url(#paint8_radial_179_38106)"/>
<path fill-rule="evenodd" clip-rule="evenodd" d="M7.02734 11.6146C9.4133 18.3341 14.5907 23.7231 21.1497 26.3413L29.9863 19.1973C21.3478 19.1115 14.3597 11.9771 14.3597 3.24023L7.03205 11.6194L7.02734 11.6146Z" fill="url(#paint9_radial_179_38106)"/>
<path fill-rule="evenodd" clip-rule="evenodd" d="M21.0685 34.9229C21.0402 37.9512 21.0119 40.9843 20.9836 44.0126C20.9082 51.9387 20.5828 60.4561 21.0685 68.3154C21.2571 71.3771 20.7714 73.857 20.696 76.9139C20.4602 86.2373 20.4979 95.7753 20.4084 105.123C20.3612 110.173 20.314 115.223 20.2622 120.274C20.2009 126.864 19.984 133.803 20.1066 140.356C20.149 142.688 20.6111 145.049 20.3989 147.252C19.7435 153.967 19.9038 159.594 20.2339 166.285C20.3706 169.089 19.8614 171.54 19.7765 174.378C19.5643 181.508 19.6162 188.881 19.5455 196.034C19.5124 199.401 19.4794 202.768 19.4511 206.135C19.3898 212.869 19.3238 219.603 19.2578 226.336L27.9529 233.7C28.0189 226.808 28.0849 219.917 28.1462 213.026C28.1651 210.98 28.1839 208.929 28.2028 206.888C28.2641 200.426 28.3254 193.964 28.3867 187.502C28.4103 184.984 28.5564 181.837 28.3914 179.385C28.2924 177.855 27.637 175.241 27.967 173.949C28.3254 172.547 28.4669 171.841 28.5282 170.372C28.6555 167.339 28.6083 164.072 28.6366 161.015C28.6979 154.663 28.7592 148.311 28.8158 141.954C28.8959 133.341 28.9761 124.728 29.061 116.115C29.0798 113.96 29.0987 111.804 29.1223 109.653C29.1459 107.288 29.4005 101.827 28.8158 99.8194C28.4857 98.6701 28.0048 98.4364 28.283 97.2394C28.7451 95.2746 29.1364 94.378 29.2496 92.2463C29.3958 89.3849 29.3816 86.3422 29.3345 83.4665C29.2826 80.3953 28.6366 77.5816 28.7545 74.6296C28.9478 69.7986 29.4995 65.1488 29.5797 60.232C29.806 46.5831 29.8437 32.8674 29.9758 19.209L21.1392 26.353L21.1298 27.364C21.1062 29.8868 21.0826 32.4144 21.0591 34.9372L21.0685 34.9229Z" fill="url(#paint10_radial_179_38106)"/>
<path fill-rule="evenodd" clip-rule="evenodd" d="M-172.433 17.282C-143.217 15.4316 -113.935 14.7115 -84.662 14.7115C-55.3892 14.7115 -26.1071 15.4364 3.10911 17.282L7.03227 11.6164C-23.4523 9.58962 -54.1303 8.80273 -84.662 8.80273C-115.194 8.80273 -145.867 9.58962 -176.352 11.6164L-172.433 17.282Z" fill="url(#paint11_radial_179_38106)"/>
<path fill-rule="evenodd" clip-rule="evenodd" d="M3.10547 17.2778C5.83564 22.6334 10.0747 27.0828 15.271 30.0349L21.151 26.3341C14.5967 23.7207 9.4193 18.3269 7.02863 11.6074L3.10547 17.273V17.2778Z" fill="url(#paint12_radial_179_38106)"/>
<path fill-rule="evenodd" clip-rule="evenodd" d="M15.2732 30.0395L13.4531 222.516L19.2624 226.332C19.3284 219.598 19.3897 212.864 19.4557 206.13C19.4888 202.768 19.5217 199.396 19.55 196.029C19.6161 188.876 19.5689 181.503 19.7811 174.373C19.866 171.536 20.3752 169.085 20.2385 166.28C19.9037 159.589 19.7481 153.962 20.4035 147.247C20.6157 145.049 20.1583 142.683 20.1112 140.351C19.9886 133.799 20.2008 126.86 20.2668 120.269C20.3186 115.219 20.3658 110.168 20.413 105.118C20.5025 95.7707 20.4648 86.2374 20.7006 76.9093C20.7807 73.8571 21.2617 71.3725 21.0731 68.3108C20.5874 60.4514 20.9128 51.9388 20.9882 44.0079C21.0165 40.9748 21.0448 37.9465 21.0731 34.9182C21.0967 32.3906 21.1202 29.8678 21.1438 27.345L21.1533 26.334L15.2732 30.0347V30.0395Z" fill="url(#paint13_radial_179_38106)"/>
<path style="mix-blend-mode:screen" fill-rule="evenodd" clip-rule="evenodd" d="M10.0469 17.4902C13.1448 21.1242 15.7571 23.1653 19.9066 24.8583C20.2744 25.0062 20.6517 25.0634 21.0147 25.0253C22.1228 24.9156 27.6398 20.9144 28.9459 20.0417C27.7246 21.1958 22.7405 25.5499 22.2266 26.6849C22.0757 27.0187 21.9908 27.3811 21.9767 27.777L20.845 62.5907L20.2744 28.4351C20.2603 27.5004 19.7746 26.7135 18.9683 26.2652C14.9272 24.0333 12.2819 21.1194 10.0516 17.4998L10.0469 17.4902Z" fill="url(#paint14_radial_179_38106)"/>
</g>
<g clip-path="url(#clip5_179_38106)">
<path fill-rule="evenodd" clip-rule="evenodd" d="M21.0685 16.9745C21.0402 27.8155 21.0119 38.6736 20.9836 49.5146C20.9082 77.8891 20.5828 108.38 21.0685 136.516C21.2571 147.476 20.7714 156.354 20.696 167.298C20.4602 200.674 20.4979 234.819 20.4084 268.281C20.3612 286.361 20.314 304.441 20.2622 322.52C20.2009 346.115 19.984 370.955 20.1066 394.413C20.149 402.761 20.6111 411.212 20.3989 419.099C19.7435 443.137 19.9038 463.283 20.2339 487.236C20.3706 497.274 19.8614 506.049 19.7765 516.208C19.5643 541.731 19.6162 568.125 19.5455 593.734C19.5124 605.787 19.4794 617.84 19.4511 629.893C19.3898 654 19.3238 678.106 19.2578 702.212L27.9529 728.572C28.0189 703.902 28.0849 679.233 28.1462 654.563C28.1651 647.239 28.1839 639.898 28.2028 632.591C28.2641 609.457 28.3254 586.324 28.3867 563.191C28.4103 554.177 28.5564 542.909 28.3914 534.134C28.2924 528.653 27.637 519.298 27.967 514.671C28.3254 509.652 28.4669 507.125 28.5282 501.867C28.6555 491.009 28.6083 479.314 28.6366 468.37C28.6979 445.63 28.7592 422.889 28.8158 400.132C28.8959 369.299 28.9761 338.466 29.061 307.633C29.0798 299.916 29.0987 292.2 29.1223 284.5C29.1459 276.032 29.4005 256.484 28.8158 249.297C28.4857 245.182 28.0048 244.346 28.283 240.06C28.7451 233.027 29.1364 229.817 29.2496 222.186C29.3958 211.942 29.3816 201.05 29.3345 190.755C29.2826 179.76 28.6366 169.688 28.7545 159.12C28.9478 141.825 29.4995 125.18 29.5797 107.578C29.806 58.7167 29.8437 9.61625 29.9758 -39.2793L21.1392 -13.7047L21.1298 -10.0854C21.1062 -1.05404 21.0826 7.99437 21.0591 17.0257L21.0685 16.9745Z" fill="url(#paint15_radial_179_38106)"/>
<path fill-rule="evenodd" clip-rule="evenodd" d="M15.2732 -0.521801L13.4531 688.523L19.2624 702.181C19.3284 678.075 19.3897 653.968 19.4557 629.862C19.4888 617.826 19.5217 605.756 19.55 593.702C19.6161 568.094 19.5689 541.7 19.7811 516.176C19.866 506.018 20.3752 497.243 20.2385 487.204C19.9037 463.252 19.7481 443.106 20.4035 419.068C20.6157 411.198 20.1583 402.73 20.1112 394.381C19.9886 370.924 20.2008 346.083 20.2668 322.489C20.3186 304.41 20.3658 286.33 20.413 268.25C20.5025 234.788 20.4648 200.66 20.7006 167.266C20.7807 156.34 21.2617 147.445 21.0731 136.485C20.5874 108.349 20.9128 77.875 20.9882 49.4835C21.0165 38.6254 21.0448 27.7843 21.0731 16.9433C21.0967 7.89492 21.1202 -1.13641 21.1438 -10.1677L21.1533 -13.7871L15.2732 -0.538871V-0.521801Z" fill="url(#paint16_radial_179_38106)"/>
<path style="mix-blend-mode:screen" fill-rule="evenodd" clip-rule="evenodd" d="M10.0469 -45.4551C13.1448 -32.4459 15.7571 -25.1388 19.9066 -19.0781C20.2744 -18.5489 20.6517 -18.344 21.0147 -18.4806C22.1228 -18.8732 27.6398 -33.197 28.9459 -36.3213C27.7246 -32.1898 22.7405 -16.6026 22.2266 -12.5394C22.0757 -11.3443 21.9908 -10.0468 21.9767 -8.62977L20.845 115.999L20.2744 -6.27377C20.2603 -9.61997 19.7746 -12.4369 18.9683 -14.0417C14.9272 -22.0317 12.2819 -32.4629 10.0516 -45.4209L10.0469 -45.4551Z" fill="url(#paint17_radial_179_38106)"/>
</g>
<g clip-path="url(#clip6_179_38106)">
<path fill-rule="evenodd" clip-rule="evenodd" d="M21.0685 470.923C21.0402 473.951 21.0119 476.984 20.9836 480.013C20.9082 487.939 20.5828 496.456 21.0685 504.315C21.2571 507.377 20.7714 509.857 20.696 512.914C20.4602 522.237 20.4979 531.775 20.4084 541.123C20.3612 546.173 20.314 551.223 20.2622 556.274C20.2009 562.864 19.984 569.803 20.1066 576.356C20.149 578.688 20.6111 581.049 20.3989 583.252C19.7435 589.967 19.9038 595.594 20.2339 602.285C20.3706 605.089 19.8614 607.54 19.7765 610.378C19.5643 617.508 19.6162 624.881 19.5455 632.034C19.5124 635.401 19.4794 638.768 19.4511 642.135C19.3898 648.869 19.3238 655.603 19.2578 662.336L27.9529 669.7C28.0189 662.808 28.0849 655.917 28.1462 649.026C28.1651 646.98 28.1839 644.929 28.2028 642.888C28.2641 636.426 28.3254 629.964 28.3867 623.502C28.4103 620.984 28.5564 617.837 28.3914 615.385C28.2924 613.855 27.637 611.241 27.967 609.949C28.3254 608.547 28.4669 607.841 28.5282 606.372C28.6555 603.339 28.6083 600.072 28.6366 597.015C28.6979 590.663 28.7592 584.311 28.8158 577.954C28.8959 569.341 28.9761 560.728 29.061 552.115C29.0798 549.96 29.0987 547.804 29.1223 545.653C29.1459 543.288 29.4005 537.827 28.8158 535.819C28.4857 534.67 28.0048 534.436 28.283 533.239C28.7451 531.275 29.1364 530.378 29.2496 528.246C29.3958 525.385 29.3816 522.342 29.3345 519.467C29.2826 516.395 28.6366 513.582 28.7545 510.63C28.9478 505.799 29.4995 501.149 29.5797 496.232C29.806 482.583 29.8437 468.867 29.9758 455.209L21.1392 462.353L21.1298 463.364C21.1062 465.887 21.0826 468.414 21.0591 470.937L21.0685 470.923Z" fill="url(#paint18_radial_179_38106)"/>
<path fill-rule="evenodd" clip-rule="evenodd" d="M19.2565 662.331C16.0407 663.533 13.103 665.44 10.5285 668.016C7.82657 670.72 5.85556 673.843 4.64844 677.277L12.0232 685.651C12.0232 681.23 13.5934 677.425 16.6961 674.311C19.8035 671.197 23.5805 669.651 27.9516 669.69L19.2565 662.326V662.331Z" fill="url(#paint19_radial_179_38106)"/>
<path fill-rule="evenodd" clip-rule="evenodd" d="M4.64926 677.268C-3.99394 677.841 -12.6277 678.308 -21.2756 678.69C-24.8121 678.847 -27.8346 679.162 -31.3287 679.5C-34.6058 679.82 -37.4445 679.352 -40.7593 679.41C-51.416 679.605 -61.8793 680.006 -72.5689 679.939C-76.4261 679.915 -80.3021 679.252 -84.0649 679.496C-87.4269 679.715 -90.1901 679.982 -93.637 679.972C-120.288 679.92 -147.382 679.023 -173.977 677.264L-181.352 685.638L-180.998 685.662C-168.224 686.587 -155.431 687.264 -142.634 687.765C-131.463 688.204 -119.967 688.614 -108.802 688.671C-104.162 688.695 -98.6919 687.899 -94.2359 688.437C-90.7418 688.862 -88.172 688.867 -84.6638 688.867C-70.7205 688.867 -56.782 688.685 -42.8388 688.304C-40.4198 688.242 -37.1333 688.266 -34.8086 687.965C-32.9319 687.722 -32.7763 687.217 -30.711 687.441C-28.5891 687.67 -27.3065 687.784 -25.161 687.708C-12.8116 687.269 -0.301824 686.539 12.0288 685.643L4.65398 677.268H4.64926Z" fill="url(#paint20_radial_179_38106)"/>
<path fill-rule="evenodd" clip-rule="evenodd" d="M15.2732 466.04L13.4531 658.516L19.2624 662.332C19.3284 655.598 19.3897 648.864 19.4557 642.13C19.4888 638.768 19.5217 635.396 19.55 632.029C19.6161 624.876 19.5689 617.503 19.7811 610.373C19.866 607.536 20.3752 605.085 20.2385 602.28C19.9037 595.589 19.7481 589.962 20.4035 583.247C20.6157 581.049 20.1583 578.683 20.1112 576.351C19.9886 569.799 20.2008 562.86 20.2668 556.269C20.3186 551.219 20.3658 546.168 20.413 541.118C20.5025 531.771 20.4648 522.237 20.7006 512.909C20.7807 509.857 21.2617 507.372 21.0731 504.311C20.5874 496.451 20.9128 487.939 20.9882 480.008C21.0165 476.975 21.0448 473.947 21.0731 470.918C21.0967 468.391 21.1202 465.868 21.1438 463.345L21.1533 462.334L15.2732 466.035V466.04Z" fill="url(#paint21_radial_179_38106)"/>
<path fill-rule="evenodd" clip-rule="evenodd" d="M6.41795 663.809C4.12159 666.112 2.19774 668.726 0.726562 671.602L4.6497 677.267C5.85683 673.838 7.82784 670.715 10.5297 668.006C13.0996 665.43 16.0419 663.523 19.2578 662.321L13.4485 658.506C10.8739 659.913 8.51627 661.701 6.41795 663.804V663.809Z" fill="url(#paint22_radial_179_38106)"/>
<path fill-rule="evenodd" clip-rule="evenodd" d="M0.726359 671.607C-27.6976 673.401 -56.1877 674.097 -84.6635 674.097C-113.139 674.097 -141.629 673.401 -170.053 671.607L-173.977 677.273C-147.382 679.033 -120.288 679.934 -93.6368 679.982C-90.1852 679.987 -87.422 679.724 -84.0647 679.505C-80.3018 679.257 -76.4306 679.92 -72.5687 679.948C-61.8791 680.015 -51.4205 679.619 -40.7591 679.419C-37.4442 679.357 -34.6056 679.829 -31.3284 679.51C-27.8344 679.166 -24.8119 678.856 -21.2754 678.699C-12.6227 678.313 -3.98898 677.845 4.6495 677.278L0.726359 671.612V671.607Z" fill="url(#paint23_radial_179_38106)"/>
<path style="mix-blend-mode:screen" fill-rule="evenodd" clip-rule="evenodd" d="M12.4444 666.271C9.36531 669.052 6.99821 672.218 5.81467 676.038C5.7015 676.406 5.67321 676.773 5.72979 677.13C5.89483 678.156 8.65802 681.642 9.40304 682.682C8.36567 681.699 5.53647 678.695 4.38122 678.266C3.98984 678.118 3.57017 678.056 3.12222 678.08C-7.19021 678.552 -16.6444 678.633 -27.1172 679.11C-19.7424 678.156 2.75442 677.331 4.0087 676.506C4.39064 676.253 4.70657 675.895 4.92348 675.447C6.60685 671.99 8.94565 668.852 12.4491 666.281L12.4444 666.271Z" fill="url(#paint24_radial_179_38106)"/>
</g>
</g>
<defs>
<radialGradient id="paint0_radial_179_38106" cx="0" cy="0" r="1" gradientUnits="userSpaceOnUse" gradientTransform="translate(-141.314 -56.415) scale(193.436 118.09)">
<stop offset="0.72" stop-color="#262E44"/>
<stop offset="0.76" stop-color="#313A51"/>
<stop offset="0.85" stop-color="#46536B"/>
<stop offset="0.94" stop-color="#53627B"/>
<stop offset="1" stop-color="#586881"/>
</radialGradient>
<radialGradient id="paint1_radial_179_38106" cx="0" cy="0" r="1" gradientUnits="userSpaceOnUse" gradientTransform="translate(-139.115 14.3825) scale(248.322 151.597)">
<stop stop-color="#38465E"/>
<stop offset="1" stop-color="#1F263F"/>
</radialGradient>
<radialGradient id="paint2_radial_179_38106" cx="0" cy="0" r="1" gradientUnits="userSpaceOnUse" gradientTransform="translate(5.69288 628.895) scale(56.7529 106.924)">
<stop stop-color="#506283"/>
<stop offset="1" stop-color="#39456F"/>
</radialGradient>
<radialGradient id="paint3_radial_179_38106" cx="0" cy="0" r="1" gradientUnits="userSpaceOnUse" gradientTransform="translate(5.49166 695.73) scale(71.1814 134.108)">
<stop stop-color="#20377D"/>
<stop offset="0.21" stop-color="#152554"/>
<stop offset="0.44" stop-color="#0C152F"/>
<stop offset="0.66" stop-color="#050915"/>
<stop offset="0.85" stop-color="#010205"/>
<stop offset="1"/>
</radialGradient>
<radialGradient id="paint4_radial_179_38106" cx="0" cy="0" r="1" gradientUnits="userSpaceOnUse" gradientTransform="translate(-151.539 629.221) scale(261.181 159.447)">
<stop stop-color="#313D50"/>
<stop offset="1" stop-color="#192033"/>
</radialGradient>
<radialGradient id="paint5_radial_179_38106" cx="0" cy="0" r="1" gradientUnits="userSpaceOnUse" gradientTransform="translate(5.69288 654.571) scale(56.7529 34.6468)">
<stop stop-color="#506283"/>
<stop offset="1" stop-color="#39456F"/>
</radialGradient>
<radialGradient id="paint6_radial_179_38106" cx="0" cy="0" r="1" gradientUnits="userSpaceOnUse" gradientTransform="translate(-52.4706 641.458) scale(341.877 208.711)">
<stop stop-color="#607099"/>
<stop offset="1" stop-color="#495586"/>
</radialGradient>
<radialGradient id="paint7_radial_179_38106" cx="0" cy="0" r="1" gradientUnits="userSpaceOnUse" gradientTransform="translate(5.49166 676.234) scale(71.1814 43.4552)">
<stop stop-color="#20377D"/>
<stop offset="0.21" stop-color="#152554"/>
<stop offset="0.44" stop-color="#0C152F"/>
<stop offset="0.66" stop-color="#050915"/>
<stop offset="0.85" stop-color="#010205"/>
<stop offset="1"/>
</radialGradient>
<radialGradient id="paint8_radial_179_38106" cx="0" cy="0" r="1" gradientUnits="userSpaceOnUse" gradientTransform="translate(-84.6656 -56.415) scale(116.761 118.09)">
<stop offset="0.72" stop-color="#262E44"/>
<stop offset="0.76" stop-color="#313A51"/>
<stop offset="0.85" stop-color="#46536B"/>
<stop offset="0.94" stop-color="#53627B"/>
<stop offset="1" stop-color="#586881"/>
</radialGradient>
<radialGradient id="paint9_radial_179_38106" cx="0" cy="0" r="1" gradientUnits="userSpaceOnUse" gradientTransform="translate(24.2524 26.4224) scale(46.3234 46.8507)">
<stop stop-color="#435371"/>
<stop offset="1" stop-color="#28304F"/>
</radialGradient>
<radialGradient id="paint10_radial_179_38106" cx="0" cy="0" r="1" gradientUnits="userSpaceOnUse" gradientTransform="translate(-105.788 112.786) scale(244.07 246.848)">
<stop stop-color="#344156"/>
<stop offset="1" stop-color="#19202F"/>
</radialGradient>
<radialGradient id="paint11_radial_179_38106" cx="0" cy="0" r="1" gradientUnits="userSpaceOnUse" gradientTransform="translate(-83.337 14.3825) scale(149.891 151.597)">
<stop stop-color="#38465E"/>
<stop offset="1" stop-color="#1F263F"/>
</radialGradient>
<radialGradient id="paint12_radial_179_38106" cx="0" cy="0" r="1" gradientUnits="userSpaceOnUse" gradientTransform="translate(39.9039 37.6033) scale(53.9763 54.5908)">
<stop stop-color="#4D5F7E"/>
<stop offset="1" stop-color="#2C3751"/>
</radialGradient>
<radialGradient id="paint13_radial_179_38106" cx="0" cy="0" r="1" gradientUnits="userSpaceOnUse" gradientTransform="translate(-34.7799 103.706) scale(219.182 221.678)">
<stop stop-color="#677A9E"/>
<stop offset="1" stop-color="#39456F"/>
</radialGradient>
<radialGradient id="paint14_radial_179_38106" cx="0" cy="0" r="1" gradientUnits="userSpaceOnUse" gradientTransform="translate(20.265 26.3797) scale(43.928 44.428)">
<stop stop-color="#20377D"/>
<stop offset="0.21" stop-color="#152554"/>
<stop offset="0.44" stop-color="#0C152F"/>
<stop offset="0.66" stop-color="#050915"/>
<stop offset="0.85" stop-color="#010205"/>
<stop offset="1"/>
</radialGradient>
<radialGradient id="paint15_radial_179_38106" cx="0" cy="0" r="1" gradientUnits="userSpaceOnUse" gradientTransform="translate(-105.788 295.717) scale(244.07 883.688)">
<stop stop-color="#344156"/>
<stop offset="1" stop-color="#19202F"/>
</radialGradient>
<radialGradient id="paint16_radial_179_38106" cx="0" cy="0" r="1" gradientUnits="userSpaceOnUse" gradientTransform="translate(-34.7799 263.197) scale(219.182 793.58)">
<stop stop-color="#677A9E"/>
<stop offset="1" stop-color="#39456F"/>
</radialGradient>
<radialGradient id="paint17_radial_179_38106" cx="0" cy="0" r="1" gradientUnits="userSpaceOnUse" gradientTransform="translate(20.265 -13.632) scale(43.928 159.047)">
<stop stop-color="#20377D"/>
<stop offset="0.21" stop-color="#152554"/>
<stop offset="0.44" stop-color="#0C152F"/>
<stop offset="0.66" stop-color="#050915"/>
<stop offset="0.85" stop-color="#010205"/>
<stop offset="1"/>
</radialGradient>
<radialGradient id="paint18_radial_179_38106" cx="0" cy="0" r="1" gradientUnits="userSpaceOnUse" gradientTransform="translate(-105.788 548.786) scale(244.07 246.848)">
<stop stop-color="#344156"/>
<stop offset="1" stop-color="#19202F"/>
</radialGradient>
<radialGradient id="paint19_radial_179_38106" cx="0" cy="0" r="1" gradientUnits="userSpaceOnUse" gradientTransform="translate(3.18197 690.377) scale(37.4774 37.904)">
<stop stop-color="#303B54"/>
<stop offset="1" stop-color="#181D2A"/>
</radialGradient>
<radialGradient id="paint20_radial_179_38106" cx="0" cy="0" r="1" gradientUnits="userSpaceOnUse" gradientTransform="translate(-90.8361 629.221) scale(157.652 159.447)">
<stop stop-color="#313D50"/>
<stop offset="1" stop-color="#192033"/>
</radialGradient>
<radialGradient id="paint21_radial_179_38106" cx="0" cy="0" r="1" gradientUnits="userSpaceOnUse" gradientTransform="translate(-34.7799 539.706) scale(219.182 221.678)">
<stop stop-color="#677A9E"/>
<stop offset="1" stop-color="#39456F"/>
</radialGradient>
<radialGradient id="paint22_radial_179_38106" cx="0" cy="0" r="1" gradientUnits="userSpaceOnUse" gradientTransform="translate(4.06973 654.571) scale(34.2568 34.6468)">
<stop stop-color="#506283"/>
<stop offset="1" stop-color="#39456F"/>
</radialGradient>
<radialGradient id="paint23_radial_179_38106" cx="0" cy="0" r="1" gradientUnits="userSpaceOnUse" gradientTransform="translate(-31.0361 641.458) scale(206.362 208.711)">
<stop stop-color="#607099"/>
<stop offset="1" stop-color="#495586"/>
</radialGradient>
<radialGradient id="paint24_radial_179_38106" cx="0" cy="0" r="1" gradientUnits="userSpaceOnUse" gradientTransform="translate(3.9474 676.234) scale(42.9661 43.4552)">
<stop stop-color="#20377D"/>
<stop offset="0.21" stop-color="#152554"/>
<stop offset="0.44" stop-color="#0C152F"/>
<stop offset="0.66" stop-color="#050915"/>
<stop offset="0.85" stop-color="#010205"/>
<stop offset="1"/>
</radialGradient>
<clipPath id="clip0_179_38106">
<rect width="30" height="689" fill="white"/>
</clipPath>
<clipPath id="clip1_179_38106">
<rect width="289" height="22" fill="white" transform="translate(-286 -0.119141)"/>
</clipPath>
<clipPath id="clip2_179_38106">
<rect width="289" height="645" fill="white" transform="translate(-286 21.8809)"/>
</clipPath>
<clipPath id="clip3_179_38106">
<rect width="289" height="22" fill="white" transform="translate(-286 666.881)"/>
</clipPath>
<clipPath id="clip4_179_38106">
<rect width="27" height="42" fill="white" transform="translate(3 -0.119141)"/>
</clipPath>
<clipPath id="clip5_179_38106">
<rect width="27" height="605" fill="white" transform="translate(3 41.8809)"/>
</clipPath>
<clipPath id="clip6_179_38106">
<rect width="27" height="42" fill="white" transform="translate(3 646.881)"/>
</clipPath>
</defs>
</svg>
