<svg width="30" height="689" viewBox="0 0 30 689" fill="none" xmlns="http://www.w3.org/2000/svg">
<g clip-path="url(#clip0_179_38418)">
<g clip-path="url(#clip1_179_38418)">
<path fill-rule="evenodd" clip-rule="evenodd" d="M8.52322 25.4574C15.0775 22.844 20.255 17.4502 22.6456 10.7307L15.318 2.35156C15.318 11.0884 8.32989 18.2276 -0.308594 18.3086L8.52793 25.4526L8.52322 25.4574Z" fill="url(#paint0_radial_179_38418)"/>
<path fill-rule="evenodd" clip-rule="evenodd" d="M22.6401 10.734C53.1247 8.70715 83.8026 7.92026 114.33 7.92026C144.857 7.92026 175.535 8.70715 206.024 10.734L213.352 2.35484C184.522 0.261245 150.619 -0.945312 114.334 -0.945312C78.0499 -0.945312 44.142 0.261245 15.3125 2.35484L22.6401 10.734Z" fill="url(#paint1_radial_179_38418)"/>
<path fill-rule="evenodd" clip-rule="evenodd" d="M10.4149 225.445C10.3724 220.733 10.3253 216.016 10.2828 211.305C10.2498 207.938 10.2168 204.571 10.1838 201.204C10.1555 198.004 10.1225 194.809 10.0942 191.609C10.0094 182.624 10.0329 173.629 9.83489 164.645C9.78302 162.184 9.17946 159.494 9.23604 157.286C9.3162 153.972 9.64156 150.648 9.66514 147.262C9.74058 135.501 9.45295 123.588 9.33978 111.814C9.30677 108.447 9.27848 105.08 9.24547 101.713C9.1606 92.9999 8.93426 84.0389 9.02857 75.3498C9.09458 70.9623 9.5001 66.6511 9.54725 62.2064C9.57554 59.4261 8.99084 57.59 8.83995 54.9671C8.48159 48.7626 8.67492 41.8332 8.61833 35.5524C8.58533 32.1855 8.55703 28.8186 8.52403 25.4517L-0.3125 18.3125C-0.204047 29.8773 -0.0955949 41.4422 0.017573 53.007C0.0552956 57.0273 -0.0861642 62.0872 0.357077 65.9835C0.569266 67.872 1.46518 71.6633 0.988931 73.3373C0.234478 75.9936 0.253339 77.0762 0.272201 79.8326C0.479675 110.192 0.823894 140.552 1.13039 170.911C1.15868 173.882 1.02194 178.58 1.44632 181.369C1.59249 182.323 2.16776 183.83 2.09232 184.598C1.9037 186.534 1.48404 187.994 1.3803 190.125C1.21527 193.745 1.38973 197.98 1.42274 201.662C1.52176 212.044 1.62078 222.426 1.71981 232.813L10.4149 225.449V225.445Z" fill="url(#paint2_radial_179_38418)"/>
<path fill-rule="evenodd" clip-rule="evenodd" d="M14.4035 29.157C19.595 26.2003 23.8341 21.7555 26.5643 16.4L22.6458 10.7344C20.2552 17.4539 15.0777 22.8429 8.52344 25.4611L14.4035 29.1618V29.157Z" fill="url(#paint3_radial_179_38418)"/>
<path fill-rule="evenodd" clip-rule="evenodd" d="M26.5669 16.4012C55.783 14.5508 85.0652 13.8307 114.338 13.8307C143.611 13.8307 172.893 14.5556 202.109 16.4012L206.032 10.7356C175.548 8.70876 144.87 7.92188 114.338 7.92188C83.8062 7.92188 53.133 8.70876 22.6484 10.7356L26.5669 16.4012Z" fill="url(#paint4_radial_179_38418)"/>
<path fill-rule="evenodd" clip-rule="evenodd" d="M16.2197 221.631L14.3995 29.1539L8.51953 25.4531C8.55254 28.82 8.58555 32.187 8.61384 35.5539C8.67042 41.8394 8.47709 48.764 8.83546 54.9685C8.98635 57.5962 9.57105 59.4275 9.54276 62.2078C9.4956 66.6525 9.09009 70.9637 9.02407 75.3512C8.92976 84.0403 9.1561 92.9965 9.24098 101.714C9.27398 105.081 9.30699 108.443 9.33528 111.815C9.44845 123.594 9.73609 135.503 9.66064 147.263C9.63706 150.654 9.31171 153.973 9.23155 157.287C9.17496 159.491 9.77852 162.185 9.83039 164.646C10.0284 173.631 10.0096 182.625 10.0897 191.61C10.118 194.81 10.151 198.005 10.1793 201.205C10.2123 204.572 10.2453 207.939 10.2783 211.306C10.3255 216.018 10.3679 220.734 10.4104 225.446L16.2197 221.631Z" fill="url(#paint5_radial_179_38418)"/>
</g>
<g clip-path="url(#clip2_179_38418)">
<path fill-rule="evenodd" clip-rule="evenodd" d="M10.4149 701.296C10.3724 684.428 10.3253 667.543 10.2828 650.676C10.2498 638.623 10.2168 626.569 10.1838 614.516C10.1555 603.061 10.1225 591.622 10.0942 580.166C10.0094 548.002 10.0329 515.803 9.83489 483.639C9.78302 474.829 9.17946 465.2 9.23604 457.296C9.3162 445.43 9.64156 433.531 9.66514 421.41C9.74058 379.309 9.45295 336.662 9.33978 294.51C9.30677 282.457 9.27848 270.404 9.24547 258.35C9.1606 227.159 8.93426 195.08 9.02857 163.974C9.09458 148.267 9.5001 132.834 9.54725 116.922C9.57554 106.969 8.99084 100.396 8.83995 91.0061C8.48159 68.7948 8.67492 43.9885 8.61833 21.5041C8.58533 9.45092 8.55703 -2.60224 8.52403 -14.6554L-0.3125 -40.2129C-0.204047 1.18784 -0.0955949 42.5886 0.017573 83.9893C0.0552956 98.3814 -0.0861642 116.495 0.357077 130.444C0.569266 137.204 1.46518 150.777 0.988931 156.769C0.234478 166.279 0.253339 170.154 0.272201 180.022C0.479675 288.705 0.823894 397.389 1.13039 506.072C1.15868 516.708 1.02194 533.524 1.44632 543.512C1.59249 546.926 2.16776 552.321 2.09232 555.07C1.9037 562.001 1.48404 567.226 1.3803 574.857C1.21527 587.815 1.38973 602.975 1.42274 616.155C1.52176 653.322 1.62078 690.489 1.71981 727.673L10.4149 701.313V701.296Z" fill="url(#paint6_radial_179_38418)"/>
<path fill-rule="evenodd" clip-rule="evenodd" d="M16.2197 687.639L14.3995 -1.40607L8.51953 -14.6543C8.55254 -2.60114 8.58555 9.45203 8.61384 21.5052C8.67042 44.0067 8.47709 68.7959 8.83546 91.0072C8.98635 100.414 9.57105 106.97 9.54276 116.923C9.4956 132.835 9.09009 148.268 9.02407 163.975C8.92976 195.081 9.1561 227.143 9.24098 258.352C9.27398 270.405 9.30699 282.441 9.33528 294.511C9.44845 336.68 9.73609 379.31 9.66064 421.411C9.63706 433.549 9.31171 445.432 9.23155 457.297C9.17496 465.184 9.77852 474.83 9.83039 483.64C10.0284 515.804 10.0096 548.003 10.0897 580.167C10.118 591.623 10.151 603.062 10.1793 614.517C10.2123 626.571 10.2453 638.624 10.2783 650.677C10.3255 667.544 10.3679 684.429 10.4104 701.297L16.2197 687.639Z" fill="url(#paint7_radial_179_38418)"/>
<path fill-rule="evenodd" clip-rule="evenodd" d="M9.19782 244.165C8.74515 243.704 7.25511 250.311 6.81658 255.587C5.78392 268.135 8.26419 297.005 9.35814 297.039C10.9755 297.09 14.1961 266.735 13.4888 260.435C12.6353 252.855 10.7869 245.787 9.19782 244.165Z" fill="url(#paint8_radial_179_38418)"/>
<path style="mix-blend-mode:multiply" fill-rule="evenodd" clip-rule="evenodd" d="M6.59072 265.526C8.04776 251.715 12.4802 254.72 13.0507 273.226C13.5081 267.609 13.7297 262.59 13.4892 260.422C12.6358 252.842 10.7874 245.774 9.1983 244.152C8.74563 243.691 7.25558 250.298 6.81706 255.573C6.59072 258.271 6.53414 261.736 6.59072 265.509V265.526Z" fill="url(#paint9_radial_179_38418)"/>
</g>
<g clip-path="url(#clip3_179_38418)">
<path fill-rule="evenodd" clip-rule="evenodd" d="M203.649 676.388C195.006 676.96 186.372 677.427 177.724 677.809C174.188 677.966 171.165 678.281 167.671 678.619C164.394 678.939 161.556 678.472 158.241 678.529C147.584 678.724 137.121 679.125 126.431 679.058C122.574 679.034 118.698 678.371 114.935 678.615C111.573 678.834 108.81 679.101 105.363 679.092C78.7119 679.039 51.6177 678.143 25.0232 676.383L17.6484 684.757L18.0021 684.781C30.7759 685.706 43.5686 686.383 56.366 686.884C67.5366 687.323 79.0326 687.733 90.1985 687.79C94.8384 687.814 100.308 687.018 104.764 687.557C108.258 687.981 110.828 687.986 114.336 687.986C128.279 687.986 142.218 687.805 156.161 687.423C158.58 687.361 161.867 687.385 164.191 687.084C166.068 686.841 166.224 686.336 168.289 686.56C170.411 686.789 171.693 686.903 173.839 686.827C186.188 686.388 198.698 685.659 211.029 684.762L203.654 676.388H203.649Z" fill="url(#paint10_radial_179_38418)"/>
<path fill-rule="evenodd" clip-rule="evenodd" d="M25.0211 676.391C23.8187 672.962 21.843 669.839 19.1411 667.13C16.5712 664.555 13.6289 662.647 10.4177 661.445L1.72266 668.809C6.09377 668.766 9.87074 670.316 12.9781 673.43C16.0808 676.544 17.651 680.345 17.651 684.771L25.0258 676.396L25.0211 676.391Z" fill="url(#paint11_radial_179_38418)"/>
<path fill-rule="evenodd" clip-rule="evenodd" d="M10.4149 661.445C10.3724 656.733 10.3253 652.016 10.2828 647.305C10.2498 643.938 10.2168 640.571 10.1838 637.204C10.1555 634.004 10.1225 630.809 10.0942 627.609C10.0094 618.624 10.0329 609.629 9.83489 600.645C9.78302 598.184 9.17946 595.494 9.23604 593.286C9.3162 589.972 9.64156 586.648 9.66514 583.262C9.74058 571.501 9.45295 559.588 9.33978 547.814C9.30677 544.447 9.27848 541.08 9.24547 537.713C9.1606 529 8.93426 520.039 9.02857 511.35C9.09458 506.962 9.5001 502.651 9.54725 498.206C9.57554 495.426 8.99084 493.59 8.83995 490.967C8.48159 484.763 8.67492 477.833 8.61833 471.552C8.58533 468.186 8.55703 464.819 8.52403 461.452L-0.3125 454.312C-0.204047 465.877 -0.0955949 477.442 0.017573 489.007C0.0552956 493.027 -0.0861642 498.087 0.357077 501.983C0.569266 503.872 1.46518 507.663 0.988931 509.337C0.234478 511.994 0.253339 513.076 0.272201 515.833C0.479675 546.192 0.823894 576.552 1.13039 606.911C1.15868 609.882 1.02194 614.58 1.44632 617.369C1.59249 618.323 2.16776 619.83 2.09232 620.598C1.9037 622.534 1.48404 623.994 1.3803 626.125C1.21527 629.745 1.38973 633.98 1.42274 637.662C1.52176 648.044 1.62078 658.426 1.71981 668.813L10.4149 661.449V661.445Z" fill="url(#paint12_radial_179_38418)"/>
<path fill-rule="evenodd" clip-rule="evenodd" d="M199.726 670.727C171.302 672.52 142.812 673.216 114.336 673.216C85.8606 673.216 57.3706 672.52 28.9466 670.727L25.0234 676.392C51.6179 678.152 78.7122 679.053 105.363 679.101C108.815 679.106 111.578 678.843 114.935 678.624C118.698 678.376 122.569 679.039 126.431 679.068C137.121 679.134 147.58 678.738 158.241 678.538C161.556 678.476 164.394 678.948 167.672 678.629C171.166 678.285 174.188 677.975 177.725 677.818C186.377 677.432 195.011 676.964 203.65 676.397L199.726 670.731V670.727Z" fill="url(#paint13_radial_179_38418)"/>
<path fill-rule="evenodd" clip-rule="evenodd" d="M28.9492 670.724C27.478 667.848 25.5542 665.235 23.2578 662.931C21.1595 660.828 18.8018 659.044 16.2273 657.633L10.418 661.448C13.6338 662.65 16.5762 664.557 19.1413 667.133C21.8432 669.837 23.8189 672.96 25.0213 676.394L28.9445 670.728L28.9492 670.724Z" fill="url(#paint14_radial_179_38418)"/>
<path fill-rule="evenodd" clip-rule="evenodd" d="M16.2197 657.631L14.3995 465.154L8.51953 461.453C8.55254 464.82 8.58555 468.187 8.61384 471.554C8.67042 477.839 8.47709 484.764 8.83546 490.968C8.98635 493.596 9.57105 495.427 9.54276 498.208C9.4956 502.653 9.09009 506.964 9.02407 511.351C8.92976 520.04 9.1561 528.997 9.24098 537.714C9.27398 541.081 9.30699 544.443 9.33528 547.815C9.44845 559.594 9.73609 571.503 9.66064 583.263C9.63706 586.654 9.31171 589.973 9.23155 593.287C9.17496 595.491 9.77852 598.185 9.83039 600.646C10.0284 609.631 10.0096 618.625 10.0897 627.61C10.118 630.81 10.151 634.005 10.1793 637.205C10.2123 640.572 10.2453 643.939 10.2783 647.306C10.3255 652.018 10.3679 656.734 10.4104 661.446L16.2197 657.631Z" fill="url(#paint15_radial_179_38418)"/>
</g>
<g clip-path="url(#clip4_179_38418)">
<path fill-rule="evenodd" clip-rule="evenodd" d="M19.7773 10.734C70.2807 8.70715 121.104 7.92026 171.678 7.92026C222.252 7.92026 273.076 8.70715 323.587 10.734L335.727 2.35484C287.965 0.261245 231.798 -0.945312 171.686 -0.945312C111.574 -0.945312 55.3992 0.261245 7.6377 2.35484L19.7773 10.734Z" fill="url(#paint16_radial_179_38418)"/>
<path fill-rule="evenodd" clip-rule="evenodd" d="M26.2807 16.4012C74.6828 14.5508 123.194 13.8307 171.69 13.8307C220.186 13.8307 268.697 14.5556 317.099 16.4012L323.599 10.7356C273.095 8.70876 222.272 7.92188 171.69 7.92188C121.108 7.92188 70.2925 8.70876 19.7891 10.7356L26.2807 16.4012Z" fill="url(#paint17_radial_179_38418)"/>
</g>
<g clip-path="url(#clip5_179_38418)">
<path fill-rule="evenodd" clip-rule="evenodd" d="M30.2269 680.578C27.7896 671.703 24.6023 663.638 20.798 656.529C17.3217 650.039 13.4158 644.534 9.15054 640.178L-0.473633 651.952C4.85403 655.661 9.72861 661.548 13.9782 669.495C18.4544 677.84 21.7276 687.481 23.7196 698.077L30.219 680.593L30.2269 680.578Z" fill="url(#paint18_radial_179_38418)"/>
<path style="mix-blend-mode:screen" fill-rule="evenodd" clip-rule="evenodd" d="M10.8003 664.104C15.9014 672.684 19.823 682.457 21.7837 694.245C21.979 695.379 22.0181 696.512 21.9243 697.616C21.6509 700.78 17.0732 711.539 15.8389 714.747C17.5575 711.715 22.2446 702.443 24.1585 701.119C24.8069 700.662 25.5022 700.471 26.2521 700.545C31.486 700.986 36.6887 701.325 41.9226 701.648C46.5785 701.958 47.5706 705.975 51.4062 709.257C54.1872 711.553 57.1244 712.348 59.3508 711.774C61.874 711.024 63.9676 708.58 65.983 705.799C68.4125 702.428 69.9749 703.459 72.834 703.621C81.4427 704.106 90.0982 704.533 98.7146 704.739C89.3795 703.871 80.0131 702.87 70.678 702.149C66.6158 701.825 66.3111 698.308 63.1864 695.349C62.9911 695.173 62.8427 695.055 62.6396 694.922C59.1165 692.803 52.5076 691.081 50.9921 691.39C46.7972 692.465 46.6253 699.735 41.4852 699.043C36.6028 698.381 31.6813 697.748 26.8067 696.968C25.2444 696.718 23.9632 695.07 23.268 692.42C20.4792 681.75 16.6045 672.066 10.8003 664.133V664.104Z" fill="url(#paint19_radial_179_38418)"/>
</g>
<g clip-path="url(#clip6_179_38418)">
<path fill-rule="evenodd" clip-rule="evenodd" d="M319.65 676.388C305.331 676.96 291.028 677.427 276.701 677.809C270.842 677.966 265.835 678.281 260.046 678.619C254.617 678.939 249.914 678.472 244.422 678.529C226.768 678.724 209.433 679.125 191.724 679.058C185.334 679.034 178.912 678.371 172.679 678.615C167.109 678.834 162.531 679.101 156.82 679.092C112.668 679.039 67.7813 678.143 23.7226 676.383L11.5049 684.757L12.0908 684.781C33.253 685.706 54.4465 686.383 75.6478 686.884C94.154 687.323 113.199 687.733 131.698 687.79C139.384 687.814 148.446 687.018 155.828 687.557C161.617 687.981 165.874 687.986 171.686 687.986C194.786 687.986 217.878 687.805 240.977 687.423C244.985 687.361 250.43 687.385 254.281 687.084C257.39 686.841 257.648 686.336 261.069 686.56C264.585 686.789 266.709 686.903 270.264 686.827C290.723 686.388 311.448 685.659 331.876 684.762L319.658 676.388H319.65Z" fill="url(#paint20_radial_179_38418)"/>
<path fill-rule="evenodd" clip-rule="evenodd" d="M313.15 670.727C266.06 672.52 218.861 673.216 171.686 673.216C124.51 673.216 77.3108 672.52 30.2211 670.727L23.7217 676.392C67.7804 678.152 112.667 679.053 156.82 679.101C162.538 679.106 167.116 678.843 172.678 678.624C178.911 678.376 185.325 679.039 191.723 679.068C209.432 679.134 226.759 678.738 244.421 678.538C249.913 678.476 254.616 678.948 260.045 678.629C265.834 678.285 270.841 677.975 276.7 677.818C291.035 677.432 305.338 676.964 319.649 676.397L313.15 670.731V670.727Z" fill="url(#paint21_radial_179_38418)"/>
<path fill-rule="evenodd" clip-rule="evenodd" d="M30.2269 670.724C27.7896 667.848 24.6023 665.235 20.798 662.931C17.3217 660.828 13.4158 659.044 9.15054 657.633L-0.473633 661.448C4.85403 662.65 9.72861 664.557 13.9782 667.133C18.4544 669.837 21.7276 672.96 23.7196 676.394L30.219 670.728L30.2269 670.724Z" fill="url(#paint22_radial_179_38418)"/>
<path style="mix-blend-mode:screen" fill-rule="evenodd" clip-rule="evenodd" d="M10.8003 665.391C15.9014 668.171 19.823 671.338 21.7837 675.158C21.979 675.525 22.0181 675.892 21.9243 676.25C21.6509 677.275 17.0732 680.761 15.8389 681.801C17.5575 680.818 22.2446 677.814 24.1585 677.385C24.8069 677.237 25.5022 677.175 26.2521 677.199C31.486 677.342 36.6887 677.451 41.9226 677.556C46.5785 677.656 47.5706 678.958 51.4062 680.022C54.1872 680.766 57.1244 681.023 59.3508 680.837C61.874 680.594 63.9676 679.803 65.983 678.901C68.4125 677.809 69.9749 678.143 72.834 678.195C81.4427 678.353 90.0982 678.491 98.7146 678.558C89.3795 678.276 80.0131 677.952 70.678 677.718C66.6158 677.614 66.3111 676.474 63.1864 675.515C62.9911 675.458 62.8427 675.42 62.6396 675.377C59.1165 674.69 52.5076 674.132 50.9921 674.232C46.7972 674.58 46.6253 676.936 41.4852 676.712C36.6028 676.498 31.6813 676.293 26.8067 676.04C25.2444 675.959 23.9632 675.425 23.268 674.566C20.4792 671.109 16.6045 667.971 10.8003 665.4V665.391Z" fill="url(#paint23_radial_179_38418)"/>
</g>
</g>
<defs>
<radialGradient id="paint0_radial_179_38418" cx="0" cy="0" r="1" gradientUnits="userSpaceOnUse" gradientTransform="translate(5.85434 27.3316) scale(51.3358 51.9201)">
<stop stop-color="#7082A5"/>
<stop offset="1" stop-color="#505D8B"/>
</radialGradient>
<radialGradient id="paint1_radial_179_38418" cx="0" cy="0" r="1" gradientUnits="userSpaceOnUse" gradientTransform="translate(114.334 -57.2959) scale(116.761 118.09)">
<stop offset="0.72" stop-color="#262E44"/>
<stop offset="0.76" stop-color="#313A51"/>
<stop offset="0.85" stop-color="#46536B"/>
<stop offset="0.94" stop-color="#53627B"/>
<stop offset="1" stop-color="#586881"/>
</radialGradient>
<radialGradient id="paint2_radial_179_38418" cx="0" cy="0" r="1" gradientUnits="userSpaceOnUse" gradientTransform="translate(-56.4485 81.7069) scale(200.067 202.344)">
<stop stop-color="#677A9E"/>
<stop offset="1" stop-color="#39456F"/>
</radialGradient>
<radialGradient id="paint3_radial_179_38418" cx="0" cy="0" r="1" gradientUnits="userSpaceOnUse" gradientTransform="translate(-8.11696 29.343) scale(49.1432 49.7026)">
<stop stop-color="#475979"/>
<stop offset="1" stop-color="#252F51"/>
</radialGradient>
<radialGradient id="paint4_radial_179_38418" cx="0" cy="0" r="1" gradientUnits="userSpaceOnUse" gradientTransform="translate(115.663 13.5016) scale(149.891 151.597)">
<stop stop-color="#38465E"/>
<stop offset="1" stop-color="#1F263F"/>
</radialGradient>
<radialGradient id="paint5_radial_179_38418" cx="0" cy="0" r="1" gradientUnits="userSpaceOnUse" gradientTransform="translate(-81.3688 107.89) scale(259.867 262.825)">
<stop stop-color="#344156"/>
<stop offset="1" stop-color="#19202F"/>
</radialGradient>
<radialGradient id="paint6_radial_179_38418" cx="0" cy="0" r="1" gradientUnits="userSpaceOnUse" gradientTransform="translate(-56.4485 186.731) scale(200.067 724.368)">
<stop stop-color="#677A9E"/>
<stop offset="1" stop-color="#39456F"/>
</radialGradient>
<radialGradient id="paint7_radial_179_38418" cx="0" cy="0" r="1" gradientUnits="userSpaceOnUse" gradientTransform="translate(-81.3688 280.46) scale(259.867 940.881)">
<stop stop-color="#344156"/>
<stop offset="1" stop-color="#19202F"/>
</radialGradient>
<radialGradient id="paint8_radial_179_38418" cx="0" cy="0" r="1" gradientUnits="userSpaceOnUse" gradientTransform="translate(5.88294 313.019) scale(24.3028 87.9915)">
<stop stop-color="#475979"/>
<stop offset="0.34" stop-color="#3F4F70"/>
<stop offset="0.89" stop-color="#2A3758"/>
<stop offset="1" stop-color="#263153"/>
</radialGradient>
<radialGradient id="paint9_radial_179_38418" cx="0" cy="0" r="1" gradientUnits="userSpaceOnUse" gradientTransform="translate(3.52104 297.793) scale(25.1186 90.945)">
<stop offset="0.33" stop-color="#F7F7EA"/>
<stop offset="0.44" stop-color="#EBECE2"/>
<stop offset="0.63" stop-color="#CDD1CF"/>
<stop offset="0.88" stop-color="#9DA5B1"/>
<stop offset="1" stop-color="#858FA2"/>
</radialGradient>
<radialGradient id="paint10_radial_179_38418" cx="0" cy="0" r="1" gradientUnits="userSpaceOnUse" gradientTransform="translate(108.164 628.34) scale(157.652 159.447)">
<stop stop-color="#313D50"/>
<stop offset="1" stop-color="#192033"/>
</radialGradient>
<radialGradient id="paint11_radial_179_38418" cx="0" cy="0" r="1" gradientUnits="userSpaceOnUse" gradientTransform="translate(26.8695 685.596) scale(40.9102 41.3759)">
<stop stop-color="#3A4763"/>
<stop offset="1" stop-color="#232C47"/>
</radialGradient>
<radialGradient id="paint12_radial_179_38418" cx="0" cy="0" r="1" gradientUnits="userSpaceOnUse" gradientTransform="translate(-56.4485 517.707) scale(200.067 202.344)">
<stop stop-color="#677A9E"/>
<stop offset="1" stop-color="#39456F"/>
</radialGradient>
<radialGradient id="paint13_radial_179_38418" cx="0" cy="0" r="1" gradientUnits="userSpaceOnUse" gradientTransform="translate(167.964 640.577) scale(206.362 208.711)">
<stop stop-color="#607099"/>
<stop offset="1" stop-color="#495586"/>
</radialGradient>
<radialGradient id="paint14_radial_179_38418" cx="0" cy="0" r="1" gradientUnits="userSpaceOnUse" gradientTransform="translate(34.7302 668.964) scale(29.848 30.1878)">
<stop stop-color="#434F73"/>
<stop offset="1" stop-color="#323C59"/>
</radialGradient>
<radialGradient id="paint15_radial_179_38418" cx="0" cy="0" r="1" gradientUnits="userSpaceOnUse" gradientTransform="translate(-81.3688 543.89) scale(259.867 262.825)">
<stop stop-color="#344156"/>
<stop offset="1" stop-color="#19202F"/>
</radialGradient>
<radialGradient id="paint16_radial_179_38418" cx="0" cy="0" r="1" gradientUnits="userSpaceOnUse" gradientTransform="translate(171.686 -57.2959) scale(193.436 118.09)">
<stop offset="0.72" stop-color="#262E44"/>
<stop offset="0.76" stop-color="#313A51"/>
<stop offset="0.85" stop-color="#46536B"/>
<stop offset="0.94" stop-color="#53627B"/>
<stop offset="1" stop-color="#586881"/>
</radialGradient>
<radialGradient id="paint17_radial_179_38418" cx="0" cy="0" r="1" gradientUnits="userSpaceOnUse" gradientTransform="translate(173.885 13.5016) scale(248.322 151.597)">
<stop stop-color="#38465E"/>
<stop offset="1" stop-color="#1F263F"/>
</radialGradient>
<radialGradient id="paint18_radial_179_38418" cx="0" cy="0" r="1" gradientUnits="userSpaceOnUse" gradientTransform="translate(39.8042 675.147) scale(49.4489 93.1633)">
<stop stop-color="#434F73"/>
<stop offset="1" stop-color="#323C59"/>
</radialGradient>
<radialGradient id="paint19_radial_179_38418" cx="0" cy="0" r="1" gradientUnits="userSpaceOnUse" gradientTransform="translate(28.3925 688.52) scale(83.7272 157.745)">
<stop stop-color="#20377D"/>
<stop offset="0.21" stop-color="#152554"/>
<stop offset="0.44" stop-color="#0C152F"/>
<stop offset="0.66" stop-color="#050915"/>
<stop offset="0.85" stop-color="#010205"/>
<stop offset="1"/>
</radialGradient>
<radialGradient id="paint20_radial_179_38418" cx="0" cy="0" r="1" gradientUnits="userSpaceOnUse" gradientTransform="translate(161.461 628.34) scale(261.181 159.447)">
<stop stop-color="#313D50"/>
<stop offset="1" stop-color="#192033"/>
</radialGradient>
<radialGradient id="paint21_radial_179_38418" cx="0" cy="0" r="1" gradientUnits="userSpaceOnUse" gradientTransform="translate(260.529 640.577) scale(341.877 208.711)">
<stop stop-color="#607099"/>
<stop offset="1" stop-color="#495586"/>
</radialGradient>
<radialGradient id="paint22_radial_179_38418" cx="0" cy="0" r="1" gradientUnits="userSpaceOnUse" gradientTransform="translate(39.8042 668.964) scale(49.4489 30.1878)">
<stop stop-color="#434F73"/>
<stop offset="1" stop-color="#323C59"/>
</radialGradient>
<radialGradient id="paint23_radial_179_38418" cx="0" cy="0" r="1" gradientUnits="userSpaceOnUse" gradientTransform="translate(28.3925 673.302) scale(83.7272 51.1142)">
<stop stop-color="#20377D"/>
<stop offset="0.21" stop-color="#152554"/>
<stop offset="0.44" stop-color="#0C152F"/>
<stop offset="0.66" stop-color="#050915"/>
<stop offset="0.85" stop-color="#010205"/>
<stop offset="1"/>
</radialGradient>
<clipPath id="clip0_179_38418">
<rect width="30" height="689" fill="white"/>
</clipPath>
<clipPath id="clip1_179_38418">
<rect width="27" height="42" fill="white" transform="translate(0 -1)"/>
</clipPath>
<clipPath id="clip2_179_38418">
<rect width="27" height="605" fill="white" transform="translate(0 41)"/>
</clipPath>
<clipPath id="clip3_179_38418">
<rect width="27" height="42" fill="white" transform="translate(0 646)"/>
</clipPath>
<clipPath id="clip4_179_38418">
<rect width="289" height="22" fill="white" transform="translate(27 -1)"/>
</clipPath>
<clipPath id="clip5_179_38418">
<rect width="289" height="645" fill="white" transform="translate(27 21)"/>
</clipPath>
<clipPath id="clip6_179_38418">
<rect width="289" height="22" fill="white" transform="translate(27 666)"/>
</clipPath>
</defs>
</svg>
