<svg width="36" height="791" viewBox="0 0 36 791" fill="none" xmlns="http://www.w3.org/2000/svg">
<g clip-path="url(#clip0_175_34943)">
<g clip-path="url(#clip1_175_34943)">
<path fill-rule="evenodd" clip-rule="evenodd" d="M8.52322 26.4574C15.0775 23.844 20.255 18.4502 22.6456 11.7307L15.318 3.35156C15.318 12.0884 8.32989 19.2276 -0.308594 19.3086L8.52793 26.4526L8.52322 26.4574Z" fill="url(#paint0_radial_175_34943)"/>
<path fill-rule="evenodd" clip-rule="evenodd" d="M22.6401 11.734C53.1247 9.70715 83.8026 8.92026 114.33 8.92026C144.857 8.92026 175.535 9.70715 206.024 11.734L213.352 3.35484C184.522 1.26125 150.619 0.0546875 114.334 0.0546875C78.0499 0.0546875 44.142 1.26125 15.3125 3.35484L22.6401 11.734Z" fill="url(#paint1_radial_175_34943)"/>
<path fill-rule="evenodd" clip-rule="evenodd" d="M10.4149 226.445C10.3724 221.733 10.3253 217.016 10.2828 212.305C10.2498 208.938 10.2168 205.571 10.1838 202.204C10.1555 199.004 10.1225 195.809 10.0942 192.609C10.0094 183.624 10.0329 174.629 9.83489 165.645C9.78302 163.184 9.17946 160.494 9.23604 158.286C9.3162 154.972 9.64156 151.648 9.66514 148.262C9.74058 136.501 9.45295 124.588 9.33978 112.814C9.30677 109.447 9.27848 106.08 9.24547 102.713C9.1606 93.9999 8.93426 85.0389 9.02857 76.3498C9.09458 71.9623 9.5001 67.6511 9.54725 63.2064C9.57554 60.4261 8.99084 58.59 8.83995 55.9671C8.48159 49.7626 8.67492 42.8332 8.61833 36.5524C8.58533 33.1855 8.55703 29.8186 8.52403 26.4517L-0.3125 19.3125C-0.204047 30.8773 -0.0955949 42.4422 0.017573 54.007C0.0552956 58.0273 -0.0861642 63.0872 0.357077 66.9835C0.569266 68.872 1.46518 72.6633 0.988931 74.3373C0.234478 76.9936 0.253339 78.0762 0.272201 80.8326C0.479675 111.192 0.823894 141.552 1.13039 171.911C1.15868 174.882 1.02194 179.58 1.44632 182.369C1.59249 183.323 2.16776 184.83 2.09232 185.598C1.9037 187.534 1.48404 188.994 1.3803 191.125C1.21527 194.745 1.38973 198.98 1.42274 202.662C1.52176 213.044 1.62078 223.426 1.71981 233.813L10.4149 226.449V226.445Z" fill="url(#paint2_radial_175_34943)"/>
<path fill-rule="evenodd" clip-rule="evenodd" d="M14.4035 30.157C19.595 27.2003 23.8341 22.7555 26.5643 17.4L22.6458 11.7344C20.2552 18.4539 15.0777 23.8429 8.52344 26.4611L14.4035 30.1618V30.157Z" fill="url(#paint3_radial_175_34943)"/>
<path fill-rule="evenodd" clip-rule="evenodd" d="M26.5669 17.4012C55.783 15.5508 85.0652 14.8307 114.338 14.8307C143.611 14.8307 172.893 15.5556 202.109 17.4012L206.032 11.7356C175.548 9.70876 144.87 8.92188 114.338 8.92188C83.8062 8.92188 53.133 9.70876 22.6484 11.7356L26.5669 17.4012Z" fill="url(#paint4_radial_175_34943)"/>
<path fill-rule="evenodd" clip-rule="evenodd" d="M16.2197 222.631L14.3995 30.1539L8.51953 26.4531C8.55254 29.82 8.58555 33.187 8.61384 36.5539C8.67042 42.8394 8.47709 49.764 8.83546 55.9685C8.98635 58.5962 9.57105 60.4275 9.54276 63.2078C9.4956 67.6525 9.09009 71.9637 9.02407 76.3512C8.92976 85.0403 9.1561 93.9965 9.24098 102.714C9.27398 106.081 9.30699 109.443 9.33528 112.815C9.44845 124.594 9.73609 136.503 9.66064 148.263C9.63706 151.654 9.31171 154.973 9.23155 158.287C9.17496 160.491 9.77852 163.185 9.83039 165.646C10.0284 174.631 10.0096 183.625 10.0897 192.61C10.118 195.81 10.151 199.005 10.1793 202.205C10.2123 205.572 10.2453 208.939 10.2783 212.306C10.3255 217.018 10.3679 221.734 10.4104 226.446L16.2197 222.631Z" fill="url(#paint5_radial_175_34943)"/>
</g>
<g clip-path="url(#clip2_175_34943)">
<path fill-rule="evenodd" clip-rule="evenodd" d="M10.4149 813.617C10.3724 793.906 10.3253 774.174 10.2828 754.463C10.2498 740.377 10.2168 726.292 10.1838 712.207C10.1555 698.82 10.1225 685.453 10.0942 672.066C10.0094 634.479 10.0329 596.851 9.83489 559.264C9.78302 548.97 9.17946 537.717 9.23604 528.48C9.3162 514.614 9.64156 500.709 9.66514 486.543C9.74058 437.345 9.45295 387.508 9.33978 338.249C9.30677 324.164 9.27848 310.079 9.24547 295.993C9.1606 259.543 8.93426 222.056 9.02857 185.705C9.09458 167.351 9.5001 149.315 9.54725 130.721C9.57554 119.09 8.99084 111.409 8.83995 100.436C8.48159 74.4796 8.67492 45.4911 8.61833 19.2159C8.58533 5.13063 8.55703 -8.95463 8.52403 -23.0399L-0.3125 -52.9062C-0.204047 -4.52556 -0.0955949 43.8551 0.017573 92.2358C0.0552956 109.054 -0.0861642 130.222 0.357077 146.522C0.569266 154.422 1.46518 170.283 0.988931 177.286C0.234478 188.399 0.253339 192.928 0.272201 204.459C0.479675 331.466 0.823894 458.473 1.13039 585.479C1.15868 597.909 1.02194 617.56 1.44632 629.232C1.59249 633.222 2.16776 639.526 2.09232 642.738C1.9037 650.838 1.48404 656.943 1.3803 665.861C1.21527 681.004 1.38973 698.72 1.42274 714.122C1.52176 757.555 1.62078 800.988 1.71981 844.441L10.4149 813.637V813.617Z" fill="url(#paint6_radial_175_34943)"/>
<path fill-rule="evenodd" clip-rule="evenodd" d="M16.2197 797.657L14.3995 -7.55725L8.51953 -23.0391C8.55254 -8.9538 8.58555 5.13147 8.61384 19.2167C8.67042 45.5119 8.47709 74.4804 8.83546 100.436C8.98635 111.429 9.57105 119.09 9.54276 130.722C9.4956 149.316 9.09009 167.351 9.02407 185.706C8.92976 222.057 9.1561 259.524 9.24098 295.994C9.27398 310.079 9.30699 324.145 9.33528 338.25C9.44845 387.528 9.73609 437.346 9.66064 486.544C9.63706 500.729 9.31171 514.615 9.23155 528.481C9.17496 537.698 9.77852 548.97 9.83039 559.265C10.0284 596.852 10.0096 634.479 10.0897 672.067C10.118 685.454 10.151 698.821 10.1793 712.208C10.2123 726.293 10.2453 740.378 10.2783 754.464C10.3255 774.175 10.3679 793.906 10.4104 813.618L16.2197 797.657Z" fill="url(#paint7_radial_175_34943)"/>
<path fill-rule="evenodd" clip-rule="evenodd" d="M9.19782 279.417C8.74515 278.879 7.25511 286.6 6.81658 292.764C5.78392 307.428 8.26419 341.165 9.35814 341.205C10.9755 341.265 14.1961 305.792 13.4888 298.43C12.6353 289.572 10.7869 281.313 9.19782 279.417Z" fill="url(#paint8_radial_175_34943)"/>
<path style="mix-blend-mode:multiply" fill-rule="evenodd" clip-rule="evenodd" d="M6.59072 304.38C8.04776 288.24 12.4802 291.751 13.0507 313.378C13.5081 306.814 13.7297 300.949 13.4892 298.415C12.6358 289.557 10.7874 281.297 9.1983 279.402C8.74563 278.863 7.25558 286.584 6.81706 292.749C6.59072 295.901 6.53414 299.951 6.59072 304.36V304.38Z" fill="url(#paint9_radial_175_34943)"/>
</g>
<g clip-path="url(#clip3_175_34943)">
<path fill-rule="evenodd" clip-rule="evenodd" d="M203.649 779.388C195.006 779.96 186.372 780.427 177.724 780.809C174.188 780.966 171.165 781.281 167.671 781.619C164.394 781.939 161.556 781.472 158.241 781.529C147.584 781.724 137.121 782.125 126.431 782.058C122.574 782.034 118.698 781.371 114.935 781.615C111.573 781.834 108.81 782.101 105.363 782.092C78.7119 782.039 51.6177 781.143 25.0232 779.383L17.6484 787.757L18.0021 787.781C30.7759 788.706 43.5686 789.383 56.366 789.884C67.5366 790.323 79.0326 790.733 90.1985 790.79C94.8384 790.814 100.308 790.018 104.764 790.557C108.258 790.981 110.828 790.986 114.336 790.986C128.279 790.986 142.218 790.805 156.161 790.423C158.58 790.361 161.867 790.385 164.191 790.084C166.068 789.841 166.224 789.336 168.289 789.56C170.411 789.789 171.693 789.903 173.839 789.827C186.188 789.388 198.698 788.659 211.029 787.762L203.654 779.388H203.649Z" fill="url(#paint10_radial_175_34943)"/>
<path fill-rule="evenodd" clip-rule="evenodd" d="M25.0211 779.391C23.8187 775.962 21.843 772.839 19.1411 770.13C16.5712 767.555 13.6289 765.647 10.4177 764.445L1.72266 771.809C6.09377 771.766 9.87074 773.316 12.9781 776.43C16.0808 779.544 17.651 783.345 17.651 787.771L25.0258 779.396L25.0211 779.391Z" fill="url(#paint11_radial_175_34943)"/>
<path fill-rule="evenodd" clip-rule="evenodd" d="M10.4149 764.445C10.3724 759.733 10.3253 755.016 10.2828 750.305C10.2498 746.938 10.2168 743.571 10.1838 740.204C10.1555 737.004 10.1225 733.809 10.0942 730.609C10.0094 721.624 10.0329 712.629 9.83489 703.645C9.78302 701.184 9.17946 698.494 9.23604 696.286C9.3162 692.972 9.64156 689.648 9.66514 686.262C9.74058 674.501 9.45295 662.588 9.33978 650.814C9.30677 647.447 9.27848 644.08 9.24547 640.713C9.1606 632 8.93426 623.039 9.02857 614.35C9.09458 609.962 9.5001 605.651 9.54725 601.206C9.57554 598.426 8.99084 596.59 8.83995 593.967C8.48159 587.763 8.67492 580.833 8.61833 574.552C8.58533 571.186 8.55703 567.819 8.52403 564.452L-0.3125 557.312C-0.204047 568.877 -0.0955949 580.442 0.017573 592.007C0.0552956 596.027 -0.0861642 601.087 0.357077 604.983C0.569266 606.872 1.46518 610.663 0.988931 612.337C0.234478 614.994 0.253339 616.076 0.272201 618.833C0.479675 649.192 0.823894 679.552 1.13039 709.911C1.15868 712.882 1.02194 717.58 1.44632 720.369C1.59249 721.323 2.16776 722.83 2.09232 723.598C1.9037 725.534 1.48404 726.994 1.3803 729.125C1.21527 732.745 1.38973 736.98 1.42274 740.662C1.52176 751.044 1.62078 761.426 1.71981 771.813L10.4149 764.449V764.445Z" fill="url(#paint12_radial_175_34943)"/>
<path fill-rule="evenodd" clip-rule="evenodd" d="M199.726 773.727C171.302 775.52 142.812 776.216 114.336 776.216C85.8606 776.216 57.3706 775.52 28.9466 773.727L25.0234 779.392C51.6179 781.152 78.7122 782.053 105.363 782.101C108.815 782.106 111.578 781.843 114.935 781.624C118.698 781.376 122.569 782.039 126.431 782.068C137.121 782.134 147.58 781.738 158.241 781.538C161.556 781.476 164.394 781.948 167.672 781.629C171.166 781.285 174.188 780.975 177.725 780.818C186.377 780.432 195.011 779.964 203.65 779.397L199.726 773.731V773.727Z" fill="url(#paint13_radial_175_34943)"/>
<path fill-rule="evenodd" clip-rule="evenodd" d="M28.9492 773.724C27.478 770.848 25.5542 768.235 23.2578 765.931C21.1595 763.828 18.8018 762.044 16.2273 760.633L10.418 764.448C13.6338 765.65 16.5762 767.557 19.1413 770.133C21.8432 772.837 23.8189 775.96 25.0213 779.394L28.9445 773.728L28.9492 773.724Z" fill="url(#paint14_radial_175_34943)"/>
<path fill-rule="evenodd" clip-rule="evenodd" d="M16.2197 760.631L14.3995 568.154L8.51953 564.453C8.55254 567.82 8.58555 571.187 8.61384 574.554C8.67042 580.839 8.47709 587.764 8.83546 593.968C8.98635 596.596 9.57105 598.427 9.54276 601.208C9.4956 605.653 9.09009 609.964 9.02407 614.351C8.92976 623.04 9.1561 631.997 9.24098 640.714C9.27398 644.081 9.30699 647.443 9.33528 650.815C9.44845 662.594 9.73609 674.503 9.66064 686.263C9.63706 689.654 9.31171 692.973 9.23155 696.287C9.17496 698.491 9.77852 701.185 9.83039 703.646C10.0284 712.631 10.0096 721.625 10.0897 730.61C10.118 733.81 10.151 737.005 10.1793 740.205C10.2123 743.572 10.2453 746.939 10.2783 750.306C10.3255 755.018 10.3679 759.734 10.4104 764.446L16.2197 760.631Z" fill="url(#paint15_radial_175_34943)"/>
</g>
<g clip-path="url(#clip4_175_34943)">
<path fill-rule="evenodd" clip-rule="evenodd" d="M7.80511 11.734C142.015 9.70715 277.076 8.92026 411.473 8.92026C545.869 8.92026 680.93 9.70715 815.161 11.734L847.421 3.35484C720.498 1.26125 571.237 0.0546875 411.493 0.0546875C251.749 0.0546875 102.468 1.26125 -24.4551 3.35484L7.80511 11.734Z" fill="url(#paint16_radial_175_34943)"/>
<path fill-rule="evenodd" clip-rule="evenodd" d="M25.088 17.4012C153.714 15.5508 282.63 14.8307 411.505 14.8307C540.379 14.8307 669.296 15.5556 797.921 17.4012L815.193 11.7356C680.983 9.70876 545.922 8.92188 411.505 8.92188C277.087 8.92188 142.047 9.70876 7.83691 11.7356L25.088 17.4012Z" fill="url(#paint17_radial_175_34943)"/>
</g>
<g clip-path="url(#clip5_175_34943)">
<path fill-rule="evenodd" clip-rule="evenodd" d="M35.5749 785.883C29.098 775.605 20.6281 766.264 10.5182 758.031C1.28029 750.514 -9.09944 744.139 -20.4341 739.094L-46.0098 752.73C-31.8518 757.025 -18.8979 763.843 -7.60476 773.048C4.29041 782.712 12.9886 793.877 18.2823 806.15L35.5542 785.9L35.5749 785.883Z" fill="url(#paint18_radial_175_34943)"/>
<path style="mix-blend-mode:screen" fill-rule="evenodd" clip-rule="evenodd" d="M-16.0498 766.805C-2.49388 776.742 7.92738 788.06 13.138 801.713C13.657 803.026 13.7608 804.338 13.5117 805.617C12.7851 809.281 0.620044 821.741 -2.65995 825.457C1.90713 821.946 14.3628 811.207 19.4489 809.673C21.1719 809.145 23.0195 808.923 25.0124 809.009C38.9213 809.52 52.747 809.912 66.6559 810.287C79.0285 810.645 81.665 815.298 91.8579 819.099C99.2482 821.758 107.054 822.679 112.97 822.014C119.676 821.145 125.239 818.315 130.595 815.094C137.051 811.19 141.203 812.383 148.801 812.571C171.678 813.133 194.679 813.628 217.577 813.866C192.77 812.861 167.879 811.702 143.071 810.866C132.277 810.491 131.467 806.418 123.163 802.992C122.644 802.787 122.25 802.651 121.71 802.497C112.347 800.043 94.785 798.048 90.7576 798.406C79.6098 799.651 79.1531 808.071 65.4934 807.27C52.5187 806.503 39.4402 805.77 26.4863 804.867C22.3344 804.577 18.9299 802.668 17.0823 799.6C9.67117 787.242 -0.625526 776.026 -16.0498 766.839V766.805Z" fill="url(#paint19_radial_175_34943)"/>
</g>
<g clip-path="url(#clip6_175_34943)">
<path fill-rule="evenodd" clip-rule="evenodd" d="M804.7 779.388C766.648 779.96 728.637 780.427 690.564 780.809C674.995 780.966 661.688 781.281 646.305 781.619C631.877 781.939 619.38 781.472 604.786 781.529C557.87 781.724 511.805 782.125 464.743 782.058C447.762 782.034 430.697 781.371 414.131 781.615C399.33 781.834 387.165 782.101 371.99 782.092C254.657 782.039 135.373 781.143 18.2901 779.383L-14.1777 787.757L-12.6208 787.781C43.6166 788.706 99.937 789.383 156.278 789.884C205.457 790.323 256.069 790.733 305.227 790.79C325.655 790.814 349.736 790.018 369.353 790.557C384.736 790.981 396.05 790.986 411.495 790.986C472.881 790.986 534.246 790.805 595.631 790.423C606.281 790.361 620.75 790.385 630.985 790.084C639.247 789.841 639.932 789.336 649.025 789.56C658.366 789.789 664.013 789.903 673.459 789.827C727.828 789.388 782.902 788.659 837.188 787.762L804.721 779.388H804.7Z" fill="url(#paint20_radial_175_34943)"/>
<path fill-rule="evenodd" clip-rule="evenodd" d="M787.426 773.727C662.288 775.52 536.859 776.216 411.493 776.216C286.127 776.216 160.698 775.52 35.56 773.727L18.2881 779.392C135.371 781.152 254.655 782.053 371.988 782.101C387.184 782.106 399.349 781.843 414.129 781.624C430.696 781.376 447.739 782.039 464.741 782.068C511.803 782.134 557.847 781.738 604.784 781.538C619.378 781.476 631.875 781.948 646.303 781.629C661.686 781.285 674.993 780.975 690.562 780.818C728.656 780.432 766.667 779.964 804.698 779.397L787.426 773.731V773.727Z" fill="url(#paint21_radial_175_34943)"/>
<path fill-rule="evenodd" clip-rule="evenodd" d="M35.5749 773.724C29.098 770.848 20.6281 768.235 10.5182 765.931C1.28029 763.828 -9.09944 762.044 -20.4341 760.633L-46.0098 764.448C-31.8518 765.65 -18.8979 767.557 -7.60476 770.133C4.29041 772.837 12.9886 775.96 18.2823 779.394L35.5542 773.728L35.5749 773.724Z" fill="url(#paint22_radial_175_34943)"/>
<path style="mix-blend-mode:screen" fill-rule="evenodd" clip-rule="evenodd" d="M-16.0498 768.391C-2.49388 771.171 7.92738 774.338 13.138 778.158C13.657 778.525 13.7608 778.892 13.5117 779.25C12.7851 780.275 0.620044 783.761 -2.65995 784.801C1.90713 783.818 14.3628 780.814 19.4489 780.385C21.1719 780.237 23.0195 780.175 25.0124 780.199C38.9213 780.342 52.747 780.451 66.6559 780.556C79.0285 780.656 81.665 781.958 91.8579 783.022C99.2482 783.766 107.054 784.023 112.97 783.837C119.676 783.594 125.239 782.803 130.595 781.901C137.051 780.809 141.203 781.143 148.801 781.195C171.678 781.353 194.679 781.491 217.577 781.558C192.77 781.276 167.879 780.952 143.071 780.718C132.277 780.614 131.467 779.474 123.163 778.515C122.644 778.458 122.25 778.42 121.71 778.377C112.347 777.69 94.785 777.132 90.7576 777.232C79.6098 777.58 79.1531 779.936 65.4934 779.712C52.5187 779.498 39.4402 779.293 26.4863 779.04C22.3344 778.959 18.9299 778.425 17.0823 777.566C9.67117 774.109 -0.625526 770.971 -16.0498 768.4V768.391Z" fill="url(#paint23_radial_175_34943)"/>
</g>
</g>
<defs>
<radialGradient id="paint0_radial_175_34943" cx="0" cy="0" r="1" gradientUnits="userSpaceOnUse" gradientTransform="translate(5.85434 28.3316) scale(51.3358 51.9201)">
<stop stop-color="#7082A5"/>
<stop offset="1" stop-color="#505D8B"/>
</radialGradient>
<radialGradient id="paint1_radial_175_34943" cx="0" cy="0" r="1" gradientUnits="userSpaceOnUse" gradientTransform="translate(114.334 -56.2959) scale(116.761 118.09)">
<stop offset="0.72" stop-color="#262E44"/>
<stop offset="0.76" stop-color="#313A51"/>
<stop offset="0.85" stop-color="#46536B"/>
<stop offset="0.94" stop-color="#53627B"/>
<stop offset="1" stop-color="#586881"/>
</radialGradient>
<radialGradient id="paint2_radial_175_34943" cx="0" cy="0" r="1" gradientUnits="userSpaceOnUse" gradientTransform="translate(-56.4485 82.7069) scale(200.067 202.344)">
<stop stop-color="#677A9E"/>
<stop offset="1" stop-color="#39456F"/>
</radialGradient>
<radialGradient id="paint3_radial_175_34943" cx="0" cy="0" r="1" gradientUnits="userSpaceOnUse" gradientTransform="translate(-8.11696 30.343) scale(49.1432 49.7026)">
<stop stop-color="#475979"/>
<stop offset="1" stop-color="#252F51"/>
</radialGradient>
<radialGradient id="paint4_radial_175_34943" cx="0" cy="0" r="1" gradientUnits="userSpaceOnUse" gradientTransform="translate(115.663 14.5016) scale(149.891 151.597)">
<stop stop-color="#38465E"/>
<stop offset="1" stop-color="#1F263F"/>
</radialGradient>
<radialGradient id="paint5_radial_175_34943" cx="0" cy="0" r="1" gradientUnits="userSpaceOnUse" gradientTransform="translate(-81.3688 108.89) scale(259.867 262.825)">
<stop stop-color="#344156"/>
<stop offset="1" stop-color="#19202F"/>
</radialGradient>
<radialGradient id="paint6_radial_175_34943" cx="0" cy="0" r="1" gradientUnits="userSpaceOnUse" gradientTransform="translate(-56.4485 212.3) scale(200.067 846.493)">
<stop stop-color="#677A9E"/>
<stop offset="1" stop-color="#39456F"/>
</radialGradient>
<radialGradient id="paint7_radial_175_34943" cx="0" cy="0" r="1" gradientUnits="userSpaceOnUse" gradientTransform="translate(-81.3688 321.83) scale(259.867 1099.51)">
<stop stop-color="#344156"/>
<stop offset="1" stop-color="#19202F"/>
</radialGradient>
<radialGradient id="paint8_radial_175_34943" cx="0" cy="0" r="1" gradientUnits="userSpaceOnUse" gradientTransform="translate(5.88294 359.879) scale(24.3028 102.826)">
<stop stop-color="#475979"/>
<stop offset="0.34" stop-color="#3F4F70"/>
<stop offset="0.89" stop-color="#2A3758"/>
<stop offset="1" stop-color="#263153"/>
</radialGradient>
<radialGradient id="paint9_radial_175_34943" cx="0" cy="0" r="1" gradientUnits="userSpaceOnUse" gradientTransform="translate(3.52104 342.087) scale(25.1186 106.278)">
<stop offset="0.33" stop-color="#F7F7EA"/>
<stop offset="0.44" stop-color="#EBECE2"/>
<stop offset="0.63" stop-color="#CDD1CF"/>
<stop offset="0.88" stop-color="#9DA5B1"/>
<stop offset="1" stop-color="#858FA2"/>
</radialGradient>
<radialGradient id="paint10_radial_175_34943" cx="0" cy="0" r="1" gradientUnits="userSpaceOnUse" gradientTransform="translate(108.164 731.34) scale(157.652 159.447)">
<stop stop-color="#313D50"/>
<stop offset="1" stop-color="#192033"/>
</radialGradient>
<radialGradient id="paint11_radial_175_34943" cx="0" cy="0" r="1" gradientUnits="userSpaceOnUse" gradientTransform="translate(26.8695 788.596) scale(40.9102 41.3759)">
<stop stop-color="#3A4763"/>
<stop offset="1" stop-color="#232C47"/>
</radialGradient>
<radialGradient id="paint12_radial_175_34943" cx="0" cy="0" r="1" gradientUnits="userSpaceOnUse" gradientTransform="translate(-56.4485 620.707) scale(200.067 202.344)">
<stop stop-color="#677A9E"/>
<stop offset="1" stop-color="#39456F"/>
</radialGradient>
<radialGradient id="paint13_radial_175_34943" cx="0" cy="0" r="1" gradientUnits="userSpaceOnUse" gradientTransform="translate(167.964 743.577) scale(206.362 208.711)">
<stop stop-color="#607099"/>
<stop offset="1" stop-color="#495586"/>
</radialGradient>
<radialGradient id="paint14_radial_175_34943" cx="0" cy="0" r="1" gradientUnits="userSpaceOnUse" gradientTransform="translate(34.7302 771.964) scale(29.848 30.1878)">
<stop stop-color="#434F73"/>
<stop offset="1" stop-color="#323C59"/>
</radialGradient>
<radialGradient id="paint15_radial_175_34943" cx="0" cy="0" r="1" gradientUnits="userSpaceOnUse" gradientTransform="translate(-81.3688 646.89) scale(259.867 262.825)">
<stop stop-color="#344156"/>
<stop offset="1" stop-color="#19202F"/>
</radialGradient>
<radialGradient id="paint16_radial_175_34943" cx="0" cy="0" r="1" gradientUnits="userSpaceOnUse" gradientTransform="translate(411.493 -56.2959) scale(514.046 118.09)">
<stop offset="0.72" stop-color="#262E44"/>
<stop offset="0.76" stop-color="#313A51"/>
<stop offset="0.85" stop-color="#46536B"/>
<stop offset="0.94" stop-color="#53627B"/>
<stop offset="1" stop-color="#586881"/>
</radialGradient>
<radialGradient id="paint17_radial_175_34943" cx="0" cy="0" r="1" gradientUnits="userSpaceOnUse" gradientTransform="translate(417.338 14.5016) scale(659.902 151.597)">
<stop stop-color="#38465E"/>
<stop offset="1" stop-color="#1F263F"/>
</radialGradient>
<radialGradient id="paint18_radial_175_34943" cx="0" cy="0" r="1" gradientUnits="userSpaceOnUse" gradientTransform="translate(61.026 779.593) scale(131.407 107.896)">
<stop stop-color="#434F73"/>
<stop offset="1" stop-color="#323C59"/>
</radialGradient>
<radialGradient id="paint19_radial_175_34943" cx="0" cy="0" r="1" gradientUnits="userSpaceOnUse" gradientTransform="translate(30.7005 795.083) scale(222.5 182.69)">
<stop stop-color="#20377D"/>
<stop offset="0.21" stop-color="#152554"/>
<stop offset="0.44" stop-color="#0C152F"/>
<stop offset="0.66" stop-color="#050915"/>
<stop offset="0.85" stop-color="#010205"/>
<stop offset="1"/>
</radialGradient>
<radialGradient id="paint20_radial_175_34943" cx="0" cy="0" r="1" gradientUnits="userSpaceOnUse" gradientTransform="translate(384.321 731.34) scale(694.072 159.447)">
<stop stop-color="#313D50"/>
<stop offset="1" stop-color="#192033"/>
</radialGradient>
<radialGradient id="paint21_radial_175_34943" cx="0" cy="0" r="1" gradientUnits="userSpaceOnUse" gradientTransform="translate(647.59 743.577) scale(908.517 208.711)">
<stop stop-color="#607099"/>
<stop offset="1" stop-color="#495586"/>
</radialGradient>
<radialGradient id="paint22_radial_175_34943" cx="0" cy="0" r="1" gradientUnits="userSpaceOnUse" gradientTransform="translate(61.026 771.964) scale(131.407 30.1878)">
<stop stop-color="#434F73"/>
<stop offset="1" stop-color="#323C59"/>
</radialGradient>
<radialGradient id="paint23_radial_175_34943" cx="0" cy="0" r="1" gradientUnits="userSpaceOnUse" gradientTransform="translate(30.7005 776.302) scale(222.5 51.1142)">
<stop stop-color="#20377D"/>
<stop offset="0.21" stop-color="#152554"/>
<stop offset="0.44" stop-color="#0C152F"/>
<stop offset="0.66" stop-color="#050915"/>
<stop offset="0.85" stop-color="#010205"/>
<stop offset="1"/>
</radialGradient>
<clipPath id="clip0_175_34943">
<rect width="36" height="791" fill="white"/>
</clipPath>
<clipPath id="clip1_175_34943">
<rect width="27" height="42" fill="white"/>
</clipPath>
<clipPath id="clip2_175_34943">
<rect width="27" height="707" fill="white" transform="translate(0 42)"/>
</clipPath>
<clipPath id="clip3_175_34943">
<rect width="27" height="42" fill="white" transform="translate(0 749)"/>
</clipPath>
<clipPath id="clip4_175_34943">
<rect width="768" height="22" fill="white" transform="translate(27)"/>
</clipPath>
<clipPath id="clip5_175_34943">
<rect width="768" height="747" fill="white" transform="translate(27 22)"/>
</clipPath>
<clipPath id="clip6_175_34943">
<rect width="768" height="22" fill="white" transform="translate(27 769)"/>
</clipPath>
</defs>
</svg>
