<svg width="35" height="790" viewBox="0 0 35 790" fill="none" xmlns="http://www.w3.org/2000/svg">
<g clip-path="url(#clip0_175_34944)">
<g clip-path="url(#clip1_175_34944)">
<path fill-rule="evenodd" clip-rule="evenodd" d="M-779.195 11.734C-644.985 9.70715 -509.924 8.92027 -375.527 8.92027C-241.131 8.92027 -106.07 9.70715 28.1611 11.734L60.4212 3.35484C-66.5021 1.26125 -215.763 0.0546875 -375.507 0.0546875C-535.251 0.0546875 -684.532 1.26125 -811.455 3.35484L-779.195 11.734Z" fill="url(#paint0_radial_175_34944)"/>
<path fill-rule="evenodd" clip-rule="evenodd" d="M-761.912 17.4012C-633.286 15.5508 -504.37 14.8307 -375.495 14.8307C-246.621 14.8307 -117.704 15.5556 10.9211 17.4012L28.1931 11.7356C-106.017 9.70876 -241.078 8.92188 -375.495 8.92188C-509.913 8.92188 -644.953 9.70876 -779.163 11.7356L-761.912 17.4012Z" fill="url(#paint1_radial_175_34944)"/>
</g>
<g clip-path="url(#clip2_175_34944)">
<path fill-rule="evenodd" clip-rule="evenodd" d="M25.4931 758.025C15.3833 766.257 6.91347 775.598 0.436523 785.876L17.7083 806.126C23.0228 793.871 31.7002 782.706 43.5954 773.024C54.9093 763.82 67.8632 757.002 82.0212 752.706L56.4455 739.07C45.1108 744.099 34.7311 750.491 25.4931 758.008V758.025Z" fill="url(#paint2_radial_175_34944)"/>
<path style="mix-blend-mode:screen" fill-rule="evenodd" clip-rule="evenodd" d="M52.0293 766.805C38.4733 776.742 28.0521 788.06 22.8415 801.713C22.3432 803.026 22.2187 804.338 22.4678 805.617C23.1944 809.281 35.3594 821.741 38.6394 825.457C34.0724 821.946 21.6167 811.207 16.5306 809.673C14.8076 809.145 12.96 808.923 10.9878 809.009C-34.4131 810.696 -76.0358 810.986 -122.143 812.69C-89.6748 809.281 9.36859 806.332 14.8906 803.384C16.5721 802.48 17.963 801.202 18.918 799.6C26.3291 787.242 36.6257 776.026 52.05 766.839L52.0293 766.805Z" fill="url(#paint3_radial_175_34944)"/>
</g>
<g clip-path="url(#clip3_175_34944)">
<path fill-rule="evenodd" clip-rule="evenodd" d="M17.6998 779.388C-20.3522 779.96 -58.3628 780.427 -96.4356 780.809C-112.005 780.966 -125.312 781.281 -140.695 781.619C-155.123 781.939 -167.62 781.472 -182.214 781.529C-229.13 781.724 -275.195 782.125 -322.257 782.058C-339.238 782.034 -356.303 781.371 -372.869 781.615C-387.67 781.834 -399.835 782.101 -415.01 782.092C-532.343 782.039 -651.627 781.143 -768.71 779.383L-801.178 787.757L-799.621 787.781C-743.383 788.706 -687.063 789.383 -630.722 789.884C-581.543 790.323 -530.931 790.733 -481.773 790.79C-461.345 790.814 -437.264 790.018 -417.647 790.557C-402.264 790.981 -390.95 790.986 -375.505 790.986C-314.119 790.986 -252.754 790.805 -191.369 790.423C-180.719 790.361 -166.25 790.385 -156.015 790.084C-147.753 789.841 -147.068 789.336 -137.975 789.56C-128.634 789.789 -122.987 789.903 -113.541 789.827C-59.1724 789.388 -4.09753 788.659 50.1885 787.762L17.7206 779.388H17.6998Z" fill="url(#paint4_radial_175_34944)"/>
<path fill-rule="evenodd" clip-rule="evenodd" d="M25.4931 765.928C15.3833 768.232 6.91347 770.845 0.436523 773.721L17.7083 779.386C23.0228 775.957 31.7002 772.834 43.5954 770.125C54.9093 767.55 67.8632 765.642 82.0212 764.44L56.4455 760.625C45.1108 762.032 34.7311 763.82 25.4931 765.923V765.928Z" fill="url(#paint5_radial_175_34944)"/>
<path fill-rule="evenodd" clip-rule="evenodd" d="M0.426025 773.727C-124.712 775.52 -250.141 776.216 -375.507 776.216C-500.873 776.216 -626.302 775.52 -751.44 773.727L-768.712 779.392C-651.629 781.152 -532.345 782.053 -415.012 782.101C-399.816 782.106 -387.651 781.843 -372.871 781.624C-356.305 781.376 -339.261 782.039 -322.259 782.068C-275.197 782.134 -229.153 781.738 -182.216 781.538C-167.622 781.476 -155.125 781.948 -140.697 781.629C-125.314 781.285 -112.007 780.975 -96.4376 780.818C-58.344 780.432 -20.3335 779.964 17.6979 779.397L0.426025 773.731V773.727Z" fill="url(#paint6_radial_175_34944)"/>
<path style="mix-blend-mode:screen" fill-rule="evenodd" clip-rule="evenodd" d="M52.0293 768.391C38.4733 771.171 28.0521 774.338 22.8415 778.158C22.3432 778.525 22.2187 778.892 22.4678 779.25C23.1944 780.275 35.3594 783.761 38.6394 784.801C34.0724 783.818 21.6167 780.814 16.5306 780.385C14.8076 780.237 12.96 780.175 10.9878 780.199C-34.4131 780.671 -76.0358 780.752 -122.143 781.229C-89.6748 780.275 9.36859 779.45 14.8906 778.625C16.5721 778.372 17.963 778.014 18.918 777.566C26.3291 774.109 36.6257 770.971 52.05 768.4L52.0293 768.391Z" fill="url(#paint7_radial_175_34944)"/>
</g>
<g clip-path="url(#clip4_175_34944)">
<path fill-rule="evenodd" clip-rule="evenodd" d="M-171.36 11.734C-140.875 9.70715 -110.197 8.92027 -79.6703 8.92027C-49.1433 8.92027 -18.4654 9.70715 12.0239 11.734L19.3515 3.35484C-9.47797 1.26125 -43.3812 0.0546875 -79.6656 0.0546875C-115.95 0.0546875 -149.858 1.26125 -178.688 3.35484L-171.36 11.734Z" fill="url(#paint8_radial_175_34944)"/>
<path fill-rule="evenodd" clip-rule="evenodd" d="M12.0273 11.7337C14.4133 18.4533 19.5907 23.8422 26.1497 26.4604L34.9863 19.3165C26.3478 19.2306 19.3597 12.0962 19.3597 3.35938L12.032 11.7385L12.0273 11.7337Z" fill="url(#paint9_radial_175_34944)"/>
<path fill-rule="evenodd" clip-rule="evenodd" d="M26.0685 35.042C26.0402 38.0703 26.0119 41.1034 25.9836 44.1317C25.9082 52.0578 25.5828 60.5752 26.0685 68.4346C26.2571 71.4963 25.7714 73.9761 25.696 77.0331C25.4602 86.3565 25.4979 95.8945 25.4084 105.242C25.3612 110.292 25.314 115.342 25.2622 120.393C25.2009 126.984 24.984 133.923 25.1066 140.475C25.149 142.807 25.6111 145.168 25.3989 147.371C24.7435 154.086 24.9038 159.713 25.2339 166.404C25.3706 169.208 24.8614 171.66 24.7765 174.497C24.5643 181.627 24.6162 189 24.5455 196.153C24.5124 199.52 24.4794 202.887 24.4511 206.254C24.3898 212.988 24.3238 219.722 24.2578 226.455L32.9529 233.819C33.0189 226.928 33.0849 220.036 33.1462 213.145C33.1651 211.099 33.1839 209.049 33.2028 207.007C33.2641 200.545 33.3254 194.083 33.3867 187.621C33.4103 185.103 33.5564 181.956 33.3914 179.505C33.2924 177.974 32.637 175.36 32.967 174.068C33.3254 172.666 33.4669 171.96 33.5282 170.491C33.6555 167.458 33.6083 164.191 33.6366 161.134C33.6979 154.782 33.7592 148.43 33.8158 142.073C33.8959 133.46 33.9761 124.847 34.061 116.234C34.0798 114.079 34.0987 111.923 34.1223 109.772C34.1459 107.407 34.4005 101.946 33.8158 99.9386C33.4857 98.7893 33.0048 98.5556 33.283 97.3586C33.7451 95.3937 34.1364 94.4972 34.2496 92.3654C34.3958 89.504 34.3816 86.4614 34.3345 83.5857C34.2826 80.5144 33.6366 77.7007 33.7545 74.7487C33.9478 69.9177 34.4995 65.2679 34.5797 60.3511C34.806 46.7022 34.8437 32.9866 34.9758 19.3281L26.1392 26.4721L26.1298 27.4831C26.1062 30.0059 26.0826 32.5335 26.0591 35.0563L26.0685 35.042Z" fill="url(#paint10_radial_175_34944)"/>
<path fill-rule="evenodd" clip-rule="evenodd" d="M-167.433 17.4012C-138.217 15.5508 -108.935 14.8307 -79.662 14.8307C-50.3893 14.8307 -21.1071 15.5556 8.10912 17.4012L12.0323 11.7356C-18.4523 9.70876 -49.1303 8.92188 -79.662 8.92188C-110.194 8.92188 -140.867 9.70876 -171.352 11.7356L-167.433 17.4012Z" fill="url(#paint11_radial_175_34944)"/>
<path fill-rule="evenodd" clip-rule="evenodd" d="M8.10547 17.3969C10.8356 22.7525 15.0747 27.202 20.271 30.154L26.151 26.4532C19.5967 23.8398 14.4193 18.4461 12.0286 11.7266L8.10547 17.3921V17.3969Z" fill="url(#paint12_radial_175_34944)"/>
<path fill-rule="evenodd" clip-rule="evenodd" d="M20.2732 30.1586L18.4531 222.636L24.2624 226.451C24.3284 219.717 24.3897 212.983 24.4557 206.249C24.4888 202.887 24.5217 199.515 24.55 196.149C24.6161 188.995 24.5689 181.622 24.7811 174.493C24.866 171.655 25.3752 169.204 25.2385 166.4C24.9037 159.709 24.7481 154.081 25.4035 147.366C25.6157 145.168 25.1583 142.802 25.1112 140.47C24.9886 133.918 25.2008 126.979 25.2668 120.388C25.3186 115.338 25.3658 110.287 25.413 105.237C25.5025 95.8898 25.4648 86.3566 25.7006 77.0284C25.7807 73.9762 26.2617 71.4916 26.0731 68.4299C25.5874 60.5706 25.9128 52.0579 25.9882 44.1271C26.0165 41.094 26.0448 38.0656 26.0731 35.0373C26.0967 32.5098 26.1202 29.987 26.1438 27.4642L26.1533 26.4531L20.2732 30.1539V30.1586Z" fill="url(#paint13_radial_175_34944)"/>
<path style="mix-blend-mode:screen" fill-rule="evenodd" clip-rule="evenodd" d="M15.0469 17.6094C18.1448 21.2434 20.7571 23.2845 24.9066 24.9775C25.2744 25.1253 25.6517 25.1826 26.0147 25.1444C27.1228 25.0347 32.6398 21.0335 33.9459 20.1608C32.7246 21.3149 27.7405 25.669 27.2266 26.804C27.0757 27.1378 26.9908 27.5003 26.9767 27.8961L25.845 62.7098L25.2744 28.5542C25.2603 27.6195 24.7746 26.8326 23.9683 26.3843C19.9272 24.1524 17.2819 21.2386 15.0516 17.6189L15.0469 17.6094Z" fill="url(#paint14_radial_175_34944)"/>
</g>
<g clip-path="url(#clip5_175_34944)">
<path fill-rule="evenodd" clip-rule="evenodd" d="M26.0685 12.8941C26.0402 25.5629 26.0119 38.2516 25.9836 50.9204C25.9082 84.0786 25.5828 119.711 26.0685 152.59C26.2571 165.398 25.7714 175.772 25.696 188.561C25.4602 227.565 25.4979 267.466 25.4084 306.57C25.3612 327.698 25.314 348.826 25.2622 369.954C25.2009 397.526 24.984 426.554 25.1066 453.966C25.149 463.722 25.6111 473.598 25.3989 482.815C24.7435 510.906 24.9038 534.448 25.2339 562.439C25.3706 574.17 24.8614 584.425 24.7765 596.295C24.5643 626.122 24.6162 656.966 24.5455 686.892C24.5124 700.977 24.4794 715.063 24.4511 729.148C24.3898 757.318 24.3238 785.489 24.2578 813.659L32.9529 844.464C33.0189 815.635 33.0849 786.806 33.1462 757.977C33.1651 749.418 33.1839 740.839 33.2028 732.3C33.2641 705.267 33.3254 678.233 33.3867 651.2C33.4103 640.666 33.5564 627.499 33.3914 617.244C33.2924 610.84 32.637 599.907 32.967 594.5C33.3254 588.634 33.4669 585.682 33.5282 579.537C33.6555 566.848 33.6083 553.182 33.6366 540.393C33.6979 513.819 33.7592 487.244 33.8158 460.65C33.8959 424.619 33.9761 388.588 34.061 352.557C34.0798 343.539 34.0987 334.521 34.1223 325.523C34.1459 315.628 34.4005 292.784 33.8158 284.385C33.4857 279.577 33.0048 278.599 33.283 273.591C33.7451 265.372 34.1364 261.621 34.2496 252.703C34.3958 240.732 34.3816 228.004 34.3345 215.973C34.2826 203.125 33.6366 191.354 33.7545 179.005C33.9478 158.794 34.4995 139.342 34.5797 118.773C34.806 61.6739 34.8437 4.29534 34.9758 -52.8438L26.1392 -22.9574L26.1298 -18.7279C26.1062 -8.1739 26.0826 2.40002 26.0591 12.954L26.0685 12.8941Z" fill="url(#paint15_radial_175_34944)"/>
<path fill-rule="evenodd" clip-rule="evenodd" d="M20.2732 -7.55291L18.4531 797.661L24.2624 813.622C24.3284 785.452 24.3897 757.281 24.4557 729.11C24.4888 715.045 24.5217 700.94 24.55 686.855C24.6161 656.928 24.5689 626.084 24.7811 596.258C24.866 584.387 25.3752 574.133 25.2385 562.402C24.9037 534.411 24.7481 510.869 25.4035 482.778C25.6157 473.581 25.1583 463.685 25.1112 453.929C24.9886 426.517 25.2008 397.488 25.2668 369.916C25.3186 348.788 25.3658 327.66 25.413 306.533C25.5025 267.429 25.4648 227.547 25.7006 188.524C25.7807 175.755 26.2617 165.361 26.0731 152.552C25.5874 119.673 25.9128 84.0612 25.9882 50.883C26.0165 38.1943 26.0448 25.5255 26.0731 12.8568C26.0967 2.28283 26.1202 -8.27114 26.1438 -18.8251L26.1533 -23.0547L20.2732 -7.57286V-7.55291Z" fill="url(#paint16_radial_175_34944)"/>
<path style="mix-blend-mode:screen" fill-rule="evenodd" clip-rule="evenodd" d="M15.0469 -60.0625C18.1448 -44.86 20.7571 -36.321 24.9066 -29.2385C25.2744 -28.62 25.6517 -28.3806 26.0147 -28.5402C27.1228 -28.9991 32.6398 -45.7378 33.9459 -49.3888C32.7246 -44.5607 27.7405 -26.3456 27.2266 -21.5974C27.0757 -20.2008 26.9908 -18.6845 26.9767 -17.0286L25.845 128.612L25.2744 -14.2754C25.2603 -18.1858 24.7746 -21.4776 23.9683 -23.353C19.9272 -32.69 17.2819 -44.8799 15.0516 -60.0226L15.0469 -60.0625Z" fill="url(#paint17_radial_175_34944)"/>
</g>
<g clip-path="url(#clip6_175_34944)">
<path fill-rule="evenodd" clip-rule="evenodd" d="M26.0685 573.042C26.0402 576.07 26.0119 579.103 25.9836 582.132C25.9082 590.058 25.5828 598.575 26.0685 606.435C26.2571 609.496 25.7714 611.976 25.696 615.033C25.4602 624.356 25.4979 633.894 25.4084 643.242C25.3612 648.292 25.314 653.342 25.2622 658.393C25.2009 664.984 24.984 671.923 25.1066 678.475C25.149 680.807 25.6111 683.168 25.3989 685.371C24.7435 692.086 24.9038 697.713 25.2339 704.404C25.3706 707.208 24.8614 709.66 24.7765 712.497C24.5643 719.627 24.6162 727 24.5455 734.153C24.5124 737.52 24.4794 740.887 24.4511 744.254C24.3898 750.988 24.3238 757.722 24.2578 764.455L32.9529 771.819C33.0189 764.928 33.0849 758.036 33.1462 751.145C33.1651 749.099 33.1839 747.049 33.2028 745.007C33.2641 738.545 33.3254 732.083 33.3867 725.621C33.4103 723.103 33.5564 719.956 33.3914 717.505C33.2924 715.974 32.637 713.36 32.967 712.068C33.3254 710.666 33.4669 709.96 33.5282 708.491C33.6555 705.458 33.6083 702.191 33.6366 699.134C33.6979 692.782 33.7592 686.43 33.8158 680.073C33.8959 671.46 33.9761 662.847 34.061 654.234C34.0798 652.079 34.0987 649.923 34.1223 647.772C34.1459 645.407 34.4005 639.946 33.8158 637.939C33.4857 636.789 33.0048 636.556 33.283 635.359C33.7451 633.394 34.1364 632.497 34.2496 630.365C34.3958 627.504 34.3816 624.461 34.3345 621.586C34.2826 618.514 33.6366 615.701 33.7545 612.749C33.9478 607.918 34.4995 603.268 34.5797 598.351C34.806 584.702 34.8437 570.987 34.9758 557.328L26.1392 564.472L26.1298 565.483C26.1062 568.006 26.0826 570.533 26.0591 573.056L26.0685 573.042Z" fill="url(#paint18_radial_175_34944)"/>
<path fill-rule="evenodd" clip-rule="evenodd" d="M24.2565 764.45C21.0407 765.652 18.103 767.559 15.5285 770.135C12.8266 772.839 10.8556 775.962 9.64844 779.396L17.0232 787.771C17.0232 783.35 18.5934 779.544 21.6961 776.43C24.8035 773.316 28.5805 771.771 32.9516 771.809L24.2565 764.445V764.45Z" fill="url(#paint19_radial_175_34944)"/>
<path fill-rule="evenodd" clip-rule="evenodd" d="M9.64926 779.388C1.00606 779.96 -7.6277 780.427 -16.2756 780.809C-19.8121 780.966 -22.8346 781.281 -26.3287 781.619C-29.6058 781.939 -32.4445 781.472 -35.7593 781.529C-46.416 781.724 -56.8793 782.125 -67.5689 782.058C-71.4261 782.034 -75.3021 781.371 -79.0649 781.615C-82.4269 781.834 -85.1901 782.101 -88.637 782.092C-115.288 782.039 -142.382 781.143 -168.977 779.383L-176.352 787.757L-175.998 787.781C-163.224 788.706 -150.431 789.383 -137.634 789.884C-126.463 790.323 -114.967 790.733 -103.802 790.79C-99.1616 790.814 -93.6919 790.018 -89.2359 790.557C-85.7418 790.981 -83.172 790.986 -79.6638 790.986C-65.7205 790.986 -51.782 790.805 -37.8388 790.423C-35.4198 790.361 -32.1333 790.385 -29.8086 790.084C-27.9319 789.841 -27.7763 789.336 -25.711 789.56C-23.5891 789.789 -22.3065 789.903 -20.161 789.827C-7.8116 789.388 4.69818 788.659 17.0288 787.762L9.65398 779.388H9.64926Z" fill="url(#paint20_radial_175_34944)"/>
<path fill-rule="evenodd" clip-rule="evenodd" d="M20.2732 568.159L18.4531 760.636L24.2624 764.451C24.3284 757.717 24.3897 750.983 24.4557 744.249C24.4888 740.887 24.5217 737.515 24.55 734.149C24.6161 726.995 24.5689 719.622 24.7811 712.493C24.866 709.655 25.3752 707.204 25.2385 704.4C24.9037 697.709 24.7481 692.081 25.4035 685.366C25.6157 683.168 25.1583 680.802 25.1112 678.47C24.9886 671.918 25.2008 664.979 25.2668 658.388C25.3186 653.338 25.3658 648.287 25.413 643.237C25.5025 633.89 25.4648 624.357 25.7006 615.028C25.7807 611.976 26.2617 609.492 26.0731 606.43C25.5874 598.571 25.9128 590.058 25.9882 582.127C26.0165 579.094 26.0448 576.066 26.0731 573.037C26.0967 570.51 26.1202 567.987 26.1438 565.464L26.1533 564.453L20.2732 568.154V568.159Z" fill="url(#paint21_radial_175_34944)"/>
<path fill-rule="evenodd" clip-rule="evenodd" d="M11.418 765.928C9.12159 768.232 7.19774 770.845 5.72656 773.721L9.6497 779.386C10.8568 775.957 12.8278 772.834 15.5297 770.125C18.0996 767.55 21.0419 765.642 24.2578 764.44L18.4485 760.625C15.8739 762.032 13.5163 763.82 11.418 765.923V765.928Z" fill="url(#paint22_radial_175_34944)"/>
<path fill-rule="evenodd" clip-rule="evenodd" d="M5.72636 773.727C-22.6976 775.52 -51.1877 776.216 -79.6635 776.216C-108.139 776.216 -136.629 775.52 -165.053 773.727L-168.977 779.392C-142.382 781.152 -115.288 782.053 -88.6368 782.101C-85.1852 782.106 -82.422 781.843 -79.0647 781.624C-75.3018 781.376 -71.4306 782.039 -67.5687 782.068C-56.8791 782.134 -46.4205 781.738 -35.7591 781.538C-32.4442 781.476 -29.6056 781.948 -26.3284 781.629C-22.8344 781.285 -19.8119 780.975 -16.2754 780.818C-7.62274 780.432 1.01102 779.964 9.64951 779.397L5.72636 773.731V773.727Z" fill="url(#paint23_radial_175_34944)"/>
<path style="mix-blend-mode:screen" fill-rule="evenodd" clip-rule="evenodd" d="M17.4444 768.391C14.3653 771.171 11.9982 774.338 10.8147 778.158C10.7015 778.525 10.6732 778.892 10.7298 779.25C10.8948 780.275 13.658 783.761 14.403 784.801C13.3657 783.818 10.5365 780.814 9.38122 780.385C8.98984 780.237 8.57017 780.175 8.12222 780.199C-2.19021 780.671 -11.6444 780.752 -22.1172 781.229C-14.7424 780.275 7.75442 779.45 9.0087 778.625C9.39064 778.372 9.70657 778.014 9.92348 777.566C11.6068 774.109 13.9456 770.971 17.4491 768.4L17.4444 768.391Z" fill="url(#paint24_radial_175_34944)"/>
</g>
</g>
<defs>
<radialGradient id="paint0_radial_175_34944" cx="0" cy="0" r="1" gradientUnits="userSpaceOnUse" gradientTransform="translate(-375.507 -56.2959) scale(514.046 118.09)">
<stop offset="0.72" stop-color="#262E44"/>
<stop offset="0.76" stop-color="#313A51"/>
<stop offset="0.85" stop-color="#46536B"/>
<stop offset="0.94" stop-color="#53627B"/>
<stop offset="1" stop-color="#586881"/>
</radialGradient>
<radialGradient id="paint1_radial_175_34944" cx="0" cy="0" r="1" gradientUnits="userSpaceOnUse" gradientTransform="translate(-369.662 14.5016) scale(659.902 151.597)">
<stop stop-color="#38465E"/>
<stop offset="1" stop-color="#1F263F"/>
</radialGradient>
<radialGradient id="paint2_radial_175_34944" cx="0" cy="0" r="1" gradientUnits="userSpaceOnUse" gradientTransform="translate(15.155 725.008) scale(150.817 123.833)">
<stop stop-color="#506283"/>
<stop offset="1" stop-color="#39456F"/>
</radialGradient>
<radialGradient id="paint3_radial_175_34944" cx="0" cy="0" r="1" gradientUnits="userSpaceOnUse" gradientTransform="translate(14.6207 802.412) scale(189.16 155.316)">
<stop stop-color="#20377D"/>
<stop offset="0.21" stop-color="#152554"/>
<stop offset="0.44" stop-color="#0C152F"/>
<stop offset="0.66" stop-color="#050915"/>
<stop offset="0.85" stop-color="#010205"/>
<stop offset="1"/>
</radialGradient>
<radialGradient id="paint4_radial_175_34944" cx="0" cy="0" r="1" gradientUnits="userSpaceOnUse" gradientTransform="translate(-402.679 731.34) scale(694.072 159.447)">
<stop stop-color="#313D50"/>
<stop offset="1" stop-color="#192033"/>
</radialGradient>
<radialGradient id="paint5_radial_175_34944" cx="0" cy="0" r="1" gradientUnits="userSpaceOnUse" gradientTransform="translate(15.155 756.691) scale(150.817 34.6468)">
<stop stop-color="#506283"/>
<stop offset="1" stop-color="#39456F"/>
</radialGradient>
<radialGradient id="paint6_radial_175_34944" cx="0" cy="0" r="1" gradientUnits="userSpaceOnUse" gradientTransform="translate(-139.41 743.577) scale(908.517 208.711)">
<stop stop-color="#607099"/>
<stop offset="1" stop-color="#495586"/>
</radialGradient>
<radialGradient id="paint7_radial_175_34944" cx="0" cy="0" r="1" gradientUnits="userSpaceOnUse" gradientTransform="translate(14.6207 778.353) scale(189.16 43.4552)">
<stop stop-color="#20377D"/>
<stop offset="0.21" stop-color="#152554"/>
<stop offset="0.44" stop-color="#0C152F"/>
<stop offset="0.66" stop-color="#050915"/>
<stop offset="0.85" stop-color="#010205"/>
<stop offset="1"/>
</radialGradient>
<radialGradient id="paint8_radial_175_34944" cx="0" cy="0" r="1" gradientUnits="userSpaceOnUse" gradientTransform="translate(-79.6656 -56.2959) scale(116.761 118.09)">
<stop offset="0.72" stop-color="#262E44"/>
<stop offset="0.76" stop-color="#313A51"/>
<stop offset="0.85" stop-color="#46536B"/>
<stop offset="0.94" stop-color="#53627B"/>
<stop offset="1" stop-color="#586881"/>
</radialGradient>
<radialGradient id="paint9_radial_175_34944" cx="0" cy="0" r="1" gradientUnits="userSpaceOnUse" gradientTransform="translate(29.2524 26.5415) scale(46.3234 46.8507)">
<stop stop-color="#435371"/>
<stop offset="1" stop-color="#28304F"/>
</radialGradient>
<radialGradient id="paint10_radial_175_34944" cx="0" cy="0" r="1" gradientUnits="userSpaceOnUse" gradientTransform="translate(-100.788 112.906) scale(244.07 246.848)">
<stop stop-color="#344156"/>
<stop offset="1" stop-color="#19202F"/>
</radialGradient>
<radialGradient id="paint11_radial_175_34944" cx="0" cy="0" r="1" gradientUnits="userSpaceOnUse" gradientTransform="translate(-78.337 14.5016) scale(149.891 151.597)">
<stop stop-color="#38465E"/>
<stop offset="1" stop-color="#1F263F"/>
</radialGradient>
<radialGradient id="paint12_radial_175_34944" cx="0" cy="0" r="1" gradientUnits="userSpaceOnUse" gradientTransform="translate(44.9039 37.7224) scale(53.9763 54.5908)">
<stop stop-color="#4D5F7E"/>
<stop offset="1" stop-color="#2C3751"/>
</radialGradient>
<radialGradient id="paint13_radial_175_34944" cx="0" cy="0" r="1" gradientUnits="userSpaceOnUse" gradientTransform="translate(-29.7799 103.825) scale(219.182 221.678)">
<stop stop-color="#677A9E"/>
<stop offset="1" stop-color="#39456F"/>
</radialGradient>
<radialGradient id="paint14_radial_175_34944" cx="0" cy="0" r="1" gradientUnits="userSpaceOnUse" gradientTransform="translate(25.265 26.4988) scale(43.928 44.428)">
<stop stop-color="#20377D"/>
<stop offset="0.21" stop-color="#152554"/>
<stop offset="0.44" stop-color="#0C152F"/>
<stop offset="0.66" stop-color="#050915"/>
<stop offset="0.85" stop-color="#010205"/>
<stop offset="1"/>
</radialGradient>
<radialGradient id="paint15_radial_175_34944" cx="0" cy="0" r="1" gradientUnits="userSpaceOnUse" gradientTransform="translate(-100.788 338.631) scale(244.07 1032.67)">
<stop stop-color="#344156"/>
<stop offset="1" stop-color="#19202F"/>
</radialGradient>
<radialGradient id="paint16_radial_175_34944" cx="0" cy="0" r="1" gradientUnits="userSpaceOnUse" gradientTransform="translate(-29.7799 300.627) scale(219.182 927.373)">
<stop stop-color="#677A9E"/>
<stop offset="1" stop-color="#39456F"/>
</radialGradient>
<radialGradient id="paint17_radial_175_34944" cx="0" cy="0" r="1" gradientUnits="userSpaceOnUse" gradientTransform="translate(25.265 -22.8742) scale(43.928 185.862)">
<stop stop-color="#20377D"/>
<stop offset="0.21" stop-color="#152554"/>
<stop offset="0.44" stop-color="#0C152F"/>
<stop offset="0.66" stop-color="#050915"/>
<stop offset="0.85" stop-color="#010205"/>
<stop offset="1"/>
</radialGradient>
<radialGradient id="paint18_radial_175_34944" cx="0" cy="0" r="1" gradientUnits="userSpaceOnUse" gradientTransform="translate(-100.788 650.906) scale(244.07 246.848)">
<stop stop-color="#344156"/>
<stop offset="1" stop-color="#19202F"/>
</radialGradient>
<radialGradient id="paint19_radial_175_34944" cx="0" cy="0" r="1" gradientUnits="userSpaceOnUse" gradientTransform="translate(8.18197 792.497) scale(37.4774 37.904)">
<stop stop-color="#303B54"/>
<stop offset="1" stop-color="#181D2A"/>
</radialGradient>
<radialGradient id="paint20_radial_175_34944" cx="0" cy="0" r="1" gradientUnits="userSpaceOnUse" gradientTransform="translate(-85.8361 731.34) scale(157.652 159.447)">
<stop stop-color="#313D50"/>
<stop offset="1" stop-color="#192033"/>
</radialGradient>
<radialGradient id="paint21_radial_175_34944" cx="0" cy="0" r="1" gradientUnits="userSpaceOnUse" gradientTransform="translate(-29.7799 641.825) scale(219.182 221.678)">
<stop stop-color="#677A9E"/>
<stop offset="1" stop-color="#39456F"/>
</radialGradient>
<radialGradient id="paint22_radial_175_34944" cx="0" cy="0" r="1" gradientUnits="userSpaceOnUse" gradientTransform="translate(9.06973 756.691) scale(34.2568 34.6468)">
<stop stop-color="#506283"/>
<stop offset="1" stop-color="#39456F"/>
</radialGradient>
<radialGradient id="paint23_radial_175_34944" cx="0" cy="0" r="1" gradientUnits="userSpaceOnUse" gradientTransform="translate(-26.0361 743.577) scale(206.362 208.711)">
<stop stop-color="#607099"/>
<stop offset="1" stop-color="#495586"/>
</radialGradient>
<radialGradient id="paint24_radial_175_34944" cx="0" cy="0" r="1" gradientUnits="userSpaceOnUse" gradientTransform="translate(8.9474 778.353) scale(42.9661 43.4552)">
<stop stop-color="#20377D"/>
<stop offset="0.21" stop-color="#152554"/>
<stop offset="0.44" stop-color="#0C152F"/>
<stop offset="0.66" stop-color="#050915"/>
<stop offset="0.85" stop-color="#010205"/>
<stop offset="1"/>
</radialGradient>
<clipPath id="clip0_175_34944">
<rect width="35" height="790" fill="white"/>
</clipPath>
<clipPath id="clip1_175_34944">
<rect width="768" height="22" fill="white" transform="translate(-760)"/>
</clipPath>
<clipPath id="clip2_175_34944">
<rect width="768" height="747" fill="white" transform="translate(-760 22)"/>
</clipPath>
<clipPath id="clip3_175_34944">
<rect width="768" height="22" fill="white" transform="translate(-760 769)"/>
</clipPath>
<clipPath id="clip4_175_34944">
<rect width="27" height="42" fill="white" transform="translate(8)"/>
</clipPath>
<clipPath id="clip5_175_34944">
<rect width="27" height="707" fill="white" transform="translate(8 42)"/>
</clipPath>
<clipPath id="clip6_175_34944">
<rect width="27" height="42" fill="white" transform="translate(8 749)"/>
</clipPath>
</defs>
</svg>
