<svg xmlns="http://www.w3.org/2000/svg" fill="none" viewBox="0 0 117.87201735357918 15.744" style="max-height: 500px" width="117.87201735357918" height="15.744">
<g clip-path="url(#clip0_144_9473)">
<path fill="#1F2B3A" d="M-11.811 9.49771C-11.7908 9.17394 -6.71283 1.32234 -5.72545 1.26837C3.20131 0.647799 42.2937 0.270059 47.1702 0.000244141C49.4673 0.890632 52.228 1.43026 54.8677 1.45724C77.7791 1.72706 117.698 1.13347 123.864 1.26837C124.327 1.26837 129.949 8.74223 129.949 9.49771C129.949 24.6073 129.768 45.3021 129.587 54.8266C129.587 55.7709 123.884 63.1908 123.602 63.1908C122.776 63.1908 104.882 64.0002 102.705 64.0002C102.544 64.0002 99.8642 62.975 98.4335 62.975C64.0161 62.948 29.2159 63.2987 -5.20153 63.2987C-5.7053 63.2987 -11.4482 56.2566 -11.5087 54.8535C-11.7707 50.3746 -11.8916 41.3088 -11.952 32.4319C-11.6498 29.6259 -11.0452 22.4218 -11.0654 22.152C-11.0855 21.4235 -11.6699 19.6427 -11.9722 17.8889C-11.952 13.464 -11.9117 10.2802 -11.8311 9.5247H-11.811V9.49771Z" clip-rule="evenodd" fill-rule="evenodd"/>
<path fill="url(#paint0_radial_144_9473)" d="M-3.56982 8.17538C13.6389 7.15009 32.379 8.60709 48.0966 9.01181L47.1697 -0.0269775C42.2932 0.269818 3.20082 0.647559 -5.74609 1.24115L-3.58997 8.17538H-3.56982ZM54.8672 1.457L56.7412 7.55481C78.4032 7.31198 112.317 8.20236 121.707 8.20236L123.863 1.26813C117.697 1.13322 77.7987 1.72682 54.8672 1.457Z" clip-rule="evenodd" fill-rule="evenodd"/>
<path fill="url(#paint1_radial_144_9473)" d="M47.1704 0L48.0974 9.03899C49.1251 9.03899 53.8404 7.58196 56.7422 7.55498L54.8682 1.45703C52.2284 1.43005 49.4475 0.917391 47.1704 0Z" clip-rule="evenodd" fill-rule="evenodd"/>
<path fill="url(#paint2_radial_144_9473)" d="M123.602 63.1905L121.224 56.3372C120.539 56.4451 105.285 55.3119 104.459 55.5278L102.705 64C104.882 64 122.776 63.1905 123.602 63.1905ZM98.4134 62.9477L96.9021 56.7689C63.5728 56.7689 30.2234 57.8212 -3.0857 56.3372L-5.22168 63.2715C29.1957 63.2715 63.996 62.9207 98.4134 62.9477Z" clip-rule="evenodd" fill-rule="evenodd"/>
<path fill="url(#paint3_radial_144_9473)" d="M102.707 64.0002L104.46 55.5278C103.654 55.7167 97.3062 56.796 96.9233 56.796L98.4347 62.9749C99.8856 62.9749 102.566 64.0002 102.707 64.0002Z" clip-rule="evenodd" fill-rule="evenodd"/>
<path fill="url(#paint4_radial_144_9473)" d="M-6.6116 12.3036C-6.41009 11.8989 -3.85095 8.20246 -3.56884 8.17548C13.6399 7.15018 32.38 8.60718 48.0976 9.0119C49.1252 9.0119 53.8405 7.5549 56.7422 7.52792C78.4042 7.28509 112.318 8.17548 121.708 8.17548C121.849 8.17548 124.711 11.8989 124.751 12.3036C125.758 25.2278 125.315 49.0254 125.093 51.2918C125.053 51.7775 121.446 56.3104 121.224 56.3644C120.539 56.4723 105.285 55.3391 104.459 55.5549C103.653 55.7438 97.3056 56.823 96.9227 56.823C63.5934 56.823 30.244 57.8753 -3.06507 56.3913C-3.38749 56.3913 -6.06753 52.6679 -6.24889 52.1552C-6.5713 51.3188 -6.02723 34.7252 -6.06753 33.538C-6.08768 32.7286 -7.05491 26.5229 -7.09521 22.9883C-7.09521 22.7185 -6.22874 20.1822 -6.22874 19.9394C-6.22874 19.2109 -6.7325 12.6544 -6.5713 12.3036H-6.6116Z" clip-rule="evenodd" fill-rule="evenodd"/>
<path fill="url(#paint5_radial_144_9473)" d="M-5.36111 12.9781C-5.46186 13.221 -4.51478 19.1029 -4.51478 20.0473C-4.51478 20.398 -5.84473 22.7724 -5.84473 23.1771C-5.84473 24.0405 -4.33342 31.7842 -4.23267 33.3761C-4.13192 34.968 -5.28051 50.7252 -5.079 51.4267C-4.9984 51.7235 -2.80197 54.6375 -2.70122 54.6375C30.487 56.2564 63.6954 55.0962 96.8836 55.0692C98.6568 55.0692 103.11 52.452 104.944 51.8314C105.931 51.4807 119.493 54.4756 120.621 54.0169C121.77 53.5313 123.785 50.9141 123.825 50.6982C124.772 45.8955 124.127 19.8584 123.482 12.9242C123.482 12.7623 121.306 9.92925 121.246 9.92925C99.8659 9.47056 78.1636 8.76904 56.824 8.76904C56.0179 8.76904 48.7032 12.5734 47.8771 12.4925C44.3104 12.0878 25.5098 9.76736 14.2455 9.60547C8.44212 9.52452 2.61857 9.47056 -3.16468 9.90226C-3.30574 9.90226 -5.30066 12.7623 -5.38126 12.9781H-5.36111Z" clip-rule="evenodd" fill-rule="evenodd" opacity="0.75" style="mix-blend-mode:screen"/>
<path fill="url(#paint6_radial_144_9473)" d="M-4.19468 8.12153C-4.19468 7.60887 -4.69846 5.58525 -4.83951 4.93769C-5.04102 4.02031 -5.24253 3.12992 -5.44404 2.23952C-5.50449 1.99668 -5.40374 2.32047 -5.36344 2.37443C-5.04102 3.18388 -3.71106 6.96131 -3.26774 7.23113C-2.98563 7.39302 -2.58261 7.42 -2.11914 7.42C10.0117 7.20415 22.1627 7.52793 34.2733 8.52625C22.0418 8.0136 9.85047 8.04058 -2.38111 8.44531C-2.94533 8.44531 -3.24759 8.55323 -3.46925 8.63418C-3.85212 8.76909 -4.57755 9.47061 -4.96042 9.84835C-4.71861 9.38967 -4.25514 8.63418 -4.19468 8.09454V8.12153Z" clip-rule="evenodd" fill-rule="evenodd" style="mix-blend-mode:screen"/>
<path fill="url(#paint7_radial_144_9473)" d="M121.507 7.25809C121.83 6.90732 123.26 2.99498 123.563 2.29346C123.341 3.29178 122.374 7.17714 122.374 7.90565C122.374 8.49924 123.301 9.98324 123.623 10.5499C123.18 10.0912 122.253 8.85001 121.749 8.7151C120.419 8.39132 94.7669 8.22943 90.7972 7.74376C90.4949 7.71677 91.3816 7.74376 91.3816 7.74376C94.5251 7.60885 120.762 7.8247 121.527 7.28507L121.507 7.25809Z" clip-rule="evenodd" fill-rule="evenodd" style="mix-blend-mode:screen"/>
</g>
<defs>
<radialGradient gradientTransform="translate(44.3486 -26.9005) scale(256.72 343.744)" gradientUnits="userSpaceOnUse" r="1" cy="0" cx="0" id="paint0_radial_144_9473">
<stop stop-color="#607492"/>
<stop stop-color="#3B4762" offset="1"/>
</radialGradient>
<radialGradient gradientTransform="translate(40.4198 -7.20421) scale(52.6147 70.4502)" gradientUnits="userSpaceOnUse" r="1" cy="0" cx="0" id="paint1_radial_144_9473">
<stop stop-color="#556784"/>
<stop stop-color="#26324A" offset="1"/>
</radialGradient>
<radialGradient gradientTransform="translate(64.8625 37.9089) scale(344.738 461.599)" gradientUnits="userSpaceOnUse" r="1" cy="0" cx="0" id="paint2_radial_144_9473">
<stop stop-color="#1A2432"/>
<stop stop-color="#181A21" offset="1"/>
</radialGradient>
<radialGradient gradientTransform="translate(104.863 58.1721) scale(59.587 79.786)" gradientUnits="userSpaceOnUse" r="1" cy="0" cx="0" id="paint3_radial_144_9473">
<stop stop-color="#1D2738"/>
<stop stop-color="#131924" offset="1"/>
</radialGradient>
<radialGradient gradientTransform="translate(57.9311 -32.3776) scale(141.357 189.275)" gradientUnits="userSpaceOnUse" r="1" cy="0" cx="0" id="paint4_radial_144_9473">
<stop stop-color="#4A5B76" offset="0.07"/>
<stop stop-color="#263348" offset="1"/>
</radialGradient>
<radialGradient gradientTransform="translate(59.242 -111.676) scale(262.564 351.568)" gradientUnits="userSpaceOnUse" r="1" cy="0" cx="0" id="paint5_radial_144_9473">
<stop stop-color="#1C2129"/>
<stop offset="1"/>
</radialGradient>
<radialGradient gradientTransform="translate(-3.79167 7.79775) scale(39.395 52.7492)" gradientUnits="userSpaceOnUse" r="1" cy="0" cx="0" id="paint6_radial_144_9473">
<stop stop-color="#1D2536"/>
<stop stop-color="#19202F" offset="0.07"/>
<stop stop-color="#0B0E15" offset="0.43"/>
<stop stop-color="#020305" offset="0.75"/>
<stop offset="1"/>
</radialGradient>
<radialGradient gradientTransform="translate(122.071 8.01357) scale(38.6494 51.7509)" gradientUnits="userSpaceOnUse" r="1" cy="0" cx="0" id="paint7_radial_144_9473">
<stop stop-color="#1D2536"/>
<stop stop-color="#19202F" offset="0.07"/>
<stop stop-color="#0B0E15" offset="0.43"/>
<stop stop-color="#020305" offset="0.75"/>
<stop offset="1"/>
</radialGradient>
<clipPath id="clip0_144_9473">
<rect fill="white" height="64" width="118"/>
</clipPath>
</defs>
</svg>