<svg width="25" height="19" viewBox="0 0 25 19" fill="none" xmlns="http://www.w3.org/2000/svg">
<path d="M12.151 17.9293L19.6554 12.4772L16.7891 3.65601H7.51347L4.64722 12.4772L12.151 17.9293Z" fill="#104556"/>
<path d="M17.0575 3.28693H7.24584L4.21387 12.6187L12.1517 18.3856L20.0895 12.6187L17.0575 3.28693ZM5.78371 12.1081L8.21591 4.62222H16.0868L18.519 12.1081L12.151 16.7348L5.78307 12.1081H5.78371Z" fill="url(#paint0_radial_111_14745)"/>
<g style="mix-blend-mode:multiply" opacity="0.3">
<path d="M8.21655 4.62225L12.1523 16.7348L16.0874 4.62225H8.21655Z" fill="#0C363D"/>
</g>
<path d="M17.057 3.28695H7.2453L6.54419 5.44509C6.98015 5.46548 7.43205 5.5203 7.89541 5.60825L8.21601 4.62224H16.0869L18.5191 12.1082L17.5955 12.7793C17.8033 13.1828 17.9875 13.6002 18.1456 14.0305L20.0889 12.618L17.057 3.28632V3.28695Z" fill="url(#paint1_radial_111_14745)"/>
<path style="mix-blend-mode:screen" d="M17.057 3.28695H7.2453L6.54419 5.44509C6.98015 5.46548 7.43205 5.5203 7.89541 5.60825L8.21601 4.62224H16.0869L18.5191 12.1082L17.5955 12.7793C17.8033 13.1828 17.9875 13.6002 18.1456 14.0305L20.0889 12.618L17.057 3.28632V3.28695Z" fill="url(#paint2_linear_111_14745)"/>
<path style="mix-blend-mode:screen" d="M16.5196 15.2121C16.473 14.692 16.3959 14.1974 16.2908 13.7277L12.1517 16.7348L5.78371 12.1081L7.5301 6.73254C7.03423 6.74465 6.54537 6.80011 6.07244 6.89699L4.21387 12.618L12.1517 18.3849L16.5196 15.2115V15.2121Z" fill="url(#paint3_linear_111_14745)"/>
<path d="M5.78345 12.1082L6.41317 11.9667L8.60508 5.22074H15.6984L17.8903 11.9667L18.5194 12.1082L16.0872 4.62225H8.21629L5.78345 12.1082Z" fill="#9E2C19"/>
<g style="mix-blend-mode:multiply" opacity="0.2">
<path d="M6.41309 11.9666L7.63939 8.81993C8.36535 6.95626 10.1608 6.14808 12.1603 6.14808C14.1686 6.14808 15.9698 6.9671 16.69 8.84224L17.8902 11.9673L15.6983 5.2207H8.605L6.41309 11.9673V11.9666Z" fill="#892334"/>
</g>
<path d="M5.78345 12.1082L6.41317 11.9667L12.1514 16.1364L17.8903 11.9667L18.5194 12.1082L12.1514 16.7348L5.78345 12.1082Z" fill="url(#paint4_linear_111_14745)"/>
<g style="mix-blend-mode:multiply" opacity="0.6">
<path d="M6.41309 11.9667L8.66364 6.19144C8.77199 5.91291 9.04096 5.72935 9.33989 5.72935H14.9959C15.2961 5.72935 15.5657 5.91419 15.6734 6.19463L17.8902 11.9667L15.6983 5.22009H8.605L6.41309 11.9667Z" fill="#892334"/>
</g>
<path d="M8.21655 4.62225L8.60535 5.22074H15.6986L16.0874 4.62225H8.21655Z" fill="#681D15"/>
<g style="mix-blend-mode:multiply" opacity="0.35">
<path d="M5.30113 9.27185L4.54074 12.1183C4.48147 12.3637 4.59811 12.6888 4.80015 12.8405L12.1509 18.385L4.21313 12.618L5.30049 9.27185H5.30113Z" fill="#9E2C19"/>
</g>
<g style="mix-blend-mode:multiply" opacity="0.6">
<path d="M6.41309 11.9667L11.8881 15.6545C12.0334 15.752 12.2705 15.752 12.4158 15.6545L17.8908 11.9667L12.152 16.1357L6.41309 11.9667Z" fill="#892334"/>
</g>
<g style="mix-blend-mode:multiply" opacity="0.35">
<path d="M12.1514 18.385L19.2198 12.9252C19.7144 12.5588 19.8208 12.4791 19.5984 11.7773L18.1235 6.56812L20.0892 12.618L12.1514 18.385Z" fill="#9E2C19"/>
</g>
<path d="M8.64404 14.186L12.1515 16.7348L16.8884 13.293L12.1521 16.9509L8.64404 14.186Z" fill="#FFF5CC"/>
<path d="M11.8862 3.28693H17.0579L18.1242 6.56811L16.8609 3.46858L11.8862 3.28693Z" fill="#FFF5CC"/>
<g style="mix-blend-mode:screen">
<path d="M13.9438 3.28693C13.9011 3.71205 14.0866 4.18817 14.4441 4.62222H16.0866L16.4926 5.87274C17.0076 5.99894 17.4997 6.00276 17.9031 5.89249L17.0567 3.28693H13.9431H13.9438Z" fill="#FFF2BB"/>
</g>
<g style="mix-blend-mode:screen">
<path d="M8.21773 13.8762C8.09344 14.1955 8.31844 14.6723 8.77033 15.0005C9.22223 15.3288 9.74487 15.3951 10.01 15.1784L8.21773 13.8762Z" fill="#FFF2BB"/>
</g>
<g style="mix-blend-mode:screen">
<path d="M10.0213 16.0503C9.94547 16.1663 9.73642 16.1644 9.55349 16.0452C9.37057 15.926 9.28388 15.7354 9.35973 15.6194C9.43558 15.5034 9.64463 15.5053 9.82756 15.6245C10.0105 15.7437 10.0972 15.9343 10.0213 16.0503Z" fill="#FFF2BB"/>
</g>
<path d="M6.47249 3.35199L6.17229 5.83582C5.46162 5.83199 4.86759 5.82881 3.8 5.83008C0.0197583 5.83454 0 3.34052 0 3.34052L6.47249 3.35263V3.35199Z" fill="#681D15"/>
<path d="M6.47249 3.35199L5.83385 5.29214C5.12318 5.28832 5.00654 5.28577 3.93895 5.28641C0.158705 5.2915 0 3.34052 0 3.34052L6.47249 3.35263V3.35199Z" fill="url(#paint5_radial_111_14745)"/>
<path d="M5.51443 6.30105L5.21869 8.78552C4.50803 8.78169 5.3723 8.78488 4.30471 8.78552C0.524464 8.78998 0.500244 6.28894 0.500244 6.28894L5.51443 6.30105Z" fill="#681D15"/>
<path d="M5.51453 6.30105L4.88289 8.24567C4.17223 8.24184 5.51453 8.23929 4.44693 8.23993C0.666692 8.24439 0.500977 6.28894 0.500977 6.28894L5.51517 6.30105H5.51453Z" fill="url(#paint6_radial_111_14745)"/>
<path d="M4.55737 9.24954L1.8938 9.23871C1.8938 9.23871 2.31191 11.1088 4.26035 11.7346L4.55737 9.25018V9.24954Z" fill="#681D15"/>
<path d="M4.55737 9.24954L1.8938 9.23871C1.8938 9.23871 1.97602 10.5689 3.92446 11.1948L4.55737 9.25018V9.24954Z" fill="url(#paint7_radial_111_14745)"/>
<path d="M6.47224 3.35193L6.79156 3.96827L6.17203 5.83576L5.83423 5.29208L6.47224 3.35193Z" fill="#9E2C19"/>
<path d="M5.51469 6.30109L5.83465 6.91169L5.21895 8.78555L4.88306 8.2457L5.51469 6.30109Z" fill="#9E2C19"/>
<path d="M4.55595 9.25018L4.87527 9.86015L4.26021 11.734L3.92432 11.1942L4.55595 9.25018Z" fill="#9E2C19"/>
<path d="M17.8323 3.35201L18.1325 5.83585C18.8431 5.83202 19.4372 5.82883 20.5048 5.83011C24.285 5.83457 24.3048 3.3399 24.3048 3.3399L17.8323 3.35201Z" fill="#681D15"/>
<path d="M17.8323 3.35201L18.4709 5.29217C19.1816 5.28834 19.2982 5.2858 20.3658 5.28643C24.1461 5.29089 24.3048 3.3399 24.3048 3.3399L17.8323 3.35201Z" fill="url(#paint8_radial_111_14745)"/>
<path d="M18.7904 6.30105L19.0862 8.78552C19.7968 8.78169 18.9326 8.78488 20.0002 8.78552C23.7804 8.78998 23.804 6.28894 23.804 6.28894L18.7898 6.30105H18.7904Z" fill="#681D15"/>
<path d="M18.7904 6.30105L19.4221 8.24567C20.1327 8.24184 18.7904 8.23929 19.858 8.23993C23.6383 8.24439 23.804 6.28894 23.804 6.28894L18.7898 6.30105H18.7904Z" fill="url(#paint9_radial_111_14745)"/>
<path d="M19.7483 9.24954L22.4119 9.23871C22.4119 9.23871 21.9937 11.1088 20.0453 11.7346L19.7483 9.25018V9.24954Z" fill="#681D15"/>
<path d="M19.7483 9.24954L22.4119 9.23871C22.4119 9.23871 22.3296 10.5689 20.3812 11.1948L19.7483 9.25018V9.24954Z" fill="url(#paint10_radial_111_14745)"/>
<path style="mix-blend-mode:screen" d="M17.8323 3.35201L18.4709 5.29217C19.1816 5.28834 19.2982 5.2858 20.3658 5.28643C24.1461 5.29089 24.3048 3.3399 24.3048 3.3399L17.8323 3.35201Z" fill="url(#paint11_linear_111_14745)"/>
<path style="mix-blend-mode:screen" d="M18.7904 6.30105L19.4221 8.24567C20.1327 8.24184 18.7904 8.23929 19.858 8.23993C23.6383 8.24439 23.804 6.28894 23.804 6.28894L18.7898 6.30105H18.7904Z" fill="url(#paint12_linear_111_14745)"/>
<path style="mix-blend-mode:screen" d="M19.7483 9.24954L22.4119 9.23871C22.4119 9.23871 22.3296 10.5689 20.3812 11.1948L19.7483 9.25018V9.24954Z" fill="url(#paint13_linear_111_14745)"/>
<path d="M17.8324 3.35193L17.5137 3.96827L18.1326 5.83576L18.471 5.29208L17.8324 3.35193Z" fill="#9E2C19"/>
<path d="M18.7898 6.30109L18.4705 6.91169L19.0855 8.78555L19.4214 8.2457L18.7898 6.30109Z" fill="#9E2C19"/>
<path d="M19.7485 9.25018L19.4292 9.86015L20.0449 11.734L20.3802 11.1942L19.7485 9.25018Z" fill="#9E2C19"/>
<path style="mix-blend-mode:screen" d="M6.47249 3.35201L0 3.3399C0 3.3399 0.158705 5.29089 3.93895 5.28643C5.00654 5.28516 5.12318 5.28834 5.83385 5.29217L6.47249 3.35201Z" fill="url(#paint14_linear_111_14745)"/>
<path style="mix-blend-mode:screen" d="M4.55737 9.24954L1.8938 9.23871C1.8938 9.23871 1.97602 10.5689 3.92446 11.1948L4.55737 9.25018V9.24954Z" fill="url(#paint15_linear_111_14745)"/>
<path style="mix-blend-mode:screen" d="M4.88288 8.24569L5.2551 7.09906C4.74839 7.26478 4.26718 7.48276 3.82548 7.753C3.64256 7.86518 3.42776 8.00285 3.19385 8.15773C3.5597 8.21063 3.97526 8.24059 4.44692 8.23995C5.51451 8.23868 4.17221 8.24186 4.88288 8.24569Z" fill="url(#paint16_linear_111_14745)"/>
<g style="mix-blend-mode:multiply" opacity="0.35">
<path d="M5.48037 8.72178L7.13817 3.96828C7.30963 3.48579 7.43391 3.35895 7.94572 3.34047L12.1517 3.28693H7.24589L5.47974 8.72178H5.48037Z" fill="#9E2C19"/>
</g>
<g style="mix-blend-mode:screen">
<path d="M13.6344 4.02886C13.2915 3.77965 12.8785 3.76372 12.7115 3.99317C12.5917 4.15761 12.6318 4.40363 12.7905 4.62162H14.02C14.0009 4.42084 13.862 4.19394 13.6344 4.02886Z" fill="#FFF2BB"/>
</g>
<g style="mix-blend-mode:multiply" opacity="0.6">
<path d="M14.166 11.0393L15.1807 9.28143V8.74349L13.1513 9.28143L12.1366 7.52356L11.1219 9.28143L9.09253 8.74349V9.28143L10.1072 11.0393L9.09253 12.2586V12.7965H11.1219L12.1366 14.5544L13.1513 12.7965H15.1807V12.2586L14.166 11.0393Z" fill="#892334"/>
</g>
<path d="M14.166 10.5014L15.1807 8.7435V8.08637L13.1513 8.7435L12.1366 6.98627L11.1219 8.7435L9.09253 8.08637V8.7435L10.1072 10.5014L9.09253 11.6015V12.2586H11.1219L12.1366 14.0165L13.1513 12.2586H15.1807V11.6015L14.166 10.5014Z" fill="#9E2C19"/>
<path d="M14.166 9.84359L15.1807 8.08636H13.1513L12.1366 6.32849L11.1219 8.08636H9.09253L10.1072 9.84359L9.09253 11.6015H11.1219L12.1366 13.3593L13.1513 11.6015H15.1807L14.166 9.84359Z" fill="url(#paint17_radial_111_14745)"/>
<path d="M15.181 11.6014H13.1516V12.2586H15.181V11.6014Z" fill="#681D15"/>
<path d="M11.1219 12.2586L12.1366 14.0164V13.3593L11.1219 11.6014H9.09253V12.2586H11.1219Z" fill="#681D15"/>
<path style="mix-blend-mode:screen" d="M11.4438 7.52869L11.1219 8.08639H9.09253L10.1072 9.84425L9.09253 11.6021H11.1219L12.1366 13.36L13.1513 11.6021H15.1807L14.166 9.84425L14.2794 9.64794C13.4668 8.71674 12.4916 8.01309 11.4438 7.52869Z" fill="url(#paint18_linear_111_14745)"/>
<path d="M9.09253 8.08636L10.1072 9.84359L9.91729 10.1725L9.09253 8.74349V8.08636Z" fill="#681D15"/>
<g style="mix-blend-mode:multiply" opacity="0.35">
<path d="M9.09253 8.08636L10.2844 9.59693C10.4202 9.77922 10.4616 9.84423 10.2844 10.0915L9.09253 11.6021L10.1072 9.84423L9.09253 8.08636Z" fill="#9E2C19"/>
</g>
<g style="mix-blend-mode:screen" opacity="0.8">
<path d="M12.1367 6.32849L13.1157 8.25908L15.1808 8.08636H13.1514L12.1367 6.32849Z" fill="#FFE67B"/>
</g>
<g style="mix-blend-mode:screen" opacity="0.5">
<path d="M9.09253 11.6015L11.3125 11.4096L12.1366 13.3593L11.1219 11.6015H9.09253Z" fill="#FFE67B"/>
</g>
<g style="mix-blend-mode:multiply" opacity="0.35">
<path d="M12.1367 13.3593L12.929 11.4205C13.015 11.2356 13.1291 11.2152 13.2604 11.2401L15.1808 11.6021H13.1514L12.1367 13.36V13.3593Z" fill="#9E2C19"/>
</g>
<path style="mix-blend-mode:screen" d="M14.6643 8.98059L15.1805 8.08636H13.5623C13.9421 8.36553 14.3105 8.66382 14.6636 8.98059H14.6643Z" fill="url(#paint19_linear_111_14745)"/>
<path style="mix-blend-mode:screen" d="M12.8783 7.61279L12.137 6.32849L11.7725 6.95949C12.1479 7.15962 12.5169 7.3776 12.8783 7.61215V7.61279Z" fill="url(#paint20_linear_111_14745)"/>
<path d="M12.8763 9.77347C12.7189 10.0463 12.2524 10.0724 11.8349 9.83147C11.4174 9.59055 11.2071 9.17371 11.3645 8.90091C11.5219 8.62812 11.9885 8.60199 12.406 8.84291C12.8234 9.08384 13.0338 9.50068 12.8763 9.77347Z" fill="#FCE265"/>
<path d="M11.3673 9.94044C11.3169 10.0278 11.1506 10.0265 10.9963 9.93726C10.8421 9.84802 10.7573 9.70525 10.8083 9.6173C10.8586 9.52998 11.025 9.53125 11.1792 9.62048C11.3335 9.70972 11.4183 9.85249 11.3673 9.94044Z" fill="#FCE265"/>
<g style="mix-blend-mode:multiply" opacity="0.35">
<path fill-rule="evenodd" clip-rule="evenodd" d="M19.2976 5.14421C18.8667 5.10151 18.5659 4.94535 18.3696 4.55911L17.8323 3.35193L18.4709 5.29208C19.1816 5.28826 19.2982 5.28507 20.3658 5.28635C20.9681 5.28698 21.478 5.23791 21.9108 5.15505C20.9739 5.26786 20.0121 5.21496 19.2976 5.14358V5.14421Z" fill="#9E2C19"/>
</g>
<g style="mix-blend-mode:multiply" opacity="0.35">
<path fill-rule="evenodd" clip-rule="evenodd" d="M19.8579 8.23997C20.7725 8.24124 21.4749 8.12715 22.0154 7.95442C21.2384 8.17049 20.5864 8.1552 20.0892 8.12524C19.7476 8.10421 19.4697 7.85308 19.325 7.54332L18.7903 6.30109L19.4219 8.2457C20.1326 8.24188 18.7903 8.23933 19.8579 8.23997Z" fill="#9E2C19"/>
</g>
<g style="mix-blend-mode:multiply" opacity="0.35">
<path fill-rule="evenodd" clip-rule="evenodd" d="M20.3807 11.1942C20.8026 11.0584 21.1366 10.8902 21.4017 10.7091C21.0881 10.8283 20.4992 10.9144 20.4992 10.9144L19.749 9.24957V9.25148L20.3807 11.1942Z" fill="#9E2C19"/>
</g>
<g style="mix-blend-mode:multiply" opacity="0.35">
<path d="M3.93895 5.28644C5.00654 5.28517 5.12318 5.28835 5.83385 5.29218L6.33992 3.75484L5.96387 4.59426C5.78349 5.03659 5.67642 5.18191 5.23472 5.18637C4.7586 5.19083 3.86182 5.18064 3.40674 5.16279C1.42197 5.08503 0.253036 4.22713 0 3.34119C0 3.34119 0.158705 5.29218 3.93895 5.28771V5.28644Z" fill="#9E2C19"/>
</g>
<g style="mix-blend-mode:multiply" opacity="0.35">
<path d="M4.9677 7.67208C4.84788 7.92384 4.71849 8.13481 4.43996 8.12461C4.15187 8.11441 3.34177 8.10868 2.87968 8.00415C1.80635 7.76195 1.16516 7.36232 0.730469 6.87154C1.09568 7.44709 2.0358 8.24189 4.44761 8.23934C5.5152 8.23806 4.1729 8.24125 4.88357 8.24507L5.40621 6.63635L4.9677 7.67208Z" fill="#9E2C19"/>
</g>
<g style="mix-blend-mode:multiply" opacity="0.35">
<path d="M3.92446 11.1941L4.47642 9.49808C4.37317 9.71415 4.16793 10.2145 3.95888 10.6779C3.81674 10.9934 3.68162 10.9532 3.46237 10.8621C2.37501 10.4095 2.12453 9.87031 1.8938 9.23804C1.8938 9.23804 1.97602 10.5682 3.92446 11.1941Z" fill="#9E2C19"/>
</g>
<path d="M17.8323 3.35199L23.7515 3.45333C23.9893 3.45715 24.1002 3.63562 23.9969 3.85041C23.8898 4.07413 23.7165 4.34119 23.4322 4.57191C24.2493 4.01676 24.3048 3.34052 24.3048 3.34052L17.8323 3.35263V3.35199Z" fill="#FFF5CC"/>
<path d="M18.7904 6.30108L23.1571 6.4037C23.667 6.41517 23.5847 6.63124 23.4515 6.89639C23.3693 7.06019 23.2571 7.23929 23.1093 7.38844C23.7549 6.86324 23.804 6.28961 23.804 6.28961L18.7898 6.30172L18.7904 6.30108Z" fill="#FFF5CC"/>
<path d="M21.9537 10.2164C22.3826 9.7059 22.4113 9.23871 22.4113 9.23871L19.7522 9.24954H19.749L21.9473 9.3426C22.2724 9.36236 22.2131 9.48473 22.1755 9.64216C22.1315 9.82381 22.0595 10.0373 21.953 10.2158L21.9537 10.2164Z" fill="#FFF5CC"/>
<g style="mix-blend-mode:screen" opacity="0.5">
<path d="M1.7207 3.34052L6.47293 3.35263L6.31295 3.8383C6.31295 3.58973 6.19504 3.46353 5.90822 3.46034L1.7207 3.34052Z" fill="#FFE67B"/>
</g>
<g style="mix-blend-mode:screen" opacity="0.5">
<path d="M1.7207 6.30109H5.51497L5.34033 6.83903L5.35881 6.66056C5.36837 6.49166 5.30846 6.4037 5.00125 6.38841L1.72134 6.30109H1.7207Z" fill="#FFE67B"/>
</g>
<g style="mix-blend-mode:screen" opacity="0.5">
<path d="M2.40591 9.2406L4.5564 9.24952L4.39259 9.75113L4.3824 9.51849C4.37666 9.38847 4.34097 9.34385 4.16378 9.33238L2.40527 9.24124L2.40591 9.2406Z" fill="#FFE67B"/>
</g>
<g style="mix-blend-mode:screen">
<path d="M18.471 5.29212C18.9293 5.28957 19.1409 5.28765 19.5189 5.28702C20.1894 4.86699 20.6355 4.24301 20.6986 3.5164C20.7037 3.45968 20.705 3.40359 20.7056 3.34686L17.833 3.35196L18.4717 5.29212H18.471Z" fill="#FFF2BB"/>
</g>
<path style="mix-blend-mode:screen" d="M0.500977 6.28961C0.500977 6.28961 0.528383 6.60638 0.806277 6.98435C1.21866 6.75107 1.67884 6.51269 2.16961 6.29407L0.500977 6.29025V6.28961Z" fill="url(#paint21_linear_111_14745)"/>
<path style="mix-blend-mode:color-dodge" opacity="0.5" d="M16.3242 9.46239C18.9372 9.46239 21.0554 7.34417 21.0554 4.7312C21.0554 2.11823 18.9372 0 16.3242 0C13.7112 0 11.593 2.11823 11.593 4.7312C11.593 7.34417 13.7112 9.46239 16.3242 9.46239Z" fill="url(#paint22_radial_111_14745)"/>
<path style="mix-blend-mode:color-dodge" opacity="0.5" d="M9.09232 19C11.1428 19 12.805 17.3378 12.805 15.2873C12.805 13.2369 11.1428 11.5746 9.09232 11.5746C7.04186 11.5746 5.37964 13.2369 5.37964 15.2873C5.37964 17.3378 7.04186 19 9.09232 19Z" fill="url(#paint23_radial_111_14745)"/>
<defs>
<radialGradient id="paint0_radial_111_14745" cx="0" cy="0" r="1" gradientUnits="userSpaceOnUse" gradientTransform="translate(16.3934 3.79109) scale(12.5925)">
<stop offset="0.01" stop-color="#E8B321"/>
<stop offset="1" stop-color="#E36C0B"/>
</radialGradient>
<radialGradient id="paint1_radial_111_14745" cx="0" cy="0" r="1" gradientUnits="userSpaceOnUse" gradientTransform="translate(18.6835 2.07659) scale(17.4212 17.4212)">
<stop offset="0.01" stop-color="#E8B321"/>
<stop offset="1" stop-color="#E36C0B"/>
</radialGradient>
<linearGradient id="paint2_linear_111_14745" x1="19.4356" y1="0.836902" x2="11.5393" y2="10.5772" gradientUnits="userSpaceOnUse">
<stop stop-color="#FFE969"/>
<stop offset="0.11" stop-color="#FEE366"/>
<stop offset="0.24" stop-color="#FBD45F"/>
<stop offset="0.38" stop-color="#F6BC54"/>
<stop offset="0.53" stop-color="#F09945"/>
<stop offset="0.69" stop-color="#E86D31"/>
<stop offset="0.85" stop-color="#DE3719"/>
<stop offset="1" stop-color="#D40000"/>
</linearGradient>
<linearGradient id="paint3_linear_111_14745" x1="6.86214" y1="16.6131" x2="13.7649" y2="7.96012" gradientUnits="userSpaceOnUse">
<stop stop-color="#D40000"/>
<stop offset="1" stop-color="#FFE447"/>
</linearGradient>
<linearGradient id="paint4_linear_111_14745" x1="12.1514" y1="10.8634" x2="12.1514" y2="13.4938" gradientUnits="userSpaceOnUse">
<stop offset="0.63" stop-color="#F7D24A"/>
<stop offset="1" stop-color="#F7E399"/>
</linearGradient>
<radialGradient id="paint5_radial_111_14745" cx="0" cy="0" r="1" gradientUnits="userSpaceOnUse" gradientTransform="translate(8.63955 1.31623) scale(13.9756 13.9756)">
<stop offset="0.01" stop-color="#E8B321"/>
<stop offset="1" stop-color="#E36C0B"/>
</radialGradient>
<radialGradient id="paint6_radial_111_14745" cx="0" cy="0" r="1" gradientUnits="userSpaceOnUse" gradientTransform="translate(8.63955 1.31618) scale(13.9756 13.9756)">
<stop offset="0.01" stop-color="#E8B321"/>
<stop offset="1" stop-color="#E36C0B"/>
</radialGradient>
<radialGradient id="paint7_radial_111_14745" cx="0" cy="0" r="1" gradientUnits="userSpaceOnUse" gradientTransform="translate(8.63972 1.3162) scale(13.9756 13.9756)">
<stop offset="0.01" stop-color="#E8B321"/>
<stop offset="1" stop-color="#E36C0B"/>
</radialGradient>
<radialGradient id="paint8_radial_111_14745" cx="0" cy="0" r="1" gradientUnits="userSpaceOnUse" gradientTransform="translate(17.1191 3.58593) scale(14.4434 14.4434)">
<stop offset="0.01" stop-color="#E8B321"/>
<stop offset="1" stop-color="#E36C0B"/>
</radialGradient>
<radialGradient id="paint9_radial_111_14745" cx="0" cy="0" r="1" gradientUnits="userSpaceOnUse" gradientTransform="translate(17.1192 3.58585) scale(14.4434 14.4434)">
<stop offset="0.01" stop-color="#E8B321"/>
<stop offset="1" stop-color="#E36C0B"/>
</radialGradient>
<radialGradient id="paint10_radial_111_14745" cx="0" cy="0" r="1" gradientUnits="userSpaceOnUse" gradientTransform="translate(17.1191 3.58587) scale(14.4434 14.4434)">
<stop offset="0.01" stop-color="#E8B321"/>
<stop offset="1" stop-color="#E36C0B"/>
</radialGradient>
<linearGradient id="paint11_linear_111_14745" x1="21.8866" y1="2.37556" x2="14.2503" y2="12.7539" gradientUnits="userSpaceOnUse">
<stop stop-color="#FFE969"/>
<stop offset="0.11" stop-color="#FEE366"/>
<stop offset="0.24" stop-color="#FBD45F"/>
<stop offset="0.38" stop-color="#F6BC54"/>
<stop offset="0.53" stop-color="#F09945"/>
<stop offset="0.69" stop-color="#E86D31"/>
<stop offset="0.85" stop-color="#DE3719"/>
<stop offset="1" stop-color="#D40000"/>
</linearGradient>
<linearGradient id="paint12_linear_111_14745" x1="23.442" y1="3.5202" x2="15.8063" y2="13.8985" gradientUnits="userSpaceOnUse">
<stop stop-color="#FFE969"/>
<stop offset="0.11" stop-color="#FEE366"/>
<stop offset="0.24" stop-color="#FBD45F"/>
<stop offset="0.38" stop-color="#F6BC54"/>
<stop offset="0.53" stop-color="#F09945"/>
<stop offset="0.69" stop-color="#E86D31"/>
<stop offset="0.85" stop-color="#DE3719"/>
<stop offset="1" stop-color="#D40000"/>
</linearGradient>
<linearGradient id="paint13_linear_111_14745" x1="24.7287" y1="4.46672" x2="17.0924" y2="14.845" gradientUnits="userSpaceOnUse">
<stop stop-color="#FFE969"/>
<stop offset="0.11" stop-color="#FEE366"/>
<stop offset="0.24" stop-color="#FBD45F"/>
<stop offset="0.38" stop-color="#F6BC54"/>
<stop offset="0.53" stop-color="#F09945"/>
<stop offset="0.69" stop-color="#E86D31"/>
<stop offset="0.85" stop-color="#DE3719"/>
<stop offset="1" stop-color="#D40000"/>
</linearGradient>
<linearGradient id="paint14_linear_111_14745" x1="10.5058" y1="-5.99757" x2="2.86944" y2="4.38073" gradientUnits="userSpaceOnUse">
<stop stop-color="#FFE969"/>
<stop offset="0.11" stop-color="#FEE366"/>
<stop offset="0.24" stop-color="#FBD45F"/>
<stop offset="0.38" stop-color="#F6BC54"/>
<stop offset="0.53" stop-color="#F09945"/>
<stop offset="0.69" stop-color="#E86D31"/>
<stop offset="0.85" stop-color="#DE3719"/>
<stop offset="1" stop-color="#D40000"/>
</linearGradient>
<linearGradient id="paint15_linear_111_14745" x1="0.961327" y1="13.149" x2="6.88696" y2="4.22834" gradientUnits="userSpaceOnUse">
<stop stop-color="#D40000"/>
<stop offset="1" stop-color="#FFE447"/>
</linearGradient>
<linearGradient id="paint16_linear_111_14745" x1="0.81582" y1="13.0527" x2="6.74209" y2="4.1321" gradientUnits="userSpaceOnUse">
<stop stop-color="#D40000"/>
<stop offset="1" stop-color="#FFE447"/>
</linearGradient>
<radialGradient id="paint17_radial_111_14745" cx="0" cy="0" r="1" gradientUnits="userSpaceOnUse" gradientTransform="translate(17.4892 3.55466) scale(14.3752 14.3752)">
<stop offset="0.01" stop-color="#E8B321"/>
<stop offset="1" stop-color="#E36C0B"/>
</radialGradient>
<linearGradient id="paint18_linear_111_14745" x1="8.96569" y1="14.6264" x2="14.7811" y2="5.85559" gradientUnits="userSpaceOnUse">
<stop stop-color="#D40000"/>
<stop offset="1" stop-color="#FFE447"/>
</linearGradient>
<linearGradient id="paint19_linear_111_14745" x1="18.5114" y1="1.95168" x2="11.5609" y2="12.3536" gradientUnits="userSpaceOnUse">
<stop stop-color="#FFE969"/>
<stop offset="0.11" stop-color="#FEE366"/>
<stop offset="0.24" stop-color="#FBD45F"/>
<stop offset="0.38" stop-color="#F6BC54"/>
<stop offset="0.53" stop-color="#F09945"/>
<stop offset="0.69" stop-color="#E86D31"/>
<stop offset="0.85" stop-color="#DE3719"/>
<stop offset="1" stop-color="#D40000"/>
</linearGradient>
<linearGradient id="paint20_linear_111_14745" x1="16.6796" y1="0.727284" x2="9.72906" y2="11.1292" gradientUnits="userSpaceOnUse">
<stop stop-color="#FFE969"/>
<stop offset="0.11" stop-color="#FEE366"/>
<stop offset="0.24" stop-color="#FBD45F"/>
<stop offset="0.38" stop-color="#F6BC54"/>
<stop offset="0.53" stop-color="#F09945"/>
<stop offset="0.69" stop-color="#E86D31"/>
<stop offset="0.85" stop-color="#DE3719"/>
<stop offset="1" stop-color="#D40000"/>
</linearGradient>
<linearGradient id="paint21_linear_111_14745" x1="10.4223" y1="-6.05943" x2="2.78595" y2="4.3195" gradientUnits="userSpaceOnUse">
<stop stop-color="#FFE969"/>
<stop offset="0.11" stop-color="#FEE366"/>
<stop offset="0.24" stop-color="#FBD45F"/>
<stop offset="0.38" stop-color="#F6BC54"/>
<stop offset="0.53" stop-color="#F09945"/>
<stop offset="0.69" stop-color="#E86D31"/>
<stop offset="0.85" stop-color="#DE3719"/>
<stop offset="1" stop-color="#D40000"/>
</linearGradient>
<radialGradient id="paint22_radial_111_14745" cx="0" cy="0" r="1" gradientUnits="userSpaceOnUse" gradientTransform="translate(16.3242 4.7312) scale(4.7312)">
<stop stop-color="#F4A940"/>
<stop offset="0.09" stop-color="#E69F3C"/>
<stop offset="0.27" stop-color="#C28633"/>
<stop offset="0.51" stop-color="#885E23"/>
<stop offset="0.8" stop-color="#39270F"/>
<stop offset="1"/>
</radialGradient>
<radialGradient id="paint23_radial_111_14745" cx="0" cy="0" r="1" gradientUnits="userSpaceOnUse" gradientTransform="translate(9.09232 15.2873) scale(3.71268)">
<stop stop-color="#F4A940"/>
<stop offset="0.09" stop-color="#E69F3C"/>
<stop offset="0.27" stop-color="#C28633"/>
<stop offset="0.51" stop-color="#885E23"/>
<stop offset="0.8" stop-color="#39270F"/>
<stop offset="1"/>
</radialGradient>
</defs>
</svg>
